<?xml version="1.0" encoding="UTF-8"?>
<svg id="Layer_2" data-name="Layer 2" xmlns="http://www.w3.org/2000/svg" viewBox="0 0 90.78 70.27">
  <defs>
    <style>
      .cls-1 {
        stroke-width: .25px;
      }

      .cls-1, .cls-2, .cls-3 {
        fill: none;
        stroke: #605659;
        stroke-miterlimit: 10;
      }

      .cls-3 {
        stroke-width: .5px;
      }
    </style>
  </defs>
  <g id="Layer_1-2" data-name="Layer 1">
    <path class="cls-2" d="m18.4,12.47c9.29.59,23.34,2.77,38.13,10.72,3.61,1.94,8.73,4.73,14.05,9.55,13.58,12.3,18.06,28.38,19.71,37.44"/>
    <path class="cls-2" d="m18.56,26.39c1.76-.96-.8-6.12-.1-14.53.4-4.83,1.71-8.68,2.73-11.15-2.89.69-6.88,1.82-11.44,3.73C4.11,6.8.73,8.26.51,10.6c-.16,1.73,1.5,2.77,6.77,7.18,8.36,6.99,10.05,9.29,11.28,8.61Z"/>
    <path class="cls-3" d="m17.9,26.26c-1.12-3.53-1.59-7.27-1.37-10.97.09-1.49-.23-2.61-.18-4.1"/>
    <path class="cls-3" d="m16.42,25.38c-.8-4.1-1.1-8.3-.9-12.47"/>
    <path class="cls-3" d="m15.02,24.86c-.64-4.03-.83-8.14-.56-12.22"/>
    <path class="cls-3" d="m13.42,23.22s0,.03-.02.04c-.04.03-.15-.11-.19-.16-.17-.21-.3-5.74-.38-10.27"/>
    <path class="cls-3" d="m11.4,22.12c-.49-2.98-.63-6.02-.42-9.03"/>
    <path class="cls-3" d="m9.48,19.97c-.57-2.99-.74-6.08-.52-9.13"/>
    <path class="cls-3" d="m7.89,17.9c-.11-2.05-.22-4.09-.33-6.14"/>
    <path class="cls-3" d="m6.2,17.03c-.24-2.05-.36-4.12-.37-6.19"/>
    <path class="cls-3" d="m5.05,16.52c-.21-2.03-.3-4.07-.28-6.11"/>
    <path class="cls-3" d="m3.51,14.46l-.37-3.96"/>
    <path class="cls-3" d="m2.32,13.17c-.17-.97-.25-1.95-.23-2.93"/>
    <path class="cls-3" d="m1.23,12.3c-.06-.89,0-1.79.16-2.67"/>
    <path class="cls-3" d="m10.19,20.3c-.18-2.69-.18-5.39,0-8.09"/>
    <path class="cls-3" d="m12.16,22.02c-.13-3.4-.26-6.8-.39-10.19"/>
    <path class="cls-3" d="m13.92,23.57c-.31-3.37-.36-6.77-.13-10.15"/>
    <path class="cls-3" d="m18.67,26.06c-1.23-4.71-1.5-9.55-1.07-14.36"/>
    <path class="cls-1" d="m11.67,5.66c1.54-.92,3.17-1.68,4.85-2.29.63-.23,1.24-.41,1.86-.67.07-.03.15-.06.23-.06s.16.06.17.14"/>
    <path class="cls-3" d="m6.96,17.53c-.11-2.05-.22-4.09-.33-6.14"/>
  </g>
</svg>