<?xml version="1.0" encoding="UTF-8"?>
<svg id="Layer_2" data-name="Layer 2" xmlns="http://www.w3.org/2000/svg" viewBox="0 0 166.38 104.35">
  <defs>
    <style>
      .cls-1 {
        fill: none;
        stroke: #231f20;
        stroke-miterlimit: 10;
        stroke-width: .75px;
      }
    </style>
  </defs>
  <g id="Layer_1-2" data-name="Layer 1">
    <path class="cls-1" d="m68.04,85c-10.58-3.54-20.96,4.29-31.11,9.42-7.84,3.96-19.53,8.31-35.92,9.49,6.18-5.94,12.66-12.72,19.2-20.41,5.07-5.97,9.59-11.8,13.62-17.39.08-3.45-.86-5.61-1.96-7.01-1.23-1.57-2.16-1.56-4.25-3.56-1.75-1.68-3.44-3.57-4.13-5.89-.92-3.09.07-6.43,1.51-9.31,2.99-6.01,7.83-10.87,12.79-15.4C50.2,13.56,64.65,3.26,81.33.9c15.15-2.14,30.52,2.54,44.2,9.38,9.8,4.9,19.07,10.94,27.06,18.45,5.05,4.75,9.67,10.23,11.91,16.79,3.67,10.74.3,22.94-6.39,32.11-3.26,4.47-7.34,8.43-12.25,10.97-6.88,3.56-14.86,4.12-22.57,4.92-8.43.87-16.87,2.12-25.34,1.82-2.12-.08-12.32-1.58-23.99-7.24-4.46-2.16-3.84-2.39-5.91-3.09Z"/>
  </g>
</svg>