<?xml version="1.0" encoding="utf-8"?>
<!-- Generator: Adobe Illustrator 27.2.0, SVG Export Plug-In . SVG Version: 6.00 Build 0)  -->
<svg version="1.1" id="Layer_2_00000154413021706811538030000009336119961801552293_"
	 xmlns="http://www.w3.org/2000/svg" xmlns:xlink="http://www.w3.org/1999/xlink" x="0px" y="0px" viewBox="0 0 166.4 104.3"
	 style="enable-background:new 0 0 166.4 104.3;" xml:space="preserve">
<style type="text/css">
	.st0{fill:none;stroke:#FBFBFB;stroke-width:2;stroke-miterlimit:10;}
</style>
<g id="Layer_1-2">
	<path class="st0" d="M68,85c-10.6-3.5-21,4.3-31.1,9.4c-7.8,4-19.5,8.3-35.9,9.5C7.2,98,13.7,91.2,20.2,83.5
		c5.1-6,9.6-11.8,13.6-17.4c0.1-3.5-0.9-5.6-2-7c-1.2-1.6-2.2-1.6-4.2-3.6c-1.8-1.7-3.4-3.6-4.1-5.9c-0.9-3.1,0.1-6.4,1.5-9.3
		c3-6,7.8-10.9,12.8-15.4c12.4-11.4,26.9-21.7,43.5-24c15.2-2.1,30.5,2.5,44.2,9.4c9.8,4.9,19.1,10.9,27.1,18.4
		c5.1,4.8,9.7,10.2,11.9,16.8c3.7,10.7,0.3,22.9-6.4,32.1c-3.3,4.5-7.3,8.4-12.2,11c-6.9,3.6-14.9,4.1-22.6,4.9
		c-8.4,0.9-16.9,2.1-25.3,1.8c-2.1-0.1-12.3-1.6-24-7.2C69.5,85.9,70.1,85.7,68,85L68,85z"/>
</g>
</svg>
