<?xml version="1.0" encoding="UTF-8"?>
<svg id="Layer_2" data-name="Layer 2" xmlns="http://www.w3.org/2000/svg" viewBox="0 0 136.79 169.89">
  <defs>
    <style>
      .cls-1 {
        stroke-width: .25px;
      }

      .cls-1, .cls-2 {
        fill: none;
        stroke: #000;
        stroke-miterlimit: 10;
      }

      .cls-2 {
        stroke-width: .5px;
      }
    </style>
  </defs>
  <g id="Layer_1-2" data-name="Layer 1">
    <path class="cls-2" d="m61.84,35.53c-6.9.91-20.27,3.66-33.57,13.39-13.59,9.94-19.85,21.85-21.31,24.77-1.67,3.32-5.03,10.16-6.25,19.74-1.39,10.89.71,19.56,2.47,26.79,1.4,5.75,2.38,9.79,4.97,14.89,5.53,10.87,13.55,17.07,18.67,20.93,2.92,2.2,7.68,5.75,14.85,8.63,6.88,2.77,12.5,3.53,16.45,4.04,5.85.75,16.47,2.17,29.51-1.4,9.9-2.71,18.96-7.89,27.31-13.85,4.68-3.35,8.24-6.23,11.86-11.24,6.23-8.62,7.68-17.38,8.63-23.14,1.45-8.76.81-15.59.43-19.41-1.22-12.16-4.87-20.95-5.78-23.06-2.61-6.09-8.55-19.45-22.45-29.01-7.23-4.97-14.17-7.24-20.27-9.24-8.84-2.89-14.14-3.23-15.69-3.31-5.99-.31-10.94.53-14.29,1.33"/>
    <path class="cls-2" d="m69.14,21.15c5.84,3.16,13.35,3.22,19.05-.19,5.7-3.41,9.24-10.29,8.33-16.87-2.9,1.96-5.84,3.94-9.17,5-2.17.69-4.44.98-6.65,1.55-4.96,1.28-9.75,4.28-12.4,8.75-1.65,2.78-.67,3.45-.34,6.25s.41,5.79-.48,8.38c-.86,2.51-5.19,2.98-7.23,4.82"/>
    <path class="cls-2" d="m66.92,22.18c-1.26,2.38-4.61,2.46-7.27,2.03-3.14-.5-6.31-1.28-8.96-3.04-2.91-1.92-4.99-4.9-6.4-8.09-1.05-2.39-1.77-4.94-3.18-7.14-1.42-2.2-3.45-3.91-5.46-5.59,13.15,1.65,25.49,8.96,33.25,19.71"/>
    <path class="cls-2" d="m68.75,21.73c.43-1.56,1.72-2.76,3.16-3.5s3.04-1.08,4.6-1.51c4.62-1.27,9.03-3.32,12.99-6.02"/>
    <path class="cls-2" d="m50.47,10.12c4.01,2.41,5.6,7.52,9.3,10.37,1.59,1.23,3.54,1.98,5.55,2.15"/>
    <path class="cls-2" d="m136.76,98.62c-.56.07-1.21.1-1.93.03-2.01-.18-3.52-.99-4.38-1.56-1.64-.88-2.97-2.27-3.86-3.91-1.07-1.96.16-3.68-1.18-5.37-.72-.91-1.36-.91-2.08-2.05-.67-1.04-.83-2.15-.86-2.94.28-.66.91-2.31.23-3.03-.92-.97-4.25-.12-5.01,1.85-.16.41-.24.85-.31,1.28-.4,2.33-.69,4.68-.98,7.03-.06.52-.13,1.03-.19,1.55-.18,1.42-.35,2.85-.53,4.27-.53,2.62-3.6,3.71-6.2,4.34-3.67.89-7.35,1.77-11.02,2.66-.54-.87-1.09-1.75-1.63-2.62-2.81-.73-5.3-2.61-6.76-5.12-.59-.36-1.41-.78-2.45-1.06-1.86-.5-3.45-.29-4.34-.1.06,1.01.19,2.16.44,3.4.22,1.11.49,2.11.78,2.99-.32.17-.9.53-1.39,1.2-.46.63-.64,1.25-.71,1.6.81,1.8,2.14,3.36,3.79,4.44.3.39.72,1.03.89,1.9.32,1.63-.49,2.75-.02,3.14.59.5,2.15-1.05,3.13-.46.45.27.59.88.64,1.35,2.33-.19,3.99.3,4.88.64.61.24,1.1.5,2.07,1.04,1.44.79,2.17,1.2,2.42,1.73.58,1.24-.56,2.87-.86,3.28-.34.29-.88.8-1.38,1.55-1.71,2.57-.82,4.74-2.44,5.93-.96.71-1.66.22-2.32,1.08-.47.62-.37,1.2-.64,2.95-.15.97-.33,1.76-.47,2.29-.39.71-.81,1.74-.69,2.94.11,1.08.61,1.73.86,2.24.56,1.14.64,3.11-1.55,6.73-1.21,2.08-2.49,2.82-3.45,3.11-1.88.56-3.25-.41-4.32.52-.85.74-.27,1.6-1.04,3.11-.75,1.47-1.62,1.28-3.97,3.28-1.06.9-2.45,2.08-3.63,3.97-1.13,1.81-1.07,2.68-2.07,3.28-1.23.74-2.85.34-4.06-.13-3.31-1.79-5.02-3.86-5.96-5.39-2.53-4.11-1.43-7.43-3.89-10.63-.3-.39-1.23-1.53-.96-2.73.16-.71.68-1.19,1.05-1.47-.02-.84.04-2.05.43-3.44.39-1.39.97-2.45,1.43-3.16-1.51-1.58-3.01-3.16-4.52-4.74-.37-.39-.92-1.36-1.75-1.36-.77,0-1.08.79-1.99.93-.76.11-1.47-.31-1.99-.74.12-.13,1.63-1.81,1.09-4.02-.42-1.69-1.76-2.51-2.03-2.67.28-1.21.55-2.42.83-3.62,1.29-.04,1.5-2.14.48-2.94s-2.46-.63-3.74-.43c-2.62.41-5.23.83-7.85,1.24-1.26.2-2.53.4-3.81.42-.82.01-1.66-.05-2.44.2,0,0-.76.25-3.08,2.09-.49-.26-.98-.52-1.47-.78-.39-1.71-3.2-1.39-4.18-2.84-.37-.56-.39-1.26-.52-1.92-.49-2.48-2.86-4.46-5.39-4.49-.43-1.24-.53-2.59-.28-3.88-.17-1.13-.13-2.28-.09-3.42l.2-6.19c.05-1.71.12-3.46.74-5.06,1.02-2.63,3.4-4.45,5.74-6.03,1.54-1.04,3.11-2.03,4.71-2.97,2.86-1.69,5.86-3.25,8.19-5.62.33-.33.66-.69,1.11-.82,1.55-.45,2.45,2.04,4.04,2.3,1.89.31,3.33-2.64,5.13-2.01.81.28.75,1.01,1.84,1.63,1.1.64,2.33.57,3.19.42,1.2.86,2.4,1.72,3.6,2.57,1.39.07,2.54,1.03,3.77,1.67,1.23.65,2.95.91,3.84-.16,4.42.56,8.9.58,13.32.06,1.16,1.33,3.59.05,3.9-1.69.31-1.74-.69-3.42-1.64-4.9-.71-1.1-1.73-2.35-3.02-2.13-.7.12-1.3.68-2.02.67-.89,0-1.51-.86-2.27-1.32-1.27-.76-2.9-.38-4.29.14-1.39.53-2.83,1.19-4.29.94-1.46-.26-2.73-1.99-1.91-3.23-1.78-1.57-3.57-3.14-5.35-4.71-.83-.73-1.72-1.49-2.81-1.69-.74-.14-1.52,0-2.24-.23-.94-.29-1.63-1.16-2.58-1.41-.77-.2-1.58.03-2.35.26-4.5,1.37-9,2.74-13.5,4.1-.69-2.74.36-5.69,2.11-7.91,1.75-2.22,4.12-3.86,6.45-5.46,1.13-.77,2.42-1.59,3.77-1.34.73.14,1.4.58,2.14.55,1.39-.06,2.36-1.72,3.75-1.62,1.16.09,2.05,1.43,3.2,1.24.64-.11,1.09-.66,1.48-1.18,1.36-1.79,2.72-3.58,4.08-5.36.43-.57.88-1.15,1.48-1.53.8-.51,1.77-.62,2.71-.73,4.65-.5,9.52-.97,13.85.8.55.22,1.12.48,1.7.39.62-.1,1.11-.58,1.64-.91,1.59-.99,3.66-.7,5.44-1.3,3.73-1.25,2.32-4.73-.3-5.96-1.02-.48-3.84-3.03-11.97-3.28-2.95-.09-7.21.07-12.26,1.3"/>
    <path class="cls-2" d="m112.68,155.51l-3.64-8.28"/>
    <path class="cls-2" d="m115.27,153.68c-2.35-5.46-5.03-10.78-8.02-15.92"/>
    <path class="cls-2" d="m125.21,145.34c-.12.04.05.24.15.15s.06-.24.01-.36c-2.59-6.95-6.06-13.57-10.32-19.65"/>
    <path class="cls-2" d="m130.82,136.43c-4.32-9.83-9.83-19.13-16.37-27.64"/>
    <path class="cls-2" d="m134.93,120.47c-.93-3.61-2.6-7.04-4.89-9.99"/>
    <path class="cls-2" d="m39.01,163.5c-1.03-5.42-3.93-10.27-6.78-15"/>
    <path class="cls-2" d="m52.47,167.4c-3.76-8.63-7.52-17.25-11.28-25.88"/>
    <path class="cls-2" d="m75.22,168.52c-2.33-6-5.04-11.86-8.12-17.51"/>
    <path class="cls-2" d="m90.97,166.1c-3.2-6.72-6.67-13.31-10.42-19.74"/>
    <path class="cls-2" d="m102.39,159.69l-7.71-18.16"/>
    <path class="cls-1" d="m93.4,164.37l-5.45-10.23"/>
    <path class="cls-1" d="m96.86,163.68c-2.62-4.1-5.25-8.2-7.87-12.31"/>
    <path class="cls-1" d="m98.43,162.28c-1.49-3.6-3.39-7.03-5.65-10.21"/>
    <path class="cls-1" d="m101.19,160.74c-1.79-2.72-3.5-5.5-5.12-8.33"/>
    <path class="cls-1" d="m103.39,159.02l-2.85-6.08"/>
    <path class="cls-1" d="m106.05,158.81l-3.38-7.11"/>
    <path class="cls-1" d="m107.75,157.79c-1.95-4.09-4.13-8.08-6.51-11.94"/>
    <path class="cls-1" d="m110.83,156.94c-1.79-4.31-4.02-8.44-6.65-12.3"/>
    <path class="cls-1" d="m111.22,152.95l-3.59-7.96"/>
    <path class="cls-1" d="m117.54,149.34c-1.16-3.36-2.63-6.61-4.39-9.71"/>
    <path class="cls-1" d="m120.67,146.93c-1.6-3.8-3.54-7.46-5.78-10.92"/>
    <path class="cls-1" d="m123.44,145.36c-1.02-3.82-2.57-7.5-4.58-10.9"/>
    <path class="cls-1" d="m125.42,141.37c-1-3.89-2.57-7.63-4.66-11.06"/>
    <path class="cls-1" d="m127.6,138.11l-3.54-8.5"/>
    <path class="cls-1" d="m130.19,134.3c-.6-2.5-1.46-4.93-2.55-7.26"/>
    <path class="cls-1" d="m131.54,129.82c-1.05-3.65-2.47-7.19-4.21-10.57"/>
    <path class="cls-1" d="m133.82,126.19c-1.06-4.11-2.68-8.07-4.79-11.75"/>
    <path class="cls-1" d="m134.37,119.45c-.99-4.92-4.24-9.07-5.95-13.8"/>
    <path class="cls-1" d="m135.39,113.58c-.53-2.7-1.72-5.27-3.44-7.42"/>
    <path class="cls-1" d="m135.13,107.34c-.43-2.09-1.29-4.09-2.5-5.85"/>
    <path class="cls-1" d="m136.47,103.72c-1.35-2.78-2.87-5.48-4.56-8.07"/>
    <path class="cls-1" d="m134.08,94.9l-4.87-8.96"/>
    <path class="cls-1" d="m78.02,168.06c-.76-.81-1.21-1.86-1.64-2.88-1.22-2.89-2.45-5.78-3.67-8.66"/>
    <path class="cls-1" d="m80.35,166.75c-.76-2.82-1.87-5.56-3.27-8.12"/>
    <path class="cls-1" d="m83.89,168.15c-1.13-3.92-2.72-7.71-4.72-11.27"/>
    <path class="cls-1" d="m87.4,168.48c-1.09-3.39-2.59-6.65-4.47-9.68"/>
    <path class="cls-1" d="m88.81,166.4c-1.09-3.75-2.65-7.36-4.65-10.72"/>
    <path class="cls-1" d="m55.61,167.63c-1.4-3.1-2.86-6.16-4.39-9.2"/>
    <path class="cls-1" d="m58.75,166.07c-1.85-3.23-3.36-6.65-4.5-10.18"/>
    <path class="cls-1" d="m62.01,167.47l.38.29c-.95-2.9-1.99-5.78-3.1-8.62"/>
    <path class="cls-1" d="m66.31,167.45c-1.11-3.61-2.49-7.13-4.11-10.54"/>
    <path class="cls-1" d="m70.43,168.16c-2.02-4.82-3.85-9.73-5.47-14.7"/>
    <path class="cls-1" d="m46.89,164.42c-1.68-2.43-2.91-5.17-3.6-8.05"/>
    <path class="cls-1" d="m41.48,161.75c-.46-.04-.72-.52-.9-.94-1.2-2.74-2.4-5.47-3.6-8.21"/>
    <path class="cls-1" d="m48.98,164.71c-.97-3.18-2.39-6.23-4.2-9.02"/>
    <path class="cls-1" d="m34.54,160.55c-.98-2.52-2.15-4.97-3.5-7.32"/>
    <path class="cls-1" d="m29.87,157.29c-1.07-1.59-1.97-3.28-2.68-5.05"/>
    <path class="cls-1" d="m25.68,154.74c-1.84-2.22-3.01-4.99-3.31-7.85"/>
    <path class="cls-1" d="m124.7,76.29c.89,1.28,1.88,2.49,2.95,3.61"/>
    <path class="cls-1" d="m123.72,71.41l1.7,2.43"/>
    <path class="cls-1" d="m60.14,150.69c.49,2.9,1.1,5.23,2.55,7.79-.9-1.41-1.49-3.02-1.7-4.68.79,2.76,2.39,4.75,3.75,7.28-1.14-2.26-1.33-5.53-2.01-7.98"/>
    <path class="cls-1" d="m67.71,161.32c-.34-.09-.52-.44-.66-.75-1.27-2.85-2.9-6.07-3.78-9.02"/>
    <path class="cls-1" d="m69.6,162.8c-1.64-2.67-2.85-5.61-3.57-8.66"/>
    <path class="cls-1" d="m70.96,161.82c.05-.1.15.12.04.14s-.18-.11-.21-.21c-.82-2.22-1.71-4.41-2.69-6.57"/>
    <path class="cls-1" d="m72.76,161.58c.09-.12.2.2.04.21s-.25-.16-.31-.3c-.92-2.44-1.83-4.88-2.75-7.31"/>
    <path class="cls-1" d="m72.52,157.62l.31.66c-.66-1.67-1.33-3.33-1.99-5"/>
    <path class="cls-1" d="m74.44,157.96c-1.04-2.02-1.95-4.1-2.73-6.23"/>
    <path class="cls-1" d="m74.98,155.36c-.01.23.06.46.2.63-.66-1.86-1.41-3.69-2.25-5.48"/>
    <path class="cls-1" d="m76.02,154.15c.07.38.24.73.48,1.02-.63-1.99-1.37-3.95-2.2-5.87"/>
    <path class="cls-1" d="m77.77,153.79l.21.45c-.79-1.96-1.51-3.95-2.16-5.96"/>
    <path class="cls-1" d="m79.07,152.1c-1.14-2.59-2.11-5.25-2.9-7.96"/>
    <path class="cls-1" d="m80.17,151.73c-.7-2.06-1.51-4.07-2.42-6.04"/>
    <path class="cls-1" d="m80.87,149.66c.03.46.15.91.34,1.32-.55-1.96-1.18-3.91-1.89-5.82"/>
    <path class="cls-1" d="m82.09,148.96c-.93-2.75-1.66-5.58-2.2-8.43"/>
    <path class="cls-1" d="m83.76,147.94l-1.71-5.53"/>
    <path class="cls-1" d="m85.35,147.24c-.04.18,0,.38.09.55-.6-1.85-1.19-3.71-1.79-5.56"/>
    <path class="cls-1" d="m86.9,146.72c0,.2.12.39.28.5-.57-1.97-1.17-3.92-1.81-5.87"/>
    <path class="cls-1" d="m88.13,145.52c-.09.21-.02.48.16.62-.23-1.63-.64-3.24-1.22-4.78"/>
    <path class="cls-1" d="m89.51,144.64c-.13-.45.66-.77.88-.35s-.5.88-.79.52c-.56-1.89-1.12-3.79-1.67-5.68"/>
    <path class="cls-1" d="m91.18,144.66c-.71-1.8-1.39-3.62-2.03-5.45"/>
    <path class="cls-1" d="m91.94,142.56s.04.08,0,.08-.08-.05-.09-.1c-.67-1.66-1.33-3.31-2-4.97"/>
    <path class="cls-1" d="m92.05,139.92c-.65-1.76-1.35-3.5-2.11-5.22"/>
    <path class="cls-1" d="m91.12,135.26l-1.48-4.57"/>
    <path class="cls-1" d="m91.64,133.44s.04.05,0,.05-.06-.04-.07-.08c-.29-1.09-.58-2.19-.87-3.28"/>
    <path class="cls-1" d="m92.02,132.09l-1.47-4.45"/>
    <path class="cls-1" d="m92.43,129.61s0-.04,0-.07c-.09-1.12-.34-2.23-.74-3.29"/>
    <path class="cls-1" d="m93.16,128.27c-.23-1.25-.51-2.5-.85-3.72"/>
    <path class="cls-1" d="m94.18,127.58c-.16-1.24-.44-2.46-.85-3.65"/>
    <path class="cls-1" d="m95.05,126.9c.14-.15.13-.38.11-.58-.14-1.47-.52-2.91-1.11-4.26"/>
    <path class="cls-1" d="m95.71,118.28c.32,1.06.92,2.59.8,3.71-.12,1.17-.78.03-1.02-.61"/>
    <path class="cls-1" d="m97.52,121.06c-.02.08,0,.16.04.23.1-.88.06-1.77-.1-2.63"/>
    <path class="cls-1" d="m98.52,119.35c.06-1.12-.05-2.25-.31-3.33"/>
    <path class="cls-1" d="m86.39,113.24l-1.55-3.37"/>
    <path class="cls-1" d="m86.28,111.29c-.29-.91-.66-1.79-1.09-2.63"/>
    <path class="cls-1" d="m86.09,109.05c-.25-.54-.4-1.12-.44-1.72"/>
    <path class="cls-1" d="m86.55,93.93c-.3-.71-.54-1.44-.73-2.19"/>
    <path class="cls-1" d="m88.76,94.23c-.33-1.27-.76-2.51-1.27-3.71"/>
    <path class="cls-1" d="m90.67,95.55l-1.66-4.82"/>
    <path class="cls-1" d="m92.97,97.82c-.79-1.57-1.43-3.21-1.89-4.91"/>
    <path class="cls-1" d="m94.3,98.27c-.38-1.08-.73-2.17-1.05-3.27"/>
    <path class="cls-1" d="m95.45,98.43l-.93-2.66"/>
    <path class="cls-1" d="m97.17,100.52c-.63-1.54-1.21-3.1-1.73-4.67"/>
    <path class="cls-1" d="m98.75,101.36c-.02.07-.13,0-.15-.07-.4-1.17-.81-2.34-1.21-3.51"/>
    <path class="cls-1" d="m99.6,102.53c-.69-1.53-1.26-3.11-1.7-4.73"/>
    <path class="cls-1" d="m100.52,101.76c-.39-1.28-.82-2.55-1.29-3.81"/>
    <path class="cls-1" d="m101.93,102.22l-1.3-3.42"/>
    <path class="cls-1" d="m101.59,97.47c.66,1.39,1.28,2.8,1.87,4.22"/>
    <path class="cls-1" d="m103.47,97.88l1.16,2.93s.05.1.1.11.09-.09.03-.09"/>
    <path class="cls-1" d="m103.94,96.79c.66,1.22,1.24,2.49,1.73,3.79"/>
    <path class="cls-1" d="m105.12,96.32c.55,1.4,1.16,2.78,1.85,4.12"/>
    <path class="cls-1" d="m105.72,95.48c.84,1.42,1.53,2.92,2.05,4.48"/>
    <path class="cls-1" d="m106.67,95.24c.77,1.76,1.49,3.55,2.16,5.36"/>
    <path class="cls-1" d="m107.74,94.7c.8,1.71,1.56,3.44,2.28,5.18"/>
    <path class="cls-1" d="m108.55,94.22l2.2,5.06"/>
    <path class="cls-1" d="m109.66,93.54c.76,1.71,1.56,3.41,2.37,5.1"/>
    <path class="cls-1" d="m111.61,94.62c.37,1.16.82,2.3,1.34,3.4"/>
    <path class="cls-1" d="m111.71,91.74c.59,1.78,1.35,3.51,2.27,5.15"/>
    <path class="cls-1" d="m112.77,91.13l1.64,4.26"/>
    <path class="cls-1" d="m112.76,88.82c.81,1.5,1.49,3.08,2.01,4.71.03.1.13.23.22.17"/>
    <path class="cls-1" d="m113.36,86.67c.35.33.54.78.71,1.23.44,1.16.8,2.34,1.07,3.55"/>
    <path class="cls-1" d="m114.19,85.15c.42,1.62.89,3.24,1.41,4.83"/>
    <path class="cls-1" d="m114.81,83.29c.26,1.44.66,2.85,1.2,4.2"/>
    <path class="cls-1" d="m115.51,81.36c.15,1.17.42,2.32.8,3.43"/>
    <path class="cls-1" d="m116.5,79.18c.12,1.12.33,2.22.64,3.31.03.11.13.24.22.17"/>
    <path class="cls-1" d="m117.52,78.18c.06.9.2,1.79.44,2.66.01.05.03.11.08.13s.12-.02.09-.07"/>
    <path class="cls-1" d="m118.79,76.23c.14,1.23.34,2.46.62,3.67.02.07.04.15.11.17.15.06.2-.19.16-.35"/>
    <path class="cls-1" d="m120.26,76.07c.47,1.15.9,2.32,1.29,3.5"/>
    <path class="cls-1" d="m50.93,129.35c.2.51.47.99.79,1.44"/>
    <path class="cls-1" d="m51.71,128.11l.64,1.62c.11-.08.15-.24.09-.36"/>
    <path class="cls-1" d="m52.08,126.64c.37,1.04.93,2.01,1.64,2.84"/>
    <path class="cls-1" d="m53.09,126.02l1.66,3.37c.04.08.13.18.21.13"/>
    <path class="cls-1" d="m54.08,125.75l1.3,2.32c.1.18.22.38.41.45"/>
    <path class="cls-1" d="m55.24,124.24c.52.88.99,1.78,1.4,2.71"/>
    <path class="cls-1" d="m56.43,131.52c.63,1,1.36,1.93,2.19,2.77"/>
    <path class="cls-1" d="m57.59,131.51c.74.81,1.38,1.71,1.89,2.67"/>
    <path class="cls-1" d="m58.52,130.97l2.17,2.87"/>
    <path class="cls-1" d="m57.77,143.88c.52.86,1.09,1.69,1.71,2.49"/>
    <path class="cls-1" d="m58.76,142.45l1.33,1.99"/>
    <path class="cls-1" d="m59.03,140.61c.44.84.99,1.63,1.63,2.33"/>
    <path class="cls-1" d="m59.53,138.88l1.22,1.57"/>
    <path class="cls-1" d="m59.9,136.65l1,1.24"/>
    <path class="cls-1" d="m28.73,117.33l1.55,2.33"/>
    <path class="cls-1" d="m29.82,116.94c.41.65.84,1.28,1.29,1.9.18.25.41.51.71.53"/>
    <path class="cls-1" d="m30.94,115.45l2.17,3.31"/>
    <path class="cls-1" d="m32.08,115.39c.64.95,1.32,1.87,2.05,2.75"/>
    <path class="cls-1" d="m33.37,115.02l1.8,2.39"/>
    <path class="cls-1" d="m34.46,114.71c.59,1.09,1.26,2.13,2.01,3.11"/>
    <path class="cls-1" d="m35.84,114.56l2.36,3"/>
    <path class="cls-1" d="m37.4,114.4l1.95,2.86"/>
    <path class="cls-1" d="m38.94,114.64l1.34,1.86c.08.11.27.19.3.07"/>
    <path class="cls-1" d="m40.39,113.95c.45.78.98,1.52,1.57,2.2.13.15.28.31.48.36"/>
    <path class="cls-1" d="m42.75,114.94c.35.72.89,1.35,1.53,1.82"/>
    <path class="cls-1" d="m43.69,113.54c.52.93,1.12,1.81,1.79,2.63"/>
    <path class="cls-1" d="m44.79,112.99c.68,1.12,1.47,2.17,2.36,3.14"/>
    <path class="cls-1" d="m46.65,113.07c.46.78.96,1.53,1.5,2.26.01-.08.02-.16.04-.23"/>
    <path class="cls-1" d="m47.72,112.69l2.01,2.8"/>
    <path class="cls-1" d="m61.93,72.97c.21.39.45.77.73,1.12"/>
    <path class="cls-1" d="m62.47,72.36c.3.99.79,1.93,1.44,2.74"/>
    <path class="cls-1" d="m63.31,71.74c.43,1,.96,1.96,1.56,2.87"/>
    <path class="cls-1" d="m64.56,72.12c.29.83.73,1.6,1.28,2.28"/>
    <path class="cls-1" d="m65.4,71.28l1.53,2.65"/>
    <path class="cls-1" d="m66.71,71.36c.28.76.64,1.49,1.09,2.17"/>
    <path class="cls-1" d="m67.79,70.97l1.48,2.87"/>
    <path class="cls-1" d="m69.44,71.51c.33.87.8,1.69,1.39,2.41"/>
    <path class="cls-1" d="m70.9,71.2c.34.92.79,1.81,1.33,2.63"/>
    <path class="cls-1" d="m72.69,71.97c.32.73.73,1.41,1.22,2.04"/>
    <path class="cls-1" d="m74.09,71.82c.47.51.87,1.08,1.17,1.7"/>
    <path class="cls-1" d="m63.36,83.62c.55,1,1.18,1.96,1.88,2.86"/>
    <path class="cls-1" d="m65.04,83.75l1.68,2.27"/>
    <path class="cls-1" d="m66.19,82.9c.59,1.15,1.28,2.25,2.06,3.28"/>
    <path class="cls-1" d="m67.82,83.6l1.77,2.18"/>
    <path class="cls-1" d="m69.34,83.47c.5.81,1.05,1.58,1.66,2.31"/>
    <path class="cls-1" d="m70.96,83.86c.45.83,1.04,1.59,1.74,2.23"/>
    <path class="cls-1" d="m72.91,83.85c.36.65.78,1.28,1.23,1.87"/>
    <path class="cls-1" d="m74.37,84.25c.41.64.9,1.22,1.44,1.75"/>
    <path class="cls-1" d="m76.1,83.77c.4.64.87,1.24,1.41,1.77"/>
    <path class="cls-1" d="m77.58,83.6c.33.41.73.78,1.16,1.09"/>
    <path class="cls-1" d="m49.05,95.7c.07.54.37,1.05.81,1.37"/>
    <path class="cls-1" d="m49.26,93.23l1.17,2.57c.08.18.2.38.4.38"/>
    <path class="cls-1" d="m49.59,91.05c.6,1.35,1.27,2.67,2.03,3.95"/>
    <path class="cls-1" d="m50.66,90.82l1.5,3.09"/>
    <path class="cls-1" d="m51.53,90.35l1.43,2.97"/>
    <path class="cls-1" d="m52.31,89.3s-.03-.08.01-.08.08.05.1.09c.4.81.8,1.62,1.21,2.43"/>
    <path class="cls-1" d="m53.17,87.93l.91,1.41"/>
    <path class="cls-1" d="m64.12,101.04c.32.96.79,1.87,1.38,2.69"/>
    <path class="cls-1" d="m64.76,98.89l1.88,4.26"/>
    <path class="cls-1" d="m66.19,97.87c.45,1.54,1.07,3.03,1.85,4.42"/>
    <path class="cls-1" d="m67.02,96.8l2.07,4.63"/>
    <path class="cls-1" d="m68.76,95.85c.35,1.15.78,2.26,1.29,3.34"/>
    <path class="cls-1" d="m69.72,94.24c.51,1.43,1.07,2.85,1.66,4.25"/>
    <path class="cls-1" d="m71.05,92.53c.52,1.93,1.18,3.82,1.96,5.66"/>
    <path class="cls-1" d="m72.34,92.04c.73,1.19,1.31,2.47,1.7,3.81"/>
    <path class="cls-1" d="m28.26,100.12c.26.81.66,1.57,1.16,2.25"/>
    <path class="cls-1" d="m28.82,98.18c.5,1.12,1.06,2.21,1.68,3.27"/>
    <path class="cls-1" d="m29.74,95.54c1.05,2.27,2.19,4.49,3.42,6.66"/>
    <path class="cls-1" d="m31.14,94.3c1.06,2.38,2.15,4.74,3.29,7.08"/>
    <path class="cls-1" d="m32.16,93.06c.93,2.26,1.94,4.48,3.02,6.67"/>
    <path class="cls-1" d="m34.25,93.76c.57,1.56,1.2,3.09,1.9,4.59"/>
    <path class="cls-1" d="m36.1,94.15c.25.87.61,1.71,1.06,2.5.11-.02.19-.13.17-.24"/>
    <path class="cls-1" d="m36.88,92.28c.38.98.81,1.94,1.29,2.88"/>
    <path class="cls-1" d="m32.2,85.55c.2.8.54,1.57,1,2.26"/>
    <path class="cls-1" d="m33.72,84.92c.09.51.25,1.01.47,1.49.05.11.19.24.28.15"/>
    <path class="cls-1" d="m34.86,83.99c0,.64.2,1.29.58,1.81"/>
    <path class="cls-1" d="m21.27,95.32l.64,1.31c.06.12.2.27.3.17"/>
    <path class="cls-1" d="m22.71,92.83c.04.48.16.95.37,1.38.07.15.28.32.38.18"/>
    <path class="cls-1" d="m23.98,90.36l.94,1.31"/>
    <path class="cls-1" d="m32.3,108.03c.3,1.03.76,2.01,1.34,2.9"/>
    <path class="cls-1" d="m46.49,104.39c.3.57.63,1.11,1,1.63"/>
    <path class="cls-1" d="m47.42,102.6c.15.92.61,1.79,1.28,2.44"/>
    <path class="cls-1" d="m49.32,102.38c.18.85.5,1.67.95,2.41"/>
    <path class="cls-1" d="m51.05,101.68c.15.51.36,1.01.63,1.47"/>
    <path class="cls-1" d="m31,110.2l.38,1.94"/>
    <path class="cls-1" d="m18.09,108.73c.08.6,0,1.54.28,2.07-.32-.24-.48-.67-.41-1.06"/>
    <path class="cls-1" d="m18.33,108.27l.68,1.6c.06.14.25.31.34.18"/>
    <path class="cls-1" d="m18.64,106.95c.44,1.16.97,2.28,1.6,3.35"/>
    <path class="cls-1" d="m19.16,105.76c.48.84.92,1.71,1.31,2.6"/>
    <path class="cls-1" d="m71.95,117.64c.31,1.09.78,2.12,1.39,3.07"/>
    <path class="cls-1" d="m72.59,115.64c.2,1.06.58,2.08,1.11,3.02"/>
    <path class="cls-1" d="m73.68,113.85c.17,1.08.58,2.12,1.19,3.02"/>
    <path class="cls-1" d="m74.8,112.61c.39.86.73,1.74,1,2.64"/>
    <path class="cls-1" d="m75.64,110.98c.21,1.14.52,2.25.92,3.34"/>
    <path class="cls-1" d="m76.56,109.66c.24,1.13.55,2.25.95,3.33"/>
    <path class="cls-1" d="m78.1,109.35c.16,1.1.39,2.19.68,3.26"/>
    <path class="cls-1" d="m79.12,107.34c.14,1.35.46,2.68.94,3.96"/>
    <path class="cls-1" d="m80.61,106.56c.15,1.39.42,2.77.8,4.12"/>
    <path class="cls-1" d="m81.33,105.55c.14,1.51.45,3,.92,4.44"/>
    <path class="cls-1" d="m82.56,105.7c.15,1.25.38,2.5.67,3.73"/>
    <path class="cls-1" d="m83.64,106.17l.46,1.71"/>
    <path class="cls-1" d="m84.42,119.66c.11.67.42,1.32.87,1.83"/>
    <path class="cls-1" d="m84.93,116.49c.36,1.18.79,2.34,1.26,3.48"/>
    <path class="cls-1" d="m86.59,116.02c.3,1.06.68,2.11,1.14,3.11"/>
    <path class="cls-1" d="m87.6,114.85c.27,1.02.56,2.03.89,3.04"/>
    <path class="cls-1" d="m88.92,114.31c.15.79.49,1.55.97,2.19"/>
    <path class="cls-1" d="m74.16,134.41l.62,1.13c.08.15.29.32.39.18"/>
    <path class="cls-1" d="m75.35,132.14c.31.72.66,1.43,1.05,2.11"/>
    <path class="cls-1" d="m76.35,129.98c.23.78.59,1.52,1.05,2.19"/>
    <path class="cls-1" d="m77.67,129.12c.21.39.47.76.75,1.1"/>
    <path class="cls-1" d="m95.54,75.15c.43,2.32,1.11,4.59,2.02,6.77"/>
    <path class="cls-1" d="m95.6,70.99l2.84,10.04"/>
    <path class="cls-1" d="m97.12,72.38c.87,2.5,1.66,5.03,2.37,7.57"/>
    <path class="cls-1" d="m98.85,71.84c.71,2.2,1.43,4.4,2.18,6.59"/>
    <path class="cls-1" d="m100.8,72.62c.35,1.69.77,3.37,1.25,5.04"/>
    <path class="cls-1" d="m102.11,71.85c.27,1.45.66,2.88,1.14,4.27"/>
    <path class="cls-1" d="m104.04,71.64l.97,3.61"/>
    <path class="cls-1" d="m105.9,71.75c.13.93.35,1.84.64,2.73"/>
    <path class="cls-1" d="m107.62,70.45l1.1,2.07"/>
    <path class="cls-1" d="m90.62,80.48l.78,3.16"/>
    <path class="cls-1" d="m90.39,83.1c.07.55,0,1.12-.2,1.64"/>
    <path class="cls-1" d="m33.06,65.65l.89,1.74"/>
    <path class="cls-1" d="m33.99,65.3c.09.62.37,1.22.8,1.69"/>
    <path class="cls-1" d="m34.66,64.2c.3.81.67,1.59,1.1,2.34"/>
    <path class="cls-1" d="m35.4,62.57l1.51,3.17"/>
    <path class="cls-1" d="m36.8,61.6c.36,1.17.84,2.31,1.41,3.39"/>
    <path class="cls-1" d="m38.01,61.48c.53,1.3,1.18,2.55,1.92,3.74"/>
    <path class="cls-1" d="m39.44,59.95c.62,1.45,1.28,2.89,1.98,4.3"/>
    <path class="cls-1" d="m41.11,59.62c.56,1.69,1.36,3.3,2.38,4.77"/>
    <path class="cls-1" d="m43.45,59.96l1.55,3.81"/>
    <path class="cls-1" d="m45.41,60.51l1.5,3.18"/>
    <path class="cls-1" d="m46.93,60.18c.33,1.18.81,2.32,1.42,3.39"/>
    <path class="cls-1" d="m48.55,60.41c.39,1.13.88,2.22,1.47,3.25"/>
    <path class="cls-1" d="m50.1,60.62l1.41,3.17"/>
    <path class="cls-1" d="m51.53,61.38c.26.99.78,1.92,1.5,2.65"/>
    <path class="cls-1" d="m52.74,60.83l1.31,2.4"/>
    <path class="cls-1" d="m54.27,60.18c.25.61.54,1.2.88,1.76.1.16.31.34.44.2"/>
    <path class="cls-1" d="m55.56,59.2l1.18,2.52"/>
    <path class="cls-1" d="m57.08,59.1l.45.98"/>
    <path class="cls-1" d="m55.03,64.55c.16.66.51,1.26.99,1.74"/>
    <path class="cls-1" d="m56.53,64.55c.28.8.66,1.57,1.12,2.28"/>
    <path class="cls-1" d="m57.74,64.99l1.52,2.95"/>
    <path class="cls-1" d="m59.5,66.29l1.86,3.71"/>
    <path class="cls-1" d="m61.46,68.04c.34.69.75,1.34,1.22,1.95"/>
    <path class="cls-1" d="m63,67.71c.28.63.65,1.22,1.09,1.75"/>
    <path class="cls-1" d="m45.13,55.91c.12.46.38.89.74,1.21.17-.08.28-.25.3-.44"/>
    <path class="cls-1" d="m45.88,54.28c.25.74.58,1.46.98,2.13"/>
    <path class="cls-1" d="m47.17,54.17c.01.61.21,1.21.57,1.7"/>
    <path class="cls-1" d="m48.19,53.83c.22.65.57,1.27,1.01,1.8"/>
    <path class="cls-1" d="m49.89,53.63c.09.55.32,1.08.66,1.53"/>
    <path class="cls-1" d="m56.63,52.66l.32.88c.03.09.07.19.16.23s.22-.04.19-.13"/>
    <path class="cls-1" d="m57.65,50.14c-.04.88.18,1.77.62,2.53"/>
    <path class="cls-1" d="m59.39,48.28c0,.84.23,1.68.65,2.41"/>
    <path class="cls-1" d="m60.81,46.64c.06.72.23,1.43.52,2.09"/>
    <path class="cls-1" d="m62.18,45.78c-.12.63.14,1.31.65,1.7"/>
    <path class="cls-1" d="m63.74,45.01c.02.76.22,1.51.57,2.18"/>
    <path class="cls-1" d="m65.61,44.79c.03.89.29,1.76.74,2.53"/>
    <path class="cls-1" d="m67.79,44.46c.19.87.48,1.71.86,2.52"/>
    <path class="cls-1" d="m70.26,44.36l.67,2.83"/>
    <path class="cls-1" d="m72.44,43.58c.15,1.36.46,2.69.93,3.97"/>
    <path class="cls-1" d="m74.87,44.24c.07,1.12.3,2.22.69,3.27"/>
    <path class="cls-1" d="m79.25,46.32c0,.97.31,1.94.87,2.73"/>
    <path class="cls-1" d="m81.55,46.32c.04.62.23,1.22.55,1.75"/>
    <path class="cls-1" d="m83.74,44.24c0,1.25.29,2.5.82,3.62"/>
    <path class="cls-1" d="m85.52,43.69c.13,1.15.46,2.28.98,3.32"/>
    <path class="cls-1" d="m87.5,43.03c.4,1.26.74,2.55,1.02,3.84"/>
    <path class="cls-1" d="m89.13,41.18l.83,4.48"/>
    <path class="cls-1" d="m90.95,40.53l1,4.03"/>
    <path class="cls-1" d="m78.75,58.64c.19,1.12.57,2.21,1.12,3.2"/>
    <path class="cls-1" d="m81.14,58.1c.24.9.56,1.78.96,2.63"/>
    <path class="cls-1" d="m82.5,55.49c.36,1.48.82,2.93,1.38,4.35"/>
    <path class="cls-1" d="m84.15,51.86c.62,1.91,1.12,3.85,1.5,5.82"/>
    <path class="cls-1" d="m85.27,50.13c.65,2.12,1.2,4.27,1.63,6.44"/>
    <path class="cls-1" d="m86.97,48.18c.67,2.52,1.22,5.07,1.66,7.63"/>
    <path class="cls-1" d="m88.86,47.96l1.34,5.78"/>
    <path class="cls-1" d="m91.41,48.16l.92,2.97"/>
    <path class="cls-1" d="m68.93,57.45c.05.76.33,1.5.8,2.11"/>
    <path class="cls-1" d="m71.07,56.58c.11.47.37.91.74,1.23"/>
    <path class="cls-1" d="m105.2,58.11c.22,1.7.6,3.38,1.14,5.01"/>
    <path class="cls-1" d="m105.84,55.82c.55,2.73,1.38,5.39,2.47,7.95"/>
    <path class="cls-1" d="m107.09,54.07l.02-.51c.26.12.41.39.53.65,1.28,2.78,1.39,5.97,2.51,8.81"/>
    <path class="cls-1" d="m108.98,53.51l2.91,8.96"/>
    <path class="cls-1" d="m110.73,54.05c.99,2.88,1.89,5.8,2.67,8.75"/>
    <path class="cls-1" d="m112.55,54.61v-.22c.9,2.84,1.91,5.57,2.81,8.41"/>
    <path class="cls-1" d="m114.81,55.13c.76,2.33,1.48,4.67,2.16,7.03"/>
    <path class="cls-1" d="m116.49,56.44c-.06-.06.04-.16.12-.13s.11.12.14.2c.56,1.74,1.13,3.47,1.69,5.21"/>
    <path class="cls-1" d="m118.15,57c.55,1.08.98,2.23,1.26,3.41"/>
    <path class="cls-1" d="m123.29,71.74c.21,1.6.7,3.17,1.44,4.61"/>
    <path class="cls-1" d="m125.4,71.1c.29,1.52.71,3.01,1.25,4.47"/>
    <path class="cls-1" d="m126.66,71.85l1.51,4.48"/>
    <path class="cls-1" d="m127.75,77.09l3.95,8.45"/>
    <path class="cls-1" d="m130.35,81.03c.6.43.92,1.14,1.2,1.83.58,1.44,1.1,2.9,1.55,4.38"/>
    <path class="cls-1" d="m129.63,83.24l2.83,6.07"/>
    <path class="cls-1" d="m130.87,96.65c1.06,2,2.05,4.04,2.96,6.11"/>
    <path class="cls-1" d="m119.03,149.16c-.38-1.92-.97-3.8-1.77-5.59"/>
    <path class="cls-1" d="m121.26,145.76c-.44-1.76-1.2-3.44-2.23-4.94"/>
    <path class="cls-1" d="m122.27,140.08l-1.31-3.6"/>
    <path class="cls-1" d="m68.32,20.76c1.12,2.68,1.62,5.63,1.44,8.53-.1,1.72-.44,3.42-.77,5.11"/>
    <path class="cls-1" d="m71.95,19.58c-.72.53-1.36,1.18-1.88,1.91.17.04.33.13.43.27.59-.68.77-1.59,1.44-2.18Z"/>
    <path class="cls-1" d="m71.85,22.53l1.29-1.76"/>
    <path class="cls-1" d="m73.17,22.75c.43-.58.79-1.21,1.07-1.87"/>
    <path class="cls-1" d="m74.43,22.95c.3-.81.71-1.58,1.21-2.29"/>
    <path class="cls-1" d="m75.48,23.31l1.26-2.32"/>
    <path class="cls-1" d="m77.03,23.2l1.1-2.34"/>
    <path class="cls-1" d="m77.84,23.67c-.06-.04-.07.11,0,.11s.11-.08.14-.14c.39-1.03.78-2.05,1.17-3.08"/>
    <path class="cls-1" d="m79.29,23.4c.36-.95.77-1.87,1.25-2.75"/>
    <path class="cls-1" d="m80.47,23.94c.46-1.22.96-2.43,1.5-3.61"/>
    <path class="cls-1" d="m81.77,23.67c-.07,0-.05.13.02.12s.11-.08.14-.14c.59-1.29,1.18-2.58,1.78-3.88"/>
    <path class="cls-1" d="m83.32,22.56c-.06.03,0,.13.06.13s.11-.07.14-.13c.6-1.08,1.16-2.17,1.67-3.29"/>
    <path class="cls-1" d="m84.78,22.89c.86-1.48,1.62-3.02,2.26-4.61"/>
    <path class="cls-1" d="m86.78,21.09l-.13.25c.44.04.73-.45.89-.86.44-1.11.89-2.21,1.33-3.32"/>
    <path class="cls-1" d="m88.31,20.89c-.05.07.06.17.14.14s.13-.11.16-.19c.64-1.4,1.27-2.8,1.91-4.2"/>
    <path class="cls-1" d="m90.06,19.8c-.03.11.17.06.23-.04.86-1.44,1.49-3.03,1.86-4.67"/>
    <path class="cls-1" d="m95.73,9.31c-.1,1.37-.39,2.72-.85,4.01v-.3"/>
    <path class="cls-1" d="m43.19,9.65c-.36-1.46-.87-2.89-1.51-4.26"/>
    <path class="cls-1" d="m43.98,12.48c-.05-1.62-.25-3.23-.59-4.81"/>
    <path class="cls-1" d="m45.59,14.78c-.32-1.66-.51-3.34-.6-5.03"/>
    <path class="cls-1" d="m47.13,17.08c-.62-1.8-1.02-3.68-1.19-5.58"/>
    <path class="cls-1" d="m48.31,18.72c-.58-1.93-.99-3.91-1.22-5.92"/>
    <path class="cls-1" d="m49.64,20.13c-.46-1.57-.78-3.18-.94-4.81"/>
    <path class="cls-1" d="m50.86,20.67l-1-5.13"/>
    <path class="cls-1" d="m52.29,22.08l-.75-4.48"/>
    <path class="cls-1" d="m53.49,22.08c-.31-1.23-.55-2.47-.73-3.72"/>
    <path class="cls-1" d="m54.71,22.95c-.27-1.11-.42-2.24-.46-3.38"/>
    <path class="cls-1" d="m56.15,23.72c-.21-1.19-.37-2.39-.49-3.59"/>
    <path class="cls-1" d="m57.65,24.05l-.35-2.73"/>
    <path class="cls-1" d="m58.88,23.71c-.22-1-.35-2.02-.38-3.05"/>
    <path class="cls-1" d="m60.03,23.4c-.24-.7-.34-1.45-.31-2.19"/>
    <path class="cls-1" d="m61.23,23.84c-.24-.7-.28-1.47-.12-2.2"/>
    <path class="cls-1" d="m52.65,13.52c1.47.79,3.32,1.41,4.39,2.69-.46-1.39-.92-2.79-1.38-4.18-.12-.36-.24-.72-.47-1.02"/>
    <path class="cls-1" d="m82.09,15.17c.24-.03.48.03.72.07,1.96.29,3.82-.83,5.48-1.91"/>
    <path class="cls-1" d="m77.4,16.4c.67-1.6,1.83-2.98,3.29-3.91"/>
    <path class="cls-1" d="m75.77,17.83c2.66-.14,5.34.24,7.85,1.11"/>
    <path class="cls-1" d="m59.77,20.15c-.94-1.58-1.4-3.44-1.3-5.27"/>
    <path class="cls-1" d="m44.86,166.04l-3.43-6.75"/>
    <path class="cls-1" d="m46.07,166.17c-1.84-2.28-3.36-4.81-4.52-7.5"/>
    <path class="cls-1" d="m48.01,166.5c-1.89-2.29-3.48-4.82-4.74-7.52"/>
    <path class="cls-1" d="m49.27,166.59c-1.79-2.64-3.36-5.43-4.69-8.33"/>
    <path class="cls-1" d="m50.88,166.76c-.86-1.98-1.8-3.93-2.81-5.84"/>
    <path class="cls-1" d="m43.1,165.47c-1.82-2.79-3.4-5.74-4.73-8.79"/>
    <path class="cls-1" d="m40.67,163.52c-1.82-2.6-3.29-5.44-4.36-8.42"/>
    <path class="cls-1" d="m38.17,162.86c-2.12-2.47-3.61-5.46-4.31-8.64"/>
    <path class="cls-1" d="m33.06,159.53c-1.08-1.94-2.03-3.95-2.86-6.02"/>
    <path class="cls-1" d="m31.02,158.35c-1.64-2.21-2.98-4.63-3.98-7.19"/>
    <path class="cls-1" d="m27.42,155.81c-1.17-2.41-2.27-4.86-3.28-7.34"/>
    <path class="cls-1" d="m23.64,152.34c-.91-1.21-1.61-2.57-2.06-4.02"/>
    <path class="cls-1" d="m21.38,150.98c-1.2-1.33-2.07-2.96-2.52-4.69"/>
    <path class="cls-1" d="m53.05,168.29l-5.39-14.11"/>
    <path class="cls-1" d="m55.36,167.49c-1.97-2.82-3.44-5.99-4.32-9.32"/>
    <path class="cls-1" d="m57.21,168.17c-.87-2.52-1.87-4.99-3-7.4"/>
    <path class="cls-1" d="m49.02,153.83c-.93-2.95-2.04-5.84-3.32-8.66"/>
    <path class="cls-1" d="m42.74,153.63c-1.02-1.81-1.97-3.66-2.84-5.56"/>
    <path class="cls-1" d="m35.93,146.43c-.8-1.66-1.49-3.37-2.05-5.12"/>
    <path class="cls-1" d="m29.71,142.73l-1.33-1.97"/>
    <path class="cls-1" d="m53.1,147.38l2.13,4.25"/>
    <path class="cls-1" d="m57.73,160.94c1.17,2.67,2.43,5.3,3.79,7.88"/>
    <path class="cls-1" d="m60.98,162.19c.8,1.85,1.7,3.64,2.72,5.38"/>
    <path class="cls-1" d="m62.51,161.7c.95,2.41,2,4.77,3.16,7.08"/>
    <path class="cls-1" d="m63.92,160.13l3.07,7.75"/>
    <path class="cls-1" d="m65.05,157.61c1.16,3.97,2.59,7.86,4.28,11.63"/>
    <path class="cls-1" d="m67.01,157.21c1.21,3.97,2.72,7.86,4.5,11.61"/>
    <path class="cls-1" d="m69.02,158.06c1.36,3.59,2.84,7.13,4.43,10.61"/>
    <path class="cls-1" d="m72.97,158.32c.88,3.26,2,6.45,3.36,9.54"/>
    <path class="cls-1" d="m75.3,157.62c.9,3.63,2.15,7.17,3.72,10.56"/>
    <path class="cls-1" d="m78.75,157.87c1.1,3.48,2.38,6.91,3.85,10.25"/>
    <path class="cls-1" d="m81.38,156.04c1.12,3.66,2.33,7.3,3.63,10.9"/>
    <path class="cls-1" d="m84.58,156.68c.65,3.17,1.57,6.29,2.76,9.31"/>
    <path class="cls-1" d="m81.2,168.66l-.66-2.38"/>
    <path class="cls-1" d="m80.36,168.97c-.32-1.52-.82-3.01-1.49-4.41"/>
    <path class="cls-1" d="m66.88,169.68l-.99-3.16"/>
    <path class="cls-1" d="m63.23,168.98c-.48-1.33-1.04-2.62-1.69-3.88"/>
    <path class="cls-1" d="m59.11,168.98c-.13.1-.26-.11-.29-.27-.24-1.45-.65-2.88-1.21-4.24"/>
    <path class="cls-1" d="m92.23,166.26c-1.9-4.24-3.96-8.42-6.15-12.52"/>
    <path class="cls-1" d="m94.48,164.94c-2.02-3.83-4.14-7.6-6.35-11.32"/>
    <path class="cls-1" d="m95.57,164.39c-3.05-5.44-6-10.94-8.84-16.5"/>
    <path class="cls-1" d="m87.35,153.7c-1.96-2.83-3.35-6.04-4.09-9.39"/>
    <path class="cls-1" d="m100.69,162.28c-3.26-5.86-7.84-11.06-9.92-17.43"/>
    <path class="cls-1" d="m97.14,162.27c-.55-.42-.86-1.07-1.15-1.69-1.49-3.19-2.98-6.38-4.47-9.57"/>
    <path class="cls-1" d="m101.22,158.06c-3.03-4.64-5.79-9.46-8.25-14.42"/>
    <path class="cls-1" d="m104.95,158.37c-2.1-3.87-4.19-7.75-6.05-11.74-.72-1.54-1.41-3.15-1.45-4.86"/>
    <path class="cls-1" d="m109.72,157.75c-2.75-5.53-5.68-10.98-8.77-16.33"/>
    <path class="cls-1" d="m111.41,155.96c-2.75-4.94-5.2-10.04-7.34-15.28"/>
    <path class="cls-1" d="m113.47,152.7c-1.2-1.89-2.17-3.92-2.9-6.04"/>
    <path class="cls-1" d="m117.18,152.18c-2.32-6.37-5.42-12.46-9.2-18.09"/>
    <path class="cls-1" d="m118.94,148.7c-.45-.83-.88-1.67-1.31-2.5-1.91-3.75-3.82-7.49-5.74-11.24"/>
    <path class="cls-1" d="m122.95,146.77c-2.62-4.14-5.08-8.38-7.37-12.71"/>
    <path class="cls-1" d="m123.9,143.57l-6.14-11.3c-.29-.54-.6-1.15-.44-1.75"/>
    <path class="cls-1" d="m126.13,142.58c-2.51-4.13-4.72-8.44-6.61-12.89"/>
    <path class="cls-1" d="m127.57,141.35l-6.4-14.37"/>
    <path class="cls-1" d="m128.31,137.43c-1.95-3.91-3.74-7.89-5.38-11.93"/>
    <path class="cls-1" d="m129.58,136.41c-1.59-3.93-3.14-7.87-4.64-11.84"/>
    <path class="cls-1" d="m130.87,134.51c-1.16-3.91-2.46-7.78-3.89-11.6"/>
    <path class="cls-1" d="m132.55,132.16c.11.07.17-.13.14-.25-.81-3.17-2.13-6.18-3.45-9.17"/>
    <path class="cls-1" d="m133.09,129.37c-1.6-4.13-2.98-8.35-4.14-12.62"/>
    <path class="cls-1" d="m134.4,125.48c-1.37-3.34-2.52-6.77-3.44-10.25"/>
    <path class="cls-1" d="m134.45,121.86c-.8-4.3-2.13-8.5-3.93-12.48"/>
    <path class="cls-1" d="m134.91,118.16c.14-.45.01-.93-.13-1.38-1.01-3.31-2.27-6.54-3.78-9.66"/>
    <path class="cls-1" d="m135.52,113.81c-1.41-3.69-2.8-7.38-4.16-11.09"/>
    <path class="cls-1" d="m135.28,107.95l-1.73-4.74c-.33-.91-.67-1.83-.84-2.79"/>
    <path class="cls-1" d="m136.23,105.22c-1.28-2.63-2.26-5.4-2.91-8.25"/>
    <path class="cls-1" d="m135.6,101.28l-1.91-5.19"/>
    <path class="cls-1" d="m122.77,102.07c1.01,1.82,1.88,3.72,2.6,5.68"/>
    <path class="cls-1" d="m120.86,106.32c.1-.06.22.05.29.15,1.57,2.39,2.9,4.93,3.98,7.57"/>
    <path class="cls-1" d="m110.88,115.45l5.88,9.87"/>
    <path class="cls-1" d="m104.78,119.02c1.01,1.93,2.1,3.81,3.26,5.66"/>
    <path class="cls-1" d="m103.12,107.99c.8,1.91,1.7,3.78,2.69,5.59"/>
    <path class="cls-1" d="m114.59,102.29l4.62,7.27"/>
    <path class="cls-1" d="m102.42,130.67l4.41,7.8"/>
    <path class="cls-1" d="m68.44,141.48l1.84,4.48"/>
    <path class="cls-1" d="m81.23,135.09c.56,1.73,1.25,3.41,2.06,5.04"/>
    <path class="cls-1" d="m76.96,119.73c.81,2.09,1.66,4.16,2.53,6.22"/>
    <path class="cls-1" d="m43.86,125.96l6.06,12.53"/>
  </g>
</svg>