<?xml version="1.0" encoding="UTF-8"?>
<svg id="Layer_2" data-name="Layer 2" xmlns="http://www.w3.org/2000/svg" viewBox="0 0 160.54 143.77">
  <defs>
    <style>
      .cls-1 {
        stroke-width: .25px;
      }

      .cls-1, .cls-2 {
        fill: none;
        stroke: #231f20;
        stroke-miterlimit: 10;
      }

      .cls-2 {
        stroke-width: .5px;
      }
    </style>
  </defs>
  <g id="Layer_1-2" data-name="Layer 1">
    <path class="cls-2" d="m4.26,14.38c1.23,2.84-.39,6.06-.4,9.16,0,2.93,1.44,5.68,1.69,8.6.38,4.49-1.85,9.79,1.25,13.05,2.03,2.13,5.8,2.49,6.94,5.21-2.99-1.11-6.76-2.08-9.03.15-1.34,1.32-1.64,3.35-1.87,5.22-.61,5.02-1.22,10.05-1.83,15.07-.38,3.16-.63,6.77,1.55,9.1,1.33,1.42,3.28,2.02,4.97,2.98,3.82,2.16,6.61,6.34,10.93,7.08,3.91.67,7.65-1.77,10.65-4.37s5.96-5.61,9.84-6.47c.56-.12,1.17-.2,1.69.04,1.33.61,1.13,2.5,1.44,3.93.67,3.08,4.33,4.5,7.49,4.52s6.38-.82,9.42.01c2.49.68,4.54,2.39,6.5,4.06,3.12,2.65,6.23,5.29,9.35,7.94,1.42,1.21,2.9,2.49,3.61,4.22s.36,4.04-1.26,4.98c-2.09,1.21-4.61-.46-6.51-1.94-3.37-2.62-6.98-4.94-10.77-6.89-2.9-1.49-5.98-2.8-9.24-2.96s-6.73,1.02-8.62,3.68c-2.26,3.18-1.8,7.6-3.58,11.07-1.23,2.38-3.45,4.19-4.38,6.7-1.16,3.14-.06,6.61,1.04,9.77.97,2.77,1.97,5.61,3.87,7.84s4.94,3.75,7.78,3.03c2.61-.66,4.5-3,7.07-3.81,2.98-.94,6.2.38,8.78,2.13s4.89,3.97,7.77,5.18,6.65,1.11,8.61-1.32c2.08-2.58,1.25-6.48,2.72-9.44.72-1.45,1.94-2.59,3.17-3.65,4.3-3.72,8.97-7,13.91-9.8,3.75,1.5,6.63,5.75,9.75,8.3,2.47,2.02,5.26,3.59,7.84,5.46,2.92,2.11,5.56,4.59,8.19,7.05,4.53,4.25,11.28-.99,16.63-4.14,6.77-3.99,13.77-8.5,17.29-15.53,2.54-5.08-.51-13.49-2.85-18.22-2.14-4.32-4.95-8.27-7.48-12.38-1.07-1.73-2.09-3.51-2.67-5.46-.96-3.22-.63-6.67-.17-10,.11-.81.24-1.64.7-2.31.41-.61,1.05-1.03,1.58-1.55.77-.77,1.28-1.75,1.77-2.71.94-1.82,1.87-3.65,2.81-5.47.4-.78.81-1.58,1.43-2.21.8-.82,1.89-1.3,2.84-1.95,2.44-1.68,3.93-4.64,3.82-7.6-.03-.74-.17-1.52-.65-2.08-1.24-1.44-3.7-.55-5.39-1.42-1.65-.85-2-3.01-2.91-4.63-1.38-2.46-4.25-3.85-5.49-6.39-.83-1.71-.83-3.77-1.83-5.38-.94-1.52-2.63-2.41-4.31-3.03-1-.36-2.04-.66-3.1-.7-1.17-.04-2.33.22-3.48.49-2.79.65-5.58,1.29-8.37,1.94"/>
    <path class="cls-2" d="m107.51,57.33c-1.12-3.21-1.94-7.45.82-9.44,2.2-1.58,5.24-.58,7.93-.93,2.89-.37,5.35-2.34,7.09-4.67,1.61-2.16,2.75-4.76,2.82-7.45.07-2.7-1.04-5.49-3.2-7.1-.56-.42-1.2-.76-1.89-.83-.79-.08-1.57.18-2.35.33-2.49.47-5.19-.35-7-2.12-.93-.91-1.84-2.16-3.15-2.14-1.83.02-2.55,2.29-3.53,3.83-2.23,3.52-8.28,3.5-10.49-.04-.55-.88-.87-1.88-1.43-2.75-1.77-2.72-5.43-3.43-8.68-3.46-1.73-.02-3.56.12-4.99,1.1-1.85,1.27-2.57,3.62-2.99,5.83-.63,3.31-.85,6.69-.66,10.05.15,2.62.05,6.05-2.45,6.86-1.27.41-2.63-.12-3.83-.68-3.8-1.76-7.42-3.91-10.77-6.41-1.22-.91-2.5-2-2.77-3.5-.19-1.04.15-2.09.39-3.12,1.42-6.01-.46-12.7-4.8-17.1-1.79-1.82-3.95-3.24-5.72-5.08-2.32-2.41-4.04-5.56-7.01-7.09C36.38.11,33.42.19,30.62.32c-3.23.15-6.45.34-9.67.55-5.23.35-9.46,3.11-11.3,4.42-.7.49-1.45,1.17-2.96,2.03-1.08.61-1.5.73-2.06,1.3-1.14,1.18-1.28,2.66-1.3,2.88-.15,1.9.92,3.22,1.14,3.49"/>
    <path class="cls-2" d="m123.97,137.8c.65-8.73,5.66-17.04,13.1-21.67,3.41-2.13,7.24-3.49,11.07-4.74,1.84-.6,3.71-1.18,5.64-1.23s3.96.51,5.31,1.9"/>
    <path class="cls-2" d="m106.52,57.05l.45-.53c.52,1.99,1.71,3.79,3.33,5.04.86.66,1.83,1.17,2.79,1.68.78.41,1.56.82,2.42,1,2.78.59,5.45-1.35,7.39-3.43.93-.99,1.83-2.1,2.12-3.43s-.2-2.92-1.43-3.5c-.55-.26-1.17-.29-1.78-.37-3.46-.47-6.58-2.9-7.88-6.13"/>
    <path class="cls-2" d="m98.86,109.24c7.58-6.45,14.22-14.01,19.61-22.37"/>
    <path class="cls-2" d="m119.29,63.54c.98,2.05,2.82,3.6,4.87,4.59s4.3,1.48,6.54,1.84"/>
    <path class="cls-2" d="m131.05,51.24l4.55-1.2c1.35-.35,2.72-.72,3.9-1.46.81-.51,1.5-1.17,2.19-1.83,1.03-.99,2.06-1.98,3.09-2.98"/>
    <path class="cls-2" d="m135.72,61.16c-.28,0-.02.45.25.51,5.61,1.21,11.75-.34,16.12-4.07"/>
    <path class="cls-2" d="m80.73,28.2c2.53.93,5.31,1.16,7.96.66"/>
    <path class="cls-2" d="m79.14,39.53c4.84.73,9.94-.43,14-3.18"/>
    <path class="cls-2" d="m118.08,41.14c-1.06-.31-1.91-1.14-2.47-2.1s-.85-2.04-1.12-3.11c-.34-1.39-.64-2.82-.6-4.25s.47-2.9,1.42-3.97"/>
    <path class="cls-2" d="m107.78,37.68c-.12,2.91.71,5.86,2.34,8.28.4.6.95,1.22,1.68,1.23"/>
    <path class="cls-2" d="m63.56,80.06c.81-.34,1.39-1.05,1.92-1.75,5.24-6.93,8.66-15.23,9.81-23.85"/>
    <path class="cls-2" d="m49.39,69.07c4.36-6.88,7.02-14.83,7.69-22.95"/>
    <path class="cls-2" d="m20.98,44.9c10.41-2.47,19.36-10.38,23.11-20.4"/>
    <path class="cls-2" d="m6.33,34.53c10.23-.96,19.66-7.99,23.5-17.52"/>
    <path class="cls-2" d="m26.1,59.96c2.3,3.4,4.29,7.04,5.51,10.95s1.67,8.12.91,12.15"/>
    <path class="cls-2" d="m6.24,62.01c4.36,4.97,6.55,11.79,5.91,18.38"/>
    <path class="cls-2" d="m44.56,132.26c.42-.54,1.12-.76,1.76-.97,7.95-2.64,14.7-8.69,18.19-16.31"/>
    <path class="cls-2" d="m38.37,113.2c3.3-.4,6.41-1.86,9.15-3.76s5.14-4.22,7.54-6.53"/>
    <path class="cls-1" d="m63.66,138.24c5.85-1.87,11.04-5.77,14.46-10.88,1.05-1.57,1.94-3.24,2.9-4.87"/>
    <path class="cls-1" d="m5.88,33.33c1.86.1,3.75-.28,5.41-1.12.89-.44,1.71-1.01,2.53-1.57,1.19-.81,2.37-1.63,3.56-2.44"/>
    <path class="cls-1" d="m21.72,24.17c1.62-1.19,3.13-2.54,4.49-4.03"/>
    <path class="cls-1" d="m4.72,32.62c3.78-.61,7.33-2.56,9.87-5.42"/>
    <path class="cls-1" d="m19.9,22.56c.9-1.01,1.93-1.9,3.06-2.63"/>
    <path class="cls-1" d="m4.67,30.49c-.03.19.09.39.27.46,2.37-.98,4.57-2.38,6.45-4.13"/>
    <path class="cls-1" d="m17.08,21.36c1.42-1.15,2.66-2.52,3.66-4.05"/>
    <path class="cls-1" d="m3.83,28.18c1.5.4,3.04-.43,4.33-1.29,2.33-1.55,4.52-3.32,6.53-5.28"/>
    <path class="cls-1" d="m4.92,26.06c3.06-1.01,5.87-2.77,8.12-5.08"/>
    <path class="cls-1" d="m4.36,23.69c3.74-2.33,7.28-4.98,10.57-7.92"/>
    <path class="cls-1" d="m4.98,20.71c2.75-1.14,5.29-2.78,7.45-4.82"/>
    <path class="cls-1" d="m4.3,17.41c1.07-.79,2.2-1.59,3.38-2.39,1.55-1.05,3.06-2,4.53-2.88-2.6,2.46-5.21,4.93-7.81,7.39"/>
    <path class="cls-1" d="m3.74,14.3c0,.26.41.23.64.1,2.41-1.34,4.72-2.85,6.92-4.51"/>
    <path class="cls-1" d="m3.73,11.91c1.61-.77,3.16-1.69,4.61-2.74"/>
    <path class="cls-1" d="m14.6,14.64l2.04-3.03"/>
    <path class="cls-1" d="m13.85,9.21l1.59-2.06"/>
    <path class="cls-1" d="m18.3,2.7c-.04-.2.05-.42.22-.54.27,1.38.41,2.78.41,4.19"/>
    <path class="cls-1" d="m21.13,1.49c.67,1.37.82,2.99.41,4.46"/>
    <path class="cls-1" d="m25.66,1.27c.3,1.71.05,3.51-.7,5.07"/>
    <path class="cls-1" d="m28.79,1.89c0,2.26-.79,4.51-2.19,6.28"/>
    <path class="cls-1" d="m31.98,1.3c-.49,2.4-1.35,4.73-2.53,6.88"/>
    <path class="cls-1" d="m34.94.85c.48.26.42.96.27,1.48-.53,1.91-1.3,3.74-2.3,5.45"/>
    <path class="cls-1" d="m38.46.69c-.36,2.03-1.02,4.01-1.94,5.85"/>
    <path class="cls-1" d="m40.48,1.91c-.31,1.58-.77,3.13-1.38,4.61"/>
    <path class="cls-1" d="m41.84,4.94l-1.27,3.84"/>
    <path class="cls-1" d="m43.09,6.97c-.14,1.44-.46,2.86-.95,4.22"/>
    <path class="cls-1" d="m44.65,8.61c-.16,1.57-.54,3.13-1.12,4.6"/>
    <path class="cls-1" d="m46.57,10.43c-.33,1.37-.78,2.72-1.35,4.01"/>
    <path class="cls-1" d="m47.91,12.07c.39,0,.38.59.23.95-.45,1.08-.9,2.16-1.36,3.23"/>
    <path class="cls-1" d="m50.53,13.06c-.11,2.71-.98,5.39-2.49,7.65"/>
    <path class="cls-1" d="m52.78,16.1c.45.71.16,1.64-.15,2.42-.83,2.03-1.79,4-2.89,5.89"/>
    <path class="cls-1" d="m55.31,18.73c-.1.88-.53,1.67-.96,2.44-1.47,2.66-2.95,5.31-4.42,7.97"/>
    <path class="cls-1" d="m55.99,24.79c-1.56,2.52-3.26,4.95-5.11,7.27"/>
    <path class="cls-1" d="m55.7,29.94c-1.91,3.1-4.08,6.04-6.48,8.78"/>
    <path class="cls-1" d="m55.24,34.97c-1.4,2.38-2.81,4.75-4.21,7.13"/>
    <path class="cls-1" d="m45.43,39.19c-1.34,2.35-2.96,4.55-4.82,6.52"/>
    <path class="cls-1" d="m37.92,11.4l-.97,1.85"/>
    <path class="cls-1" d="m43.84,16.49c-.46,1.35-1.06,2.65-1.79,3.87"/>
    <path class="cls-1" d="m6,42.63c4.33-2.08,7.7-5.73,11.5-8.66-3.5,2.61-7.68,4.31-12.01,4.9"/>
    <path class="cls-1" d="m7.74,44.11c4.69-.78,8.65-3.79,12.4-6.7"/>
    <path class="cls-1" d="m8.36,45.5c2.61.32,5.14-.9,7.44-2.18,3.32-1.85,6.52-3.9,9.6-6.13"/>
    <path class="cls-1" d="m11.2,47.16c1.78.05,3.51-.6,5.15-1.31,4.85-2.09,9.45-4.75,13.68-7.91"/>
    <path class="cls-1" d="m20.17,34.63l3.19-1.91"/>
    <path class="cls-1" d="m25.99,32.29l1.23-.8"/>
    <path class="cls-1" d="m28.85,34.75c.7-.58,1.54-1,2.44-1.21"/>
    <path class="cls-1" d="m33.55,35.82l2.81-1.87"/>
    <path class="cls-1" d="m56.38,36.35c-.69,1.63-1.62,3.16-2.74,4.52"/>
    <path class="cls-1" d="m58.72,37.4c-.26,1.45-.85,2.83-1.7,4.03"/>
    <path class="cls-1" d="m61.55,39.85l-2.09,3.2"/>
    <path class="cls-1" d="m64.03,41.07c-.4,1.38-.94,2.71-1.59,3.99"/>
    <path class="cls-1" d="m64.97,43.27c.06,2.14-.29,4.28-1.04,6.28"/>
    <path class="cls-1" d="m68.78,44.29c-.21,1.75-.68,3.46-1.39,5.07-.94,2.13-.54,5.56-1.88,7.47"/>
    <path class="cls-1" d="m61.91,51.19c-.16,1.19-.5,2.36-1.01,3.45"/>
    <path class="cls-1" d="m64.38,59.71c-.33,1.59-.95,3.12-1.82,4.48"/>
    <path class="cls-1" d="m71.06,44.9c0,1.74-.37,3.47-1.06,5.06"/>
    <path class="cls-1" d="m73.14,44.5c-.32,3.43-.98,6.82-1.95,10.12"/>
    <path class="cls-1" d="m70.76,44.89c.17,3.39-.44,6.82-1.76,9.94"/>
    <path class="cls-1" d="m67.2,43.89c-.7,2.89-1.6,5.73-2.68,8.51"/>
    <path class="cls-1" d="m65.54,42.65c-.5.95-.83,1.99-.98,3.06"/>
    <path class="cls-1" d="m75.14,43.28l-.8,3.86"/>
    <path class="cls-1" d="m77.04,42.65l-.57,3.66"/>
    <path class="cls-1" d="m79.28,43.47l-.56,4.47"/>
    <path class="cls-1" d="m80.71,45.49l-.72,3.87"/>
    <path class="cls-1" d="m75.87,32.58c.77.54,1.76.73,2.67.54"/>
    <path class="cls-1" d="m75.85,35.43c.57.47,1.45.5,2.06.09"/>
    <path class="cls-1" d="m78.51,24.2l-.4,2.23"/>
    <path class="cls-1" d="m81.13,22.16c-.2.66-.25,1.36-.14,2.04"/>
    <path class="cls-1" d="m83.41,21.16v3.04"/>
    <path class="cls-1" d="m85.85,21.16v2.84"/>
    <path class="cls-1" d="m88.85,21.36l-.17,2.84"/>
    <path class="cls-1" d="m91.41,22.57c.15.94.1,1.92-.14,2.84"/>
    <path class="cls-1" d="m93.63,25.84c-.38,1.96-1.33,3.81-2.7,5.26"/>
    <path class="cls-1" d="m94.79,28.47c-.57,1.58-1.49,3.04-2.67,4.24"/>
    <path class="cls-1" d="m96.8,30.09l-2.63,3.86"/>
    <path class="cls-1" d="m98.38,30.86c-.99,1.14-1.84,2.38-2.56,3.71"/>
    <path class="cls-1" d="m99.01,34.54l2.05-3.23"/>
    <path class="cls-1" d="m103.94,28.27l-.46,2.83"/>
    <path class="cls-1" d="m106.37,27.44c.21.72.26,1.49.16,2.24"/>
    <path class="cls-1" d="m108.77,27.05l-.58,2.64"/>
    <path class="cls-1" d="m110.65,28.07c-.23,1.18-.6,2.33-1.09,3.43"/>
    <path class="cls-1" d="m111.85,29.74c.28,0,.25.43.11.68-1.02,1.79-2.15,3.52-3.38,5.17"/>
    <path class="cls-1" d="m96.97,36.9c-1.16.41-2.16,1.27-2.74,2.36"/>
    <path class="cls-1" d="m98.56,37.73c-.85.85-1.63,1.76-2.33,2.73"/>
    <path class="cls-1" d="m98.03,40.64c.37-.56.85-1.05,1.4-1.45-.57.64-1.17.62-1.4,1.45Z"/>
    <path class="cls-1" d="m101.09,44.92c-1.07,1.29-2.82,1.67-3.57,3.17l3.93-6.65"/>
    <path class="cls-1" d="m101.65,46.31c-.97,1.93-2.12,3.77-3.43,5.48"/>
    <path class="cls-1" d="m106.11,47.72c-2.88,3.1-5.58,6.36-8.1,9.75"/>
    <path class="cls-1" d="m106.11,50.56c-1.85,1.86-3.46,3.96-4.78,6.23"/>
    <path class="cls-1" d="m105.9,52.78c-1.31,1.26-2.36,2.79-3.06,4.47"/>
    <path class="cls-1" d="m106.16,55.27c-.93.97-1.67,2.13-2.16,3.38"/>
    <path class="cls-1" d="m106.34,57.28c-.72.98-1.29,2.07-1.69,3.22"/>
    <path class="cls-1" d="m107.19,59.32c-.77,1.3-1.47,2.64-2.11,4.01"/>
    <path class="cls-1" d="m105.87,64.96c.57-1.37,1.2-2.71,1.91-4.02-1.63,2.93-2.2,6.91-3.83,9.84"/>
    <path class="cls-1" d="m109.83,62.99c-1.37,1.89-2.57,3.91-3.58,6.01"/>
    <path class="cls-1" d="m107.25,71.22c1.06-2.25,2.33-4.4,3.79-6.42-.96,1.22-.56,3.37-1.1,4.82"/>
    <path class="cls-1" d="m113.75,65.66l-3.93,6.32"/>
    <path class="cls-1" d="m115.21,66.29c-1.25,2.03-2.49,4.07-3.72,6.12"/>
    <path class="cls-1" d="m115.19,69.41c.67-1.39,1.46-2.73,2.36-3.98-.47.89-2.01,3.04-2.36,3.98Z"/>
    <path class="cls-1" d="m120.55,65.6c-.57.94-1.01,1.96-1.29,3.02"/>
    <path class="cls-1" d="m121.69,63.35c.13.61.71,1,1.25,1.31,1.55.89,3.15,1.71,4.79,2.43,1.44.64,3.07,1.22,4.57.74"/>
    <path class="cls-1" d="m122.63,60.86c1.84,1.81,4.22,3.07,6.75,3.58.59.12,1.29.16,1.7-.27"/>
    <path class="cls-1" d="m124.32,60c1.68,1.27,3.9,1.79,5.97,1.4"/>
    <path class="cls-1" d="m130.49,58.78c-1.73.35-3.58.03-5.09-.89,1.29.36,3.89,1.47,5.09.89Z"/>
    <path class="cls-1" d="m130.69,55.47c-1.38.39-2.84.51-4.27.36,2.27-.03,4.52-1.7,6.51-2.79"/>
    <path class="cls-1" d="m125.38,53.8l1.84-1.4"/>
    <path class="cls-1" d="m123.38,52.41c.96-.38,1.82-1,2.49-1.78"/>
    <path class="cls-1" d="m122.16,51.39c.79-.38,1.46-1.02,1.86-1.81"/>
    <path class="cls-1" d="m119.33,50.63c1.15-.21,2.23-.81,3.02-1.69"/>
    <path class="cls-1" d="m115.86,48.6c1.57.22,3.24.84,4.67.15-.82.73-1.95,1.11-3.04,1.02"/>
    <path class="cls-1" d="m114.85,47.21c2.23.21,4.48.21,6.71.02"/>
    <path class="cls-1" d="m119.53,45.75c1.52-.18,3.02-.53,4.46-1.04"/>
    <path class="cls-1" d="m121.73,43.82l3.88-1.12"/>
    <path class="cls-1" d="m124.18,41.03l2.43-.82"/>
    <path class="cls-1" d="m114.8,47.9c2.18.8,4.72.56,6.7-.65"/>
    <path class="cls-1" d="m121.12,49.53c-1.39.98-3.17,1.4-4.86,1.14"/>
    <path class="cls-1" d="m125.42,51.41c-1.61,1.08-3.55,1.65-5.49,1.6,1.69.23,3.83-1.18,5.49-1.6Z"/>
    <path class="cls-1" d="m128.87,53.67c-1.51.48-3.15.54-4.69.18,1.69.07,3-.26,4.69-.18Z"/>
    <path class="cls-1" d="m125.41,57.06c1.35.53,2.8.82,4.26.85"/>
    <path class="cls-1" d="m117.48,51c-.24-.19-.4-.48-.43-.79-.29-.13-.67.02-.79.31,2.58,1,6.42,2.06,8.94.93-1.87.38-3.79.49-5.69.32"/>
    <path class="cls-1" d="m125.61,45.75c-2.09.29-4.21.28-6.3-.02,2.59.6,3.64.02,6.3.02Z"/>
    <path class="cls-1" d="m115.06,48.14c2.1.71,4.28,1.2,6.49,1.46"/>
    <path class="cls-1" d="m120.12,47.67c1.89-.24,3.79-.35,5.69-.34"/>
    <path class="cls-1" d="m118.68,50.91c2.47.48,5.04.48,7.51-.02"/>
    <path class="cls-1" d="m115.07,48.58l5.46.43"/>
    <path class="cls-1" d="m116.07,47.13c2.49-.28,3.61,1.15,5.84,1.76,2.98.82,6.52.13,9.18-1.34"/>
    <path class="cls-1" d="m121.29,45.27c3.51,1.09,7.38.96,10.81-.35"/>
    <path class="cls-1" d="m123.8,42.39c2.89.62,5.97.37,8.73-.69"/>
    <path class="cls-1" d="m125.77,39.53c2.21.87,4.8.73,6.89-.39"/>
    <path class="cls-1" d="m120.28,46.77c.63.7,1.64.88,2.57.97,3.47.33,7.01-.15,10.27-1.4"/>
    <path class="cls-1" d="m118.12,48.71c4.1,1.44,8.7,1.4,12.78-.1"/>
    <path class="cls-1" d="m119.47,50.73c3.94,1.34,8.36,1.18,12.2-.43"/>
    <path class="cls-1" d="m134.53,53.88l3.86.09"/>
    <path class="cls-1" d="m136.15,71.1l3.87.73"/>
    <path class="cls-1" d="m138.33,67.34c2.09.97,4.46,1.34,6.75,1.05"/>
    <path class="cls-1" d="m139.55,64.94c2.93,1.05,6.14,1.29,9.19.69"/>
    <path class="cls-1" d="m147.12,62.91c1.22.21,2.5.12,3.68-.28"/>
    <path class="cls-1" d="m146.5,70.38c-2.91.07-5.83-.44-8.54-1.5"/>
    <path class="cls-1" d="m145.49,73.52c-1,.22-2.03.27-3.05.17"/>
    <path class="cls-1" d="m144.08,75.8c-1.28.19-2.58.23-3.86.12"/>
    <path class="cls-1" d="m143.47,77.43c-1.48.25-3.01.22-4.48-.08"/>
    <path class="cls-1" d="m144.9,79.63c-1.33.61-2.9.65-4.26.12"/>
    <path class="cls-1" d="m145.29,81.87c-1.75.19-3.52.24-5.28.13"/>
    <path class="cls-1" d="m140.4,84.15c1.43.17,2.88.07,4.28-.28-.99,1.28-1.33,3.47-2.84,4.04"/>
    <path class="cls-1" d="m142.41,90.29l3.08-1.98c-.92.62-2.55,1-3.08,1.98Z"/>
    <path class="cls-1" d="m157.89,108.44l-3.44,1.84"/>
    <path class="cls-1" d="m152.16,45.49c-1.64,2.25-3.73,4.17-6.12,5.61"/>
    <path class="cls-1" d="m152.71,46.87c-1.41,2.11-3.09,4.05-4.97,5.76"/>
    <path class="cls-1" d="m150.93,43.64l-2.8,2.67"/>
    <path class="cls-1" d="m150.18,41.28l-2.66,2.61"/>
    <path class="cls-1" d="m147.69,40.2c-.69.6-1.29,1.3-1.77,2.08"/>
    <path class="cls-1" d="m147.11,38l-1,1.43"/>
    <path class="cls-1" d="m144.55,32.54c-.46,2.18-1.66,4.19-3.36,5.62"/>
    <path class="cls-1" d="m142.61,29.66l-2.21,3.46"/>
    <path class="cls-1" d="m141.45,28.28l-1.21,1.83"/>
    <path class="cls-1" d="m125.59,30.03c1.41-.47,2.78-1.05,4.1-1.72"/>
    <path class="cls-1" d="m125.39,32.69l4.68-2.41"/>
    <path class="cls-1" d="m125.85,34.04c1.43-.59,2.82-1.27,4.16-2.02"/>
    <path class="cls-1" d="m133.35,32.16l-4.71,3.6"/>
    <path class="cls-1" d="m130.77,32.1c1.45-.73,2.77-1.71,3.9-2.88"/>
    <path class="cls-1" d="m132.24,34.48l3.66-3.04"/>
    <path class="cls-1" d="m125.19,37.77l2.65-.98"/>
    <path class="cls-1" d="m124.82,39.34l3.03-.67"/>
    <path class="cls-1" d="m118.57,32.76c-.28.56-.32,1.23-.12,1.81"/>
    <path class="cls-1" d="m120.09,32.54l-.9-2.67c.45.87.99,1.69.9,2.67Z"/>
    <path class="cls-1" d="m121.73,28.87c1.93,2.67,1.43,6.32.83,9.56"/>
    <path class="cls-1" d="m85.39,43.05l-.78,1.84"/>
    <path class="cls-1" d="m86.89,43.7c-.4.52-.66,1.14-.76,1.79"/>
    <path class="cls-1" d="m88.87,46.11l-1.42,2.84"/>
    <path class="cls-1" d="m82.34,50.16l-.77,3.05"/>
    <path class="cls-1" d="m84.41,51.79l-.38,1.63"/>
    <path class="cls-1" d="m86.44,52.4c-.11.66-.38,1.3-.78,1.84"/>
    <path class="cls-1" d="m78.65,55.64c-.08.68-1.45,1.36-1.53,2.04v-3.25"/>
    <path class="cls-1" d="m80.39,55.45l-.13,2.43"/>
    <path class="cls-1" d="m83.2,57.67c.26-.92.37-1.89.33-2.84"/>
    <path class="cls-1" d="m94.67,67.19c.14.58-.07,1.23-.52,1.62"/>
    <path class="cls-1" d="m92.54,66.6l-1.82,2.84"/>
    <path class="cls-1" d="m85.23,74.92c.46-1.46,1.5-2.72,2.84-3.46"/>
    <path class="cls-1" d="m86.95,76.11c.35-1.27,1.03-2.46,1.95-3.41-.82.83-1.63,2.29-1.95,3.41Z"/>
    <path class="cls-1" d="m91.53,74.11c-.58.78-1.01,1.68-1.26,2.62"/>
    <path class="cls-1" d="m93.49,74.07l-1.16,2.06"/>
    <path class="cls-1" d="m95.18,73.09c-.29.49-.43,1.06-.41,1.62"/>
    <path class="cls-1" d="m94.01,83.9c2.57-2.17,4.87-4.65,6.83-7.37"/>
    <path class="cls-1" d="m106.55,70.06c-.78.82-1.41,1.78-1.87,2.81"/>
    <path class="cls-1" d="m107.15,74.11c-1.01.89-1.9,1.91-2.64,3.04"/>
    <path class="cls-1" d="m132.5,139.03l-6.69-.85c3.24.17,6.69-.5,9.93-.32"/>
    <path class="cls-1" d="m127.43,135.29l10.95.6"/>
    <path class="cls-1" d="m128.04,133.63c3.85.25,7.71.36,11.57.32"/>
    <path class="cls-1" d="m128.45,131.7c5.04.64,10.13.96,15.21.98"/>
    <path class="cls-1" d="m130.27,130.1c5.6.58,11.21.98,16.84,1.21"/>
    <path class="cls-1" d="m137.77,128.53c3.44.35,6.9.49,10.35.43"/>
    <path class="cls-1" d="m136.77,126.59c4.39.21,8.78.35,13.18.43"/>
    <path class="cls-1" d="m138.8,124.52c4.65.51,9.31.87,13.98,1.08"/>
    <path class="cls-1" d="m144.06,123.48c3.5.4,7.03.59,10.56.56"/>
    <path class="cls-1" d="m154.41,122.81l-6.08-.27c2.5.17,3.58.28,6.08.27Z"/>
    <path class="cls-1" d="m143.46,119.3c4.61.31,9.21.73,13.79,1.24"/>
    <path class="cls-1" d="m140.42,117.05l17.23,1.75"/>
    <path class="cls-1" d="m145.29,116.07l12.58.97"/>
    <path class="cls-1" d="m150.55,114.96l7.51.54"/>
    <path class="cls-1" d="m152.38,113.77c1.9-.11,3.81-.02,5.69.25"/>
    <path class="cls-1" d="m153.4,112.25c1.42-.09,2.85-.02,4.26.2"/>
    <path class="cls-1" d="m129.46,125.39l4.86.45"/>
    <path class="cls-1" d="m134.13,121.79l4.46.39"/>
    <path class="cls-1" d="m137.58,119.14l9.53,1.26"/>
    <path class="cls-1" d="m12.55,50.01c.14.08-.2.19-.2.03s.2-.23.36-.26c2.24-.39,4.43-1.1,6.46-2.12"/>
    <path class="cls-1" d="m11.41,48.59l5.68-1.82"/>
    <path class="cls-1" d="m18.5,51.98c-5.21-.72-9.67.73-14.83-.92,2.09.75,4.3,2.16,6.52,2.18"/>
    <path class="cls-1" d="m2.66,53.29c3.15.64,6.34,1.1,9.55,1.39"/>
    <path class="cls-1" d="m10.99,57.49l-8.13-1.06"/>
    <path class="cls-1" d="m.03,73.65c1.79-.42,3.69-.37,5.46.16"/>
    <path class="cls-1" d="m.84,72.02c1.6-.42,3.3-.41,4.89.04"/>
    <path class="cls-1" d="m.25,69.98l5.27.34"/>
    <path class="cls-1" d="m.65,68.13c1.51-.06,3.04.19,4.46.73"/>
    <path class="cls-1" d="m1.66,66.09c1.3-.06,2.61.34,3.65,1.12"/>
    <path class="cls-1" d="m5.13,64.13c-.99-.47-2.01-.86-3.06-1.17"/>
    <path class="cls-1" d="m2.28,61.76c1.04-.23,2.16-.03,3.06.55"/>
    <path class="cls-1" d="m2.27,59.9c1.2-.05,2.4.23,3.45.82"/>
    <path class="cls-1" d="m1.64,77.93l3.05-1.81"/>
    <path class="cls-1" d="m3.51,80.28c1.2-.36,2.31-1.04,3.18-1.95"/>
    <path class="cls-1" d="m5.33,81.27c1.17-.28,2.25-.97,3-1.91"/>
    <path class="cls-1" d="m7.4,82.38c1.14-.39,2.15-1.16,2.81-2.16"/>
    <path class="cls-1" d="m9.4,83.08c.84-.4,1.59-.98,2.18-1.69"/>
    <path class="cls-1" d="m11.09,84.55l1.86-1.8"/>
    <path class="cls-1" d="m12.65,86.31c1.19-1,2.15-2.28,2.78-3.7"/>
    <path class="cls-1" d="m14.33,87.37c1.73-2.11,2.89-4.69,3.33-7.38"/>
    <path class="cls-1" d="m16.71,88.73c.68-1.57,1.2-3.21,1.58-4.89"/>
    <path class="cls-1" d="m18.38,89.75l1.55-5.3"/>
    <path class="cls-1" d="m21.15,89.73c.07-1.56.45-3.1,1.1-4.51"/>
    <path class="cls-1" d="m24.2,89.72c-.41-1.6-.38-3.31.08-4.89"/>
    <path class="cls-1" d="m26.21,87.09c-.55-.97-.77-2.14-.6-3.24"/>
    <path class="cls-1" d="m26.82,82.43c-.07,1.09.06,2.2.39,3.25-.11-1.15-.28-2.1-.39-3.25Z"/>
    <path class="cls-1" d="m29.44,84.46c-.22-1.61-.28-3.25-.17-4.87"/>
    <path class="cls-1" d="m31.2,83.67c.55-2.77.29-5.7-.73-8.34"/>
    <path class="cls-1" d="m20.37,79.19c.37-1.67.62-3.37.75-5.08"/>
    <path class="cls-1" d="m23.34,80.8l.59-4.87"/>
    <path class="cls-1" d="m25.4,68.84l1.22-1.22"/>
    <path class="cls-1" d="m15.47,74.12c.59-.88,1.27-1.7,2.01-2.45"/>
    <path class="cls-1" d="m16.95,78.26c1.28-.92,1.99-2.59,1.75-4.15"/>
    <path class="cls-1" d="m34.32,81.45c.46-2.14.65-4.34.56-6.53"/>
    <path class="cls-1" d="m36.53,79.99c-.32-2.03-.18-4.13.42-6.09"/>
    <path class="cls-1" d="m37.65,80c-.22-2.04.26-4.15,1.35-5.89"/>
    <path class="cls-1" d="m39.1,79.23l2.02-4.76"/>
    <path class="cls-1" d="m43.46,75.74c-1.17,1.49-2.03,3.22-2.51,5.04,1.01-1.53,1.22-3.75,2.51-5.04Z"/>
    <path class="cls-1" d="m42.44,83.85c1.28-1.02,2.39-2.26,3.25-3.65"/>
    <path class="cls-1" d="m43.68,85.89l2.22-2.64"/>
    <path class="cls-1" d="m44.96,87.58l3.76-4.15"/>
    <path class="cls-1" d="m55.18,79.37c-.92,2.79-2.4,5.39-4.32,7.61"/>
    <path class="cls-1" d="m52.45,87.76c1.68-2.24,3.13-4.65,4.33-7.18"/>
    <path class="cls-1" d="m55.18,87.68l3.01-6.3"/>
    <path class="cls-1" d="m57.67,86.29c1.87-2.88,3.29-6.05,4.21-9.35"/>
    <path class="cls-1" d="m58.53,87.59c1.54-1.9,3.17-3.74,4.87-5.5"/>
    <path class="cls-1" d="m65.29,82.77l-3.96,4.55c2.39-1.62,2.14-2.31,3.96-4.55Z"/>
    <path class="cls-1" d="m62.31,89.72c3.19-2.14,6-4.84,8.26-7.95"/>
    <path class="cls-1" d="m63.65,90.24l6.43-5.52"/>
    <path class="cls-1" d="m73.66,86.47c-1.55,2.57-4.02,4.56-6.86,5.53,2.75-2.13,4.11-3.4,6.86-5.53Z"/>
    <path class="cls-1" d="m69.97,95.72c2.24-1.41,3.27-3.29,5.16-5.15-1.99,1.63-4.11,3.11-6.32,4.42"/>
    <path class="cls-1" d="m71.01,96.99c3.4-2.65,6.59-5.57,9.52-8.72"/>
    <path class="cls-1" d="m71.97,98.35c1.11-.84,2.42-1.38,3.59-2.13,1.68-1.07,3.09-2.58,4.04-4.34"/>
    <path class="cls-1" d="m73.73,99.12l6.69-5.28"/>
    <path class="cls-1" d="m76.08,101.65c.74-.63,1.12-1.07,2.04-.48,1.92-.74,4.07.22,6.11.51"/>
    <path class="cls-1" d="m78.92,102.59c1.75.67,3.65.92,5.51.74"/>
    <path class="cls-1" d="m83.82,106.56c-1.68-.69-3.47-1.1-5.27-1.22,1.42.8,3.85.41,5.27,1.22Z"/>
    <path class="cls-1" d="m82.24,110.38c-.91-1.05-1.97-1.97-3.14-2.72.36,1.36,2.15,1.71,3.14,2.72Z"/>
    <path class="cls-1" d="m76.43,108.82l.96,3.2"/>
    <path class="cls-1" d="m74,109.42l.74,3.42"/>
    <path class="cls-1" d="m71.51,108.4c.05,1.15.13,2.29.25,3.43"/>
    <path class="cls-1" d="m69.37,106.96c-.28.86-.46,1.75-.53,2.65"/>
    <path class="cls-1" d="m77.94,82.03l2.44-2.42"/>
    <path class="cls-1" d="m72.86,79.38c1.42-1.4,2.48-1.54,4.27-2.43-.67,1.68-1.82,3.16-3.27,4.23"/>
    <path class="cls-1" d="m80.83,82.89c.95-.87,1.86-1.79,2.72-2.75"/>
    <path class="cls-1" d="m86.26,87.71c1.04-.77,1.99-1.67,2.82-2.66"/>
    <path class="cls-1" d="m82.17,93.36l4.06-4.26"/>
    <path class="cls-1" d="m85.97,95.15c1.34-1.94,2.95-3.69,4.77-5.19"/>
    <path class="cls-1" d="m84.37,99.81l3.71-3.18"/>
    <path class="cls-1" d="m89.69,99.05c2.19-2.67,4.44-5.3,6.73-7.88"/>
    <path class="cls-1" d="m85.53,103.65c.98-1.41,2.38-2.52,3.97-3.16"/>
    <path class="cls-1" d="m89.11,105.99c1.3-.91,2.52-1.93,3.65-3.05"/>
    <path class="cls-1" d="m94.77,99.26c1.36-.64,2.56-1.62,3.45-2.83"/>
    <path class="cls-1" d="m100.76,94.11c.82-1,1.74-1.93,2.73-2.76"/>
    <path class="cls-1" d="m110,88.71c.04-.64.93-1.03,1.42-.62"/>
    <path class="cls-1" d="m112.02,91.35c.3-.61.8-1.12,1.41-1.44"/>
    <path class="cls-1" d="m94.34,107.76c1.32-1.71,2.91-3.21,4.7-4.42"/>
    <path class="cls-1" d="m84.21,115.27c1.37-.95,2.81-1.8,4.31-2.55"/>
    <path class="cls-1" d="m88.43,124.2c.37-1.93.49-3.92.35-5.88"/>
    <path class="cls-1" d="m91.12,117.32l-.45,5.07"/>
    <path class="cls-1" d="m92.37,114.47c.39,2.14.51,4.33.36,6.5"/>
    <path class="cls-1" d="m94.57,116.3v3.85"/>
    <path class="cls-1" d="m96.62,115.9c-.22,1.13-.3,2.29-.23,3.44"/>
    <path class="cls-1" d="m99.23,112.65c.07,1.7-.05,3.41-.34,5.08"/>
    <path class="cls-1" d="m87.36,121.55c.43,1.8.48,3.69.16,5.51"/>
    <path class="cls-1" d="m85.66,123.81l-.57,4.47"/>
    <path class="cls-1" d="m83.55,126.03l-.5,3.67"/>
    <path class="cls-1" d="m82.05,127.87l-.46,3.64"/>
    <path class="cls-1" d="m66.93,140.21c-.15.25.33.37.6.26,1.59-.68,2.94-1.93,3.74-3.48"/>
    <path class="cls-1" d="m67.78,142.01c2.04-.69,3.88-1.96,5.26-3.62"/>
    <path class="cls-1" d="m77.95,140.45l-2.02,3.25"/>
    <path class="cls-1" d="m66.38,139.45c1.75-.39,3.32-1.53,4.22-3.09"/>
    <path class="cls-1" d="m61.67,136.53c1.46-.92,2.73-2.15,3.7-3.58"/>
    <path class="cls-1" d="m62.72,131.52c-.27,1.63-1.26,3.13-2.66,4.02,1.45-1.03,2.14-2.32,2.66-4.02Z"/>
    <path class="cls-1" d="m59.71,130.31c-.36,1.57-1.25,3-2.48,4.03,1.16-1.21,2.12-2.39,2.48-4.03Z"/>
    <path class="cls-1" d="m52.79,135.17c1.07-1.09,1.92-2.41,2.46-3.85"/>
    <path class="cls-1" d="m50.16,137.2l2.11-5.12"/>
    <path class="cls-1" d="m65.22,124.06l3.39-4.31"/>
    <path class="cls-1" d="m47.12,135.6c-1.15.98-2.58,1.62-4.07,1.83,2.13-.05,2.69-.21,4.07-1.83Z"/>
    <path class="cls-1" d="m39.18,134.69c1.68-.31,3.3-.95,4.74-1.86"/>
    <path class="cls-1" d="m37.37,133.14c1.71-.44,3.37-1.08,4.94-1.89"/>
    <path class="cls-1" d="m36.56,130.33c1.92-.36,3.82-.83,5.69-1.39"/>
    <path class="cls-1" d="m34.93,127.84c2.78.2,5.59,0,8.31-.61"/>
    <path class="cls-1" d="m34.91,125.67l7.74-.92"/>
    <path class="cls-1" d="m33.71,123.57c2.76-.45,5.54-.75,8.33-.88"/>
    <path class="cls-1" d="m33.1,121.47c3.17-.29,6.36-.42,9.54-.37"/>
    <path class="cls-1" d="m33.3,119.2c3.45-.14,6.91,0,10.34.42"/>
    <path class="cls-1" d="m34.94,117.15c3.24.1,6.49.25,9.73.44"/>
    <path class="cls-1" d="m36.96,115.14c2.3-.06,4.61.08,6.89.4"/>
    <path class="cls-1" d="m37.78,113.39l6.89.71"/>
    <path class="cls-1" d="m41.42,111.94c2.2.11,3.59-.05,5.48-1.32"/>
    <path class="cls-1" d="m40.81,110.01l-.38.59c1.41-.18,2.83-.35,4.24-.53"/>
    <path class="cls-1" d="m39.4,109.28l6.68-.58"/>
    <path class="cls-1" d="m40,106.55l7.71-.27"/>
    <path class="cls-1" d="m41.61,104.37c2.09-.25,4.2-.35,6.3-.29"/>
    <path class="cls-1" d="m43.86,100.02c1.85.19,2.69,1.55,4.45,2.13-1.88-.23-3.78-.32-5.67-.26"/>
    <path class="cls-1" d="m46.5,98.48c1.81.06,3.61.47,5.26,1.2"/>
    <path class="cls-1" d="m49.12,97.29c1.62-.09,3.27.34,4.64,1.22"/>
    <path class="cls-1" d="m47.11,116.75c1.01-.15,1.96-.68,2.62-1.47"/>
    <path class="cls-1" d="m48.32,112.47l3.04-.25"/>
    <path class="cls-1" d="m52.38,121.48c.7,0,1.39-.37,1.78-.95"/>
    <path class="cls-1" d="m47.67,126.24c-.03-.44.14-.9.45-1.21"/>
    <path class="cls-1" d="m60.7,109.42c.87-.34,1.64-.91,2.22-1.64"/>
    <path class="cls-1" d="m54.81,101.7c.78-.01,1.56-.21,2.25-.58"/>
    <path class="cls-1" d="m57.46,102.57c1.56-.22,3.11-.54,4.64-.95"/>
    <path class="cls-1" d="m60.49,104.12c1.36.13,2.75,0,4.06-.37"/>
    <path class="cls-1" d="m63.35,105.45l3.63-.56"/>
    <path class="cls-1" d="m67.81,108.32c.89-.08,1.77-.27,2.61-.57"/>
    <path class="cls-1" d="m70.04,109.66c1.05-.23,2.02-.77,2.78-1.53"/>
    <path class="cls-1" d="m82.82,93.8c-2.03,2.35-4.49,4.33-7.23,5.81-.2-.19.02-.56.29-.59s.53.15.75.32c2.22-.57,3.76-.29,5.98-.86"/>
    <path class="cls-1" d="m71.74,97.97c2.3-1.68,4.48-3.5,6.54-5.46"/>
    <path class="cls-1" d="m67.41,93.83c2.42-1.3,4.72-2.81,6.86-4.52"/>
    <path class="cls-1" d="m65.09,90.93c-.19.16-.23-.3-.06-.47,1.19-1.13,2.47-2.18,3.81-3.12"/>
    <path class="cls-1" d="m71.21,86.26c.67-1.29,1.67-2.41,2.88-3.22"/>
    <path class="cls-1" d="m98.13,118.68c1.52-1.14,2.74-2.68,3.49-4.42"/>
    <path class="cls-1" d="m100.53,112.58c1.56-.89,2.96-2.06,4.13-3.43"/>
    <path class="cls-1" d="m104.52,112.47c1.24-.58,2.34-1.42,3.23-2.46"/>
    <path class="cls-1" d="m113.24,105.56c.98-.62,1.86-1.38,2.62-2.25"/>
    <path class="cls-1" d="m100.23,120.12c3.24-1.4,6.22-3.38,8.75-5.84"/>
    <path class="cls-1" d="m103.02,122.82c.09.01-.06.14-.09.06s.05-.16.13-.21c3.71-2.39,7.16-5.18,10.27-8.3"/>
    <path class="cls-1" d="m105.53,123.43c.11.47.82.28,1.21-.01,3.17-2.42,6.23-4.99,9.15-7.71"/>
    <path class="cls-1" d="m108.63,124.5c2.93-1.95,5.67-4.19,8.17-6.67"/>
    <path class="cls-1" d="m109.37,126.44c2.37-1.71,4.55-3.7,6.47-5.9"/>
    <path class="cls-1" d="m110.95,127.81l5.91-5.65"/>
    <path class="cls-1" d="m112.43,129.09c2.02-2.04,4.03-4.08,6.05-6.12"/>
    <path class="cls-1" d="m113.3,130.97l8.47-9.18"/>
    <path class="cls-1" d="m115.88,131.32l7.35-8.88"/>
    <path class="cls-1" d="m119.03,134.13c.86-3.11,2.33-5.5,3.97-8.28-1.09,1.92-2.55,4.82-2.37,7.11.14,1.71,1.58,2.5,2.06,3.69-.76-2.26.63-5.53,1.6-7.62-.97,2.08-2.26,3.05-2.85,5.01"/>
    <path class="cls-1" d="m115.47,132.76l.46-.76c1.78-2.93,4.32-5.07,6.33-7.84l-4.43,8.54"/>
    <path class="cls-1" d="m114.2,132.1c1.52-2.59,3.1-5.15,4.73-7.67"/>
    <path class="cls-1" d="m113.41,130.49c1.06-2.61,2.36-5.12,3.89-7.49"/>
    <path class="cls-1" d="m112.57,128.86c1.12-2.52,2.43-4.95,3.92-7.27"/>
    <path class="cls-1" d="m110.79,128.27l4.26-7.5"/>
    <path class="cls-1" d="m109.34,126.42c1.41-2.08,2.7-4.25,3.86-6.48"/>
    <path class="cls-1" d="m106.73,125.43c1.52-2.58,3.37-4.97,5.48-7.1"/>
    <path class="cls-1" d="m128.64,114.89c-.25.02-.51-.12-.64-.34.66-.58,1.44-1.01,2.28-1.27"/>
    <path class="cls-1" d="m129.28,117.56c1.14-.73,2.22-1.56,3.22-2.48"/>
    <path class="cls-1" d="m129.88,120.98l3.81-3.5"/>
    <path class="cls-1" d="m136.79,115.11l4.43-3.69"/>
    <path class="cls-2" d="m141.05,113.92c.95-.5,1.84-1.13,2.62-1.87"/>
    <path class="cls-1" d="m141.98,106.92c.88-1.03,1.93-1.9,3.1-2.58"/>
    <path class="cls-1" d="m146.53,111.7c.82-.42,1.52-1.09,1.97-1.9"/>
    <path class="cls-1" d="m140.33,90.48c-.73,1.05-1.25,2.26-1.51,3.51"/>
    <path class="cls-1" d="m142.65,93.39l-.94,1.18c-.07.09-.14.2-.1.3s.26.03.19-.06"/>
    <path class="cls-1" d="m129.17,88.5c.08-.72.5-1.4,1.12-1.79-.41.7.27,1.83,0,2.59.2-.12-1.32-.68-1.12-.8Z"/>
    <path class="cls-1" d="m132.57,87.31l-.66,2.42"/>
    <path class="cls-1" d="m137.18,80.6c-.38.68-.6,1.45-.64,2.23"/>
    <path class="cls-1" d="m138.82,82.03l-.5,1.18c-.27.2.77-1.38.5-1.18Z"/>
    <path class="cls-1" d="m130.14,74.13l-.71,1.99"/>
    <path class="cls-1" d="m131.3,75.74c-.58.7-1.02,1.54-1.25,2.42"/>
    <path class="cls-1" d="m132.98,76.98l-1.7,3.82"/>
    <path class="cls-1" d="m124.15,72.86c-.5.69-.89,1.46-1.17,2.26"/>
    <path class="cls-1" d="m33.01,59.33c.57-1.78,1.57-3.42,2.9-4.74"/>
    <path class="cls-1" d="m32.88,62.54c.25-.75.77-1.41,1.43-1.84"/>
    <path class="cls-1" d="m34.72,65.18c.24-.91.84-1.72,1.64-2.22"/>
    <path class="cls-1" d="m36.86,66.78c.1-.46.35-.89.71-1.19"/>
    <path class="cls-1" d="m39.38,65.2c.29.23.8-.05.76-.41"/>
    <path class="cls-1" d="m35.04,71.02c.33-.72.78-1.39,1.32-1.98"/>
    <path class="cls-1" d="m40.41,58.89c.07-.67.36-1.32.8-1.84"/>
    <path class="cls-1" d="m35.13,50.17l1.22-.81"/>
    <path class="cls-1" d="m37.54,51.41l.27.54c.28-.16.49-.45.55-.76"/>
    <path class="cls-1" d="m24.55,53.33c-.18-.29.23-.66.56-.57s.54.41.71.71c.28.48.56.96.84,1.44"/>
    <path class="cls-1" d="m25.39,49.15c.24-.73.72-1.38,1.34-1.83.36.5.44,1.16.82,1.65s1.34.57,1.47-.03"/>
    <path class="cls-1" d="m30.65,44.27l2.06-1.58"/>
    <path class="cls-1" d="m49.68,34.72c.29-.51.66-.97,1.08-1.37"/>
    <path class="cls-1" d="m119.77,63.51l2.36,2.8c.22.26.49.55.83.55"/>
    <path class="cls-1" d="m120.03,62.84c1.26,1.69,2.83,3.14,4.61,4.27"/>
    <path class="cls-1" d="m121.04,62.86c1.51,1.35,3.22,2.47,5.05,3.33"/>
    <path class="cls-1" d="m121.35,62.41c1.27.81,2.58,1.56,3.91,2.25"/>
    <path class="cls-1" d="m121.82,61.46c1.46,1.03,3,1.96,4.6,2.77"/>
    <path class="cls-1" d="m123.1,61.07c1.23.78,2.55,1.42,3.93,1.89"/>
    <path class="cls-1" d="m123.52,60.37c1.55.9,3.17,1.65,4.86,2.25"/>
    <path class="cls-1" d="m123.99,59.83c1.23.52,2.5.95,3.78,1.28"/>
    <path class="cls-1" d="m124.4,59.2c1.03.36,2.09.65,3.16.87"/>
    <path class="cls-1" d="m125,58.54l2.49.46"/>
    <path class="cls-1" d="m125.27,57.74c.82.16,1.66.26,2.5.31"/>
    <path class="cls-1" d="m125.47,56.94c.75,0,1.49-.03,2.23-.11"/>
    <path class="cls-1" d="m125.2,55.93l2.23-.24"/>
    <path class="cls-1" d="m125.21,55.19c.63-.26,1.28-.46,1.95-.58"/>
    <path class="cls-1" d="m124.93,54.57l1.96-.76"/>
    <path class="cls-1" d="m123.65,53.5c.64-.24,1.23-.59,1.75-1.04"/>
    <path class="cls-1" d="m122.29,53.42c.54-.39,1.14-.71,1.76-.95"/>
    <path class="cls-1" d="m119.93,52.9c.85-.13,1.68-.41,2.43-.83"/>
    <path class="cls-1" d="m119.18,52.59l2.3-.73"/>
    <path class="cls-1" d="m118.1,52.15c.97-.16,1.92-.45,2.82-.86"/>
    <path class="cls-1" d="m117.35,51.64c.86-.23,1.68-.59,2.44-1.06"/>
    <path class="cls-1" d="m116.68,50.88c.86-.05,1.7-.32,2.44-.77"/>
    <path class="cls-1" d="m115.67,50.09c.95-.06,1.88-.26,2.77-.57"/>
    <path class="cls-1" d="m115.33,49.54c1.05.09,2.13-.06,3.12-.44"/>
    <path class="cls-1" d="m115.13,48.97c.99-.17,1.98-.32,2.97-.44"/>
    <path class="cls-1" d="m114.57,48.16c.93-.23,1.9-.3,2.85-.21"/>
    <path class="cls-1" d="m114.45,47.45c.88-.26,1.8-.34,2.71-.24"/>
    <path class="cls-1" d="m121.23,65.55c-.66-.36-1.19-.94-1.49-1.63.5.49.91,1.23,1.49,1.63Z"/>
    <path class="cls-1" d="m120.53,63.02c.43.4.65,1.16,1.08,1.56l-1.48-1.15"/>
    <path class="cls-1" d="m121.09,62.6c.48.49.99.96,1.52,1.39"/>
    <path class="cls-1" d="m123.17,63.37c-.59-.28-1.13-.66-1.61-1.11.56.32,1.04.79,1.61,1.11Z"/>
    <path class="cls-1" d="m122.36,61.73c.48.24.97.46,1.48.64"/>
    <path class="cls-1" d="m122.7,61.26c.52.35,1.08.64,1.67.86"/>
    <path class="cls-1" d="m125.26,61.7c-.73-.18-1.44-.47-2.08-.86.6.27,1.43.73,2.08.86Z"/>
    <path class="cls-1" d="m126.07,60.68c-.71-.18-1.4-.4-2.08-.65.67.13,1.41.53,2.08.65Z"/>
    <path class="cls-1" d="m124.52,59.05l2.16.47"/>
    <path class="cls-1" d="m124.86,58.55l1.96.24"/>
    <path class="cls-1" d="m125.34,58.01l1.76.16"/>
    <path class="cls-1" d="m125.54,57.45c.54,0,1.09-.04,1.62-.11"/>
    <path class="cls-1" d="m125.4,56.66c.49,0,.97-.08,1.43-.24"/>
    <path class="cls-1" d="m126.68,55.9l-1.22.27c.41-.18.81-.09,1.22-.27Z"/>
    <path class="cls-1" d="m124.93,55.18l1.09-.53"/>
    <path class="cls-1" d="m124.52,54.36c.31-.09.61-.23.88-.4"/>
    <path class="cls-1" d="m123.72,53.84l.79-.44c.08-.04.16-.09.19-.17s-.02-.2-.11-.2"/>
    <path class="cls-1" d="m123.11,53.3c.37-.13.71-.37.94-.69"/>
    <path class="cls-1" d="m122.16,53.14c.47-.11.89-.4,1.15-.8"/>
    <path class="cls-1" d="m120.8,52.91c.6.08,1.24-.19,1.59-.69"/>
    <path class="cls-1" d="m119.86,52.81c.59-.1,1.17-.31,1.69-.6"/>
    <path class="cls-1" d="m120.81,51.94c-.54.28-1.16.4-1.76.35.58.06,1.26-.05,1.76-.35Z"/>
    <path class="cls-1" d="m119.45,51.25c-.6.24-1.26.32-1.9.24.5.06,1.43-.05,1.9-.24Z"/>
    <path class="cls-1" d="m116.61,50.43l1.49-.12"/>
    <path class="cls-1" d="m115.47,49.91l1.83-.26"/>
    <path class="cls-1" d="m115.26,49.22c.59.04,1.18,0,1.76-.1"/>
    <path class="cls-1" d="m114.99,48.67c.52.07,1.05.05,1.56-.08"/>
    <path class="cls-1" d="m114.38,47.82c.56.1,1.13.16,1.69.17-.59-.02-1.38-.47-1.96-.58.58.09,1.25-.18,1.83-.26"/>
    <path class="cls-1" d="m117.29,65.32l-.26-.34c.09.22.17.12.26.34Z"/>
    <path class="cls-1" d="m117.51,64.56l.51.9"/>
    <path class="cls-1" d="m118.57,65.45c-.26-.3-.46-.65-.61-1.01.22.34.38.68.61,1.01Z"/>
    <path class="cls-1" d="m119.37,65.26l-.59-1.09c.15.37.35.78.59,1.09Z"/>
    <path class="cls-1" d="m120.12,65.19l-.66-1.09c.27.5.39.6.66,1.09Z"/>
    <path class="cls-1" d="m117.83,64.64l1.19,1.64"/>
    <path class="cls-1" d="m118.52,64.36c.36.61.76,1.21,1.17,1.79"/>
    <path class="cls-1" d="m119.27,64.49l1.08,1.6"/>
    <path class="cls-1" d="m119.72,64.18c.45.53.86,1.09,1.23,1.68"/>
    <path class="cls-1" d="m115.28,47.41l4.37,1.24"/>
    <path class="cls-1" d="m116.34,47.28c1.34.22,2.7.31,4.06.28"/>
    <path class="cls-1" d="m118.44,46.85l2.36.22"/>
    <path class="cls-1" d="m118.72,46.23c.89.31,1.83.48,2.77.51"/>
    <path class="cls-1" d="m120.06,45.93l2.3.28"/>
    <path class="cls-1" d="m120.74,45.5l2.37.1"/>
    <path class="cls-1" d="m121.35,44.9h2.23"/>
    <path class="cls-1" d="m121.96,44.33h2.1"/>
    <path class="cls-1" d="m122.63,43.74c.63.03,1.27.02,1.9-.03"/>
    <path class="cls-1" d="m122.97,43.2l2.03.11"/>
    <path class="cls-1" d="m123.45,42.48c.53-.35,1.24.09,1.86-.04"/>
    <path class="cls-1" d="m123.92,41.72c.6.11,1.21.18,1.82.22"/>
    <path class="cls-1" d="m124.52,41.35l2.03.09"/>
    <path class="cls-1" d="m124.66,40.8l2.64.2"/>
    <path class="cls-1" d="m125.4,39.83c.8.01,1.59.1,2.37.25"/>
    <path class="cls-1" d="m125.47,38.98c.71.15,1.45.2,2.17.15"/>
    <path class="cls-1" d="m125.53,38.09c.68.21,1.39.31,2.11.28"/>
    <path class="cls-1" d="m125.95,37.45c.51.12,1.03.2,1.55.24"/>
    <path class="cls-1" d="m126.69,36.69l1.01.16"/>
    <path class="cls-1" d="m121.88,44.35c.39-.18.85-.15,1.28-.11,1.13.1,2.26.19,3.39.29"/>
    <path class="cls-1" d="m123.04,43.56c1.35.1,2.71.09,4.06-.04"/>
    <path class="cls-1" d="m124.86,41.54c1.05-.18,2.12-.23,3.18-.14"/>
    <path class="cls-1" d="m119.78,46.03c1.48.28,2.98.5,4.48.66"/>
    <path class="cls-1" d="m118.91,47.57l4.06.21"/>
    <path class="cls-1" d="m119.45,50.35l3.86-.38"/>
    <path class="cls-1" d="m119.45,50.92c1.4.03,2.81-.09,4.19-.34"/>
    <path class="cls-1" d="m118.71,49.53l4.2-.43"/>
    <path class="cls-1" d="m119.59,48.51l3.72-.22"/>
    <path class="cls-1" d="m124.51,54.71c.73-.16,1.49-.19,2.23-.08"/>
    <path class="cls-1" d="m127.16,55.35l-2.03-.11c.85.14,1.17.12,2.03.11Z"/>
    <path class="cls-1" d="m125.27,56.46l2.1.4"/>
    <path class="cls-1" d="m125.06,57.62c.75.27,1.52.47,2.3.59"/>
    <path class="cls-1" d="m125.06,58.44c.68.31,1.42.49,2.17.53"/>
    <path class="cls-1" d="m124.6,58.74l2.43.77"/>
    <path class="cls-1" d="m124.31,59.39l2.72.75"/>
    <path class="cls-1" d="m124.25,60.06l2.51.8"/>
    <path class="cls-1" d="m123.77,60.54c.68.2,1.34.45,1.98.76"/>
    <path class="cls-1" d="m123.3,60.88c.76.25,1.49.58,2.18.98"/>
    <path class="cls-1" d="m122.76,61.55c.69.31,1.36.68,1.97,1.12"/>
    <path class="cls-1" d="m122.02,62.34c.69.24,1.35.56,1.95.96"/>
    <path class="cls-1" d="m121.54,62.83c.73.28,1.41.66,2.04,1.12"/>
    <path class="cls-1" d="m120.66,63.37l1.63,1"/>
    <path class="cls-1" d="m119.64,64.19c.41.29.82.57,1.25.83"/>
    <path class="cls-1" d="m25.86,85.13c.04.93.01,1.86-.07,2.79-.01.12-.12.29-.21.21"/>
    <path class="cls-1" d="m26.41,87.9v-3.45"/>
    <path class="cls-1" d="m27,87.23c-.02-1.04-.06-2.07-.12-3.11"/>
    <path class="cls-1" d="m27.9,86.69l-.18-3.04"/>
    <path class="cls-1" d="m28.56,85.87l-.28-2.97"/>
    <path class="cls-1" d="m28.97,85.41c.02.05.1.04.14,0s.03-.1.02-.16c-.08-.94-.17-1.88-.25-2.82"/>
    <path class="cls-1" d="m29.93,80.94c.16,1.19.22,2.39.18,3.58"/>
    <path class="cls-1" d="m30.61,83.88s0,.06.03.05.03-.05.03-.09c0-1.22-.09-2.44-.24-3.65"/>
    <path class="cls-1" d="m31.17,83.29c.07.06.15-.06.15-.16.06-1.4-.06-2.8-.33-4.17"/>
    <path class="cls-1" d="m31.76,82.9c-.01.07,0,.14.06.19.12-.03.14-.18.14-.3-.02-1.5-.08-3-.2-4.49"/>
    <path class="cls-1" d="m32.35,82.56c.15-1.73.14-3.48-.03-5.21"/>
    <path class="cls-1" d="m20,87.57c-.21.84-.36,1.7-.46,2.56.04.07.46-.25.51-.32.53-.83-.37-1.31-.05-2.24Z"/>
    <path class="cls-1" d="m20.73,89.75c.1.11.25-.08.27-.22.2-1.22.4-2.43.61-3.65"/>
    <path class="cls-1" d="m21.87,89.4l.43-3.6"/>
    <path class="cls-1" d="m22.39,89.67l.75-4.61"/>
    <path class="cls-1" d="m23.3,89.3s-.03.07.01.06.05-.06.06-.09c.16-1.31.32-2.63.48-3.94"/>
    <path class="cls-1" d="m24.23,89.06l.34-4.74"/>
    <path class="cls-1" d="m24.86,88.11c-.04.07,0,.17.08.2.12-.27.11-.58.11-.87,0-1.43.13-2.85.37-4.26"/>
    <path class="cls-1" d="m25.61,87.85s.06.08.1.06.05-.08.06-.12c.1-.47.15-.95.21-1.43.13-1.17.27-2.35.4-3.52"/>
    <path class="cls-1" d="m26.96,87.29l.74-6.49"/>
    <path class="cls-1" d="m28.16,85.74c.2-2.07.33-4.15.4-6.22"/>
    <path class="cls-1" d="m28.96,84.68c.08.05.16-.08.17-.18.19-1.88.3-3.77.35-5.66"/>
    <path class="cls-1" d="m29.8,84.33c.05-.44.09-.87.12-1.31.06-.7.12-1.4.19-2.1.09-.97.17-1.95-.02-2.9"/>
    <path class="cls-1" d="m30.69,82.97c.36-1.85.53-3.73.5-5.62"/>
    <path class="cls-1" d="m31.64,82.64c-.02.06.07.1.12.07s.07-.09.08-.15c.56-2.4.55-4.92-.03-7.31"/>
    <path class="cls-1" d="m25.94,86.72c-.08.14.14.29.28.21s.18-.25.21-.41c.48-2.68.4-5.45-.24-8.1"/>
    <path class="cls-1" d="m29,84.64c.27,0,.36-.35.37-.62.07-3-.12-6-.57-8.96"/>
    <path class="cls-1" d="m31.2,82.72c.83-2.13.88-4.55.13-6.71"/>
    <path class="cls-1" d="m24.72,86.89s.06.03.09,0c.29-.35.36-.83.41-1.28.14-1.26.2-2.52.25-3.79"/>
    <path class="cls-1" d="m15.11,88.98c.21-.91.46-1.81.76-2.7"/>
    <path class="cls-1" d="m15.88,89.39c.25-1.17.56-2.32.93-3.45"/>
    <path class="cls-1" d="m16.95,89.12c.29-.89.53-1.79.71-2.71"/>
    <path class="cls-1" d="m17.75,89.73c.17-1.11.37-2.22.62-3.31"/>
    <path class="cls-1" d="m18.72,89.73l.48-2.85"/>
    <path class="cls-1" d="m19.48,89.67l.76-4.13"/>
    <path class="cls-1" d="m20.65,89.19c.05-1.16.22-2.32.49-3.45"/>
    <path class="cls-1" d="m11.76,86.09c.56-.59.91-1.37.98-2.18"/>
    <path class="cls-1" d="m12.67,86.71c.47-.9.85-1.84,1.14-2.81"/>
    <path class="cls-1" d="m13.65,86.96c.38-.94.81-1.87,1.27-2.78"/>
    <path class="cls-1" d="m14.32,87.46c.41-.17.6-.63.75-1.05.23-.63.45-1.26.68-1.89"/>
    <path class="cls-1" d="m15.01,88.46c.58-1,.95-2.12,1.09-3.27"/>
    <path class="cls-1" d="m8.64,83.86c.47-.6.91-1.21,1.33-1.84"/>
    <path class="cls-1" d="m9.94,84.71c.79-.32,1.4-1.05,1.58-1.89"/>
    <path class="cls-1" d="m6.33,82.29c.47-.35.84-.82,1.07-1.36"/>
    <path class="cls-1" d="m4.89,81.33c.29-.35.55-.73.78-1.13"/>
    <path class="cls-1" d="m3.07,80.18l1.16-1.41"/>
    <path class="cls-1" d="m22.02,88.24l.93-4.47"/>
    <path class="cls-1" d="m24.58,73.57c.04-.64.13-1.27.28-1.89"/>
    <path class="cls-1" d="m28.3,81.21l-.32-4.4"/>
    <path class="cls-1" d="m31.52,75.4c-.32-1.39-.69-2.77-1.1-4.14"/>
    <path class="cls-1" d="m13.63,50.19c.78.17,1.61.11,2.36-.17"/>
    <path class="cls-1" d="m13.61,49.48c.71.27,1.55.16,2.17-.27"/>
    <path class="cls-1" d="m12.82,49.2c.86-.08,1.71-.29,2.51-.63"/>
    <path class="cls-1" d="m12.41,48.58c.93.12,1.91-.08,2.72-.55"/>
    <path class="cls-1" d="m11.53,48.12c.84.06,1.69-.12,2.43-.53"/>
    <path class="cls-1" d="m10.65,47.44c.97.09,1.98-.15,2.79-.69"/>
    <path class="cls-1" d="m9.71,46.9c1.01,0,2.02-.22,2.93-.67"/>
    <path class="cls-1" d="m8.62,46.21c1.25.2,2.56.06,3.73-.41"/>
    <path class="cls-1" d="m7.89,45.65s-.08.06-.05.11.08.05.13.06c1.03.15,2.09.02,3.05-.37"/>
    <path class="cls-1" d="m6.87,44.87c1.25.06,2.51-.05,3.73-.34"/>
    <path class="cls-1" d="m6.66,44.26c1.2.11,2.42.02,3.6-.28"/>
    <path class="cls-1" d="m5.85,43.38c1.24.2,2.52.13,3.74-.2"/>
    <path class="cls-1" d="m5.44,42.5c1.14.19,2.34.05,3.41-.39"/>
    <path class="cls-1" d="m5.45,41.7c1.05.04,2.11-.08,3.12-.35"/>
    <path class="cls-1" d="m5.25,40.68c.88.04,1.77-.01,2.64-.15.16-.03.35-.07.42-.22"/>
    <path class="cls-1" d="m5.18,39.8c.77.08,1.56,0,2.31-.21"/>
    <path class="cls-1" d="m5.04,38.83c.74.14,1.51.12,2.24-.06"/>
    <path class="cls-1" d="m5.25,37.8c.62.13,1.28.12,1.9-.05"/>
    <path class="cls-1" d="m5.38,36.76l1.3.09c.15,0,.33,0,.39-.13"/>
    <path class="cls-1" d="m5.59,35.9c.56.03,1.13.02,1.69-.03"/>
    <path class="cls-1" d="m5.8,34.79c.44.13.91.13,1.36.01"/>
    <path class="cls-1" d="m5.93,33.45l1.55.21"/>
    <path class="cls-1" d="m8.23,45.65c1.75-.51,3.47-1.15,5.14-1.91"/>
    <path class="cls-1" d="m7,43.95c1.87-.44,3.71-1.02,5.48-1.74"/>
    <path class="cls-1" d="m6.88,42.77c1.81-.66,3.6-1.41,5.34-2.24"/>
    <path class="cls-1" d="m5.84,40.39c1.65-.57,3.32-1.04,5.03-1.41"/>
    <path class="cls-1" d="m5.85,38.51c1.34-.38,2.7-.7,4.07-.95"/>
    <path class="cls-1" d="m6.38,36.88c.96-.35,1.97-.55,2.99-.61"/>
    <path class="cls-1" d="m6.19,35.54c1.09-.17,2.18-.39,3.25-.65"/>
    <path class="cls-1" d="m5.85,34.21c.98-.22,1.98-.34,2.98-.37"/>
    <path class="cls-1" d="m5.79,43.83c1.63-.14,3.24-.56,4.73-1.23"/>
    <path class="cls-1" d="m5.25,42.13c1.4-.29,2.78-.68,4.12-1.15"/>
    <path class="cls-1" d="m5.25,40.5l3.93-.86"/>
    <path class="cls-1" d="m4.91,38.96c1.45-.15,2.88-.47,4.26-.95"/>
    <path class="cls-1" d="m5.78,36.83c1.08-.33,2.14-.69,3.2-1.09"/>
    <path class="cls-1" d="m6.34,35c.87-.29,1.78-.49,2.69-.59"/>
    <path class="cls-1" d="m11.27,44.02c-1.18.44-2.37.84-3.57,1.2-.14.04-.32.07-.42-.04"/>
    <path class="cls-1" d="m9.11,45.77c1.61-.31,3.17-.85,4.64-1.58"/>
    <path class="cls-1" d="m10.32,46.58c1.37-.34,2.69-.86,3.93-1.53"/>
    <path class="cls-1" d="m10.8,47.1c1.35-.28,2.67-.73,3.91-1.33"/>
    <path class="cls-1" d="m11.6,48.21c1.25-.41,2.45-.96,3.58-1.63"/>
    <path class="cls-1" d="m5.92,32.65c.73.07,1.46.01,2.17-.17"/>
    <path class="cls-1" d="m5.72,32.07c.63.11,1.29.07,1.9-.13"/>
    <path class="cls-1" d="m5.65,31.27c.54.1,1.1.07,1.63-.08"/>
    <path class="cls-1" d="m5.24,30.52c.57.11,1.16.06,1.7-.14"/>
    <path class="cls-1" d="m5.18,29.63c.48.2,1.06.14,1.5-.13"/>
    <path class="cls-1" d="m4.97,28.81c.49.12,1.02.1,1.49-.06"/>
    <path class="cls-1" d="m4.84,27.78c.49.04.98-.04,1.43-.22"/>
    <path class="cls-1" d="m4.37,26.65c.47.21,1.04.2,1.51-.04"/>
    <path class="cls-1" d="m4.3,25.64c.53.13,1.09.15,1.63.06"/>
    <path class="cls-1" d="m4.17,24.81c.66.03,1.32,0,1.96-.13"/>
    <path class="cls-1" d="m6,31.53c1.72-.53,3.32-1.45,4.65-2.67"/>
    <path class="cls-1" d="m5.73,29.17c1.45-.56,2.85-1.26,4.17-2.07"/>
    <path class="cls-1" d="m4.58,26.88c1.46-.42,2.87-1.03,4.17-1.81"/>
    <path class="cls-1" d="m4.57,24.61l3.52-1.81"/>
    <path class="cls-1" d="m4.43,22.3c.95-.63,1.95-1.19,2.99-1.67"/>
    <path class="cls-1" d="m4.99,19.37l2.75-1.06"/>
    <path class="cls-1" d="m5.67,34.5c-.03.11.14.15.25.13.94-.15,1.87-.36,2.78-.62"/>
    <path class="cls-1" d="m5.99,35.38c.38.13.79.04,1.18-.06,1.14-.28,2.28-.56,3.43-.84"/>
    <path class="cls-1" d="m5.94,36.13s-.05-.01-.04.01.05.02.08.02c1.69-.42,3.38-.84,5.07-1.26"/>
    <path class="cls-1" d="m5.92,37.07c-.03.12.08.24.2.27s.25,0,.37-.02c1.68-.41,3.32-.96,4.9-1.65"/>
    <path class="cls-1" d="m5.78,37.96c.31.11.65.02.96-.07,1.54-.45,3.05-1.01,4.52-1.65"/>
    <path class="cls-1" d="m5.65,39.21c.8.08,1.59-.2,2.34-.48,1.39-.52,2.77-1.07,4.15-1.62"/>
    <path class="cls-1" d="m6.01,40.37c.17.16.45.11.68.05,2.03-.57,3.99-1.38,5.84-2.4"/>
    <path class="cls-1" d="m6.4,41.39c.15.13.38.07.57.01,2.45-.83,4.82-1.9,7.07-3.19"/>
    <path class="cls-1" d="m6.2,42.33c.35.16.75.08,1.12-.02,1.93-.51,3.79-1.31,5.49-2.37"/>
    <path class="cls-1" d="m5.78,43.47c2.24,0,4.34-1.01,6.35-1.99"/>
    <path class="cls-1" d="m5.24,41.25c.19.17.48.15.74.1,1.31-.23,2.59-.64,3.79-1.2"/>
    <path class="cls-1" d="m5.11,39.65c.84-.05,1.64-.35,2.42-.65,1.27-.5,2.54-1.04,3.8-1.57"/>
    <path class="cls-1" d="m5.73,43.4c1.4-.34,2.77-.8,4.1-1.37"/>
    <path class="cls-1" d="m5.65,44.2c1.41.08,2.84-.11,4.19-.54"/>
    <path class="cls-1" d="m6.73,45.47c1.73.17,3.5-.12,5.08-.84"/>
    <path class="cls-1" d="m8.51,46.32c.09.18.34.19.54.16,1.57-.22,3.11-.71,4.51-1.45"/>
    <path class="cls-1" d="m11.13,47.71c1.78-.3,3.41-1.15,5.01-1.99"/>
    <path class="cls-1" d="m12.4,48.5c.17.1.38.06.58.02,1.39-.35,2.71-.93,3.9-1.72"/>
    <path class="cls-1" d="m13.57,49.52c1.38-.49,2.72-1.11,3.99-1.84"/>
    <path class="cls-1" d="m8.35,30.62c-.72.44-1.52.76-2.35.93.99-.19,1.52-.36,2.35-.93Z"/>
    <path class="cls-1" d="m8.64,29.57c-.91.67-2,1.09-3.12,1.21.97-.12,2.33-.65,3.12-1.21Z"/>
    <path class="cls-1" d="m5.52,30.24c1.16-.25,2.29-.69,3.31-1.29"/>
    <path class="cls-1" d="m5.18,29.71c1.38-.25,2.71-.74,3.93-1.43"/>
    <path class="cls-1" d="m4.98,29.1c1.17-.34,2.3-.8,3.37-1.38"/>
    <path class="cls-1" d="m4.91,28.29c1.24-.14,2.44-.55,3.5-1.2"/>
    <path class="cls-1" d="m4.03,27.34c1.37-.23,2.63-.3,3.92-.83-.9.47-1.89.79-2.9.93"/>
    <path class="cls-1" d="m4.71,26.04c.77-.16,1.53-.4,2.24-.73"/>
    <path class="cls-1" d="m3.96,25.09c.93-.09,1.84-.32,2.71-.67"/>
    <path class="cls-1" d="m3.96,24.21c.75,0,1.5-.19,2.17-.53"/>
    <path class="cls-1" d="m4.03,23.44c.61.02,1.22-.11,1.76-.38"/>
    <path class="cls-1" d="m4.17,22.76c.44-.03.87-.11,1.29-.23"/>
    <path class="cls-1" d="m3.9,21.85c.7-.14,1.38-.37,2.03-.68"/>
    <path class="cls-1" d="m1.16,73.1c.89-.41,1.91-.52,2.86-.32"/>
    <path class="cls-1" d="m.45,74.33c.8-.14,1.62-.24,2.43-.3"/>
    <path class="cls-1" d="m.92,73.1c.85-.08,1.71-.1,2.57-.07"/>
    <path class="cls-1" d="m1.05,72c1.44-.16,2.89-.17,4.32-.02"/>
    <path class="cls-1" d="m1.18,71.07c1.91-.18,3.84-.19,5.75-.03"/>
    <path class="cls-1" d="m1.59,69.15c-.05-.04-.04-.13.02-.17s.13-.04.19-.04c1.43.04,2.86.24,4.25.59"/>
    <path class="cls-1" d="m1.31,67.6c.46-.3,1.05-.28,1.6-.22,1.11.12,2.21.34,3.27.67"/>
    <path class="cls-1" d="m1.93,65.93c.68-.04,1.37.03,2.03.2"/>
    <path class="cls-1" d="m1.87,65.03c.8-.05,1.6.05,2.36.3"/>
    <path class="cls-1" d="m2.34,64.24c.55-.06,1.11,0,1.62.19"/>
    <path class="cls-1" d="m2.2,62.99c.73-.07,1.48.04,2.16.32"/>
    <path class="cls-1" d="m2.41,61.65l1.49.25"/>
    <path class="cls-1" d="m2.68,60.78c.64.05,1.27.14,1.89.28"/>
    <path class="cls-1" d="m2.21,59.17c.41-.37,1.02-.38,1.56-.32,1.26.13,2.5.5,3.63,1.07"/>
    <path class="cls-1" d="m1.11,75.71l1.09-.46"/>
    <path class="cls-1" d="m1.71,73.22c-.1,0-.14-.14-.08-.21s.16-.1.25-.11c1.78-.3,3.61-.29,5.38.03"/>
    <path class="cls-1" d="m1.73,69.98c.19-.21.49-.25.76-.27,2.03-.18,4.09.11,5.99.84"/>
    <path class="cls-1" d="m2.34,66.86c1.07-.15,2.17-.14,3.24.03"/>
    <path class="cls-1" d="m2.95,64.78c.9-.12,1.82-.07,2.7.14"/>
    <path class="cls-1" d="m1.12,77c.56-.21,1.1-.45,1.63-.73"/>
    <path class="cls-1" d="m2.27,79.04c.57-.4,1.19-.74,1.83-1.02"/>
    <path class="cls-1" d="m3.05,58.08c-.06-.18.19-.3.39-.32,1.69-.18,3.42.08,4.98.75"/>
    <path class="cls-1" d="m3.44,54.83c.03-.15.24-.18.39-.16,1.16.12,2.3.41,3.37.85"/>
    <path class="cls-1" d="m3.97,51.99c2.8.15,5.58.78,8.17,1.85"/>
    <path class="cls-1" d="m6.46,49.53c.44-.04.88.11,1.3.26,1.34.49,2.65,1.07,3.92,1.72"/>
    <path class="cls-1" d="m9.92,49.33c1.84.74,3.65,1.45,4.99,2.94"/>
    <path class="cls-1" d="m6.2,50.29c1.14.5,2.22,1.12,3.24,1.84"/>
    <path class="cls-1" d="m18.57,77.83l.28-.67"/>
    <path class="cls-1" d="m19.17,75.66l.08-.54"/>
    <path class="cls-1" d="m16,74.25c.22-.22.4-.47.53-.75"/>
    <path class="cls-1" d="m21.49,76.41c-.07-.58-.1-1.17-.08-1.76"/>
    <path class="cls-1" d="m24.51,77.62l.08-1.76"/>
    <path class="cls-1" d="m25.53,72.96c0-.82.11-1.64.34-2.43"/>
    <path class="cls-1" d="m24.8,68.91c.61-.45,1.11-1.04,1.45-1.71"/>
    <path class="cls-1" d="m27.44,50.01c.41.29.86.53,1.33.71"/>
    <path class="cls-1" d="m29.4,47.79c.54.41.98.96,1.27,1.58"/>
    <path class="cls-1" d="m35.53,56.74c-.06-.28.14-.54.33-.75.3-.34.6-.67.9-1.01"/>
    <path class="cls-1" d="m34.93,58.96l.07-.07"/>
    <path class="cls-1" d="m33.17,64.17h.14"/>
    <path class="cls-1" d="m34.26,66.51c.13-.01.25-.08.33-.17"/>
    <path class="cls-1" d="m56.29,28.93c.04-.06.09-.13.13-.19-1.17,2.12-1.87,4.24-3.39,6.2"/>
    <path class="cls-1" d="m55.58,32.27c-.77,1.23-1.58,2.43-2.43,3.61"/>
    <path class="cls-1" d="m55.74,33.24l-2.12,2.73c-.32.41-.63.82-.88,1.27"/>
    <path class="cls-1" d="m55.7,34.36c-.79,1.03-1.54,2.08-2.26,3.16"/>
    <path class="cls-1" d="m56.1,35.3c-.7.93-1.3,1.93-1.81,2.98"/>
    <path class="cls-1" d="m56.64,35.97c-.59.63-1.08,1.37-1.43,2.16"/>
    <path class="cls-1" d="m57.33,36.52c-.4.65-.83,1.28-1.3,1.88"/>
    <path class="cls-1" d="m55.77,30.9c-.99,2.98-3.51,5.2-4.81,8.05"/>
    <path class="cls-1" d="m56.8,26.72l-2.9,4.56"/>
    <path class="cls-1" d="m56.5,29.21c-.68.88-1.29,1.8-1.84,2.77"/>
    <path class="cls-1" d="m56.62,25.82c-.66.97-1.29,1.97-1.87,2.99"/>
    <path class="cls-1" d="m56.47,27.55l-4.35,5.89"/>
    <path class="cls-1" d="m56.29,21.56l.14-.14c-.55,1.22-1.19,2.4-1.91,3.52"/>
    <path class="cls-1" d="m56.29,23.86c-.72,1-1.41,2.02-2.08,3.05"/>
    <path class="cls-1" d="m52.87,26.99l-1.67,2.47"/>
    <path class="cls-1" d="m53.67,29.15l-2.04,3.31"/>
    <path class="cls-1" d="m55.69,21.43c-.59,1.03-1.27,2-2.03,2.91"/>
    <path class="cls-1" d="m57.99,37.19l-1.03,1.95"/>
    <path class="cls-1" d="m59.61,38.27l-1.02,2.43"/>
    <path class="cls-1" d="m41.42,3.65c-.2.62-.42,1.23-.68,1.82"/>
    <path class="cls-1" d="m42.39,5.41c-.14,1.05-.37,2.1-.68,3.11"/>
    <path class="cls-1" d="m44.2,6.85c-.64,2.65-1.36,5.27-2.15,7.88"/>
    <path class="cls-1" d="m45.51,9.14c-.35,1.33-.8,2.64-1.33,3.91"/>
    <path class="cls-1" d="m47.61,11.3c-.37,1-.77,1.98-1.2,2.96"/>
    <path class="cls-1" d="m45.48,8.18c.14.04.14.24.11.38-.11.5-.22,1.01-.33,1.51"/>
    <path class="cls-1" d="m44.76,7.98l-.49,1.96"/>
    <path class="cls-1" d="m43.39,6.09l-.42,1.69"/>
    <path class="cls-1" d="m42.64,4.8l-.34,1.69"/>
    <path class="cls-1" d="m41.76,3.85l-.59,2.3"/>
    <path class="cls-1" d="m40.71,2.98c-.17.68-.39,1.36-.64,2.02"/>
    <path class="cls-1" d="m39.13,1.96l-.73,2.64"/>
    <path class="cls-1" d="m76.13,42.6c-.15,1.19-.48,2.35-.97,3.44"/>
    <path class="cls-1" d="m77.65,43.07c.1,1.55-.69,3-1.46,4.35"/>
    <path class="cls-1" d="m78.72,43.62c-.4,1.42-.98,2.78-1.72,4.05"/>
    <path class="cls-1" d="m79.76,45.03c-.37,1.38-.94,2.71-1.69,3.92"/>
    <path class="cls-1" d="m80.78,45.91c-.35,1.23-.85,2.41-1.48,3.52"/>
    <path class="cls-1" d="m81.08,47.88c-.18.76-.5,1.49-.94,2.14"/>
    <path class="cls-1" d="m81.81,49.04c-.35.54-.75,1.06-1.18,1.53"/>
    <path class="cls-1" d="m76.5,40.77l-.71,2.17"/>
    <path class="cls-1" d="m77.74,41.25c-.23.88-.52,1.74-.89,2.57"/>
    <path class="cls-1" d="m79.1,42.2c-.47,1.8-1.22,3.52-2.22,5.08"/>
    <path class="cls-1" d="m76.74,41.57c-.39,1.69-1.22,3.27-2.39,4.54"/>
    <path class="cls-1" d="m78.81,42.26c-.61,2.16-1.71,4.18-3.19,5.87"/>
    <path class="cls-1" d="m80.23,43.88c-.51,1.83-1.41,3.56-2.61,5.03"/>
    <path class="cls-1" d="m81.13,45.71c.04.75-.38,1.45-.78,2.09-.36.57-.71,1.13-1.07,1.7"/>
    <path class="cls-1" d="m81.45,48.21c-.14.6-.4,1.18-.75,1.69"/>
    <path class="cls-1" d="m82.65,48.61c-.16.88-.53,1.72-1.05,2.45"/>
    <path class="cls-1" d="m51.3,87.71c1.02-.88,1.89-1.95,2.55-3.13"/>
    <path class="cls-1" d="m53.36,87.73c.87-1.08,1.7-2.19,2.47-3.34"/>
    <path class="cls-1" d="m55.26,87.52c1.03-1.46,2.02-2.95,2.97-4.47"/>
    <path class="cls-1" d="m57.32,87.23c.63-1.26,1.38-2.46,2.22-3.59"/>
    <path class="cls-1" d="m60.63,83.98c-.78,1.3-1.59,2.59-2.44,3.85.87-1.24,1.45-2.71,2.44-3.85Z"/>
    <path class="cls-1" d="m59.36,87.79c.95-1.01,1.87-2.06,2.75-3.13"/>
    <path class="cls-1" d="m60.02,88.25c.09.07.22-.02.3-.11.85-.95,1.69-1.92,2.52-2.89"/>
    <path class="cls-1" d="m61.19,88.54c1-.96,1.96-1.96,2.89-3"/>
    <path class="cls-1" d="m61.93,89.08c-.05-.01-.05.09,0,.11s.1-.03.14-.07c.91-.91,1.78-1.85,2.63-2.82"/>
    <path class="cls-1" d="m62.53,89.97c.34-.17.61-.45.87-.73.8-.86,1.61-1.72,2.41-2.58"/>
    <path class="cls-1" d="m63.62,90.49c.93-.83,1.82-1.7,2.67-2.6"/>
    <path class="cls-1" d="m64.71,91.31l2.52-2.55"/>
    <path class="cls-1" d="m65.71,91.97c.79-.98,1.69-1.87,2.69-2.65"/>
    <path class="cls-1" d="m66.57,92.51c-.06,0-.04.11.01.12s.11-.03.15-.06c.82-.7,1.6-1.45,2.33-2.25"/>
    <path class="cls-1" d="m67.51,93.51c.66-.91,1.5-1.69,2.45-2.29"/>
    <path class="cls-1" d="m68.33,94.09s0,.1.05.11.09-.03.13-.07c.77-.75,1.55-1.49,2.32-2.24"/>
    <path class="cls-1" d="m69.25,94.84c.99-.81,1.88-1.74,2.64-2.77"/>
    <path class="cls-1" d="m70.03,95.48c.07.07.19,0,.26-.07.71-.69,1.4-1.4,2.08-2.12"/>
    <path class="cls-1" d="m70.91,96.36l2.36-2.38"/>
    <path class="cls-1" d="m71.66,97.45c.84-.89,1.71-1.76,2.61-2.59"/>
    <path class="cls-1" d="m72.74,98.13c.97-.76,1.86-1.62,2.63-2.58"/>
    <path class="cls-1" d="m47.1,87.69c.68-.7,1.4-1.36,2.17-1.95"/>
    <path class="cls-1" d="m48.36,87.89c.94-.76,1.84-1.59,2.69-2.46"/>
    <path class="cls-1" d="m49.88,88.21c.72-.29,1.18-.98,1.6-1.64.45-.71.9-1.41,1.35-2.12"/>
    <path class="cls-1" d="m50,84.51c.67-.88,1.28-1.8,1.84-2.76"/>
    <path class="cls-1" d="m52.8,82.17c.61-.85,1.16-1.74,1.65-2.66"/>
    <path class="cls-1" d="m54.15,77.71l2.29-2.98"/>
    <path class="cls-1" d="m57.16,78.7c.47-1.11.98-2.22,1.51-3.3"/>
    <path class="cls-1" d="m61.69,88.41s-.07.02-.04-.02.1-.03.14-.07c.89-.8,1.78-1.6,2.68-2.4"/>
    <path class="cls-1" d="m62.79,89.25c.77-.96,1.6-1.86,2.5-2.71"/>
    <path class="cls-1" d="m63.57,89.75c1.22-.75,2.73-1.45,3.76-2.44-1.23,1.04-2.38,2.18-3.44,3.39"/>
    <path class="cls-1" d="m64.81,90.68c1.22-.4,1.89-1.68,2.91-2.46"/>
    <path class="cls-1" d="m66.2,91.72c1.26-1.11,2.47-2.26,3.65-3.45"/>
    <path class="cls-1" d="m59.82,87.91c.65-.78,1.26-1.6,1.82-2.44"/>
    <path class="cls-1" d="m55.96,87.5l2.24-3.24"/>
    <path class="cls-1" d="m57.78,87.56c.64-1.27,1.3-2.53,1.98-3.77"/>
    <path class="cls-1" d="m54.47,87.29c.04-.21.15-.4.25-.59,1.08-1.94,2.16-3.87,3.23-5.81"/>
    <path class="cls-1" d="m63.8,87.63c-.11-.26.07-.54.24-.76,1.19-1.55,2.47-3.03,3.83-4.44"/>
    <path class="cls-1" d="m66.97,93.09l3.65-3.66"/>
    <path class="cls-1" d="m69.21,94.46c.99-1.08,2.02-2.13,3.1-3.12"/>
    <path class="cls-1" d="m70.12,95.23c1.25-1.39,2.63-2.66,4.11-3.8"/>
    <path class="cls-1" d="m71.77,96.27c1.21-1.05,2.43-2.07,3.67-3.09"/>
    <path class="cls-1" d="m73.82,98.73c.96-1.09,1.97-2.13,3.02-3.13"/>
    <path class="cls-1" d="m74.83,99.67c1.07-.94,2.1-1.92,3.09-2.93"/>
    <path class="cls-1" d="m80.37,99.6c-1.2.34-2.42.64-3.65.89"/>
    <path class="cls-1" d="m77.4,101.96c1.18-.09,2.36-.28,3.51-.55"/>
    <path class="cls-1" d="m76.44,100.3c1.68-.41,3.25-1.24,4.53-2.4"/>
    <path class="cls-1" d="m76.85,99.46c-.09.03-.17.11-.22.2.36-.03.67-.24.96-.45,1.47-1.04,2.89-2.15,4.25-3.34"/>
    <path class="cls-1" d="m47.57,86.88c-.05.04-.13-.02-.13-.09s.04-.12.09-.17c.59-.69,1.18-1.38,1.77-2.08"/>
    <path class="cls-1" d="m51.46,84.81c.66-1.1,1.25-2.24,1.79-3.4"/>
    <path class="cls-1" d="m33.35,82.02l.43-3.79"/>
    <path class="cls-1" d="m34.02,81.01c.27-1.7.39-3.42.37-5.14"/>
    <path class="cls-1" d="m35.73,76.41l-.31,3.92c.21-.19.68-.18.72-.46.22-1.41.35-2.84.4-4.27"/>
    <path class="cls-1" d="m37.12,79.85c-.18-2.17.1-4.38.83-6.43"/>
    <path class="cls-1" d="m38.44,79.52c.03-2.33.56-4.66,1.53-6.78"/>
    <path class="cls-1" d="m39.4,78.71c.44-1.4.95-2.78,1.55-4.13"/>
    <path class="cls-1" d="m40.62,78.91c.36-1.06.84-2.08,1.41-3.04"/>
    <path class="cls-1" d="m40.74,79.38c.61-1.09,1.26-2.15,1.95-3.18"/>
    <path class="cls-1" d="m41.77,80.34l2.08-3.06"/>
    <path class="cls-1" d="m42.23,81c.54-1.03,1.15-2.03,1.82-2.98"/>
    <path class="cls-1" d="m44.12,79.99c-.69,1.18-1.24,2.43-1.66,3.73"/>
    <path class="cls-1" d="m42.75,84.78c.5-1.27,1.08-2.5,1.73-3.7"/>
    <path class="cls-1" d="m41.99,81.67l1.15-4.45"/>
    <path class="cls-1" d="m40.54,79.32c-.17-.11-.14-.37-.1-.56.28-1.25.58-2.51.88-3.76"/>
    <path class="cls-1" d="m39.28,78.49c.35-1.81.96-3.56,1.81-5.2"/>
    <path class="cls-1" d="m43.14,84.98c.46-1.04,1.07-2.02,1.81-2.88"/>
    <path class="cls-1" d="m44.88,86.42c.25-.67.53-1.33.86-1.97"/>
    <path class="cls-1" d="m45.7,77.7c.36-.89.78-1.75,1.27-2.58"/>
    <path class="cls-1" d="m44.54,74.45c.52-.92,1.13-1.78,1.82-2.57"/>
    <path class="cls-1" d="m43.01,74.3c.55-1.29,1.25-2.5,2.09-3.62"/>
    <path class="cls-1" d="m42.27,72.2c.76-2.01,1.75-3.94,2.96-5.72"/>
    <path class="cls-1" d="m109.04,60.72l-1.19,1.78"/>
    <path class="cls-1" d="m109.86,61.53l-1.37,2.22"/>
    <path class="cls-1" d="m111.13,62.41c-.52.94-.97,1.91-1.34,2.91"/>
    <path class="cls-1" d="m112.01,62.95l-1.09,2.97"/>
    <path class="cls-1" d="m113.21,63.95c-.52.96-1.01,1.93-1.46,2.92"/>
    <path class="cls-1" d="m113.97,64.5c-.23.8-.39,1.61-.48,2.44"/>
    <path class="cls-1" d="m114.78,65.05c-.17.98-.19,1.99-.07,2.98"/>
    <path class="cls-1" d="m115.42,65.38c.18.71.27,1.44.27,2.17"/>
    <path class="cls-1" d="m116.22,65.18c.21.62.37,1.25.47,1.9"/>
    <path class="cls-1" d="m117.17,65.04c.27.59.49,1.21.66,1.83"/>
    <path class="cls-1" d="m118.27,67.75c-.19,1.48-.22,2.98-.1,4.47"/>
    <path class="cls-1" d="m121.48,69.31c.21,1.14.3,2.29.27,3.45"/>
    <path class="cls-1" d="m116.14,69.92l.07,3.11"/>
    <path class="cls-1" d="m111.7,46.93c-1.36-1.62-2.22-3.66-2.44-5.77"/>
    <path class="cls-1" d="m112.57,46.87c-.94-1.17-1.55-2.6-1.74-4.09"/>
    <path class="cls-1" d="m113.48,46.76c-.67-.91-1.13-1.97-1.34-3.08"/>
    <path class="cls-1" d="m114.18,47.04c-.64-1.48-1.17-3.01-1.56-4.57"/>
    <path class="cls-1" d="m115.14,46.54c.07,0,.04.13-.03.12s-.11-.08-.14-.14c-.57-1.26-.99-2.59-1.25-3.95"/>
    <path class="cls-1" d="m114.69,42.27c.1,1.68.61,3.33,1.46,4.78.04.06.09.13.16.11s0-.15-.03-.09c-.47-1.42-1.28-3.34-1.58-4.8Z"/>
    <path class="cls-1" d="m117.13,46.62l-.63-2.64"/>
    <path class="cls-1" d="m117.88,46.41l-.4-2.83"/>
    <path class="cls-1" d="m118.55,45.31c-.12-.54-.2-1.08-.25-1.63"/>
    <path class="cls-1" d="m119.58,45.61c-.12-.74-.18-1.48-.19-2.23"/>
    <path class="cls-1" d="m120.3,45c.02-1.18-.08-2.37-.3-3.54"/>
    <path class="cls-1" d="m121.45,44.44l-.07-.69c-.06-.56-.11-1.12-.18-1.68-.21-1.67-.56-3.33-1.03-4.94"/>
    <path class="cls-1" d="m107.3,44.99c.21,1.06,1.05,1.97,2.09,2.26"/>
    <path class="cls-1" d="m108.36,47.68c-.64-.27-1.15-.82-1.37-1.48"/>
    <path class="cls-1" d="m107.57,48.47c-.59-.19-1.12-.56-1.5-1.05"/>
    <path class="cls-1" d="m106.52,49.49c-.71-.74-1.21-1.68-1.44-2.68"/>
    <path class="cls-1" d="m111.01,29.14l.9-3.24"/>
    <path class="cls-1" d="m112.8,27.11l-1.07,2.34"/>
    <path class="cls-1" d="m113.56,27.83c-.22.82-.5,1.63-.84,2.41"/>
    <path class="cls-1" d="m114.12,28.73c-.24.78-.56,1.54-.96,2.24"/>
    <path class="cls-1" d="m109.42,24.09c-.05.96-.34,1.9-.82,2.73"/>
    <path class="cls-1" d="m110.74,24.4c-.23.94-.59,1.86-1.06,2.71"/>
    <path class="cls-1" d="m111.55,25.41c-.22.89-.51,1.76-.87,2.61"/>
    <path class="cls-1" d="m113.37,27.04l-.96,1.79"/>
    <path class="cls-1" d="m114.66,27.33l-.71,1.82"/>
    <path class="cls-1" d="m115.97,27.83c-.19.63-.34,1.27-.43,1.91"/>
    <path class="cls-1" d="m116.78,27.83c-.05.54-.02,1.09.08,1.62"/>
    <path class="cls-1" d="m117.86,28.03l.12.91"/>
    <path class="cls-1" d="m93.33,24.29c-.61,1.43-1.32,2.81-2.11,4.15"/>
    <path class="cls-1" d="m93.62,26.11c-.3,2.35-1.25,4.61-2.7,6.47"/>
    <path class="cls-1" d="m94.98,27.53c-.57,1.66-1.62,3.02-2.68,4.41.83-1.11,1.52-2.33,2.05-3.61"/>
    <path class="cls-1" d="m95.65,28.63c-.49,1.89-1.34,3.69-2.47,5.29"/>
    <path class="cls-1" d="m97.29,28.84c-.66,1.99-1.59,3.89-2.77,5.63"/>
    <path class="cls-1" d="m98.43,29.76c-.44,1.54-1.26,2.97-2.35,4.14"/>
    <path class="cls-1" d="m99.62,30.36c-.25,1.26-.82,2.45-1.63,3.43"/>
    <path class="cls-1" d="m94.44,27.52l-1.63,3.33"/>
    <path class="cls-1" d="m96.49,28.95c-.63,1.57-1.38,3.08-2.23,4.54"/>
    <path class="cls-1" d="m92.64,24.3l-1.22,1.91"/>
    <path class="cls-1" d="m92.33,23.08c-.49.9-1.06,1.75-1.71,2.53"/>
    <path class="cls-1" d="m91.11,22.57l-1.4,1.93"/>
    <path class="cls-1" d="m100.23,29.44c-.08.98-.37,1.95-.83,2.82"/>
    <path class="cls-1" d="m101.92,29.54c-.34,1.08-.78,2.13-1.3,3.14"/>
    <path class="cls-1" d="m76.11,38.21c.34.94.46,1.95.35,2.94"/>
    <path class="cls-1" d="m77.61,39.85l-.32,2.72"/>
    <path class="cls-1" d="m78.68,22.58l.24,1.31"/>
    <path class="cls-1" d="m79.48,21.87l.13,1.31"/>
    <path class="cls-1" d="m80.51,21.06l.17,1.42"/>
    <path class="cls-1" d="m81.63,20.76c-.05.64-.03,1.29.08,1.92"/>
    <path class="cls-1" d="m82.53,20.56v1.92"/>
    <path class="cls-1" d="m83.64,21.36v1.01"/>
    <path class="cls-1" d="m85,20.35l.11,2.33"/>
    <path class="cls-1" d="m106.22,51.09c-.39.61-.82,1.21-1.26,1.79"/>
    <path class="cls-1" d="m106.29,53.5l-1.98,2.89"/>
    <path class="cls-1" d="m106.37,55.2c-.59.82-1.1,1.7-1.52,2.62"/>
    <path class="cls-1" d="m107.15,56.9l-1.68,2.45"/>
    <path class="cls-1" d="m107.56,58.21c-.73.94-1.41,1.91-2.04,2.92"/>
    <path class="cls-1" d="m107.88,59.64l-1.53,2.82"/>
    <path class="cls-1" d="m108.65,60.52c-.72,1.03-1.36,2.12-1.9,3.25"/>
    <path class="cls-1" d="m109.6,61.56c-.7.97-1.28,2.02-1.72,3.13"/>
    <path class="cls-1" d="m110.42,62.68c-.69.92-1.25,1.94-1.66,3.01"/>
    <path class="cls-1" d="m111.87,63.1c-.67,1.29-1.26,2.62-1.74,3.99"/>
    <path class="cls-1" d="m112.92,63.98c-.42.89-.78,1.8-1.08,2.74"/>
    <path class="cls-1" d="m114.03,64.59c-.52,1.45-.92,2.94-1.21,4.45"/>
    <path class="cls-1" d="m115.73,65.19l-1.11,3.84"/>
    <path class="cls-1" d="m103.95,65.21c-.53.52-1,1.09-1.43,1.7"/>
    <path class="cls-1" d="m102.62,62.16l-1.2,1.42"/>
    <path class="cls-1" d="m102.14,59.45l-1.23,1.6"/>
    <path class="cls-1" d="m105.85,50.64c-.83.57-1.75,1.03-2.71,1.34"/>
    <path class="cls-1" d="m103.14,50.77l2.72-.83c-.71-.03-2.01.86-2.72.83Z"/>
    <path class="cls-1" d="m146.31,70.92c-1.53,1.09-3.27,1.89-5.1,2.35"/>
    <path class="cls-1" d="m144.54,74.27c-1.47.22-2.96.29-4.44.21"/>
    <path class="cls-1" d="m143.64,75.45l-4.04.25"/>
    <path class="cls-1" d="m143.63,77.29c-1.33.24-2.68.35-4.04.33"/>
    <path class="cls-1" d="m143.44,78.68c-1.11-.11-2.23-.09-3.34.05"/>
    <path class="cls-1" d="m143.33,76.79l-2.83.12"/>
    <path class="cls-1" d="m143.84,75.52c-.79.21-1.63.23-2.43.06"/>
    <path class="cls-1" d="m144.75,73.27c-.94-.14-1.92-.07-2.83.2"/>
    <path class="cls-1" d="m144.25,76.85c-.57.1-1.17.05-1.72-.15"/>
    <path class="cls-1" d="m144.44,78.86c-.81-.08-1.1-.73-1.91-.81.67-.29,1.38-.48,2.11-.55"/>
    <path class="cls-1" d="m144.34,79.54c-1.05.28-2.15.37-3.23.29"/>
    <path class="cls-1" d="m144.33,81c-1.15.31-2.38.31-3.54,0"/>
    <path class="cls-1" d="m144.95,81.86c-1.28.51-2.66.79-4.04.82"/>
    <path class="cls-1" d="m145.03,83.02c-1.26.54-2.65.79-4.02.73"/>
    <path class="cls-1" d="m145.14,84.25c-1.29.39-2.6.71-3.92.97"/>
    <path class="cls-1" d="m145.68,84.94c-1.39.57-2.75,1.22-4.07,1.94"/>
    <path class="cls-1" d="m145.86,86.11c-1.42.55-2.79,1.25-4.07,2.07"/>
    <path class="cls-1" d="m145.86,87.11c-1.28.74-2.59,1.43-3.92,2.06"/>
    <path class="cls-1" d="m144.53,83.54c-1.22.28-2.43.6-3.62.96"/>
    <path class="cls-1" d="m143.34,79.88l-4.55.48"/>
    <path class="cls-1" d="m137.98,78.87c-1.38.13-2.76.21-4.15.24"/>
    <path class="cls-1" d="m139.29,75.99l-4.24.12"/>
    <path class="cls-1" d="m140,74.47l-3.84.32"/>
    <path class="cls-1" d="m139.69,73.66c2.29-.73,4.45-1.86,6.36-3.33-2.15.92-4.21,2.4-6.36,3.33Z"/>
    <path class="cls-1" d="m145.16,72.69c-1.65.88-3.37,1.64-5.14,2.26"/>
    <path class="cls-1" d="m144.53,74.45c-1.57.35-3.12.81-4.62,1.39"/>
    <path class="cls-1" d="m144.34,75.9c-1.48.4-2.94.9-4.36,1.49"/>
    <path class="cls-1" d="m144.32,77.17c-1.37.67-2.78,1.26-4.21,1.78"/>
    <path class="cls-1" d="m144.01,78.78l-4.11,2.18"/>
    <path class="cls-1" d="m138.99,77.13l-2.93,1.01"/>
    <path class="cls-1" d="m140.29,78.6l-2.92.65"/>
    <path class="cls-1" d="m140.7,80.53c-1.05.48-2.12.89-3.22,1.24"/>
    <path class="cls-1" d="m153.1,48.3c.45-.42.8-.94,1.03-1.51.03-.07.05-.17-.01-.21s-.15.09-.07.09c-.13.6-.53,1.18-.95,1.63Z"/>
    <path class="cls-1" d="m155.38,47.03c-.24.67-.56,1.31-.96,1.9"/>
    <path class="cls-1" d="m156.11,47.35c-.4.79-.9,1.52-1.49,2.18"/>
    <path class="cls-1" d="m156.97,47.01c.09-.01.18.03.22.11-.52,1.28-1.24,2.48-2.13,3.54"/>
    <path class="cls-1" d="m157.85,47.52c-.27,1.23-1,2.36-2.01,3.12"/>
    <path class="cls-1" d="m158.67,51.75c.52-.36.88-.96.94-1.6"/>
    <path class="cls-1" d="m155.04,47.01c-.74,1.1-1.54,2.15-2.41,3.14"/>
    <path class="cls-1" d="m156.18,47.43c.24,0,.24.38.14.6-.45.98-1.09,1.87-1.88,2.61"/>
    <path class="cls-1" d="m157.9,47.2c.16.21.05.51-.08.75-.51.94-1.14,1.82-1.88,2.6"/>
    <path class="cls-1" d="m157.75,51.44c.77-.84,1.32-1.89,1.59-3"/>
    <path class="cls-1" d="m159.7,49.85c-.33.83-.79,1.6-1.34,2.3"/>
    <path class="cls-1" d="m158.83,47.74c-.57,1.38-1.46,2.62-2.58,3.6"/>
    <path class="cls-1" d="m154.13,46.77c.06.02.08-.1.02-.12s-.12.01-.18.05c-.65.44-1.3.89-1.95,1.33"/>
    <path class="cls-1" d="m153.22,45.59c-.55.21-1.05.56-1.43,1.01"/>
    <path class="cls-1" d="m154.63,47.21l-2.12,2.73"/>
    <path class="cls-1" d="m156.69,47.94c-.59.84-1.25,1.65-1.95,2.4"/>
    <path class="cls-1" d="m158.71,48.85c-.59,1.02-1.33,1.96-2.18,2.77"/>
    <path class="cls-1" d="m159.4,51.06c-.64.83-1.4,1.58-2.23,2.21"/>
    <path class="cls-1" d="m159.18,53.27l-1.84,1.49"/>
    <path class="cls-1" d="m158.68,54.89l-2.3,1.74"/>
    <path class="cls-1" d="m143.83,38.12c.67-.73,1.25-1.55,1.72-2.42-.56,1.04-.9,1.57-1.72,2.42Z"/>
    <path class="cls-1" d="m146.94,36.45c-.5,1.03-1.2,1.96-2.04,2.74"/>
    <path class="cls-1" d="m145.22,33.15c-.32,1.27-.9,2.48-1.71,3.52"/>
    <path class="cls-1" d="m145.01,32.57c-.23,1.1-.66,2.15-1.27,3.08"/>
    <path class="cls-1" d="m145.38,34.47l-1.28,2.42"/>
    <path class="cls-1" d="m145.68,35.29c-.33,1.06-.8,2.08-1.39,3.03"/>
    <path class="cls-1" d="m146.14,36.34c-.44,1.02-1,1.99-1.66,2.89"/>
    <path class="cls-1" d="m146.81,37.19c-.25.93-.68,1.81-1.27,2.57"/>
    <path class="cls-1" d="m147.63,37.88c-.21.65-.57,1.26-1.04,1.76"/>
    <path class="cls-1" d="m148.15,38.43c-.13.43-.32.85-.56,1.23"/>
    <path class="cls-1" d="m148.68,38.9l-.66.73"/>
    <path class="cls-1" d="m144.69,31.18c-.17.65-.38,1.29-.63,1.91"/>
    <path class="cls-1" d="m125,29.6c-.06,0-.09-.08-.05-.13s.09-.07.15-.08c.84-.24,1.68-.47,2.52-.71"/>
    <path class="cls-1" d="m124.02,28.82c.46-.29,1.01-.43,1.55-.4"/>
    <path class="cls-1" d="m125.2,30.82c.86-.56,1.83-.94,2.83-1.12"/>
    <path class="cls-1" d="m125.56,31.44c1.37-.77,2.8-1.44,4.27-2"/>
    <path class="cls-1" d="m125.56,31.99c1.66-.73,3.34-1.42,5.03-2.06"/>
    <path class="cls-1" d="m126.22,33.18c1.36-.77,2.82-1.36,4.33-1.76"/>
    <path class="cls-1" d="m126.35,34.56c1.11-.53,2.25-1,3.42-1.39"/>
    <path class="cls-1" d="m126.27,35.68c1.21-.53,2.45-1.01,3.7-1.42"/>
    <path class="cls-1" d="m45.89,139.51c.27-.19.49-.45.69-.71,1.07-1.35,2.02-2.79,2.83-4.31"/>
    <path class="cls-1" d="m47.36,139.1c1.43-1.88,2.68-3.91,3.7-6.05"/>
    <path class="cls-1" d="m48.98,138.47c1.56-1.79,2.71-3.93,3.35-6.22"/>
    <path class="cls-1" d="m50.86,137.02c1.42-1.84,2.61-3.86,3.55-5.98"/>
    <path class="cls-1" d="m52.19,136.55c1.43-1.81,2.72-3.73,3.85-5.74"/>
    <path class="cls-1" d="m54.05,135.66c-.06-.03-.03-.12,0-.17,1.08-1.55,2.17-3.1,3.25-4.66"/>
    <path class="cls-1" d="m55.31,135.06c.77-1.25,1.68-2.41,2.71-3.45"/>
    <path class="cls-1" d="m56.23,135.46c1.12-1.41,2.2-2.85,3.24-4.32"/>
    <path class="cls-1" d="m57.5,135.61c1.13-1.53,2.26-3.05,3.38-4.59"/>
    <path class="cls-1" d="m58.65,135.57c.99-1.52,2.11-2.95,3.35-4.28"/>
    <path class="cls-1" d="m60.09,135.49l-.14.07c1.14-1.34,2.27-2.68,3.41-4.02"/>
    <path class="cls-1" d="m61.09,136.05s-.06.04-.07.01.01-.07.04-.1c.97-1.16,1.95-2.31,2.92-3.47"/>
    <path class="cls-1" d="m61.88,136.6c.78-1.39,2.09-2.43,2.85-3.83"/>
    <path class="cls-1" d="m62.53,137.82l2.39-2.85"/>
    <path class="cls-1" d="m63.8,137.9l1.69-2.03"/>
    <path class="cls-1" d="m48.6,138.36c.69-.91,1.32-1.86,1.88-2.84"/>
    <path class="cls-1" d="m50.13,137.86c.57-1.38,1.24-2.73,1.99-4.02"/>
    <path class="cls-1" d="m51.98,136.38c.5-1.31,1.18-2.55,2.02-3.67"/>
    <path class="cls-1" d="m53.47,136.03c.68-1.41,1.49-2.77,2.41-4.03"/>
    <path class="cls-1" d="m54.95,135.31c.61-1.41,1.48-2.72,2.55-3.82"/>
    <path class="cls-1" d="m56.22,135.46c.84-1.57,1.79-3.07,2.86-4.49"/>
    <path class="cls-1" d="m57.59,135.19c.69-1.39,1.54-2.7,2.55-3.89"/>
    <path class="cls-1" d="m59.24,135.48c0-.24.12-.46.25-.66.66-1.05,1.32-2.09,2-3.12"/>
    <path class="cls-1" d="m60.25,135.46c-.08-.03-.06-.14-.02-.21.54-1.07,1.21-2.07,2-2.97.09-.11.19-.21.32-.27"/>
    <path class="cls-1" d="m60.96,136.08c.6-1.1,1.31-2.13,2.12-3.08"/>
    <path class="cls-1" d="m61.98,136.54c.36-.76.79-1.49,1.29-2.17.12-.17.28-.35.48-.36"/>
    <path class="cls-1" d="m62.88,137.05c.44-.84.92-1.67,1.43-2.47"/>
    <path class="cls-1" d="m44.98,139.37c.73-.76,1.41-1.57,2.02-2.43"/>
    <path class="cls-1" d="m44.08,139.03c.39-.63.73-1.29,1.01-1.98"/>
    <path class="cls-1" d="m42.88,138.58c.25-.54.53-1.07.85-1.58"/>
    <path class="cls-1" d="m64.15,138.3c-.13.03-.22.17-.19.3.73-.77,1.46-1.55,2.18-2.32"/>
    <path class="cls-1" d="m64.49,138.82c.75-.53,1.43-1.17,2.02-1.88"/>
    <path class="cls-1" d="m65.18,138.83c.63-.5,1.24-1.02,1.83-1.56"/>
    <path class="cls-1" d="m65.51,139.21c.64-.69,1.33-1.34,2.07-1.94"/>
    <path class="cls-1" d="m65.95,139.53c.71-.57,1.44-1.12,2.19-1.64"/>
    <path class="cls-1" d="m66.82,139.91c.69-.55,1.36-1.13,2-1.73"/>
    <path class="cls-1" d="m67.67,140.87c.77-.64,1.5-1.32,2.19-2.04"/>
    <path class="cls-1" d="m68.32,141.06c-.07.03-.11.11-.1.19.57-.11,1.03-.51,1.42-.93s.75-.89,1.23-1.22"/>
    <path class="cls-1" d="m69.9,142.08c-.1.02-.19.08-.24.17.11.09.28.03.41-.03.89-.43,1.55-1.21,2.18-1.97"/>
    <path class="cls-1" d="m71.25,142.86c.56-.39,1.07-.84,1.52-1.35"/>
    <path class="cls-1" d="m72.96,143.63c.74-.47,1.26-1.23,1.74-1.96.6-.92,1.19-1.85,1.75-2.8"/>
    <path class="cls-1" d="m74.34,143.08s-.02.07.01.08.07,0,.1-.03c.82-.48,1.52-1.16,2.02-1.97"/>
    <path class="cls-1" d="m72.3,143.22c.14.15.39.02.55-.12.62-.56,1.18-1.19,1.67-1.87"/>
    <path class="cls-1" d="m74.07,143.41c.39.07.72-.26.96-.58.41-.55.79-1.12,1.11-1.73"/>
    <path class="cls-1" d="m76.62,142.82c.56-.59,1.03-1.26,1.39-1.99"/>
    <path class="cls-1" d="m78.51,141.62c.32-.71.66-1.4,1.03-2.08"/>
    <path class="cls-1" d="m61.09,129.44l1.81-2.48"/>
    <path class="cls-1" d="m64.41,129.94c.45-.74.95-1.45,1.49-2.13"/>
    <path class="cls-1" d="m58.84,128.88c.55-.79,1.16-1.54,1.81-2.25"/>
    <path class="cls-1" d="m57.25,130.28l.48-.48"/>
    <path class="cls-1" d="m39.39,136.27c.62-.13,1.23-.34,1.81-.62"/>
    <path class="cls-1" d="m39.12,135.68c.62-.09,1.22-.31,1.75-.65"/>
    <path class="cls-1" d="m38.44,134.89c.57-.12,1.12-.32,1.63-.59"/>
    <path class="cls-1" d="m37.7,134.14c1.26-.18,2.49-.53,3.66-1.03"/>
    <path class="cls-1" d="m37.25,132.69c1.16-.08,2.31-.42,3.32-.99"/>
    <path class="cls-1" d="m36.74,132.04c1.14-.25,2.25-.61,3.33-1.07"/>
    <path class="cls-1" d="m36.63,131.09c1.25-.23,2.48-.57,3.67-1.02"/>
    <path class="cls-1" d="m36.18,129.8c1-.17,1.98-.43,2.94-.78"/>
    <path class="cls-1" d="m36.07,129.17c.53-.28,1.1-.5,1.69-.63"/>
    <path class="cls-1" d="m35.39,127.73l2.37-.47"/>
    <path class="cls-1" d="m35.28,126.58l1.8-.23"/>
    <path class="cls-1" d="m34.71,125.36c.76-.19,1.54-.35,2.32-.46"/>
    <path class="cls-1" d="m34.32,124.08l2.54-.2"/>
    <path class="cls-1" d="m34.09,122.92l2.54-.18"/>
    <path class="cls-1" d="m33.8,121.79c1.1-.16,2.22-.25,3.33-.26"/>
    <path class="cls-1" d="m33.97,120.49c1.07-.13,2.14-.18,3.22-.14"/>
    <path class="cls-1" d="m33.81,119.11c1.05-.13,2.1-.17,3.16-.12"/>
    <path class="cls-1" d="m34.54,117.95c-.11-.09-.13-.26-.05-.37.94.05,1.88.07,2.83.05"/>
    <path class="cls-1" d="m35.28,116.55h2.54"/>
    <path class="cls-1" d="m36.6,115.19c.05-.29.41-.41.7-.44.6-.07,1.21-.09,1.81-.04"/>
    <path class="cls-1" d="m34.64,126.14c.43-.18.9-.28,1.37-.28"/>
    <path class="cls-1" d="m34.94,127.1c.62.05,1.24.06,1.86.03"/>
    <path class="cls-1" d="m35.39,126.74c.16.13.39.11.59.08,1.37-.18,2.73-.38,4.09-.61"/>
    <path class="cls-1" d="m34.32,124.23c1.52.08,3.06.01,4.57-.19"/>
    <path class="cls-1" d="m34.49,121.85l4.57-.18"/>
    <path class="cls-1" d="m34.77,120.13c1.09.03,2.19-.02,3.27-.16"/>
    <path class="cls-1" d="m34.37,118.11l6.03-.09"/>
    <path class="cls-1" d="m36.23,116.13c.16-.14.4-.14.61-.12,1.43.09,2.87.17,4.3.26"/>
    <path class="cls-1" d="m38.09,114.33l3.78.15"/>
    <path class="cls-1" d="m39.68,136.29c.68-.27,1.31-.66,1.85-1.16"/>
    <path class="cls-1" d="m40.18,136.88c.83-.13,1.63-.45,2.32-.94"/>
    <path class="cls-1" d="m41.21,137.79c-.02.09.13.1.21.07.58-.23,1.11-.56,1.57-.98"/>
    <path class="cls-1" d="m38.27,112.3c.86.13,1.73.21,2.59.24"/>
    <path class="cls-1" d="m38.89,111.97l-.06.06c.93-.03,1.8-.15,2.71-.32"/>
    <path class="cls-1" d="m39,111.33c1.07,0,2.14-.18,3.15-.51"/>
    <path class="cls-1" d="m39.22,110.08c1.41.04,2.82.03,4.23-.05"/>
    <path class="cls-1" d="m39.79,109.55c1.63,0,3.26-.17,4.85-.5"/>
    <path class="cls-1" d="m40.74,108.37c1.43-.08,2.86-.1,4.29-.06"/>
    <path class="cls-1" d="m40.69,107.74c1.4.03,2.8-.11,4.17-.41"/>
    <path class="cls-1" d="m40.55,106.79l.55-.02c.42-.01.85-.03,1.27-.06.84-.06,1.68-.19,2.5-.39"/>
    <path class="cls-1" d="m41.03,105.12c1.45.04,2.9.02,4.34-.05"/>
    <path class="cls-1" d="m40.86,104.27c1.39.06,2.78.09,4.17.09"/>
    <path class="cls-1" d="m40.69,103.2c1.56.07,3.12.12,4.68.13"/>
    <path class="cls-1" d="m41.03,102.27c1.51-.05,3.03.07,4.51.35"/>
    <path class="cls-1" d="m42.26,100.99c1.01-.24,2.09-.16,3.05.22"/>
    <path class="cls-1" d="m39.77,107.88c.3.2.68.27,1.03.18"/>
    <path class="cls-1" d="m40.01,106.67l1.58.18"/>
    <path class="cls-1" d="m40.63,105.51c.48.15.97.23,1.47.25"/>
    <path class="cls-1" d="m40.35,105.91c1.71-.27,3.46-.33,5.19-.17"/>
    <path class="cls-1" d="m41.96,107.78c.1-.14.29-.16.46-.16,1.83-.07,3.66-.14,5.49-.2"/>
    <path class="cls-1" d="m41.81,105.67l5.08-.52"/>
    <path class="cls-1" d="m43.05,102.51c.98.23,1.99.34,2.99.33"/>
    <path class="cls-1" d="m43.56,99.69l1.53.26"/>
    <path class="cls-1" d="m44.58,98.83c.88-.02,1.76.12,2.59.4"/>
    <path class="cls-1" d="m38.15,112.49c.58.12,1.16.19,1.75.22"/>
    <path class="cls-1" d="m38.43,111.73s-.06-.05-.03-.08.07-.03.11-.03c.56.03,1.12.05,1.68.08"/>
    <path class="cls-1" d="m38.89,110.95l1.75.13"/>
    <path class="cls-1" d="m38.89,110.3c.77.05,1.54.07,2.31.07"/>
    <path class="cls-1" d="m39,109.52c.83.08,1.65.13,2.48.14"/>
    <path class="cls-1" d="m39.73,108.85c.66.04,1.32.04,1.98,0"/>
    <path class="cls-1" d="m39.96,108.01c.75.04,1.5.04,2.26.03"/>
    <path class="cls-1" d="m40.1,106.99c.81-.17,1.67.16,2.46-.07"/>
    <path class="cls-1" d="m40.41,105.94c.73.11,1.46.16,2.2.14"/>
    <path class="cls-1" d="m40.8,104.92c.59.13,1.2.18,1.81.14"/>
    <path class="cls-1" d="m40.86,103.81l2.2.05"/>
    <path class="cls-1" d="m91.83,123.06s-.04.09.01.08.07-.07.08-.12c.45-2.44.4-4.97-.15-7.39"/>
    <path class="cls-1" d="m92.73,121.41c-.08.13.13.27.26.2s.18-.23.21-.37c.53-2.41.53-4.95-.02-7.36"/>
    <path class="cls-1" d="m93.95,121.21c.04-.63.23-1.25.35-1.87.34-1.63.28-3.34-.17-4.95"/>
    <path class="cls-1" d="m95.2,120.65c.38-2.43.27-4.94-.33-7.33"/>
    <path class="cls-1" d="m96.07,119.99c.58-2.5.53-5.15-.16-7.62"/>
    <path class="cls-1" d="m97.28,119.18c.07-.66.25-1.31.36-1.97.22-1.35.12-2.76-.3-4.06"/>
    <path class="cls-1" d="m97.91,118.3c.1,0,.16-.11.19-.21.66-1.99.33-4.16,0-6.24"/>
    <path class="cls-1" d="m98.94,117.67c.95-2.33.61-4.96.26-7.45"/>
    <path class="cls-1" d="m100.24,116.76c.62-2.1.71-4.35.25-6.49"/>
    <path class="cls-1" d="m89.13,124.59c.23-1.47.33-2.96.3-4.45"/>
    <path class="cls-1" d="m90.18,123.58c.05-1.24.67-2.44.48-3.67"/>
    <path class="cls-1" d="m91.25,123.13c.31-1.52.25-3.12-.17-4.62"/>
    <path class="cls-1" d="m92.4,122.57c-.11-1.65-.14-3.31-.12-4.96"/>
    <path class="cls-1" d="m93.33,121.89c.13-1.56.15-3.12.08-4.68"/>
    <path class="cls-1" d="m94.18,121.38c.15-1.67.12-3.35-.11-5.02"/>
    <path class="cls-1" d="m95.37,120.25c.1-1.48.05-2.98-.15-4.45"/>
    <path class="cls-1" d="m96.09,119.74c.16-1.41.11-2.84-.13-4.23"/>
    <path class="cls-1" d="m96.8,119.58c.45-1.34.48-2.81.09-4.17"/>
    <path class="cls-1" d="m97.59,119.02c.42-1.17.52-2.45.26-3.67"/>
    <path class="cls-1" d="m98.49,118.4c.45-1.23.69-2.53.72-3.84"/>
    <path class="cls-1" d="m99.81,117.26c.44-1.24.66-2.56.65-3.88"/>
    <path class="cls-1" d="m86.57,126.4c-.01-.77-.05-1.55-.12-2.31"/>
    <path class="cls-1" d="m87.65,125.61c.3-1.12.44-2.28.42-3.44"/>
    <path class="cls-1" d="m84.07,128.77l.26-5.98"/>
    <path class="cls-1" d="m68.49,105.53c-.19-.08-.4,0-.58.1-.47.24-.94.49-1.39.77"/>
    <path class="cls-1" d="m69.11,105.59c-.65.09-1.25.5-1.56,1.09"/>
    <path class="cls-1" d="m69.56,106.1l-1.48,1.11"/>
    <path class="cls-1" d="m70.29,106.5c-.52.4-.97.9-1.31,1.46"/>
    <path class="cls-1" d="m70.85,107.23c-.46.3-.85.71-1.12,1.19"/>
    <path class="cls-1" d="m71.53,107.57c-.52.54-.99,1.12-1.41,1.75"/>
    <path class="cls-1" d="m72.26,108.13c-.62.5-1.09,1.2-1.32,1.97"/>
    <path class="cls-1" d="m72.72,108.54c-.73.73-1.24,1.68-1.44,2.69"/>
    <path class="cls-1" d="m72.97,108.9c-.4.75-.75,1.54-1.02,2.35-.07.2-.13.42-.04.61"/>
    <path class="cls-1" d="m73.74,109.15c-.5.87-.75,1.87-.73,2.87"/>
    <path class="cls-1" d="m74.28,109.6c-.22.88-.25,1.82-.07,2.71"/>
    <path class="cls-1" d="m74.91,109.83c.05.6.1,1.2.15,1.8.01.15.04.33.18.41"/>
    <path class="cls-1" d="m75.57,109.82c.17.74.35,1.48.55,2.22"/>
    <path class="cls-1" d="m76.42,109.54c.2.9.52,1.78.95,2.6"/>
    <path class="cls-1" d="m77.23,108.78c.62.72.82,1.71,1.37,2.48"/>
    <path class="cls-1" d="m78.21,108.21c.48.67,1.02,1.31,1.59,1.91"/>
    <path class="cls-1" d="m79.04,107.72l1.72.9"/>
    <path class="cls-1" d="m79.36,106.97l1.98.44"/>
    <path class="cls-1" d="m79.48,106.38c.64.06,1.29.01,1.92-.14"/>
    <path class="cls-1" d="m79.37,105.63c.66.09,1.36-.05,1.93-.39"/>
    <path class="cls-1" d="m78.92,104.34c.81,0,1.63-.14,2.38-.45"/>
    <path class="cls-1" d="m78.64,103.04c.79.11,1.62-.03,2.33-.38"/>
    <path class="cls-1" d="m78.29,102.25l2.82-.73"/>
    <path class="cls-1" d="m75.73,109.43c.25,1.69.52,3.38.81,5.07"/>
    <path class="cls-1" d="m77.05,109.15c.65,1.39,1.22,2.82,1.7,4.28"/>
    <path class="cls-1" d="m78.13,108.97c.88,1.01,1.79,2,2.72,2.97"/>
    <path class="cls-1" d="m78.41,108.17c1.31.3,2.59.73,3.82,1.28"/>
    <path class="cls-1" d="m78.92,106.97c1.23,0,2.45.09,3.66.28"/>
    <path class="cls-1" d="m79.75,104.41s-.03-.05.01-.06c.29-.09.59-.04.89,0,.87.14,1.74.27,2.6.41"/>
    <path class="cls-1" d="m66.4,104.13c-.19-.17-.48-.07-.71.04-.36.17-.71.35-1.06.54"/>
    <path class="cls-1" d="m67.81,104.7c-.67.02-1.34.24-1.88.64"/>
    <path class="cls-1" d="m68.49,105.83l-.62.28"/>
    <path class="cls-1" d="m63.13,101.94c-.43-.06-.88.08-1.19.38"/>
    <path class="cls-1" d="m63.98,102.5c-.61-.03-1.22.18-1.69.57"/>
    <path class="cls-1" d="m64.99,102.78c-.53.13-1.02.4-1.42.78"/>
    <path class="cls-1" d="m65.78,103.39c-.51.15-.98.48-1.29.91"/>
    <path class="cls-1" d="m59.92,100.35c-.29,0-.58.05-.85.16"/>
    <path class="cls-1" d="m60.93,100.85c-.44.08-.86.23-1.24.45"/>
    <path class="cls-1" d="m61.77,101.7l-.56.34"/>
    <path class="cls-1" d="m67.36,105.57c-.82.12-1.59.54-2.14,1.16"/>
    <path class="cls-1" d="m68.94,107.8c-.99.25-1.89.86-2.49,1.68"/>
    <path class="cls-1" d="m71.19,107.63c-.86.66-1.6,1.46-2.18,2.38"/>
    <path class="cls-1" d="m73.41,110.04c-.26,1.41-.4,2.85-.41,4.29"/>
    <path class="cls-1" d="m74.63,115.97c-.03.7-.01,1.39.05,2.09"/>
    <path class="cls-1" d="m77.73,117.27c0,.38.06.76.18,1.13"/>
    <path class="cls-1" d="m69.99,112.19c-.27.97-.39,1.98-.38,2.99"/>
    <path class="cls-1" d="m15.9,1.99c-.07.36-.11.73-.12,1.1"/>
    <path class="cls-1" d="m16.38,1.85l.09,1.25"/>
    <path class="cls-1" d="m17.1,1.71l.2,1.61"/>
    <path class="cls-1" d="m18.17,1.71c.13.53.22,1.06.25,1.6"/>
    <path class="cls-1" d="m19.13,1.25c.3.89.4,1.85.3,2.79"/>
    <path class="cls-1" d="m19.82,1.4c.31.6.43,1.31.34,1.98"/>
    <path class="cls-1" d="m20.68,1.15c.13.84.13,1.71-.02,2.55"/>
    <path class="cls-1" d="m21.84.98c.26,1.05.37,2.14.33,3.22"/>
    <path class="cls-1" d="m22.87,1.16c.31,1.49.38,3.03.2,4.55"/>
    <path class="cls-1" d="m23.74,1.19c.38.66.48,1.44.48,2.2s-.12,1.52-.12,2.28"/>
    <path class="cls-1" d="m25.04.82c.13.38.21.78.23,1.18.02.37-.02.75-.05,1.12-.03.28-.05.55-.08.83"/>
    <path class="cls-1" d="m26.19,1.02c.18.79.17,1.63-.03,2.42"/>
    <path class="cls-1" d="m27.25.78c.16.87.13,1.77-.08,2.63"/>
    <path class="cls-1" d="m28.39.87c.11.57.13,1.16.05,1.74-.05.38-.15.76-.09,1.14"/>
    <path class="cls-1" d="m29.59.7l-.09,3.13"/>
    <path class="cls-1" d="m30.75.45c.1,1.09-.03,2.2-.36,3.25"/>
    <path class="cls-1" d="m31.84.53l-.37,2.73c-.02.14-.04.28,0,.41"/>
    <path class="cls-1" d="m32.96.58l-.54,3.25"/>
    <path class="cls-1" d="m33.86.61c.03,1.05-.09,2.11-.36,3.12"/>
    <path class="cls-1" d="m35.04.95l-.46,2.58c-.05.29-.11.6-.04.89"/>
    <path class="cls-1" d="m36.23,1.37c-.42,1.19-.78,2.4-1.08,3.62"/>
    <path class="cls-1" d="m37.4,1.04c-.23,1.72-.8,3.4-1.67,4.91"/>
    <path class="cls-1" d="m38.38,1.62c-.16.95-.41,1.88-.75,2.77-.2.51-.42,1.02-.5,1.57"/>
    <path class="cls-1" d="m39.57,2.57c-.53,1.42-1.07,2.83-1.63,4.23"/>
    <path class="cls-1" d="m14.15,2.44c-.09.23-.1.49-.02.72"/>
    <path class="cls-1" d="m14.76,2.54c-.03.24,0,.49.1.72"/>
    <path class="cls-1" d="m15.87,2.07l.25,2.34"/>
    <path class="cls-1" d="m16.77,1.99c.1-.1.29-.06.38.05s.12.26.15.4c.16.99.23,1.99.21,2.98"/>
    <path class="cls-1" d="m18.26,1.84c.21.04.3.28.34.49.28,1.23.4,2.49.36,3.75"/>
    <path class="cls-1" d="m20.28,1.82c.18,1.33.21,2.67.1,4.01"/>
    <path class="cls-1" d="m21.81,1.53c.09,1.49.07,2.98-.07,4.47"/>
    <path class="cls-1" d="m23.51,1.41l-.18,4.72"/>
    <path class="cls-1" d="m25.54,1.11c-.14,1.8-.31,3.59-.51,5.39"/>
    <path class="cls-1" d="m27.78.61c-.2,2.19-.4,4.38-.66,6.57"/>
    <path class="cls-1" d="m29.71,1.61c-.29,2.18-.69,4.34-1.19,6.48"/>
    <path class="cls-1" d="m31.94,1.27c-.45,1.92-.89,3.85-1.31,5.79"/>
    <path class="cls-1" d="m34.03,1.14l-1.55,5.66"/>
    <path class="cls-1" d="m36.22,1.4c-.62,2.09-1.18,4.2-1.69,6.32"/>
    <path class="cls-1" d="m38.42,2.31c-.93,2.25-1.75,4.55-2.46,6.88"/>
    <path class="cls-1" d="m39.44,4.78c-.7,2.08-1.51,4.12-2.43,6.11"/>
    <path class="cls-1" d="m40.79,7.33c-.61,1.74-.84,3.7-2.02,5.12"/>
    <path class="cls-1" d="m31.59,9.84c-.33,1.01-.82,1.97-1.43,2.84"/>
    <path class="cls-1" d="m26.69,11.38c-.4.55-.78,1.12-1.13,1.71"/>
    <path class="cls-1" d="m3.6,11.46c1.98-1.24,4.02-2.39,6.1-3.45"/>
    <path class="cls-1" d="m3.82,13.93l5.47-3.92"/>
    <path class="cls-1" d="m3.79,12.67c1.24-.56,2.44-1.24,3.56-2.01"/>
    <path class="cls-1" d="m4.63,10.22c1.26-1.07,2.65-1.97,4.13-2.69"/>
    <path class="cls-1" d="m3.73,9.74c.8-.39,1.61-.76,2.43-1.1"/>
    <path class="cls-1" d="m131.67,134.38c2.98.41,5.97.69,8.97.84"/>
    <path class="cls-1" d="m133.81,133.12c3.2.25,6.42.39,9.63.4"/>
    <path class="cls-1" d="m136.73,131.39c2.79.52,5.63.77,8.47.75"/>
    <path class="cls-1" d="m140.03,130.38l8.03.54"/>
    <path class="cls-1" d="m141.5,128.37c.19.06.26.33.13.47s-.41.09-.48-.09.1-.41.29-.4c2.77.22,5.55.35,8.33.4"/>
    <path class="cls-1" d="m144.16,126.17l-.26-.11c3.02.2,6.04.41,9.06.61"/>
    <path class="cls-1" d="m147.13,124.38c2.2.15,4.4.32,6.6.5"/>
    <path class="cls-1" d="m148.6,122.66c-.06,0-.09.09-.05.14s.11.06.17.07c2.17.34,4.36.59,6.55.76"/>
    <path class="cls-1" d="m150.37,121.57l6.22.89"/>
    <path class="cls-1" d="m152.41,119.31c1.83.26,3.66.48,5.5.65"/>
    <path class="cls-1" d="m152.08,117.08l5.84,1"/>
    <path class="cls-1" d="m154.33,115.65c1.71.42,3.44.76,5.18,1.01"/>
    <path class="cls-1" d="m155.43,114.36l3.47.48"/>
    <path class="cls-1" d="m155.21,113.38c1.2-.2,2.45-.14,3.63.17"/>
    <path class="cls-1" d="m155.27,111.59c0-.1.13-.14.23-.15,1.22-.13,2.41.3,3.56.72"/>
    <path class="cls-1" d="m130.29,136.31c2.32.38,4.65.65,6.99.81"/>
    <path class="cls-1" d="m132.82,135.58c1.39.36,2.81.63,4.24.81"/>
    <path class="cls-1" d="m132.06,138.44l2.58.34"/>
    <path class="cls-1" d="m158.89,111.06c-.96-.53-1.91-1.09-2.84-1.68"/>
    <path class="cls-1" d="m154.94,107.48c.58.11,1.17.24,1.64.59.57.42.89,1.1,1.44,1.55"/>
    <path class="cls-1" d="m157.79,108.48c-1.08-.74-2.26-1.33-3.5-1.76"/>
    <path class="cls-1" d="m157.9,107.53c-1-1-2.29-1.71-3.66-2.03"/>
    <path class="cls-1" d="m157.85,106.32l-2.79-1.36c-.41-.2-.82-.4-1.27-.51"/>
    <path class="cls-1" d="m157.13,104.89c-.4-.57-.94-1.04-1.55-1.37-.68-.37-1.44-.55-2.19-.73"/>
    <path class="cls-1" d="m156.36,103.2c.12.08.26.13.41.13-.04-.16-.18-.27-.32-.38-1.63-1.27-3.46-2.52-5.53-2.6"/>
    <path class="cls-1" d="m155.38,101.64c-1.2-1.09-2.48-2.22-4.07-2.54"/>
    <path class="cls-1" d="m154.89,100.64c-.71-.81-1.07-1.88-1.76-2.69-.81-.95-2.02-1.68-3.14-2.2"/>
    <path class="cls-1" d="m153.04,97.04c-1.42-1.57-3.31-2.7-5.36-3.24"/>
    <path class="cls-1" d="m152.37,95.52c-.73-.81-1.7-1.36-2.71-1.73s-2.09-.58-3.15-.79"/>
    <path class="cls-1" d="m150.39,93.46c-1.37-.54-2.84-.83-4.31-.85"/>
    <path class="cls-1" d="m149.66,92.14c-1.07-.15-2.16-.23-3.24-.25"/>
    <path class="cls-1" d="m149.44,91.04c-1.28.06-2.57.05-3.85-.03"/>
    <path class="cls-1" d="m148.3,90.06c-.53-.31-1.18-.26-1.79-.19-.47.05-.94.11-1.42.16"/>
    <path class="cls-1" d="m147.36,89.09c-.11-.27-.48-.28-.77-.25-.61.07-1.22.15-1.83.22"/>
    <path class="cls-1" d="m147.2,88.48c-.05-.07-.15-.09-.23-.1-.92-.1-1.84-.2-2.75-.3"/>
    <path class="cls-1" d="m154.21,99.18c-1.51-.89-3.3-1.3-5.05-1.14"/>
    <path class="cls-1" d="m151.59,96.92c-1.09.37-2.22.62-3.36.73"/>
    <path class="cls-1" d="m151.97,95.64c-1.3.3-2.63.45-3.96.44"/>
    <path class="cls-1" d="m150.82,94.44c-1.27.25-2.57.34-3.85.25"/>
    <path class="cls-1" d="m150.43,93.11c-1.09-.32-2.22-.5-3.36-.53"/>
    <path class="cls-1" d="m156.7,104.74c-1.03-.18-2.08-.28-3.13-.31"/>
    <path class="cls-1" d="m156.1,103.2l-4.18-.29"/>
    <path class="cls-1" d="m150.1,100.52c.98.03,1.97.01,2.95.17s1.94.51,2.65,1.19"/>
    <path class="cls-1" d="m158.91,110.66c-1.78-1.3-4.09-1.59-6.28-1.84"/>
    <path class="cls-1" d="m158.65,109.7c-1.93-1.56-4.48-2.34-6.96-2.12"/>
    <path class="cls-1" d="m158.18,107.78c-2.58-1.03-5.44-.91-8.2-1.25"/>
    <path class="cls-1" d="m157.1,106.29c-2.09-1-4.47-1.42-6.78-1.19"/>
    <path class="cls-1" d="m156.84,105.75c-.32-.73-1.12-1.12-1.89-1.34-1.74-.5-3.59-.45-5.4-.4"/>
    <path class="cls-1" d="m156.26,104.33l.1-.15c-.67-.66-1.61-.97-2.54-1.12s-1.87-.18-2.79-.36"/>
    <path class="cls-1" d="m155.15,102.42c-1.44-.97-3.21-1.45-4.94-1.34"/>
    <path class="cls-1" d="m157.31,109.84c-1.13-.58-2.43-.76-3.7-.7s-2.52.36-3.73.72"/>
    <path class="cls-1" d="m158.31,110.59c-.9-.95-2.27-1.88-3.53-2.29-1.56-.5-3.74-.23-5.34-.05"/>
    <path class="cls-1" d="m158.45,109.57l-2.17-1.69"/>
    <path class="cls-1" d="m158.62,108.31c-1.01-.7-2.08-1.34-3.17-1.9"/>
    <path class="cls-1" d="m157.97,107.3c-.73-.96-1.68-1.76-2.75-2.32"/>
    <path class="cls-1" d="m157.7,105.59c-.8-.84-1.76-1.53-2.81-2.03"/>
    <path class="cls-1" d="m156.93,103.99c-1.16-1.1-2.67-1.83-4.25-2.07"/>
    <path class="cls-1" d="m155.69,102.55c-.66-1.1-1.84-1.88-3.11-2.05"/>
    <path class="cls-1" d="m155.16,101.14c-.65-.71-1.5-1.25-2.42-1.54"/>
    <path class="cls-1" d="m154.41,99.81c-.22-.34-.57-.62-.78-.92-.23-.33-.38-.57-.77-.8-.73-.45-1.61-.61-2.45-.77"/>
    <path class="cls-1" d="m153.04,97.68s.05.06.07.02-.02-.08-.05-.1c-.77-.74-1.83-1.08-2.85-1.4"/>
    <path class="cls-1" d="m152.59,96.61l-3.3-2.59"/>
    <path class="cls-1" d="m150.89,94.79c-1.32-1.32-2.64-2.64-3.96-3.96"/>
    <path class="cls-1" d="m145.57,71.73c-1.42.73-2.75,1.6-4.06,2.5"/>
    <path class="cls-1" d="m145.15,72.86c-.96.5-1.87,1.11-2.7,1.81"/>
    <path class="cls-1" d="m144.93,73.86c-.7.37-1.37.81-1.99,1.31"/>
    <path class="cls-1" d="m144.82,74.55s-.01.01-.02.02c-.84.46-1.59,1.06-2.3,1.69"/>
    <path class="cls-1" d="m144.66,75.45c.06-.03.15,0,.17.07-.86.49-1.66,1.11-2.35,1.82"/>
    <path class="cls-1" d="m144.81,76.37c-.9.59-1.73,1.28-2.47,2.05"/>
    <path class="cls-1" d="m144.76,77.53c-.92.53-1.76,1.2-2.48,1.98"/>
    <path class="cls-1" d="m144.31,78.79c-.6.44-1.16.93-1.7,1.44"/>
    <path class="cls-1" d="m144.47,79.78c-.63.53-1.23,1.08-1.79,1.67"/>
    <path class="cls-1" d="m144.69,80.49c-.65.43-1.23.98-1.7,1.61"/>
    <path class="cls-1" d="m144.6,81.45c-.48.39-.93.83-1.33,1.31"/>
    <path class="cls-1" d="m144.87,82.32c-.73.3-1.38.76-1.9,1.35"/>
    <path class="cls-1" d="m145.04,82.98c-.92.33-1.77.87-2.47,1.55"/>
    <path class="cls-1" d="m145.26,83.8c-.73.31-1.42.72-2.04,1.21"/>
    <path class="cls-1" d="m154.62,58.26c-1.11.85-2.38,1.48-3.72,1.87"/>
    <path class="cls-1" d="m152.6,60.24l-2.84.79"/>
    <path class="cls-1" d="m151.75,61.72l-2.85,1.07"/>
    <path class="cls-1" d="m151.33,62.68c-.95.51-1.94.94-2.96,1.28"/>
    <path class="cls-1" d="m150.82,63.79l-2.77,1.32"/>
    <path class="cls-1" d="m150.1,65.07c-.77.53-1.61.95-2.49,1.25"/>
    <path class="cls-1" d="m149.56,66.42c-.83.53-1.73.94-2.67,1.23"/>
    <path class="cls-1" d="m75.76,43.87c-.39.98-.65,2.01-.78,3.06"/>
    <path class="cls-1" d="m77.79,42.39c-.11,1.36-.41,2.7-.89,3.98-.18.46-.38.95-.26,1.43"/>
    <path class="cls-1" d="m75.65,84.05c.81-1.08,1.69-2.11,2.63-3.08"/>
    <path class="cls-1" d="m75.74,86.89l2.45-2.62"/>
    <path class="cls-1" d="m77.23,88.38l3.27-2.76"/>
    <path class="cls-1" d="m81.26,86.49c.87-.71,1.67-1.5,2.41-2.35"/>
    <path class="cls-1" d="m73.1,88.48c.88-1.15,1.86-2.22,2.95-3.18"/>
    <path class="cls-1" d="m68.04,89.87c1.04-.93,2.03-1.93,2.94-2.98"/>
    <path class="cls-1" d="m66.19,88.56c1.09-1.63,2.34-3.15,3.73-4.52"/>
    <path class="cls-1" d="m64.89,86.92c1.86-2.45,3.68-4.93,5.45-7.44"/>
    <path class="cls-1" d="m63.15,86.03c2.25-2.74,4.65-5.35,7.21-7.81"/>
    <path class="cls-1" d="m69.22,89.46l6.61-6.5"/>
    <path class="cls-1" d="m70.53,92.67c2.5-2.65,5.12-5.18,7.86-7.58"/>
    <path class="cls-1" d="m71.99,96.03c3.07-3.21,6.08-6.46,9.05-9.77"/>
    <path class="cls-1" d="m75.33,97.58c2.14-2.89,4.55-5.59,7.17-8.05"/>
    <path class="cls-1" d="m78.93,97.37c1.53-2.04,3.23-3.94,5.08-5.7"/>
    <path class="cls-1" d="m77.95,101.99c2.54-2.24,4.94-4.64,7.19-7.18"/>
    <path class="cls-1" d="m79.52,104.21c3.25-2.81,6.26-5.89,8.99-9.2"/>
    <path class="cls-1" d="m81.2,105.99c2.28-2.09,4.44-4.31,6.47-6.64"/>
    <path class="cls-2" d="m121.53,114.36c-.05-.63.45-1.15.91-1.57,4.54-4.21,9.44-8.03,14.64-11.39"/>
  </g>
</svg>