<?xml version="1.0" encoding="UTF-8"?>
<svg id="Layer_2" data-name="Layer 2" xmlns="http://www.w3.org/2000/svg" viewBox="0 0 203.4 193.15">
  <defs>
    <style>
      .cls-1 {
        stroke-width: .25px;
      }

      .cls-1, .cls-2 {
        fill: none;
        stroke: #000;
        stroke-miterlimit: 10;
      }

      .cls-2 {
        stroke-width: .5px;
      }
    </style>
  </defs>
  <g id="Layer_1-2" data-name="Layer 1">
    <path class="cls-2" d="m47.35,91.16c1.08,34.03-5.45,68.45.66,101.95"/>
    <path class="cls-2" d="m28.44,108.56c9.96-8.87,19.92-17.74,29.88-26.61,14.15-12.6,28.4-25.28,44.67-34.97,11.48,9.34,22.71,17.97,34.43,27.01,2.79,2.15,5.58,4.29,8.43,6.35,3.8,2.74,7.86,5.2,11.54,8.1,3.41,2.69,2.12,6.29,1.98,10.41-.34,10.28-.62,20.57-.81,30.85-.39,20.57-.49,41.15-.3,61.73,0,.47-.11,1.09-.57,1.17s-.23-.96.03-.56"/>
    <path class="cls-2" d="m82.25,185.71c.33.06-.01.64-.31.48s-.32-.56-.3-.89c.85-16.25,1.69-32.51,2.54-48.76,10.65-.93,21.38-1,32.04-.21,1.84.14,3.98.48,4.89,2.09.49.87.5,1.93.49,2.93-.16,15.76-.32,31.53-.48,47.29"/>
    <path class="cls-2" d="m123.16,62.19c-.14-3.03-.28-6.07-.42-9.1-.14-2.97.13-6.64,2.85-7.86,1.22-.54,2.62-.4,3.94-.24,5.32.63,10.64,1.26,15.96,1.89.94.11,2,.29,2.54,1.07.35.5.4,1.15.43,1.76.61,10.19.95,20.4,1.04,30.62"/>
    <path class="cls-2" d="m96.15,75.32c-2.57,1.9-4.01,4.94-5.12,7.93-.89,2.39-1.64,4.91-1.39,7.45.54,5.54,5.89,9.68,11.4,10.49,2.29.33,4.74.18,6.75-.96,1.29-.74,2.34-1.85,3.2-3.06,2.69-3.77,3.73-8.72,2.61-13.21-1.79-7.19-10.28-13.93-17.44-8.64Z"/>
    <path class="cls-2" d="m2.58,185.86c66.4,5.5,133.12-2.29,199.75-2.44"/>
    <path class="cls-2" d="m161.33,182.37c-.06,1.03-.64,2.02-1.51,2.59-.81-4.59-1.55-9.29-.85-13.9s3.09-9.19,7.18-11.43c.35-2.24,2.43-4.08,4.69-4.14s4.45,1.66,4.92,3.87c2-1.46,3.52-4.31,5.97-3.94,1.37.21,2.37,1.48,2.71,2.83s.14,2.75-.05,4.12c-.04.3-.08.63.04.91.35.78,1.53.58,2.25.11s1.54-1.12,2.33-.79c1.86.75-.59,4.2.94,5.49.53.45,1.3.38,1.99.43,1.57.11,3.08.95,3.98,2.24.56.8.93,1.77,1.69,2.38.55.44,1.27.65,1.74,1.17.63.69.67,1.73.61,2.67-.16,2.91-.78,5.79-1.84,8.5"/>
    <path class="cls-2" d="m44.74,159.27c-1.02-3.39-4.38-5.94-7.93-6s-6.99,2.37-8.12,5.73c-.48-3.18-3.69-5.7-6.89-5.39s-5.89,3.37-5.76,6.59c.02.46.08.93-.05,1.37-.18.6-.69,1.03-1.09,1.52-1.21,1.5-1.27,3.82-.13,5.38.41.57,1,1.19.78,1.86-.22.69-1.11.85-1.83.87-2.49.08-5.09.03-7.32,1.13s-3.92,3.81-2.93,6.1c-1.53.55-3,1.81-3.02,3.43s2.28,2.93,3.33,1.7"/>
    <path class="cls-2" d="m38.91,59.62c.1-4.06,1.99-7.91,4.52-11.09s5.67-5.81,8.7-8.51c3.7-3.29,7.31-6.77,9.94-10.97s4.21-9.22,3.52-14.12-3.97-9.58-8.67-11.11c-4.77-1.56-10.11.28-14.05,3.4-3.07,2.43-5.67,6.23-4.78,10.04-1.72-3.7-3.1-7.56-6.08-10.35-1.86-1.74-4.11-3.02-6.42-4.08C21.03.74,15.84-.57,11.04.83,3.73,2.97-.65,11.34.41,18.87c1.06,7.53,6.65,13.9,13.41,17.39,1.98,1.02,4.06,1.83,5.99,2.94,3.69,2.11,6.71,5.2,9.68,8.25,2.6,2.68,5.29,5.5,6.35,9.08.61,2.07.63,4.27.64,6.43"/>
    <path class="cls-2" d="m156.32,87.93c4.8,3.48,9.52,7.06,14.16,10.74"/>
    <path class="cls-2" d="m164.48,168.09c-.8.08-1.45.92-1.3,1.72s1.04,1.36,1.82,1.15"/>
    <path class="cls-2" d="m167.16,163.43c-.01,2.57,2.31,4.92,4.88,4.94.42,0,.87-.06,1.18-.35s.36-.86.01-1.1c-.98,1.54-.61,3.79.82,4.92s3.7.99,4.98-.31"/>
    <path class="cls-2" d="m178.76,164.82c-.59.52.26,1.57,1.02,1.39s1.19-.98,1.46-1.72c.27-.75.48-1.53.63-2.32.99.34,1.85-1.63,2.24-2.6"/>
    <path class="cls-2" d="m168.3,175.62c-.32.59-.65,1.2-.74,1.88s.12,1.42.68,1.8c.6.41,1.43.28,2.09-.03s1.25-.77,1.93-1.03"/>
    <path class="cls-2" d="m177.83,177.81c-.79,1.15.07,2.88,1.38,3.35s2.8-.05,3.93-.87"/>
    <path class="cls-2" d="m184.04,172.49c.14-.46-.6-.77-.97-.46s-.39.86-.32,1.33c.4,2.67,2.98,4.82,5.68,4.74,1.78-.05,3.75-1.47,3.44-3.23"/>
    <path class="cls-2" d="m194.23,178.57c.79.39,1.85.11,2.33-.62"/>
    <path class="cls-2" d="m184.93,168.94c1.65.8,3.92-.53,4.02-2.36"/>
    <path class="cls-2" d="m160.57,167.25c-1.22.02-1.7,1.58-1.83,2.79-.15,1.42-.19,3.11.94,3.97.73.56,1.96.83,1.96,1.75,0,.06,0,.12-.04.16-.08.13-.27.12-.42.09-1.26-.29-2.35-1.22-2.84-2.41s-.35-2.62.35-3.71c.41-.63.99-1.14,1.41-1.76s.69-1.44.37-2.12c-.13-.29-.36-.53-.47-.82-.39-1.02.71-2,1.75-2.32s2.26-.41,2.96-1.24"/>
    <path class="cls-2" d="m159.8,179.21c-1.33,1.17-.57,3.64,1.06,4.33s3.57-.02,4.9-1.19"/>
    <path class="cls-2" d="m199.38,183c.23.02.46,0,.69-.02,2-.28,3.39-2.51,3.03-4.49s-2.18-3.52-4.17-3.87"/>
    <path class="cls-2" d="m30.43,158.92c-.71.61-1.03,1.65-.78,2.56s1.04,1.64,1.96,1.81"/>
    <path class="cls-2" d="m35.82,159.6c-.02-1.31,1.58-2.21,2.84-1.83s2.08,1.62,2.42,2.89c.08.32.22.71.55.74.42.03.56-.53.82-.87.44-.58,1.43-.43,1.91.12s.55,1.34.52,2.07c-.04,1.23-.32,2.46-.8,3.59"/>
    <path class="cls-2" d="m27.82,164.1c-.99,1.21-1.19,3-.5,4.39s2.23,2.33,3.79,2.28"/>
    <path class="cls-2" d="m38.37,169.16c-.08-.27-.47-.37-.67-.18-.76,1.38-.33,3.3.95,4.21s3.24.7,4.29-.47"/>
    <path class="cls-2" d="m26.14,158.35c-1.04-.79-2.54-.91-3.69-.31-.26.13-.51.32-.6.6s.09.64.38.64c.24-.07.27-.44.1-.63s-.44-.24-.69-.28c-1.42-.21-3.08-.27-4.09.75-.99,1-.91,2.72-.15,3.91s2.04,1.94,3.32,2.52"/>
    <path class="cls-2" d="m18.97,173.23c-1.95-.96-3.73-2.24-5.27-3.77-.6,1.29-.71,2.87.01,4.1s2.38,1.91,3.66,1.29"/>
    <path class="cls-2" d="m26.15,178.2c-.48,1.23.24,2.71,1.39,3.35s2.61.54,3.83.03,2.24-1.4,3.18-2.32c.77,1.25,2.44,1.86,3.84,1.41"/>
    <path class="cls-2" d="m42.51,182.4c1.02-.2,1.87-1.08,2.04-2.11"/>
    <path class="cls-2" d="m5.74,175.11c-1.36.27-2.31,1.72-2.18,3.1s1.22,2.56,2.53,3,2.8.19,4-.49"/>
    <path class="cls-2" d="m15.64,180.25c-.2.95.56,1.89,1.47,2.23s1.91.24,2.88.14c-.47.91.46,2.05,1.47,2.12s1.95-.6,2.61-1.38"/>
    <path class="cls-2" d="m18.19,157.95c-1.95-1.35-5.07-.3-5.81,1.95-.21.64-.23,1.39.15,1.95.45.66,1.35.88,2.14.74s1.48-.57,2.16-1"/>
    <path class="cls-2" d="m27.29,155.78c-.66-1.21.68-2.72,2.05-2.77s2.6.8,3.71,1.61"/>
    <path class="cls-2" d="m37.59,154.67c-.85-1.21-.09-3.13,1.32-3.6s3.05.41,3.64,1.77"/>
    <path class="cls-2" d="m9.55,171.88c-.99.43-1.54,1.66-1.22,2.69s1.49,1.71,2.55,1.49"/>
    <path class="cls-2" d="m64.56,59.85c1.13-2.24,2.27-4.48,3.4-6.71,1.91-3.77,3.87-8,2.7-12.06-.46-1.62-1.89-3.29-3.52-2.88-.45.12-.85.38-1.22.67-1.44,1.12-2.59,2.61-3.31,4.29-.19.46-.16,1.22.33,1.19-.93-1.9-4.41-2.57-6.18-1.41s-2.33,3.73-1.37,5.61c.32.63.79,1.18,1.27,1.71,2.87,3.15,7.07,5.42,7.9,9.59Z"/>
    <path class="cls-2" d="m78.88,33.62c1.41-2.68,2.82-5.38,3.71-8.27s1.22-6.02.44-8.95c-.18-.66-.51-1.4-1.17-1.55-.57-.13-1.12.24-1.55.63-1.64,1.48-2.68,3.59-2.85,5.79-1.25-1.02-3.54-2.9-5.02-2.26-.46.2-.9.49-1.15.93-.45.8-.12,1.81.28,2.65.45.93.98,1.81,1.57,2.65,1.1,1.54,2.45,2.9,3.53,4.46s2.36,2.03,2.21,3.92Z"/>
    <path class="cls-2" d="m49.1,81.84c1.26-3.31,2-6.82,2.19-10.36.03-.63.05-1.28-.2-1.87s-.81-1.08-1.44-1.04c-.53.03-.96.41-1.32.8-1.98,2.16-2.84,5.31-2.22,8.18-.87-1.25-1.83-1.46-2.7-2.71-.66-.95-1.38-1.94-2.46-2.34-1.21-.44-2.57,0-3.67.65-.44.26-.87.57-1.1,1.02-.66,1.25.47,2.66,1.51,3.61,2.89,2.6,5.91,5.06,9.04,7.37"/>
    <path class="cls-1" d="m109.33,183.57l11.64-.34"/>
    <path class="cls-1" d="m120.76,181.53c-1.99.17-3.99.22-5.98.17"/>
    <path class="cls-1" d="m119.67,180.39c-1.56.25-3.17.16-4.69-.26"/>
    <path class="cls-1" d="m120.44,179.1l-6.07-.46c-.09,0-.19-.02-.25-.09s0-.21.09-.18"/>
    <path class="cls-1" d="m120.76,178.1c-2.73-.42-5.5-.65-8.26-.68"/>
    <path class="cls-1" d="m120.89,176.73c-1.5-.44-3.05-.72-4.61-.83-.99-.07-1.97-.07-2.96-.08-.65,0-1.31,0-1.96,0,.31-.33.8-.49,1.25-.39"/>
    <path class="cls-1" d="m121.13,174.6c-2.86-.94-5.97-.2-8.97-.45"/>
    <path class="cls-1" d="m120.78,172.82c-2.76-.69-5.67.18-8.52.04-.31-.02-.66-.07-.81-.34,2.67-.11,5.34-.32,8-.64.01-.37-.5-.49-.87-.48-2.21.05-4.42.16-6.63.31"/>
    <path class="cls-1" d="m120.78,170.59c-2.86-1-6.03-.16-9.03-.53"/>
    <path class="cls-1" d="m120.43,168.31l-5.65-.2"/>
    <path class="cls-1" d="m121.43,167.71c-3.59-.59-7.24-.89-10.88-.9"/>
    <path class="cls-1" d="m121.75,166.7c-3.69-1.09-7.63-.77-11.43-1.36"/>
    <path class="cls-1" d="m120.67,165.18c.04.12.23.14.29.03-1.52-.58-3.14-.89-4.77-.9"/>
    <path class="cls-1" d="m121.88,164.23c-2.12-.81-4.39-1.25-6.66-1.31"/>
    <path class="cls-1" d="m121.86,162.79c.05.11.22.14.3.05-1.84-.71-3.78-1.12-5.75-1.23"/>
    <path class="cls-1" d="m121.42,161.13c-2.5-.8-5.1-1.3-7.73-1.48"/>
    <path class="cls-1" d="m120.54,159.65l.53.09c-.16-.4-.61-.58-1.02-.71-1.12-.36-2.26-.62-3.42-.79"/>
    <path class="cls-1" d="m120.76,158.01l.44.08c-.31-.34-.77-.48-1.21-.6-1.96-.55-3.95-.95-5.97-1.21"/>
    <path class="cls-1" d="m118.71,156.03c.65.27,1.43.53,2.04.17-1.8-.85-3.76-1.34-5.74-1.43"/>
    <path class="cls-1" d="m120.33,154.08c-2.89-.75-5.84-1.29-8.81-1.59"/>
    <path class="cls-1" d="m119.35,152.79c.23.07.47.1.71.1-.25-.41-.74-.59-1.2-.73-1.86-.57-3.78-.98-5.71-1.21"/>
    <path class="cls-1" d="m119.35,150.75l.85.07c-2.22-.75-4.51-1.29-6.83-1.61"/>
    <path class="cls-1" d="m120.98,148.54c-2.87-.14-5.73-.38-8.59-.72"/>
    <path class="cls-1" d="m120.54,146.83l.3-.02c.07-.3-.24-.53-.51-.67-2.94-1.44-6.3-1.73-9.57-1.99"/>
    <path class="cls-1" d="m120.11,144.98l.33-.03c-.25-.49-.84-.69-1.37-.82-2.62-.66-5.29-1.12-7.98-1.35"/>
    <path class="cls-1" d="m120.44,143.1c-2.59-.99-5.31-1.61-8.07-1.85-.53-.05-1.15-.13-1.41-.6"/>
    <path class="cls-1" d="m112.82,137.95c2.39.45,4.78.95,7.15,1.5.44.1.77.24.93.66-2.88.41-5.95.07-8.8-.46-.08-.01-.18-.04-.2-.12s.11-.16.13-.08"/>
    <path class="cls-1" d="m120.47,184.12c-.4.39-.99.51-1.55.59-3.32.45-6.75.1-9.92-.99"/>
    <path class="cls-1" d="m95.44,180.29c1.93-.11,3.85-.33,5.76-.66"/>
    <path class="cls-1" d="m103.35,148.36c-.18-.26-.62-.26-.84-.03s-.22.62-.05.89.5.42.82.44c.15.01.32-.01.43-.12.1-.1.13-.26.13-.41,0-.56-.38-1.11-.9-1.32"/>
    <path class="cls-1" d="m96.53,175.07l10.43-.35"/>
    <path class="cls-1" d="m100.66,169.55c3.18-.32,6.37-.55,9.56-.69"/>
    <path class="cls-1" d="m109.78,164.11c.54.11,1.09.14,1.63.09"/>
    <path class="cls-1" d="m110.76,160.75l6.09.31"/>
    <path class="cls-1" d="m102.72,182.48c2.4.46,4.85.63,7.28.51"/>
    <path class="cls-1" d="m107.82,179.06c2.42.17,4.86.13,7.28-.14"/>
    <path class="cls-1" d="m110.22,154.74l2.93.22"/>
    <path class="cls-1" d="m112.39,149.2c1.22.2,2.46.24,3.69.13"/>
    <path class="cls-1" d="m112.29,146.79l8.04.24"/>
    <path class="cls-1" d="m113.48,143.99c1.91.2,3.84.25,5.76.14"/>
    <path class="cls-1" d="m113.37,141.12l5.43.16"/>
    <path class="cls-1" d="m113.7,138.34l5.65.02"/>
    <path class="cls-1" d="m88.93,164.08c-.41-.18-.85-.29-1.3-.33-.48-.04-1.1.1-1.2.58-.1.45.36.84.81.94s.92.02,1.37.14c.4.1.75.36,1.03.66.31-.44.74-.79,1.23-1.02.09-.04.19-.08.25-.16.21-.25-.11-.61-.42-.72-.59-.21-1.27-.16-1.82.14"/>
    <path class="cls-1" d="m104.13,74.47c-.06.04-.05-.12.02-.09s.07.12.06.19c-.06.43-.12.87-.18,1.3"/>
    <path class="cls-1" d="m105.4,74.99c-.14.46-.2.94-.17,1.41.22-.12.41-.31.53-.53"/>
    <path class="cls-1" d="m106.67,75.11l-.39,2.05"/>
    <path class="cls-1" d="m107.9,75.86l-1.17,2.84"/>
    <path class="cls-1" d="m108.55,77.52c-.4,1.1-.86,2.18-1.38,3.23"/>
    <path class="cls-1" d="m109.76,78.68l-2.3,4.12"/>
    <path class="cls-1" d="m110.37,80.32c.12.42-.12.85-.36,1.22-.97,1.5-1.94,3-2.91,4.5"/>
    <path class="cls-1" d="m111,82.62c.11-.13.32-.17.46-.08-1.55,1.9-2.98,3.9-4.29,5.97"/>
    <path class="cls-1" d="m112.29,84.46c-1.86,2.04-3.43,4.33-4.65,6.8"/>
    <path class="cls-1" d="m112.9,86.47c-2.08,2.51-3.82,5.3-5.17,8.26"/>
    <path class="cls-1" d="m113.2,88.83c-1.53,1.88-2.87,3.93-3.97,6.1-.22.43-.43.94-.2,1.36"/>
    <path class="cls-1" d="m113.22,91.67c-1.42,1.9-2.63,3.96-3.58,6.13"/>
    <path class="cls-1" d="m98.6,100.87c1.07-1.47,2.31-2.83,3.68-4.03"/>
    <path class="cls-1" d="m99.7,101.31c1.2-1.37,2.46-2.68,3.78-3.93"/>
    <path class="cls-1" d="m101.79,101.65c1.28-1.84,2.72-3.55,4.31-5.13"/>
    <path class="cls-1" d="m104.28,100.89c1.15-1.09,2.26-2.23,3.33-3.41"/>
    <path class="cls-1" d="m109.03,98.15l.33-.43"/>
    <path class="cls-1" d="m95.51,100.71c2.23-2.48,4.64-4.79,7.22-6.9"/>
    <path class="cls-1" d="m100.54,98.03c1.65-1.83,3.35-3.61,5.1-5.33"/>
    <path class="cls-1" d="m104.46,95.54l1.85-1.63"/>
    <path class="cls-1" d="m105.78,95.98c.57-.76,1.21-1.47,1.92-2.1"/>
    <path class="cls-1" d="m107.06,99.77c.73-.64,1.42-1.33,2.06-2.06"/>
    <path class="cls-1" d="m105.89,88.27c-.74,1.16-1.39,2.39-1.93,3.65"/>
    <path class="cls-1" d="m107.16,89.65c-.77.87-1.41,1.86-1.89,2.92"/>
    <path class="cls-1" d="m107.82,90.96c-.41.39-.7.89-.85,1.43"/>
    <path class="cls-1" d="m112.04,80.41c-.02-.14-.23-.06-.32.05-.96,1.18-1.78,2.48-2.44,3.85"/>
    <path class="cls-1" d="m113.16,82.83c-.9,1.08-1.71,2.24-2.41,3.46"/>
    <path class="cls-1" d="m113.96,84.59c-.82,1.46-1.68,2.89-2.57,4.3"/>
    <path class="cls-1" d="m114.35,87.61c-.99,1.25-1.8,2.64-2.41,4.12"/>
    <path class="cls-1" d="m113.94,90.99l-4.83,7.25"/>
    <path class="cls-1" d="m112.48,91.17l-5.16,6.35"/>
    <path class="cls-1" d="m111.11,91.64c-2.49,2.68-4.8,5.54-6.89,8.55"/>
    <path class="cls-1" d="m107.95,93.37c-1.63,1.86-3.2,3.77-4.71,5.73"/>
    <path class="cls-1" d="m106.3,93.67c-1.62.98-2.87,2.57-3.45,4.37"/>
    <path class="cls-1" d="m91.89,96.43c.26-.41.62-.76,1.04-1.01"/>
    <path class="cls-1" d="m92.74,98.15c.43-.83,1.06-1.55,1.83-2.07"/>
    <path class="cls-1" d="m93.89,98.55c.67-.71,1.37-1.39,2.1-2.03"/>
    <path class="cls-1" d="m95.37,99.37l2.47-2.75"/>
    <path class="cls-1" d="m96.97,99.57c1.25-.95,2.41-2.01,3.47-3.16"/>
    <path class="cls-1" d="m64.83,77.71c-.95,1.24-1.77,2.58-2.46,3.98.06.14.31.13.36-.02"/>
    <path class="cls-1" d="m68.63,73.66l-2.68,4.46c-.06.11-.13.25-.05.35s.27-.09.15-.13"/>
    <path class="cls-1" d="m72.79,70.22c.11.06.04-.22-.03-.11-1.42,2.1-2.78,4.26-3.8,6.57"/>
    <path class="cls-1" d="m79.06,64.11c-2.16,2.71-4.01,5.68-5.49,8.81"/>
    <path class="cls-1" d="m83.75,60.81c-2.77,3.16-5.18,6.62-7.18,10.31"/>
    <path class="cls-1" d="m90.16,56.01l-7.04,8.87c-.81,1.03-1.63,2.06-2.19,3.25-.14.31-.18.81.16.86"/>
    <path class="cls-1" d="m94.73,52.38c-2.72,3.36-5.33,6.82-7.8,10.37-.64.92-1.3,1.97-1.12,3.07"/>
    <path class="cls-1" d="m99.17,49.21c-1.91,4.35-5.19,7.94-7.72,11.97-.13.21-.26.44-.22.68s.37.42.54.24"/>
    <path class="cls-1" d="m101.79,49.8l-6.01,8.59c-.62.89-1.27,1.84-1.33,2.93-.02.29.12.67.4.63"/>
    <path class="cls-1" d="m103.43,50.16c-1.11,3.6-3.62,6.55-5.71,9.68-.13.2-.27.42-.24.66s.31.45.51.32"/>
    <path class="cls-1" d="m105.54,51.87c-1.65,2.79-3.31,5.58-4.96,8.37-.16.27-.33.58-.26.89s.53.51.72.25"/>
    <path class="cls-1" d="m107.8,52.98c-1.44,4.17-4.86,7.35-6.71,11.35-.23.49-.25,1.32.29,1.34"/>
    <path class="cls-1" d="m108.9,55.67c-1.48,2.61-2.96,5.21-4.44,7.82-.25.43-.37,1.17.12,1.27"/>
    <path class="cls-1" d="m111.65,56.43c-1.52,2.46-2.98,4.96-4.39,7.49-.3.54-.58,1.25-.17,1.71"/>
    <path class="cls-1" d="m113.66,58.55l-5.32,8.23c-.17.27-.35.55-.37.87s.18.67.5.7"/>
    <path class="cls-1" d="m115.55,60.24l-4.34,7.55c-.48.83-.97,1.75-.78,2.69"/>
    <path class="cls-1" d="m118.24,61.78c-1.94,3.21-3.74,6.5-5.39,9.86"/>
    <path class="cls-1" d="m119.74,64.75l-4.2,7.78"/>
    <path class="cls-1" d="m122.37,65.61c-1.93,2.79-3.56,5.77-4.87,8.9"/>
    <path class="cls-1" d="m124.08,68.52c-1.57,2.37-2.98,4.86-4.2,7.42"/>
    <path class="cls-1" d="m127.01,69.17c-1.98,2.73-3.43,5.85-4.24,9.12"/>
    <path class="cls-1" d="m129.25,71.74c-1.72,2.72-3.14,5.64-4.23,8.67"/>
    <path class="cls-1" d="m132.35,73.09c-1.71,2.58-3.04,5.42-3.91,8.4"/>
    <path class="cls-1" d="m134.36,75.97c-1.82,2.53-3.32,5.29-4.46,8.2"/>
    <path class="cls-1" d="m136.33,78.48c-1.43,2.5-2.64,5.11-3.62,7.82"/>
    <path class="cls-1" d="m139.71,80.07c-1.73,2.3-3.07,4.91-3.93,7.66"/>
    <path class="cls-1" d="m142.84,80.92c-1.64,2.68-3.05,5.5-4.19,8.42"/>
    <path class="cls-1" d="m145.62,83.3c-1.76,2.76-3.28,5.67-4.54,8.68"/>
    <path class="cls-1" d="m148.24,85.94c-1.73,2.68-3.27,5.49-4.6,8.39"/>
    <path class="cls-1" d="m150.57,88.09c-1.86,2.73-3.32,5.74-4.3,8.9"/>
    <path class="cls-1" d="m154.54,88.29c-1.67,3.3-3.69,6.42-6.01,9.29-.96,1.2-2,2.39-2.48,3.85"/>
    <path class="cls-1" d="m159.11,90.93c-3.47,3.07-6.97,6.09-10.52,9.07"/>
    <path class="cls-1" d="m158.77,97.7c-4.02,1.78-7.76,4.21-11.03,7.15"/>
    <path class="cls-1" d="m158.98,102.52c0-.17-.27-.15-.42-.07-4.2,2.2-8.08,5-11.48,8.31"/>
    <path class="cls-1" d="m158.17,107.69c-3.42,1.93-6.75,4-10,6.2-.52.36-1.1.81-1.11,1.45"/>
    <path class="cls-1" d="m157.38,113.64c-4.13,1.88-7.93,4.5-11.16,7.69"/>
    <path class="cls-1" d="m157.45,119.75l-11.71,7.47c-.55.35-1.17.82-1.17,1.47"/>
    <path class="cls-1" d="m156.7,127.96c-3.67,1.59-7.17,3.55-10.44,5.84"/>
    <path class="cls-1" d="m158.42,182.54c-3.31.42-6.64.71-9.98.84"/>
    <path class="cls-1" d="m158.23,181.38l-13.89-.83"/>
    <path class="cls-1" d="m158.42,177.86c-5.64-.2-11.28-.25-16.92-.16"/>
    <path class="cls-1" d="m156.45,175.55c.27-.21.76-.06.95-.35.23-.36-.32-.7-.74-.77-4.13-.68-8.34-.1-12.49.48"/>
    <path class="cls-1" d="m156.83,172.49c-5.11-.91-10.35-.35-15.51.21"/>
    <path class="cls-1" d="m156.99,169.65l-14.78,1.16"/>
    <path class="cls-1" d="m156.29,167.21c-4.28-.38-8.62-.11-12.81.8"/>
    <path class="cls-1" d="m158.1,164.52c-4.9-1.17-10.07-1.18-14.97-.03"/>
    <path class="cls-1" d="m158.13,161.76c-6.59-1.49-13.45.41-20.21.26"/>
    <path class="cls-1" d="m156.27,158.35c-4.65-.73-9.39-.34-14.08.05-1.95.16-3.89.32-5.84.49"/>
    <path class="cls-1" d="m158.64,156.17c-4.46-1.23-9.21-1.41-13.75-.5"/>
    <path class="cls-1" d="m157.53,153.27c-.37-.56-1.11-.73-1.77-.84-4.06-.68-8.23-.74-12.3-.18"/>
    <path class="cls-1" d="m158.24,149.72c-6.25-.87-12.6-.97-18.88-.31"/>
    <path class="cls-1" d="m159.33,146.98c-6.03-1.18-12.24-.69-18.37-.2"/>
    <path class="cls-1" d="m157.72,144.1c-5.43-.74-10.92-1.02-16.4-.86"/>
    <path class="cls-1" d="m157.55,139.63c-3.99-.74-8.1-.87-12.13-.37"/>
    <path class="cls-1" d="m157.73,137.19c-4.99-1.25-10.21-1-15.35-.73"/>
    <path class="cls-1" d="m157.03,134.44c-4.01-1.01-8.21-1.3-12.32-.86"/>
    <path class="cls-1" d="m157.89,131.67c-5.77-.93-11.62-1.43-17.47-1.49"/>
    <path class="cls-1" d="m156.29,127.97c.24.08.52.03.71-.14-.16-.63-.93-.86-1.57-.96-3.84-.61-7.73-.89-11.61-.82"/>
    <path class="cls-1" d="m157.56,124.71c-6.9-2.18-14.4-1.53-21.4-3.34"/>
    <path class="cls-1" d="m155.03,121.05l.66.02c-.77-.63-1.79-.84-2.78-1-4.43-.75-8.91-1.1-13.38-1.46"/>
    <path class="cls-1" d="m30.45,187.53c-.86-1.19-1.61-2.47-2.23-3.79"/>
    <path class="cls-1" d="m33.57,187.11c-1.46-1.78-2.8-3.68-3.98-5.66"/>
    <path class="cls-1" d="m35.51,186.06c.21.41.55.76.97.98-1.42-2.16-3.02-4.19-4.79-6.07"/>
    <path class="cls-1" d="m38.34,185.73c.75.89,1.56,1.83,2.67,2.17-1.76-2.33-3.61-4.59-5.56-6.76"/>
    <path class="cls-1" d="m41.23,185.52c.42,1,1.3,1.79,2.34,2.11-1.85-2.69-3.83-5.29-5.94-7.78"/>
    <path class="cls-1" d="m42.49,183.9c.69.92,1.54,1.71,2.49,2.34-2-2.71-4-5.43-5.99-8.14"/>
    <path class="cls-1" d="m42.82,180.89c.56.88,1.29,1.66,2.12,2.29-1.48-2.27-3.08-4.47-4.8-6.56"/>
    <path class="cls-1" d="m43.16,178.23c.15.31.44.55.77.65-.67-1.26-1.42-2.48-2.24-3.64"/>
    <path class="cls-1" d="m44,176.48l-3.12-5.04"/>
    <path class="cls-1" d="m43.31,173.12l.46.24c-.56-.99-1.13-1.98-1.71-2.95.25.51,1.3.52,1.84.68-.67-1.48-1.47-2.9-2.37-4.24"/>
    <path class="cls-1" d="m43,167.01c0,.19.2.34.38.3-.86-1.58-1.73-3.15-2.59-4.73"/>
    <path class="cls-1" d="m41.74,158.99l1.95,3.92"/>
    <path class="cls-1" d="m46.66,187.54c-.92-1.22-1.79-2.49-2.59-3.8"/>
    <path class="cls-1" d="m46.33,183.78c-.94-.94-1.72-2.04-2.3-3.23-.51-1.05-.27-2.93-.84-3.95"/>
    <path class="cls-1" d="m44.96,176.62l-1.25-2.67"/>
    <path class="cls-1" d="m45.26,174.33l-1.68-2.73"/>
    <path class="cls-1" d="m45.07,171.67l-2.57-4.51"/>
    <path class="cls-1" d="m44.74,167.73l-1.58-3.22"/>
    <path class="cls-1" d="m45.12,164.51c-.43-1.23-.97-2.42-1.6-3.56"/>
    <path class="cls-1" d="m15.9,183.04l2.04,1.79c.18.16.38.32.62.32s.47-.29.33-.48"/>
    <path class="cls-1" d="m18.7,181.84c1.62,1.66,3.31,3.26,5.05,4.79.26-.52.17-1.19-.21-1.61"/>
    <path class="cls-1" d="m22.17,181.77c1.37,1.48,2.82,2.89,4.34,4.22"/>
    <path class="cls-1" d="m23.93,180.37l6.7,7.01c.21.22.46.46.76.48-.26-1.04-.74-2.02-1.41-2.85"/>
    <path class="cls-1" d="m25.06,176.37l8.72,9.05c.22.23.61.45.8.21-.01-.3-.14-.59-.34-.8"/>
    <path class="cls-1" d="m27.57,175.3l9.32,9.5c.08-.59-.19-1.23-.69-1.57"/>
    <path class="cls-1" d="m29.44,173.24l7.57,8.45c.34.38.68.75,1.06,1.08.18-.26.04-.68-.26-.78"/>
    <path class="cls-1" d="m31.99,172.67l7.54,8.66"/>
    <path class="cls-1" d="m34.27,171.44l6.07,6.84c.17.19.51.37.63.15"/>
    <path class="cls-1" d="m35.1,167.4l5.93,6.54"/>
    <path class="cls-1" d="m160.85,183.28l1.44,1.44c-.75-1.85-1.51-3.7-2.26-5.55.89,1.27,1.84,2.49,2.85,3.66"/>
    <path class="cls-1" d="m160.28,176.22c1.79,3.21,3.8,6.3,6.02,9.23"/>
    <path class="cls-1" d="m162.32,175.56c2.21,3.38,4.55,6.67,7.02,9.86.1.13.22.27.39.29s.34-.17.24-.31"/>
    <path class="cls-1" d="m165.28,176.2l5.5,7.62"/>
    <path class="cls-1" d="m168,176.91c1.37,2.61,3.12,5.02,5.18,7.12-.19-1.33-.76-2.6-1.62-3.63"/>
    <path class="cls-1" d="m169.8,176.46l5.19,7.47"/>
    <path class="cls-1" d="m172.58,177.11c1.37,2.63,3.11,5.07,5.14,7.24.2-.1.32-.33.29-.55"/>
    <path class="cls-1" d="m174.42,176.11l5.18,7.47"/>
    <path class="cls-1" d="m177.02,175.15c1.82,2.94,3.71,5.84,5.68,8.68"/>
    <path class="cls-1" d="m180.63,176.12l5.17,7.3"/>
    <path class="cls-1" d="m183.53,176.98l3.86,5.92"/>
    <path class="cls-1" d="m185.97,176.19l4.8,7.25"/>
    <path class="cls-1" d="m189.83,177.64l3.18,4.92c.4.62,1.04,1.33,1.74,1.07"/>
    <path class="cls-1" d="m191.72,175.38c1.48,2.61,3.14,5.12,4.95,7.51"/>
    <path class="cls-1" d="m195.54,176.22l4.11,5.99"/>
    <path class="cls-1" d="m197.53,174.72c1.35,1.85,2.75,3.67,4.2,5.44"/>
    <path class="cls-1" d="m37.67,60.66c-.66-5.24-1.74-10.43-3.23-15.5"/>
    <path class="cls-1" d="m39.22,56.39c-.92-2.93-1.66-5.91-2.24-8.92"/>
    <path class="cls-1" d="m40.9,53.52c-.77-3.93-1.88-7.8-3.29-11.56"/>
    <path class="cls-1" d="m41.75,49.81c-.06.16.23,0,.2-.17-.43-2.52-.98-5.02-1.64-7.5"/>
    <path class="cls-1" d="m43.41,47.2c-.07.07.09.18.16.11s.06-.19.04-.29c-.53-2.75-1.06-5.51-1.59-8.26"/>
    <path class="cls-1" d="m46.03,45.74c-.78-3.09-1.49-6.19-2.11-9.31"/>
    <path class="cls-1" d="m48.92,43.24c-.79-2.34-1.4-4.74-1.82-7.17"/>
    <path class="cls-1" d="m51.82,41.44c-.82-3.45-1.85-6.86-3.07-10.19"/>
    <path class="cls-1" d="m54.03,40c-1.2-4.64-2.62-9.22-4.27-13.72"/>
    <path class="cls-1" d="m56.45,37c-1.61-4.13-3.12-8.3-4.53-12.51"/>
    <path class="cls-1" d="m58.11,33.59c-.75-3.4-1.76-6.74-3-9.99"/>
    <path class="cls-1" d="m59.69,31.06c-.63-3.32-1.52-6.58-2.66-9.76"/>
    <path class="cls-1" d="m62.16,28.43c-1.12-4.72-2.54-9.36-4.25-13.9"/>
    <path class="cls-1" d="m63.45,24.55c-.08,0,0,.14.06.1s.06-.13.05-.21c-.55-3.26-1.61-6.44-3.12-9.39"/>
    <path class="cls-1" d="m64.83,20.42c-1.3-4.87-3.29-9.55-5.9-13.86"/>
    <path class="cls-1" d="m65.45,16.12c-.43-2.19-1.22-4.3-2.33-6.23"/>
    <path class="cls-1" d="m27.16,5.25l1.21,2.51"/>
    <path class="cls-1" d="m28.53,4.55c.48,1.99,1.04,3.97,1.66,5.92"/>
    <path class="cls-1" d="m30.51,5.4c.74,2.97,1.48,5.95,2.22,8.92.06.26.21.57.47.55-.06-.29-.12-.59-.18-.88"/>
    <path class="cls-1" d="m32.84,8.6c-.09-.06.02-.21.13-.18s.15.15.18.25c.96,2.88,1.68,5.85,2.14,8.85.29-.02.5-.38.37-.65"/>
    <path class="cls-1" d="m35.79,12.71c.8,2.72,1.51,5.47,2.14,8.24"/>
    <path class="cls-1" d="m38.29,16.26c.62,1.74,1.04,3.55,1.25,5.39"/>
    <path class="cls-1" d="m39.61,13.81l1.22,6.06"/>
    <path class="cls-1" d="m18.77,1.52c.02,1.12.31,2.24.84,3.23"/>
    <path class="cls-1" d="m20.46,2.76c.07.91.35,1.81.83,2.59"/>
    <path class="cls-1" d="m21.99,2.4c.28,1.15.63,2.29,1.06,3.4.12-.11.24-.23.36-.34"/>
    <path class="cls-1" d="m23.79,4.18c.35,1.58.79,3.14,1.32,4.66"/>
    <path class="cls-1" d="m25.6,4l1.54,6.5c.09.38.23.82.59.97.1-.11.21-.21.31-.32"/>
    <path class="cls-1" d="m28.31,6.3c.78,3.04,1.56,6.08,2.34,9.12"/>
    <path class="cls-1" d="m63.85,26.24c.06-.09.15.14.04.15s-.18-.11-.22-.22c-.69-1.87-1.39-3.74-2.08-5.61"/>
    <path class="cls-1" d="m64.12,23.79c-.58-4.14-1.82-8.2-3.64-11.96"/>
    <path class="cls-1" d="m64.85,18.28l-1.82-6.1"/>
    <path class="cls-1" d="m64.76,60.65c-.36-2.61-.72-5.22-1.08-7.84"/>
    <path class="cls-1" d="m66.16,57.63c-.81-2.71-1.52-5.44-2.13-8.2"/>
    <path class="cls-1" d="m66.5,53.18l.03.12c-.43-1.7-.85-3.4-1.28-5.11"/>
    <path class="cls-1" d="m67.63,51.92l-.88-5.17"/>
    <path class="cls-1" d="m68.6,50.16l-1.47-6.8"/>
    <path class="cls-1" d="m69.18,47.21c-.13-.05-.06.25.07.18s.11-.25.07-.39c-.36-1.38-.71-2.76-1.07-4.14"/>
    <path class="cls-1" d="m70.43,45.87l-1.76-7.31"/>
    <path class="cls-1" d="m46.55,84.71v-4.99"/>
    <path class="cls-1" d="m48.49,82.75c-.75-3.51-1.08-7.11-.99-10.69"/>
    <path class="cls-1" d="m49.87,79.39c-.91-2.51-1.35-5.19-1.3-7.86"/>
    <path class="cls-1" d="m50.47,76.51c-.46-2.65-.75-5.33-.85-8.02"/>
    <path class="cls-1" d="m78.45,27.71c-.07,1.82-.04,3.65.12,5.47.02-.18.1-.35.22-.48-.08-2.02-.26-2.97-.34-4.99Z"/>
    <path class="cls-1" d="m80.76,28.42l-.33-4.99"/>
    <path class="cls-1" d="m81.8,25.93l.06.48c-.11-2.32-.41-4.63-.91-6.9"/>
    <path class="cls-1" d="m82.51,22.19c-.41-1.81-.64-3.67-.71-5.53"/>
    <path class="cls-1" d="m80.06,31.26c-.29-1.42-.52-2.86-.69-4.31"/>
    <path class="cls-1" d="m80.83,28.84c-.26-.97-.44-1.96-.55-2.96"/>
    <path class="cls-1" d="m81.63,27.32l-.44-2.89"/>
    <path class="cls-1" d="m82.85,24.72c-.21-1.1-.47-2.19-.76-3.28"/>
    <path class="cls-1" d="m83.24,21.21c-.11-1.38-.48-2.73-1.08-3.98"/>
    <path class="cls-1" d="m82.92,17.5c-.1-.55-.24-1.09-.43-1.62"/>
    <path class="cls-1" d="m66.62,55.61c-.54-.88-.93-1.86-1.14-2.87"/>
    <path class="cls-1" d="m67.5,53.89c-.47-1.15-.83-2.35-1.06-3.56"/>
    <path class="cls-1" d="m68.48,51.78c-.26-1.12-.56-2.24-.89-3.34"/>
    <path class="cls-1" d="m69.64,49.26c-.4-1.08-.72-2.18-.97-3.3"/>
    <path class="cls-1" d="m70.33,47.35l-1.02-3.47"/>
    <path class="cls-1" d="m70.85,44.04c-.24-.91-.6-1.78-1.06-2.59"/>
    <path class="cls-1" d="m65.44,57.68c-.38-1.01-.6-2.08-.65-3.16"/>
    <path class="cls-1" d="m63.05,56.21l-.27-1.93"/>
    <path class="cls-1" d="m47.83,86.19c-.23-1.3-.42-2.6-.59-3.91"/>
    <path class="cls-1" d="m48.54,84.23c-.4-1.68-.61-3.4-.6-5.13"/>
    <path class="cls-1" d="m49.51,81.05c-.48-1.41-.79-2.88-.91-4.37"/>
    <path class="cls-1" d="m50.28,77.24c-.48-1.23-.73-2.54-.73-3.86"/>
    <path class="cls-1" d="m50.8,73.47c-.28-1.03-.47-2.09-.59-3.15"/>
    <path class="cls-1" d="m49.03,72.09l-.31-1.8"/>
    <path class="cls-1" d="m47.73,82.68c-.26-1.33-.44-2.69-.52-4.04"/>
    <path class="cls-1" d="m147.1,80.21c.41.21.9.27,1.35.17"/>
    <path class="cls-1" d="m145.95,79.57c.69.13,1.4.17,2.1.11"/>
    <path class="cls-1" d="m144.54,78.61c1.23.31,2.51.42,3.78.33"/>
    <path class="cls-1" d="m144.05,77.69c1.42.39,2.91.5,4.37.33"/>
    <path class="cls-1" d="m143.06,76.55c1.74.4,3.52.61,5.3.64"/>
    <path class="cls-1" d="m141.82,75.33c2.13.6,4.34.88,6.55.84"/>
    <path class="cls-1" d="m141.35,74.36c2.33.58,4.73.87,7.13.87"/>
    <path class="cls-1" d="m139.85,73.26c2.93.6,5.91.94,8.9,1.01"/>
    <path class="cls-1" d="m138.97,71.53c2.99.79,6.05,1.28,9.14,1.46"/>
    <path class="cls-1" d="m139.32,70.47c2.82.73,5.73,1.14,8.64,1.21"/>
    <path class="cls-1" d="m138.87,68.57c3.11.88,6.32,1.43,9.55,1.64"/>
    <path class="cls-1" d="m139.55,67.44c2.82.89,5.76,1.4,8.72,1.52"/>
    <path class="cls-1" d="m138.91,65.92c3,1.03,6.14,1.65,9.3,1.84"/>
    <path class="cls-1" d="m139.25,64.89c2.96.94,6.05,1.5,9.16,1.66"/>
    <path class="cls-1" d="m138.64,63.05c3.2.93,6.49,1.54,9.81,1.81"/>
    <path class="cls-1" d="m138.66,61.17c2.82.87,5.72,1.48,8.65,1.82"/>
    <path class="cls-1" d="m138.2,59.29c2.98.96,6.04,1.67,9.14,2.13"/>
    <path class="cls-1" d="m138,57.55c3.18,1.14,6.46,2.02,9.79,2.61"/>
    <path class="cls-1" d="m138.27,56.25c3.39,1.22,6.9,2.1,10.47,2.62"/>
    <path class="cls-1" d="m138.38,54.91c3.07,1,6.21,1.78,9.39,2.33"/>
    <path class="cls-1" d="m138.52,52.76c2.95,1.16,6.05,1.94,9.2,2.31"/>
    <path class="cls-1" d="m138.87,51.38c2.57,1.06,5.28,1.76,8.04,2.07"/>
    <path class="cls-1" d="m136.72,49.49c3.08,1.43,6.42,2.3,9.8,2.57"/>
    <path class="cls-1" d="m138.6,48.67c2.4.89,4.91,1.5,7.45,1.81"/>
    <path class="cls-1" d="m139.3,47.43c2.24.73,4.54,1.24,6.88,1.52"/>
    <path class="cls-1" d="m141.33,46.78c1.83.7,3.75,1.16,5.69,1.38"/>
    <path class="cls-1" d="m148.96,80.32l.09-.08"/>
    <path class="cls-1" d="m148.47,79.32c.27.09.56.12.84.08"/>
    <path class="cls-1" d="m147.99,78.36c.46.23.99.34,1.51.31"/>
    <path class="cls-1" d="m147.68,77.11c.56.31,1.22.42,1.85.31"/>
    <path class="cls-1" d="m147.63,75.9c.58.4,1.33.54,2.01.37"/>
    <path class="cls-1" d="m147.22,74.52l1.7.39c.23.05.56.04.6-.19"/>
    <path class="cls-1" d="m146.99,72.95c.63.26,1.29.45,1.97.55.19.03.43.03.51-.15"/>
    <path class="cls-1" d="m146.78,71.41c.52.18,1.07.29,1.62.33.13.01.31-.08.24-.18"/>
    <path class="cls-1" d="m146.31,70.01c.69.23,1.42.39,2.14.47.2.02.48-.05.45-.24"/>
    <path class="cls-1" d="m145.84,68.48c.77.31,1.6.47,2.43.47"/>
    <path class="cls-1" d="m146.28,67.5c.71.32,1.49.5,2.27.54"/>
    <path class="cls-1" d="m146.72,66.49c.62.32,1.32.5,2.01.51"/>
    <path class="cls-1" d="m146.5,65.38c.54.27,1.13.43,1.74.47.1,0,.26-.09.18-.16"/>
    <path class="cls-1" d="m146.27,63.89c.77.33,1.6.52,2.44.57"/>
    <path class="cls-1" d="m145.96,62.53c.9.41,1.87.68,2.85.81"/>
    <path class="cls-1" d="m146.16,61.09c.8.43,1.69.69,2.59.74"/>
    <path class="cls-1" d="m145.77,59.49c.99.52,2.07.86,3.18,1"/>
    <path class="cls-1" d="m145.48,58.11c1.01.53,2.11.88,3.24,1.01"/>
    <path class="cls-1" d="m145.26,56.35c.91.36,1.87.58,2.84.64"/>
    <path class="cls-1" d="m144.8,54.4c.75.35,1.54.64,2.34.87.07.02.15.04.22,0s.1-.14.03-.18"/>
    <path class="cls-1" d="m144.51,52.61c.8.39,1.64.68,2.5.86.12.03.26.05.36-.02s.11-.27-.01-.29"/>
    <path class="cls-1" d="m144.32,50.78c1.08.51,2.2.93,3.35,1.24.09-.16.03-.38-.12-.48"/>
    <path class="cls-1" d="m144.83,49.5c1.1.64,2.31,1.1,3.55,1.37"/>
    <path class="cls-1" d="m145.35,48.35c.74.54,1.59.93,2.48,1.13"/>
    <path class="cls-1" d="m145.62,47.19c.91.57,1.94.95,3,1.1"/>
    <path class="cls-1" d="m148.15,183.97c3.3-.04,6.59-.26,9.86-.67-.22-.38-.71-.58-1.13-.46"/>
    <path class="cls-1" d="m144.01,182.27l11.71-.18"/>
    <path class="cls-1" d="m143.19,181.11c4.66.58,9.37.76,14.06.54"/>
    <path class="cls-1" d="m144.75,179.01c3.82.47,7.68.64,11.53.53"/>
    <path class="cls-1" d="m143.6,177.85c4.51.34,9.03.46,13.54.36"/>
    <path class="cls-1" d="m144.98,176.04c4.23.2,8.47.28,12.71.25"/>
    <path class="cls-1" d="m144.85,174.09c4.05.41,8.13.56,12.21.46"/>
    <path class="cls-1" d="m144.56,172c4.17.35,8.36.46,12.54.33"/>
    <path class="cls-1" d="m139.08,170.06c5.65.64,11.36.86,17.04.66"/>
    <path class="cls-1" d="m138.46,167.61c5.54.67,11.13.93,16.72.79"/>
    <path class="cls-1" d="m137.01,165.14c5.98.75,12.01,1.1,18.04,1.07"/>
    <path class="cls-1" d="m139.4,162.88c5.74.88,11.56,1.26,17.37,1.12"/>
    <path class="cls-1" d="m140.28,160.61c5.64.78,11.35,1.12,17.05,1.03"/>
    <path class="cls-1" d="m139.17,157.84c5.73,1.02,11.57,1.37,17.38,1.04"/>
    <path class="cls-1" d="m136.7,155.53c6.48,1.33,13.1,1.94,19.71,1.83"/>
    <path class="cls-1" d="m137.25,153.51c6.22,1.2,12.53,1.89,18.86,2.07"/>
    <path class="cls-1" d="m140.29,151.92c5.49,1.15,11.1,1.73,16.7,1.73"/>
    <path class="cls-1" d="m138.01,149c6.3,1.41,12.75,2.13,19.2,2.16"/>
    <path class="cls-1" d="m139.74,146.67c6.08,1.37,12.28,2.21,18.51,2.52"/>
    <path class="cls-1" d="m138.96,144.12c5.98,1.58,12.15,2.45,18.34,2.57"/>
    <path class="cls-1" d="m140.68,141.82c5.77,1.22,11.62,2.08,17.5,2.59"/>
    <path class="cls-1" d="m140.88,139.26c5.37,1.32,10.85,2.19,16.36,2.6"/>
    <path class="cls-1" d="m138.76,136.82c5.44,1.22,10.96,2.09,16.52,2.61"/>
    <path class="cls-1" d="m140.5,133.39c5.11,1.35,10.29,2.42,15.52,3.2"/>
    <path class="cls-1" d="m141.55,131.52c5.2,1.49,10.49,2.71,15.82,3.63"/>
    <path class="cls-1" d="m141.44,128.56c5.55,1.36,11.18,2.41,16.84,3.14"/>
    <path class="cls-1" d="m140.01,125.29c5.98,1.6,12.04,2.91,18.15,3.92"/>
    <path class="cls-1" d="m141.38,122.41c5.21,1.63,10.59,2.72,16.02,3.25"/>
    <path class="cls-1" d="m141.13,119.94c5.65,1.46,11.38,2.58,17.16,3.35"/>
    <path class="cls-1" d="m139.87,116.39c5.26,1.89,10.75,3.15,16.3,3.77"/>
    <path class="cls-1" d="m140.09,113.73c5.38,1.69,10.89,2.96,16.47,3.79"/>
    <path class="cls-1" d="m140.81,111.39c5.13,1.83,10.42,3.19,15.8,4.05"/>
    <path class="cls-1" d="m141.54,109.21c4.79,1.82,9.74,3.2,14.77,4.13"/>
    <path class="cls-1" d="m141.21,106.99c4.84,1.67,9.81,2.96,14.84,3.87"/>
    <path class="cls-1" d="m140.78,104.57c4.02,1.39,8.08,2.66,12.18,3.81,1.19.33,2.4.65,3.63.59"/>
    <path class="cls-1" d="m140.49,102.39c5.45,1.88,11,3.45,16.63,4.69"/>
    <path class="cls-1" d="m142.71,100.57c4.43,1.88,9.06,3.29,13.79,4.2"/>
    <path class="cls-1" d="m141.12,97.95c5.63,1.97,11.33,3.75,17.08,5.33"/>
    <path class="cls-1" d="m141.81,95.22c5.11,2.2,10.39,3.97,15.79,5.3"/>
    <path class="cls-1" d="m141.37,92.69c5.51,2.08,11.11,3.94,16.77,5.55"/>
    <path class="cls-1" d="m142.25,90.04c5.34,2.26,10.78,4.3,16.29,6.13"/>
    <path class="cls-1" d="m142.67,87.95c4.68,2.06,9.42,3.99,14.21,5.78"/>
    <path class="cls-1" d="m144.66,86.27l11.62,5.2"/>
    <path class="cls-1" d="m146.58,84.72c2.71,1.35,5.45,2.63,8.22,3.84"/>
    <path class="cls-1" d="m146.45,82.71l6.59,2.91"/>
    <path class="cls-1" d="m100.6,49.82c-.91,1.62-1.61,3.36-2.06,5.16"/>
    <path class="cls-1" d="m102.36,47.87l-2.24,6.78"/>
    <path class="cls-1" d="m103.38,49.17c-1.13,2.14-1.94,4.45-2.43,6.82-.02.09-.03.19.04.25s.19-.06.12-.11"/>
    <path class="cls-1" d="m104.51,49.19c-.88,2.54-1.66,5.11-2.33,7.71-.05.18.11.47.22.32"/>
    <path class="cls-1" d="m105.8,51.12c-1.02,2.63-1.77,5.36-2.23,8.14"/>
    <path class="cls-1" d="m109.24,53.7c-.25-.22-.62.04-.84.28-.96,1.08-1.75,2.31-2.33,3.64"/>
    <path class="cls-1" d="m110.86,54.54c-1.88,2.05-3.5,4.33-4.82,6.77"/>
    <path class="cls-1" d="m111.68,55.9c-2.22,2.75-4.17,5.73-5.79,8.88"/>
    <path class="cls-1" d="m114.12,57.43c-2.81,3.12-5.37,6.48-7.64,10.01"/>
    <path class="cls-1" d="m115.68,58.36c-2.7,2.66-5.07,5.66-7.03,8.91-.16.27-.21.77.11.77.12-.1.24-.2.35-.3"/>
    <path class="cls-1" d="m117.14,59.2c-2.94,3.01-5.5,6.39-7.58,10.05"/>
    <path class="cls-1" d="m118.14,60.8c-1.94,2.82-3.74,5.73-5.39,8.73.42.27.96-.05,1.35-.35"/>
    <path class="cls-1" d="m121.03,61.87c-2.35,3.06-4.5,6.26-6.45,9.59"/>
    <path class="cls-1" d="m123.15,62.6c-2.14,2.95-4.13,5.99-5.99,9.12"/>
    <path class="cls-1" d="m124.99,64.8c-1.99,2.51-3.83,5.14-5.49,7.88-.13.21-.2.55.03.62"/>
    <path class="cls-1" d="m127.29,66.52l-5.48,7.04c-.52.67-1.07,1.43-.98,2.27.16.01.33.03.49.04"/>
    <path class="cls-1" d="m129.03,68.56c-.11-.04.05-.22.14-.14s.02.23-.07.31-.21.12-.29.21c-2.13,2.69-4.11,5.51-5.92,8.43"/>
    <path class="cls-1" d="m130.81,71.74c-1.81,1.9-3.56,3.87-5.25,5.88-.56.67-1.14,1.5-.88,2.33"/>
    <path class="cls-1" d="m133.12,71.92c-2.54,2.46-4.82,5.2-6.77,8.15-.25.38-.47.93-.13,1.23"/>
    <path class="cls-1" d="m135.15,73.2c-2.49,2.66-4.69,5.6-6.54,8.74-.09.16-.18.33-.16.5s.24.33.39.23"/>
    <path class="cls-1" d="m136.76,74.88c-2.55,2.4-4.81,5.11-6.72,8.05-.13.21-.27.44-.24.68s.32.46.53.32"/>
    <path class="cls-1" d="m137.82,76.78c-.33.2-.56.52-.79.84-1.95,2.75-3.89,5.49-5.84,8.24"/>
    <path class="cls-1" d="m140.66,77.76c-2.44,2.64-4.63,5.51-6.55,8.56"/>
    <path class="cls-1" d="m142.14,79.3l-4.59,6.13"/>
    <path class="cls-1" d="m144.01,80.59c-1.6,1.99-3.1,4.06-4.5,6.2-.36.56-.73,1.15-.79,1.81"/>
    <path class="cls-1" d="m146.21,81.51l-3.84,5.03c-.72.94-1.46,1.93-1.65,3.1"/>
    <path class="cls-1" d="m145.52,84.87c-1.95,2.1-3.47,4.61-4.43,7.31"/>
    <path class="cls-1" d="m167.06,168.14c.85,1.42,2.33,2.45,3.95,2.75"/>
    <path class="cls-1" d="m168.42,172.38c.62,1.18,2.06,1.87,3.37,1.61"/>
    <path class="cls-1" d="m166.85,161.62c.46.62,1.1,1.1,1.82,1.37"/>
    <path class="cls-1" d="m167.35,160.14c.22.59.95.94,1.54.73"/>
    <path class="cls-1" d="m167.44,158.27c.53.42,1.14.75,1.79.96"/>
    <path class="cls-1" d="m167.96,157.1l1.16.37"/>
    <path class="cls-1" d="m176.4,161.31c.55.52,1.24.89,1.97,1.08"/>
    <path class="cls-1" d="m180.56,159.35c-.92-.48-1.85-.97-2.77-1.45.61.67,1.14,1.41,1.55,2.22-.55.08-1.13-.09-1.54-.47"/>
    <path class="cls-1" d="m179.17,156.68l1.33.24"/>
    <path class="cls-1" d="m183.27,168.16c.42.68.99,1.26,1.67,1.69.15.09.45-.07.28-.13"/>
    <path class="cls-1" d="m184.66,167.47c.79.7,1.64,1.32,2.55,1.86"/>
    <path class="cls-1" d="m186.03,167c.6.72,1.36,1.31,2.21,1.7"/>
    <path class="cls-1" d="m187.52,165.23c.33.23.49,1.29.82,1.52.05.22.09.44.14.67-.46-.07-.88-.31-1.17-.68"/>
    <path class="cls-1" d="m185.54,170.05c.18.63.61,1.19,1.18,1.51"/>
    <path class="cls-1" d="m187.5,169.06c.21.97.93,1.82,1.85,2.19"/>
    <path class="cls-1" d="m189.3,169.1c.19.5.6.91,1.11,1.09.03-.48-.07-.97-.28-1.4.33.34-.99-.13-.83.31Z"/>
    <path class="cls-1" d="m16.56,168.35l-.9,2.49c.33-.56.57-1.93.9-2.49Z"/>
    <path class="cls-1" d="m17.96,171.88l.87-1.99"/>
    <path class="cls-1" d="m21.1,174.13c.36-.66-.58-2.16-.81-2.87.02.77-.21,1.55-.65,2.19"/>
    <path class="cls-1" d="m4.23,179.95c.06-1.14.3-2.27.69-3.35"/>
    <path class="cls-1" d="m5.69,180.48l.24-2"/>
    <path class="cls-1" d="m7.88,181.2l.06-2.67"/>
    <path class="cls-1" d="m9.87,182.07l.03-1.5"/>
    <path class="cls-1" d="m11.08,181.6c.3-1.65.38-3.34.24-5.02"/>
  </g>
</svg>