<?xml version="1.0" encoding="utf-8"?>
<!-- Generator: Adobe Illustrator 27.2.0, SVG Export Plug-In . SVG Version: 6.00 Build 0)  -->
<svg version="1.1" id="Layer_1" xmlns="http://www.w3.org/2000/svg" xmlns:xlink="http://www.w3.org/1999/xlink" x="0px" y="0px"
	 viewBox="0 0 1366 768" style="enable-background:new 0 0 1366 768;" xml:space="preserve">
<style type="text/css">
	.st0{fill:#EA6A6A;}
	.st1{fill:none;stroke:#221F1F;stroke-width:2;stroke-miterlimit:10;}
	.st2{fill:#231F20;}
</style>
<circle class="st0" cx="486.9" cy="386.8" r="298.7"/>
<g id="Layer_1-2_00000092435217561050930230000017293765863896266936_">
	<path class="st1" d="M452.9,75.5c-84.3,26.2-162.2,72.8-214,138.2c-51.8,65.4-75.5,150.3-55,228.4
		c15.6,59.3,55.5,112.2,106.9,151.9c63.9,49.5,149.9,79.8,233.1,67.8c33.5-4.8,65.6-16.2,95.4-30.8c50.2-24.5,95.8-59.2,122-104.9
		c25.1-43.7,30.9-94.1,33.7-143.2c2.8-49.8,3-100.5-11.2-148.8c-14.2-48.3-43.9-94.4-90.4-121.7c-30-17.6-65.3-26.6-100.6-32.2
		c-73.5-11.7-154.7-8.5-215.2,30.9c-45.1,29.3-73.3,75.1-95.7,121c-39.9,81.9-66.1,172.4-49.6,260.6s82.9,172.6,178.6,196.7
		c90.1,22.7,186.7-10.7,263.9-58.2c47.6-29.3,92.6-66.1,113.5-114.5c17.9-41.6,16.4-87.7,12.1-132.2
		c-6.3-66.3-18.9-134.2-57.8-190.9c-32.2-47.1-81.9-84.2-139.2-104.1c-42.9-14.9-90.4-20.1-135.5-12c-37.7,6.8-73,22.5-104.5,42.4
		c-101.9,64.2-166.6,176.8-156.2,288.3C197.8,519.6,287.9,624,408.1,652.7c40,9.6,82.4,11.1,123.1,4.4
		C627.4,641.3,710,579.9,758,503.2c18.6-29.7,32.7-62,37.4-95.9c6-43.5-3.6-87.7-18-129.6c-14.9-43.3-35.5-85.9-68.3-120.4
		c-32.8-34.4-79.2-60.1-129.5-63"/>
</g>
<g>
	<g>
		<path class="st2" d="M296.4,336.7c0-14-0.3-33.1-0.3-39.6h6.2c0.3,7.8,0.6,24,0.3,39.3c5.2-20.5,19.8-42.5,56.5-42.5
			c25.3,0,50.6,13.6,50.6,59.1v105.8h-6.5V353.6c0-32.8-14.6-53.6-44.5-53.6c-38.6,0-55.8,27.6-55.8,70.8v88h-6.5V336.7z"/>
		<path class="st2" d="M463.5,220.5h6.5v27.6h-6.5V220.5z M463.5,296.8h6.5v161.7h-6.5V296.8z"/>
		<path class="st2" d="M530.4,422.1V526h-6.5V343.9c0-22.1,0-37-0.3-47.1h6.2c0.3,3.2,0.6,26,0.3,41.6c8.4-28.6,26-44.8,58.1-44.8
			c36.7,0,61.7,28.9,61.7,82.1c0,60.7-31.8,85.4-64.6,85.4C556.4,461.1,538.2,447.8,530.4,422.1z M643,375.4
			c0-51.9-24.3-75.6-55.2-75.6c-37.7,0-58.1,26.6-58.1,78.9c0,45.4,13.3,76.3,55.5,76.3C618,454.9,643,428.3,643,375.4z"/>
		<path class="st2" d="M697.6,422.1V526h-6.5V343.9c0-22.1,0-37-0.3-47.1h6.2c0.3,3.2,0.6,26,0.3,41.6c8.4-28.6,26-44.8,58.1-44.8
			c36.7,0,61.7,28.9,61.7,82.1c0,60.7-31.8,85.4-64.6,85.4C723.5,461.1,705.4,447.8,697.6,422.1z M810.2,375.4
			c0-51.9-24.3-75.6-55.2-75.6c-37.7,0-58.1,26.6-58.1,78.9c0,45.4,13.3,76.3,55.5,76.3C785.2,454.9,810.2,428.3,810.2,375.4z"/>
		<path class="st2" d="M978.7,378.3c0,53.2-27.6,82.8-66.9,82.8c-40.3,0-66.2-30.5-66.2-83.4c0-53.9,28.9-84.1,67.8-84.1
			C951.1,293.6,978.7,322.1,978.7,378.3z M852.4,378.3c0,45.4,21.7,76.6,59.4,76.6c36.7,0,60.1-28.9,60.1-77.3
			c0-45.1-20.5-77.9-59.1-77.9C873.5,299.7,852.4,333.2,852.4,378.3z"/>
		<path class="st2" d="M1019.9,336.7c0-14-0.3-33.1-0.3-39.6h6.2c0.3,7.8,0.6,24,0.3,39.3c5.2-20.5,19.8-42.5,56.5-42.5
			c25.3,0,50.6,13.6,50.6,59.1v105.8h-6.5V353.6c0-32.8-14.6-53.6-44.5-53.6c-38.6,0-55.8,27.6-55.8,70.8v88h-6.5V336.7z"/>
		<path class="st2" d="M1181.2,458.5v-34.7h6.5v34.7H1181.2z"/>
	</g>
</g>
</svg>
