<?xml version="1.0" encoding="utf-8"?>
<!-- Generator: Adobe Illustrator 27.2.0, SVG Export Plug-In . SVG Version: 6.00 Build 0)  -->
<svg version="1.1" id="Layer_1" xmlns="http://www.w3.org/2000/svg" xmlns:xlink="http://www.w3.org/1999/xlink" x="0px" y="0px"
	 viewBox="0 0 1366 768" style="enable-background:new 0 0 1366 768;" xml:space="preserve">
<style type="text/css">
	.st0{fill:#EA6A6A;}
	.st1{fill:none;stroke:#221F1F;stroke-width:0.5;stroke-miterlimit:10;}
	.st2{fill:#231F20;}
</style>
<circle class="st0" cx="428.8" cy="359.2" r="298.7"/>
<g id="Layer_1-2_00000092435217561050930230000017293765863896266936_">
	<path class="st1" d="M394.9,47.9c-84.3,26.2-162.2,72.8-214,138.2c-51.8,65.4-75.5,150.3-55,228.4
		c15.6,59.3,55.5,112.2,106.9,151.9c63.9,49.5,149.9,79.8,233.1,67.8c33.5-4.8,65.6-16.2,95.4-30.8c50.2-24.5,95.8-59.2,122-104.9
		c25.1-43.7,30.9-94.1,33.7-143.2c2.8-49.8,3-100.5-11.2-148.8c-14.2-48.3-43.9-94.4-90.4-121.7c-30-17.6-65.3-26.6-100.6-32.2
		c-73.5-11.7-154.7-8.5-215.2,30.9c-45.1,29.3-73.3,75.1-95.7,121c-39.9,81.9-66.1,172.4-49.6,260.6S237.4,637.7,333,661.7
		c90.1,22.7,186.7-10.7,263.9-58.2c47.6-29.3,92.6-66.1,113.5-114.5c17.9-41.6,16.4-87.7,12.1-132.2
		c-6.3-66.3-18.9-134.2-57.8-190.9c-32.2-47.1-81.9-84.2-139.2-104.1c-42.9-14.9-90.4-20.1-135.5-12c-37.7,6.8-73,22.5-104.5,42.4
		c-101.9,64.2-166.6,176.8-156.2,288.3C139.8,492,229.8,596.4,350.1,625.1c40,9.6,82.4,11.1,123.1,4.4
		c96.2-15.8,178.8-77.2,226.8-153.8c18.6-29.7,32.7-62,37.4-95.9c6-43.5-3.6-87.7-18-129.6c-14.9-43.3-35.5-85.9-68.3-120.4
		s-79.2-60.1-129.5-63"/>
</g>
<g>
	<g>
		<path class="st2" d="M238.3,309.1c0-14-0.3-33.1-0.3-39.6h6.2c0.3,7.8,0.6,24,0.3,39.3c5.2-20.5,19.8-42.5,56.5-42.5
			c25.3,0,50.6,13.6,50.6,59.1v105.8h-6.5V326c0-32.8-14.6-53.6-44.5-53.6c-38.6,0-55.8,27.6-55.8,70.8v88h-6.5V309.1z"/>
		<path class="st2" d="M405.5,192.9h6.5v27.6h-6.5V192.9z M405.5,269.2h6.5v161.7h-6.5V269.2z"/>
		<path class="st2" d="M472.4,394.5v103.9h-6.5V316.3c0-22.1,0-37-0.3-47.1h6.2c0.3,3.2,0.6,26,0.3,41.6c8.4-28.6,26-44.8,58.1-44.8
			c36.7,0,61.7,28.9,61.7,82.1c0,60.7-31.8,85.4-64.6,85.4C498.3,433.5,480.2,420.1,472.4,394.5z M585,347.8
			c0-51.9-24.3-75.6-55.2-75.6c-37.7,0-58.1,26.6-58.1,78.9c0,45.4,13.3,76.3,55.5,76.3C560,427.3,585,400.7,585,347.8z"/>
		<path class="st2" d="M639.5,394.5v103.9h-6.5V316.3c0-22.1,0-37-0.3-47.1h6.2c0.3,3.2,0.6,26,0.3,41.6c8.4-28.6,26-44.8,58.1-44.8
			c36.7,0,61.7,28.9,61.7,82.1c0,60.7-31.8,85.4-64.6,85.4C665.5,433.5,647.3,420.1,639.5,394.5z M752.2,347.8
			c0-51.9-24.3-75.6-55.2-75.6c-37.7,0-58.1,26.6-58.1,78.9c0,45.4,13.3,76.3,55.5,76.3C727.2,427.3,752.2,400.7,752.2,347.8z"/>
		<path class="st2" d="M920.7,350.7c0,53.2-27.6,82.8-66.9,82.8c-40.3,0-66.2-30.5-66.2-83.4c0-53.9,28.9-84.1,67.8-84.1
			C893.1,266,920.7,294.5,920.7,350.7z M794.4,350.7c0,45.4,21.7,76.6,59.4,76.6c36.7,0,60.1-28.9,60.1-77.3
			c0-45.1-20.5-77.9-59.1-77.9C815.5,272.1,794.4,305.6,794.4,350.7z"/>
		<path class="st2" d="M961.9,309.1c0-14-0.3-33.1-0.3-39.6h6.2c0.3,7.8,0.6,24,0.3,39.3c5.2-20.5,19.8-42.5,56.5-42.5
			c25.3,0,50.6,13.6,50.6,59.1v105.8h-6.5V326c0-32.8-14.6-53.6-44.5-53.6c-38.6,0-55.8,27.6-55.8,70.8v88h-6.5V309.1z"/>
		<path class="st2" d="M1123.2,430.9v-34.7h6.5v34.7H1123.2z"/>
	</g>
</g>
</svg>
