<?xml version="1.0" encoding="UTF-8"?>
<svg id="Layer_2" data-name="Layer 2" xmlns="http://www.w3.org/2000/svg" viewBox="0 0 154.16 208.18">
  <defs>
    <style>
      .cls-1 {
        stroke-width: .25px;
      }

      .cls-1, .cls-2 {
        fill: none;
        stroke: #000;
        stroke-miterlimit: 10;
      }

      .cls-2 {
        stroke-width: .5px;
      }
    </style>
  </defs>
  <g id="Layer_1-2" data-name="Layer 1">
    <path class="cls-2" d="m.21,195.21c6.49-10.29,12.98-20.59,19.02-31.15,2.94-5.14,5.8-10.44,6.95-16.24,1.61-8.14-.29-16.6.7-24.84.64-5.25,2.43-10.28,3.91-15.36,1.81-6.22,3.14-12.56,4.47-18.9,2.33-11.08,4.67-22.46,2.91-33.65-.42-2.69-1.03-5.66.44-7.95,1.41-2.19,4.42-2.95,6.93-2.28s4.57,2.5,6.16,4.56c5.47,7.1,6.13,16.75,5.61,25.7s-1.97,18.06.09,26.78c1.09,4.61,3.14,8.94,4.77,13.39,3.27,8.9,4.93,18.39,4.86,27.87-.06,8.83-1.59,17.75.07,26.41"/>
    <path class="cls-2" d="m134.85,69.99c-1.13,2.22-2.07,4.59-2.23,7.08s.55,5.11,2.31,6.87c.86.86,1.51,1.09,2.01,2.14.54,1.14.56,2.91.8,4.15.27,1.38.54,2.81.24,4.19"/>
    <path class="cls-2" d="m141.07,112.53l.74,6.27"/>
    <path class="cls-2" d="m143.09,130.46c.65,3.58,1.24,7.18,1.77,10.78.45,3.09.85,6.21.61,9.32-.12,1.51-.4,3.06-1.24,4.32-1.17,1.77-3.22,2.71-5.16,3.56"/>
    <path class="cls-2" d="m138.59,90.85c1.31.58,1.5,2.46.87,3.75s-1.78,2.24-2.61,3.41c-1.43,2.01-1.85,4.66-1.37,7.08s1.8,4.63,3.52,6.41c1.17,1.21,2.69,2.3,4.37,2.18.79-.05,1.55-.38,2.25-.75,2.23-1.2,4.17-3.07,5.08-5.44.44-1.15.64-2.38.73-3.61.46-6.03-1.91-12.63-7.14-15.66"/>
    <path class="cls-2" d="m129.69,31.28c1.34-1.1,2.97-1.85,4.68-2.13,1.88-.31,3.96,0,5.39,1.26,1.7,1.51,2.12,3.96,2.38,6.22.17,1.46.31,3-.27,4.36-.59,1.39-1.84,2.38-3.04,3.3-1.98,1.52-3.96,3.05-5.94,4.57"/>
    <path class="cls-2" d="m58.2,208.17c.23-6.4,4.17-12.13,8.87-16.48,4.7-4.35,10.24-7.7,15.06-11.92,1.92-1.68,3.72-3.5,5.43-5.4,2.07-2.31,4.01-4.74,5.8-7.27"/>
    <path class="cls-2" d="m52.92,51.66l-1.94-20.72c-.54-5.74-.94-12.03,2.38-16.75,3.79-5.39,11.04-6.81,17.56-7.8,12.26-1.86,24.52-3.71,36.78-5.57,4.18-.63,8.74-1.2,12.38.96,2.29,1.36,3.89,3.64,5.12,6,4.62,8.92,4.72,19.38,5.91,29.36.9,7.55,2.49,15,3.34,22.55.38,3.33.5,3.99,3.72,4.63s6.01,2.2,8.25,4.65c2.73,3,4.42,6.77,6.02,10.49.36.85.73,1.74.68,2.66-.05.74-.37,1.44-.77,2.07-1.6,2.5-4.57,4.07-7.54,3.97-2.79-.09-5.34-1.51-7.77-2.9"/>
    <path class="cls-2" d="m142.72,116.86c-2.06,2.73-2.21,6.44-1.89,9.85.13,1.32.34,2.7,1.14,3.75.79,1.04,2.06,1.63,3.35,1.85s2.6.12,3.91.01c.67-.05,1.35-.11,1.97-.36,1.21-.49,2.04-1.66,2.41-2.92s.33-2.59.23-3.89c-.07-.94-.17-1.89-.31-2.82-.08-.54-.17-1.09-.44-1.57-.37-.65-1.03-1.06-1.64-1.5-1.62-1.17-3.01-2.65-4.69-3.73s-3.81-1.74-5.68-1.03"/>
    <path class="cls-2" d="m66.47,155.66c.23,3.05,1.12,9.65,5.65,12.03,2.71,1.43,5.48.7,9.79-.12,6.24-1.18,12.66-1.18,18.9-2.35,9.87-1.85,23.52-4.24,40.67-7.26"/>
    <path class="cls-2" d="m54.47,25.24c5.83,31.52,7.5,43.41,7.89,48.25.06.8.52,6.02,1.19,13.26.19,2.11.41,4.23.66,6.33,1.37,11.36,4.31,25.65,4.38,25.98,1.61,7.53,3.63,18.99,5.22,35.69.56,0,1.37-.05,2.33-.26,1.45-.32,2.45-.85,2.57-.9,1.38-.67,18.25-3.28,63.52-9.37"/>
    <path class="cls-2" d="m122.6,16.53c4.35,27.99,8.7,55.98,13.05,83.98"/>
    <path class="cls-2" d="m137.32,109.84c1.53,11.82,3.06,23.63,4.59,35.45"/>
    <path class="cls-2" d="m54.47,25.24c1.72-.63,3.54-.91,5.35-1.19,6.03-.92,12.07-1.85,18.16-2.15,2.67-.13,5.34-.15,8.01-.25,9.22-.37,18.36-1.85,27.47-3.33,2.68-.43,5.36-.87,7.96-1.65"/>
    <path class="cls-2" d="m73.93,10.3c-.47.26-1.06.19-1.59.27-1.49.23-2.57,1.88-2.27,3.36s1.87,2.55,3.37,2.37,2.75-1.52,2.91-3.02c.15-1.42-.66-2.88-1.93-3.52"/>
    <path class="cls-2" d="m96.5,11.33c-.12-1.24-.24-2.47-.36-3.71-.02-.2-.06-.43-.24-.51-.14-.06-.3,0-.44.03-1.06.29-2.16-.21-3.24-.39-1.07-.19-2.16-.07-3.23.09-2.96.44-5.86,1.22-8.64,2.31-.27.1-.57.29-.55.58.11,1.62.27,3.23.48,4.84,3.36-.72,6.43-1.1,9.75-1.99,1.93-.52,4.61-.5,6.47-1.24Z"/>
    <path class="cls-2" d="m102.32,158.64c.74,1.27,2.31,2,3.76,1.74.89-.16,1.68-.64,2.44-1.14,1.05-.69,2.15-1.59,2.26-2.84.56-6.21-11.97-3.79-8.46,2.23Z"/>
    <path class="cls-2" d="m40.35,61.46c1.55-.04,3.1-.38,4.52-1.01.32-.14.65-.31.88-.57.41-.48.44-1.17.44-1.8-.02-2.21-.19-4.45-.96-6.51s-2.21-3.96-4.21-4.89"/>
    <path class="cls-2" d="m149.54,103.02c0-1.65-1.07-3.09-2.09-4.39-.52-.66-1.08-1.35-1.86-1.66-1.9-.74-3.57,1.24-1.58,2.53,3.02,1.96,4.97,5.48,5.02,9.08"/>
    <path class="cls-2" d="m145.54,69.89c-.66.94-1.32,1.94-1.49,3.08s.31,2.46,1.38,2.88c.4.16.85.18,1.27.3.57.16,1.07.51,1.53.88,1.89,1.54,3.22,3.74,3.71,6.13"/>
    <path class="cls-2" d="m134.44,70.44c-.14,0,.1.16.19.06.79-.82.76-2.11.68-3.26-.09-1.32-.19-2.65-.28-3.97"/>
    <path class="cls-2" d="m57.07,75.99c1.44,12.98,3.08,25.93,4.91,38.86"/>
    <path class="cls-2" d="m67.55,51.44c-.34-2.57-.69-5.14-.84-7.72-.11-1.9-.07-3.98,1.11-5.48.76-.97,1.89-1.56,3.02-2.04,4.18-1.78,8.74-2.4,13.24-3,7.35-.99,14.69-1.97,22.04-2.96,1.93-.26,3.97-.51,5.78.24,2.39.99,3.77,3.49,4.63,5.93,1.26,3.57,1.79,7.36,2.31,11.11,1.47,10.65,2.95,21.29,4.42,31.94.29,2.06.34,4.63-1.46,5.68-.56.33-1.21.44-1.85.54-12.06,1.95-24.17,3.59-36.31,4.92-3.63.4-8.57,1.75-10.67-2.22-1.07-2.03-1.11-4.66-1.4-6.87-.41-3.07-.82-6.15-1.23-9.22-.93-6.95-1.86-13.9-2.78-20.85Z"/>
    <path class="cls-2" d="m130.77,144.95c-.15-1.56-1.12-2.52-1.22-4.08-.71-11.86-1.69-23.69-2.95-35.5-.41-3.86-1-8.03-3.74-10.77-.59-.59-1.29-1.1-2.11-1.25-.75-.14-1.51.04-2.25.21-12.34,2.89-24.86,5.03-37.47,6.4-2.18.24-4.68.65-5.78,2.54-.62,1.06-.62,2.36-.6,3.58.35,15.68,4.61,30.81,5.44,46.38"/>
    <path class="cls-2" d="m87.34,46.92c-5.36,3.4-9.39,9.35-9.23,15.69.15,6.04,4.31,11.75,9.97,13.85s12.47.55,16.74-3.72,5.83-11.01,3.99-16.76c-2.7-8.43-13.65-14.02-21.47-9.06Z"/>
    <path class="cls-1" d="m103.79,32.16c-.03-.27-.44-.33-.64-.15s-.24.48-.24.75c-.02,2.64,2.03,5,4.5,5.9s5.27.56,7.74-.35"/>
    <path class="cls-1" d="m110.44,51.49c-.11-.6-.22-1.22-.08-1.82s.6-1.16,1.21-1.22c.77,4.93,1.44,9.87,2,14.82.49,4.26,1.88,9.74,1.21,13.94-2.62-1.33-1.91-8.7-2.19-11.24-.55-4.85-1.26-9.68-2.14-14.49Z"/>
    <path class="cls-1" d="m117.07,76.96c.02.27.05.57.24.76.34.34.97.09,1.18-.33s.14-.94.06-1.41c-1.32-7.86-2.21-15.79-2.67-23.75-.11-1.91-1.92-4.46-2.3-1.45-.32,2.54,1.18,6.34,1.57,8.9.88,5.73,1.52,11.49,1.92,17.28Z"/>
    <path class="cls-1" d="m93.9,61.86c.13-.61-.4-1.26-1.02-1.27.71.03,1.41.21,2.05.52-.13-.4-.26-.81-.21-1.23s.34-.83.75-.89c.17-.02.35,0,.51-.05.42-.15.4-.76.22-1.17s-.42-.89-.19-1.27c.34.1.68.2,1.03.3.88-.96.35-2.49-.21-3.66-.22,1.11-1.1,2.06-2.19,2.37-.13.04-.29.07-.4-.01s-.13-.29,0-.33c.49.3,1.13-.3,1.1-.88s-.46-1.04-.87-1.45c.71.07,1.24-.93.8-1.48-.53-.66-1.93-.6-1.94-1.45-.44.59-1.18.95-1.91.93.2.2.34.47.37.75-.22-.33-.8.02-1.14-.2-.17-.12-.22-.35-.34-.52-.28-.41-1.03-.3-1.19.17-.12.37.09.75.23,1.11s.18.85-.15,1.06c-.2-.17-.41-.33-.61-.5-.33.46-.07,1.08.06,1.63s-.03,1.33-.6,1.34c-.4-.18-.62-.61-.93-.93s-.91-.47-1.15-.1c-.27.41.2.89.56,1.23s.55,1.09.06,1.19c-1.01.21-1.99,1.25-2.45,2.17.19,0,.22-.31.06-.42s-.37-.04-.54.03c-.48.21-.91.54-1.22.96-.25.32-.43.78-.21,1.12.26.4.85.33,1.33.39.58.07,1.13.42,1.38.95s.16,1.21-.25,1.61c-.69.67-2.11.59-2.32,1.53-.16.69.54,1.25,1.16,1.59.57.32,1.35.59,1.81.13-.36.12-.3.71.03.89s.74.07,1.09-.09c.46-.21.9-.51,1.16-.95s.29-1.03-.02-1.44c-.3-.39-.85-.53-1.11-.95-.44-.71.42-1.68,1.24-1.56s1.38.96,1.51,1.78c.09.59.04,1.26.43,1.7.26-.42.79-.57,1.25-.76s.95-.56.91-1.05c-.03-.33-.29-.63-.2-.94"/>
    <path class="cls-1" d="m89.06,60.45c.34.35.95-.1,1-.58s-.18-.95-.16-1.44"/>
    <path class="cls-1" d="m92.42,55.36c.16-.57-.34-1.22-.93-1.21-.9.01-1.32,1.66-1,2.35"/>
    <path class="cls-1" d="m93.8,56.46c-.06.36-.07.74.09,1.06s.55.56.89.44.47-.66.16-.85"/>
    <path class="cls-1" d="m86.99,59.77c-.46.03-.84.53-.74.98s.66.74,1.09.56c.5.42,2.13,1.59,2.69,1.26"/>
    <path class="cls-1" d="m92.54,62.2v.72"/>
    <path class="cls-1" d="m94.86,62.02c.59-1.06,6.42,2.29,5.17-2.24-.38-1.36-2.25-2.04-3.41-1.23"/>
    <path class="cls-1" d="m90.91,66.21c-.07-.21-.36-.27-.55-.16s-.29.33-.34.54c-.4,1.47.85,3.15,2.38,3.18s2.84-1.61,2.49-3.09"/>
    <path class="cls-1" d="m86.44,67.84c-.92.41-1.45,1.53-1.21,2.5s1.21,1.72,2.21,1.72,1.96-.73,2.25-1.69"/>
    <path class="cls-1" d="m94.48,62.87c-.77.6-.52,1.81-.2,2.73.25.73.56,1.52,1.24,1.88.64.34,1.45.19,2.07-.19s1.07-.97,1.52-1.54"/>
    <path class="cls-1" d="m98.98,58.44c.75.67,2.12.17,2.4-.79s-.47-2.04-1.44-2.28-2.04.25-2.64,1.06"/>
    <path class="cls-1" d="m93.39,69.67c-.69,1-.13,2.53.96,3.05s2.48.13,3.32-.74,1.2-2.12,1.2-3.34"/>
    <path class="cls-1" d="m99.9,66.12c-.22.08-.11.42.07.57.91.82,2.47.67,3.31-.23s.92-2.35.33-3.42-1.78-1.75-3-1.87"/>
    <path class="cls-1" d="m97.08,53.38c-.4-.66.34-1.44,1.05-1.76.53-.24,1.11-.41,1.68-.33s1.13.47,1.27,1.03c.07.29.03.59-.02.88-.21,1.17-.64,2.3-1.24,3.32"/>
    <path class="cls-1" d="m98.6,61.84l.23,3.04"/>
    <path class="cls-1" d="m101.63,62.29c.86.29,1.83-.25,2.31-1.02s.58-1.71.62-2.62c.01-.31.01-.65-.18-.9-.21-.28-.59-.36-.93-.42-.53-.09-1.07-.19-1.6-.28"/>
    <path class="cls-1" d="m101.14,54.48c-.29-.57.25-1.3.89-1.36s1.23.4,1.53.96.37,1.21.44,1.85"/>
    <path class="cls-1" d="m106.01,31.55c.06-.44-.71-.56-.92-.17s.09.89.47,1.1.85.24,1.28.33.89.31,1.05.72c.24.62-.55,1.34-1.15,1.04-.28.62.23,1.46.92,1.48s1.25-.78,1-1.42c-.08.61.61,1.19,1.2.99s.81-1.06.38-1.51c-.54.29-.42,1.26.17,1.41.58.15,1.32-.36,1.73.07.22.23.22.63.49.78.28.15.6-.07.81-.31.37-.43.64-.96.76-1.52.05-.23.07-.5-.09-.67-.18-.2-.52-.16-.72.02s-.27.46-.29.72c-.04.69.3,1.41.91,1.74s1.46.17,1.85-.4.18-1.48-.45-1.75"/>
    <path class="cls-1" d="m111.36,32.35c-.37.06-.5.63-.21.85.5-.3.8-1.01.46-1.49s-1.31-.2-1.21.37c-.58-.37-2.36-.45-2.31.23.56-.02,3.09.56,3.27.04Z"/>
    <path class="cls-1" d="m77.91,39.48c.21-.17.66-.49,1.23-.46.6.03,1.06.53,1.46.98-2.31,2.15-5.06,5.36-6.72,9.84-1.4,3.78-1.29,6.48-1.75,6.46-.71-.02-2.57-6.37.36-11.64.96-1.73,2.45-2.88,5.42-5.18Z"/>
    <path class="cls-1" d="m70.72,72.58c.16,1.14,1.07,2.14,2.19,2.41s2.39-.21,3.05-1.15c.17,1.34.5,2.91,1.73,3.46.36.16.77.22,1.13.38.71.32,1.19,1.1,1.16,1.88,1.4-.17,2.84,0,4.16.51-.2-.84-.75-1.6-1.49-2.06,1.3-.46,2.59.73,3.3,1.91s1.34,2.61,2.65,3.05c.7.24,1.52.15,2.12.58.42.3.66.81,1.09,1.11.44.3,1,.31,1.53.4,1.07.17,2.08.66,2.87,1.39"/>
    <path class="cls-1" d="m77.13,80.82c-.02-.19-.21-.34-.4-.33.14.86,1.12,1.26,1.93,1.57,1.99.75,3.85,1.85,5.48,3.23"/>
    <path class="cls-1" d="m87.5,88.03l2.18,1.2"/>
    <path class="cls-1" d="m78.04,86.72c1.47.14,2.85,1.06,3.54,2.37"/>
    <path class="cls-1" d="m74.64,86.55c-.29.24-.04.7.23.97.76.73,1.65,1.33,2.61,1.75"/>
    <path class="cls-1" d="m78.37,38.81c-.72-.26-1.48-.41-2.24-.46,1.17-.61,2.65-.6,3.81.03-.85-.36-1.28-1.49-.89-2.33.71,1.09,1.39,2.2,2.03,3.33-.41-.36-.5-1.02-.2-1.48s.95-.63,1.44-.4c.17.12-.14.29-.34.35-.53.15-.55.97-.14,1.34s1,.41,1.55.42c.08.37-.54.31-.9.39-.47.11-.63.74-.45,1.19s.57.76.91,1.1.65.79.58,1.26c-.59-.52-1.06-1.17-1.36-1.89-.05.84-.2,1.68-.45,2.48-.07.23-.15.47-.34.62s-.5.17-.64-.02c.2-1.5.01-3.06-.54-4.47"/>
    <path class="cls-1" d="m92.24,120.48c-1.44.83-2.53,2.16-3.39,3.58-2.74,4.53-3.11,10.9.48,14.79,3.13,3.39,8.48,4.01,12.85,2.51,2.03-.7,3.98-1.86,5.15-3.66,1.21-1.86,1.44-4.18,1.52-6.4.09-2.63-.1-5.55-1.95-7.43-1.06-1.08-2.51-1.65-3.92-2.19-3.34-1.29-7.25-3.2-10.74-1.19Z"/>
    <path class="cls-1" d="m95.14,125.23c-.02-.45-.64-.67-1.04-.46s-.61.66-.73,1.1c-.36,1.22-.32,2.56.1,3.76.26.76.7,1.49,1.38,1.92s1.62.51,2.26.03c.75-.56.88-1.63.85-2.57-.03-.85-.13-1.74-.57-2.47s-1.27-1.29-2.11-1.18"/>
    <path class="cls-1" d="m95.28,127.39c-.32-.33-.93-.05-1.06.39s.06.9.29,1.29c.2.35.5.72.9.7.44-.02.71-.55.62-.99s-.41-.77-.73-1.08"/>
    <path class="cls-1" d="m91.61,128.55c-.5.83-.31,1.92.12,2.79s1.08,1.62,1.52,2.49c.73,1.45,1.2,4.48.92,6.08"/>
    <path class="cls-1" d="m96.52,139.63c.08,0,.06.14-.01.14s-.13-.07-.17-.13c-.51-.9-.23-2.03-.41-3.05-.29-1.63-1.75-2.91-1.91-4.56"/>
    <path class="cls-1" d="m99.29,138.7c-.83-2.17-2.32-4.21-2.77-6.49-.2,2.36.4,4.77,1.7,6.75"/>
    <path class="cls-1" d="m100.83,137.27c-.49-2.36-1.52-4.62-2.98-6.54"/>
    <path class="cls-1" d="m102.17,136.38c-.55-1.39-.65-2.91-1.07-4.35-.53-1.84-1.57-3.52-2.98-4.81"/>
    <path class="cls-1" d="m96.08,86.29c1.21.65,2.38,1.38,3.5,2.17"/>
    <path class="cls-1" d="m138.38,96.06c.1-.72.06-1.45-.11-2.16"/>
    <path class="cls-1" d="m85.98,131.64c.16,3.69,2.04,7.34,5.16,9.32.91.58,1.9,1.01,2.92,1.35,1.71.58,3.53.94,5.34.82,3.73-.25,7.2-2.61,9.02-5.88s2.03-7.33.78-10.86c-.35-.99-.82-1.96-1.55-2.72-.5-.51-1.1-.91-1.71-1.29-2.46-1.54-5.13-2.85-8.01-3.23-7.38-.98-12.24,5.52-11.95,12.49Z"/>
    <path class="cls-1" d="m98.77,122.15c-.28-.41-.58-.81-.98-1.1s-.92-.45-1.4-.31c-.58.17-1,.8-.91,1.4s.66,1.09,1.27,1.09c1.25-.01,2.21.67,3.32,1.26s2.09,1.49,2.53,2.66c.49,1.28.27,2.72-.09,4.05s-.84,2.64-.87,4.02.5,2.87,1.7,3.53c1.62.89,3.79-.19,4.62-1.85s.62-3.64.13-5.43c-.25-.91-.56-1.81-.63-2.75-.06-.82.07-1.7-.3-2.44-.35-.71-1.08-1.14-1.77-1.53-1.94-1.08-5.38-.75-6.62-2.59Z"/>
    <path class="cls-1" d="m89.66,129.85c-.5.59-.87,1.34-.83,2.11s.6,1.54,1.37,1.65c.22.03.46,0,.65-.1.4-.22.56-.74.49-1.19s-.32-.86-.56-1.24c.08-.14.15-.28.23-.42-.07.12-.27,0-.27-.13s.1-.25.16-.38c.11-.26,0-.6-.25-.75s-.6-.07-.77.17c-.11.16-.18.39-.37.44-.14.03-.29-.06-.41,0-.1.05-.13.18-.14.29-.07.45-.14.89-.21,1.34-.07.42-.12.89.15,1.22.39.48,1.16.31,1.74.53.13.05.26.12.4.11.21-.02.34-.22.43-.4.63-1.34-.01-3.13-1.35-3.76"/>
    <path class="cls-1" d="m90.55,135.64c-.35-.05-.63.33-.63.68s.21.66.41.96c.15.22.31.46.56.58.34.17.77.06,1.07-.18s.47-.6.59-.96c.13-.38.21-.79.12-1.18s-.41-.74-.81-.79c-.38-.04-.75.19-1.12.14-.26-.04-.48-.21-.72-.32s-.56-.15-.74.05c.31,1.26.86,2.46,1.61,3.52.13.18.29.38.51.41.36.05.61-.32.78-.64.19-.36.38-.73.56-1.09.1-.2.21-.41.23-.63.03-.42-.27-.81-.64-1.02s-.81-.26-1.23-.31c-.26-.03-.54-.06-.8-.01"/>
    <path class="cls-1" d="m92.74,132.13c-.18-.24-.6-.15-.77.09s-.18.57-.18.87c0,.39.03.8.2,1.16s.55.64.94.59c.32-.04.63-.28.93-.19.16.05.31.19.47.14.13-.04.18-.19.21-.32.21-1.03-.41-2.16-1.38-2.55-.21-.08-.46-.14-.67-.05-.17.07-.29.22-.4.37-.33.49-.52,1.14-.25,1.67.38.75,1.41.83,2.25.81.23,0,.52-.04.61-.25.05-.12.03-.25,0-.38-.17-.65-.6-1.23-1.18-1.58"/>
    <path class="cls-1" d="m91.15,126.62c-.44,0-.87.28-1.03.69s-.06.91.25,1.22c.41.4,1.1.45,1.45.91.17.22.34.56.61.49.07-.02.14-.07.19-.12.4-.39.53-.99.45-1.54s-.36-1.05-.7-1.49c-.08-.11-.17-.21-.28-.28-.31-.17-.69.01-.99.19-.32.19-.67.41-.77.77-.18.62.46,1.16,1.01,1.49.45.27.89.54,1.34.81.07.04.15.09.23.07.15-.02.2-.21.21-.35.03-.26.06-.52.09-.78"/>
    <path class="cls-1" d="m96.81,121.41c2.16,1.07,4.37,2.18,6.05,3.91s2.77,4.24,2.18,6.58c-.17.68-.47,1.32-.63,2-.22.97-.12,2,.26,2.91"/>
    <path class="cls-1" d="m99.73,113.04c.45,1.6,1.46,2.99,2.62,4.18,3.7,3.79,9.78,5.74,14.44,3.23,4.07-2.19,6.01-7.21,5.64-11.81-.17-2.14-.8-4.32-2.25-5.9-1.5-1.64-3.69-2.44-5.82-3.07-2.53-.75-5.4-1.29-7.68.03-1.31.75-2.23,2.02-3.11,3.24-2.09,2.91-4.92,6.22-3.84,10.1Z"/>
    <path class="cls-1" d="m105.05,111.42c-.44-.09-.81.45-.71.89s.49.75.88.98c1.1.65,2.4.95,3.67.85.8-.07,1.62-.31,2.2-.85s.9-1.44.59-2.18c-.35-.87-1.36-1.26-2.28-1.46-.83-.19-1.71-.3-2.54-.07s-1.57.9-1.67,1.75"/>
    <path class="cls-1" d="m107.18,111.83c-.4.22-.28.89.11,1.12s.89.16,1.33.04c.39-.11.83-.3.91-.7.09-.43-.36-.83-.8-.85s-.85.2-1.23.44"/>
    <path class="cls-1" d="m107.39,115.67c.68.7,1.78.78,2.73.58s1.84-.64,2.79-.84c1.58-.34,4.64-.04,6.12.63"/>
    <path class="cls-1" d="m119.35,113.69c0-.08.15-.03.14.05s-.1.11-.17.13c-1,.27-2.02-.28-3.05-.36-1.65-.13-3.25.97-4.89.71"/>
    <path class="cls-1" d="m119.14,110.78c-2.31.26-4.65,1.19-6.97,1.06,2.23.79,4.72.8,6.96.04"/>
    <path class="cls-1" d="m118.13,108.92c-2.41-.11-4.85.32-7.08,1.25"/>
    <path class="cls-1" d="m117.61,107.41c-1.48.18-2.98-.09-4.48-.05-1.91.05-3.8.64-5.41,1.68"/>
    <path class="cls-1" d="m108.97,121.9c3.61.77,7.62-.14,10.31-2.66.78-.73,1.45-1.59,2.04-2.49.99-1.51,1.79-3.18,2.12-4.96.69-3.68-.72-7.62-3.43-10.2s-6.59-3.8-10.32-3.48c-1.05.09-2.1.3-3.02.82-.62.35-1.16.84-1.68,1.33-2.1,2-4.04,4.26-5.13,6.94-2.8,6.9,2.28,13.24,9.1,14.7Z"/>
    <path class="cls-1" d="m102.98,107.14c-.47.16-.93.35-1.31.67s-.66.78-.65,1.27c.01.61.52,1.16,1.13,1.23s1.22-.37,1.37-.96c.3-1.21,1.2-1.98,2.05-2.9s1.97-1.65,3.21-1.78c1.37-.15,2.7.42,3.9,1.1s2.35,1.47,3.67,1.85,2.9.23,3.84-.77c1.27-1.35.77-3.72-.63-4.93s-3.37-1.51-5.23-1.48c-.94.01-1.89.09-2.82-.08-.81-.15-1.63-.49-2.44-.32-.78.16-1.38.76-1.93,1.33-1.53,1.6-2.07,5.02-4.16,5.76Z"/>
    <path class="cls-1" d="m108.15,117.88c.44.63,1.07,1.18,1.83,1.33s1.64-.2,1.94-.91c.09-.21.12-.44.07-.66-.11-.44-.57-.73-1.03-.77s-.91.09-1.34.23c-.12-.11-.23-.22-.35-.33.1.09-.06.27-.2.23s-.22-.16-.33-.25c-.23-.18-.59-.15-.79.06s-.21.57-.03.79c.12.15.34.27.33.46,0,.14-.13.27-.1.4.03.11.14.17.24.21.41.18.83.36,1.24.54.39.17.83.34,1.22.16.56-.26.59-1.05.95-1.55.08-.11.18-.22.21-.36.03-.2-.12-.39-.28-.52-1.14-.95-3.04-.77-3.98.37"/>
    <path class="cls-1" d="m113.98,118.47c-.13.33.16.7.51.78s.7-.04,1.03-.15c.26-.09.52-.19.7-.39.25-.29.25-.73.09-1.08s-.47-.61-.78-.82c-.33-.22-.71-.4-1.11-.41s-.82.21-.97.58c-.14.35,0,.77-.15,1.12-.1.24-.32.41-.49.62s-.28.51-.14.73c1.3.02,2.6-.22,3.81-.68.21-.08.44-.19.53-.4.14-.33-.16-.67-.42-.91-.3-.27-.61-.55-.91-.82-.17-.15-.34-.3-.56-.38-.4-.14-.86.06-1.15.37s-.45.72-.61,1.11c-.1.25-.2.5-.21.77"/>
    <path class="cls-1" d="m111.14,115.48c-.28.12-.3.54-.1.77s.51.32.8.39c.38.09.78.17,1.17.09s.76-.37.81-.76c.04-.32-.12-.68.05-.95.09-.14.26-.25.25-.42-.01-.13-.14-.22-.26-.28-.94-.46-2.19-.14-2.81.7-.14.19-.25.41-.21.64.03.18.14.34.26.48.39.44.98.79,1.56.66.83-.18,1.16-1.16,1.35-1.98.05-.23.09-.51-.09-.66-.1-.08-.24-.09-.37-.09-.67,0-1.34.27-1.82.74"/>
    <path class="cls-1" d="m105.41,115.64c-.11.43.06.91.41,1.17s.87.29,1.24.06c.49-.3.71-.95,1.24-1.18.26-.11.63-.19.63-.47,0-.08-.03-.15-.07-.22-.28-.48-.83-.76-1.38-.82s-1.11.09-1.62.3c-.12.05-.25.11-.34.21-.24.26-.16.67-.06,1.01.1.36.23.75.55.94.56.33,1.24-.15,1.7-.61.37-.36.74-.73,1.12-1.09.06-.06.12-.12.13-.2.01-.15-.15-.24-.29-.3-.24-.09-.49-.19-.73-.28"/>
    <path class="cls-1" d="m101.77,108.85c1.58-1.82,3.2-3.68,5.3-4.88s4.8-1.62,6.91-.46c.61.33,1.16.79,1.78,1.11.88.45,1.9.62,2.88.47"/>
    <path class="cls-1" d="m105.27,132.89c.12.71.54,1.37,1.13,1.78"/>
    <path class="cls-1" d="m105.49,131.9c.26.47.57.9.93,1.3"/>
    <path class="cls-1" d="m105.25,130.21l.77.89"/>
    <path class="cls-1" d="m105.13,129.01c.28.32.72.5,1.14.48"/>
    <path class="cls-1" d="m104.33,127.44c.54.33,1.2.44,1.82.29"/>
    <path class="cls-1" d="m103.26,129.53c.19-.9.21-1.84.06-2.75"/>
    <path class="cls-1" d="m104.46,127.77l-.65,3.43"/>
    <path class="cls-1" d="m104.82,130.84c-.41.67-.72,1.4-.93,2.16"/>
    <path class="cls-1" d="m106.98,103.98c.61-.82,1.4-1.5,2.29-1.99"/>
    <path class="cls-1" d="m109.13,103.26c1.18-1.12,2.71-1.86,4.31-2.1"/>
    <path class="cls-1" d="m112.12,102.66c.98-.24,1.98-.35,2.99-.35"/>
    <path class="cls-1" d="m114.39,103.86c.63-.3,1.38-.33,2.03-.09"/>
    <path class="cls-1" d="m107.68,104.15l2.8-.71c.81-.21,1.82-.35,2.35.3.82.12,2.18.76,2.64,1.44.32.47,1.22.61,1.66.96"/>
    <path class="cls-1" d="m106.23,108.66c-.03-.2.11-.39.25-.53,1.37-1.4,3.53-1.56,5.49-1.63.57-.02,1.14-.04,1.71-.06"/>
    <path class="cls-1" d="m118.74,110.77c1.52-.72,1.9-2.38,1.67-4.05-.12.94-.85,1.78-1.77,2.03-.38.1-.96-.06-.9-.45"/>
    <path class="cls-1" d="m119.41,112.28c.6-.52,1.18-1.1,1.55-1.81s.51-1.57.23-2.31"/>
    <path class="cls-1" d="m118.83,116.58c1.18-.5,1.68-1.44,2.11-2.56.39-.98,1.1-2.12,1.06-3.23"/>
    <path class="cls-1" d="m94.44,139.58c.09.93.83,1.77,1.75,1.97.69.15,1.4-.02,2.08-.2"/>
    <path class="cls-1" d="m96.85,139.73c.25.67.83,1.22,1.52,1.43,1.26.38,2.62-.36,3.48-1.36"/>
    <path class="cls-1" d="m99.33,138.46c-.24.2-.1.59.09.84.81.99,2.45,1.15,3.43.33"/>
    <path class="cls-1" d="m120.62,120.63c.26-.55.54-1.12,1-1.52s1.17-.59,1.69-.28c-2.27,4.44-4.63,8.83-7.08,13.17-2.11,3.73-4.19,8.99-7.21,12-1.34-2.61,3.56-8.16,4.83-10.39,2.41-4.25,4.67-8.58,6.77-12.99Z"/>
    <path class="cls-1" d="m111.04,145.14c-.14.23-.29.49-.25.76.08.47.73.64,1.15.42s.66-.68.87-1.11c3.54-7.14,7.48-14.08,11.78-20.79,1.03-1.61,1.07-4.74-1.01-2.52-1.75,1.86-2.77,5.82-3.95,8.13-2.65,5.16-5.52,10.2-8.59,15.11Z"/>
    <path class="cls-1" d="m61.12,108.89l-1.62-1.95"/>
    <path class="cls-1" d="m60.41,106.5c-.89-1.17-1.69-2.41-2.37-3.71"/>
    <path class="cls-1" d="m60.9,105.06c-1.51-1.59-2.83-3.36-3.94-5.25"/>
    <path class="cls-1" d="m61.17,103c-1.8-1.82-3.37-3.87-4.68-6.06"/>
    <path class="cls-1" d="m59.94,99.81c-1.37-1.8-2.66-3.67-3.85-5.59"/>
    <path class="cls-1" d="m59.67,97.33l-2.92-4.58"/>
    <path class="cls-1" d="m59.26,94.56c-.71-2.02-2.52-3.49-3.28-5.49"/>
    <path class="cls-1" d="m58.62,91.22l-1.93-3.33"/>
    <path class="cls-1" d="m58.14,88.59l-1.3-3.23"/>
    <path class="cls-1" d="m58.03,85.72l-1.08-2.39"/>
    <path class="cls-1" d="m61,110.44l-.72-1.43"/>
    <path class="cls-1" d="m60.83,108.13c-1.14-1.35-1.46-2.43-2.45-3.89.58,1.21,1.46,2.27,2.54,3.07"/>
    <path class="cls-1" d="m60.51,104.26c-1.42-1.28-2.55-2.89-3.27-4.66"/>
    <path class="cls-1" d="m60.17,102.33c-.96-1.13-1.83-2.33-2.61-3.6"/>
    <path class="cls-1" d="m60.17,100.54l-3.55-4.92"/>
    <path class="cls-1" d="m59.72,98c-1.15-1.46-2.23-2.97-3.24-4.53"/>
    <path class="cls-1" d="m59.48,95.98l-3.17-4.97"/>
    <path class="cls-1" d="m58.85,92.78l-2.09-3.38"/>
    <path class="cls-1" d="m58.96,90.87c-.79-.97-1.44-2.06-1.93-3.22-.04-.09-.08-.2-.04-.29s.18-.15.24-.07"/>
    <path class="cls-1" d="m58.28,88.34c-.45-1.06-.98-2.1-1.59-3.08"/>
    <path class="cls-1" d="m58.23,85.86c-.39-.74-.73-1.51-1.02-2.3-.24-.68.17-.73,0-1.43"/>
    <path class="cls-1" d="m59.21,100.3c-.79-1.01-1.54-2.05-2.25-3.12"/>
    <path class="cls-1" d="m57.09,99.56c1.19,1.16,2.3,2.41,3.3,3.73"/>
    <path class="cls-1" d="m57.92,101.84c.53,1.15,1.29,2.18,2.23,3.03"/>
    <path class="cls-1" d="m57.01,95.23c.94,1.02,1.84,2.07,2.7,3.15"/>
    <path class="cls-1" d="m87.04,115.39c.35-.22.56-.62.87-.89s.88-.37,1.1-.02c-1.07-.13-1.78-1.47-1.3-2.43-.49.02-1.01-.01-1.42-.29s-.63-.86-.36-1.27c.18-.27.52-.39.84-.38.52,0,.99.28,1.42.55s.89.57,1.4.62,1.1-.21,1.22-.71-.52-1.05-.93-.73c-.1.08-.17.18-.22.29-.25.52-.18,1.19.18,1.65s.98.7,1.55.59c-.44-.02-.91-.04-1.29.18s-.61.76-.35,1.11c.11.14.27.23.44.28,1.11.39,2.47-.34,2.76-1.48.13-.51.06-1.04,0-1.56-.06-.52-.13-1.04-.36-1.51s-.65-.87-1.17-.94c-.69-.09-1.37.44-2.06.29-.1-.02-.2-.07-.25-.15-.07-.13,0-.28.08-.4.32-.55.64-1.09.96-1.64.13-.22.26-.46.26-.72,0-.44-.41-.78-.84-.88s-.87-.03-1.31,0c-.31.02-.64.02-.91-.14-.13-.08-.25-.19-.39-.26-.17-.08-.35-.08-.54-.07-.51.01-1.03.07-1.47.32s-.76.76-.67,1.26.72.86,1.15.59c-.73.45-3.71-1.69-3.82.59-.05.91,1.72,1.77,2.19,2.61.65,1.17.7,2.3.52,3.5-.13.88-.41,1.15.45,1.8.57.42,1.65.64,2.26.24Z"/>
    <path class="cls-1" d="m82.14,113.48c-.33-.07-.68.2-.71.53s.27.65.6.64"/>
    <path class="cls-1" d="m83.35,116.65c-.3.22-.43.65-.29,1s.52.59.89.55"/>
    <path class="cls-1" d="m87.41,118.19l-.35.02c0,.11,0,.22,0,.33.41.18.89.18,1.29,0"/>
    <path class="cls-1" d="m90.65,116.26c-.38-.04-.65.49-.45.82s.68.4,1.03.23.58-.51.72-.87c.38.22.79.49.9.91s-.36.95-.73.71c.26-.12.52-.23.79-.35"/>
    <path class="cls-1" d="m93.91,115.53c.3.22.79-.21.61-.53"/>
    <path class="cls-1" d="m94.45,113.06c.18-.22.04-.6.23-.81.23-.25.67,0,.79.33s.09.69.27.99c.04.06.09.12.17.12s.13-.11.06-.15"/>
    <path class="cls-1" d="m95.29,110.43c-.25.06-.3.47-.08.59.19-.11.38-.22.56-.33"/>
    <path class="cls-1" d="m94.3,108.82c.37-.18.47-.75.18-1.05"/>
    <path class="cls-1" d="m93.03,106.52c-.24-.27,0-.76.35-.83s.72.17.89.49-.17.44-.17.8l-.61.58"/>
    <path class="cls-1" d="m85.25,120.59c-.11.22-.22.44-.22.69s.13.5.37.56.51-.2.41-.42"/>
    <path class="cls-1" d="m82.53,121.8c-.26.21-.12.71.21.75"/>
    <path class="cls-1" d="m80.73,115.12l-.46.17c-.07-.27-.04-.55.09-.8"/>
    <path class="cls-1" d="m81.68,111.36c-.5.01-.87-.63-.62-1.06"/>
    <path class="cls-1" d="m95.24,104.79c-.29-.59-.62-1.15-1-1.69"/>
    <path class="cls-1" d="m92.5,101.67c.57-.44,1.25-.74,1.96-.86"/>
    <path class="cls-1" d="m133.26,76.66c-.1-.12-.24.11-.21.26.15.95.7,1.84,1.5,2.39"/>
    <path class="cls-1" d="m133.38,75.21c.23.66.59,1.28,1.06,1.8"/>
    <path class="cls-1" d="m133.75,73.06c.24.56.56,1.09.94,1.56"/>
    <path class="cls-1" d="m134.51,71.59l.87,1.37"/>
    <path class="cls-1" d="m135.62,69.25c.12.52.26,1.74.39,2.26l-.71-1.2"/>
    <path class="cls-1" d="m133.89,72.73c.25.85.65,1.65,1.18,2.35"/>
    <path class="cls-1" d="m132.88,77.13c.3.73.71,1.42,1.21,2.02"/>
    <path class="cls-1" d="m134.45,83.47l1.79.6"/>
    <path class="cls-1" d="m132.66,78.43c.53.43,1.23.65,1.91.6"/>
    <path class="cls-1" d="m132.77,77.13c.52.47,1.23.72,1.92.67"/>
    <path class="cls-1" d="m133.02,75.8c.62.23,1.26.39,1.91.49"/>
    <path class="cls-1" d="m133.48,74.18c.66.21,1.36.28,2.04.19"/>
    <path class="cls-1" d="m134.22,72.3l1.55.26"/>
    <path class="cls-1" d="m135.12,83.02c1.11,1.06,2.7,1.6,4.22,1.42"/>
    <path class="cls-1" d="m137.06,85.14c.94.77,2.15,1.19,3.36,1.17,1.05-.02,1.83.19,2.87,0"/>
    <path class="cls-1" d="m142.34,87.73c.94.19,1.92.2,2.86.03"/>
    <path class="cls-1" d="m137.32,84.75c1.02.2,2.09.16,3.1-.1"/>
    <path class="cls-1" d="m136.24,83.2l2.62.29"/>
    <path class="cls-1" d="m138.27,85.13c.75.31,1.58.43,2.39.34"/>
    <path class="cls-1" d="m141.38,86.8c.89-.03,1.78-.2,2.63-.49"/>
    <path class="cls-1" d="m142.94,87.37c.66.17,1.34.26,2.02.27"/>
    <path class="cls-1" d="m146.13,87.83l1.91-1.2"/>
    <path class="cls-1" d="m146.15,69.12c-.38.23-.66.63-.73,1.07"/>
    <path class="cls-1" d="m152.01,83.81l-.25-.95"/>
    <path class="cls-1" d="m134.1,73.05l1.55,1.68"/>
    <path class="cls-1" d="m138.41,91.92c.12.48-.07,1.42-.01,1.91s.21.92.46,1.32"/>
    <path class="cls-1" d="m145.91,89.41c-.52.03-1.04.12-1.55.26"/>
    <path class="cls-1" d="m136.11,107.51c.46.13.99-.2,1.08-.66"/>
    <path class="cls-1" d="m141.87,113.82c.64-.27,1.21-.7,1.65-1.24"/>
    <path class="cls-1" d="m143.55,114.28c.58-.6,1.05-1.3,1.39-2.06"/>
    <path class="cls-1" d="m135.88,105.92c.79.13,1.64-.12,2.25-.64"/>
    <path class="cls-1" d="m135.76,103.64c.2.25.53.39.84.35"/>
    <path class="cls-1" d="m135.65,101.71l.72.36"/>
    <path class="cls-1" d="m135.88,99.82l1.32.95"/>
    <path class="cls-1" d="m136.68,98.94c.22.57.97.85,1.51.59"/>
    <path class="cls-1" d="m137.43,97.61c.48-.07.97-.04,1.43.09"/>
    <path class="cls-1" d="m138.39,96.1c.59,0,1.17-.26,1.58-.68"/>
    <path class="cls-1" d="m137.2,98.13l1.9.29"/>
    <path class="cls-1" d="m138.51,96.58h1.55"/>
    <path class="cls-1" d="m138.99,94.45l1.07-.25"/>
    <path class="cls-1" d="m139.35,92.64l-1.08.22c.46.17.62-.04,1.08-.22Z"/>
    <path class="cls-1" d="m138.75,91.44c.52.09,1.07-.09,1.44-.46-.24,0-.96-.48-1.2-.48.22-.12.35-.89.59-.83"/>
    <path class="cls-1" d="m140.53,92.63l-1.67.95c.67.22,1.08-.57,1.67-.95Z"/>
    <path class="cls-1" d="m138.87,92.4c.6-.04,1.18-.25,1.68-.58"/>
    <path class="cls-1" d="m138.5,90.45l1.69-.53"/>
    <path class="cls-1" d="m139.47,89.05l-1.07.13c.43-.06.72.13,1.07-.13Z"/>
    <path class="cls-1" d="m139.47,87.63h-1.31c.52-.23.77-.2,1.31,0Z"/>
    <path class="cls-1" d="m138.02,89.87l1.08-.35"/>
    <path class="cls-1" d="m137.8,97.77c.66.17,1.37.18,2.03.02"/>
    <path class="cls-1" d="m136.08,104.04c.3.27.73.38,1.12.3"/>
    <path class="cls-1" d="m137.69,86.03l1.18.31"/>
    <path class="cls-1" d="m141.47,119.4c.31.79,1,1.42,1.82,1.65"/>
    <path class="cls-1" d="m141.25,120.83c.34.43.8.76,1.32.94"/>
    <path class="cls-1" d="m142.45,123.09c-.48-.13-.91-.42-1.21-.82.42.53.55.68,1.21.82Z"/>
    <path class="cls-1" d="m140.88,124.42c.4.5.96.87,1.57,1.06"/>
    <path class="cls-1" d="m140.99,126.11c.46.42,1.08.67,1.7.66"/>
    <path class="cls-1" d="m141.37,127.64c.41.35.91.58,1.44.68"/>
    <path class="cls-1" d="m141.85,129.21l1.44.22c.32.28.17,1.12.6,1.05"/>
    <path class="cls-1" d="m143.27,131.49c.37.16.84.03,1.07-.3"/>
    <path class="cls-1" d="m141.62,121.78l1.07.72"/>
    <path class="cls-1" d="m141.37,122.98c.25.32.59.57.96.71"/>
    <path class="cls-1" d="m134.32,83c.66.05,1.32-.02,1.95-.21"/>
    <path class="cls-1" d="m134.21,82.26l1.05-.48"/>
    <path class="cls-1" d="m133.5,81.68l1.24-.51"/>
    <path class="cls-1" d="m133.29,80.31c.55,0,1.1-.18,1.55-.49"/>
    <path class="cls-1" d="m133.5,79.4c.6.03,1.2-.07,1.75-.31"/>
    <path class="cls-1" d="m134.62,83.07c1.11.09,2.25-.19,3.19-.79"/>
    <path class="cls-1" d="m133.6,81.57c1.04.07,2.09-.19,2.98-.73"/>
    <path class="cls-1" d="m137.72,85.06c.78.05,1.58-.13,2.27-.51"/>
    <path class="cls-1" d="m14.95,172.94c.48,1.09,1.25,2.04,2.21,2.73"/>
    <path class="cls-1" d="m16.41,172.1c.38.64.93,1.17,1.57,1.53"/>
    <path class="cls-1" d="m17.06,169.43c.35.98.93,1.88,1.7,2.59"/>
    <path class="cls-1" d="m18.09,167.58c.24.92.76,1.77,1.47,2.4"/>
    <path class="cls-1" d="m18.9,165.32c.35,1.04.93,2,1.69,2.8"/>
    <path class="cls-1" d="m19.97,162.43c.45,1.37,1.22,2.64,2.25,3.66"/>
    <path class="cls-1" d="m21.33,160.19c.79,1.3,1.64,2.57,2.54,3.8"/>
    <path class="cls-1" d="m22.72,157.75l2.47,4.32"/>
    <path class="cls-1" d="m24.21,155.87c.56,1.4,1.31,2.73,2.21,3.94"/>
    <path class="cls-1" d="m25.28,153.18c1.06,2.26,2.33,4.42,3.78,6.45"/>
    <path class="cls-1" d="m26.85,152.19l3.5,5.75"/>
    <path class="cls-1" d="m26.38,148.32l5.25,8.16"/>
    <path class="cls-1" d="m27.69,146.62c2,2.88,3.78,5.91,5.33,9.06"/>
    <path class="cls-1" d="m28.7,144.37l5.43,9.21"/>
    <path class="cls-1" d="m29.14,139.63c2.42,3.22,2.7,6.9,4.65,10.33"/>
    <path class="cls-1" d="m28.51,135.31c1.14,1.68,2.12,3.46,2.93,5.33"/>
    <path class="cls-1" d="m27.82,130.83l2.92,5.12"/>
    <path class="cls-1" d="m28.09,128.12l2.81,5.18"/>
    <path class="cls-1" d="m27.46,123.4l3.12,5.74"/>
    <path class="cls-1" d="m27.53,120.06c1.1,1.74,2.1,3.54,3.01,5.39"/>
    <path class="cls-1" d="m29,117.82c.25,1.42.89,2.76,1.84,3.84"/>
    <path class="cls-1" d="m29.36,114.53l1.48,3.51c.07.17.17.36.35.39s.32-.28.14-.33"/>
    <path class="cls-1" d="m29.98,111.24c.58,1.78,1.32,3.51,2.21,5.16"/>
    <path class="cls-1" d="m30.97,108.99c.42,1.58,1,3.12,1.73,4.59"/>
    <path class="cls-1" d="m31.42,105.89c.43,1.48.98,2.93,1.66,4.31.25-.06.42-.34.36-.59"/>
    <path class="cls-1" d="m32.03,102.4c.45,1.57,1.04,3.1,1.76,4.56"/>
    <path class="cls-1" d="m33.12,99.92c.17,1.16.58,2.29,1.18,3.3.31-.11.49-.5.37-.8"/>
    <path class="cls-1" d="m33.9,97.47c.05,1.03.38,2.04.96,2.9.22-.09.33-.4.21-.6"/>
    <path class="cls-1" d="m34.48,95.41c.13.44.36.86.65,1.21.17-.06.31-.21.36-.39"/>
    <path class="cls-1" d="m35.69,89.65c.05.69.27,1.37.62,1.96.2-.11-.47.52-.4.3.08.64-.02,1.29-.28,1.88-.4-.44-.6-1.07-.51-1.67"/>
    <path class="cls-1" d="m36.58,87.59l.4,1.63c.2.11.48-.17.36-.37"/>
    <path class="cls-1" d="m37.21,83.49c-.13.71.12,1.47.64,1.97"/>
    <path class="cls-1" d="m37.77,82.25l.42.82c.23-.18.3-.54.16-.8"/>
    <path class="cls-1" d="m7.53,184.68l.83,1.03"/>
    <path class="cls-1" d="m8.44,183.22c.05.36.38.67.74.69"/>
    <path class="cls-1" d="m9.37,181.18c.13.39.37.74.69.98.17-.05.31-.21.34-.38"/>
    <path class="cls-1" d="m10.84,179.73c.17.42.56.75,1.01.85"/>
    <path class="cls-1" d="m11.88,177.06c.03.52.33,1.01.78,1.26"/>
    <path class="cls-1" d="m13.71,175.21l.62,1.03"/>
    <path class="cls-1" d="m26.5,138.79c.67,1.73,1.44,3.12,2.64,4.54l-.21-.21"/>
    <path class="cls-1" d="m28.91,138.2l.21.62"/>
    <path class="cls-1" d="m26.41,135.14l3.1,5.34"/>
    <path class="cls-1" d="m57.11,198.67l1.58,2.75c.07.12.17.25.3.22s.04-.3-.05-.2"/>
    <path class="cls-1" d="m57.57,196.37c.47,1.17,1.03,2.3,1.68,3.38"/>
    <path class="cls-1" d="m58.57,194.74c.55,1.21,1.17,2.38,1.86,3.51.2-.3.26-.69.16-1.03"/>
    <path class="cls-1" d="m59.29,191.6l2.61,5.08"/>
    <path class="cls-1" d="m62.49,193.7l-2.81-5.79c1.06,2.35,1.75,3.44,2.81,5.79Z"/>
    <path class="cls-1" d="m64.88,191.67c-.75-2.47-1.7-4.89-2.84-7.21.86,2.41,1.98,4.8,2.84,7.21Z"/>
    <path class="cls-1" d="m64.27,182.62c.93,2.55,1.91,5.08,2.96,7.58"/>
    <path class="cls-1" d="m69.78,189.23l-2.74-5.83"/>
    <path class="cls-1" d="m71.09,187.55l-3.2-7.44"/>
    <path class="cls-1" d="m72.95,186.72l-2.1-5.12"/>
    <path class="cls-1" d="m72.05,180.17c.57,1.69,1.25,3.35,2.03,4.96-.36-1.82-1.07-3.37-2.03-4.96Z"/>
    <path class="cls-1" d="m77.46,181.79c-.62-1.58-2.12-2.11-2.74-3.68l1.77,5.31"/>
    <path class="cls-1" d="m79.02,181.42c-1.01-2.42-1.93-4.89-2.74-7.39"/>
    <path class="cls-1" d="m77.82,174l2.77,6.33c-.64-1.87-2.14-4.46-2.77-6.33Z"/>
    <path class="cls-1" d="m82.79,178.71c-.32-1.91-.86-3.78-1.62-5.56"/>
    <path class="cls-1" d="m83.96,176.83c-.43-1.98-1.1-3.91-2-5.72"/>
    <path class="cls-1" d="m85.16,175.39l-1.8-5.71"/>
    <path class="cls-1" d="m86.52,173.77l-1.83-4.94"/>
    <path class="cls-1" d="m87.93,173.16l-1.28-4.72"/>
    <path class="cls-1" d="m89.15,171.51l-.55-3.1"/>
    <path class="cls-1" d="m90.48,171.09l-.51-2.86c-.13-.75,1.08-.51.87-1.24"/>
    <path class="cls-1" d="m66.59,162.7c2.37,0,1.98.69,2.25,2.9.24,1.93.57,3.85,1.01,5.75.05.22.27.5.43.34"/>
    <path class="cls-1" d="m70.12,165.12l1.69,8.67"/>
    <path class="cls-1" d="m71.96,167.59c.55,2.43,1.21,4.84,1.98,7.22"/>
    <path class="cls-1" d="m74.04,168.2l1.68,5.6"/>
    <path class="cls-1" d="m75.98,169.67l1.22,4.12"/>
    <path class="cls-1" d="m77.24,169.04c.43,1.91,1.04,3.77,1.83,5.56"/>
    <path class="cls-1" d="m79.14,169.65l1.61,4.95"/>
    <path class="cls-1" d="m81.06,169.62l1.44,3.78"/>
    <path class="cls-1" d="m82.65,169.38c.81.57,1.42,1.42,1.7,2.36"/>
    <path class="cls-1" d="m84.48,168.2l1.01,1.65"/>
    <path class="cls-1" d="m70.82,176.45l.43,2.67"/>
    <path class="cls-1" d="m67.33,174l.85,2.46"/>
    <path class="cls-1" d="m54,84.93c.28,1.05.75,2.05,1.39,2.92"/>
    <path class="cls-1" d="m54.2,83.29c.42,1.03.96,2.01,1.61,2.91"/>
    <path class="cls-1" d="m57.72,102.82l-2.81-4.16"/>
    <path class="cls-1" d="m54.4,95.64c.83.9,1.62,1.83,2.36,2.8"/>
    <path class="cls-1" d="m56.53,91.07l-1.76-3.23"/>
    <path class="cls-1" d="m54.9,84.68l1.62,2.48"/>
    <path class="cls-1" d="m55.02,82.47l1.66,2.46"/>
    <path class="cls-1" d="m55.65,81.02l1.41,2.28"/>
    <path class="cls-1" d="m57.47,76.72l-1.22-2.27"/>
    <path class="cls-1" d="m56.1,71.12l1.01,1.25"/>
    <path class="cls-1" d="m54.01,89.66c1.1,1.41,1.4,3.98,2.23,5.57l-1.95-2.95"/>
    <path class="cls-1" d="m56.25,103.46l1.47,1.41"/>
    <path class="cls-1" d="m92.24,168.87l-.98-.87"/>
    <path class="cls-1" d="m77.54,183.45c-.2-2.84-.62-5.67-1.26-8.45"/>
    <path class="cls-1" d="m74.95,185.73c-.91-1.34-1.45-2.94-1.54-4.56"/>
    <path class="cls-1" d="m64.42,195.62c-.9-1.76-1.56-3.66-1.93-5.61"/>
    <path class="cls-1" d="m65.68,192.92l-2.03-6.79"/>
    <path class="cls-1" d="m68.57,189.42l-1.82-4.95"/>
    <path class="cls-1" d="m67.25,158.6c.99-1.51,2.06-2.98,3.19-4.39"/>
    <path class="cls-1" d="m140.99,124.02c.21-.06.46,0,.61.17"/>
    <path class="cls-1" d="m141.21,125.66c.15.03.29.11.38.23"/>
    <path class="cls-1" d="m141.09,126.99c.21.15.45.25.71.28"/>
    <path class="cls-1" d="m141.5,128.77l.69-.21"/>
    <path class="cls-1" d="m142.28,130.24l.71-.48"/>
    <path class="cls-1" d="m67.12,157.43c-.13.05-.27-.07-.29-.2s.03-.27.09-.39c.35-.74.83-1.42,1.41-1.99"/>
    <path class="cls-1" d="m66.7,154.83l1.34-2.16"/>
    <path class="cls-1" d="m66.61,152.44l1.8-2.79"/>
    <path class="cls-1" d="m66.84,148.78l1.88-2.89"/>
    <path class="cls-1" d="m67.22,145.88l1.09-1.99"/>
    <path class="cls-1" d="m67.4,143.19c.22-.54.54-1.04.94-1.47"/>
    <path class="cls-1" d="m67.41,160.11c.5-.72,1.04-1.41,1.62-2.07"/>
    <path class="cls-1" d="m68.25,161.15c.34-.23.6-.56.75-.93"/>
    <path class="cls-1" d="m67.42,141.2l.73-1.18"/>
    <path class="cls-1" d="m67.1,139.4l.61-1.19"/>
    <path class="cls-1" d="m67.11,137.02c.14-.49.36-.95.63-1.38"/>
    <path class="cls-1" d="m66.93,134.04l.71-1.79"/>
    <path class="cls-1" d="m66.42,131.75c.12-.56.32-1.1.59-1.61"/>
    <path class="cls-1" d="m66.01,129.15l.71-1.39"/>
    <path class="cls-1" d="m65.91,126.96l.82-1.68"/>
    <path class="cls-1" d="m64.91,124.67c.32-.9.74-1.76,1.24-2.57"/>
    <path class="cls-1" d="m64.81,121.88l1.03-2.27"/>
    <path class="cls-1" d="m64.12,120l.64-1.78"/>
    <path class="cls-1" d="m63.64,118.01l.73-2.18"/>
    <path class="cls-1" d="m62.77,116.43l1.01-2.19"/>
    <path class="cls-1" d="m62.08,115.04l1.27-2.5"/>
    <path class="cls-1" d="m62.33,112.63c.23-.53.63-.98,1.12-1.28"/>
    <path class="cls-1" d="m68.04,162.82l1.1-1.59"/>
    <path class="cls-1" d="m66.93,149.97l1.38-1.41"/>
    <path class="cls-1" d="m61.76,110.75l.79-1.3"/>
    <path class="cls-1" d="m61.35,108.15l.4-1.1"/>
    <path class="cls-1" d="m61.06,105.37l.62-1.28"/>
    <path class="cls-1" d="m60.68,102.39c.1-.54.33-1.06.67-1.5"/>
    <path class="cls-1" d="m60.64,99.09c.16-.48.37-.95.63-1.38"/>
    <path class="cls-1" d="m59.94,96.2c.17-.74.49-1.45.93-2.08"/>
    <path class="cls-1" d="m59.32,92.57l1.25-1.13"/>
    <path class="cls-1" d="m58.85,90.02l1.24-1.46"/>
    <path class="cls-1" d="m58.46,87.93l1.13-1.37"/>
    <path class="cls-1" d="m58.24,85.13l1.11-1.28"/>
    <path class="cls-1" d="m58.07,82.97c.33-.59.7-1.15,1.12-1.68"/>
    <path class="cls-1" d="m57.88,80.88c.39-.77.85-1.51,1.38-2.2"/>
    <path class="cls-1" d="m57.57,78.68c.35-.61.66-1.23.93-1.88"/>
    <path class="cls-1" d="m57.55,77.38c.2-.54.56-1.03,1.03-1.38"/>
    <path class="cls-1" d="m67.34,160.41c-.06-.1,0-.21.08-.24.23,1.41-.36,3.04-.27,4.53.12,1.83.47,3.65,1.04,5.39"/>
    <path class="cls-1" d="m69.96,165.7l.19,1.59"/>
    <path class="cls-1" d="m68.09,163.51c0,1.47.11,2.93.36,4.38"/>
    <path class="cls-1" d="m73.28,167.99c.08.97.27,1.94.56,2.87"/>
    <path class="cls-1" d="m71.68,167.5c.08.98.29,1.96.64,2.88"/>
    <path class="cls-1" d="m75.66,184.93c-.85-1.89-1.61-3.82-2.28-5.78"/>
    <path class="cls-1" d="m76.78,183.33l-1.55-4.2"/>
    <path class="cls-1" d="m81.96,179.64l-2.19-5.57"/>
    <path class="cls-1" d="m83.25,177.75l-1.3-3.48"/>
    <path class="cls-1" d="m79.77,168.39l1.01,2.78"/>
    <path class="cls-1" d="m81.13,167.96c.48.73.8,1.56.95,2.42"/>
    <path class="cls-1" d="m82.69,167.68c.33.84.59,1.71.76,2.6"/>
    <path class="cls-1" d="m84.25,167.5c.47.87.81,1.81,1,2.78"/>
    <path class="cls-1" d="m86.08,167.58c.46.81.78,1.69.95,2.61"/>
    <path class="cls-1" d="m87.75,166.89c.39.93.69,1.9.87,2.89"/>
    <path class="cls-1" d="m89.25,166.79c.4.78.66,1.63.77,2.5"/>
    <path class="cls-1" d="m91.06,167.07c.35.46.54,1.04.53,1.62"/>
    <path class="cls-1" d="m92.12,166.9l.33.98"/>
    <path class="cls-1" d="m75.8,169.08l-.08-.38c.58,1.27,1.05,2.6,1.39,3.96"/>
    <path class="cls-1" d="m77.55,168.85c.48.96.85,1.98,1.09,3.03"/>
    <path class="cls-1" d="m79.06,168.19c.17,1.08.44,2.15.8,3.19"/>
    <path class="cls-1" d="m80.66,168.09l.92,3.48"/>
    <path class="cls-1" d="m82.47,167.49l.82,3.78"/>
    <path class="cls-1" d="m83.91,167.68l1.34,4.5"/>
    <path class="cls-1" d="m85.38,167.61c.39,1.36.81,2.72,1.24,4.07"/>
    <path class="cls-1" d="m86.72,167.11c.62,1.22,1.08,2.52,1.36,3.86"/>
    <path class="cls-1" d="m88.36,167.08c.48.87.8,1.82.94,2.8"/>
    <path class="cls-1" d="m90.33,167.4c.52.4.84,1.04.84,1.69"/>
    <path class="cls-1" d="m91.98,167.23c.19.25.31.55.33.86"/>
    <path class="cls-1" d="m93.03,166.92c.18-.09.44.07.43.28"/>
    <path class="cls-1" d="m70.85,166.99l.97,3.89"/>
    <path class="cls-1" d="m69.65,165.7c.05,1.74.25,3.47.59,5.17"/>
    <path class="cls-1" d="m68.12,164.31c-.03,1.6.11,3.2.42,4.78"/>
    <path class="cls-1" d="m66.86,159.93c.05,1.33.18,2.66.39,3.98"/>
    <path class="cls-1" d="m37.65,80.18c.22.34.57.59.97.68"/>
    <path class="cls-1" d="m38.07,77.8c.11.17.36.25.54.16"/>
    <path class="cls-1" d="m38.44,74.57c.06.23.3.41.54.39"/>
    <path class="cls-1" d="m38.8,71.88l.54.54"/>
    <path class="cls-1" d="m38.8,69.19c.06.23.31.39.54.34"/>
    <path class="cls-1" d="m38.8,66.49c.06.23.31.39.54.34"/>
    <path class="cls-1" d="m39.34,62.73c.18.06-.51,1.18-.33,1.24.2.27.54.42.87.39"/>
    <path class="cls-1" d="m55.86,67.56c.23.61.58,1.17,1.02,1.65"/>
    <path class="cls-1" d="m56.16,65.26l.93,1.42"/>
    <path class="cls-1" d="m55.3,78.88l1.25,1.44"/>
    <path class="cls-1" d="m55.79,77.11l.95,1.58"/>
    <path class="cls-1" d="m68.76,164.45c.42-.8.96-1.53,1.6-2.16"/>
    <path class="cls-1" d="m70.24,166.28c.81-.95,1.5-2,2.07-3.11"/>
    <path class="cls-1" d="m72.2,167.34c.66-.85,1.24-1.77,1.72-2.74"/>
    <path class="cls-1" d="m73.82,168.06l1.56-2.37"/>
    <path class="cls-1" d="m75.04,168.94c.7-.41,1.31-.97,1.77-1.64"/>
    <path class="cls-1" d="m78.27,163.01c.28-.64.64-1.24,1.08-1.79"/>
    <path class="cls-1" d="m74.32,162.29l.36-.54"/>
    <path class="cls-1" d="m78.3,168.6l2.51-2.69"/>
    <path class="cls-1" d="m83.28,168.03c.85-1.11,1.57-2.31,2.16-3.58"/>
    <path class="cls-1" d="m90.76,65.9c-.74-.63-1.19-1.59-1.19-2.56-.33-.08-.06.79-.12,1.12-.15.87.66.84,1.32,1.44Z"/>
    <path class="cls-1" d="m91.29,66.58c-.31-.8-.46-1.66-.46-2.52.03.48.35,2.05.46,2.52Z"/>
    <path class="cls-1" d="m91.99,63.58c.02.54.15,1.07.36,1.57"/>
    <path class="cls-1" d="m93.49,65.39c-.03-1.13.01-2.25.14-3.37-.22,1.27-.27,2.09-.14,3.37Z"/>
    <path class="cls-1" d="m94.52,65.86v-3c-.1,1.32.1,1.68,0,3Z"/>
    <path class="cls-1" d="m97.78,65.74c.13.47-.41,1.32-.48,1.8-.05-.68-.63-1.25-.68-1.93-.09.64-.66,1.53-.61,2.17-.08-1.3-.7-2.41-.51-3.72"/>
    <path class="cls-1" d="m98.6,64.78v1.32"/>
    <path class="cls-1" d="m95.4,67.53c-.19-.93-.36-2.02-.35-2.97"/>
    <path class="cls-1" d="m96.38,67.8c.06-.69.07-1.38.03-2.07"/>
    <path class="cls-1" d="m97.27,67.46c.09-.65.1-1.31.02-1.96"/>
    <path class="cls-1" d="m98.05,66.96c.1-.7.13-1.41.08-2.12"/>
    <path class="cls-1" d="m98.66,66.68c.06-.71.04-1.42-.08-2.13"/>
    <path class="cls-1" d="m100.01,66.23l.08-1.73"/>
    <path class="cls-1" d="m100.66,66.51l.05-1.34"/>
    <path class="cls-1" d="m101.25,66.62c.1-.51.14-1.04.11-1.56"/>
    <path class="cls-1" d="m102.35,66.45c.09-.27-.19-.51-.3-.77l-.18,1.23"/>
    <path class="cls-1" d="m99.7,64.33c.03.23.05,1.26-.43.75-.25-.27-.03-1.39-.02-1.76"/>
    <path class="cls-1" d="m101.91,67.01c.11-.61.18-1.22.18-1.84"/>
    <path class="cls-1" d="m102.58,66.79c.21-.64.29-1.33.23-2.01"/>
    <path class="cls-1" d="m103.22,66.13s.02.07.06.06c.21-.09.29-1.11.3-1.31.01-.57-.1-1.14-.33-1.66"/>
    <path class="cls-1" d="m102.59,60.3l.38,1.91c0-.63-.12-1.33-.38-1.91Z"/>
    <path class="cls-1" d="m102.17,62.32c-.02-.6-.4-1.13-.49-1.74"/>
    <path class="cls-1" d="m100.96,61.54c-.08-.43-.08-.86,0-1.29"/>
    <path class="cls-1" d="m103.28,61.98c0-.89-.15-1.78-.42-2.62"/>
    <path class="cls-1" d="m103.9,61.59c-.04-.98-.16-1.95-.37-2.9"/>
    <path class="cls-1" d="m104.25,60.14c-.02-.83-.13-1.65-.32-2.46"/>
    <path class="cls-1" d="m95.78,61.75c-.02.05-.11.04-.14,0s-.03-.11-.02-.16c.04-.42.08-.85.12-1.27"/>
    <path class="cls-1" d="m96.41,62.55c-.05-.52-.03-1.05.05-1.57"/>
    <path class="cls-1" d="m96.88,62.37l.14-1.28"/>
    <path class="cls-1" d="m97.4,62.49c.14-.45.2-.93.17-1.4"/>
    <path class="cls-1" d="m98.13,62.49c.18-.62.25-1.26.22-1.9"/>
    <path class="cls-1" d="m98.78,62.43c.09-.65.07-1.31-.06-1.95"/>
    <path class="cls-1" d="m99.23,60.48c.16.56.17,1.17.04,1.74.14-.61.14-1.14-.04-1.74Z"/>
    <path class="cls-1" d="m99.92,61.76c.17-.72.08-1.51-.25-2.17"/>
    <path class="cls-1" d="m93.48,71.15c-.03-.52.07-1.04.28-1.51"/>
    <path class="cls-1" d="m93.82,72.05c.02-.55.12-1.1.28-1.62"/>
    <path class="cls-1" d="m94.27,72.16l.38-1.57"/>
    <path class="cls-1" d="m94.7,72.77l.4-2.01"/>
    <path class="cls-1" d="m95.5,72.49c-.03-.66.02-1.32.16-1.96"/>
    <path class="cls-1" d="m96.05,72.66c0-.7.08-1.39.21-2.07"/>
    <path class="cls-1" d="m96.61,72.53s-.01.06.02.05.04-.05.04-.08c.06-.61.12-1.23.19-1.84"/>
    <path class="cls-1" d="m97.22,71.72l.2-1.79"/>
    <path class="cls-1" d="m97.74,71.16c.01.06.08.11.14.11.08-.63.11-1.26.08-1.9"/>
    <path class="cls-1" d="m98.35,70.54c.07-.54.08-1.08.05-1.62"/>
    <path class="cls-1" d="m90.41,67.8c.2-.59.46-1.15.78-1.68"/>
    <path class="cls-1" d="m91.04,68.81l.41-1.3"/>
    <path class="cls-1" d="m91.71,69.36c.07-.46.17-.91.32-1.35"/>
    <path class="cls-1" d="m92.32,69.76c.2-.52.34-1.07.41-1.63"/>
    <path class="cls-1" d="m92.86,69.71c-.05,0-.03.1.02.09s.07-.07.08-.12c.1-.48.2-.95.3-1.43"/>
    <path class="cls-1" d="m93.44,69.65c.2-.7.35-1.41.43-2.13"/>
    <path class="cls-1" d="m93.97,68.92s.03.1.08.09.07-.08.09-.13c.2-.55.23-1.33.46-1.86"/>
    <path class="cls-1" d="m85.64,70.25s-.09-.06-.07-.12c.19-.61.45-1.21.78-1.76"/>
    <path class="cls-1" d="m85.78,70.82l.66-1.68"/>
    <path class="cls-1" d="m86.19,71.17c.24-.46.41-.96.53-1.47"/>
    <path class="cls-1" d="m86.56,71.66l.49-1.57"/>
    <path class="cls-1" d="m87.17,71.94c.27-.49.47-1.02.61-1.57"/>
    <path class="cls-1" d="m87.9,71.82c-.09.26.12-.26.15-.34.12-.32.21-.64.36-.95"/>
    <path class="cls-1" d="m88.39,71.87l.58-1.73"/>
    <path class="cls-1" d="m88.91,72c.3-.51.52-1.06.66-1.63"/>
    <path class="cls-1" d="m78.84,82.66c-.09,0-.18-.07-.21-.16.87.6,1.77,1.17,2.69,1.7"/>
    <path class="cls-1" d="m78.51,83.22c.71.33,1.37.77,1.95,1.29"/>
    <path class="cls-1" d="m77.05,82.61c.41.52.88.99,1.4,1.4"/>
    <path class="cls-1" d="m85.21,84.96l1.52.88"/>
    <path class="cls-1" d="m89.52,86.34c.3.1.59.26.83.47"/>
    <path class="cls-1" d="m89.8,85.52l1.16.74"/>
    <path class="cls-1" d="m90.19,84.89l.94.69"/>
    <path class="cls-1" d="m90.4,84.36c.35.23.69.49,1.01.77"/>
    <path class="cls-1" d="m90.8,84.07l.51.44"/>
    <path class="cls-1" d="m82.19,81.01l-1.56-.64c.5.3,1.05.34,1.56.64Z"/>
    <path class="cls-1" d="m82.02,80c-.24-.12-.5-.22-.77-.28"/>
    <path class="cls-1" d="m77.22,78.3c.4.27.75.59,1.06.96"/>
    <path class="cls-1" d="m77.05,77.8l1.17.84"/>
    <path class="cls-1" d="m77.2,76.87l1.07,1.16"/>
    <path class="cls-1" d="m72.64,76.06c.47.41.97.79,1.5,1.13"/>
    <path class="cls-1" d="m73.4,75.53l1.19,1.33"/>
    <path class="cls-1" d="m74.86,75.91l-.43-.57"/>
    <path class="cls-1" d="m74.82,75.01l.39.39"/>
    <path class="cls-1" d="m74.92,86.09c.64.53,1.24,1.11,1.8,1.72"/>
    <path class="cls-1" d="m75.76,88.21l.67.45"/>
    <path class="cls-1" d="m76.15,84.68c.25.42.63.78,1.06,1.01"/>
    <path class="cls-1" d="m76.26,83.57l.75.81"/>
    <path class="cls-1" d="m83.36,88.93c.31.36.67.68,1.06.96"/>
    <path class="cls-1" d="m83.87,88.43c.24.27.5.51.79.72"/>
    <path class="cls-1" d="m84.53,87.88l.29.38"/>
    <path class="cls-1" d="m83.26,82.1c.62.31,1.18.75,1.63,1.28"/>
    <path class="cls-1" d="m84.16,81.6c.6.46,1.09,1.07,1.43,1.75"/>
    <path class="cls-1" d="m85.32,81.94c.51.27.92.71,1.17,1.23"/>
    <path class="cls-1" d="m93.87,87.7c.21.22.46.4.74.54"/>
    <path class="cls-1" d="m94.09,87.16c.37.21.72.46,1.03.75"/>
    <path class="cls-1" d="m93.92,86.59c.56.33,1.1.68,1.61,1.07"/>
    <path class="cls-1" d="m94.16,86.12c.64.38,1.24.84,1.78,1.36"/>
    <path class="cls-1" d="m95.04,86.15l1.06.72"/>
    <path class="cls-1" d="m96.96,57.63l.42.7"/>
    <path class="cls-1" d="m97.62,57.6l.54.64"/>
    <path class="cls-1" d="m98.3,57.39l.73,1.17"/>
    <path class="cls-1" d="m99.03,57.37c.16.38.4.74.69,1.04"/>
    <path class="cls-1" d="m99.66,57.14c.33.36.62.76.87,1.18"/>
    <path class="cls-1" d="m100.31,56.81l.61.96"/>
    <path class="cls-1" d="m102.19,57.53l-.78-1.42c.27.6.42.87.78,1.42Z"/>
    <path class="cls-1" d="m103.28,57.14c-.15-.6-.42-1.16-.78-1.66.4.36.67,1.13.78,1.66Z"/>
    <path class="cls-1" d="m101.89,55.87l.94,1.58"/>
    <path class="cls-1" d="m97.45,55.17c.11.24.27.46.47.63"/>
    <path class="cls-1" d="m98.71,55.8c-.28-.38-.5-.81-.64-1.26.21.42.34.89.64,1.26Z"/>
    <path class="cls-1" d="m99.02,54.07l.63,1.34"/>
    <path class="cls-1" d="m99.42,53.59l.56,1.1"/>
    <path class="cls-1" d="m99.83,52.8l.87,1.1"/>
    <path class="cls-1" d="m87.75,62.79c-.6-.24-1.17-.62-1.46-1.19s-.18-1.38.36-1.72c-.13-.06-.24.62-.17.74.5.88.48,1.53,1.27,2.18Z"/>
    <path class="cls-1" d="m90.87,57c-.05-.45-.04-.93.17-1.32s1-.79,1.43-.66c-.3-.47-.98-.64-1.47-.37s-.7.95-.45,1.45"/>
    <path class="cls-1" d="m86.95,53.83c.06.44.21.9.55,1.17s.63.13.88-.23c-.51.37-1.32.23-1.66-.3"/>
    <path class="cls-1" d="m85.56,57.47c-.76.16-1.45.63-1.87,1.29"/>
    <path class="cls-1" d="m82.54,61.35c1.43.62,1.95,2.29.91,3.6"/>
    <path class="cls-1" d="m84.9,66.76c.12.27.52.31.77.15s.39-.45.51-.72"/>
    <path class="cls-1" d="m83.72,66.28c.11.28.46.4.75.34s.54-.24.78-.42"/>
    <path class="cls-1" d="m93.22,52.47c.31.47.46,1.03.44,1.59"/>
    <path class="cls-1" d="m92.08,57.92c-.22.45-.18,1.01.09,1.43"/>
    <path class="cls-1" d="m88.54,58c-.25.39-.19.96.16,1.28"/>
    <path class="cls-1" d="m92.65,52.17c.41-.25,1.02-.1,1.27.31"/>
    <path class="cls-1" d="m90.6,68.64l-.53,1.58"/>
    <path class="cls-1" d="m87.84,67.39s-.07.02-.06-.02.05-.05.09-.06c.8-.11,1.64.27,2.09.94"/>
    <path class="cls-1" d="m87.76,64.13c-.2.07-.24.35-.2.56.12.59.93,1.5,1.5,1.69-.28-.42-.63-.79-1.03-1.09"/>
    <path class="cls-1" d="m106,32.39c-.04.28.09.57.33.72s.56.13.79-.03"/>
    <path class="cls-1" d="m106.43,31.55c-.16,0-.18.25-.13.4.11.38.24.77.5,1.07s.69.49,1.06.35"/>
    <path class="cls-1" d="m108.33,33.85c-.34.05-.68.22-.89.5s-.23.7-.02.98.68.34.92.09"/>
    <path class="cls-1" d="m109.32,34c-1.48.65,1.77,1.94,2.01,2.4"/>
    <path class="cls-1" d="m110.46,34.02c.04.31.14.61.31.86.25.39.8.7,1.17.42"/>
    <path class="cls-1" d="m111,33.1c.55-.21,1.23-.02,1.59.45s.37,1.17.02,1.65"/>
    <path class="cls-1" d="m113.36,33.75c.39.51.66,1.1.81,1.72"/>
    <path class="cls-1" d="m72.22,52.26c-.12-.54,0-1.1.14-1.63.47-1.81,1.26-3.53,2.31-5.08"/>
    <path class="cls-1" d="m72.54,48.23c.53-1.51,1.37-2.92,2.46-4.09"/>
    <path class="cls-1" d="m96.18,122.79c.34.91,1.61.84,2.35,1.09,1.08.38,2.14,1.39,2.8,2.29.78,1.05,1.23,2.4,1.04,3.69"/>
    <path class="cls-1" d="m97.95,130.19l.13-.5c.5.33.81.88,1.08,1.41,1.13,2.24,2,4.62,2.58,7.06"/>
    <path class="cls-1" d="m98.39,129.21c1.14.5,1.96,1.56,2.44,2.7s.66,2.4.84,3.63"/>
    <path class="cls-1" d="m97.73,131.38l.49,1.29c.8,2.09,1.63,4.24,3.2,5.84"/>
    <path class="cls-1" d="m97.03,132.15c.38,2.41,1.48,4.71,3.13,6.52"/>
    <path class="cls-1" d="m94.84,133c.65.86,1.11,1.86,1.35,2.92.27,1.21.25,2.53.95,3.56"/>
    <path class="cls-1" d="m94.7,127.66v1.34"/>
    <path class="cls-1" d="m108.09,111.63c.55.02.97.69.75,1.2"/>
    <path class="cls-1" d="m108.68,109.24c.09.08.24.04.35,0,1.98-.8,4.25-.9,6.29-.28"/>
    <path class="cls-1" d="m110.61,110.47c2.34-1.02,5.2-.54,7.39-1.85"/>
    <path class="cls-1" d="m118.58,108.37c-.98.44-2.13.49-3.15.16-2.15-.71-2.31-3.04-4.7-3.3-1.21-.13-2.42.27-3.46.9-1.27.78-2.75,1.95-2.95,3.54,1.09-1.55,1.92-3.02,3.46-4.23,1.12-.87,2.63-1.57,3.93-.99.92.41,1.47,1.33,2.15,2.07"/>
    <path class="cls-1" d="m85.19,108.83c.08.45.66.74,1.06.53"/>
    <path class="cls-1" d="m86.34,107.26c.64.12,1.18.68,1.26,1.33"/>
    <path class="cls-1" d="m86.58,105.92c.44-.19.97-.15,1.37.11s.65.74.65,1.22"/>
    <path class="cls-1" d="m88.93,106.46c.13.59.13,1.21,0,1.81"/>
    <path class="cls-1" d="m84.18,107.77c-.34.32-.46.86-.27,1.29"/>
    <path class="cls-1" d="m85.25,112.38c-.25-.21-.67.1-.66.44s.25.6.49.84"/>
    <path class="cls-1" d="m86.03,113.7c-.41,0-.74.47-.61.85s.67.57,1,.33"/>
    <path class="cls-1" d="m86.72,112.7c.35.38.53.9.49,1.41"/>
    <path class="cls-1" d="m82.96,107.04c-.26.05-.47.31-.48.58s.2.53.47.58"/>
    <path class="cls-1" d="m89.26,109.63c.62-.22,1.38.09,1.66.69-.14-.18.38-.44.6-.49s.45.08.56.28.14.42.13.65c0,.42-.1.85-.26,1.24"/>
    <path class="cls-1" d="m90.44,116.39c.11-.22.36-.35.6-.31s.45.24.49.48"/>
    <path class="cls-1" d="m93.84,115.86c-.04-.14-.26-.13-.35-.02s-.09.27-.07.41c0,.07.02.15.07.21.11.14.34.07.47-.05s.2-.3.35-.4"/>
    <path class="cls-1" d="m94.38,114.51c.29.02.58-.15.7-.41"/>
    <path class="cls-1" d="m109.16,143.25c4.33-7.61,8.55-15.27,12.78-22.94"/>
    <path class="cls-1" d="m111.2,146.25c1.24-1.73,2.49-3.48,3.48-5.36.73-1.39,1.32-2.84,2.02-4.24.98-1.95,2.17-3.77,3.27-5.65,1.7-2.91,3.16-5.95,4.63-8.98"/>
    <path class="cls-1" d="m71.39,12.77c-.27.43-.35.98-.22,1.47.37-.76.73-1.53,1.1-2.29-.22.9-.45,1.81-.67,2.71.51-1.12,1.11-2.2,1.79-3.23-.42,1.23-.65,2.53-.68,3.84.54-1.33,1.18-2.62,1.91-3.85-.46,1.35-.82,2.73-1.08,4.13.59-1.02,1.22-2.02,1.87-3.01.05.64-.09,1.3-.41,1.85"/>
    <path class="cls-1" d="m82.01,10.68c-.4.89-.68,1.83-.81,2.8"/>
    <path class="cls-1" d="m84.25,9.08l-1.14,3.38"/>
    <path class="cls-1" d="m86.91,8.2l-2.06,4.43"/>
    <path class="cls-1" d="m88.19,8.04l-1.68,4.54"/>
    <path class="cls-1" d="m89.92,7.5c-.64,1.37-1.19,2.77-1.65,4.21"/>
    <path class="cls-1" d="m91.35,7.86c-.58,1.1-1.02,2.29-1.3,3.5"/>
    <path class="cls-1" d="m93.33,7.7l-1.19,3.83"/>
    <path class="cls-1" d="m94.83,8.55l-.5,1.94"/>
    <path class="cls-1" d="m70.18,14.72c0-.81.24-1.63.71-2.3-.54,1.09-.66,1.08-.71,2.3Z"/>
    <path class="cls-1" d="m71.92,15.42c.14-1.38.45-2.74.93-4.04-.51,1.34-.86,2.61-.93,4.04Z"/>
    <path class="cls-1" d="m74.34,15.77c.23-1.5.59-2.98,1.09-4.41.13.76-1.01,3.64-1.09,4.41Z"/>
    <path class="cls-1" d="m104.51,155.07c-.56.87-.97,1.83-1.23,2.83"/>
    <path class="cls-1" d="m104.57,158.78c.16-1.71.62-3.38,1.37-4.92-.59,1.59-1.06,3.25-1.37,4.92Z"/>
    <path class="cls-1" d="m107.93,154.41c-.7,1.49-1.18,3.08-1.44,4.71"/>
    <path class="cls-1" d="m109.16,154.75c-.24,1.51-.68,2.99-1.3,4.38"/>
    <path class="cls-1" d="m101.72,157.38c.37-.8.92-1.53,1.59-2.11-.47.87-1.47,1.13-1.59,2.11Z"/>
    <path class="cls-1" d="m103.3,158.44l1.37-4.06c-.71,1.52-.98,2.43-1.37,4.06Z"/>
    <path class="cls-1" d="m109.66,153.87c-.87,1.95-2.4,3.41-3.11,5.43.51-1.89.58-4.59,1.55-6.29-1.06,2.4-2.46,3.99-3.28,6.48.54-1.95,1.16-3.88,1.85-5.79"/>
    <path class="cls-1" d="m110.14,155.26l-.68,2.82"/>
    <path class="cls-1" d="m130.41,31.78l.73-.8"/>
    <path class="cls-1" d="m130.49,32.99c.25-.36.6-.65,1.01-.82"/>
    <path class="cls-1" d="m130.85,33.94c.3-.4.66-.76,1.06-1.06"/>
    <path class="cls-1" d="m130.97,35.18c.24-.43.59-.79,1-1.06"/>
    <path class="cls-1" d="m131.09,36.35c.31-.39.67-.75,1.05-1.07"/>
    <path class="cls-1" d="m131.15,37.24l.81-.95"/>
    <path class="cls-1" d="m131.27,38.12l.9-.99"/>
    <path class="cls-1" d="m131.27,39.12c.33-.48.7-.94,1.1-1.37"/>
    <path class="cls-1" d="m131.46,40.07c.43-.58.9-1.14,1.39-1.67"/>
    <path class="cls-1" d="m131.9,40.94c.28-.62.71-1.17,1.24-1.6"/>
    <path class="cls-1" d="m131.96,42.06c.27-.43.59-.82.94-1.19"/>
    <path class="cls-1" d="m132.14,43c.23-.39.49-.76.78-1.11"/>
    <path class="cls-1" d="m132.32,43.89c.24-.51.58-.98,1.01-1.35"/>
    <path class="cls-1" d="m132.57,44.6c.24-.53.62-.99,1.1-1.32"/>
    <path class="cls-1" d="m132.62,45.48c.42-.57.87-1.12,1.36-1.63.02-.02.05-.05.08-.04s.02.07-.01.06"/>
    <path class="cls-1" d="m132.88,46.38l1.68-2.02"/>
    <path class="cls-1" d="m133.13,47.21l1.76-2.28"/>
    <path class="cls-1" d="m133.27,47.89l1.36-1.71"/>
    <path class="cls-1" d="m134.2,47.59c-.23.45-.6.83-1.04,1.08.66-.56,1.27-1.17,1.92-1.74"/>
    <path class="cls-1" d="m81.22,168.79c.86-1.98,1.99-3.84,3.35-5.52"/>
    <path class="cls-1" d="m91.6,168.26c.99-2.22,2.39-4.26,4.09-5.99"/>
    <path class="cls-1" d="m96.3,167.06l2.27-3.8"/>
    <path class="cls-1" d="m57.4,74.84c0,.05.02.1.06.13.28-.18.49-.46.57-.78"/>
    <path class="cls-1" d="m57.58,73.07l.53-.89"/>
    <path class="cls-1" d="m57.69,71.47c.28-.33.51-.71.67-1.11"/>
    <path class="cls-1" d="m57.69,69.46c.29-.36.53-.75.73-1.17"/>
    <path class="cls-1" d="m57.46,68.64l.96-1.65"/>
    <path class="cls-1" d="m57.51,66.93l.68-1.4"/>
    <path class="cls-1" d="m57.5,65.15l.56-1.35"/>
    <path class="cls-1" d="m57.44,63.56l.49-1.29"/>
    <path class="cls-1" d="m57.22,61.62c.19-.39.41-.76.66-1.11"/>
    <path class="cls-1" d="m56.55,59.55c.14-.4.32-.79.52-1.16"/>
    <path class="cls-1" d="m56.15,58.13l.62-1.22"/>
    <path class="cls-1" d="m55.63,56.37c.21-.31.4-.65.55-1"/>
    <path class="cls-1" d="m55.08,55.17l.93-1.5"/>
    <path class="cls-1" d="m54.75,53.89c.32-.46.6-.96.84-1.47"/>
    <path class="cls-1" d="m53.85,53.29l1.19-2.06"/>
    <path class="cls-1" d="m53.55,52.34l.75-1.52"/>
    <path class="cls-1" d="m53.21,51.17c.25-.54.55-1.05.89-1.53"/>
    <path class="cls-1" d="m87.31,166.57c.3-1.17.91-2.26,1.76-3.13"/>
    <path class="cls-1" d="m90.42,166.38c.3-.98.75-1.91,1.32-2.76"/>
    <path class="cls-1" d="m93.66,159.92l.38-.64"/>
    <path class="cls-1" d="m100.24,165.1l1.82-2.69"/>
    <path class="cls-1" d="m105.28,164.34c1.03-1.39,2.13-2.72,3.29-4"/>
    <path class="cls-1" d="m110.09,163.71c.72-1.18,1.4-2.37,2.04-3.59"/>
    <path class="cls-1" d="m114.32,162.96l1.4-2.85"/>
    <path class="cls-1" d="m119.87,161.5c.6-1.53,1.24-3.03,1.94-4.52"/>
    <path class="cls-1" d="m125.64,160.37c.54-1.18,1.11-2.34,1.72-3.48"/>
    <path class="cls-1" d="m129.74,151.62l.47-.64"/>
    <path class="cls-1" d="m132.03,158.81c.6-1.1,1.25-2.18,1.97-3.21"/>
    <path class="cls-1" d="m138.69,158.36c.65-1.22,1.2-2.48,1.67-3.78"/>
    <path class="cls-1" d="m143.6,149.51l1.69-3.58"/>
    <path class="cls-1" d="m133.32,54.48c-.4,1.83-.95,3.63-1.64,5.37"/>
    <path class="cls-1" d="m134.16,59.08l-.98,3.43"/>
    <path class="cls-1" d="m134.54,63.85l-1.22,3.79"/>
    <path class="cls-1" d="m134.86,66.88l-.98,3.04"/>
    <path class="cls-1" d="m135.87,85.22l-.98,3.23"/>
    <path class="cls-1" d="m137.56,85.97c-.59,1.21-1.06,2.49-1.4,3.8"/>
    <path class="cls-1" d="m138.52,91.32l-1.74,3.81"/>
    <path class="cls-1" d="m130.67,34.26l-1.38,3.61"/>
    <path class="cls-1" d="m131.22,38.65l-1.15,3.24"/>
    <path class="cls-1" d="m131.65,41.9l-1.36,4"/>
    <path class="cls-1" d="m132.05,46.68l-1.02,3.03"/>
    <path class="cls-1" d="m132.59,49.72c-.36.72-.63,1.49-.8,2.28"/>
    <path class="cls-1" d="m133.38,52.21c-.35,1.24-.82,2.45-1.4,3.6"/>
    <path class="cls-1" d="m140.5,113.92c-.51.56-.87,1.26-1.03,2"/>
    <path class="cls-1" d="m141.34,116.48l-.93,2.68"/>
    <path class="cls-1" d="m142.53,132.71c-.07.97-.28,1.94-.62,2.85"/>
    <path class="cls-1" d="m143.5,137.3l-.8,2.27"/>
    <path class="cls-1" d="m144.42,139.19c-.54,1.43-1.01,2.89-1.4,4.37"/>
    <path class="cls-1" d="m145.02,143.78l-1.16,3.24"/>
    <path class="cls-1" d="m144.65,148.36l-1.37,3.61"/>
    <path class="cls-1" d="m126.46,11.56l-.75,2.1"/>
    <path class="cls-1" d="m127.68,14.06l-1.15,3.81"/>
    <path class="cls-1" d="m128.26,18.08c-.57,1.34-1.02,2.72-1.34,4.14"/>
    <path class="cls-1" d="m128.27,21.9c-.42,1.01-.62,2.12-.59,3.21"/>
    <path class="cls-1" d="m128.96,24.73l-.58,2.1"/>
    <path class="cls-1" d="m130.29,25.68l-.72,3.25"/>
    <path class="cls-1" d="m130.91,28.55c-.26,1.58-.72,3.12-1.36,4.58"/>
    <path class="cls-1" d="m107.53,7.52l-1.43,2.53"/>
    <path class="cls-1" d="m111.61,5.28c-1.75,3.52-3.68,6.95-5.78,10.27"/>
    <path class="cls-1" d="m113.92,6.63c-1.3,2.05-2.32,4.29-3.01,6.62"/>
    <path class="cls-1" d="m114.65,10.42l-.76,1.91"/>
    <path class="cls-1" d="m58.03,14.25l-2.69,5.53"/>
    <path class="cls-1" d="m62.23,12.16c-2.1,3.06-3.81,6.38-5.07,9.87"/>
    <path class="cls-1" d="m63.11,17.08l-1.35,2.67"/>
    <path class="cls-1" d="m52.94,49.71c.24-.77.63-1.5,1.14-2.13"/>
    <path class="cls-1" d="m52.82,47.41l.75-1.57"/>
    <path class="cls-1" d="m52.58,45.26c.12-.51.29-1.01.51-1.48"/>
    <path class="cls-1" d="m52.42,42.78c.18-.66.44-1.3.75-1.9"/>
    <path class="cls-1" d="m52.17,40.38l.48-1.58"/>
    <path class="cls-1" d="m51.91,37.56c.2-.76.46-1.5.78-2.22"/>
    <path class="cls-1" d="m51.58,34.42l.83-1.82"/>
    <path class="cls-1" d="m51.08,32.26c.49-.66.93-1.37,1.29-2.12"/>
    <path class="cls-1" d="m51.07,29.78c.27-.65.6-1.28.97-1.87"/>
    <path class="cls-1" d="m50.82,27.38c.25-.7.6-1.36,1.03-1.97"/>
    <path class="cls-1" d="m50.78,24.75c.3-.62.64-1.23,1.01-1.81"/>
    <path class="cls-1" d="m51.03,21.78l1.21-2.09"/>
    <path class="cls-1" d="m51.16,19.27l1.2-1.88"/>
    <path class="cls-1" d="m52.41,16.22c.36-.69.81-1.32,1.35-1.89"/>
  </g>
</svg>