<?xml version="1.0" encoding="UTF-8"?>
<svg id="Layer_2" data-name="Layer 2" xmlns="http://www.w3.org/2000/svg" viewBox="0 0 236.59 166.42">
  <defs>
    <style>
      .cls-1 {
        stroke-width: .25px;
      }

      .cls-1, .cls-2 {
        fill: none;
        stroke: #000;
        stroke-miterlimit: 10;
      }

      .cls-2 {
        stroke-width: .5px;
      }
    </style>
  </defs>
  <g id="Layer_1-2" data-name="Layer 1">
    <path class="cls-2" d="m.37,91.39c.67,11.88,4.62,23.55,11.31,33.39,5.59,8.22,12.94,15.05,20.23,21.81,2.47,2.29,5.03,4.64,8.19,5.82,2.79,1.04,5.83,1.1,8.81,1.15,9.66.15,19.32.3,28.98.45,4.29.07,8.61.13,12.87-.42,21.03-2.7,35.33-19.5,39.11-23.96,9.95-11.72,14.22-24.03,16.16-32"/>
    <path class="cls-2" d="m98.6,99.8c.29.85.95,1.53,1.67,2.09,2.84,2.2,6.62,2.75,10.21,2.68,6.44-.12,12.83-2.01,18.3-5.4,2.97-1.85,5.76-4.24,7.19-7.44s1.19-7.31-1.27-9.8c-3.05-3.08-8.11-2.67-12.29-1.55-4.8,1.29-9.87,3.42-13.89,6.42-3.09,2.3-11.46,8.5-9.91,13Z"/>
    <path class="cls-2" d="m84.6,91.82c-.89-3.58,1.45-7.14,4-9.8,3.91-4.07,8.62-7.36,13.79-9.62.74-.32,1.29-.41,2.09-.45,2.74-.14,5.51,1,7.37,3.01s2.77,4.87,2.42,7.59"/>
    <path class="cls-2" d="m48.9,32.43c-.84-.12-1.68-.1-2.53-.09-1.66.03-3.31.05-4.97.08-.79.01-1.59.03-2.31.34s-1.34,1-1.33,1.78c.02,1.02,1.05,1.74,2.05,1.99,1.08.26,2.21.18,3.32.09,2.02-.16,4.04-.32,6.06-.48"/>
    <path class="cls-2" d="m44.62,24.67c1.72.18,3.16,1.48,3.94,3.02s1,3.29,1.15,5.01c.93,10.92-.78,21.87-2.49,32.69"/>
    <path class="cls-2" d="m40.54,62.5c2.47-8.46,3.29-17.4,2.4-26.18"/>
    <path class="cls-2" d="m50.07,35.52c-1.3.6-2.77.65-4.2.69-1.63.05-3.26.09-4.89.14-1.05.03-2.37-.12-2.71-1.11.8-.98,2-1.56,3.24-1.83s2.51-.26,3.77-.25c1.26.01,2.51.02,3.77.04"/>
    <path class="cls-2" d="m68.4,107.8c.97-1.48,1.96-3.05,2.12-4.81.11-1.24-.22-2.48-.63-3.65-2.21-6.26-7.78-10.11-10.28-16.21s-2.71-12.38-2.14-18.59c.82-9.04,3.28-17.95,2.98-27.02-.11-3.35-.6-6.68-1.34-9.95-.58-2.54-1.43-5.23-3.52-6.78s-5.74-1.12-6.55,1.35c-1.68-1.5-4.85-.36-5.2,1.86,4.76,3.54,6.99,10.09,7.14,16.02.2,8.16-.84,16.31-2.38,24.33-.6,3.14-1.29,6.28-1.4,9.47-.31,8.83,3.77,17.42,3.14,26.23-.04.53-.1,1.08-.37,1.54-.3.5-.82.84-1.34,1.1-1.68.85-3.69,1.16-5.47.53s-3.21-2.32-3.25-4.2"/>
    <path class="cls-2" d="m42.04,105.7c-2.67-2.11-4-4.26-4.64-5.52-.74-1.44-.88-2.42-.93-3.32-.06-1.15.23-2.36,1-3.22.77-.87,1.69-1.17,3.06-1.58,1.36-.41,2.53-.51,3.33-.52"/>
    <path class="cls-2" d="m49.82,106.65l-.32.24h0c.48.12,4.2,1.02,6.02-1.01.88-.98.99-2.34.78-4.77-.35-4.06-1.55-8.04-3.51-11.61"/>
    <path class="cls-2" d="m28.71,90.49c-1.38-1.35-2.76-2.73-3.71-4.41s-1.42-3.71-.87-5.56c.74-2.48,3.12-4.1,5.46-5.21,2.83-1.35,5.92-2.29,9.06-2.27s6.34,1.07,8.59,3.26"/>
    <path class="cls-2" d="m66.74,89.22c-7.89-4.16-9.06-13.62-.95-18.11,3.55-1.97,7.43-1.19,10.63,1.07,1.31.92,2.15,1.88,3.77,2.12,1.83.27,3.79.08,5.67.33,3.29.45,6.61.65,9.93.6"/>
    <path class="cls-2" d="m114.02,77.42c.97-.19,1.98-.02,2.95.16,2.19.4,4.38.79,6.57,1.19"/>
    <path class="cls-2" d="m139.3,83.45c-1.61-.58-3.16-1.32-4.62-2.23"/>
    <path class="cls-2" d="m122.12,78.4c1.25.52,2.58.84,3.93.94"/>
    <path class="cls-2" d="m40.01,152.07c-.78,1.53-1.43,3.13-1.95,4.77-.2.63-.37,1.31-.14,1.93.3.8,1.16,1.21,1.95,1.55,2.38,1.01,4.76,2.02,7.24,2.74,3.6,1.06,7.35,1.5,11.07,1.94,5.82.69,11.67,1.38,17.52,1.09,2.62-.13,5.22-.45,7.82-.77,6.88-.85,13.82-1.71,20.36-4.02,2.11-.74,4.54-2.19,4.39-4.42-.05-.77-.43-1.48-.79-2.17-.75-1.41-1.51-2.82-2.26-4.23"/>
    <path class="cls-2" d="m9.87,99.44c-.93-.63-1.16-1.96-.83-3.04s1.1-1.95,1.85-2.79c.62-.69,1.23-1.38,1.85-2.06"/>
    <path class="cls-2" d="m18.92,96.72c-1.01-.84-1.83-1.9-2.48-3.03-1.59-2.75-2.27-5.93-2.92-9.04,2.61-.28,5.26.62,7.4,2.15s3.81,3.63,5.16,5.88"/>
    <path class="cls-2" d="m29.47,93.16c-1.02-.79-2.4-1.03-3.68-.88s-2.5.68-3.64,1.29c-1.43.76-2.83,1.71-3.67,3.09s-.98,3.3.03,4.57"/>
    <path class="cls-2" d="m37.18,93.5c-1.36-1.02-3.27-.77-4.92-.37-.78.19-1.58.41-2.22.91-.9.7-1.35,1.86-1.4,2.99-.05,1.14.26,2.26.64,3.33.32.89.71,1.77,1.32,2.48,0,0,.62.72,1.56,1.29,2.62,1.61,8.23,1.42,8.5,1.41"/>
    <path class="cls-2" d="m8.75,87.83c-2.74.03-4.79,3.06-4.44,5.78s2.52,4.93,5,6.11c1.73.82,3.61,1.24,5.48,1.63,34.41,7.22,70.16,8.04,104.86,2.38,6.74-1.1,13.55-2.47,19.62-5.61,2.1-1.09,4.37-2.89,4.11-5.24-.3-2.81-3.82-3.94-5.43-6.27"/>
    <path class="cls-2" d="m23.7,79.38c-4.88.79-9.66,2.1-14.25,3.93-2.16.86-4.3,1.84-6.05,3.37-1.75,1.53-3.06,3.68-3.14,6-.07,2.23,1.01,4.38,2.57,5.98,2.18,2.23,4.58,3.23,5.6,3.58,12.16,4.16,18.24,6.25,24.14,7.16,6.14.95,14.42,1.85,24.36,1.79,4.72-.03,9.84,1.12,14.55.77,9.74-.74,19.47-1.48,29.21-2.22,2.29-.17,4.57-.35,6.85-.58,11.1-1.15,22.04-3.77,32.46-7.78,3.26-1.25,6.91-3.19,7.43-6.64.39-2.54-.99-4.78-1.94-6.23-3.23-4.94-8.5-6.68-10.79-7.27"/>
    <path class="cls-2" d="m84.87,86.98c.25-.05.24-.42.17-.66-1.44-4.57-4.31-8.53-7.13-12.4"/>
    <path class="cls-2" d="m40.29,25.38c-.06-.09.19-.09.13,0"/>
    <path class="cls-2" d="m41.98,28.39c.11,0,.02-.2-.08-.15s-.1.19-.08.3c.18,1.29.35,2.57.53,3.86"/>
    <path class="cls-2" d="m58.18,23.28C113.38,15.71,168.57,8.13,223.77.56c2.24-.31,4.6-.6,6.69.27s3.69,3.33,2.79,5.41c-34.35,4.17-68.71,8.34-103.06,12.51-23.97,2.91-47.95,5.82-71.93,8.66"/>
    <path class="cls-2" d="m44.36,25.19c.11-.08-.02-.28-.14-.22-1.39.24-2.77.47-4.16.71-.73.13-1.47.25-2.2.38-.74.13-1.51.27-2.09.73s-.88,1.37-.44,1.98c.42.57,1.25.61,1.95.58,3.72-.17,7.42-.74,11.02-1.71"/>
    <path class="cls-2" d="m60.57,31.64c55.91-4.33,111.81-8.66,167.72-12.99,1.95-.15,4.01-.28,5.75.6s2.93,3.17,1.94,4.85c-58.32,4.44-116.71,8.06-175.14,10.85"/>
    <path class="cls-2" d="m75.58,91.05c-1.36-.76-1.69-2.53-1.87-4.08-.24-2.05-.48-4.1-.73-6.15,2.48.57,4.99,1.16,7.22,2.37s4.2,3.14,4.88,5.59"/>
    <path class="cls-2" d="m79.75,90.12c-.46-.77-1.39-1.24-2.28-1.12s-1.68.84-1.85,1.72c-.22,1.1.46,2.18,1.28,2.94.93.86,2.14,1.5,3.4,1.46.4-.01.85-.12,1.05-.47.5-.86.1-.98,1-1.55s2.64-.53,3.64-.56c2.59-.07,5.21.52,7.5,1.76,4.25,2.29,7.3,7.05,6.79,11.86"/>
    <path class="cls-2" d="m83.27,107.8c.89-2.33-.07-4.95-1.34-7.1-3.48-5.89-9.4-10.29-16.04-11.94"/>
    <path class="cls-2" d="m98.12,95.28c-1.19.41-2.51.18-3.69-.26-.95-.36-1.87-.87-2.55-1.63-.94-1.03-1.37-2.46-1.41-3.85-.06-2.43,1.05-4.86,2.94-6.4s4.49-2.14,6.86-1.59c.75-.31.76-.42,1.46-.01s1.27,1.01,1.82,1.61c.69.76,1.38,1.53,1.82,2.46s.59,2.04.17,2.97"/>
    <path class="cls-2" d="m113.37,87.06c-2.82,1.49-4.22,5.2-3.09,8.18s4.65,4.82,7.74,4.06c2.1-.52,3.84-2.06,5.01-3.88,1.24-1.94,1.88-4.55.69-6.53-.73-1.21-2.03-1.97-3.33-2.53-1.65-.7-3.47-1.17-5.25-.92s-3.52,1.32-4.21,2.98"/>
    <path class="cls-1" d="m28.89,92.34c-.4-1.01.02-2.19.75-2.99s1.73-1.29,2.71-1.76c1.54-.75,3.11-1.5,4.79-1.82.71-.13,1.42-.18,2.14-.19,2.95-.01,5.9.82,8.4,2.38"/>
    <path class="cls-1" d="m48.89,21.37c1.6,1.15,2.72,2.88,3.4,4.72s.97,3.82,1.14,5.78"/>
    <path class="cls-1" d="m53.54,34.87c.51.5.61,1.28.66,2,.17,2.32.15,4.65-.05,6.97"/>
    <path class="cls-1" d="m54.59,51.43c-2.15,9.28-4.3,18.8-3.08,28.25.69,5.34,2.46,10.49,4.57,15.45.8,1.87,1.66,3.75,2.02,5.75s.19,4.2-.96,5.88"/>
    <path class="cls-1" d="m56.09,30.61c3.34,14.4-4.29,29.51-1.63,44.05"/>
    <path class="cls-1" d="m60.52,106.12c1.55-2.38,1.62-5.49.91-8.24s-2.12-5.27-3.39-7.82-2.42-5.24-2.55-8.08c.1,2.11,1.97,4.35,3.26,5.87,1.46,1.72,2.4,3.22,3.1,5.39,1.2,3.7,1.46,7.7.73,11.52"/>
    <path class="cls-1" d="m109.92,93.16s.02.1-.02.1-.08-.06-.04-.09c.55,1.04,1.1,2.07,1.65,3.11"/>
    <path class="cls-1" d="m109.67,90.97l2.29,4.77"/>
    <path class="cls-1" d="m110.3,90.33c.87,2.13,1.84,4.22,2.91,6.26"/>
    <path class="cls-1" d="m110.55,89.08l3.18,6.94"/>
    <path class="cls-1" d="m111.1,88.14c1.01,2.48,2.12,4.91,3.32,7.3"/>
    <path class="cls-1" d="m112.05,87.43c.98,2.87,2.21,5.65,3.67,8.3"/>
    <path class="cls-1" d="m112.75,87.17c.13.03.21.16.27.29.95,1.9,1.89,3.8,2.84,5.7"/>
    <path class="cls-1" d="m113.54,85.94l2.72,6.03"/>
    <path class="cls-1" d="m114.22,85.01c.96,2.43,2.07,4.81,3.31,7.11"/>
    <path class="cls-1" d="m115.85,85.22l2.59,5.44"/>
    <path class="cls-1" d="m117.46,85.22c-.1-.07-.08-.25.03-.3.67,1.79,1.48,3.53,2.44,5.18"/>
    <path class="cls-1" d="m118.93,86c-.02-.07.07-.13.15-.11s.11.1.15.17c.65,1.26,1.26,2.54,1.84,3.83"/>
    <path class="cls-1" d="m120.61,86.63c.58,1.05,1.12,2.13,1.62,3.22"/>
    <path class="cls-1" d="m122.23,87.51l.77,1.88"/>
    <path class="cls-1" d="m110.92,88.85l1.46,3.26"/>
    <path class="cls-1" d="m111.67,88.28l1.31,2.98"/>
    <path class="cls-1" d="m112.47,87.5l1.67,3.63"/>
    <path class="cls-1" d="m113.38,86.8c.41,1.04.89,2.06,1.42,3.04"/>
    <path class="cls-1" d="m114.43,85.85c.48,1.33,1,2.65,1.56,3.95"/>
    <path class="cls-1" d="m115.28,85.47c.43,1.23.91,2.43,1.45,3.61"/>
    <path class="cls-1" d="m116.2,85.73c.12.2.23.41.33.62.33.68.58,1.39.83,2.1"/>
    <path class="cls-1" d="m117.09,85.46l1.14,2.99"/>
    <path class="cls-1" d="m118.21,85.72l1.37,3.27"/>
    <path class="cls-1" d="m119.37,86.07c.47.9.89,1.83,1.24,2.78"/>
    <path class="cls-1" d="m117.87,99.49l.12-.63c.08.04.11.16.06.23-.56-.89-1.06-1.81-1.48-2.77"/>
    <path class="cls-1" d="m118.91,98.33c-.75-1.08-1.37-2.24-1.85-3.46"/>
    <path class="cls-1" d="m119.64,97.52c-.75-.97-1.39-2.03-1.91-3.15"/>
    <path class="cls-1" d="m120.26,97.06l-1.71-2.59"/>
    <path class="cls-1" d="m121.03,96.99l-1.9-3.3c.06,0,.12,0,.18,0"/>
    <path class="cls-1" d="m121.25,96.21l-1.45-2.84c-.08-.15-.14-.35-.02-.46"/>
    <path class="cls-1" d="m121.74,95.5l.22.24c-.25-.59-.6-1.15-1.02-1.63"/>
    <path class="cls-1" d="m122.79,95.32l-1.67-3.29s-.04-.09-.02-.13.09-.04.1,0"/>
    <path class="cls-1" d="m123,94.24c-.34-.96-.74-1.9-1.2-2.8"/>
    <path class="cls-1" d="m123.48,93.14l-.79-2.11"/>
    <path class="cls-1" d="m123.47,91.74c-.2-.69-.55-1.33-1.01-1.88"/>
    <path class="cls-1" d="m113.14,97.14c.23.61.55,1.2.93,1.73"/>
    <path class="cls-1" d="m114.15,97.22l.98,1.78"/>
    <path class="cls-1" d="m114.65,96.42c.44.74.85,1.51,1.21,2.29"/>
    <path class="cls-1" d="m115.55,96.05l1.2,2.42"/>
    <path class="cls-1" d="m90.57,90.11c.45.74.81,1.35,1.38,2-.32-.46-.67-.9-1.04-1.31"/>
    <path class="cls-1" d="m90.21,88.76c.69.79,1.31,1.63,1.86,2.52"/>
    <path class="cls-1" d="m90.38,87.89l1.7,2.29"/>
    <path class="cls-1" d="m90.82,87.05l1.71,2.43"/>
    <path class="cls-1" d="m91.13,86.12c.73.91,1.4,1.87,1.99,2.87"/>
    <path class="cls-1" d="m91.72,85.37c.71.9,1.35,1.85,1.93,2.84"/>
    <path class="cls-1" d="m92.32,84.61c.63.89,1.23,1.81,1.79,2.75"/>
    <path class="cls-1" d="m92.95,83.99l2.27,3.13"/>
    <path class="cls-1" d="m93.58,83.9s-.04-.07,0-.07.07.02.1.05c.7.78,1.31,1.63,1.84,2.54"/>
    <path class="cls-1" d="m93.96,82.89c.87,1.03,1.66,2.13,2.36,3.28"/>
    <path class="cls-1" d="m94.95,82.55c.79,1.05,1.52,2.13,2.2,3.26"/>
    <path class="cls-1" d="m95.69,82.42c-.09-.05-.13-.19-.07-.28.82,1.14,1.65,2.28,2.47,3.43"/>
    <path class="cls-1" d="m96.51,82c.93,1.05,1.76,2.19,2.45,3.41"/>
    <path class="cls-1" d="m97.48,81.63s.02-.09.06-.09.08.05.11.09c.7.97,1.4,1.95,2.09,2.92"/>
    <path class="cls-1" d="m98.51,81.7c-.12-.05-.16-.22-.08-.33.89.99,1.69,2.05,2.41,3.17"/>
    <path class="cls-1" d="m99.41,81.41l-.05-.28c.98,1.06,1.85,2.22,2.6,3.45"/>
    <path class="cls-1" d="m100.94,81.79c.73.74,1.39,1.56,1.94,2.44"/>
    <path class="cls-1" d="m102.11,81.79c.51.55.95,1.16,1.31,1.82"/>
    <path class="cls-1" d="m92.07,84.78l.93,1.49"/>
    <path class="cls-1" d="m93.03,83.83c.31.53.68,1.03,1.09,1.49"/>
    <path class="cls-1" d="m93.75,83.27c.33.56.73,1.08,1.17,1.56"/>
    <path class="cls-1" d="m94.45,82.8l1.13,1.44"/>
    <path class="cls-1" d="m95.46,82.18l1.33,1.88"/>
    <path class="cls-1" d="m96.42,81.92c.53.57,1.01,1.19,1.44,1.84"/>
    <path class="cls-1" d="m97.56,81.8l1.47,2.13"/>
    <path class="cls-1" d="m93.58,92.05l2.2,2.11"/>
    <path class="cls-1" d="m94.68,91.26c.76.85,1.59,1.65,2.47,2.38"/>
    <path class="cls-1" d="m95.06,89.86c1.08,1.19,2.27,2.28,3.55,3.25"/>
    <path class="cls-1" d="m96.61,90.04c1.16.93,1.95,2.34,3.29,3"/>
    <path class="cls-1" d="m97.97,89.61c.79.93,1.65,1.79,2.57,2.6"/>
    <path class="cls-1" d="m99.49,89.9l1.42,1.6c.21.23.43.47.72.57"/>
    <path class="cls-1" d="m100.16,89.3c.65.76,1.31,1.5,2,2.23"/>
    <path class="cls-1" d="m101,89l2.12,2.03"/>
    <path class="cls-1" d="m101.72,88.13l2.03,2.2"/>
    <path class="cls-1" d="m102.67,87.8c.47.5.91,1.03,1.3,1.59"/>
    <path class="cls-1" d="m102.88,86.75l.47.62c.44.57.87,1.15,1.31,1.72"/>
    <path class="cls-1" d="m103.05,85.93c-.1-.06-.16-.18-.14-.29.77.97,1.52,1.96,2.25,2.96"/>
    <path class="cls-1" d="m103.6,85.62c-.07-.1-.07-.24,0-.34.65.73,1.25,1.5,1.79,2.31"/>
    <path class="cls-1" d="m103.98,84.38c.74.73,1.33,1.62,1.73,2.58"/>
    <path class="cls-1" d="m98.85,89.21c-.03.25.12.48.26.68.53.77,1.05,1.54,1.58,2.31"/>
    <path class="cls-1" d="m97.25,90.4c-.07-.1.06-.24.19-.23s.21.11.3.2c.7.8,1.39,1.61,2.06,2.44"/>
    <path class="cls-1" d="m96.12,90.68c1.03.93,1.98,1.93,2.87,3"/>
    <path class="cls-1" d="m96.45,92.93l2.06,2.25"/>
    <path class="cls-1" d="m95.91,94.09c.28.53.65,1.01,1.1,1.41"/>
    <path class="cls-1" d="m95.48,87.51c-.02.44.22.88.6,1.09"/>
    <path class="cls-1" d="m97.02,87.12l.93.79"/>
    <path class="cls-1" d="m98.02,86.19l1.02,1.09"/>
    <path class="cls-1" d="m116.12,92.91c.17.33.41.63.69.87"/>
    <path class="cls-1" d="m118.07,92.44c.07.16.22.28.39.31"/>
    <path class="cls-1" d="m119.26,90.7l.77.72"/>
    <path class="cls-1" d="m75.27,84.29l-.87-1.07c1.25,1.77,2.84,3.25,4.43,4.72,1.54,1.43,3.08,2.86,4.62,4.28"/>
    <path class="cls-1" d="m79.32,95.18c.02-.08-.06-.16-.13-.15-.21.58-.19,1.23.05,1.8"/>
    <path class="cls-1" d="m87.19,96.37c-.12-.4-.54-.65-.96-.7s-.83.06-1.24.17c-.35.1-.71.2-.95.47-.16.18-.25.41-.3.65-.22.98.15,2.07.92,2.73"/>
    <path class="cls-1" d="m83.53,102.76c.17.47.37.95.76,1.26.4.32.93.41,1.43.48.54.08,1.13.16,1.61-.11,1.78-.98,1.02-4.44-.64-5.17-.77-.34-1.82-.12-2.5.34-1.16.78-1.09,2.02-.66,3.19Z"/>
    <path class="cls-1" d="m88.64,100.43l-.1-.11c.29-.56.5-1.16.61-1.78.05-.26.07-.53-.03-.78-.08-.2-.24-.35-.41-.49-.51-.44-1.08-.82-1.69-1.12"/>
    <path class="cls-1" d="m93.06,102.73c-.73-.79-1.65-.31-2.35-.78s-.56-1.93-.31-2.59c.11-.29.25-.57.46-.79.43-.45,1.11-.61,1.73-.52s1.19.38,1.72.72c.38.24.75.52,1,.9.33.49.43,1.11.38,1.71s-.22,1.17-.4,1.73"/>
    <path class="cls-1" d="m90.49,96.24c1.05.33,2.11.67,3.06,1.24,2.69,1.62,4.04,5.18,3.08,8.17"/>
    <path class="cls-1" d="m90.85,102.51c-.25-.13-.53.13-.7.37-.42.59-.86,1.32-.6,2,.1.25.28.47.48.65.52.48,1.17.81,1.87.96.42.09.86.11,1.26-.04.58-.22.97-.76,1.3-1.29.31-.5.59-1.14.27-1.63-.14-.22-.38-.36-.6-.49-.63-.36-1.27-.72-1.9-1.08"/>
    <path class="cls-1" d="m98.21,105.99c.14-.6.12-1.23.1-1.84-.04-.88-.09-1.77-.34-2.62s-.73-1.66-1.46-2.15"/>
    <path class="cls-1" d="m81.67,94.08c1.48.23,2.99.24,4.46.03"/>
    <path class="cls-1" d="m79.65,96.23c1.26-.29,2.61-.23,3.84.17"/>
    <path class="cls-1" d="m81.29,97.07c.76-.03,1.52-.02,2.27.03"/>
    <path class="cls-1" d="m81.99,98.35l1.26.09"/>
    <path class="cls-1" d="m107.91,90.83l-.06.5c-.06.55-.13,1.11,0,1.64"/>
    <path class="cls-1" d="m109.66,97.41c1.28,1.32,3,2.22,4.81,2.53"/>
    <path class="cls-1" d="m124.12,88.62c.07-.11.24-.13.35-.06s.18.19.23.32c.24.53.39,1.1.43,1.68"/>
    <path class="cls-1" d="m125.13,93.69c-.06,1.03-.7,1.94-1.38,2.72-.64.74-1.33,1.43-2.07,2.07"/>
    <path class="cls-1" d="m88.45,92.11c-.33-.87-.52-1.79-.55-2.72"/>
    <path class="cls-1" d="m88.89,86.62c.56-1.46,1.49-2.76,2.69-3.76"/>
    <path class="cls-1" d="m95.07,81.25c.33-.54,1-.73,1.62-.87,1.32-.31,2.71-.62,4.02-.25"/>
    <path class="cls-1" d="m103.5,81.27c1.42,1.03,2.47,2.54,2.96,4.22"/>
    <path class="cls-1" d="m137.64,86.57l.08.21c-.32-.16-.67-.26-1.02-.31"/>
    <path class="cls-1" d="m116.11,80.63c.84.1,1.68.25,2.51.44"/>
    <path class="cls-1" d="m80.59,78.43c.7-.6,1.74-.41,2.65-.29,2.8.38,5.69-.19,8.45.4"/>
    <path class="cls-1" d="m71.91,82.25c-.97-.39-2.1-.09-3.1-.39-.41-.13-.79-.35-1.16-.58-1.65-1-3.55-1.89-5.02-3.14-.62-.53-.65-1.52-.26-2.24s1.09-1.2,1.79-1.61c1.23-.73,2.55-1.31,3.92-1.73.71-.22,1.45-.4,2.19-.35,1.51.11,2.77,1.14,3.92,2.13.56.48,1.16,1.04,1.23,1.77.05.51-.18,1.01-.4,1.47-.5,1.01-1.03,2.01-1.61,2.98"/>
    <path class="cls-1" d="m61.84,79.83c-.14.58.1,1.17.36,1.7,1.39,2.89,3.35,5.52,5.71,7.69"/>
    <path class="cls-1" d="m62.39,79.97c2.59.97,5.14,2.08,7.61,3.32.54.27,1.08.55,1.51.97.43.42.72.95,1,1.48.62,1.21,1.17,2.46,1.65,3.73"/>
    <path class="cls-1" d="m74.85,80.69c.66-1.11,1.53-2.1,2.55-2.88.12-.09.25-.18.4-.2.21-.02.39.12.55.25,2.58,2.07,4.57,4.86,5.7,7.97"/>
    <path class="cls-1" d="m73.67,89.04c.74,1.25,1.29,2.61,1.61,4.02"/>
    <path class="cls-1" d="m62.27,77.81c-.13-.12,0-.34.13-.46.56-.53,1.11-1.05,1.67-1.58"/>
    <path class="cls-1" d="m63.53,78.67c.52-.96,1.12-1.88,1.79-2.75"/>
    <path class="cls-1" d="m64.28,78.97c.73-1.24,1.62-2.39,2.63-3.41"/>
    <path class="cls-1" d="m65.06,79.87c.89-1.62,2.02-3.1,3.35-4.37"/>
    <path class="cls-1" d="m66.21,80.44c.86-1.49,1.91-2.87,3.12-4.1"/>
    <path class="cls-1" d="m67.27,80.7l2.41-3.22"/>
    <path class="cls-1" d="m68.47,81.26c.49-1.03,1.21-1.95,2.09-2.68"/>
    <path class="cls-1" d="m69.52,81.62c.53-.76,1.15-1.46,1.84-2.08"/>
    <path class="cls-1" d="m71.13,81.81c.49-.56.93-1.17,1.29-1.83"/>
    <path class="cls-1" d="m69.85,72.24c-.38.44-.67.95-.87,1.49"/>
    <path class="cls-1" d="m71.54,72.27l-.94,2.07"/>
    <path class="cls-1" d="m72.37,73.04l-1.35,2.34"/>
    <path class="cls-1" d="m73.43,73.93c-.65.89-1.25,1.81-1.81,2.76"/>
    <path class="cls-1" d="m74.19,74.61c-.56.92-1.14,1.83-1.75,2.72"/>
    <path class="cls-1" d="m75.07,75.48c-.63,1.12-1.28,2.23-1.95,3.32"/>
    <path class="cls-1" d="m78.16,77.89c-.65.76-1.21,1.6-1.67,2.49"/>
    <path class="cls-1" d="m78.63,78.52l-1.53,2.32"/>
    <path class="cls-1" d="m79.2,79.27s.03-.08.06-.04,0,.09-.02.13c-.37.63-.74,1.25-1.11,1.88"/>
    <path class="cls-1" d="m79.93,80.17c-.22.54-.51,1.06-.85,1.54"/>
    <path class="cls-1" d="m80.64,80.9c-.22.37-.37.78-.44,1.21"/>
    <path class="cls-1" d="m81.21,81.64c.06-.06.16-.09.25-.06-.12.35-.24.71-.37,1.06"/>
    <path class="cls-1" d="m82.14,82.42l-.67,1.12"/>
    <path class="cls-1" d="m62.52,82.75c.22-.34.51-.64.85-.87"/>
    <path class="cls-1" d="m64.03,83.62c.24-.5.59-.95,1.02-1.31"/>
    <path class="cls-1" d="m64.63,84.54c.43-.55.9-1.08,1.4-1.58"/>
    <path class="cls-1" d="m65.23,85.62c.46-.73.99-1.4,1.58-2.02"/>
    <path class="cls-1" d="m65.95,86.53s-.04.09,0,.09.08-.05.11-.09c.47-.87,1.09-1.66,1.83-2.32"/>
    <path class="cls-1" d="m66.7,87.39c-.06.04.01.15.08.14s.12-.09.15-.15c.53-.98,1.2-1.89,1.97-2.69"/>
    <path class="cls-1" d="m67.51,87.82v.2c.75-.96,1.5-1.92,2.26-2.88"/>
    <path class="cls-1" d="m68.42,88.87c.59-1.07,1.37-2.05,2.29-2.86"/>
    <path class="cls-1" d="m69.11,89.96c.64-.95,1.38-1.84,2.2-2.64"/>
    <path class="cls-1" d="m69.82,90.68c.64-.57,1.2-1.22,1.68-1.93"/>
    <path class="cls-1" d="m74.32,85.41l1.17-.25"/>
    <path class="cls-1" d="m75.1,87.82c.92-.05,1.84.03,2.74.24"/>
    <path class="cls-1" d="m76.29,82.59c.09.71.22,1.41.4,2.1"/>
    <path class="cls-1" d="m77.77,83.91c-.15.96-.1,1.96.15,2.9"/>
    <path class="cls-1" d="m79.76,85.38c-.44,1.18-.42,2.52.04,3.69"/>
    <path class="cls-1" d="m81.33,86.72c-.3,1.1-.25,2.29.13,3.37"/>
    <path class="cls-1" d="m83.09,88.61l-.24,1.64"/>
    <path class="cls-1" d="m77.53,92.91c-.08.08-.07.23.01.31s.21.11.32.1c.35-.02.65-.27.82-.58s.23-.66.28-1"/>
    <path class="cls-1" d="m77.71,92.13c0-.5-.2-1-.54-1.37-.23-.05-.76.36-.73.59s1.1.61,1.27.78Z"/>
    <path class="cls-1" d="m79.02,93.78c.06.17.32.19.46.09s.21-.29.27-.47c.1-.32.21-.63.31-.95"/>
    <path class="cls-1" d="m85.72,100.75c-.03-.18-.27-.27-.44-.19s-.26.27-.3.45c-.09.47.12.98.53,1.23"/>
    <path class="cls-1" d="m86.65,100.52c.54.38.72,1.19.39,1.76"/>
    <path class="cls-1" d="m85.87,97.46c-.01-.13.11-.24.23-.26s.25.04.36.1c.36.22.61.59.69,1"/>
    <path class="cls-1" d="m90.69,103.81c-.46.25-.46,1.04,0,1.3"/>
    <path class="cls-1" d="m92.34,104.09c.27.29.48.65.61,1.03"/>
    <path class="cls-1" d="m91.85,103.23c.46-.25,1.07-.19,1.46.15s.54.94.36,1.42"/>
    <path class="cls-1" d="m92.09,99.87c-.38.3-.29,1,.15,1.19"/>
    <path class="cls-1" d="m93.02,99.28c1.07-.1,1.73,1.18,1.4,2.08"/>
    <path class="cls-1" d="m84.54,97.51c-.14.3-.09.69.12.94"/>
    <path class="cls-1" d="m77.04,102.19c-.25.31-.32.74-.31,1.14.02.53.17,1.06.48,1.48s.79.74,1.32.79c.55.05,1.1-.18,1.54-.52.51-.4.91-1.02.82-1.66-.2-1.48-2.84-2.47-3.84-1.23Z"/>
    <path class="cls-1" d="m78,103.07c.41.05.74.46.7.87"/>
    <path class="cls-1" d="m79.32,102.93c.08.33.11.67.09,1.01"/>
    <path class="cls-1" d="m71.67,92.81c2.4,1.72,4.84,3.48,6.64,5.84s2.88,5.43,2.17,8.3"/>
    <path class="cls-1" d="m75.27,98.28c1.18.42,2.01,1.68,1.92,2.93"/>
    <path class="cls-1" d="m78.35,106.22c.02-.1.18-.09.23-.01s.04.19.02.29c-.04.22-.08.44-.13.65"/>
    <path class="cls-1" d="m76.66,107.46l.39-1.64"/>
    <path class="cls-1" d="m73.93,107.08c.94-.63,1.53-1.67,1.84-2.76.14-.48.22-.99.16-1.49s-.29-.99-.68-1.31"/>
    <path class="cls-1" d="m61.82,84.64c1.5,3.58,4.42,6.33,6.94,9.29,1.39,1.63,2.7,3.38,3.47,5.38s.96,4.3.13,6.28c-.22.53-.6,1.09-1.17,1.16"/>
    <path class="cls-1" d="m57.19,81.68c-.2-.09-.3.26-.25.47.5,2.06,1.67,3.91,3.03,5.54s2.94,3.06,4.4,4.6"/>
    <path class="cls-1" d="m61.54,90.74l3.43,3.55c.6.62,1.2,1.24,1.63,1.98.79,1.37.93,3.02.91,4.61-.02,1.16-.11,2.34-.49,3.44s-1.07,2.13-2.06,2.73"/>
    <path class="cls-1" d="m63.6,105.83c-.33.3-.6.67-.78,1.08.63-.26.95-.96,1.21-1.59.65-1.58,1.3-3.21,1.27-4.91-.03-1.86-.87-3.6-1.37-5.4"/>
    <path class="cls-1" d="m62.26,106.3c.02.08.14.02.19-.06,1.48-2.43,2.15-5.34,1.88-8.17"/>
    <path class="cls-1" d="m57.68,106.77c-.19.14.19.34.4.23.63-.33.86-1.1,1.01-1.79.4-1.73.77-3.49.64-5.26-.1-1.32-.47-2.6-.89-3.86-1.26-3.73-2.94-7.32-5.01-10.68-.94-1.52-1.99-3.08-2.18-4.86"/>
    <path class="cls-1" d="m49.82,105.37c-.07-.07.05-.17.14-.2,1.15-.35,2.17-1.13,2.82-2.15s.92-2.27.75-3.47"/>
    <path class="cls-1" d="m49.48,80.07c.45,3.15,1.52,6.21,3.12,8.95"/>
    <path class="cls-1" d="m88.17,93.22c.5.04,1,.02,1.49-.07"/>
    <path class="cls-1" d="m88.17,93.97l2.97.03"/>
    <path class="cls-1" d="m89.19,94.8l4.3-.41"/>
    <path class="cls-1" d="m81.68,78.83l-.21.11c2.65.04,5.62.41,8.27.44-.95,0-1.69.28-2.6.43-1.21.2-2.53.08-3.76.1-.66.01-1.32.02-1.96.18"/>
    <path class="cls-1" d="m84.73,85.08l-.06-.03c.33-.03.67-.06,1-.08"/>
    <path class="cls-1" d="m84.25,84c.55-.1,1.1-.14,1.65-.12"/>
    <path class="cls-1" d="m83.59,83.29c-.09.01-.13-.12-.07-.19s.15-.08.24-.09c.92-.1,1.85-.2,2.77-.3"/>
    <path class="cls-1" d="m83.07,81.9c.54-.13,1.1-.16,1.66-.19,1.04-.05,2.09-.11,3.13-.16"/>
    <path class="cls-1" d="m82.37,81.25c2.03-.35,4.07-.59,6.12-.73"/>
    <path class="cls-1" d="m82.07,79.43c2.45-.02,4.91-.1,7.36-.24"/>
    <path class="cls-1" d="m80.81,78.97c3.31-.26,6.63-.33,9.95-.2"/>
    <path class="cls-1" d="m82.12,81.22c.15-.1.34-.11.52-.11,1.45-.03,2.9-.06,4.35-.08"/>
    <path class="cls-1" d="m82.22,80.5c1.98-.08,3.97-.06,5.95.06"/>
    <path class="cls-1" d="m83.42,82.03s-.08-.02-.06.02.07.05.11.05c1.13.04,2.25.02,3.37-.08"/>
    <path class="cls-1" d="m83.72,82.92c1.01-.12,2.04-.14,3.05-.06"/>
    <path class="cls-1" d="m83.79,84.13l2.27-.17"/>
    <path class="cls-1" d="m84.33,85.46l1.58-.43"/>
    <path class="cls-1" d="m87.08,81.09c.84-.35,1.76-.51,2.66-.47"/>
    <path class="cls-1" d="m88.56,81.63c-.79.07-1.58.21-2.35.4"/>
    <path class="cls-1" d="m88.1,82.46c-1.01.1-2.01.29-2.98.57"/>
    <path class="cls-1" d="m86.53,83.97c-.62.1-1.25.17-1.87.19"/>
    <path class="cls-1" d="m91.07,79.12c-.72.05-1.44.21-2.11.48"/>
    <path class="cls-1" d="m84.26,77.38c3.29-.11,6.57-.17,9.86-.17"/>
    <path class="cls-1" d="m115.12,81.05c-.33-.2-.73-.3-1.12-.28.75,0,1.51.01,2.26.02"/>
    <path class="cls-2" d="m47.35,61.85c-.38,1.67-1.04,3.28-1.93,4.73-.21.33-.5.7-.89.66-.26-.02-.47-.23-.63-.44-.8-1.03-1.25-2.49-.42-3.54.84-1.06,1.2-2.4,1.5-3.71,1.66-7.35,1.78-15.05.33-22.45"/>
    <path class="cls-2" d="m45.19,96.65c.57-.2,1.2-.13,1.76.07s1.06.55,1.54.92c.62.48,1.24,1.08,1.3,1.86"/>
    <path class="cls-2" d="m47.95,99.35c-.06-.04-.1-.12-.08-.2.37.4.75.8,1.03,1.27s.44,1.03.36,1.56"/>
    <path class="cls-2" d="m43.36,91.84c1.39-.67,3.06-.32,4.46.33.81.38,1.59.87,2.16,1.56"/>
    <path class="cls-2" d="m47.65,87.93c.51.34.98.72,1.41,1.15"/>
    <path class="cls-2" d="m57.7,74.72c-.08-.04.05-.13.13-.12,1.15.13,2.3.27,3.45.4"/>
    <path class="cls-2" d="m40.48,62.29c-.32.2-.32.69-.11,1s.58.47.93.6c.46.17.98.31,1.45.14"/>
    <path class="cls-2" d="m14.57,90.55s.08-.03.08,0-.03.08-.07.1c-.64.49-1.31.94-2,1.35"/>
    <path class="cls-2" d="m6.18,88.78c4.39-3.4,9.95-4.82,15.33-6.15"/>
    <path class="cls-2" d="m35.8,88.58c3.71-1.28,7.82-.59,11.58.52.9.27,1.89.63,2.33,1.46"/>
    <path class="cls-1" d="m16.73,87.2c-.02-.17.24-.18.39-.12,1.82.76,3.18,2.37,4.05,4.15.32.66.59,1.39.48,2.11"/>
    <path class="cls-1" d="m34.77,75.59c1.75-.16,3.51.17,5.21.62,1.05.28,2.27.82,2.38,1.9.05.47-.14.93-.37,1.34-.44.8-1.03,1.52-1.73,2.11-.52.43-1.17.81-1.83.68-.55-.1-.98-.53-1.39-.91-1.69-1.55-3.72-2.59-5.92-3.18-1.57-.42-.96-1,.22-1.59,1.07-.53,2.24-.87,3.43-.97Z"/>
    <path class="cls-1" d="m37.22,85.07c.14-.86-.28-1.73-.9-2.35s-1.4-1.03-2.18-1.42c-1.69-.87-3.45-1.75-5.35-1.87-1.09-.06-2.82.22-3.28,1.35-.6,1.49.06,3.35.9,4.61.81,1.22,1.91,2.2,3.01,3.16"/>
    <path class="cls-1" d="m47,80.36c-.67,0-.98-.85-1.58-1.15-.36-.18-.8-.16-1.17,0s-.69.4-1,.66c-1.12.95-2.14,2.04-3.01,3.22.45.56.73,1.46,1.18,2.02.21.26.49.55.81.46"/>
    <path class="cls-1" d="m42.96,85.64c.14-.15.38-.13.58-.1,1.35.21,2.72.44,3.92,1.08"/>
    <path class="cls-1" d="m46.9,80.26c.47.5.74,1.19.73,1.87"/>
    <path class="cls-1" d="m47.57,86.7c.32.21.74.28,1.11.17"/>
    <path class="cls-1" d="m33.01,75.83c-.02-.1-.18-.04-.24.04-.39.45-.78.9-1.16,1.35"/>
    <path class="cls-1" d="m34.76,75.52c-.81.48-1.52,1.14-2.04,1.93"/>
    <path class="cls-1" d="m35.99,75.81c-.72.62-1.42,1.26-2.1,1.93"/>
    <path class="cls-1" d="m37.7,75.77c-.88.7-1.75,1.42-2.6,2.15"/>
    <path class="cls-1" d="m39.09,76.05c-1.01.68-1.96,1.44-2.86,2.27"/>
    <path class="cls-1" d="m39.88,76.62c-1.19.78-2.3,1.7-3.3,2.72"/>
    <path class="cls-1" d="m40.81,77.05l-3.06,2.57"/>
    <path class="cls-1" d="m41.84,77.56l-2.86,2.55"/>
    <path class="cls-1" d="m42.57,78.58c-.38.49-.81.95-1.29,1.35"/>
    <path class="cls-1" d="m35.28,75.69l-1.1,1.25"/>
    <path class="cls-1" d="m36.88,75.96c-.52.26-.98.64-1.31,1.12"/>
    <path class="cls-1" d="m38.29,76.72c-.42.31-.77.71-1.03,1.17"/>
    <path class="cls-1" d="m25.25,82.87c.4-.55.9-1.02,1.47-1.39"/>
    <path class="cls-1" d="m30.16,79.79l-.66.66"/>
    <path class="cls-1" d="m26,84.57c.35-.56.82-1.04,1.36-1.41"/>
    <path class="cls-1" d="m26.91,85.71c.45-.66,1-1.25,1.64-1.74"/>
    <path class="cls-1" d="m27.6,86.68c.45-.77,1.07-1.43,1.81-1.93"/>
    <path class="cls-1" d="m28.17,87.47c.7-.89,1.55-1.65,2.51-2.25"/>
    <path class="cls-1" d="m29.48,87.9c.56-.62,1.2-1.17,1.91-1.62"/>
    <path class="cls-1" d="m30.16,89.17c.85-1.02,1.83-1.94,2.91-2.73"/>
    <path class="cls-1" d="m30.87,80.07l-1.44,1.92"/>
    <path class="cls-1" d="m32.05,80.52l-1.62,1.53"/>
    <path class="cls-1" d="m33.19,81.06c-.76.83-1.56,1.61-2.4,2.36"/>
    <path class="cls-1" d="m33.75,82.29c-.63.71-1.29,1.4-1.98,2.05"/>
    <path class="cls-1" d="m34.82,82.61c-.62.7-1.27,1.37-1.97,1.99"/>
    <path class="cls-1" d="m35.72,83.74c-.5.6-1.1,1.12-1.75,1.55"/>
    <path class="cls-1" d="m36.84,83.85l-1.79,1.5"/>
    <path class="cls-1" d="m37.68,84.16c-.38.25-.71.56-1,.91"/>
    <path class="cls-1" d="m45.32,79.28l-2.12,2.12"/>
    <path class="cls-1" d="m45.83,80.02c-.85.54-1.61,1.23-2.24,2.02"/>
    <path class="cls-1" d="m46.33,80.66c-.71.47-1.38,1.01-1.97,1.62"/>
    <path class="cls-1" d="m47.08,81.48l-1.76,1.68"/>
    <path class="cls-1" d="m47.79,82.85c-.37.31-.71.66-1.01,1.05"/>
    <path class="cls-1" d="m43.32,82.61c-.35.16-.66.44-.85.78"/>
    <path class="cls-1" d="m44.43,83l-1.51,1.49"/>
    <path class="cls-1" d="m45.32,83.75l-1.41,1.44"/>
    <path class="cls-1" d="m46.28,84.42c-.52.35-.97.79-1.35,1.29"/>
    <path class="cls-1" d="m47.37,84.7c-.28.24-.53.5-.75.79"/>
    <path class="cls-1" d="m47.95,84.92l-.52.58"/>
    <path class="cls-1" d="m39.82,96.66c.75-1.25,2.1-2.01,3.45-2.57.48-.2.99-.38,1.52-.36.54.03,1.05.29,1.59.35.29.03.6,0,.88.08.42.12.74.44,1.04.76.47.49.94.98,1.4,1.47"/>
    <path class="cls-1" d="m43.97,98.16c.05.85.24,1.72.67,2.45s1.15,1.33,2,1.49"/>
    <path class="cls-1" d="m46.34,98.46c.44-.06.91.15,1.17.52"/>
    <path class="cls-1" d="m42.16,98.59c-.25.16-.23.52-.16.81.31,1.28,1.2,2.4,2.38,3"/>
    <path class="cls-1" d="m33.02,97.88c.03-.93.76-1.79,1.68-1.96.18-.03.41-.03.52.13-.7-.41-1.49-.32-2.27-.08s-1.45.74-1.99,1.34c-.38.42-.71.91-.77,1.47-.05.44.07.88.21,1.3.22.61.51,1.2.86,1.75"/>
    <path class="cls-1" d="m31.74,99.36c.49,1.01,1.32,1.84,2.33,2.33s2.18.62,3.27.38"/>
    <path class="cls-1" d="m34.98,97.26c-.43.06-.79.43-.85.86s.18.88.58,1.06"/>
    <path class="cls-1" d="m36.08,97.01c-.39.19-.59.65-.59,1.08s.19.84.41,1.21"/>
    <path class="cls-1" d="m27.01,94.72c-.5-.26-1.07.14-1.46.53-1,1.01-1.84,2.27-2.02,3.68s.44,2.99,1.72,3.62"/>
    <path class="cls-1" d="m24.59,94.58c-.66-.07-1.29.3-1.77.76-.82.79-1.33,1.9-1.4,3.04s.31,2.3,1.03,3.19"/>
    <path class="cls-1" d="m18.14,95.69c-.14-.03-.25.12-.32.24-.48.91-.7,1.95-.61,2.97"/>
    <path class="cls-1" d="m16.09,94.45c-.08-.17-.33-.03-.44.12-.8,1.1-1.24,2.46-1.22,3.82"/>
    <path class="cls-1" d="m15.37,92.94c-.46.02-.81.41-1.07.79-.78,1.09-1.38,2.38-1.35,3.72"/>
    <path class="cls-1" d="m19.62,87.55c.26.54.39,1.16.36,1.76"/>
    <path class="cls-1" d="m21.01,88.43c.17-.03.26.19.29.36.12.8.12,1.62-.01,2.43"/>
    <path class="cls-1" d="m22.9,89.9c-.03,1.02-.32,2.03-.83,2.91"/>
    <path class="cls-1" d="m17.12,88.65c.62.57,1.53.8,2.34.59"/>
    <path class="cls-1" d="m17.62,90.33c-.09.09.03.23.15.29.82.42,1.73.65,2.65.66"/>
    <path class="cls-1" d="m18.22,93.26c1.14-.09,2.29-.13,3.44-.12"/>
    <path class="cls-1" d="m55.59,43.1c.03,1.5-.11,3-.42,4.46"/>
    <path class="cls-1" d="m47.27,36.72c.1.05.06-.19-.04-.15s-.11.18-.1.29c.56,5.5.47,11.07-.27,16.56"/>
    <path class="cls-1" d="m44.62,36.73c.07,4.52-.16,9.05-.71,13.55"/>
    <path class="cls-1" d="m44.12,53.06c.15,2.43-.08,4.88-.69,7.24"/>
    <path class="cls-1" d="m44.14,64.63c.9-1.71,1.65-3.5,2.22-5.34"/>
    <path class="cls-1" d="m105.13,150.66c-.14-.07.18-.22.2-.06s-.16.26-.3.33c-4.59,2-9.45,3.34-14.41,4"/>
    <path class="cls-1" d="m104.79,151.92c-6.19,3.22-13.04,5.16-19.99,5.66"/>
    <path class="cls-1" d="m104.8,153.63c-1.51,1.11-3.33,1.7-5.13,2.24-5.92,1.77-11.96,3.14-18.07,4.1"/>
    <path class="cls-1" d="m105.39,154.51c-7.93,3.89-16.58,6.3-25.38,7.05"/>
    <path class="cls-1" d="m105.48,156.03c-7.26,4.7-16.23,5.72-24.83,6.63"/>
    <path class="cls-1" d="m106.94,156.83c-1.55,1.73-3.82,2.62-6.05,3.26-3.97,1.15-8.08,1.72-12.17,2.29"/>
    <path class="cls-1" d="m106.39,159.51c-4.58,1.71-9.34,2.95-14.17,3.68"/>
    <path class="cls-1" d="m105.84,152.75c.21-.03.4-.14.53-.3-1.19.18-2.33.73-3.2,1.56"/>
    <path class="cls-1" d="m106.38,153.83c-.96.28-1.9.66-2.78,1.13"/>
    <path class="cls-1" d="m107.14,155.05c-1.2.42-2.35.99-3.41,1.69-.32.21-.67.51-.65.9,1.15-.46,2.67-.72,3.72-1.36-.3,1.07-.8,2.29-1.77,2.83-2.03,1.11-4.25,1.87-6.53,2.24"/>
    <path class="cls-1" d="m104.48,152.8c-4.01,1.65-8.19,2.88-12.46,3.65"/>
    <path class="cls-1" d="m40.18,152.65c.34,1.19,1.69,1.74,2.88,2.1,4.36,1.3,8.83,2.21,13.35,2.71"/>
    <path class="cls-1" d="m37.97,154.92c6.67,2.28,13.64,3.67,20.67,4.12"/>
    <path class="cls-1" d="m39.91,153.64c5.52,1.05,11.11,1.72,16.72,2.01"/>
    <path class="cls-1" d="m38.24,154.87c4.85,1.2,9.8,1.98,14.78,2.33"/>
    <path class="cls-1" d="m52.88,159.6c-4.96-.9-9.91-1.79-14.87-2.69-.15-.03-.39.07-.3.19-.18.21-.27.82-.01.89,5.27,1.43,10.59,2.66,15.95,3.69"/>
    <path class="cls-1" d="m51.62,162.68l-12.61-3.42"/>
    <path class="cls-1" d="m38.54,157.34c-.02-.07-.14-.02-.14.05s.05.13.11.17c.56.44,1.26.63,1.95.8,3.23.82,6.5,1.46,9.79,1.92"/>
    <path class="cls-1" d="m37.72,155.56l7.51,2.04"/>
    <path class="cls-1" d="m39.3,154.36c-.39-.05-.79-.03-1.17.07,2.41.69,4.82,1.38,7.23,2.07"/>
    <path class="cls-1" d="m38,157.82l-.33.16c1.48.29,2.98.49,4.49.61"/>
    <path class="cls-1" d="m61.51,159.03c3.86-.05,7.73-.02,11.59.09"/>
    <path class="cls-1" d="m59.49,161.72c4.32.08,8.65.16,12.97.25"/>
    <path class="cls-1" d="m63.53,157.1l11.05.23"/>
    <path class="cls-1" d="m143.68,101.94c-.02.09-.13.14-.21.1"/>
    <path class="cls-1" d="m144.74,100.66c-1.87,2.32-4.66,3.69-7.43,4.81-7.24,2.93-14.9,4.62-22.52,6.3"/>
    <path class="cls-1" d="m143.61,104.34c-6.24,3.94-12.99,7.06-20.03,9.27"/>
    <path class="cls-1" d="m141.05,108.83c.08-.12.29.02.27.16s-.14.24-.26.32c-4.64,3.08-9.95,5.13-15.46,5.95"/>
    <path class="cls-1" d="m138.79,114.05c.2.05.05.36-.13.46-2.97,1.85-6.46,2.66-9.87,3.45"/>
    <path class="cls-1" d="m136.57,118.23c-2.88.92-5.79,1.7-8.74,2.34"/>
    <path class="cls-1" d="m134.06,121.45c-1.31,1.05-3.05,1.37-4.69,1.73-1.63.36-3.25.8-4.85,1.3"/>
    <path class="cls-1" d="m131.19,124.78c-2.64,1.39-5.51,2.34-8.46,2.81"/>
    <path class="cls-1" d="m129.36,128.12c-1.44.97-3.17,1.39-4.86,1.75-1.57.33-3.15.63-4.73.9"/>
    <path class="cls-1" d="m128.05,130.96c-.96.76-2.18,1.07-3.37,1.35-2.33.54-4.68,1.01-7.04,1.45"/>
    <path class="cls-1" d="m125.03,134.19c-.69.71-1.7.97-2.66,1.17-1.89.41-3.8.74-5.72,1-1.11.15-2.24.27-3.28.7"/>
    <path class="cls-1" d="m121.69,137.45c-3.55,1.7-7.8,1.38-11.39,3"/>
    <path class="cls-1" d="m117.9,140.77c-1.55,1.19-3.47,1.8-5.39,2.24s-3.86.72-5.71,1.38"/>
    <path class="cls-1" d="m113.5,144.7c-3.56,1.14-7.14,2.2-10.74,3.19"/>
    <path class="cls-1" d="m140.6,111.81l.56-.09c-3.71,2.32-7.79,4.04-12.05,5.07"/>
    <path class="cls-1" d="m139.14,115.68c-1.38,1.09-3.09,1.66-4.78,2.16-2.43.73-4.9,1.35-7.38,1.87"/>
    <path class="cls-1" d="m137.11,118.46c-3.31,1.77-6.94,2.93-10.66,3.39"/>
    <path class="cls-1" d="m134.85,121.03c.03.51-.58.8-1.08.93-2.87.77-5.78,1.42-8.71,1.93"/>
    <path class="cls-1" d="m133.92,123.78c-3.47,1.26-7.09,2.13-10.76,2.59"/>
    <path class="cls-1" d="m131.98,126.14c-3.2,1.15-6.51,1.98-9.88,2.45"/>
    <path class="cls-1" d="m130.5,127.87c-3.49,1.18-7.04,2.17-10.63,2.96"/>
    <path class="cls-1" d="m128.38,130.03c-2.77,1.22-5.72,2.04-8.73,2.42"/>
    <path class="cls-1" d="m127.5,132.28c-3.01,1.35-6.25,2.17-9.54,2.42"/>
    <path class="cls-1" d="m123.7,135.21c-2.05.55-4.15.87-6.27.95"/>
    <path class="cls-1" d="m144.66,100.14c.14.28-.21.55-.5.68-4.22,1.82-8.54,3.39-12.94,4.7"/>
    <path class="cls-1" d="m144.15,103.63c-3.81,1.68-7.78,3-11.85,3.92"/>
    <path class="cls-1" d="m142.66,106.88c-1.3.89-2.81,1.42-4.3,1.94-2.09.72-4.17,1.44-6.26,2.16"/>
    <path class="cls-1" d="m141.45,108.74c-3.27,1.99-6.88,3.4-10.63,4.15"/>
    <path class="cls-1" d="m139.52,111.16c-2.77,1.21-5.65,2.15-8.59,2.81"/>
    <path class="cls-1" d="m139.54,112.58c-3.05,1.1-6.13,2.09-9.25,2.95"/>
    <path class="cls-1" d="m138.68,115.75l-4.77,1.73"/>
    <path class="cls-1" d="m2.01,100.88c.16.75.84,1.25,1.48,1.66,5.33,3.43,11.44,5.64,17.72,6.42"/>
    <path class="cls-1" d="m2.03,105.65c5.75,3.68,12.25,6.18,18.99,7.31"/>
    <path class="cls-1" d="m4.05,112.05c6.4,3.24,13.36,5.39,20.47,6.32"/>
    <path class="cls-1" d="m8.55,119.97c5.83,2.82,12.18,4.55,18.64,5.06"/>
    <path class="cls-1" d="m5.93,116.58c2.31.93,4.65,1.79,7,2.58"/>
    <path class="cls-1" d="m12.71,127.27c5.97,1.89,12.24,2.84,18.5,2.81"/>
    <path class="cls-1" d="m17.82,133.89c7.09.89,14.23,1.29,21.37,1.21"/>
    <path class="cls-1" d="m23.66,139.92c5.75.69,11.57.77,17.34.25"/>
    <path class="cls-1" d="m28.13,143.98c4.95.44,9.92.55,14.88.34"/>
    <path class="cls-1" d="m33.33,147.5c4.16,1.08,8.47,1.59,12.77,1.51"/>
    <path class="cls-1" d="m38.66,151.24c3.46.38,6.95.46,10.42.24"/>
    <path class="cls-1" d="m12.1,124.23c3.78,1.47,7.75,2.45,11.79,2.9"/>
    <path class="cls-1" d="m16.65,119.2l13.29,3.29"/>
    <path class="cls-1" d="m26.01,132.56c4,.28,8.02.28,12.01,0"/>
    <path class="cls-1" d="m24.84,128.1c3.57.35,7.15.59,10.74.74"/>
    <path class="cls-1" d="m32.81,137.28l10.53.7"/>
    <path class="cls-1" d="m35.68,142.38c3.57.23,7.16.32,10.74.27"/>
    <path class="cls-1" d="m33.87,92.32c.63-1.1,1.86-1.71,3.07-2.1,3.83-1.26,8.12-1.07,11.83.53"/>
    <path class="cls-1" d="m37.94,91.19c1.55-.38,3.16-.52,4.76-.44"/>
    <path class="cls-1" d="m33.78,89.41l1.06-.85"/>
    <path class="cls-1" d="m73.74,97.26l-.65-1.37"/>
    <path class="cls-1" d="m34.53,28.61c.18-.38.65-.49,1.07-.57,3.17-.58,6.34-1.15,9.52-1.73"/>
    <path class="cls-1" d="m37.75,35.41l11.1-.93"/>
    <path class="cls-1" d="m57.81,25.34c29.45-4.13,58.94-7.94,88.48-11.41,8.27-.97,16.54-1.92,24.82-2.84,3.22-.36,5.73-1.07,10.26-1.75,7.64-1.16,13.93-1.72,18.13-2.03"/>
    <path class="cls-1" d="m210.76,5.74l8.35-.76c1.91-.17,3.85-.35,5.65-1.03"/>
    <path class="cls-1" d="m56.87,33.27l12.53-.72c55.6-3.2,111.19-6.39,166.79-9.59"/>
    <path class="cls-2" d="m46.48,28.41c.21-.35.03-.86-.35-1,.15,1.54.3,3.08.46,4.62"/>
    <path class="cls-1" d="m53.88,22.53l1.6,3.05"/>
    <path class="cls-1" d="m44.26,29.35l.09,1.61"/>
    <path class="cls-1" d="m19.47,83.15c1.29-.19,2.59-.38,3.88-.56-.16.09-.36.08-.51-.03-1.81.26-1.64,0-3.37.59Z"/>
    <path class="cls-1" d="m18.22,85.9c1.73-.88,3.63-1.43,5.57-1.59-1.47-.16-4.4.69-5.57,1.59Z"/>
    <path class="cls-1" d="m16.53,118.63l-2.55.49"/>
    <path class="cls-1" d="m16.79,85.15c1.93-.79,4.25-1.56,6.33-1.78-.3.02-.58-.25-.57-.55"/>
    <path class="cls-1" d="m24.03,85.26c-1.25.17-2.47.5-3.63.98l-.02.33c-.15-.05.15-.56.29-.63,1.13-.59,2.09-.56,3.36-.68Z"/>
    <path class="cls-1" d="m18.99,85.64c1.39-.74,2.93-1.2,4.49-1.34"/>
    <path class="cls-1" d="m18.45,84.36c1.14-.52,2.42-.74,3.67-.63"/>
    <path class="cls-1" d="m24.39,86.48c.07-.14.2-.24.35-.27-.86.37-1.74.7-2.63,1"/>
    <path class="cls-1" d="m25.12,87.06c-1.01.18-2.02.41-3.01.7"/>
    <path class="cls-1" d="m25.49,87.83c-1.01.07-2.01.33-2.93.74"/>
    <path class="cls-1" d="m26.23,88.94c-.82.08-2.09-.24-2.83.11.76-.33,1.55-.55,2.37-.67"/>
    <path class="cls-1" d="m26.87,89.22c-.78.15-1.55.36-2.29.63"/>
    <path class="cls-1" d="m27.78,89.67l-2.74.75"/>
    <path class="cls-1" d="m27.78,90.39c-.91.15-1.8.4-2.65.76"/>
    <path class="cls-1" d="m28.32,90.84c-.98.23-1.94.57-2.84,1.01"/>
    <path class="cls-1" d="m28.79,91.44l-2.47,1.1"/>
    <path class="cls-1" d="m21.74,86.73l2.66-.98c-1.4.14-2.98.13-4.3.63"/>
    <path class="cls-1" d="m23.48,84.75c-1.45.06-2.9.32-4.27.79"/>
    <path class="cls-1" d="m22.94,84.02c-1.52-.03-3.05.22-4.48.72"/>
    <path class="cls-1" d="m23.76,82.78c-2.3-.2-4.42.91-6.58,1.54"/>
    <path class="cls-1" d="m24.93,86.25c-1,.26-1.95.68-2.82,1.25"/>
    <path class="cls-1" d="m25.03,87.28c-.75.22-1.49.5-2.19.85"/>
    <path class="cls-1" d="m26.14,87.95c-.91.21-1.78.58-2.56,1.09"/>
    <path class="cls-1" d="m26.87,88.96c-.86.26-1.7.63-2.47,1.09"/>
    <path class="cls-1" d="m27.69,89.88l-2.75,1.09"/>
    <path class="cls-1" d="m26.12,91.57c.68-.35,1.39-.64,2.12-.87-.65.2-1.54.5-2.12.87Z"/>
    <path class="cls-1" d="m27.78,92.15h-.09"/>
    <path class="cls-1" d="m24.31,83.83c-.7-.03-1.59-.24-2.2.09.41-.27.89-.42,1.38-.45"/>
    <path class="cls-1" d="m12.9,86.21c-1.52.31-3.33,1.12-4.5,2.02-1.27.97-2.36,2.15-3.45,3.31-.38.41-.45.09-.27.61,1.13-2.51,3.46-4.3,5.95-5.49.71-.34,1.67-.78,2.46-.51-.4.54-1.31.75-1.91,1.05-.89.45-1.74.96-2.54,1.54-1.61,1.16-3.04,2.57-4.22,4.17"/>
    <path class="cls-1" d="m5.63,93.38c.65-1.74,1.9-3.22,3.39-4.34s3.2-1.9,4.96-2.52c-1.74.93-3.23,2.12-4.8,3.33s-2.73,1.73-3.55,3.53Z"/>
    <path class="cls-1" d="m5.91,94.61c.58-1.47,1.62-2.72,2.82-3.76s2.55-1.86,3.9-2.68c.42-.26.86-.52,1.34-.61-3.04,1.49-6.39,4.12-8.06,7.05Z"/>
    <path class="cls-1" d="m15.06,88.71c-.59.17-1.11.53-1.61.89-2.08,1.52-4.27,2.9-6.01,4.8,1.8-2.27,3.99-4.23,6.44-5.77.09-.06.27-.07.26.04"/>
    <path class="cls-1" d="m14.45,89.86c-.05-.12-.23-.07-.34,0-2.05,1.36-3.94,2.95-5.63,4.74"/>
    <path class="cls-1" d="m14.15,90.59c-1.04.59-1.99,1.34-2.82,2.22"/>
    <path class="cls-1" d="m14.4,87.88c-2.01.96-3.85,2.27-5.42,3.85"/>
    <path class="cls-1" d="m5.4,91.88l.07-.23c-.48.97-.7,2.07-.63,3.15"/>
    <path class="cls-1" d="m6.3,91.77c-.26.04-.44.28-.58.51-.59,1.01-.74,2.25-.42,3.37"/>
    <path class="cls-1" d="m7.55,91.44c-.6.34-.95.99-1.19,1.64-.31.87-.47,1.8-.46,2.72"/>
    <path class="cls-1" d="m7.94,92.42c-1.33,1.02-1.8,3.02-1.05,4.52"/>
    <path class="cls-1" d="m7.42,97.67c-.69-1.89-.06-4.19,1.51-5.46-.79.67-1.09,2.16-1.25,3.18-.17,1.15-.58,1.16-.26,2.27Z"/>
    <path class="cls-1" d="m7.62,98.93c-.29-1.69-.06-3.46.66-5.01.18-.38.39-.76.7-1.04.39-.35.98-.53,1.45-.29-.79.89-.86,1.95-1.31,3.01-.46,1.09-.68,1.43-.51,2.6-.28-1.7.08-3.49,1-4.95.15-.23.34-.48.59-.59"/>
    <path class="cls-1" d="m10.68,91.25c-.33-.23-.77-.24-1.15-.12s-.71.37-1,.64c-1.54,1.39-2.4,3.62-1.83,5.62"/>
    <path class="cls-1" d="m12.7,89.59c-1.06.22-1.96.95-2.6,1.82s-1.04,1.89-1.42,2.9c-.21.57-.42,1.16-.38,1.77"/>
    <path class="cls-1" d="m13.21,90.01c-1.34,1.07-2.4,2.49-3.07,4.07"/>
    <path class="cls-1" d="m10.43,97.46c0-1.42.79-2.82,2.01-3.54"/>
    <path class="cls-1" d="m12.78,96.54c-.74,1.52-.64,3.43.27,4.86"/>
    <path class="cls-1" d="m14.05,97.81c-.57.93-.28,2.28.62,2.89"/>
    <path class="cls-1" d="m21.84,100.84c.03.77.49,1.5,1.17,1.86"/>
    <path class="cls-1" d="m25.13,102.58l1.09.55"/>
    <path class="cls-1" d="m18.64,101.2c.03.32.24.62.54.75"/>
    <path class="cls-1" d="m13.33,99.02c-.18-.74.02-1.53.4-2.19s.93-1.2,1.48-1.73"/>
    <path class="cls-1" d="m10.14,97c-.04.53.05,1.07.26,1.56"/>
    <path class="cls-1" d="m31.87,98.45c-.47.75-.24,1.87.5,2.37"/>
    <path class="cls-1" d="m36.56,102.04l1.55-.09"/>
    <path class="cls-1" d="m29.61,94.16c-1.42-.92-1.63-3.2-.36-4.46"/>
    <path class="cls-1" d="m45.06,30v1.92"/>
    <path class="cls-1" d="m57.13,28.17c.34.56.59,1.18.73,1.83"/>
    <path class="cls-1" d="m58.02,77.82c-.1-.16-.39-.11-.43.07.88,0,1.76,0,2.64,0"/>
    <path class="cls-1" d="m58.02,79.6c1.14-.57,1.03-1.42-.28-.84.65.01,1.31.02,1.96.14"/>
    <path class="cls-1" d="m59.78,79.99c-.51,0-1.01.14-1.46.37"/>
    <path class="cls-1" d="m59.68,80.81c-.38.02-.75.12-1.1.28"/>
    <path class="cls-1" d="m58.85,81.72c.23-.25.6-.35.92-.25-.31.09-.62.16-.92.25Z"/>
    <path class="cls-1" d="m58.6,78.36c.5-.13,1.02-.18,1.53-.12"/>
    <path class="cls-1" d="m58.74,78.98l1.39-.05"/>
    <path class="cls-1" d="m58.7,79.66l1.35-.21"/>
    <path class="cls-1" d="m58.7,80.04l1.2-.11"/>
    <path class="cls-1" d="m59.16,80.86l.74-.1"/>
    <path class="cls-1" d="m59.25,81.67l.79-.06"/>
    <path class="cls-1" d="m59.58,82.26l.74-.11"/>
    <path class="cls-1" d="m59.76,82.76l.69-.14"/>
    <path class="cls-1" d="m60,83.2c.23-.05.46-.06.7-.03"/>
    <path class="cls-1" d="m60.09,83.77c.2-.02.4-.07.6-.13"/>
    <path class="cls-1" d="m60.32,84.17c.2-.08.42-.13.64-.13"/>
    <path class="cls-1" d="m60.36,84.66l.75-.22"/>
    <path class="cls-1" d="m60.74,84.91c.22,0,.44-.06.65-.15"/>
    <path class="cls-1" d="m61.07,85.2c.2-.05.4-.12.6-.21"/>
    <path class="cls-1" d="m63.4,87.18c-.4-.2-1.35-1-1.7-.97.31.83,1.21,1.57,1.95,2"/>
    <path class="cls-1" d="m61.48,85.48c.36.06.71.19,1.01.4"/>
    <path class="cls-1" d="m61,85.23s-.06.04-.03.08c.3.41.73.71,1.21.87"/>
    <path class="cls-1" d="m61.53,85.26c.4.14.78.34,1.11.61"/>
    <path class="cls-1" d="m63.02,87.99c.69.42,1.29.97,1.78,1.61"/>
    <path class="cls-1" d="m81.97,92.6c-.18-.66-.14-1.17-.7-1.66-.13-.11-.28-.19-.43-.27-.3-.15-.6-.29-.92-.41-.12-.04-.24-.07-.36-.06-.1,0,.09-.22.14-.23.12-.04.39.2.48.26.38.28.81.64,1.06,1.04.3.48.49,1.03.69,1.56"/>
    <path class="cls-1" d="m92.77,77.89c-1.67-.15-3.34-.24-5.01-.29-.78-.02-1.67.09-2.43-.05s-1.46-.3-2.25-.34c-.92-.05-1.85-.1-2.77-.14"/>
    <path class="cls-1" d="m92.72,78.55c.1,0,0-.15-.1-.17-2-.25-4.05-.45-6.06-.42-1.91.03-3.83-.29-5.75-.28"/>
    <path class="cls-1" d="m90.51,79.67c-1.72.11-3.44.27-5.15.49"/>
    <path class="cls-1" d="m89.67,80.35c-1.36.07-2.71.25-4.04.55"/>
    <path class="cls-1" d="m88.79,81.08c-1.07-.04-2.15.11-3.17.44"/>
    <path class="cls-1" d="m88.05,82.15l-1.66.32c-.58.11-1.18.23-1.7.5"/>
    <path class="cls-1" d="m87.12,83.36c-.9.06-1.8.25-2.65.56"/>
    <path class="cls-1" d="m100.53,103.45l1.35.05c.3.01.62.03.86.2"/>
    <path class="cls-1" d="m100.22,104.2c1.11-.04,2.23.03,3.33.22"/>
    <path class="cls-1" d="m100.66,104.81l4.88.19"/>
    <path class="cls-1" d="m108.59,104.99c-2.39.22-4.78.49-7.16.81l.18.18"/>
    <path class="cls-1" d="m83.58,102.84c.25.15.4.18.68.13-.3-.21-.55-.49-.75-.8-.21-.34-.07-.47-.05-.79.02-.25-.1-.5,0-.76.08-.22.63-.74.84-.77"/>
    <path class="cls-1" d="m83.9,103.58c.37-.12.74-.28,1.08-.46"/>
    <path class="cls-1" d="m84.43,103.83c.39-.08.75-.3,1-.6"/>
    <path class="cls-1" d="m84.94,104.09c.25-.17.48-.37.68-.59"/>
    <path class="cls-1" d="m85.54,104.24l.68-.71"/>
    <path class="cls-1" d="m86,104.41c.27-.27.52-.56.74-.87"/>
    <path class="cls-1" d="m86.56,104.3c.26-.14.47-.36.59-.62"/>
    <path class="cls-1" d="m88.36,102.56c-.17.53-.51,1.08-.89,1.48"/>
    <path class="cls-1" d="m87.75,104.2c.48-.47.63-1.25.36-1.86"/>
    <path class="cls-1" d="m89.41,104.62c.28-.33.52-.7.71-1.09"/>
    <path class="cls-1" d="m89.7,105c.19-.13.36-.3.48-.49"/>
    <path class="cls-1" d="m90,105.45l.56-.67"/>
    <path class="cls-1" d="m90.38,105.48l.45-.45"/>
    <path class="cls-1" d="m90.61,105.95c.24-.22.44-.46.61-.73"/>
    <path class="cls-1" d="m91.1,106.02c.25-.17.46-.4.61-.66"/>
    <path class="cls-1" d="m91.65,106.08c.25-.18.45-.41.6-.67"/>
    <path class="cls-1" d="m92.07,106.28c.26-.19.47-.44.63-.72"/>
    <path class="cls-1" d="m92.6,106.21c.25-.18.48-.4.65-.66"/>
    <path class="cls-1" d="m94.61,104.51c-.33.46-.6,1.01-1,1.4-.09-.16-.05-.31.01-.48"/>
    <path class="cls-1" d="m90.34,100.65c.13-.22.3-.42.49-.6"/>
    <path class="cls-1" d="m90.55,101.2c.17-.25.36-.49.57-.71"/>
    <path class="cls-1" d="m91.38,100.72c-.14.26-.31.5-.51.72.16-.21.34-.51.51-.72Z"/>
    <path class="cls-1" d="m91.09,102.04l.66-.76"/>
    <path class="cls-1" d="m91.75,102.01s-.04.04,0,.05.05-.02.07-.04c.19-.22.39-.44.58-.67"/>
    <path class="cls-1" d="m92.13,102.15s-.02.08.02.09c.22-.22.42-.47.6-.72"/>
    <path class="cls-1" d="m92.59,102.19l.59-.68"/>
    <path class="cls-1" d="m93.01,102.2c.22-.2.41-.43.55-.69"/>
    <path class="cls-1" d="m94.65,101.55c-.09.18-.43.85-.68.83-.4-.04-.18-.49-.08-.68"/>
    <path class="cls-1" d="m94.34,103.16l-.09.13c.37-.51.61-.83.87-1.4-.09.25-.23.49-.41.69.09-.47.27-.98.4-1.44-.13.64-.45,1.23-.91,1.69-.09-.05-.09-.2,0-.25"/>
    <path class="cls-1" d="m94.79,102.97c.22-.26.4-.55.52-.86"/>
    <path class="cls-1" d="m95.55,101.51c-.21-.17-.39-.37-.54-.59.08.24.36.41.54.59Z"/>
    <path class="cls-1" d="m94.67,101.77c.03.28.09.55.17.82"/>
    <path class="cls-1" d="m84.37,97.91c-.06.48.05.88.09,1.35"/>
    <path class="cls-1" d="m84.93,98.36c-.06.3-.11.6-.14.9"/>
    <path class="cls-1" d="m85.23,98.51c-.06.22-.09.45-.09.68"/>
    <path class="cls-1" d="m85.62,98.59c-.04.2-.06.4-.04.6"/>
    <path class="cls-1" d="m86.13,98.74c-.03.17-.04.35-.02.53"/>
    <path class="cls-1" d="m86.6,98.74c-.04.17-.05.35-.04.52"/>
    <path class="cls-1" d="m87.05,98.89c-.03.19-.05.37-.05.56"/>
    <path class="cls-1" d="m87.59,98.74l-.05,1.05"/>
    <path class="cls-1" d="m87.92,98.74v1.35"/>
    <path class="cls-1" d="m88.42,98.59c.02.5,0,1-.04,1.5"/>
    <path class="cls-1" d="m88.91,97.99c.06.55-.19,1-.18,1.54"/>
    <path class="cls-1" d="m84.25,97c-.19.29-.12.8-.16,1.14.04-.26.14-.5.28-.72"/>
    <path class="cls-1" d="m77.2,104.36c-.06-.26-.08-.53-.04-.79"/>
    <path class="cls-1" d="m77.36,103.83c-.03.36-.04.72-.02,1.08.04,0,.08-.04.1-.07"/>
    <path class="cls-1" d="m77.61,104.17c-.04.31-.02.63.05.94"/>
    <path class="cls-1" d="m77.97,104.28l.08.82"/>
    <path class="cls-1" d="m78.32,104.36c-.02.32,0,.64.1.94"/>
    <path class="cls-1" d="m78.72,104.39c-.01.26.01.53.08.79"/>
    <path class="cls-1" d="m79.1,104.32c0,.27.06.54.15.79"/>
    <path class="cls-1" d="m79.4,104.17c0,.24.05.48.11.71"/>
    <path class="cls-1" d="m79.67,104.05c.08.26.14.53.2.79"/>
    <path class="cls-1" d="m80.06,103.57l.22.97"/>
    <path class="cls-1" d="m80.52,104.21c-.03-.25-.07-.5-.13-.75.04.24.09.51.13.75Z"/>
    <path class="cls-1" d="m80.86,103.12c.03.34,0,.68-.06,1.01"/>
    <path class="cls-1" d="m79.77,104.5l-.17.68"/>
    <path class="cls-1" d="m78.26,105.03c-.02.17.11.35.28.37"/>
    <path class="cls-1" d="m77.9,93.39s-.08-.06-.11-.02-.03.09-.02.14c.03.26.07.54.23.74"/>
    <path class="cls-1" d="m78.13,93.73c.06.08.06.18.07.27s.03.2.11.25.22-.02.19-.11"/>
    <path class="cls-1" d="m78.59,93.53c-.01.31.03.61.12.9"/>
    <path class="cls-1" d="m78.99,93.72c0,.27.04.54.14.79"/>
    <path class="cls-1" d="m79.44,93.68c-.02.28.01.56.1.83"/>
    <path class="cls-1" d="m80,93.19c.05.46-.11,1.03-.06,1.5-.08-.37-.13-.74-.15-1.12"/>
    <path class="cls-1" d="m80.72,94.06c-.03-.68-.08-1.35-.16-2.02"/>
    <path class="cls-1" d="m80.89,91.7c.12.79.19,1.59.2,2.4"/>
    <path class="cls-1" d="m81.71,93.68c-.06-.56,0-1.08.03-1.65"/>
    <path class="cls-1" d="m80.58,92.89c-.02.51-.03,1.02-.01,1.54"/>
    <path class="cls-1" d="m80.27,92.22c.04.7.02,1.4-.04,2.09"/>
    <path class="cls-1" d="m81.64,93.53c.05-.54-.02-1.1-.21-1.61"/>
    <path class="cls-1" d="m80.63,94.24c.07.29.1.6.08.9"/>
    <path class="cls-1" d="m80.97,93.79c.06.27.07.55.02.83"/>
    <path class="cls-1" d="m81.57,92.52c0,.53-.16,1.01-.19,1.54"/>
    <path class="cls-1" d="m80.17,94.5l-.05.45"/>
    <path class="cls-1" d="m79.62,94.69l-.15.26"/>
    <path class="cls-1" d="m80.71,91.32c.13.35.31.67.52.97"/>
    <path class="cls-1" d="m82.21,91.7s-.07-.02-.09,0-.02.07-.01.11c.03.29.08.57.15.85"/>
    <path class="cls-1" d="m82.3,91.36c.05.38.12.76.23,1.12"/>
    <path class="cls-1" d="m82.62,91.1l.2,1.27"/>
    <path class="cls-1" d="m82.85,90.8l.22,1.5"/>
    <path class="cls-1" d="m83.13,90.38c.1.6.17,1.2.22,1.8"/>
    <path class="cls-1" d="m83.37,89.94l.34,2.4"/>
    <path class="cls-1" d="m83.69,89.9c.13.76.23,1.52.31,2.28"/>
    <path class="cls-1" d="m84.06,89.89c.15.73.25,1.47.29,2.21"/>
    <path class="cls-1" d="m84.77,91.88l-.17-1.23"/>
    <path class="cls-1" d="m136.73,86.33c.85,3.57.01,7.5-2.22,10.41-.39.51-.82.99-1.25,1.46-1.12,1.23-2.27,2.44-3.5,3.56"/>
    <path class="cls-1" d="m114.23,81.46l2.4.08c.2,0,.42.02.59.13"/>
    <path class="cls-1" d="m114.27,81.84l2,.34"/>
    <path class="cls-1" d="m114.14,82.5c.46.18.97.23,1.46.16"/>
    <path class="cls-1" d="m114.82,81s-.05.05-.03.07.05.04.08.04c.18.04.36.03.54.03.68-.02,1.36-.04,2.04-.06"/>
    <path class="cls-1" d="m114.07,82.48c-.06.31-.17.61-.31.89"/>
    <path class="cls-1" d="m137.06,87.26c1.6,1.12,2.97,2.55,4.03,4.19.36.56.69,1.15.85,1.8s.14,1.36-.17,1.95"/>
    <path class="cls-1" d="m137.03,88.27c.27.02.51.2.72.38,2.22,1.87,3.42,4.88,3.1,7.77"/>
    <path class="cls-1" d="m136.92,88.98c2.06,1.64,3.08,4.48,2.52,7.05"/>
    <path class="cls-1" d="m137.02,90.42c.53.23.85.77,1.05,1.31.46,1.21.49,2.54.52,3.84"/>
    <path class="cls-1" d="m136.83,91.44c.52.49.8,1.19.91,1.9s.05,1.43,0,2.14"/>
    <path class="cls-1" d="m136.64,92.82c.33,1.04.14,2.19-.33,3.18s-1.2,1.82-1.97,2.59"/>
    <path class="cls-1" d="m137.88,95.19c-.96,2.34-2.85,4.18-4.89,5.68"/>
    <path class="cls-1" d="m139.44,95.67c-1.13,1.41-2.49,2.64-4,3.62"/>
    <path class="cls-1" d="m140.37,95.91c-.64,1.21-1.83,2.03-2.97,2.79"/>
    <path class="cls-1" d="m141.2,96.03l-1.23,1.5"/>
    <path class="cls-1" d="m138.02,87.36l-.21-.11c.85.37,1.59.93,2.29,1.54.91.79,1.76,1.67,2.26,2.77s.59,2.42,0,3.47"/>
    <path class="cls-1" d="m136.94,93.3c-.82,2.77-2.87,4.98-4.85,7.09"/>
    <path class="cls-1" d="m137.15,95.26c-1.04,2.12-2.83,3.76-4.59,5.33"/>
    <path class="cls-1" d="m130.68,101.15c1.76-1.08,3.32-2.47,4.59-4.1"/>
    <path class="cls-1" d="m132.6,101.15l-.18.36c1.8-1.65,3.45-3.46,4.92-5.4"/>
    <path class="cls-1" d="m135.89,99.89c1.19-.91,2.08-2.17,2.82-3.47.3-.52.58-1.11.49-1.7"/>
    <path class="cls-1" d="m136.09,99.35c1.25-1.54,2.19-3.33,2.75-5.24"/>
    <path class="cls-1" d="m138.61,98.35c.62-.49,1.06-1.18,1.34-1.91s.38-1.53.39-2.32"/>
    <path class="cls-1" d="m140.53,97.78c1.04-1.38,1.42-3.23,1.01-4.9"/>
    <path class="cls-1" d="m142.07,96.17c.37-.7.5-1.51.5-2.3s-.12-1.58-.25-2.36"/>
    <path class="cls-1" d="m143.17,94.11c.03-.84-.04-1.69-.2-2.52"/>
    <path class="cls-1" d="m137.3,90.39c.64.76,1.09,1.68,1.31,2.65"/>
    <path class="cls-1" d="m137.14,89.59c.06-.08.19-.1.29-.06s.17.12.25.2c.79.85,1.47,1.79,2.05,2.8"/>
    <path class="cls-1" d="m137.61,88.51c.94.49,1.78,1.14,2.5,1.92"/>
    <path class="cls-1" d="m137.93,87.5c.34.11.65.3.94.51,1.26.91,2.23,2.2,2.76,3.66"/>
    <path class="cls-1" d="m141.5,89.99c.34.54.6,1.13.78,1.74"/>
    <path class="cls-1" d="m100.17,105.55c.08-.09.21-.1.33-.1,1.87-.04,3.74-.24,5.58-.58"/>
    <path class="cls-1" d="m96.88,96.05c-.13,0-.26-.05-.37-.11.42.02.77.06,1.16-.07.44-.15.86-.4,1.28-.59.23-.1.46-.21.64-.38"/>
    <path class="cls-1" d="m145.12,98.91c-.69.6-1.45,1.1-2.25,1.53-.57.3-1.04.73-1.64.96-1.76.67-3.68,1.06-5.53,1.36"/>
    <path class="cls-1" d="m144.73,100.02c-1.73.93-3.54,1.7-5.41,2.29"/>
    <path class="cls-1" d="m143.68,101.48c-3.55,1.78-7.25,3.26-11.05,4.42"/>
    <path class="cls-1" d="m144.46,102.4c-2.1.73-4.23,1.38-6.37,1.97"/>
    <path class="cls-1" d="m144.15,103.39c-3.05,1.25-6.16,2.32-9.33,3.22"/>
    <path class="cls-1" d="m142.69,105.15c.13,0,.26.09.29.21-.37.26-.8.39-1.23.52-3.06.94-6.13,1.89-9.19,2.83"/>
    <path class="cls-1" d="m142.9,106.82c-3.45,1.09-6.92,2.09-10.42,3"/>
    <path class="cls-1" d="m143.47,105.69c-2.03,1.89-4.83,2.63-7.52,3.31-2.57.65-5.14,1.3-7.71,1.95"/>
    <path class="cls-1" d="m141.81,103.8c-3.83,1.01-7.67,1.93-11.54,2.76"/>
    <path class="cls-1" d="m142.6,107.67c-1.66.59-3.36,1.09-5.07,1.51"/>
    <path class="cls-1" d="m141.84,108.75c-1.13.61-2.46.76-3.63,1.29"/>
    <path class="cls-1" d="m141.34,110.19c-.81.26-1.64.49-2.48.68-.37.08-.76.16-1.05.4"/>
    <path class="cls-1" d="m141.23,111.3c-1.28.4-2.55.82-3.82,1.26"/>
    <path class="cls-1" d="m140.38,112.77c-1.25.5-2.52.94-3.82,1.3"/>
    <path class="cls-1" d="m139.62,114.32l-2.46.85c-.36.13-.73.25-1.07.44"/>
    <path class="cls-1" d="m138.81,116.3c-1.2.66-2.64.83-3.82,1.53"/>
    <path class="cls-1" d="m137.73,117.96c-1.16.78-2.62.98-3.87,1.62"/>
    <path class="cls-1" d="m136.83,119.57c-.11.17-.29.27-.47.35-1.25.59-2.7.74-3.86,1.48"/>
    <path class="cls-1" d="m135.59,121.32c-.36.26-.79.41-1.21.54-1.03.34-2.05.68-3.08,1.02"/>
    <path class="cls-1" d="m134.71,122.87c-.47.35-1.08.45-1.65.56-.69.14-1.37.3-2.04.5"/>
    <path class="cls-1" d="m133.79,124.46c-.16.16-.4.23-.62.29-1.24.32-2.48.64-3.71.96"/>
    <path class="cls-1" d="m138.02,116.01c-1.93,1.32-4.2,2.03-6.44,2.67-3.22.92-6.47,1.73-9.74,2.43"/>
    <path class="cls-1" d="m137.35,114.82c-3.86,1.54-7.9,2.63-12.02,3.24"/>
    <path class="cls-1" d="m133.81,122.15c-2.52.81-5.13,1.33-7.72,1.85-3.21.65-6.41,1.29-9.62,1.94"/>
    <path class="cls-1" d="m136.29,120.47l-1.94.48"/>
    <path class="cls-1" d="m137.06,118.91l.09-.09c-.47.12-.95.24-1.42.36"/>
    <path class="cls-1" d="m138.62,116.68c-.65.37-1.36.62-2.09.75"/>
    <path class="cls-1" d="m140.34,113.25c-.63.22-1.27.41-1.92.56"/>
    <path class="cls-1" d="m141.65,110.47c-.5.18-1,.32-1.52.43"/>
    <path class="cls-1" d="m142.41,108.32c-.48.06-.96.15-1.42.29"/>
    <path class="cls-1" d="m142.22,109.28c-.45.21-.93.37-1.42.47"/>
    <path class="cls-1" d="m132.12,126.77c-1.52.49-3.07.89-4.65,1.18"/>
    <path class="cls-1" d="m133.35,125.16c-1.47.41-2.96.76-4.46,1.05"/>
    <path class="cls-1" d="m130.1,128.78c-.34.25-.75.37-1.15.49-1.82.53-3.65.99-5.5,1.39"/>
    <path class="cls-1" d="m128.71,130.65c-1.34.45-2.7.84-4.08,1.14"/>
    <path class="cls-1" d="m126.24,133.33c.06.05.05.16,0,.23s-.14.09-.22.12c-1.27.41-2.58.7-3.9.88"/>
    <path class="cls-1" d="m117.42,137.32c.8-.02,1.59-.08,2.38-.18.55-.07,1.8-.07,2.24-.41.47-.36-.11-.53-.52-.5-.74.05-1.5.25-2.24.33"/>
    <path class="cls-1" d="m120.99,138.09c-1.41.49-2.84.92-4.28,1.29"/>
    <path class="cls-1" d="m123.26,135.72l.48.02c-.33.25-.74.38-1.14.49-.85.25-1.7.48-2.56.69"/>
    <path class="cls-1" d="m122.6,136.83c-.8.38-1.68.6-2.56.64"/>
    <path class="cls-1" d="m120.43,138.55l.19.14c-2.13.85-4.46,1-6.74,1.15"/>
    <path class="cls-1" d="m119.66,139.4c.07.06.05.19-.02.25s-.17.09-.26.11c-1.94.44-3.89.86-5.84,1.27"/>
    <path class="cls-1" d="m118.04,140.56c-.22.25-.56.36-.88.46-1.27.37-2.59.58-3.91.61"/>
    <path class="cls-1" d="m105.06,149.93c-1.71.77-3.48,1.39-5.29,1.87"/>
    <path class="cls-1" d="m105.34,150.34c-2.08.92-4.2,1.74-6.36,2.45"/>
    <path class="cls-1" d="m105.48,151.08c-1.86.9-3.76,1.7-5.69,2.41"/>
    <path class="cls-1" d="m105.97,151.98c-1.49.63-3.02,1.16-4.57,1.61"/>
    <path class="cls-1" d="m106.2,152.52c-1.32.63-2.71,1.12-4.13,1.44"/>
    <path class="cls-1" d="m106.73,153.26c-1.47.63-2.97,1.21-4.48,1.73"/>
    <path class="cls-1" d="m106.81,153.98c-1.4.67-2.86,1.21-4.36,1.61"/>
    <path class="cls-1" d="m106.97,154.37c-.31.38-.77.58-1.22.78-1.43.62-2.86,1.23-4.3,1.82"/>
    <path class="cls-1" d="m107.11,155.25c-1.45.86-3.01,1.54-4.63,2.02"/>
    <path class="cls-1" d="m107.37,155.82c-1.33,1.05-3.14,1.24-4.61,2.08"/>
    <path class="cls-1" d="m107.77,156.3c.1.15-.1.32-.26.4-1.44.65-2.91,1.24-4.4,1.78"/>
    <path class="cls-1" d="m108.04,156.82c-1.3.97-2.77,1.73-4.31,2.23"/>
    <path class="cls-1" d="m108.29,157.4c.07.12-.06.25-.18.32-1.17.68-2.41,1.24-3.69,1.68"/>
    <path class="cls-1" d="m108.18,158.24c-1.29.92-2.76,1.57-4.31,1.91"/>
    <path class="cls-1" d="m106.82,159.49c-.17.2-.4.33-.63.46-1.06.57-2.22.96-3.42,1.15"/>
    <path class="cls-1" d="m104.21,156.14c-2.39,1.23-4.87,2.28-7.4,3.16"/>
    <path class="cls-1" d="m105.11,157.37c-2.28,1.17-4.71,2.04-7.22,2.58"/>
    <path class="cls-1" d="m103.85,153.89c-2.51,1.09-5.11,1.99-7.76,2.69"/>
    <path class="cls-1" d="m103.62,155.05c-2.54,1.13-5.17,2.07-7.85,2.8"/>
    <path class="cls-1" d="m101.74,152.61c-.17.28-.51.4-.83.5-2.28.71-4.56,1.43-6.84,2.14"/>
    <path class="cls-1" d="m101.62,151.68c-2.93.97-5.96,1.64-9.03,2"/>
    <path class="cls-1" d="m99.21,153.63c-4.62,2.13-9.78,2.74-14.83,3.32"/>
    <path class="cls-1" d="m105.52,151.63c-.54.17-1.08.38-1.6.61"/>
    <path class="cls-1" d="m106.42,153.2c-.79.27-1.59.48-2.41.64"/>
    <path class="cls-1" d="m116.55,142.09c-.27.29-.67.42-1.05.54-2.51.77-5.04,1.52-7.57,2.23"/>
    <path class="cls-1" d="m114.7,143.65c-2.04.9-4.24,1.44-6.47,1.57"/>
    <path class="cls-1" d="m109.96,146.57c-3.49,1.14-7.04,2.07-10.64,2.79"/>
    <path class="cls-1" d="m105.55,148.6c-.67.42-1.44.62-2.21.82-1.89.48-3.8.9-5.73,1.26"/>
    <path class="cls-1" d="m101.56,150.48c-1.94.76-4.01,1.18-6.09,1.24"/>
    <path class="cls-1" d="m117.52,130.96c-1.93.33-3.88.47-5.83.44"/>
    <path class="cls-1" d="m115.82,134.29c-2.54.84-5.23,1.12-7.9,1.29-4.03.27-8.08.32-12.11.15"/>
    <path class="cls-1" d="m110.74,137.96c-1.03.22-2.08.36-3.13.41"/>
    <path class="cls-1" d="m108,140.56c-4.94.72-9.95,1.01-14.94.86"/>
    <path class="cls-1" d="m104.72,144.07c-.81.2-1.64.36-2.47.47"/>
    <path class="cls-1" d="m102.78,146.33c-7.39.88-14.85,1.12-22.28.71"/>
    <path class="cls-1" d="m107.52,131.54l-3.84.16"/>
    <path class="cls-1" d="m89.03,141.34l-4.17.2"/>
    <path class="cls-1" d="m110.69,124.83c-3.14.15-6.29.18-9.43.09"/>
    <path class="cls-1" d="m104.67,120l-3.98.28"/>
    <path class="cls-1" d="m35.06,149.42c.44.15.91.21,1.38.26,2.23.23,4.64.02,6.88-.02-3.17-.27-6.32-.75-9.43-1.45-.13-.03-.27-.06-.37-.15"/>
    <path class="cls-1" d="m35.96,150.2c3.3.71,6.68,1.06,10.05,1.04"/>
    <path class="cls-1" d="m40.11,152.43c.75,0,1.49.13,2.23.23.88.12,1.81.24,2.71.22.57-.02,1.09-.23,1.67-.21"/>
    <path class="cls-1" d="m37.18,151.04c1.48.32,2.99.48,4.51.48"/>
    <path class="cls-1" d="m31.36,146.12c-.09.19.18.33.38.36,2.13.32,4.29.4,6.43.24"/>
    <path class="cls-1" d="m30.58,145.23c.29.26.7.33,1.08.37,2.28.29,4.57.47,6.87.54"/>
    <path class="cls-1" d="m29.71,144.64c2.21.23,4.44.33,6.66.29"/>
    <path class="cls-1" d="m27.36,142.96c2.62.27,5.26.38,7.9.32"/>
    <path class="cls-1" d="m26.5,142.05c2.71.13,5.42.34,8.12.64"/>
    <path class="cls-1" d="m26.09,141.17l8.88.45"/>
    <path class="cls-1" d="m23.92,139.2c2.78.37,5.56.65,8.35.84"/>
    <path class="cls-1" d="m22.76,137.9c2.48.27,4.98.36,7.48.28"/>
    <path class="cls-1" d="m21.41,136.81c3,.07,6.01.25,9,.53"/>
    <path class="cls-1" d="m20.01,135.35c3.22.27,6.43.6,9.63.99"/>
    <path class="cls-1" d="m19.01,134.47c2.87.02,5.73.17,8.59.45"/>
    <path class="cls-1" d="m17.61,133.05c3.14.19,6.28.49,9.41.91"/>
    <path class="cls-1" d="m16.21,131.77c3.32.06,6.64.33,9.93.81"/>
    <path class="cls-1" d="m15.16,130.32c3.18.39,6.36.85,9.52,1.38"/>
    <path class="cls-1" d="m14.28,128.99c3.24.32,6.46.95,9.58,1.86"/>
    <path class="cls-1" d="m31.23,138.66c3.47.12,6.93.15,10.4.09"/>
    <path class="cls-1" d="m40.06,146.18c6.61.76,13.29.88,19.92.37"/>
    <path class="cls-1" d="m65.01,146.85l2.98.07"/>
    <path class="cls-1" d="m47.3,150.48h8.24"/>
    <path class="cls-1" d="m48.76,140.34c3.55.35,7.14.34,10.7-.03"/>
    <path class="cls-1" d="m40.69,135.2c5.35.24,10.71.3,16.07.18"/>
    <path class="cls-1" d="m42.22,131.25c7.32-.29,14.65-.51,21.97-.65"/>
    <path class="cls-1" d="m39.06,127.76c2.3.21,4.6.38,6.9.51"/>
    <path class="cls-1" d="m10.25,123.24c.43.04.86.1,1.29.17,2.18.34,4.36.68,6.54,1.03"/>
    <path class="cls-1" d="m13.23,126.23h-.47c1.95.28,3.9.58,5.85.88"/>
    <path class="cls-1" d="m8.44,118.86c5.76,2.33,11.77,4.05,17.89,5.14"/>
    <path class="cls-1" d="m37.19,124.94l15.61.82"/>
    <path class="cls-1" d="m69.8,127.4c1.6.03,3.2,0,4.79-.11"/>
    <path class="cls-1" d="m5.84,114.4c3.52,1.03,7.08,1.9,10.67,2.63"/>
    <path class="cls-1" d="m7.95,115.99c2.49,1.02,5.04,1.92,7.62,2.69"/>
    <path class="cls-1" d="m33.04,120.27c2.6.24,5.22.4,7.83.48"/>
    <path class="cls-1" d="m73.54,122.23c2.08.14,4.17.27,6.26.37"/>
    <path class="cls-1" d="m1.18,98.01c.46.63,1.14,1.06,1.8,1.47,1.9,1.18,3.8,2.35,5.7,3.53"/>
    <path class="cls-1" d="m1.33,99.81s-.08-.06-.09,0,.05.09.1.11c3.13,1.38,6.26,2.76,9.38,4.14"/>
    <path class="cls-1" d="m1.84,101.09l6.55,3.09"/>
    <path class="cls-1" d="m2.29,103.09c-.09-.02-.04.14.05.18,2.43,1.1,4.86,2.2,7.28,3.3"/>
    <path class="cls-1" d="m2.74,105.08s-.07-.05-.08,0,.05.08.09.1c2.5,1.12,5.01,2.25,7.51,3.37"/>
    <path class="cls-1" d="m3.85,108.93c4.17,1.77,8.41,3.36,12.71,4.78"/>
    <path class="cls-1" d="m9.22,113.17c2.4.82,4.78,1.69,7.15,2.58"/>
  </g>
</svg>