<?xml version="1.0" encoding="UTF-8"?>
<svg id="Layer_2" data-name="Layer 2" xmlns="http://www.w3.org/2000/svg" viewBox="0 0 239.81 236.91">
  <defs>
    <style>
      .cls-1 {
        fill: #ea6a6a;
      }

      .cls-2 {
        fill: none;
        stroke: #231f20;
        stroke-miterlimit: 10;
        stroke-width: .5px;
      }
    </style>
  </defs>
  <g id="Layer_1-2" data-name="Layer 1">
    <circle class="cls-1" cx="121.43" cy="114.6" r="114.35"/>
    <g id="Layer_1-2" data-name="Layer 1-2">
      <path class="cls-2" d="m106.82.97C74.3,10.9,44.26,28.59,24.29,53.41,4.3,78.21-4.83,110.43,3.1,140.09c6.02,22.5,21.41,42.57,41.21,57.63,24.65,18.77,57.79,30.29,89.9,25.74,12.93-1.83,25.29-6.15,36.8-11.68,19.36-9.28,36.94-22.47,47.06-39.79,9.68-16.57,11.92-35.69,13-54.33,1.09-18.91,1.14-38.15-4.32-56.48-5.46-18.33-16.94-35.83-34.85-46.2-11.57-6.69-25.18-10.09-38.77-12.23C124.79-1.68,93.49-.46,70.16,14.46c-17.41,11.13-28.28,28.5-36.89,45.92-15.37,31.07-25.48,65.43-19.14,98.88,6.33,33.45,31.97,65.51,68.85,74.64,34.75,8.6,71.97-4.07,101.75-22.1,18.36-11.13,35.71-25.08,43.74-43.47,6.91-15.78,6.32-33.3,4.68-50.16-2.44-25.16-7.3-50.93-22.27-72.44-12.42-17.86-31.59-31.95-53.69-39.49C140.63.61,122.32-1.38,104.93,1.69c-14.55,2.56-28.14,8.55-40.29,16.07C25.35,42.1.39,84.84,4.43,127.17c4.02,42.33,38.76,81.93,85.11,92.82,15.44,3.63,31.76,4.2,47.47,1.66,37.08-5.99,68.92-29.28,87.44-58.38,7.16-11.26,12.59-23.54,14.4-36.37,2.33-16.52-1.38-33.27-6.93-49.16-5.76-16.45-13.68-32.6-26.34-45.67-12.65-13.07-30.54-22.81-49.94-23.89"/>
    </g>
  </g>
</svg>