<?xml version="1.0" encoding="utf-8"?>
<!-- Generator: Adobe Illustrator 27.2.0, SVG Export Plug-In . SVG Version: 6.00 Build 0)  -->
<svg version="1.1" id="Layer_2_00000015327454409615262430000018152326036570284673_"
	 xmlns="http://www.w3.org/2000/svg" xmlns:xlink="http://www.w3.org/1999/xlink" x="0px" y="0px" viewBox="0 0 235.3 227.7"
	 style="enable-background:new 0 0 235.3 227.7;" xml:space="preserve">
<style type="text/css">
	.st0{fill:none;stroke:#231F20;stroke-width:0.75;stroke-miterlimit:10;}
</style>
<g id="Layer_1-2">
	<path class="st0" d="M144.6,76.8C138,51.4,131.4,26,124.9,0.7c-13.8,25-25,51.4-33.2,78.7c-8.2,0.7-17.7,1.7-25.9,1.7
		c-7.3,0-14.7-0.4-22-0.4c-14.4-0.1-28.9,1-43.1,3.2c23.9,19,49.8,35.4,75.7,51.7"/>
	<path class="st0" d="M149,74.9c27.9,3.1,56.5-3.7,84.2,1.3c0.7,0.1,1.6,0.4,1.8,1.1c0.2,0.7-0.2,1.4-0.7,1.9
		c-4.6,5.5-10.1,10.3-15.5,15.1c-17.6,15.4-35.2,30.8-52.8,46.2"/>
	<path class="st0" d="M75.9,138.4c-15.3,28.2-25.9,58.5-36.6,88.8c26.3-16.8,47.8-40.6,75.4-55.3"/>
	<path class="st0" d="M118.1,170.8c26.3,18.2,52.5,36.3,78.8,54.5c1.8,1.3,4.1,2.6,6.1,1.7c-13.6-27.3-24.4-56-32.3-85.4"/>
	<path class="st0" d="M124.5,4.2c-2.7,32.3-4.2,64.7-4.6,97.1c-0.1,7.3-0.7,13.1-0.9,20.3"/>
	<path class="st0" d="M118.6,123.8c34.5-16.7,70.1-31.2,106.5-43.2"/>
	<path class="st0" d="M3.2,83.9c14.4,7.2,29.5,12.9,45,17"/>
	<path class="st0" d="M59.7,103.8c19.8,6.9,40,12.6,60.6,16.9"/>
	<path class="st0" d="M124.4,125c10.8,18.1,22.8,35.6,35.6,52.3"/>
	<path class="st0" d="M170.2,188.4c8.7,12.7,17.9,25.1,27.5,37.1"/>
	<path class="st0" d="M43.3,224.2c25.5-31.2,50.9-62.5,76.4-93.8"/>
	<path class="st0" d="M149.1,80.3c-3.8,6.4-7.9,12.6-12.5,18.5c-3.2,4.2-6.7,8.4-7.9,13.6"/>
	<path class="st0" d="M91.8,81.3c5.9,8.4,11.5,17,16.7,25.8"/>
	<path class="st0" d="M76.6,134.8c11.4-4.1,23.4-6.4,35.5-6.9"/>
	<path class="st0" d="M128.4,124.4c11.9,7.4,27.6,7.2,38.9,15.5"/>
	<path class="st0" d="M114.7,172.6c0.6-15.4,2.1-30.9,4.5-46.1"/>
	<path class="st0" d="M117.6,14.8l3.8-3.4"/>
	<path class="st0" d="M114.3,21.2c1.9-2.2,4.1-4.2,6.4-6.1"/>
	<path class="st0" d="M110.6,27c2.5-3,5.3-5.7,8.4-8.2"/>
	<path class="st0" d="M108.9,32.1c2.6-3.1,5.4-5.9,8.4-8.5"/>
	<path class="st0" d="M105.8,39.6l9-9.5"/>
	<path class="st0" d="M103.3,45.7l9.1-10.1"/>
	<path class="st0" d="M100.9,52.4c3.9-4.6,8.1-8.9,12.5-13.1"/>
	<path class="st0" d="M100.2,57.5c3.3-4.6,7.1-8.9,11.3-12.8"/>
	<path class="st0" d="M95.7,65.5c4.8-4.9,9.8-9.7,14.9-14.3"/>
	<path class="st0" d="M95,71.2c3.3-4.5,7.2-8.4,11.7-11.8"/>
	<path class="st0" d="M143.4,89.8c2.5-1.4,5.2-2.6,8-3.3"/>
	<path class="st0" d="M138.8,95.5c3.3-1.9,6.8-3.5,10.5-4.6"/>
	<path class="st0" d="M134.4,101c3.1-1.8,6.4-3.3,9.8-4.5"/>
	<path class="st0" d="M129.8,107.6c3.1-1.9,6.4-3.5,9.8-4.9"/>
	<path class="st0" d="M128.5,111.9l7.8-4.1"/>
	<path class="st0" d="M125.5,116.6c3-2.4,6.3-4.3,9.8-5.6"/>
	<path class="st0" d="M122.4,120.1c4.4-2.9,9-5.3,13.9-7.2"/>
	<path class="st0" d="M133.5,103.4l8.4-3.1"/>
	<path class="st0" d="M143.2,96l0.5-0.3"/>
	<path class="st0" d="M133.7,125.6c1.7,1.5,3.7,2.7,5.8,3.6"/>
	<path class="st0" d="M132.9,123.2l16.3,9.8"/>
	<path class="st0" d="M137.1,122.4c7,4.1,14.1,8.2,21.1,12.3"/>
	<path class="st0" d="M142.5,120.4c7.1,5.9,14.6,11.2,22.4,16"/>
	<path class="st0" d="M147.6,119.1c5.1,5.1,10.6,9.8,16.4,14c1.5,1.1,3.1,2.2,4.9,2.8"/>
	<path class="st0" d="M151.8,118.7c5.6,5.2,11.6,10.1,17.9,14.6"/>
	<path class="st0" d="M155.5,116.4c5.6,5.2,11.4,10.1,17.6,14.5"/>
	<path class="st0" d="M160.2,115.2c5.2,4.7,10.6,9.2,16,13.6"/>
	<path class="st0" d="M164.7,114.6c0.5,0.1,0.8,0.4,1.2,0.7c4,3.4,7.5,7.3,11.9,10.2"/>
	<path class="st0" d="M171.2,115c3.2,3.2,6.6,6.2,10.3,8.9"/>
	<path class="st0" d="M174.2,112.3c3.6,3.1,7.1,6.2,10.7,9.2"/>
	<path class="st0" d="M179.2,111c2.8,2.5,5.7,4.9,8.6,7.2"/>
	<path class="st0" d="M183.4,108.5c2.7,2.6,5.6,5,8.6,7.3"/>
	<path class="st0" d="M187.6,106.6c2.2,2.1,4.5,4.1,6.7,6.2"/>
	<path class="st0" d="M191.2,103.8c2.2,2.3,4.6,4.5,7.1,6.5"/>
	<path class="st0" d="M195.8,102.7l5.7,5.3"/>
	<path class="st0" d="M199.4,98.9c1.9,2,3.9,3.8,6,5.6"/>
	<path class="st0" d="M204.1,97l5.2,4.8"/>
	<path class="st0" d="M208.1,93.5l5.2,4.6"/>
	<path class="st0" d="M212.8,91.2c1.4,1.4,3,2.7,4.7,3.7"/>
	<path class="st0" d="M217.2,88.6c0.9,1,1.8,1.9,2.9,2.7c0.2,0.2,0.4,0.3,0.7,0.3s0.6-0.1,0.6-0.3"/>
	<path class="st0" d="M220.7,85.8c1.1,1.2,2.5,2.2,4,2.9"/>
	<path class="st0" d="M224.3,83.1c1.2,1,2.4,1.9,3.6,3"/>
	<path class="st0" d="M228.4,81.5l1.8,1.3c0.2,0.1,0.3,0.2,0.5,0.3s0.4-0.1,0.4-0.3"/>
	<path class="st0" d="M155.7,124c4.3,4.4,8.9,8.6,13.7,12.5"/>
	<path class="st0" d="M160.7,123.2c3.3,3.4,6.8,6.7,10.5,9.7"/>
	<path class="st0" d="M164,120.4c3.4,3.2,6.8,6.2,10.3,9.2"/>
	<path class="st0" d="M169.8,118.2c3,2.9,6.1,5.8,9.3,8.6"/>
	<path class="st0" d="M174.7,116.6l7.7,6.2"/>
	<path class="st0" d="M179.6,113.3c2.2,2.2,4.6,4.4,7.1,6.3"/>
	<path class="st0" d="M157.1,83.5l47.2-5.3"/>
	<path class="st0" d="M133.6,133.1c1.9,3.4,3.8,6.7,5.9,10"/>
	<path class="st0" d="M138,135.3l2.8,4.8"/>
	<path class="st0" d="M141.5,136.9c0.1,0.9,0.6,1.7,1.3,2.1"/>
	<path class="st0" d="M143.4,136.6c0.3,1.1,1.1,2,2,2.5"/>
	<path class="st0" d="M146.3,136.6c0.4,1.2,1,2.3,1.9,3.2"/>
	<path class="st0" d="M150.1,138.6c0.6,1.2,1.5,2.3,2.6,3.1"/>
	<path class="st0" d="M154.7,140.7l2.9,3.3"/>
	<path class="st0" d="M181.7,194.7c5.7,10.5,11.9,20.7,18.6,30.6"/>
	<path class="st0" d="M182.3,188.3c4.1,9.7,8.7,19.2,13.8,28.4"/>
	<path class="st0" d="M117.6,170.8c-0.4-0.4-0.4-1.1-0.3-1.7c0.6-5.7,1.1-11.3,1.7-17"/>
	<path class="st0" d="M121,169.7l-0.9,1.1c-0.6-8.4-0.3-16.9,0.9-25.2"/>
	<path class="st0" d="M122.7,172.5l-0.2,0.8c0.1-7.5,0.4-15.1,1-22.6"/>
	<path class="st0" d="M125.8,174.9c-0.7-6.5-0.6-13.1,0.3-19.7"/>
	<path class="st0" d="M128.1,176.6c0.1-6.4,0.5-12.8,1.2-19.2"/>
	<path class="st0" d="M130.3,182.5c0.4-7.1,1.1-14.1,2-21.1"/>
	<path class="st0" d="M133.3,178.8c0.3-5.4,0.9-10.7,1.9-16"/>
	<path class="st0" d="M134.9,183.4l2.6-20.3"/>
	<path class="st0" d="M138,184.7c0.8-7.7,2.1-15.4,3.8-22.9"/>
	<path class="st0" d="M140.4,186.7c0.6-7.6,1.9-15.1,3.7-22.4"/>
	<path class="st0" d="M143.2,187.4c0.7-6.2,1.5-12.5,2.6-18.7"/>
	<path class="st0" d="M145.3,191c0.4-5,1-10.1,1.8-15.1"/>
	<path class="st0" d="M147.9,191.8c0.7-5.9,1.6-11.7,2.6-17.5"/>
	<path class="st0" d="M150.2,193.3c0.7-5.9,1.6-11.8,2.6-17.7"/>
	<path class="st0" d="M153,193.6l1.4-9.6"/>
	<path class="st0" d="M155.8,196c0.5-2.7,1-5.4,1.7-8"/>
	<path class="st0" d="M158.8,197.8c0.8-4,1.7-7.9,2.8-11.8"/>
	<path class="st0" d="M161.4,202.4c1.2-5.4,2.4-10.7,3.9-16.1"/>
	<path class="st0" d="M164.6,201.6c0.8-4.1,1.8-8.1,3.1-12.1"/>
	<path class="st0" d="M166.9,204.9c0.7-3.4,1.6-6.8,2.8-10.2"/>
	<path class="st0" d="M169.6,206.5l2.5-9"/>
	<path class="st0" d="M172.5,208.2c0.6-2.8,1.5-5.6,2.4-8.4"/>
	<path class="st0" d="M174.9,210.2c1-2,1.8-4,2.4-6.1"/>
	<path class="st0" d="M178.3,211.3l1.6-4.4"/>
	<path class="st0" d="M180.6,213.7c0.7-1.6,1.2-3.3,1.7-4.9"/>
	<path class="st0" d="M183.6,215c0.4-1.9,1.1-3.6,2.1-5.2"/>
	<path class="st0" d="M186.8,217.7l1.3-3.8"/>
	<path class="st0" d="M189,221.1l0.6-3.9"/>
	<path class="st0" d="M157.8,184.4l0.4-2.4"/>
	<path class="st0" d="M154.3,180.5l1-3.8"/>
	<path class="st0" d="M126.1,177.7c0.5-4.4,0.9-8.8,1.2-13.3"/>
	<path class="st0" d="M124.1,173.9c-0.4-2.4-0.5-4.8-0.2-7.2"/>
	<path class="st0" d="M136,183c-0.1,0-0.1,0.2,0.1,0.2s0.1-0.1,0.1-0.2c0.6-3.4,1.1-6.9,1.4-10.3"/>
	<path class="st0" d="M139.4,185.6c-0.2-0.2-0.2-0.5-0.1-0.8c0.8-4.1,1.8-8.2,3-12.3"/>
	<path class="st0" d="M142.6,187.2l0.8-9.2"/>
	<path class="st0" d="M145.4,190.5c0.1-2.8,0.6-5.7,1.5-8.4"/>
	<path class="st0" d="M154.1,194.6l1.8-6.2"/>
	<path class="st0" d="M157.9,197l1.3-6.7"/>
	<path class="st0" d="M161,200.6c0.2-2.2,0.7-4.4,1.4-6.5"/>
	<path class="st0" d="M163.8,202.1c0.3-1.6,0.8-3.2,1.4-4.7"/>
	<path class="st0" d="M167.4,203.1v0.1c0.3-1.2,0.7-2.4,1-3.5"/>
	<path class="st0" d="M169.7,205.9c-0.1,0,0,0.2,0.1,0.2s0.1-0.1,0.2-0.2c0.3-0.8,0.6-1.6,0.9-2.4"/>
	<path class="st0" d="M173.2,209l1-2.9"/>
	<path class="st0" d="M176.8,210.9l0.8-1.6"/>
	<path class="st0" d="M180,213.3l0.7-2"/>
	<path class="st0" d="M183.2,215.4c0.4-0.4,0.7-0.9,0.8-1.5"/>
	<path class="st0" d="M185.3,216.8l0.5-1.3"/>
	<path class="st0" d="M188.4,219.2c0.4-0.1,0.7-0.5,0.6-0.9"/>
	<path class="st0" d="M49.5,218.1c0.5,0.5,1.2,0.6,1.8,0.4"/>
	<path class="st0" d="M51.3,216.7c0.4,0.4,1,0.5,1.5,0.2"/>
	<path class="st0" d="M51.6,215.2c0.5,0.4,1.2,0.7,1.9,0.8c0.4,0.1,1-0.2,0.8-0.5"/>
	<path class="st0" d="M53,213.7l2.4,0.9c0.3,0.1,0.7,0.1,0.7-0.2"/>
	<path class="st0" d="M54.3,212.1c0.8,0.4,1.6,0.7,2.4,0.9c0.3,0.1,0.9,0.1,0.9-0.3"/>
	<path class="st0" d="M56.2,210.6c1,0.8,2.3,1.3,3.6,1.2"/>
	<path class="st0" d="M57.9,208.9c1.1,0.7,2.3,1.3,3.5,1.7c0.3,0.1,0.7,0.1,0.7-0.2"/>
	<path class="st0" d="M59.7,206.9c0.9,0.7,1.9,1.2,3.1,1.4c0.3,0.1,0.9-0.2,0.7-0.5"/>
	<path class="st0" d="M61.3,205.1c1.2,0.8,2.5,1.4,3.9,1.8c0.2,0.1,0.3,0.1,0.5,0s0.3-0.3,0.2-0.4"/>
	<path class="st0" d="M63,203.1l3.6,1.7c0.4,0.2,0.8,0.4,1.2,0.1"/>
	<path class="st0" d="M65.3,200.9c1.4,1.2,3.3,2,5.2,2.2"/>
	<path class="st0" d="M67.9,199c1.3,1.1,2.9,1.9,4.6,2.3"/>
	<path class="st0" d="M68.5,196.2c2.3,1.4,4.8,2.6,7.2,3.7"/>
	<path class="st0" d="M72.1,194.4c1.6,1.2,3.5,2.2,5.4,2.8"/>
	<path class="st0" d="M72.9,191.8l5.7,3.3"/>
	<path class="st0" d="M76,190.2c1.7,1,3.4,2,5.2,2.9c0.2,0.1,0.3,0.1,0.5,0.1s0.2-0.4,0-0.4"/>
	<path class="st0" d="M77.9,188.3l5.1,3c0.2,0.1,0.6,0,0.5-0.1"/>
	<path class="st0" d="M79.4,186l5.4,3.6c0.2,0.2,0.5,0.3,0.8,0.2s0.4-0.6,0.1-0.6"/>
	<path class="st0" d="M81.5,184.4c2.1,1.5,4.3,2.8,6.6,4c0.1,0.1,0.3,0.1,0.5,0.1s0.1-0.4,0-0.3"/>
	<path class="st0" d="M83.3,182.4l7.5,4.5"/>
	<path class="st0" d="M85,179.7c2.2,1.7,4.7,3.2,7.2,4.4c0-0.4-0.2-0.8-0.5-1.1"/>
	<path class="st0" d="M86.7,177.7c2.6,2,5.4,3.8,8.3,5.3"/>
	<path class="st0" d="M88.2,175.2c3,1.9,6,3.8,9,5.8"/>
	<path class="st0" d="M90.8,172.6c2.9,2.5,6.2,4.6,9.6,6.3"/>
	<path class="st0" d="M94.4,171.5c0.1-0.2,0.4-0.1,0.6,0c2.8,1.9,5.6,3.9,8.3,5.8"/>
	<path class="st0" d="M96.3,168.9c3.2,2.5,6.6,4.8,10.1,6.9"/>
	<path class="st0" d="M98.5,166.5c3.3,2.3,6.6,4.6,9.9,7"/>
	<path class="st0" d="M101.8,164.5c2.9,2.2,5.8,4.3,8.7,6.4"/>
	<path class="st0" d="M103.6,161.6c2.8,2.6,5.8,4.9,9,7.1"/>
	<path class="st0" d="M104.5,157.9c3.1,2.8,6.4,5.6,9.7,8.2"/>
	<path class="st0" d="M106.6,155.3c0,0.1-0.2,0-0.1-0.1s0.2,0,0.3,0c3.3,2,5.6,5.4,8.8,7.5"/>
	<path class="st0" d="M109.3,152.9c-0.1,0-0.2-0.2,0-0.2s0.2,0.1,0.3,0.1c2.2,2,4.5,3.9,6.7,5.9"/>
	<path class="st0" d="M111.4,149.9l0.6,0.5c1.8,1.5,3.6,2.9,5.3,4.5"/>
	<path class="st0" d="M113.2,147.2c0.4-0.2,0.8,0.1,1.1,0.4c0.9,0.8,1.8,1.6,2.7,2.4c-0.2-1.5-0.8-2.9-1.6-4.2
		c-0.5-0.8-1.1-1.6-1.4-2.5c0-0.2-0.1-0.4,0-0.5c0.1-0.1,0.2-0.2,0.4-0.2c1.2-0.1,2.4,1.1,3.5,0.5"/>
	<path class="st0" d="M46.2,220.9l0.8,0.2"/>
	<path class="st0" d="M47.7,219.9c0.2,0.2,0.6,0.3,0.9,0.1"/>
	<path class="st0" d="M49.1,218l1,0.4"/>
	<path class="st0" d="M50.5,216.8c0.5,0.4,1.1,0.6,1.7,0.6"/>
	<path class="st0" d="M55.8,211.8c0.7,0.3,1.4,0.5,2.2,0.7"/>
	<path class="st0" d="M58.3,210.3c0.6,0.4,1.3,0.8,2.1,0.9"/>
	<path class="st0" d="M59.9,208.7c0.6,0.3,1.3,0.5,1.9,0.6"/>
	<path class="st0" d="M62,206.6c0.6,0.4,1.3,0.7,2.1,0.9"/>
	<path class="st0" d="M64.2,205.3l2.2,0.7"/>
	<path class="st0" d="M66,202.6c0.8,0.5,1.6,0.8,2.5,1"/>
	<path class="st0" d="M68.2,200.2c0.9,0.5,1.8,0.9,2.8,1.2"/>
	<path class="st0" d="M71,198.1c1,0.5,2,0.8,3.1,1"/>
	<path class="st0" d="M72.9,196.1c1,0.6,2,1.1,3.1,1.5"/>
	<path class="st0" d="M70.6,198.3c0.6,0.6,1.5,1,2.3,1.2"/>
	<path class="st0" d="M75.1,194.6c1.1,0.6,2.2,1.1,3.3,1.4"/>
	<path class="st0" d="M77.2,192.8c1,0.5,2,0.9,3,1.3"/>
	<path class="st0" d="M80.2,190.2c0.8,0.8,1.9,1.3,3,1.6"/>
	<path class="st0" d="M81.8,188.8l3,1.5"/>
	<path class="st0" d="M83.8,187.6c0.8,0.5,1.6,1,2.5,1.3"/>
	<path class="st0" d="M86.4,186.3c0.7,0.4,1.5,0.7,2.3,0.9"/>
	<path class="st0" d="M87.8,183.8l3.5,1.8"/>
	<path class="st0" d="M89.3,180.1c1.6,0.8,3.1,1.8,4.5,2.9"/>
	<path class="st0" d="M92.3,179c1.2,0.9,2.4,1.7,3.7,2.4"/>
	<path class="st0" d="M92.9,176.8l5.5,3.5"/>
	<path class="st0" d="M102,178.3c-1.6-1.1-3.1-2.4-4.4-3.8"/>
	<path class="st0" d="M105.6,177c-1.8-0.9-3.4-1.9-4.9-3.2"/>
	<path class="st0" d="M108.8,176.1c-1.2-1.2-2.5-2.4-4-3.4"/>
	<path class="st0" d="M111.3,173.9l-7.3-5.5"/>
	<path class="st0" d="M111.8,172c-2.3-1.5-4.5-3.3-6.5-5.2"/>
	<path class="st0" d="M113.3,170.7l-6.1-5.3c-0.2-0.1-0.3-0.4-0.2-0.5c0.1,0,0.2,0.1,0.3,0.2"/>
	<path class="st0" d="M114.9,170c0,0.1,0.2,0.2,0.3,0.1c-1.8-3.2-5.3-5-7.7-7.7"/>
	<path class="st0" d="M114.7,164.2c-2.5-1.8-4.8-3.9-6.9-6.1c-0.3-0.3-0.6-0.8-0.4-1.1"/>
	<path class="st0" d="M114.9,161.4c-1.2-1.1-2.4-2.2-3.5-3.4c-0.6-0.7-1.3-1.4-1.4-2.4"/>
	<path class="st0" d="M113.7,156.6c-1.1-0.9-2.1-2-2.9-3.2c-0.2-0.3-0.3-0.8,0-0.9"/>
	<path class="st0" d="M115.2,155.1c-1.1-1.6-2.2-3.1-3.4-4.6"/>
	<path class="st0" d="M41.2,223.9c5.6-14,11.2-28,19.2-40.8"/>
	<path class="st0" d="M40.3,225.6c3.5-7.5,7.5-14.8,11.9-21.8"/>
	<path class="st0" d="M59.5,195.6c2.4-4.2,5.2-8.3,8.3-12"/>
	<path class="st0" d="M84,136c-0.1,0.3,0.2,0.6,0.6,0.6"/>
	<path class="st0" d="M85.9,134.3c-0.1,0.3,0,0.6,0.1,0.8c0.2-0.1,0.4-0.2,0.5-0.4"/>
	<path class="st0" d="M88,133c-0.1,0.8,0.2,1.6,0.7,2.2"/>
	<path class="st0" d="M91.6,132.7c0.1,0.4,0.1,0.8,0.2,1.2s0.5,0.8,0.8,0.6"/>
	<path class="st0" d="M95.2,132.7c0,0.7,0,1.4,0.2,2c0.1,0.3,0.2,0.6,0.4,0.8s0.7,0,0.7-0.3"/>
	<path class="st0" d="M98.3,131.9l0.2,1.5c0,0.2,0.1,0.4,0.2,0.4c0.1,0,0.1-0.1,0.2-0.1c0.2-0.3,0.5-0.5,0.7-0.8"/>
	<path class="st0" d="M100.8,131c-0.1,0.4,0.4,0.6,0.8,0.4s0.5-0.5,0.7-0.8s0.4-0.6,0.8-0.7c0.2,0,0.4,0,0.6,0.1
		c0.8,0.1,1.6-0.2,2.1-0.9"/>
	<path class="st0" d="M125.1,79.1c0.3-0.8,0.3-1.6,0.2-2.4c-0.9,2.7-1.6,5.5-2,8.3"/>
	<path class="st0" d="M125,87.9l-1.4,5.1"/>
	<path class="st0" d="M124.7,94.9c-0.8,1.2-1.2,2.6-1.1,4.1c0.5-0.7,1.2-1.3,2-1.6c-0.7,1.7-1.2,3.5-1.4,5.4"/>
	<path class="st0" d="M124.5,104.3c-0.9,2.1-1.4,4.4-1.7,6.7"/>
	<path class="st0" d="M5,88.1L5.8,89"/>
	<path class="st0" d="M5.6,86.3c1,2.5,2.5,4.9,4.4,6.8"/>
	<path class="st0" d="M9.3,88.6c1.6,3.4,3.8,6.6,6.2,9.5"/>
	<path class="st0" d="M12.1,88.8l6.2,9.1"/>
	<path class="st0" d="M15.7,90.1c3,3,3.8,7.8,7.2,10.4"/>
	<path class="st0" d="M19.8,91.7l6.2,10.4c0.6,1,1.2,1.9,1.9,2.8"/>
	<path class="st0" d="M24.9,93.3c2.7,4.6,5.5,9.2,8.3,13.8"/>
	<path class="st0" d="M30.1,95.3c2.8,5.4,5.8,10.7,9,15.9"/>
	<path class="st0" d="M34.8,97.4l6.8,12.3"/>
	<path class="st0" d="M38.6,98c3.4,6.3,6.7,12.6,10.1,18.9"/>
	<path class="st0" d="M45.3,100.5c2.9,5.7,5.8,11.3,8.7,17"/>
	<path class="st0" d="M50.5,102.3c3.8,6.9,7.6,13.9,11.4,20.8"/>
	<path class="st0" d="M57.2,103.7c4.5,8.9,8.8,18,12.9,27.2"/>
	<path class="st0" d="M64.9,108.1l11,23.4c0.4,0.8,0.8,1.6,1.5,2"/>
	<path class="st0" d="M71.6,109.7c3.7,6.6,6.8,13.4,9.5,20.4"/>
	<path class="st0" d="M79.9,111.3c2.3,5.5,4.6,10.9,7.1,16.3"/>
	<path class="st0" d="M86.7,115.6c2,5,4.4,9.8,7.2,14.4c0.2-0.2,0.3-0.4,0.5-0.6"/>
	<path class="st0" d="M93.8,118.9c1.1,3.2,2.6,6.4,4.3,9.3c0.2,0.4,0.5,0.8,1,0.9"/>
	<path class="st0" d="M98.6,119.6l2.4,5.9c0.2,0.4,0.6,0.9,1,0.8"/>
	<path class="st0" d="M102.9,118.2c0.2,0.7,0.6,1.4,1.1,2"/>
	<path class="st0" d="M102,120.5c0.3,1.3,0.8,2.5,1.6,3.6"/>
	<path class="st0" d="M105.8,119.8c0.1,0.9,0.6,1.7,1.4,2.2"/>
	<path class="st0" d="M109.2,119.6c0.1,0.4,0.4,0.8,0.9,0.9"/>
	<path class="st0" d="M10.4,87.4c1.3,2.6,2.8,5.1,4.4,7.5"/>
	<path class="st0" d="M14.5,90c1.3,3.3,2.8,6.5,4.4,9.6"/>
	<path class="st0" d="M9.4,89.4c-0.6-0.9-1-1.9-1-3"/>
	<path class="st0" d="M5.9,87.9c-0.5-1.2-0.7-2.5-0.6-3.8"/>
	<path class="st0" d="M19.8,92.8c0.1,0,0-0.2-0.1-0.1s0,0.2,0,0.3c1.1,2.5,2.2,4.9,3.4,7.4"/>
	<path class="st0" d="M23.3,92.6l4.3,8.7"/>
	<path class="st0" d="M30.4,97.2c2,4.4,4,8.8,6.3,13.1"/>
	<path class="st0" d="M37.3,102.8c1.8,4,3.8,7.8,5.9,11.7"/>
	<path class="st0" d="M47,115.7c-1.9-3.8-3.7-7.6-5.2-11.5c0.8,2.8,1.2,5.9,2.3,8.6"/>
	<path class="st0" d="M46.4,107.3c2,4.1,4,8.2,6,12.2"/>
	<path class="st0" d="M52.6,111.4c2.1,4.8,4,9.6,5.8,14.6"/>
	<path class="st0" d="M57.3,111.9l7,16.2"/>
	<path class="st0" d="M65.1,114.5l6.2,15.6"/>
	<path class="st0" d="M71.8,116c1.7,5.2,3.6,10.4,5.8,15.5"/>
	<path class="st0" d="M78.8,120.6l3.5,9.7"/>
	<path class="st0" d="M81.8,120.3c0.3,0,0.5,0.3,0.6,0.6c1.3,3.6,2.6,7.1,3.8,10.7"/>
	<path class="st0" d="M87.4,122.8l2.7,7.3"/>
	<path class="st0" d="M90.7,123.1c0.5,2.1,1.3,4,2.2,5.9"/>
	<path class="st0" d="M94.2,124.5c0.3,1.3,0.7,2.5,1.2,3.7"/>
	<path class="st0" d="M97.8,125.5c0.2,1.2,0.6,2.4,1.3,3.4"/>
	<path class="st0" d="M100.9,124.5c0.2,1.3,0.8,2.7,1.5,3.8"/>
	<path class="st0" d="M103.8,123.7c0.4,1.2,1,2.4,1.6,3.6"/>
	<path class="st0" d="M107.2,123.1c0.3,1.4,0.8,2.7,1.5,3.9"/>
	<path class="st0" d="M110.3,122.8c0.3,1.3,0.8,2.6,1.5,3.8"/>
	<path class="st0" d="M113.9,122.5c0.2,1.1,0.5,2.2,1,3.2"/>
	<path class="st0" d="M73.8,133.9l-1.4-5.2"/>
	<path class="st0" d="M77.5,130.3l-0.6-1.6"/>
	<path class="st0" d="M66.8,129.3c-1.8-4.3-3.3-8.6-4.6-13.1"/>
	<path class="st0" d="M60.5,125.2c-0.8-0.9-1.2-2.1-1.5-3.2c-1.1-3.7-2.1-7.5-2.9-11.2"/>
	<path class="st0" d="M88.5,81.8c-2.9,0.7-5.7,1.7-8.5,2.8"/>
	<path class="st0" d="M87.8,83.2c-1.9,0.5-3.6,1.7-4.9,3.1"/>
	<path class="st0" d="M89.4,85.6c-1.2,0.6-2.4,1.3-3.3,2.3"/>
	<path class="st0" d="M91.1,87.2C90,88,89.1,89,88.4,90.1"/>
	<path class="st0" d="M92.2,90.1c-0.7,0.5-1.2,1.3-1.3,2.1c0.2,0,0.4,0,0.6,0"/>
	<path class="st0" d="M94.9,92c-0.7,0.7-1.4,1.4-2,2.1c0.1,0.3,0.4,0.5,0.7,0.4"/>
	<path class="st0" d="M96.6,94.5c-0.4,0.3-0.8,0.6-1,1.1s0.3,1.1,0.8,0.9"/>
	<path class="st0" d="M99.6,96.7c-0.2,0.2-0.3,0.6-0.2,0.9"/>
</g>
</svg>
