<?xml version="1.0" encoding="UTF-8"?>
<svg id="Layer_2" data-name="Layer 2" xmlns="http://www.w3.org/2000/svg" viewBox="0 0 235.34 227.72">
  <defs>
    <style>
      .cls-1 {
        stroke-width: .25px;
      }

      .cls-1, .cls-2 {
        fill: none;
        stroke: #231f20;
        stroke-miterlimit: 10;
      }

      .cls-2 {
        stroke-width: .5px;
      }
    </style>
  </defs>
  <g id="Layer_1-2" data-name="Layer 1">
    <path class="cls-2" d="m144.61,76.77c-6.58-25.37-13.16-50.73-19.75-76.1-13.83,24.96-24.99,51.41-33.23,78.74-8.18.74-17.73,1.71-25.94,1.67-7.33-.03-14.66-.38-22-.42-14.42-.09-28.85.99-43.1,3.22,23.93,19.02,49.84,35.39,75.68,51.72"/>
    <path class="cls-2" d="m149.02,74.91c27.95,3.09,56.53-3.73,84.2,1.33.73.13,1.58.38,1.82,1.08.23.67-.25,1.36-.7,1.9-4.62,5.54-10.07,10.31-15.49,15.06-17.59,15.39-35.19,30.78-52.78,46.17"/>
    <path class="cls-2" d="m75.86,138.37c-15.26,28.16-25.94,58.53-36.56,88.75,26.3-16.81,47.84-40.65,75.38-55.34"/>
    <path class="cls-2" d="m118.13,170.84c26.25,18.16,52.5,36.31,78.75,54.47,1.81,1.26,4.07,2.56,6.09,1.68-13.57-27.3-24.43-55.96-32.34-85.4"/>
    <path class="cls-1" d="m124.51,4.18c-2.66,32.3-4.18,64.7-4.55,97.1-.08,7.27-.72,13.06-.91,20.32"/>
    <path class="cls-1" d="m118.57,123.79c34.52-16.71,70.13-31.16,106.53-43.23"/>
    <path class="cls-1" d="m3.16,83.95c14.4,7.16,29.52,12.87,45.05,17.01"/>
    <path class="cls-1" d="m59.7,103.8c19.8,6.93,40.05,12.57,60.58,16.87"/>
    <path class="cls-1" d="m124.41,125c10.84,18.12,22.75,35.6,35.65,52.32"/>
    <path class="cls-1" d="m170.21,188.36c8.69,12.7,17.87,25.07,27.5,37.07"/>
    <path class="cls-1" d="m43.32,224.17c25.47-31.25,50.94-62.5,76.41-93.76"/>
    <path class="cls-1" d="m149.11,80.28c-3.75,6.43-7.92,12.63-12.47,18.52-3.22,4.18-6.74,8.42-7.91,13.57"/>
    <path class="cls-1" d="m91.8,81.34c5.92,8.36,11.49,16.98,16.7,25.81"/>
    <path class="cls-1" d="m76.63,134.82c11.38-4.1,23.39-6.44,35.48-6.91"/>
    <path class="cls-1" d="m128.38,124.45c11.9,7.42,27.57,7.2,38.91,15.46"/>
    <path class="cls-1" d="m114.72,172.56c.63-15.45,2.14-30.87,4.52-46.14"/>
    <path class="cls-1" d="m117.55,14.82l3.8-3.42"/>
    <path class="cls-1" d="m114.3,21.22c1.95-2.2,4.09-4.23,6.39-6.07"/>
    <path class="cls-1" d="m110.57,27c2.53-2.98,5.34-5.72,8.38-8.17"/>
    <path class="cls-1" d="m108.92,32.07c2.55-3.06,5.38-5.89,8.42-8.46"/>
    <path class="cls-1" d="m105.78,39.57l9.03-9.48"/>
    <path class="cls-1" d="m103.28,45.74l9.09-10.06"/>
    <path class="cls-1" d="m100.94,52.42c3.93-4.57,8.09-8.94,12.47-13.08"/>
    <path class="cls-1" d="m100.16,57.52c3.31-4.63,7.09-8.93,11.27-12.79"/>
    <path class="cls-1" d="m95.72,65.53c4.81-4.91,9.78-9.67,14.88-14.28"/>
    <path class="cls-1" d="m95,71.21c3.29-4.46,7.24-8.43,11.69-11.75"/>
    <path class="cls-1" d="m143.37,89.76c2.51-1.45,5.21-2.57,8.02-3.3"/>
    <path class="cls-1" d="m138.8,95.52c3.29-1.94,6.81-3.49,10.47-4.59"/>
    <path class="cls-1" d="m134.4,100.97c3.09-1.83,6.37-3.35,9.78-4.51"/>
    <path class="cls-1" d="m129.76,107.59c3.15-1.88,6.44-3.52,9.84-4.9"/>
    <path class="cls-1" d="m128.48,111.89l7.8-4.05"/>
    <path class="cls-1" d="m125.54,116.64c2.96-2.36,6.27-4.26,9.8-5.62"/>
    <path class="cls-1" d="m122.41,120.07c4.36-2.89,9.03-5.33,13.9-7.24"/>
    <path class="cls-1" d="m133.54,103.36l8.37-3.06"/>
    <path class="cls-1" d="m143.2,95.99l.49-.33"/>
    <path class="cls-1" d="m133.73,125.59c1.72,1.51,3.7,2.73,5.83,3.58"/>
    <path class="cls-1" d="m132.88,123.18l16.32,9.76"/>
    <path class="cls-1" d="m137.13,122.37c7.04,4.1,14.07,8.2,21.11,12.31"/>
    <path class="cls-1" d="m142.54,120.39c7.08,5.88,14.59,11.25,22.44,16.04"/>
    <path class="cls-1" d="m147.59,119.12c5.09,5.09,10.57,9.78,16.38,14.03,1.52,1.12,3.11,2.22,4.92,2.75"/>
    <path class="cls-1" d="m151.81,118.66c5.64,5.23,11.62,10.1,17.88,14.57"/>
    <path class="cls-1" d="m155.54,116.4c5.55,5.21,11.43,10.06,17.61,14.5"/>
    <path class="cls-1" d="m160.16,115.21c5.2,4.71,10.56,9.25,16.04,13.63"/>
    <path class="cls-1" d="m164.67,114.57c.46.07.83.39,1.19.69,3.96,3.42,7.54,7.32,11.92,10.18"/>
    <path class="cls-1" d="m171.22,114.97c3.21,3.2,6.65,6.17,10.28,8.88"/>
    <path class="cls-1" d="m174.21,112.3c3.55,3.12,7.13,6.21,10.74,9.25"/>
    <path class="cls-1" d="m179.23,111.05c2.84,2.46,5.73,4.88,8.64,7.25"/>
    <path class="cls-1" d="m183.39,108.53c2.74,2.58,5.6,5.02,8.59,7.31"/>
    <path class="cls-1" d="m187.58,106.63c2.24,2.07,4.48,4.14,6.72,6.21"/>
    <path class="cls-1" d="m191.2,103.83c2.19,2.34,4.55,4.52,7.07,6.51"/>
    <path class="cls-1" d="m195.8,102.67l5.69,5.29"/>
    <path class="cls-1" d="m199.4,98.91c1.92,1.97,3.92,3.84,6.01,5.62"/>
    <path class="cls-1" d="m204.13,96.96l5.24,4.75"/>
    <path class="cls-1" d="m208.07,93.51l5.19,4.64"/>
    <path class="cls-1" d="m212.83,91.21c1.38,1.44,2.96,2.68,4.69,3.68"/>
    <path class="cls-1" d="m217.2,88.62c.87.97,1.83,1.86,2.85,2.66.2.16.42.32.67.35s.55-.09.61-.34"/>
    <path class="cls-1" d="m220.72,85.78c1.14,1.21,2.49,2.22,3.98,2.95"/>
    <path class="cls-1" d="m224.34,83.12c1.23.96,2.44,1.94,3.63,2.96"/>
    <path class="cls-1" d="m228.42,81.47l1.76,1.35c.16.12.33.25.53.27s.43-.14.41-.34"/>
    <path class="cls-1" d="m155.67,123.97c4.33,4.42,8.92,8.58,13.74,12.46"/>
    <path class="cls-1" d="m160.72,123.18c3.27,3.45,6.77,6.69,10.47,9.68"/>
    <path class="cls-1" d="m164.01,120.37c3.36,3.15,6.8,6.21,10.31,9.18"/>
    <path class="cls-1" d="m169.78,118.21c3.03,2.92,6.12,5.79,9.26,8.59"/>
    <path class="cls-1" d="m174.69,116.57l7.67,6.25"/>
    <path class="cls-1" d="m179.6,113.3c2.24,2.25,4.62,4.36,7.13,6.31"/>
    <path class="cls-1" d="m157.14,83.5l47.15-5.34"/>
    <path class="cls-1" d="m133.55,133.15c1.88,3.38,3.84,6.72,5.87,10.01"/>
    <path class="cls-1" d="m138,135.26l2.84,4.81"/>
    <path class="cls-1" d="m141.5,136.92c.05.85.57,1.66,1.32,2.07"/>
    <path class="cls-1" d="m143.42,136.58c.32,1.06,1.07,1.99,2.04,2.54"/>
    <path class="cls-1" d="m146.31,136.6c.37,1.19,1.04,2.28,1.92,3.16"/>
    <path class="cls-1" d="m150.09,138.56c.64,1.2,1.54,2.27,2.62,3.11"/>
    <path class="cls-1" d="m154.66,140.7l2.94,3.28"/>
    <path class="cls-1" d="m181.71,194.73c5.71,10.51,11.93,20.74,18.62,30.65"/>
    <path class="cls-1" d="m182.26,188.31c4.1,9.69,8.71,19.17,13.79,28.39"/>
    <path class="cls-1" d="m117.62,170.85c-.4-.44-.37-1.12-.31-1.71.57-5.66,1.14-11.32,1.71-16.98"/>
    <path class="cls-1" d="m120.98,169.72l-.87,1.14c-.6-8.42-.31-16.9.87-25.25"/>
    <path class="cls-1" d="m122.71,172.46l-.17.78c.1-7.53.43-15.05,1-22.55"/>
    <path class="cls-1" d="m125.75,174.93c-.67-6.53-.58-13.15.27-19.66"/>
    <path class="cls-1" d="m128.12,176.56c.1-6.4.49-12.79,1.16-19.16"/>
    <path class="cls-1" d="m130.32,182.46c.4-7.07,1.07-14.12,2.01-21.14"/>
    <path class="cls-1" d="m133.33,178.85c.28-5.38.9-10.74,1.86-16.04"/>
    <path class="cls-1" d="m134.88,183.44l2.62-20.31"/>
    <path class="cls-1" d="m138.01,184.75c.78-7.72,2.05-15.39,3.81-22.95"/>
    <path class="cls-1" d="m140.43,186.71c.64-7.57,1.88-15.08,3.7-22.45"/>
    <path class="cls-1" d="m143.17,187.36c.66-6.25,1.54-12.48,2.63-18.67"/>
    <path class="cls-1" d="m145.34,190.96c.43-5.04,1.03-10.06,1.81-15.05"/>
    <path class="cls-1" d="m147.93,191.78c.71-5.86,1.56-11.71,2.55-17.54"/>
    <path class="cls-1" d="m150.23,193.26c.71-5.92,1.57-11.82,2.57-17.7"/>
    <path class="cls-1" d="m153,193.59l1.37-9.65"/>
    <path class="cls-1" d="m155.78,196.04c.48-2.69,1.04-5.36,1.67-8.02"/>
    <path class="cls-1" d="m158.78,197.85c.75-3.97,1.66-7.91,2.75-11.8"/>
    <path class="cls-1" d="m161.43,202.44c1.17-5.38,2.45-10.74,3.85-16.07"/>
    <path class="cls-1" d="m164.63,201.61c.8-4.1,1.83-8.15,3.1-12.13"/>
    <path class="cls-1" d="m166.93,204.89c.69-3.45,1.61-6.84,2.75-10.17"/>
    <path class="cls-1" d="m169.58,206.53l2.48-9"/>
    <path class="cls-1" d="m172.54,208.17c.65-2.83,1.46-5.62,2.41-8.37"/>
    <path class="cls-1" d="m174.89,210.17c1-1.96,1.83-4.01,2.45-6.13"/>
    <path class="cls-1" d="m178.3,211.29l1.58-4.44"/>
    <path class="cls-1" d="m180.6,213.75c.66-1.61,1.24-3.26,1.73-4.94"/>
    <path class="cls-1" d="m183.62,215.04c.39-1.86,1.12-3.64,2.14-5.25"/>
    <path class="cls-1" d="m186.78,217.67l1.3-3.77"/>
    <path class="cls-1" d="m189.02,221.1l.55-3.92"/>
    <path class="cls-1" d="m157.77,184.42l.35-2.45"/>
    <path class="cls-1" d="m154.32,180.48l.98-3.77"/>
    <path class="cls-1" d="m126.12,177.7c.53-4.41.93-8.83,1.21-13.26"/>
    <path class="cls-1" d="m124.06,173.93c-.44-2.37-.49-4.81-.16-7.2"/>
    <path class="cls-1" d="m136.03,183.04c-.1-.01-.05.18.05.16s.13-.14.15-.24c.63-3.42,1.1-6.87,1.42-10.33"/>
    <path class="cls-1" d="m139.42,185.58c-.24-.17-.2-.53-.15-.82.84-4.13,1.84-8.22,3-12.28"/>
    <path class="cls-1" d="m142.6,187.21l.78-9.17"/>
    <path class="cls-1" d="m145.45,190.48c.1-2.84.62-5.66,1.52-8.35"/>
    <path class="cls-1" d="m154.07,194.59l1.76-6.24"/>
    <path class="cls-1" d="m157.88,197.02l1.31-6.71"/>
    <path class="cls-1" d="m161.02,200.63c.21-2.22.66-4.42,1.35-6.54"/>
    <path class="cls-1" d="m163.79,202.09c.32-1.61.78-3.2,1.38-4.73"/>
    <path class="cls-1" d="m167.44,203.09v.12c.34-1.18.68-2.36,1.03-3.54"/>
    <path class="cls-1" d="m169.73,205.88c-.1,0-.04.2.07.18s.15-.13.19-.23c.28-.81.56-1.63.85-2.44"/>
    <path class="cls-1" d="m173.18,208.98l1-2.94"/>
    <path class="cls-1" d="m176.78,210.95l.8-1.65"/>
    <path class="cls-1" d="m179.98,213.28l.74-1.99"/>
    <path class="cls-1" d="m183.2,215.41c.42-.4.7-.94.79-1.51"/>
    <path class="cls-1" d="m185.3,216.85l.49-1.31"/>
    <path class="cls-1" d="m188.42,219.22c.4-.08.69-.5.63-.9"/>
    <path class="cls-1" d="m49.53,218.15c.47.46,1.21.61,1.82.37"/>
    <path class="cls-1" d="m51.32,216.69c.39.38,1.04.46,1.5.17"/>
    <path class="cls-1" d="m51.63,215.25c.55.42,1.2.71,1.88.82.38.06.95-.19.75-.52"/>
    <path class="cls-1" d="m52.99,213.68l2.44.89c.26.09.68.07.65-.2"/>
    <path class="cls-1" d="m54.28,212.09c.77.38,1.58.69,2.41.94.34.1.86.08.88-.27"/>
    <path class="cls-1" d="m56.22,210.65c1,.84,2.32,1.29,3.63,1.24"/>
    <path class="cls-1" d="m57.9,208.95c1.09.7,2.27,1.27,3.5,1.69.27.09.67.1.72-.18"/>
    <path class="cls-1" d="m59.67,206.87c.87.74,1.94,1.24,3.06,1.45.35.07.9-.17.7-.47"/>
    <path class="cls-1" d="m61.31,205.08c1.2.77,2.51,1.39,3.87,1.82.16.05.34.1.5.04s.27-.27.17-.4"/>
    <path class="cls-1" d="m62.98,203.06l3.58,1.73c.37.18.84.36,1.18.11"/>
    <path class="cls-1" d="m65.29,200.92c1.44,1.24,3.29,2.02,5.19,2.17"/>
    <path class="cls-1" d="m67.86,199.01c1.31,1.14,2.9,1.94,4.59,2.32"/>
    <path class="cls-1" d="m68.52,196.23c2.35,1.35,4.77,2.58,7.24,3.69"/>
    <path class="cls-1" d="m72.1,194.45c1.62,1.24,3.46,2.2,5.41,2.83"/>
    <path class="cls-1" d="m72.95,191.78l5.72,3.3"/>
    <path class="cls-1" d="m76,190.25c1.69,1.04,3.43,2,5.22,2.88.16.08.34.15.5.09s.21-.35.04-.4"/>
    <path class="cls-1" d="m77.87,188.32l5.08,3.01c.2.12.6.03.46-.15"/>
    <path class="cls-1" d="m79.41,186.03l5.41,3.56c.24.16.52.32.8.24s.37-.56.09-.63"/>
    <path class="cls-1" d="m81.54,184.38c2.07,1.49,4.27,2.82,6.55,3.97.14.07.32.14.46.07s.12-.36-.04-.34"/>
    <path class="cls-1" d="m83.28,182.43l7.48,4.51"/>
    <path class="cls-1" d="m85.03,179.72c2.23,1.74,4.65,3.23,7.21,4.44-.02-.39-.19-.77-.46-1.05"/>
    <path class="cls-1" d="m86.71,177.7c2.62,1.99,5.41,3.76,8.34,5.27"/>
    <path class="cls-1" d="m88.2,175.21c3,1.92,6,3.83,9,5.75"/>
    <path class="cls-1" d="m90.81,172.61c2.93,2.48,6.18,4.59,9.64,6.27"/>
    <path class="cls-1" d="m94.42,171.47c.1-.21.41-.1.6.03,2.78,1.93,5.56,3.87,8.33,5.8"/>
    <path class="cls-1" d="m96.35,168.88c3.25,2.48,6.64,4.79,10.13,6.92"/>
    <path class="cls-1" d="m98.54,166.5c3.34,2.29,6.64,4.61,9.92,6.97"/>
    <path class="cls-1" d="m101.84,164.51c2.89,2.16,5.79,4.3,8.7,6.42"/>
    <path class="cls-1" d="m103.6,161.63c2.81,2.57,5.81,4.95,8.96,7.1"/>
    <path class="cls-1" d="m104.53,157.91c3.12,2.84,6.36,5.56,9.69,8.16"/>
    <path class="cls-1" d="m106.61,155.33c0,.12-.21-.03-.13-.12s.23-.03.33.04c3.3,2,5.59,5.38,8.84,7.46"/>
    <path class="cls-1" d="m109.28,152.91c-.12.04-.15-.2-.03-.24s.24.05.34.13c2.25,1.97,4.49,3.95,6.74,5.92"/>
    <path class="cls-1" d="m111.4,149.92l.63.51c1.8,1.46,3.61,2.92,5.27,4.54"/>
    <path class="cls-1" d="m113.22,147.19c.36-.22.81.07,1.14.35.91.79,1.81,1.61,2.68,2.45-.25-1.48-.8-2.91-1.61-4.18-.51-.81-1.14-1.58-1.37-2.51-.04-.16-.06-.35.04-.49.09-.12.25-.16.4-.18,1.21-.1,2.42,1.08,3.5.54"/>
    <path class="cls-1" d="m46.17,220.95l.8.24"/>
    <path class="cls-1" d="m47.67,219.91c.24.22.61.29.91.15"/>
    <path class="cls-1" d="m49.14,217.99l1.03.45"/>
    <path class="cls-1" d="m50.5,216.85c.49.38,1.11.58,1.73.55"/>
    <path class="cls-1" d="m55.79,211.79c.7.31,1.43.54,2.17.7"/>
    <path class="cls-1" d="m58.29,210.33c.61.45,1.33.77,2.07.92"/>
    <path class="cls-1" d="m59.91,208.69c.6.32,1.26.53,1.94.6"/>
    <path class="cls-1" d="m61.97,206.65c.63.42,1.33.73,2.06.91"/>
    <path class="cls-1" d="m64.25,205.29l2.18.66"/>
    <path class="cls-1" d="m65.99,202.61c.75.49,1.61.83,2.49.99"/>
    <path class="cls-1" d="m68.25,200.25c.86.52,1.8.93,2.77,1.22"/>
    <path class="cls-1" d="m71,198.08c.97.49,2.03.83,3.1,1"/>
    <path class="cls-1" d="m72.95,196.12c.96.63,2,1.14,3.09,1.51"/>
    <path class="cls-1" d="m70.62,198.33c.64.61,1.47,1.03,2.34,1.19"/>
    <path class="cls-1" d="m75.14,194.62c1.05.59,2.16,1.07,3.3,1.43"/>
    <path class="cls-1" d="m77.18,192.82c.97.5,1.97.95,2.99,1.34"/>
    <path class="cls-1" d="m80.17,190.16c.85.76,1.87,1.32,2.97,1.64"/>
    <path class="cls-1" d="m81.77,188.79l2.96,1.51"/>
    <path class="cls-1" d="m83.84,187.64c.77.54,1.62.96,2.52,1.27"/>
    <path class="cls-1" d="m86.45,186.3c.72.42,1.5.72,2.31.89"/>
    <path class="cls-1" d="m87.85,183.85l3.53,1.75"/>
    <path class="cls-1" d="m89.32,180.1c1.57.82,3.06,1.78,4.46,2.86"/>
    <path class="cls-1" d="m92.27,178.98c1.15.9,2.39,1.69,3.7,2.36"/>
    <path class="cls-1" d="m92.89,176.85l5.48,3.46"/>
    <path class="cls-1" d="m101.97,178.3c-1.58-1.14-3.07-2.41-4.45-3.78"/>
    <path class="cls-1" d="m105.6,176.97c-1.76-.86-3.41-1.95-4.89-3.24"/>
    <path class="cls-1" d="m108.75,176.11c-1.21-1.24-2.54-2.37-3.97-3.36"/>
    <path class="cls-1" d="m111.3,173.91l-7.29-5.54"/>
    <path class="cls-1" d="m111.79,172.03c-2.3-1.54-4.47-3.27-6.48-5.18"/>
    <path class="cls-1" d="m113.26,170.7l-6.07-5.3c-.16-.14-.32-.36-.2-.53.13.02.25.1.31.22"/>
    <path class="cls-1" d="m114.89,170c-.02.14.18.24.28.14-1.81-3.18-5.28-5.01-7.71-7.74"/>
    <path class="cls-1" d="m114.68,164.16c-2.47-1.81-4.77-3.85-6.88-6.07-.29-.31-.6-.76-.38-1.12"/>
    <path class="cls-1" d="m114.87,161.41c-1.2-1.13-2.39-2.25-3.52-3.45-.64-.68-1.29-1.44-1.43-2.37"/>
    <path class="cls-1" d="m113.72,156.6c-1.12-.9-2.1-1.98-2.9-3.18-.2-.3-.32-.81.02-.93"/>
    <path class="cls-1" d="m115.18,155.14c-1.05-1.59-2.2-3.12-3.42-4.59"/>
    <path class="cls-1" d="m41.21,223.9c5.61-13.96,11.25-28,19.23-40.76"/>
    <path class="cls-1" d="m40.26,225.6c3.5-7.51,7.46-14.81,11.85-21.83"/>
    <path class="cls-1" d="m59.5,195.61c2.37-4.25,5.17-8.26,8.34-11.96"/>
    <path class="cls-1" d="m83.96,136.01c-.06.31.25.63.57.57"/>
    <path class="cls-1" d="m85.91,134.29c-.07.26-.03.55.11.79.21-.07.38-.24.46-.44"/>
    <path class="cls-1" d="m88.03,133.03c-.09.79.15,1.62.66,2.23"/>
    <path class="cls-1" d="m91.56,132.69c.14.37.08.78.18,1.16s.48.76.84.6"/>
    <path class="cls-1" d="m95.19,132.69c-.03.67.04,1.35.18,2,.07.29.17.61.42.77s.68.04.69-.26"/>
    <path class="cls-1" d="m98.35,131.89l.16,1.49c.02.16.08.36.24.35.08,0,.14-.06.2-.12.24-.26.47-.53.68-.82"/>
    <path class="cls-1" d="m100.84,130.96c-.05.35.43.58.76.45s.53-.46.72-.76.44-.61.79-.66c.21-.03.42.04.63.08.79.14,1.64-.25,2.05-.94"/>
    <path class="cls-1" d="m125.07,79.12c.26-.78.35-1.62.25-2.44-.91,2.7-1.59,5.48-2.03,8.3"/>
    <path class="cls-1" d="m124.98,87.93l-1.45,5.14"/>
    <path class="cls-1" d="m124.71,94.88c-.77,1.19-1.16,2.63-1.08,4.05.48-.71,1.17-1.27,1.97-1.59-.74,1.71-1.23,3.54-1.44,5.39"/>
    <path class="cls-1" d="m124.54,104.34c-.87,2.14-1.44,4.41-1.69,6.71"/>
    <path class="cls-1" d="m4.97,88.11l.88.92"/>
    <path class="cls-1" d="m5.58,86.35c1,2.54,2.52,4.87,4.44,6.81"/>
    <path class="cls-1" d="m9.33,88.64c1.64,3.43,3.75,6.64,6.25,9.51"/>
    <path class="cls-1" d="m12.12,88.82l6.18,9.07"/>
    <path class="cls-1" d="m15.73,90.14c2.98,3.01,3.79,7.84,7.17,10.38"/>
    <path class="cls-1" d="m19.82,91.71l6.24,10.37c.58.97,1.17,1.95,1.92,2.79"/>
    <path class="cls-1" d="m24.9,93.32c2.71,4.6,5.46,9.19,8.25,13.75"/>
    <path class="cls-1" d="m30.08,95.34c2.84,5.4,5.84,10.72,9,15.95"/>
    <path class="cls-1" d="m34.77,97.38l6.78,12.34"/>
    <path class="cls-1" d="m38.62,98.03c3.37,6.29,6.73,12.59,10.1,18.88"/>
    <path class="cls-1" d="m45.31,100.53c2.91,5.66,5.82,11.32,8.73,16.98"/>
    <path class="cls-1" d="m50.5,102.32c3.79,6.94,7.58,13.88,11.37,20.82"/>
    <path class="cls-1" d="m57.24,103.67c4.55,8.93,8.84,17.99,12.85,27.17"/>
    <path class="cls-1" d="m64.95,108.13l11.04,23.37c.36.75.75,1.55,1.46,1.99"/>
    <path class="cls-1" d="m71.63,109.74c3.65,6.57,6.84,13.39,9.53,20.41"/>
    <path class="cls-1" d="m79.87,111.33c2.26,5.5,4.63,10.94,7.12,16.34"/>
    <path class="cls-1" d="m86.72,115.56c2.03,4.96,4.42,9.77,7.16,14.38.17-.22.34-.44.51-.65"/>
    <path class="cls-1" d="m93.82,118.88c1.13,3.24,2.58,6.38,4.3,9.35.23.39.52.82.97.85"/>
    <path class="cls-1" d="m98.57,119.62l2.44,5.94c.18.43.55.95.98.78"/>
    <path class="cls-1" d="m102.91,118.25c.24.74.62,1.43,1.13,2.02"/>
    <path class="cls-1" d="m101.99,120.5c.27,1.29.83,2.52,1.63,3.57"/>
    <path class="cls-1" d="m105.82,119.82c.09.9.61,1.74,1.37,2.23"/>
    <path class="cls-1" d="m109.23,119.59c.05.45.42.84.87.91"/>
    <path class="cls-1" d="m10.4,87.43c1.31,2.58,2.78,5.07,4.41,7.46"/>
    <path class="cls-1" d="m14.48,89.98c1.31,3.27,2.77,6.48,4.36,9.63"/>
    <path class="cls-1" d="m9.35,89.38c-.6-.87-.96-1.9-1.03-2.96"/>
    <path class="cls-1" d="m5.9,87.93c-.49-1.19-.68-2.5-.56-3.79"/>
    <path class="cls-1" d="m19.8,92.76c.12.02,0-.22-.09-.14s-.05.23,0,.34c1.12,2.46,2.24,4.93,3.36,7.39"/>
    <path class="cls-1" d="m23.33,92.62l4.31,8.73"/>
    <path class="cls-1" d="m30.43,97.22c1.95,4.44,4.05,8.82,6.3,13.12"/>
    <path class="cls-1" d="m37.29,102.85c1.83,3.96,3.8,7.84,5.91,11.66"/>
    <path class="cls-1" d="m46.97,115.66c-1.92-3.75-3.66-7.59-5.2-11.51.84,2.77,1.25,5.89,2.34,8.58"/>
    <path class="cls-1" d="m46.4,107.34c2.01,4.08,4.02,8.16,6.02,12.24"/>
    <path class="cls-1" d="m52.63,111.37c2.1,4.78,4.03,9.64,5.8,14.55"/>
    <path class="cls-1" d="m57.33,111.87l7.01,16.17"/>
    <path class="cls-1" d="m65.12,114.5l6.22,15.56"/>
    <path class="cls-1" d="m71.83,116.02c1.68,5.25,3.63,10.42,5.82,15.49"/>
    <path class="cls-1" d="m78.81,120.61l3.48,9.72"/>
    <path class="cls-1" d="m81.79,120.32c.3-.01.48.33.58.61,1.28,3.55,2.57,7.11,3.85,10.66"/>
    <path class="cls-1" d="m87.4,122.77l2.73,7.31"/>
    <path class="cls-1" d="m90.72,123.13c.53,2.05,1.27,4.04,2.2,5.93"/>
    <path class="cls-1" d="m94.17,124.51c.27,1.27.69,2.51,1.25,3.68"/>
    <path class="cls-1" d="m97.83,125.52c.16,1.22.59,2.4,1.26,3.44"/>
    <path class="cls-1" d="m100.87,124.51c.25,1.35.77,2.65,1.51,3.81"/>
    <path class="cls-1" d="m103.83,123.74c.45,1.22.98,2.42,1.58,3.57"/>
    <path class="cls-1" d="m107.25,123.11c.33,1.37.82,2.69,1.46,3.94"/>
    <path class="cls-1" d="m110.29,122.85c.31,1.33.81,2.61,1.49,3.8"/>
    <path class="cls-1" d="m113.91,122.49c.17,1.1.5,2.18.99,3.18"/>
    <path class="cls-1" d="m73.85,133.86l-1.41-5.18"/>
    <path class="cls-1" d="m77.48,130.33l-.63-1.65"/>
    <path class="cls-1" d="m66.81,129.33c-1.8-4.26-3.35-8.61-4.64-13.05"/>
    <path class="cls-1" d="m60.51,125.16c-.79-.89-1.16-2.07-1.5-3.21-1.1-3.71-2.07-7.46-2.91-11.24"/>
    <path class="cls-1" d="m88.47,81.78c-2.88.73-5.71,1.67-8.47,2.8"/>
    <path class="cls-1" d="m87.77,83.17c-1.89.54-3.61,1.65-4.89,3.14"/>
    <path class="cls-1" d="m89.43,85.58c-1.24.55-2.37,1.35-3.3,2.33"/>
    <path class="cls-1" d="m91.07,87.23c-1.05.77-1.95,1.74-2.64,2.84"/>
    <path class="cls-1" d="m92.17,90.15c-.72.48-1.22,1.27-1.34,2.12.2.01.39.03.59.04"/>
    <path class="cls-1" d="m94.93,91.99c-.71.67-1.39,1.38-2.04,2.11.07.28.42.46.69.36"/>
    <path class="cls-1" d="m96.56,94.54c-.41.27-.85.58-.98,1.05s.28,1.09.75.94"/>
    <path class="cls-1" d="m99.61,96.67c-.22.24-.3.59-.2.9"/>
  </g>
</svg>