<?xml version="1.0" encoding="UTF-8"?>
<svg id="Layer_2" data-name="Layer 2" xmlns="http://www.w3.org/2000/svg" viewBox="0 0 88.75 171.67">
  <defs>
    <style>
      .cls-1 {
        stroke-width: .25px;
      }

      .cls-1, .cls-2, .cls-3 {
        fill: none;
      }

      .cls-1, .cls-3 {
        stroke: #231f20;
        stroke-miterlimit: 10;
      }

      .cls-3 {
        stroke-width: .5px;
      }
    </style>
  </defs>
  <g id="Layer_1-2" data-name="Layer 1">
    <path class="cls-3" d="m80.21,55.34c-2.27-.67-4.62-1.75-4.83-3.27-.31-2.3,3.63-5.54,5.35-6.42.95-.48,2.03-.82,3.09-.66,1.55.24,2.75,1.53,3.49,2.91.95,1.78,1.36,3.84,1.15,5.85-.06.55-.22,1.18-.73,1.4-.2.09-.43.1-.64.15-.66.14-1.18.65-1.83.82-.45.12-.92.08-1.37.01-1.33-.18-2.76-.97-3.82.05-1.13,1.09-1.52,4.39-2.02,5.87-1.43,4.15-2.98,8.26-4.66,12.32-3.41,8.24-7.34,16.26-11.76,24"/>
    <path class="cls-3" d="m58.11,114.01c2.26-5.07,2.91-10.67,3.98-16.12.92-4.7,2.16-9.34,3.71-13.87"/>
    <path class="cls-3" d="m58.46,102.17c1.02-6.33,2.69-12.55,4.98-18.54"/>
    <path class="cls-3" d="m66.51,83.84c.7.03,1.41.03,2.06-.23s1.21-.85,1.23-1.54c.03-.74-.51-1.36-1.02-1.89-.41-.43-.82-.87-1.23-1.3-.26-.28-.54-.57-.91-.67-.31-.09-.63-.04-.94.04-1.36.33-4.25,1.77-4.21,3.5.04,2.14,3.52,2.03,5.02,2.1Z"/>
    <path class="cls-3" d="m59.44,123.4c2.65-11.22,6.45-22.17,11.31-32.62,3.77-8.09,8.2-15.94,10.68-24.51.94-3.25,1.59-6.57,2.24-9.89"/>
    <path class="cls-3" d="m55.72,147.24c1.39-8.82,2.7-17.69,2.88-26.62.14-7.34-.48-14.7,0-22.03.19-2.97.56-5.92.93-8.88,1.15-9.15,2.3-18.3,3.45-27.45"/>
    <path class="cls-3" d="m51.31,104.28c1.73-6.8,3.46-13.6,5.19-20.4.85-3.34,1.7-6.69,2.71-9.99,3.56-11.6,9.1-22.62,11.36-34.55"/>
    <path class="cls-3" d="m65.57,37.57c-.51,8.05-3.49,15.72-6.47,23.22-2.78,7.01-5.59,14.02-8.43,21.01"/>
    <path class="cls-3" d="m71.49,38.9c-1.41-.36-3.11-.52-4.56-.42.73.22,1.5.32,2.27.4.76.07,1.55.11,2.3.02Z"/>
    <path class="cls-3" d="m58.13,20.85c.22,3.04.34,6.09.37,9.14"/>
    <path class="cls-3" d="m58.6,37.14c-.42.75-.4,1.67-.38,2.53.21,7.51-.2,15.05-1.21,22.5"/>
    <path class="cls-3" d="m64.55,37.24c.04,2.02-.11,4.05-.46,6.04"/>
    <path class="cls-3" d="m63.37,20.51c.61,2.77.72,5.65.33,8.46"/>
    <path class="cls-3" d="m53.15,15.72c-.48,1.07-.97,2.33-.43,3.38.68,1.33,2.5,1.44,3.99,1.38,3.3-.14,6.6-.28,9.9-.42,1.44-.06,3.11-.25,3.86-1.48.44-.71.43-1.61.28-2.43-.4-2.18-1.79-4.15-3.71-5.25-1.1-.63-2.34-.98-3.56-1.28-1.5-.38-3.1-.7-4.56-.2-1.36.46-2.4,1.57-3.21,2.75-1.25,1.81-2.11,3.88-2.52,6.04"/>
    <path class="cls-3" d="m50.23,56.97c.96-4.73,1.93-9.52,1.88-14.36-.01-1.38.26-4.26-.85-5.37s-2.89-.27-4.1-1.16c-.21-.16-.4-.39-.39-.65,0-.23.17-.43.32-.61,1.16-1.34,2.32-2.68,3.49-4.02"/>
    <path class="cls-3" d="m56.02,37.59c-.13,10.65-1.45,21.28-3.92,31.64-.82,3.46-1.78,6.94-1.63,10.49"/>
    <path class="cls-3" d="m49.87,80.57c-.61-3.99-.94-8.03-.98-12.07-.02-1.68-.45-4.36.14-5.95.49-1.33,1.15-1.07,2.36-1.78,2.84-1.65.89-3.02-1.33-4.11-1.52-.75-2.92-1.19-4.39-.12-1.12.81-3.65,4.62-1.7,5.63.31.16.67.16,1.01.15.34,0,.68-.03,1.03-.05"/>
    <path class="cls-3" d="m51.04,144.14c2.7-12.51,1.55-24.38-.38-36.92-.67-4.33-1.34-8.67-1.79-13.03-.22-2.17-.41-4.36-.48-6.54-.09-2.95.8-1.12,2.23-2.87.34-.41.31-1.04.05-1.51s-.69-.81-1.13-1.11c-.88-.59-1.84-1.07-2.84-1.41"/>
    <path class="cls-3" d="m45.69,107.22c-1.75,1.54-2.2,4.36-1.01,6.37,2.21-.17,3.99-1.81,5.58-3.36.38-.37.79-.8.8-1.33.02-.85-.94-1.35-1.75-1.6-1.58-.48-3.49-.74-4.71.38"/>
    <path class="cls-3" d="m52.65,124.95c.79-8.83.83-17.73.12-26.57"/>
    <path class="cls-3" d="m45.31,28.72c1.71-4.04,2.91-8.3,3.57-12.63.27-1.8.5-3.47-.42-5.02s-2.35-3.23-3.51-4.68c-1.79-2.23.03-4.21,2.4-5.31,1.63-.75,3.48-.94,5.27-.76,1.95.2,3.89.84,5.39,2.11s2.48,3.21,2.32,5.16"/>
    <path class="cls-3" d="m54.01,19.82c-.55,2.65-1.32,5.24-2.32,7.76"/>
    <path class="cls-3" d="m47.95,33.47c.64-1.77,2-3.28,3.71-4.08s3.73-.9,5.51-.26c.38.14.74.3,1.07.54.51.37.89.88,1.21,1.42.69,1.19,1.06,2.73.4,3.94-.73,1.34-2.47,1.81-4,1.73-.89-.05-1.77-.23-2.6-.55"/>
    <path class="cls-3" d="m43.25,16c1.82,12.82,2.96,25.73,3.44,38.67"/>
    <path class="cls-3" d="m37.59,16.17c1.27,9.74,1.98,19.54,2.14,29.36"/>
    <path class="cls-3" d="m31.59,11.48c.67-1.55,1.35-3.12,2.35-4.48s2.38-2.51,4.02-2.94c1.84-.48,3.84.03,5.46,1.02,1.95,1.19,3.41,2.98,4.71,4.82,1.62,2.29,1.13,3.4-1.5,4.56-1.06.47-2.16.95-3.33.97-.42,0-.84-.04-1.25-.03-.47.02-.92.12-1.38.22-1.06.23-2.11.46-3.17.7"/>
    <path class="cls-3" d="m33.74,24.1c.13-.09-.09-.3-.22-.2s-.13.28-.11.44c.72,7.12,1.44,14.24,2.16,21.35"/>
    <path class="cls-3" d="m29.39,35.34c.1-2.3.83-7.99-.59-9.91-1.17-1.58-3.78-.75-5.18-2.54-2.55-3.25.85-8.32,3.6-10.21,1.24-.86,2.81-1.46,4.26-1.01.82.26,1.51.83,2.1,1.45,1.75,1.86,2.86,4.32,3.07,6.87.03.3.04.61-.1.88-.17.34-.54.52-.89.68-1.83.84-4.53,2.39-7.06,2.86"/>
    <path class="cls-3" d="m17.82,44.51c.06.99.41,2.07,1.29,2.53.68.36,1.51.26,2.27.15,1.59-.23,3.17-.46,4.76-.69.78-.11,1.58-.23,2.31-.53,1.07-.44,1.94-1.24,2.98-1.75.66-.33,1.41-.57,1.82-1.17.72-1.06-.03-2.47-.78-3.51-1.75-2.47-4.75-6.73-8.24-4.91-3.27,1.71-6.62,6.11-6.41,9.88Z"/>
    <path class="cls-3" d="m19.88,19.31c2.64,4.22,4.35,9.01,4.96,13.95"/>
    <path class="cls-3" d="m14.92,21.7c.74,1.33,1.38,2.72,1.88,4.15"/>
    <path class="cls-3" d="m19.41,32.92c.43,1.1.67,2.28.69,3.46"/>
    <path class="cls-3" d="m20,18.37c1.41-1.13,2.73-2.48,3.36-4.17s.45-3.79-.84-5.06c-.55-.54-1.26-.9-1.99-1.16-5.22-1.8-12.1,2.52-12.48,8.17-.14,2.14.5,6.65,2.94,6.66,2.93,0,6.83-2.72,9.01-4.46Z"/>
    <path class="cls-3" d="m17.19,40c-.24-1.35-1.07-3.5-.35-4.79s2.46-1.7,3.22-3.08c.14-.25.26-.53.23-.82-.03-.27-.18-.51-.33-.73-.57-.86-1.15-1.71-1.73-2.55-.88-1.27-1.87-2.61-3.33-3.13-2.48-.88-6.23.86-7.79,2.89-.99,1.3-3.6,6.12-2.88,7.56.17.35.55.54.92.69,1.37.53,2.66.45,4.09.55,1.82.13,1.71,0,2.36,1.92,1.01,2.98,1.57,6.12,1.65,9.27"/>
    <path class="cls-3" d="m19.82,47.24c2.31,11.4,3.89,22.96,4.73,34.56"/>
    <path class="cls-3" d="m23.92,47.58c1.33,12.61-.2,25.3.46,37.94.29,5.61,1.13,11.19,2.32,16.7s2.46,11.34,1.27,17.02"/>
    <path class="cls-3" d="m28.68,46.58c1.08,6.9,2.16,13.84,1.98,20.82-.06,2.42-.28,4.83-.36,7.25-.6,16.75,4.9,33.51,2.51,50.1"/>
    <path class="cls-3" d="m34.97,136.54c-2.1-6.11-1.26-12.81-.08-19.16s2.7-12.8,1.87-19.21"/>
    <path class="cls-3" d="m39.4,97.17c-.78.09-1.57.17-2.35.26-1,.11-2.2.14-2.81-.66-.5-.66-.36-1.61-.07-2.39.8-2.14,2.73-4.9,5.23-3.36.66.4,1.19.98,1.71,1.55.44.47.88.96,1.15,1.54.96,2.08-.96,2.23-1.97,3.4s-.73,2.79-.71,4.29c.09,4.7.03,9.43-.77,14.07-.46,2.65-1.15,5.25-1.6,7.9-1.04,6.11-.76,12.45.82,18.45-.32-.3-1.29-.12-1.55.24-1.56,2.08-.32,2.71.41,4.54.85,2.13,1.41,4.9,1.98,7.16,1.23,4.85.41,10.14,2.21,14.8.26.68.61,1.37,1.24,1.73s1.6.19,1.84-.49c.26-.72-.36-1.42-.85-2.01-1.58-1.93-2.07-4.53-2.2-7.02s.03-5.02-.49-7.46c-.37-1.73-1.1-3.36-1.6-5.05-.22-.74-.78-2.03-.59-2.8.15-.6.94-.8,1.16-1.43.32-.93-.5-1.84-1.25-2.49"/>
    <path class="cls-3" d="m43.74,166.04c.16-5.97.33-11.94.49-17.91l.24-8.95c.03-1.14-.32-3.2.11-4.24.38-.9.83-.81,1.59-1.53.6-.56.92-1.51.53-2.23-.51-.93-1.84-1.01-2.61-1.75"/>
    <path class="cls-3" d="m42.82,134.62c-.4,7.28-1.16,14.54-2.28,21.74"/>
    <path class="cls-3" d="m46.92,86.27l1.71,19.51"/>
    <path class="cls-3" d="m35.81,140.67c-2.26-7.5-5.14-14.81-8.6-21.83-4.22-8.57-9.34-16.85-11.48-26.15-1.94-8.41-1.31-17.23.29-25.71.23-1.23,1.47-5.39.42-6.42-.79-.77-4.48-.49-5.66-.75"/>
    <path class="cls-3" d="m25.75,128.37l5.81,13.23c2.48,5.64,4.97,11.33,6.3,17.34"/>
    <path class="cls-3" d="m11.82,58.57c-2.3,8.67-2.75,17.84-1.3,26.7,1.14,6.93,3.41,13.61,6.11,20.08,1.15,2.75,3.78,6.41,4.06,9.36.22,2.38-1.97,4.78-2.13,7.29-.02.26-.02.55.15.76.27.35.81.28,1.24.18.77-.19,1.54-.37,2.3-.56"/>
    <path class="cls-3" d="m10.8,59.61c2.39.5,4.78,1,7.18,1.48.81.16,1.69.32,2.42-.06,1.3-.67,1.32-2.51,1.05-3.95-.4-2.16-1.06-4.33-2.37-6.1s-3.35-3.1-5.55-3.12c-2.8-.03-7.53,2.8-8.31,5.68-.82,3.06,3.12,5.54,5.59,6.06Z"/>
    <path class="cls-3" d="m.36,48.28c-.08.4-.15.81-.07,1.21s.35.79.75.88c.29.06.59-.04.87-.14,2.44-.91,4.8-2.03,6.97-3.48.94-.63,1.92-1.45,2.01-2.58.08-1.01-.61-1.95-1.49-2.46-6.02-3.53-8.08,1.6-9.04,6.58Z"/>
    <path class="cls-3" d="m19.6,133.96c-1.01,1.26-2.24,7.89,1.18,6.03"/>
    <path class="cls-3" d="m22.5,138.52c1.04.09,2.03-.96,1.87-1.99"/>
    <path class="cls-3" d="m20.65,137.81c4.99,8.69,9.97,17.39,14.96,26.08,1.15,2,2.31,4.03,3.9,5.7"/>
    <path class="cls-3" d="m21.96,122.37c2.01,6.8,4.42,13.48,7.22,20,2.53,5.9,5.08,12.53,8.84,17.7"/>
    <path class="cls-3" d="m23.84,122.31c1.05,2.43,1.91,4.94,2.56,7.5"/>
    <path class="cls-3" d="m37.82,24.39c-1.24,1.23-2.19,2.75-2.74,4.41-.2.6-.35,1.25-.18,1.86.29,1.03,1.37,1.61,2.38,1.96.65.23,1.44.39,1.98-.04"/>
    <path class="cls-3" d="m43.74,22.05c.99.46,1.93,1.02,2.79,1.69"/>
    <path class="cls-3" d="m49.99,36.73c-.8,5.39-1.88,10.75-3.23,16.03"/>
    <path class="cls-3" d="m39.59,51.71c.63,11.52-3.63,22.68-7.83,33.43"/>
    <path class="cls-3" d="m37.46,51.57c-1.24,9.74-3.79,19.32-7.56,28.39"/>
    <path class="cls-3" d="m34.16,48.78c-.11.35-.16.76.07,1.05.13.17.33.26.53.34,2.43,1.06,5.26,1.74,7.7.71.47-.2.95-.49,1.17-.95.4-.85-.21-1.81-.83-2.52-1.27-1.47-2.39-3.13-4.42-2.48-1.58.5-3.71,2.27-4.22,3.85Z"/>
    <path class="cls-3" d="m37.35,90.25v.12c.43-4.18,1.78-8.27,3.91-11.9"/>
    <path class="cls-3" d="m35.56,76.62c-.44,5.35-.88,10.7-1.33,16.05"/>
    <path class="cls-3" d="m16.39,63.81c1.47,16.69,4.38,33.26,8.71,49.45"/>
    <path class="cls-3" d="m55.49,148.27c-1.51,1.35-1.77,2.37-1.92,4.24s-.79,3.46-1.08,5.26c-.18,1.11-.28,2.27-.82,3.26-.31.56-.74,1.04-1.05,1.6-.51.92-.62,2-.73,3.05-.11,1.03-.22,2.06-.32,3.1-.03.25.05.62.3.59.1-.01.17-.09.24-.16.61-.67.97-1.52,1.31-2.36.86-2.07,1.73-4.15,2.59-6.22.13-.31.26-.62.28-.95.02-.3-.05-.6-.1-.9-.2-1.27,0-3.64.85-4.69.54-.67,2.27-.83,2.34-1.8.02-.25-.06-.49-.14-.73-.25-.75-.49-1.5-.74-2.25-.08-.24-.18-.51-.41-.63s-.59.06-.53.31"/>
    <path class="cls-3" d="m53.41,161.92c4.74-5.3,9.05-11.26,10.77-18.16.82-3.3,1.03-6.81,2.4-9.96.41-.93,1.73-4.25,3.29-3.01,1.03.82-2.56,4.53-3.05,5.9-.76,2.11-1.01,4.37-1.41,6.58-1.55,8.45-5.51,16.43-11.3,22.77-1.19,1.3-2.54,2.58-4.24,3.01"/>
    <path class="cls-1" d="m24.02,109.93c-.14-4.53.89-9.09,2.97-13.12"/>
    <path class="cls-1" d="m54.59,18.59l.22-2.07c0,.58-.22,1.49-.22,2.07Z"/>
    <path class="cls-2" d="m69.35,27.31c1.79.05,3.43,1.18,4.48,2.63s1.61,3.2,2.07,4.94c.19.71.35,1.5,0,2.15-.27.51-.81.81-1.34,1.02-3.88,1.54-9.08-.63-11.78-3.58-3.25-3.55,3.35-7.24,6.56-7.16Z"/>
    <path class="cls-3" d="m39.51,51.41c1.57,13.16,1.89,26.48.94,39.7"/>
    <path class="cls-3" d="m61.78,32.05c-.1.55-.07,1.11.02,1.66.16.97.52,1.96,1.29,2.56.46.35,1.02.54,1.58.67,1.84.42,3.78.28,5.6.77,1.47.4,3.09,1.19,4.42.45.86-.48,1.3-1.49,1.34-2.47s-.28-1.93-.63-2.85c-.54-1.42-1.18-2.84-2.17-3.99-3.05-3.55-10.52-1.6-11.44,3.2Z"/>
    <path class="cls-3" d="m18.93,7.87c-.17-1.13.57-2.22,1.47-2.93s1.97-1.17,2.88-1.87c.39-.3.76-.65,1.22-.82.56-.21,1.18-.12,1.77-.02,1.41.24,2.8.56,4.17.95.43.12.86.26,1.24.49,1.17.72,1.62,2.17,1.97,3.5"/>
    <path class="cls-3" d="m23.37,13.41c.44.16.91.22,1.38.18"/>
    <path class="cls-3" d="m9.96,36.71c.68-1.11,2.18-1.34,3.48-1.35s2.73.07,3.75-.74"/>
    <path class="cls-3" d="m16.29,61.42c.27.6.28,1.3.03,1.91"/>
    <path class="cls-3" d="m45.62,61.94c.34,6.16.69,12.32,1.03,18.48"/>
    <path class="cls-3" d="m43.48,61.12c.36.37.93.39,1.45.39,1.04-.01,2.08-.02,3.12-.03.96,0,1.98-.04,2.79-.56"/>
    <path class="cls-3" d="m40.72,72.99c-.33,3.59-1.13,7.13-2.36,10.51"/>
    <path class="cls-3" d="m35.33,75.58l-.25,11.91"/>
    <path class="cls-3" d="m5.4,49.18l-.43-.35c.66,1.02,1.19,2.13,1.57,3.29"/>
    <path class="cls-3" d="m7.66,47.26l1.4,2.58"/>
    <path class="cls-3" d="m17.12,39.33l.86,3.11"/>
    <path class="cls-3" d="m19.96,119.26c-.03-.96.26-1.93.82-2.71.11-.16.25-.32.43-.39.38-.14.78.14,1.07.41,1.53,1.44,2.71,3.26,3.38,5.26-.81.39-1.71.8-2.58.58-.28-.07-.55-.2-.84-.2s-.61.23-.57.52"/>
    <path class="cls-3" d="m19.57,134.45c1.92.03,3.75,1.34,4.4,3.15-.02-.57-.67-.95-1.24-.88s-1.05.43-1.49.78c-1.03.81-2.17,1.86-2.04,3.16"/>
    <path class="cls-3" d="m20.81,139.73c.83-.23,1.56-.77,2.04-1.48"/>
    <path class="cls-3" d="m35.53,144.16c-.29.62.37,1.43,1.03,1.28.24-.06.44-.21.68-.29.42-.15.89-.05,1.33-.1s.95-.32.95-.77"/>
    <path class="cls-3" d="m44.43,129.8l-.64-.5c-1.72,1.21-3.01,3.01-3.62,5.02,1.54.89,3.59.76,5.01-.3"/>
    <path class="cls-3" d="m55.11,148.92c-.92.86-1.53,2.06-1.68,3.32-.02.17-.03.35.05.5.16.31.58.35.93.34.96-.01,2.1-.12,2.56-.96"/>
    <path class="cls-3" d="m66.93,128.29c-.18-.21-.37-.43-.43-.71-.1-.44.19-.9.57-1.14s.84-.33,1.28-.41c.61-.11,1.21-.21,1.82-.32.8-.14,1.67-.27,2.4.09.86.42,1.28,1.4,1.56,2.32.44,1.46.68,2.98.73,4.5,0,.31,0,.64-.18.9-1.44,2-6.91-4.28-7.74-5.23Z"/>
    <path class="cls-3" d="m49.96,83l.56-1.01"/>
    <path class="cls-3" d="m46.4,81.58c-.29-.28-.76-.28-1.12-.1s-.63.49-.89.8c-.59.7-1.19,1.39-1.78,2.09-.5.58-1.03,1.27-.93,2.03.02.16.07.32.18.42.16.15.41.16.63.15,2.13-.04,4.25-.38,6.28-1"/>
    <path class="cls-3" d="m31.98,84.02c-.75.99-1.18,2.23-1.21,3.47"/>
    <path class="cls-3" d="m34.46,92.17c-1.29,3.96-.04,8.24,0,12.41.03,2.95-.55,5.86-.93,8.78-.84,6.48-.66,13.09.52,19.52"/>
    <path class="cls-3" d="m40.66,97.22l-1.93.61"/>
    <path class="cls-3" d="m51.55,27.41l-.77,2.91"/>
    <path class="cls-3" d="m28.67,24.74c-.91.71-2.34.65-3.18-.15"/>
    <path class="cls-3" d="m56.73,61.77c-.43,2.62-1.02,5.21-1.76,7.76"/>
    <path class="cls-3" d="m49.45,83.34c.05-1.34.21-2.67.46-3.98-.25.96-.6,3-.46,3.98Z"/>
    <path class="cls-3" d="m51.38,103.04c-.67,2.58-.87,5.28-.6,7.93"/>
    <path class="cls-3" d="m48.42,103.72c-.09,1.04-.06,2.08.08,3.12"/>
    <path class="cls-3" d="m48.64,111.5c.19,2.44.59,4.86,1.19,7.23"/>
    <path class="cls-3" d="m22.34,137.82c3.09,6.6,6.89,12.87,11.31,18.65,3.09,4.05,6.6,8.08,7.64,13.07.07.31.12.66-.05.94-.29.46-1.05.37-1.41-.04s-.43-.99-.49-1.54"/>
    <path class="cls-1" d="m43.39,164.85c.67,1.87,1.03,4.1,2.36,5.58.25.28-.07.78-.45.8s-.71-.25-.96-.54c-.05-.06-.1-.14-.07-.21s.18,0,.13.05"/>
    <path class="cls-1" d="m35.46,139.98c.31.71.48,1.47.53,2.24"/>
    <path class="cls-1" d="m22.83,140.16l.18.52"/>
    <path class="cls-1" d="m23.73,142.74l.34,1.04"/>
    <path class="cls-1" d="m24.79,144.96l.65,1.23"/>
    <path class="cls-1" d="m27.18,148.78l.83,1.23"/>
    <path class="cls-1" d="m29.76,152.58l.69,1.21"/>
    <path class="cls-1" d="m32.18,155.34l.86,1.38"/>
    <path class="cls-1" d="m34.46,157.91l1.22,1.72"/>
    <path class="cls-1" d="m32.88,156.2c1.29,2.26,2.79,4.41,4.47,6.4"/>
    <path class="cls-1" d="m20.57,136.02l.17.69c.17.06-.35-.75-.17-.69Z"/>
    <path class="cls-1" d="m69.83,131.67c-.61.71-1.29,1.23-1.7,2.07.4-.72.99-1.49.88-2.35-.37.34-.78.83-.95,1.34,0,0,0,.02,0,.03.41-.37.72-.84.95-1.34"/>
    <path class="cls-1" d="m70.77,129.1l.13-.13"/>
    <path class="cls-1" d="m71.54,130.52l-.13-.13c.13.09,0,.04.13.13Z"/>
    <path class="cls-1" d="m72.44,132.08l.52.39"/>
    <path class="cls-1" d="m72.58,130.52c.03.1.16.17.25.12"/>
    <path class="cls-1" d="m72.7,127.94c.13.35-.38.79-.38,1.16,0,.26.15.52.38.65"/>
    <path class="cls-1" d="m69.73,127.03l.41.37"/>
    <path class="cls-1" d="m71.15,126.65l.64.4"/>
    <path class="cls-1" d="m72.57,127.03l.52,1.03"/>
    <path class="cls-1" d="m73.09,129.36c0,.2.1.4.26.52"/>
    <path class="cls-1" d="m71.41,128.71c.04.16.22.28.39.25"/>
    <path class="cls-1" d="m72.96,128.71c-.02.17.1.34.27.38"/>
    <path class="cls-1" d="m73.72,132.09l-.13-.52c.09.09.04.43.13.52Z"/>
    <path class="cls-1" d="m73.87,130.01l.13.13"/>
    <path class="cls-1" d="m53.36,165.31l.84-.98"/>
    <path class="cls-1" d="m56.38,161.85l1.04-1.42"/>
    <path class="cls-1" d="m58.97,158.36l.26-.52"/>
    <path class="cls-1" d="m60.02,156.42l.39-.78"/>
    <path class="cls-1" d="m60.91,154.74c0-.38.15-.75.4-1.03"/>
    <path class="cls-1" d="m61.8,152.53l.52-1.16"/>
    <path class="cls-1" d="m62.86,149.95l.52-1.17"/>
    <path class="cls-1" d="m38.26,162.57c-2.24-4.92-4.21-9.97-5.88-15.11,1.88,4.48,4.11,10.58,5.88,15.11Z"/>
    <path class="cls-1" d="m39.76,162.79c-1.12-2.7-2.18-5.43-3.19-8.17-.83-2.28-1.35-5.15-2.56-7.22-.41,2.28,1.05,5,1.71,7.11,1.09,3.52,2.7,7.72,4.67,10.83"/>
    <path class="cls-1" d="m23.95,128.08l-1.54-5.86c.54,1.9,1,3.96,1.54,5.86Z"/>
    <path class="cls-1" d="m25.3,128.97c-.43-1.23-.97-5.11-2.15-5.61.3,1.24.73,2.46,1.1,3.67l-1.3-4.28"/>
    <path class="cls-1" d="m29.22,138.93c.49,1.67,1.18,3.28,2.07,4.79"/>
    <path class="cls-1" d="m36.85,141.68c-.97,1.26-1.99,2.79-1.56,4.32,1.4-.47,2.79-.94,4.19-1.41.39-.13.82-.29,1.01-.66-.4-.62-.91-1.17-1.5-1.61-.61-.47-1.44-.83-2.13-.49"/>
    <path class="cls-1" d="m43.18,131.04c0-.23.38-.31.49-.11"/>
    <path class="cls-1" d="m44.49,131.29l.51.52"/>
    <path class="cls-1" d="m42.29,132.98c-.02.91,1.52-.43,1.67-.63"/>
    <path class="cls-1" d="m45.89,111.75c.06.26.49.33.63.1"/>
    <path class="cls-1" d="m47.72,111.05c-.32.04-.63-.27-.59-.59.08.1.62.71.59.59Z"/>
    <path class="cls-1" d="m46.29,108.37l1.02.31c.12.26.77-.1,1.05-.04"/>
    <path class="cls-1" d="m49.12,108.14c.23.29.39.64.45,1.01"/>
    <path class="cls-1" d="m48.62,109.94l-.52-.65c.2.35.18.86.52.65Z"/>
    <path class="cls-1" d="m37.75,95.56c-.02.14-.4.94-.26.92-.35.03-.67-.31-.63-.66"/>
    <path class="cls-1" d="m38.13,94.78h.13"/>
    <path class="cls-1" d="m38.23,93.12l.4.51"/>
    <path class="cls-1" d="m39.3,92.84c.29.18.52.46.65.77"/>
    <path class="cls-1" d="m39.43,95.96c-.45-.01-.84-.47-.78-.92"/>
    <path class="cls-1" d="m39.56,94.39c.03.1.93.31,1.02.26.04.26.19.49.41.64"/>
    <path class="cls-1" d="m37.99,91.82c.13.13.95.61,1.04.77.11.19.31.33.52.38"/>
    <path class="cls-1" d="m37.49,102.04l.05-4.53c.09,1.68.04,2.85-.05,4.53Z"/>
    <path class="cls-1" d="m39.02,97.5c-.02,3.63-.18,7.26-.48,10.88"/>
    <path class="cls-1" d="m38.09,97.51c.4,2.35.37,4.77-.08,7.12"/>
    <path class="cls-1" d="m39.32,97.76c-.11,2.24-.11,4.49,0,6.73"/>
    <path class="cls-1" d="m28.4,121.23c.02-1.35.49-2.65.75-3.98.71-3.56-.07-7.23-.85-10.77"/>
    <path class="cls-1" d="m29.42,124.34c-.41-5.38,1.85-10.89.44-16.1"/>
    <path class="cls-1" d="m33.51,132.86c-.41-4.15-.56-8.36-1.11-12.48s-.25-7.71-1.51-11.62"/>
    <path class="cls-1" d="m31.36,126.79c-.23-.65-.23-1.36-.23-2.06,0-2.95.01-5.89.02-8.84"/>
    <path class="cls-1" d="m29.9,124.2c-.12-.86,0-1.73.11-2.58.29-2.17.57-4.33.86-6.5"/>
    <path class="cls-1" d="m32.77,131.18c-.59-4.78-1.03-9.57-1.31-14.38"/>
    <path class="cls-1" d="m32.68,120.42c.19-3.82-.16-7.67-1.04-11.39"/>
    <path class="cls-1" d="m30.32,125.86c.55-3.47.92-6.97,1.12-10.48"/>
    <path class="cls-1" d="m29.39,123.52c.61-3.8.9-7.66.86-11.51"/>
    <path class="cls-1" d="m32.71,131.95c-.15-1.73-.72-3.26-.95-4.94-.52-3.74-.1-7.39-.03-11.11"/>
    <path class="cls-1" d="m29.25,122.5c-.11-3.8.03-7.62.41-11.4"/>
    <path class="cls-1" d="m33.24,132.25c-1.51-7.98.2-16.32-1.44-24.28"/>
    <path class="cls-1" d="m30.04,101.11c1.26,5.64,1.66,11.47,1.18,17.23.24-6.08-1.34-12.42-3.17-18.23"/>
    <path class="cls-1" d="m7.65,53.02c-.42.36-.67.93-.65,1.48"/>
    <path class="cls-1" d="m8.31,55.13c-.37.58-.57,1.27-.56,1.97"/>
    <path class="cls-1" d="m9.39,55.93c-.13.55-.18,1.12-.13,1.68"/>
    <path class="cls-1" d="m10.94,56.58c-.29.56-.35,1.22-.17,1.83"/>
    <path class="cls-1" d="m12.01,57.11c-.19.58-.22,1.21-.08,1.81"/>
    <path class="cls-1" d="m13.2,57.61l.13,1.56"/>
    <path class="cls-1" d="m14.67,57.62l.16,1.55"/>
    <path class="cls-1" d="m15.98,58.14l.36,1.43"/>
    <path class="cls-1" d="m17.38,58.53l.39,1.55"/>
    <path class="cls-1" d="m19.06,58.66l.25,1.17"/>
    <path class="cls-1" d="m12.7,60.45c-.66,2.2-1.08,4.46-1.26,6.75"/>
    <path class="cls-1" d="m13.85,60.32l-2.03,11.55"/>
    <path class="cls-1" d="m15.11,60.99l-2.42,11.64"/>
    <path class="cls-1" d="m16.2,60.74c-.68,4.7-1.66,9.36-2.94,13.94"/>
    <path class="cls-1" d="m12.69,60.33l-.44,3.25"/>
    <path class="cls-1" d="m14.27,60.2c-.5,1.38-.85,2.82-1.03,4.28"/>
    <path class="cls-1" d="m15.54,60.98c-.18,1.35-.43,2.69-.76,4.01"/>
    <path class="cls-1" d="m13.27,76.91c.04,1.18-.08,2.36-.37,3.5"/>
    <path class="cls-1" d="m24.55,47.52l.08,2.98"/>
    <path class="cls-1" d="m25.36,47.39c.02.99.1,1.99.23,2.97"/>
    <path class="cls-1" d="m26.35,47.13l.61,6.35"/>
    <path class="cls-1" d="m28.16,54.51c-.23-2.28-.4-4.57-.53-6.86.33,1.88.48,4.95.53,6.86Z"/>
    <path class="cls-1" d="m37.77,51.66l-.3,2.85c.19-1.25,1.04-1.85,1.23-3.1-.27,1.51.19,3.53-.07,5.04"/>
    <path class="cls-1" d="m11.66,37.04c.43,1.6.89,3.19,1.38,4.77"/>
    <path class="cls-1" d="m12.46,36.52l1.31,6.08"/>
    <path class="cls-1" d="m13.83,36.63l.99,5.71"/>
    <path class="cls-1" d="m15.02,36.24c.56,2.71,1.04,5.44,1.44,8.18"/>
    <path class="cls-1" d="m15.87,35.86c.65,3.22,1.2,6.46,1.64,9.72"/>
    <path class="cls-1" d="m11.7,35.99c.21,1.35.47,2.69.8,4.01"/>
    <path class="cls-1" d="m13.65,35.99c.23,1.42-.36,2.46-.12,3.88l-.81-3.49"/>
    <path class="cls-1" d="m14.62,36.24c.31,1.5.56,3.02.74,4.54"/>
    <path class="cls-1" d="m16.28,41.04l-.72-5.3c.21,1.3.51,4,.72,5.3Z"/>
    <path class="cls-1" d="m6.9,50.9c-.37-.55-.64-1.17-.79-1.82-.16-.23-.61.03-.49.28s.6.1.54-.17c.2.44.53,1.27.74,1.7Z"/>
    <path class="cls-1" d="m7.61,50.09l-.7-1.66c.18.52.53,1.14.7,1.66Z"/>
    <path class="cls-1" d="m4.88,46.89c-.13.22-.02.56.22.66"/>
    <path class="cls-1" d="m8.2,44.81c.02.08-.05-.07,0,0"/>
    <path class="cls-1" d="m8.87,43.76l-.13.13"/>
    <path class="cls-1" d="m7.05,42.47c-.11.02-.1.21,0,.23"/>
    <path class="cls-1" d="m6.13,45.81c-.12.13-.28-.22-.11-.23"/>
    <path class="cls-1" d="m6.28,43.76c.03.1.16.17.25.12"/>
    <path class="cls-1" d="m7.31,44.15q-.11,0,0,0"/>
    <path class="cls-1" d="m6.21,41.84c.06.18.28.28.46.22"/>
    <path class="cls-1" d="m9.52,43.64c-.09.04-.82-.45-.91-.41-.22-.07-.39-.28-.4-.51"/>
    <path class="cls-1" d="m8.22,45.7h-.39"/>
    <path class="cls-1" d="m6.79,46.48v-.13"/>
    <path class="cls-1" d="m5.76,44.41c-.02-.14.12-.27.25-.26"/>
    <path class="cls-1" d="m7.25,43.26c.07.19.18.36.32.5"/>
    <path class="cls-1" d="m7.99,45.35c-.07.06-.17-.07-.13-.15s.14-.11.23-.13"/>
    <path class="cls-1" d="m9.13,45.19v-.13"/>
    <path class="cls-1" d="m9.38,44.03c-.13-.08-.18-.26-.11-.39"/>
    <path class="cls-1" d="m7.96,42.22l-.13.02"/>
    <path class="cls-1" d="m6.41,41.95h-.26"/>
    <path class="cls-1" d="m17.68,55.42l.14-.38"/>
    <path class="cls-1" d="m18.94,54.37c-.04.09-.17.11-.24.05s-.05-.2.04-.25"/>
    <path class="cls-1" d="m17.54,52.57l-.13-.13c-.1-.03.08.23.13.13Z"/>
    <path class="cls-1" d="m16.38,50.37l.26-.13"/>
    <path class="cls-1" d="m18.58,51.92l.13.13"/>
    <path class="cls-1" d="m19.2,53.87c.01.06-.12.06-.11,0"/>
    <path class="cls-1" d="m17,53.34c-.03.17.11.35.28.37"/>
    <path class="cls-1" d="m16.51,51.14c.02-.11.21-.11.23,0"/>
    <path class="cls-1" d="m18.43,51.25c-.16.15-.06.47.16.51"/>
    <path class="cls-1" d="m17.55,56.42l.39.13"/>
    <path class="cls-1" d="m19.23,57.23c-.02.14.12.27.25.26"/>
    <path class="cls-1" d="m20.38,58.12l-.14.12"/>
    <path class="cls-1" d="m19.74,55.55v-.39c-.03.1.1.44,0,.39Z"/>
    <path class="cls-1" d="m17.51,56.34c.07.13-.27.13-.2,0"/>
    <path class="cls-1" d="m15.89,53.62c-.07.12.18.24.23.11.02-.04-.23-.07-.23-.11Z"/>
    <path class="cls-1" d="m17.56,51.29l.22-.18"/>
    <path class="cls-1" d="m19.1,45.19l.25.91"/>
    <path class="cls-1" d="m20.27,45.18l.38,1.04"/>
    <path class="cls-1" d="m21.67,44.67c.07.47.26.91.54,1.29"/>
    <path class="cls-1" d="m23.22,44.54l.39,1.42"/>
    <path class="cls-1" d="m24.26,44.28l.37,1.43"/>
    <path class="cls-1" d="m25.14,44.16l.42,1.42"/>
    <path class="cls-1" d="m26.25,43.49l.56,1.71"/>
    <path class="cls-1" d="m27.36,43.25l.31,1.28"/>
    <path class="cls-1" d="m28.16,42.6l.43,1.67"/>
    <path class="cls-1" d="m29.08,42.2l.6,1.57"/>
    <path class="cls-1" d="m30.23,41.3l.75,1.95"/>
    <path class="cls-1" d="m31.27,41.3l.52,1.17"/>
    <path class="cls-1" d="m31.78,40.01l.5,1.43"/>
    <path class="cls-1" d="m24.69,47.26c-.13.5-.18,1.03-.15,1.55"/>
    <path class="cls-1" d="m25.58,46.48l.39,3.24"/>
    <path class="cls-1" d="m27.25,50.11c-.23-1.2-.36-2.41-.38-3.63.04,1.27.13,2.39.38,3.63Z"/>
    <path class="cls-1" d="m28.76,50.37l-.39-4.03c.2,1.6.19,2.43.39,4.03Z"/>
    <path class="cls-1" d="m37.75,49.46c-.07-.15-.24-.25-.4-.23-.15.05-.14.31,0,.35"/>
    <path class="cls-1" d="m38.39,48.17c-.14-.07-.31.11-.24.25"/>
    <path class="cls-1" d="m39.18,50.64l.25-.26"/>
    <path class="cls-1" d="m39.69,48.81v.13"/>
    <path class="cls-1" d="m38.38,49.72c0-.27.17-.52.41-.65"/>
    <path class="cls-1" d="m40.09,48.16l.14.38"/>
    <path class="cls-1" d="m41.26,49.85l-.17-1.03"/>
    <path class="cls-1" d="m40.33,46.74h-.26c.09.24.01-.07.26,0Z"/>
    <path class="cls-1" d="m41.92,48.67l.13.39"/>
    <path class="cls-1" d="m42.79,50.51c-.19-.12-.33-.31-.37-.53,0,.04.37.49.37.53Z"/>
    <path class="cls-1" d="m38.76,52.85c.1.09.12-.21-.01-.18s-.16.2-.17.33c-.11,2.81-.67,5.59-1.65,8.22"/>
    <path class="cls-1" d="m39.44,55.57c.19.04.19.31.13.49-.58,2.06-1.3,4.09-2.13,6.07"/>
    <path class="cls-1" d="m28.97,60.47l-.43,5.95"/>
    <path class="cls-1" d="m28.17,73.68c-.05,2.98,0,5.96.12,8.94"/>
    <path class="cls-1" d="m19.48,63.45c.6,2.5.91,5.07.92,7.64"/>
    <path class="cls-1" d="m21.14,77.43c.06,2.92.46,5.84,1.19,8.67"/>
    <path class="cls-1" d="m22.13,67.2l.48,6.74"/>
    <path class="cls-1" d="m17.71,61.5l.51,3.5"/>
    <path class="cls-1" d="m19.09,61.89c.05,1.18.22,2.35.52,3.5"/>
    <path class="cls-1" d="m20.63,61.76l.54,4.01"/>
    <path class="cls-1" d="m14.65,40.79c.25,2.68.54,5.35.84,8.02"/>
    <path class="cls-1" d="m16.17,42.33c.38,1.76.67,3.53.88,5.32"/>
    <path class="cls-1" d="m17.77,45.19l.58,3.62"/>
    <path class="cls-1" d="m40.37,96.93c.92,4.24,1.03,8.61,1.14,12.94.17,7.18.35,14.37.52,21.55"/>
    <path class="cls-1" d="m40.51,113.87c-.11-.11.11-.29.24-.21s.16.25.17.41c.36,5.08-1.13,10.08-1.67,15.14-.64,6.06.09,12.27,2.13,18.02"/>
    <path class="cls-1" d="m47.24,136.62l-1.84,16.38c-.31,2.78-.62,5.57-.94,8.35-.14,1.2-.28,2.3-.01,3.49.03.12.84,2.23.98,1.96.92-1.84.82-4.53,1.06-6.56.31-2.62.55-5.25.71-7.88.32-5.37.32-10.76,0-16.14"/>
    <path class="cls-1" d="m50.62,162.22c1.69-9.57,2.73-19.26,3.1-28.97"/>
    <path class="cls-1" d="m51.3,162.34c2.24-9.73,3.66-19.65,4.23-29.61"/>
    <path class="cls-1" d="m44.51,158.88c0-7.73.25-15.46.72-23.18"/>
    <path class="cls-1" d="m46.28,162.24c.74-8.56.74-17.19-.02-25.76"/>
    <path class="cls-1" d="m45.61,167.95c.31-8.02,1.09-16.03,2.33-23.96"/>
    <path class="cls-1" d="m49.71,161.77c2.14-9.19,3.72-18.51,4.73-27.88"/>
    <path class="cls-1" d="m45.96,167.57c1.18-8.05,2.13-16.13,2.86-24.23"/>
    <path class="cls-1" d="m48.32,169.36c1.59-7.74,2.26-15.66,1.99-23.56"/>
    <path class="cls-1" d="m53.07,143.07c.91-4.96,1.52-9.97,1.82-15"/>
    <path class="cls-1" d="m54.95,149.15c.82-6.99,1.67-13.97,2.54-20.95"/>
    <path class="cls-1" d="m39.15,159.79c-1-5.76-2.6-11.41-4.77-16.84"/>
    <path class="cls-1" d="m25.71,122.75c2.12,5.04,4.13,10.12,6.04,15.25"/>
    <path class="cls-1" d="m24.37,121.61c3.47,6.72,6.24,13.81,8.25,21.11"/>
    <path class="cls-1" d="m27.38,122.95c2.75,5.11,3.99,10.61,5.54,16.14.87,3.09,1.71,6.18,3.16,9.03s1.85,6.33,2.98,9.34"/>
    <path class="cls-1" d="m38.65,99.96c.62,5.57.31,11.24-.91,16.71"/>
    <path class="cls-1" d="m38.33,98.69c2.36,9.05-1.95,18.47-1.75,27.82"/>
    <path class="cls-1" d="m40.6,87.27c.42,2.35.59,4.74.51,7.12"/>
    <path class="cls-1" d="m41.39,95.94c.86,2.71,1.16,5.58,1.17,8.41.01,2.26.26,4.54.56,6.76.67,4.99.96,9.83,2.07,14.79s2.36,10.25,2.15,15.5"/>
    <path class="cls-1" d="m6,33.48c.07,0,0-.13-.05-.1s-.07.11-.07.18c0,.51,0,1.02.01,1.53"/>
    <path class="cls-1" d="m7.06,33.66c-.08.61.01,1.25.26,1.81"/>
    <path class="cls-1" d="m8.11,33.4c.01.67.18,1.35.49,1.95"/>
    <path class="cls-1" d="m9.26,33.4c-.04.53.05,1.07.26,1.55"/>
    <path class="cls-1" d="m10.28,33.27c.01.5.15.99.4,1.42"/>
    <path class="cls-1" d="m11.23,33c.28.49.48,1.02.6,1.57"/>
    <path class="cls-1" d="m12.53,32.48c.32.62.56,1.29.71,1.97"/>
    <path class="cls-1" d="m13.8,32.23l.48,1.57"/>
    <path class="cls-1" d="m14.82,31.98l.51,1.43"/>
    <path class="cls-1" d="m16,32.1l.52,1.03"/>
    <path class="cls-1" d="m17.28,31.72l.39.91"/>
    <path class="cls-1" d="m18.19,30.68l.26.65"/>
    <path class="cls-1" d="m13,27.06c.12.19.31.33.53.37"/>
    <path class="cls-1" d="m14.18,26.41l.39.26"/>
    <path class="cls-1" d="m15.48,27.97l-.13.13"/>
    <path class="cls-1" d="m13.78,28.92c-.08,0-.14.12-.08.18s.19,0,.17-.09"/>
    <path class="cls-1" d="m15.47,28.6c-.27.13-.58-.32-.36-.52s.65.14.49.4"/>
    <path class="cls-1" d="m15.99,30.22c.18,0,.34-.15.37-.32"/>
    <path class="cls-1" d="m17.02,28.34l-.24.28"/>
    <path class="cls-1" d="m14.69,29.64c-.14.05-.01.32.11.24"/>
    <path class="cls-1" d="m10.24,16.94c.08-.14-.17-.29-.3-.19s-.15.29-.15.45c0,1.22.3,2.44.87,3.52"/>
    <path class="cls-1" d="m11.66,16.95c-.18,1.11.18,2.3.95,3.12"/>
    <path class="cls-1" d="m12.62,16.7c.3.9.69,1.77,1.16,2.59"/>
    <path class="cls-1" d="m13.66,16.31l1.12,2.1"/>
    <path class="cls-1" d="m14.61,15.74c.49.49.87,1.08,1.11,1.73"/>
    <path class="cls-1" d="m15.47,14.75c.78.51,1.41,1.24,1.81,2.08"/>
    <path class="cls-1" d="m16.92,13.52c.91.34,1.6,1.19,1.75,2.15"/>
    <path class="cls-1" d="m17.68,12.09c1.01.14,1.9.92,2.18,1.89"/>
    <path class="cls-1" d="m18.07,10.33c1.14.3,2.19.95,2.98,1.83"/>
    <path class="cls-1" d="m18.56,9.06c0-.23.32-.28.55-.24,1.09.21,2.04,1.02,2.43,2.05"/>
    <path class="cls-1" d="m20.9,6.72c-.19.45-.19.98.01,1.43"/>
    <path class="cls-1" d="m22.34,6.99c-.07.61-.04,1.22.1,1.82"/>
    <path class="cls-1" d="m24.66,13.59c-.54-1.59-.84-3.25-.91-4.92"/>
    <path class="cls-1" d="m24.65,8.67c.2,1.43.45,2.86.74,4.28"/>
    <path class="cls-1" d="m25.56,8.93c.09,1.36.3,2.7.62,4.02"/>
    <path class="cls-1" d="m26.53,9.43l.57,2.73"/>
    <path class="cls-1" d="m27.41,9.05l.66,2.75"/>
    <path class="cls-1" d="m28.67,9.32l.53,1.81"/>
    <path class="cls-1" d="m30.32,7.25c.18.77-.39,2.32-.21,3.1l-.52-1.94"/>
    <path class="cls-1" d="m31.25,6.34c.12.62.3,1.22.55,1.81"/>
    <path class="cls-1" d="m32.06,5.68l.51,1.17"/>
    <path class="cls-1" d="m23.99,20.44c-.22.59-.16,1.28.15,1.82"/>
    <path class="cls-1" d="m24.77,20.07c.12.83.3,1.65.54,2.46"/>
    <path class="cls-1" d="m26.57,20.33c.15.73-.5,1.85-.35,2.58-.25-.93-.43-1.89-.54-2.85"/>
    <path class="cls-1" d="m27.63,19.81c.15.88.37,1.74.66,2.59"/>
    <path class="cls-1" d="m29.06,19.81c.03.75.16,1.49.37,2.21"/>
    <path class="cls-1" d="m29.91,19.29c-.03.75.2,1.51.64,2.13"/>
    <path class="cls-1" d="m30.78,18.38c-.03.9.26,1.8.8,2.52"/>
    <path class="cls-1" d="m31.73,17.72c.15.88.46,1.73.9,2.51"/>
    <path class="cls-1" d="m32.63,16.54c.48,1.03.79,2.14.92,3.27"/>
    <path class="cls-1" d="m34.49,20.06c-.05-1.75-.48-3.49-1.26-5.06.68,1.26,1.48,3.65,1.26,5.06Z"/>
    <path class="cls-1" d="m33.36,11.52c-.09.42-.09.86,0,1.29"/>
    <path class="cls-1" d="m34.48,13.47c-.17-.55-.17-1.15-.02-1.71-.07,1.39.47,2.68.82,4.03"/>
    <path class="cls-1" d="m35.69,11.91c-.13,1.19.02,2.4.42,3.52"/>
    <path class="cls-1" d="m36.63,12.16c-.09,1.1.06,2.22.43,3.26-.2-1.07.38-2.29.42-3.38.05.97.98,2.32,1.22,3.26"/>
    <path class="cls-1" d="m39.55,15.01c.1-.96-.01-1.95-.34-2.86.5,1.09.38,1.66.34,2.86Z"/>
    <path class="cls-1" d="m41.25,11.77c.33,1.05.5,2.14.5,3.24"/>
    <path class="cls-1" d="m42.44,11.12c.29,1.36.43,2.76.42,4.15"/>
    <path class="cls-1" d="m43.45,11.25c.46.96.63,2.06.5,3.11"/>
    <path class="cls-1" d="m44.46,10.68c.49.92.7,1.99.6,3.03"/>
    <path class="cls-1" d="m46.4,13.85l-.56-3.64c.32,1.01.46,2.58.56,3.64Z"/>
    <path class="cls-1" d="m47.44,9.97c.14.85.18,1.72.15,2.59"/>
    <path class="cls-1" d="m40.58,11.78c.07.78.04,1.56-.08,2.34"/>
    <path class="cls-1" d="m48.53,10.43c1.55,1.95,4.4,2.38,6.84,1.89"/>
    <path class="cls-1" d="m45.76,3.87c-.28.74-.3,1.57-.07,2.32"/>
    <path class="cls-1" d="m46.91,4c-.33,1-.45,2.07-.35,3.12"/>
    <path class="cls-1" d="m47.73,4.66c-.41,1.42-.52,2.94-.32,4.41"/>
    <path class="cls-1" d="m48.79,5.57c-.42,1.64-.53,3.36-.34,5.05"/>
    <path class="cls-1" d="m49.68,5.83c-.46,1.95-.53,3.99-.2,5.96"/>
    <path class="cls-1" d="m50.63,6.46c-.19,1.85-.2,3.73-.03,5.58"/>
    <path class="cls-1" d="m51.64,6.6c-.28,1.71-.27,3.47.03,5.18"/>
    <path class="cls-1" d="m52.81,8.03c-.22,1.3-.14,2.65.23,3.91"/>
    <path class="cls-1" d="m53.95,7.63c-.13,1.51-.07,3.04.19,4.54"/>
    <path class="cls-1" d="m54.83,8.41l.34,3.24"/>
    <path class="cls-1" d="m55.95,7.76c-.11.92-.01,1.86.29,2.73"/>
    <path class="cls-1" d="m57.02,7.24c-.04.81.13,1.63.49,2.36"/>
    <path class="cls-1" d="m58.07,6.86c-.04.67.1,1.34.39,1.94"/>
    <path class="cls-1" d="m59.01,6.85l.39,1.42"/>
    <path class="cls-1" d="m57.18,4.66l.13-.26"/>
    <path class="cls-1" d="m57.04,3.1v-.13"/>
    <path class="cls-1" d="m58.2,4.27v.52s.04-.47,0-.52Z"/>
    <path class="cls-1" d="m42.92,9.2c-.13-.08-.18-.26-.11-.39"/>
    <path class="cls-1" d="m42.28,6.21c-.1-.04-.22.03-.25.13"/>
    <path class="cls-1" d="m41.48,8.65l.26-.26"/>
    <path class="cls-1" d="m44.37,8.43l-.26.26"/>
    <path class="cls-1" d="m43.96,7.62c-.11-.01-.18-.15-.13-.25"/>
    <path class="cls-1" d="m49.14,19.16c.63-2.46,1.04-4.97,1.23-7.5l.33.64c-.45,2.37-1.11,4.49-1.56,6.86Z"/>
    <path class="cls-1" d="m52.21,13.32c-1.09,3.33-1.85,6.77-2.26,10.25.8-3.49,2.51-7.08,3.58-10.5-.87,4.73-1.49,9.41-2.86,14.02"/>
    <path class="cls-1" d="m51.6,12.28c-.22.09-.3.35-.36.58-.76,3.05-1.52,6.11-2.29,9.16"/>
    <path class="cls-1" d="m53.09,13.61l-3.33,12.28"/>
    <path class="cls-1" d="m54.57,12.29l-.49,2.21"/>
    <path class="cls-1" d="m53.44,20.32c-.02.73-.3,1.43-.57,2.11-1.07,2.65-2.13,5.29-3.2,7.94"/>
    <path class="cls-1" d="m51.21,20.19c-.6,2.53-1.29,5.03-2.08,7.51"/>
    <path class="cls-1" d="m50.13,12.16c-.29,1.51.08,3.29-.22,4.8l.27-.61c-.23,3.81-2.18,7.27-3.14,10.96"/>
    <path class="cls-1" d="m52.38,12.55c-.02,1.22-.16,2.43-.39,3.63"/>
    <path class="cls-1" d="m54.2,13.08c-.63,1.28-1.13,2.62-1.48,4"/>
    <path class="cls-1" d="m38.48,16.57c.46,4.04.69,8.1.7,12.17"/>
    <path class="cls-1" d="m42.28,15.79l.43-.48c.19,4.35.36,8.69.5,13.04"/>
    <path class="cls-1" d="m39.39,16.43c.41,3.53.68,7.08.83,10.63"/>
    <path class="cls-1" d="m42.12,15.53l.37,11.4"/>
    <path class="cls-1" d="m39.71,16.04c.67,2.97,1.01,6.02,1.01,9.07"/>
    <path class="cls-1" d="m41.33,16.18c.1,3.63.35,7.26.73,10.87"/>
    <path class="cls-1" d="m38.41,16.32l1.07,11.51"/>
    <path class="cls-1" d="m42.17,16.69c.82,7.27,1.41,14.58,1.77,21.89"/>
    <path class="cls-1" d="m41.13,16.31c.64,5.95,1.2,11.91,1.7,17.87"/>
    <path class="cls-1" d="m40.12,16.43c.49,4.27.9,8.54,1.23,12.83"/>
    <path class="cls-1" d="m38.59,16.96l.9,9.96"/>
    <path class="cls-1" d="m42.75,17.85c.6,6.27,1.3,12.54,2.09,18.79"/>
    <path class="cls-1" d="m40.54,15.8c.1.95.24,1.9.43,2.85"/>
    <path class="cls-1" d="m41.7,15.65c.23,1.42.36,2.85.4,4.29"/>
    <path class="cls-1" d="m30.07,29.78c.02-1.55-.25-3.11-.8-4.56.43,1.92.68,2.59.8,4.56Z"/>
    <path class="cls-1" d="m30.7,24.07c.64,3.78,1.09,7.59,1.36,11.41"/>
    <path class="cls-1" d="m33.22,37.29c-.29-4.47-1.62-8.7-1.26-13.26,1.16,4.19.98,8.93,1.26,13.26Z"/>
    <path class="cls-1" d="m31.28,33.14c-.25-2.86-.6-5.71-1.05-8.55.5,3.12,1.19,5.39,1.05,8.55Z"/>
    <path class="cls-1" d="m31.62,24.08l1.29,8.81"/>
    <path class="cls-1" d="m33.09,23.43c.19,3.2.45,6.39.78,9.58"/>
    <path class="cls-1" d="m29.7,24.21c.04,1.65.21,3.3.52,4.92"/>
    <path class="cls-1" d="m31.05,23.94c.28,2.08.59,4.16.95,6.23"/>
    <path class="cls-1" d="m34.4,32.62c-.23-3.38-1.02-6.11-1.59-9.45.39,1.87.6,3.78.64,5.7.07,3.73.55,7.94.91,11.66"/>
    <path class="cls-1" d="m30.67,44.42c.39,5.47.74,10.96.44,16.44.04-1.16.45-2.22.54-3.38.13-1.78.07-3.59.11-5.37.05-2.4-.57-5.42.3-7.69,1.01,4.08.3,8.89.72,13.08"/>
    <path class="cls-1" d="m33.71,38.84c.25,1.86.66,3.98.48,5.87-.14,1.44-.5,2.47-.27,3.98"/>
    <path class="cls-1" d="m31.26,32.5l.8,5.69"/>
    <path class="cls-1" d="m32.35,45.79c.3.38.38.89.44,1.37.41,3.08.69,6.18.83,9.29"/>
    <path class="cls-1" d="m34.25,51.53v1.94"/>
    <path class="cls-1" d="m36.05,51.41c-.13-.31-.16-.67-.08-1,.41,3.34.33,6.75-.25,10.06"/>
    <path class="cls-1" d="m16.04,22.13c-.04-.15.16-.27.3-.22s.23.2.3.33c.45.87.79,1.79,1.01,2.75"/>
    <path class="cls-1" d="m18.91,26.43c-.55-1.6-1.1-3.2-1.65-4.8-.08-.24-.17-.49-.31-.7.09.18.83-.43.9-.25.99,2.42,1.99,4.85,2.98,7.27"/>
    <path class="cls-1" d="m18.15,18.85c.99,1.63,1.95,2.83,2.65,4.65.84,2.17,1.64,4.36,2.38,6.56"/>
    <path class="cls-1" d="m15.88,21.09l.75,1.7"/>
    <path class="cls-1" d="m18.76,20.04c1.67,4.04,3.29,8.22,4.32,12.46-.64-4.67-1.34-9.5-3.8-13.52"/>
    <path class="cls-1" d="m20.52,35.21l.54,2.2"/>
    <path class="cls-1" d="m24.71,32.22c.38.81.51,1.73.35,2.61"/>
    <path class="cls-1" d="m21.36,32.88l.42,2.99c-.07-.52-.34-2.47-.42-2.99Z"/>
    <path class="cls-1" d="m42.14,41.43l.8,5.05"/>
    <path class="cls-1" d="m44.25,50.75l-1.38-10.48c.64,5.03,1.84,9.69,2.15,14.75"/>
    <path class="cls-1" d="m46.42,60.73h.26"/>
    <path class="cls-1" d="m47.83,60.72l.14-.52"/>
    <path class="cls-1" d="m47.59,58.91l.26.13"/>
    <path class="cls-1" d="m48.75,60.34c-.04-.1.03-.22.13-.25"/>
    <path class="cls-1" d="m49.92,59.56v-.26"/>
    <path class="cls-1" d="m48.62,57.88l.13-.13"/>
    <path class="cls-1" d="m49.53,57.35c.17-.02.34.1.38.27"/>
    <path class="cls-1" d="m50.85,58.52v-.26"/>
    <path class="cls-1" d="m50.02,59.3v.26"/>
    <path class="cls-1" d="m46.89,66.95l-.55-5.45c-.1,1.91.2,3.57.55,5.45Z"/>
    <path class="cls-1" d="m48.66,61.38c-.3,2.67-.81,5.1-.36,7.75-.66-2.43-.86-4.99-.6-7.5"/>
    <path class="cls-1" d="m47.28,61.63c-.15,1.99-.48,4.64-.21,6.61-.34-2.14-.52-4.31-.53-6.47"/>
    <path class="cls-1" d="m48.92,70.04c-.43-2.82-.55-5.69-.36-8.54,0,3.11.02,5.45.36,8.54Z"/>
    <path class="cls-1" d="m47.87,77.04c.3,1.32.42,2.67.37,4.02"/>
    <path class="cls-1" d="m49.27,81.32c.05-1.78-.08-3.56-.38-5.31"/>
    <path class="cls-1" d="m47.04,80.92c.24-2.37.16-4.77-.25-7.12"/>
    <path class="cls-1" d="m49.07,81.97c-.27-2.43-.57-4.85-.9-7.27"/>
    <path class="cls-1" d="m42.95,89.86l1.18,11.8"/>
    <path class="cls-1" d="m44.65,88.57c.11,3.42.35,6.83.72,10.23"/>
    <path class="cls-1" d="m45.61,88.31l1.03,13.86"/>
    <path class="cls-1" d="m46.57,89.99c.43,3.97.8,7.94,1.1,11.92"/>
    <path class="cls-1" d="m42.97,64.99l.93,9.33"/>
    <path class="cls-1" d="m44.65,64.22c.52,4.39.9,8.8,1.16,13.21"/>
    <path class="cls-1" d="m43.56,72.51l.97,10.09"/>
    <path class="cls-1" d="m45.37,74.71c-.03,1.86.08,3.72.31,5.56"/>
    <path class="cls-1" d="m42.75,75.75l.64,6.72"/>
    <path class="cls-1" d="m50.72,94.41c.99-2.42,1.71-4.95,2.14-7.53"/>
    <path class="cls-1" d="m54.19,82.35l2.25-7.76"/>
    <path class="cls-1" d="m58.85,68.36l2.16-5.07"/>
    <path class="cls-1" d="m63.24,58c1.56-4.19,2.84-8.48,3.83-12.83.49-2.15.74-3.88.98-6.07"/>
    <path class="cls-1" d="m66.61,37.41c-.53,2.27-.96,4.56-1.3,6.86"/>
    <path class="cls-1" d="m67.49,38.19l-1.13,7.13"/>
    <path class="cls-1" d="m67,50.1c1.04-3.65,1.77-7.43,2.89-11.05-.08,2.7-1.04,5.79-2.22,8.21"/>
    <path class="cls-1" d="m66.79,38.18c-.64,3.66-.79,7.65-1.77,11.17"/>
    <path class="cls-1" d="m68.86,40.79c-.73,4.4-1.82,8.73-3.26,12.95"/>
    <path class="cls-1" d="m67.17,37.77c-.71,1.82-.28,3.48-.62,5.32-.39,2.16-.94,4.29-1.56,6.4"/>
    <path class="cls-1" d="m68.7,37.55c-.47,1.26-.81,2.56-1.01,3.89"/>
    <path class="cls-1" d="m69.47,41.95l1.06-3.1"/>
    <path class="cls-1" d="m54.65,16.67c-.41.8-.48,1.77-.18,2.61"/>
    <path class="cls-1" d="m55.7,16.94c-.29.74-.31,1.58-.06,2.33"/>
    <path class="cls-1" d="m56.74,16.94c-.21.82-.16,1.7.13,2.49"/>
    <path class="cls-1" d="m58.11,17.22c-.17.76-.19,1.56-.06,2.33"/>
    <path class="cls-1" d="m59.11,17.09v2.46"/>
    <path class="cls-1" d="m60.26,17.09c.13.81.18,1.64.15,2.46"/>
    <path class="cls-1" d="m61.64,17.08c.08.86.1,1.73.04,2.6"/>
    <path class="cls-1" d="m62.59,17.09c.15.81.2,1.64.15,2.46"/>
    <path class="cls-1" d="m63.63,16.83l.43,2.58"/>
    <path class="cls-1" d="m65.04,16.71c.33.91.52,1.87.56,2.84"/>
    <path class="cls-1" d="m66.24,16.44c.34.81.47,1.71.38,2.59"/>
    <path class="cls-1" d="m67.2,15.76c.46.92.66,1.98.56,3.01"/>
    <path class="cls-1" d="m68.21,14.61c.56,1.21.78,2.57.65,3.89"/>
    <path class="cls-1" d="m69.25,13.83c.59,1.24.79,2.67.57,4.03"/>
    <path class="cls-1" d="m65.07,12.81h.13"/>
    <path class="cls-1" d="m64.81,14.89l.26-.13"/>
    <path class="cls-1" d="m66.64,13.33c0,.07.09.11.14.07s.03-.14-.04-.16"/>
    <path class="cls-1" d="m66.5,11.91c-.07.14.11.31.25.24"/>
    <path class="cls-1" d="m67.38,13.98l.15.64c-.13-.08-.22-.51-.15-.64Z"/>
    <path class="cls-1" d="m63.8,15.16l.24-.4"/>
    <path class="cls-1" d="m64.29,12.42l.13-.13"/>
    <path class="cls-1" d="m55.36,15.02h-.13"/>
    <path class="cls-1" d="m56.64,12.53c-.07.04-.06-.14,0-.09"/>
    <path class="cls-1" d="m56.63,15.13c-.05.09-.23.04-.22-.06s.18-.14.23-.05"/>
    <path class="cls-1" d="m55.74,14.5l-.13.26"/>
    <path class="cls-1" d="m50.82,36.76l3.75.29"/>
    <path class="cls-1" d="m52.12,34.7c.03.1.16.17.25.12"/>
    <path class="cls-1" d="m53.67,34.31c0,.23.17.46.39.52"/>
    <path class="cls-1" d="m54.44,36c-.14-.07-.13-.31.02-.37"/>
    <path class="cls-1" d="m54.45,33.92v.13"/>
    <path class="cls-1" d="m55.49,35.73c-.11-.02-.1-.21,0-.23,0-.13,0,.36,0,.23Z"/>
    <path class="cls-1" d="m55.24,33.17c-.25.13-.12.61.17.58s.34-.51.07-.6"/>
    <path class="cls-1" d="m55.88,34.48c-.09,0-.16.12-.11.2s.18.08.23,0c-.07-.04-.19-.17-.12-.21Z"/>
    <path class="cls-1" d="m57.69,33.78c0,.1-.19.12-.21.02.03-.26.07-.52.1-.78"/>
    <path class="cls-1" d="m57.43,30.81c.04.09-.6.81-.56.9-.03.13-.22-.1-.09-.11"/>
    <path class="cls-1" d="m58.35,33.02c-.06.13-.01.31.12.39"/>
    <path class="cls-1" d="m58.59,34.57c-.1-.03-.17-.16-.12-.25"/>
    <path class="cls-1" d="m58.2,31.72c.34-.3.96-.12,1.08.31s-.3.92-.74.85-.71-.66-.46-1.03"/>
    <path class="cls-1" d="m55.18,30.68c0,.09-.13.13-.19.07s.02-.19.1-.17"/>
    <path class="cls-1" d="m55.1,32.24c.22-.05.44.2.37.41s-.39.28-.54.12-.05-.48.17-.53"/>
    <path class="cls-1" d="m55.99,31.58l.26-.52"/>
    <path class="cls-1" d="m57.07,32.12c-.15.48-.08,1.02.18,1.44"/>
    <path class="cls-1" d="m57.7,34.98l-.25.14"/>
    <path class="cls-1" d="m35.92,29.38c-.28.9-.2,1.91.21,2.76-.29-1.05-.83-1.86-.21-2.76Z"/>
    <path class="cls-1" d="m37.63,28.61c-.35,1.22-.47,2.5-.35,3.76-.52-1.53-.33-2.29.35-3.76Z"/>
    <path class="cls-1" d="m38.65,30.3c-.36.72-.48,1.55-.34,2.34.69,3.92.25,7.95.15,11.93"/>
    <path class="cls-1" d="m46.89,44.66c.28-1.77.62-3.54,1.01-5.29-.61,2.61-.51,5.89-.93,8.54"/>
    <path class="cls-1" d="m30.57,81.55c.96-2.38,2.08-4.7,3.35-6.94"/>
    <path class="cls-1" d="m30.51,83.23c1.53-3.59,3.09-7.25,3.53-11.13"/>
    <path class="cls-1" d="m34.73,73.28c-1.1,3.89-2.49,7.7-4.17,11.38,1.86-2.96,3.54-7.94,4.17-11.38Z"/>
    <path class="cls-1" d="m30.44,79.35l3.47-7.33"/>
    <path class="cls-1" d="m23.75,115.25c-1.02-2.36-2.08-4.7-3.17-7.02"/>
    <path class="cls-1" d="m18.48,104.61c-1.33-3.38-2.6-6.78-3.82-10.21"/>
    <path class="cls-1" d="m25.93,113.43c-.2-4.99-.98-9.95-2.34-14.75"/>
    <path class="cls-1" d="m26.01,115.1l-3.55-18.48"/>
    <path class="cls-1" d="m27.9,117.7c-.11-2.52-.29-5.04-.52-7.56-.12-1.26-.25-2.51-.39-3.77-.09-.82.03-2.95-.47-3.59-1.73-2.19-.85,2.7-.77,3.34.31,2.53.57,5.07.71,7.62.07,1.3.11,2.63-.29,3.87"/>
    <path class="cls-1" d="m25.47,115.37c-.27-5.49-1.1-10.96-2.48-16.28"/>
    <path class="cls-1" d="m27.36,117.44c-.32-5.55-1-11.08-2.03-16.55"/>
    <path class="cls-1" d="m27.51,119.13c.33-6.24-.11-12.51-1.33-18.64"/>
    <path class="cls-1" d="m52.36,37.4c.25,2.32.24,4.68-.03,7"/>
    <path class="cls-1" d="m53.26,37.42c-.02,3.89-.11,7.77-.28,11.66"/>
    <path class="cls-1" d="m54.19,37.68c-.24,4.32-.63,8.64-1.16,12.93"/>
    <path class="cls-1" d="m53.9,50.49c.33-3.14.66-6.29.98-9.43.1-.96.2-1.92.21-2.88.74,1.61.52,4.05.23,5.8-.31,1.91-1.12,4.6-1.43,6.51Z"/>
    <path class="cls-1" d="m51.73,37.29c.26,1.41.4,2.84.39,4.27"/>
    <path class="cls-1" d="m53.92,37.03c-.05,1.77-.72,3.41-.77,5.18.04-1.82-.09-3.64-.37-5.44"/>
    <path class="cls-1" d="m54.58,42.34l.28-5.18c-.11,1.94-.17,3.24-.28,5.18Z"/>
    <path class="cls-1" d="m55.94,37.29c.07,2.25-.06,4.5-.38,6.73"/>
    <path class="cls-1" d="m55.61,41.95c0,4.43-1.53,8.43-2.03,12.81"/>
    <path class="cls-1" d="m48.94,70.45c.24-1.33.42-2.68.53-4.03-.32,1.68-.21,2.35-.53,4.03Z"/>
    <path class="cls-1" d="m51.1,65.52c-.73,2.97-1.2,6.01-1.43,9.06"/>
    <path class="cls-1" d="m50.24,79.63c.22-4.63.88-9.23,1.98-13.73"/>
    <path class="cls-1" d="m28.19,20.57c.49.86.86,1.78,1.11,2.74"/>
    <path class="cls-1" d="m63.26,33.53c-.07.52-.03,1.05.11,1.56"/>
    <path class="cls-1" d="m64.3,33.92l.35,1.82"/>
    <path class="cls-1" d="m65.77,33.91l.24,1.82"/>
    <path class="cls-1" d="m67.14,34.7v1.42"/>
    <path class="cls-1" d="m68.18,33.92v2.33"/>
    <path class="cls-1" d="m69.28,34.04l.28,2.21"/>
    <path class="cls-1" d="m70.64,33.53c.19.89.29,1.81.3,2.72"/>
    <path class="cls-1" d="m71.81,33.4c.35.94.43,1.99.22,2.97"/>
    <path class="cls-1" d="m72.71,32.62c.58,1.29.75,2.75.5,4.14"/>
    <path class="cls-1" d="m73.83,32.26c.76,1.41.98,3.09.61,4.65"/>
    <path class="cls-1" d="m70.54,31.35c-.13.21.17.52.39.39s.09-.54-.16-.53"/>
    <path class="cls-1" d="m71.26,28.87c-.01.21.1.41.29.51"/>
    <path class="cls-1" d="m72.45,31.07v-.26"/>
    <path class="cls-1" d="m70.1,29.27l.4.38"/>
    <path class="cls-1" d="m70.25,31.2l.26-.26"/>
    <path class="cls-1" d="m72.06,30.42l.13.13"/>
    <path class="cls-1" d="m72.58,31.59l-.13.26"/>
    <path class="cls-1" d="m71.02,33.14v-.39"/>
    <path class="cls-1" d="m70.11,30.3c.22.14.38.38.41.64"/>
    <path class="cls-1" d="m68.92,37.93c.07,1.53-.16,3.07-.66,4.52"/>
    <path class="cls-1" d="m59.12,25.76l-.15-4.67c.12,1.85.22,2.81.15,4.67Z"/>
    <path class="cls-1" d="m60.46,27.7c.1-2.07.06-4.15-.12-6.22.4,2.26.45,3.94.12,6.22Z"/>
    <path class="cls-1" d="m61.93,27.7c.16-2.33.09-4.68-.22-6.99.51,1.52,1.04,3.31.95,4.92-.06,1.08-.67.99-.73,2.07Z"/>
    <path class="cls-1" d="m63.07,20.96c.44,2.48.48,5.02.13,7.52"/>
    <path class="cls-1" d="m59.51,21.23c-.01,1.34-.1,2.68-.27,4.01"/>
    <path class="cls-1" d="m60.77,25.76c.13-1.64.08-3.3-.15-4.93.38,1.52.34,3.37.15,4.93Z"/>
    <path class="cls-1" d="m62.58,20.84c.19,1.89.29,3.79.3,5.69"/>
    <path class="cls-1" d="m61.1,21.62l.19,3.5"/>
    <path class="cls-1" d="m60.41,20.32v3.88"/>
    <path class="cls-1" d="m59.59,25.12c.04-1.6-.09-3.21-.39-4.79-.06,1.43.14,3.38.39,4.79Z"/>
    <path class="cls-1" d="m60.83,20.06c.25,1.45.32,2.94.21,4.41"/>
    <path class="cls-1" d="m62.89,29.78c.33-2.84.32-5.71-.02-8.55"/>
    <path class="cls-1" d="m60.68,20.71l.42,11.52"/>
    <path class="cls-1" d="m59.8,21.1c-.1,3.15-.09,6.31.03,9.46"/>
    <path class="cls-1" d="m62.17,23.69l-.05,6.86"/>
    <path class="cls-1" d="m59.2,24.21l.41,5.57"/>
    <path class="cls-1" d="m60.14,32.62c-.02,2.89.04,5.79.16,8.68"/>
    <path class="cls-1" d="m61.24,42.73c.21-3.98.42-8.01-.38-11.91"/>
    <path class="cls-1" d="m59.34,56.19l.41-6.47c-.27,3.76-.89,7.12-1.13,10.88"/>
    <path class="cls-1" d="m60.87,48.16c-.43,2.7-.67,5.43-.74,8.17"/>
    <path class="cls-1" d="m62.6,50.76l.3,1.03c-.18-3.49-.36-6.99-.54-10.48"/>
    <path class="cls-1" d="m61.53,55.15c.29-3.71.21-7.44-.23-11.13"/>
    <path class="cls-1" d="m59.73,58.78c.77-4.09.81-8.32.14-12.42"/>
    <path class="cls-1" d="m57.13,65.9c1.2-5.96,1.83-12.04,1.9-18.12"/>
    <path class="cls-1" d="m59.97,57.23c1.53-4.49.36-9.38.25-14.12"/>
    <path class="cls-1" d="m61.84,52.31c.62-2.49.71-5.12.26-7.64"/>
    <path class="cls-1" d="m63.37,49.85c.13-1.59.18-3.19.15-4.79"/>
    <path class="cls-1" d="m80.14,55.78c.19.46.06.99-.07,1.47-.46,1.68-.93,3.35-1.39,5.03"/>
    <path class="cls-1" d="m81.08,55.66c-.68,2.83-1.26,5.69-1.73,8.56"/>
    <path class="cls-1" d="m78.87,67.71c1.1-4.12,2.28-8.22,3.53-12.29-1.32,4.54-1.89,9.64-3.02,14.24"/>
    <path class="cls-1" d="m83.61,55.94c-.82,2.55-1.52,5.14-2.12,7.76"/>
    <path class="cls-1" d="m78.81,69.8c-1.25,2.65-2.34,5.37-3.26,8.15"/>
    <path class="cls-1" d="m74.89,78.85c-2.08,4.72-4.35,9.35-6.82,13.88"/>
    <path class="cls-1" d="m66.6,96.25c-2,5.61-3.76,11.3-5.29,17.06"/>
    <path class="cls-1" d="m61.06,109.42c-1,2.69-1.78,5.47-2.33,8.29"/>
    <path class="cls-1" d="m58.82,120.84l3.43-11.45"/>
    <path class="cls-1" d="m58.71,114.33c.59-2.65,1.43-5.26,2.48-7.76"/>
    <path class="cls-1" d="m58.81,117.95c.91-4.13,2.77-8.18,3.99-12.28"/>
    <path class="cls-1" d="m58.79,121.7l3.39-10.35"/>
    <path class="cls-1" d="m54.45,99.06v-6.86"/>
    <path class="cls-1" d="m55.43,87.4c-.2,3.07-.12,6.15.26,9.2"/>
    <path class="cls-1" d="m56.38,83.52c0,3.29.21,6.58.62,9.85"/>
    <path class="cls-1" d="m57.74,79.75c-.31,3.19-.31,6.41,0,9.6"/>
    <path class="cls-1" d="m58.49,76.53c-.14,2.93-.19,5.87-.15,8.8"/>
    <path class="cls-1" d="m59.25,73.93l.18,6.35"/>
    <path class="cls-1" d="m60.79,70.05c0,2.23-.69,4.25-.61,6.47"/>
    <path class="cls-1" d="m55.75,87.14l.36,6.99"/>
    <path class="cls-1" d="m53.25,95.43c.17,2.1.54,4.18,1.11,6.2"/>
    <path class="cls-1" d="m63.75,82.6l.14-.39"/>
    <path class="cls-1" d="m64.68,81.59c-.2,0-.19.37,0,.37"/>
    <path class="cls-1" d="m65.72,82.87l.39-.13"/>
    <path class="cls-1" d="m67.12,82.74l.13-.52"/>
    <path class="cls-1" d="m66.75,80.28l-.13.13"/>
    <path class="cls-1" d="m66.48,79.39c-.07-.04-.06.14,0,.09"/>
    <path class="cls-1" d="m66.22,81.16l.4-.25"/>
    <path class="cls-1" d="m67.79,81.83c-.04.1.03.22.13.25"/>
    <path class="cls-1" d="m46.94,85.46l.25-.27"/>
    <path class="cls-1" d="m47.19,83.37c-.07.04-.06-.14,0-.09"/>
    <path class="cls-1" d="m48.26,84.3c-.04.18.28.29.36.13"/>
    <path class="cls-1" d="m48.1,83c-.21-.06-.33-.32-.25-.52.18-.05.11.39.25.52Z"/>
    <path class="cls-1" d="m47.95,91.42c-.04-1.53-.21-3.06-.51-4.55-.08.06.33-.61.43-.58s.12.15.12.25c0,1.33-.03,3.56-.03,4.89Z"/>
    <path class="cls-1" d="m46.63,86.12c.5,1.81.31,3.43.37,5.3-.1-1.34-.34-2.66-.69-3.96-.05-.19.05-.82-.12-.72l.72,4.67c-.05-1.56-.74-3.5-1.76-4.68"/>
    <path class="cls-1" d="m47.75,86.62l.23,2.98"/>
    <path class="cls-1" d="m64.52,84.19c-.51,1.85-1.63,3.32-2.19,5.15l1.17-4.53"/>
    <path class="cls-1" d="m65.5,84.05c-.73,1.8-1.33,3.65-1.77,5.54"/>
    <path class="cls-1" d="m58.86,108.64c-.05.26-.02.53.08.77.68-4.55.76-9.3,1.89-13.71"/>
    <path class="cls-1" d="m63.62,83.9l-1.05,4.53"/>
    <path class="cls-1" d="m64.76,83.92c-.41,1.83-.93,3.63-1.57,5.4"/>
    <path class="cls-1" d="m58.67,104.62c.26-2.06.72-4.1,1.37-6.07"/>
    <path class="cls-1" d="m59.08,113.17c.49-2.57.83-5.23,1.49-7.75.68-2.58,1.02-5.25,1.02-7.91"/>
    <path class="cls-1" d="m77.34,51.39l-.35,1.05"/>
    <path class="cls-1" d="m78.14,52.7c0-.28.09-.56.27-.77-.05.52-.21.26-.27.77Z"/>
    <path class="cls-1" d="m80.72,51.66c-.21.67-.96.99-.9,1.69.06-.43.04-.88-.07-1.31"/>
    <path class="cls-1" d="m81.51,52.18v1.42"/>
    <path class="cls-1" d="m82.42,53.86v-1.55c.05.43-.05,1.12,0,1.55Z"/>
    <path class="cls-1" d="m84.19,51.92c0,.86-.04,1.73-.11,2.59"/>
    <path class="cls-1" d="m85.03,52.05c-.07.73-.06,1.48.02,2.21"/>
    <path class="cls-1" d="m86.12,52.04c.08.73.07,1.47-.03,2.2"/>
    <path class="cls-1" d="m86.97,52.18c-.07.52-.04,1.05.08,1.56"/>
    <path class="cls-1" d="m84.7,48.54c.09-.52-.32-1.08-.84-1.14.59.44.72.41.84,1.14Z"/>
    <path class="cls-1" d="m84.63,46.6l.76.66"/>
    <path class="cls-1" d="m26.48,37.15c.4-.02.79.28.88.67"/>
    <path class="cls-1" d="m26.36,35.68c1.12.19,2.1,1.04,2.45,2.12"/>
    <path class="cls-1" d="m13.42,49.21c-.19.29-.48.51-.8.63"/>
    <path class="cls-1" d="m8.07,29.9c.09-.66.37-1.3.8-1.8"/>
    <path class="cls-1" d="m39.3,5.05c-.11.02-.1.21,0,.23"/>
    <path class="cls-1" d="m64.68,30.3c-.39.25-.71.61-.91,1.03"/>
    <path class="cls-1" d="m48.25,35.47c-.04-.44.14-.9.46-1.2-.1.53-.72.73-.46,1.2Z"/>
    <path class="cls-1" d="m50.42,33.91c-.19.59-.18,1.23.02,1.82"/>
    <path class="cls-1" d="m10.94,13.46v.26"/>
    <path class="cls-1" d="m10.94,11.52h.13"/>
    <path class="cls-1" d="m10.16,14.88l-.13.13c.31-.21-.24-.08.13-.13Z"/>
    <path class="cls-1" d="m12.1,15.53l.13-.52"/>
    <path class="cls-1" d="m12.23,12.16v.13"/>
    <path class="cls-1" d="m48.84,119.78c-.48-2.24-.36-4.93-1.11-7.04.24,2.09.71,4.18,1.07,6.25-.22-1.9-.71-4.4-1.09-6.31.41,2.59.72,4.52,1.13,7.1Z"/>
    <path class="cls-1" d="m50.31,119.78c-.36-2.73-.78-5.45-1.27-8.16.63,2.95.96,5.16,1.27,8.16Z"/>
    <path class="cls-3" d="m48.71,117.71c1.08,10.1,1.02,20.32-.17,30.4"/>
    <path class="cls-3" d="m50.27,117.29c1.29,11.24-.82,22.78,1.58,33.84"/>
    <path class="cls-3" d="m41.19,96.06c1.2,5.7,1.21,11.58,1.75,17.38.55,5.93,1.65,11.81,3.29,17.54"/>
    <path class="cls-3" d="m40.17,98.03c.09,4.66-.18,9.33-.81,13.94-.68,5-1.79,9.95-2.33,14.97s-.52,10.19,1.02,15"/>
    <path class="cls-1" d="m24.32,122.1c3.06,11.28,7.36,22.22,12.78,32.58"/>
    <path class="cls-1" d="m19.49,136.35c0,.58-.22.76,0,1.29.13.33.18.69.12,1.04"/>
    <path class="cls-1" d="m20.49,137.53c-.39-.77-.64-1.62-.73-2.48.21.65.52,1.83.73,2.48Z"/>
    <path class="cls-1" d="m21.3,135.45v.39"/>
    <path class="cls-1" d="m22.85,139.72l.53,1.03"/>
    <path class="cls-1" d="m23.7,141.94c.3.78.71,1.52,1.22,2.18"/>
    <path class="cls-1" d="m25.8,145.95l1.06,2.06"/>
    <path class="cls-1" d="m28.11,149.72l1.51,2.54"/>
    <path class="cls-1" d="m69.44,132.35s.02.09.03.13c-.48-.06-.56-.72-.51-1.2,0-.07.02-.15.08-.2.02-.02.05-.02.08-.03-.79.32-1.08.3-1.16,1.15-.1-1.32,1.54-1.84,1.97-.48-.05-.11-.45-.92-.4-.98-.15.17-.67,2.59-.7,2.89"/>
    <path class="cls-1" d="m48.72,112.78c-.03-.37-.25-.66-.58-.73-.39,1.48.93,3.43,1.39,4.79.7,2.1.55,4.62.52,6.82"/>
    <path class="cls-1" d="m45.43,117.3c.56,1.36.88,2.82.97,4.29"/>
    <path class="cls-1" d="m42.79,109.16c.06,3.35-.56,6.67-.06,9.99.14.93,1.75,9.61-.03,9.05-.58-.18-1.04-9.5-1.27-10.74"/>
    <path class="cls-1" d="m41.54,145.83c-2.14-8.66-2.01-17.78.15-26.43"/>
    <path class="cls-1" d="m41.31,129.62c.04-4.49-.02-8.98-.16-13.46"/>
    <path class="cls-1" d="m42.8,128.57l-1.73-18.23"/>
    <path class="cls-1" d="m43.75,128.71c-.78-6.23-1.32-12.49-1.61-18.76"/>
    <path class="cls-1" d="m18.44,79.38c-.72-2.74-1.78-5.39-3.13-7.88"/>
    <path class="cls-1" d="m15.88,67.57c.27.31.48.67.61,1.06"/>
    <path class="cls-1" d="m15.61,71.08l1.54,3.11"/>
    <path class="cls-1" d="m15.86,67.98l.77,1.94"/>
    <path class="cls-1" d="m15.67,70.39c.6.93,1.13,1.9,1.6,2.9"/>
    <path class="cls-1" d="m15.6,71.86l1.33,2.83"/>
    <path class="cls-1" d="m16.07,67.09l.71,1.39"/>
    <path class="cls-1" d="m15.79,69.3c.33.92.79,1.78,1.37,2.56"/>
    <path class="cls-1" d="m15.67,72.21c.46.85.86,1.73,1.19,2.64"/>
    <path class="cls-1" d="m7.29,47.91c.06.73.3,1.44.69,2.06"/>
    <path class="cls-1" d="m6.15,48.3c-.02-.12.03-.26.12-.34.24.95.54,1.89.92,2.8"/>
    <path class="cls-1" d="m18.34,84.29c-.78-3.12-.67-6.51-1.38-9.72.46,2.41.41,4.85.86,7.26"/>
    <path class="cls-1" d="m15.72,71.99c.96,4.27,1.88,8.41,2.47,12.74.31,2.29.82,4.63,2.14,6.53"/>
    <path class="cls-1" d="m41.59,71.79c.23.17.53.25.82.21"/>
    <path class="cls-1" d="m41.11,70.93l1.42.16"/>
    <path class="cls-1" d="m40.96,69.72c.5.18,1.06.22,1.58.1"/>
    <path class="cls-1" d="m40.59,68.38c.51.14,1.04.17,1.56.11"/>
    <path class="cls-1" d="m40.61,66.9c.49.2,1.04.23,1.55.08"/>
    <path class="cls-1" d="m40.72,65.89c.39.07.8.04,1.18-.08"/>
    <path class="cls-1" d="m40.45,64.57c.33-.12.7-.15,1.05-.08"/>
    <path class="cls-1" d="m40.33,63.28l1.05-.17"/>
    <path class="cls-1" d="m40.33,62.23l1.05-.17"/>
    <path class="cls-1" d="m40.21,60.72c.35.07.72.04,1.04-.1"/>
    <path class="cls-1" d="m40.34,59.68c.39.07.8.03,1.17-.1"/>
    <path class="cls-1" d="m40.33,58.63c.33-.13.7-.17,1.04-.1"/>
    <path class="cls-1" d="m40.07,57.22c.37-.14.78-.17,1.17-.11"/>
    <path class="cls-1" d="m39.93,56.01c.43-.11.87-.13,1.31-.07"/>
    <path class="cls-1" d="m39.93,54.99c.29-.12.61-.15.92-.09"/>
    <path class="cls-1" d="m39.95,54.13c.15-.19.4-.29.64-.27"/>
    <path class="cls-1" d="m39.58,43.49c.15.36.76.39.95.05"/>
    <path class="cls-1" d="m39.45,42.56c.26.17.61.2.9.09"/>
    <path class="cls-1" d="m39.56,41.56h.91"/>
    <path class="cls-1" d="m39.43,40.41l1.03.14"/>
    <path class="cls-1" d="m39.95,39.49l.26-.13"/>
    <path class="cls-1" d="m24.13,85.1c.44.22.95.3,1.44.22"/>
    <path class="cls-1" d="m24.15,84.29h1.42"/>
    <path class="cls-1" d="m24.13,82.78c.5.16,1.04.24,1.57.22"/>
    <path class="cls-1" d="m24.13,81.24c.56.15,1.13.25,1.7.32"/>
    <path class="cls-1" d="m24.14,80.08c.56.1,1.13.12,1.69.06"/>
    <path class="cls-1" d="m24.14,79.02l1.56.2"/>
    <path class="cls-1" d="m24,77.6c.51.16,1.04.27,1.57.34"/>
    <path class="cls-1" d="m24.15,76.01c.5.16,1.02.26,1.55.3"/>
    <path class="cls-1" d="m24.41,74.84l1.29.28"/>
    <path class="cls-1" d="m24.53,73.3l1.42.53"/>
    <path class="cls-1" d="m24.52,71.9l1.17.37"/>
    <path class="cls-1" d="m24.66,70.69c.4,0,.8.09,1.17.26"/>
    <path class="cls-1" d="m24.67,69.25l1.15.31"/>
    <path class="cls-1" d="m24.8,68.08l1.16.16"/>
    <path class="cls-1" d="m24.53,66.92l.91-.13"/>
    <path class="cls-1" d="m51.87,78.84c.34.14.3,1.03.64,1.17-.22-.04-.41-.18-.53-.37"/>
    <path class="cls-1" d="m52.64,77.95c.26.24.57.42.91.52"/>
    <path class="cls-1" d="m54.19,77.69c-.56-.2-1.07-.56-1.43-1.03.34.22,1.09.81,1.43,1.03Z"/>
    <path class="cls-1" d="m53.42,74.97c.28.28.64.47,1.03.53"/>
    <path class="cls-1" d="m53.8,73.94c.3.25.66.42,1.04.51"/>
    <path class="cls-1" d="m54.05,72.92l.91.51"/>
    <path class="cls-1" d="m55.62,72.51l-1.16-.65c.26.13.91.52,1.16.65Z"/>
    <path class="cls-1" d="m55.61,69.8c.39.22.29,1.04.67,1.26-.22-.19-.51-.31-.8-.34"/>
    <path class="cls-1" d="m55.88,69l1.03.65"/>
    <path class="cls-1" d="m56.37,68.13c.27.22.59.39.92.49-.3-.17-.34-1.13-.64-1.3.34.09,1.08-.62,1.42-.53"/>
    <path class="cls-1" d="m57.43,65.64l.77.16"/>
    <path class="cls-1" d="m57.82,64.35c.28-.13.6-.17.91-.13"/>
    <path class="cls-1" d="m69.12,84.88l.74.46"/>
    <path class="cls-1" d="m69.99,82.74c.39.13.22,1.02.51,1.31l-.78-.38"/>
    <path class="cls-1" d="m70.38,81.45l1.16.66"/>
    <path class="cls-1" d="m71.02,80.42l1.04.9"/>
    <path class="cls-1" d="m71.29,79.37c.29.29.64.52,1.02.67"/>
    <path class="cls-1" d="m72.06,77.56c.38.23.14,1.19.52,1.41-.36-.02-.71-.21-.92-.49"/>
    <path class="cls-1" d="m73.61,77.32c-.44-.17-.84-.44-1.16-.8.37.06.86.58,1.16.8Z"/>
    <path class="cls-1" d="m73.25,74.79l1.01.45c-.3-.37-.18-1.31-.64-1.45.3.17,1.25-.42,1.55-.25"/>
    <path class="cls-1" d="m74.79,71.96c.37.17.72.4,1.02.68"/>
    <path class="cls-1" d="m75.07,70.99c.17-.15.44-.16.63-.04"/>
    <path class="cls-1" d="m39.43,35.71c.38.11.77.16,1.16.16"/>
    <path class="cls-1" d="m39.42,34.71c.27.18.65.18.91,0"/>
    <path class="cls-1" d="m39.04,33.41c.51.13,1.04.17,1.56.12"/>
    <path class="cls-1" d="m39.3,32.23c.39-.01.79.04,1.16.16"/>
    <path class="cls-1" d="m39.3,31.34c.39-.06.8-.02,1.17.12"/>
    <path class="cls-1" d="m11.97,87.01h-.91"/>
    <path class="cls-1" d="m10.42,85.72c.52-.05,1.05,0,1.55.14"/>
    <path class="cls-1" d="m10.17,84.4c.5.13,1.03.18,1.55.15"/>
    <path class="cls-1" d="m10.03,83.25l1.42.06"/>
    <path class="cls-1" d="m9.38,81.96h1.68"/>
    <path class="cls-1" d="m9.77,80.93h1.29"/>
    <path class="cls-1" d="m9.77,79.76c.39,0,.78.04,1.16.16"/>
    <path class="cls-1" d="m9.64,78.73h1.17"/>
    <path class="cls-1" d="m9.64,77.82h1.29"/>
    <path class="cls-1" d="m10.03,76.66c.31-.04.62,0,.9.13"/>
    <path class="cls-1" d="m9.9,75.5l1.17-.12"/>
    <path class="cls-1" d="m21.79,117.34l.26.26"/>
    <path class="cls-1" d="m22.85,119.78v-.13"/>
    <path class="cls-1" d="m20.91,119.65l.26-.39"/>
    <path class="cls-1" d="m22.85,121.23c-.27-.06.09-1.25.27-1.46v-.13"/>
    <path class="cls-1" d="m21.69,118.87l-.13.13"/>
    <path class="cls-1" d="m22.6,118.61c-.02.14.12.27.25.26"/>
    <path class="cls-1" d="m21.82,120.81l-.13-.13"/>
    <path class="cls-1" d="m24.02,121.2l-.13-.13c-.2,0,.11.33.13.13Z"/>
    <path class="cls-1" d="m22.22,119.27l-.13.26"/>
    <path class="cls-1" d="m22.2,120.68l.13-.26"/>
    <path class="cls-1" d="m23.89,120.16v.13"/>
    <path class="cls-1" d="m48.56,157.58c-.3,1.43-.08,2.91-.04,4.38.05,1.78.04,8.27-3,7.35s-1.8-8.13-1.44-10.34"/>
    <path class="cls-1" d="m43.82,170.66c-2.22-3.27-2.79-7.61-1.48-11.35"/>
    <path class="cls-1" d="m44.94,170.62c5.68,1.21,5.82-6.01,6.92-9.92"/>
    <path class="cls-1" d="m36.51,164.21c.93,2.56,2.82,4.77,5.21,6.08-2.06-2.09-4.76-3.18-5.21-6.08Z"/>
    <path class="cls-1" d="m43.11,169.82c-1.5-2.65-2.48-5.58-2.88-8.6"/>
    <path class="cls-1" d="m44.68,170.7l-2.05-10.85"/>
    <path class="cls-1" d="m47.85,155.87c.35,3.16.2,6.38-.42,9.5-.38,1.9-1.26,3.9-1.01,5.87,1.36-2.79,1.36-6.61,1.4-9.68.02-2.07.05-4.15.07-6.22"/>
    <path class="cls-1" d="m45.19,167.25c-.23-4.6-.23-9.21.02-13.81"/>
    <path class="cls-1" d="m43.24,150.87c-.97,1.11-1.07,2.71-1.08,4.18-.02,4.39.58,8.24,1.35,12.56-.91-4.96-.33-10.62.72-15.55-.83,4.67-.95,9.46-.36,14.17-.43-5.12-1.32-10.26-.63-15.35Z"/>
    <path class="cls-1" d="m44.78,170.5c.98-.04,1.9.09,2.82-.31.32-.14,2.33-1.68,2.17-2.04.21.46-.02,1.01-.39,1.34s-.87.49-1.35.63c-.88.27-1.84.54-2.69.18,1.43,2.19,3.9-1.87,4.47-2.87"/>
  </g>
</svg>