<?xml version="1.0" encoding="UTF-8"?>
<svg id="Layer_2" data-name="Layer 2" xmlns="http://www.w3.org/2000/svg" viewBox="0 0 258.89 121.34">
  <defs>
    <style>
      .cls-1 {
        stroke: #231f20;
      }

      .cls-1, .cls-2, .cls-3 {
        stroke-miterlimit: 10;
      }

      .cls-1, .cls-3 {
        fill: none;
      }

      .cls-2 {
        fill: #ff0a26;
        opacity: .56;
      }

      .cls-2, .cls-3 {
        stroke: #000;
        stroke-width: .5px;
      }
    </style>
  </defs>
  <g id="Layer_1-2" data-name="Layer 1">
    <path class="cls-3" d="m80.32,100.71c3.33-19.8-1.73-40.13.06-60.13.58-6.45,1.86-12.93.97-19.35-.41-2.95-1.27-5.95-.56-8.84.61-2.5,2.35-4.59,4.35-6.2C92.31.39,102.35.19,111.58.26c26.59.19,53.18.39,79.77.58,3.59.03,7.2.05,10.75.58,3.63.54,7.19,1.59,10.52,3.13,2.5,1.15,4.94,2.63,6.59,4.83,2.3,3.06,2.78,7.08,3.08,10.9,1.91,23.96.16,48.18-4.75,71.71-.29,1.41-.66,2.92-1.77,3.83-.75.62-1.73.86-2.68,1.09-6.42,1.55-12.85,3.11-19.27,4.66"/>
    <path class="cls-3" d="m175.16,86.27c-4.37-.88-8.8,1.73-11.59,5.2-3.71,4.61-5.3,10.87-4.22,16.69.42,2.26,1.23,4.47,2.55,6.35,2.11,3,5.45,5.02,9.02,5.88,4.61,1.11,9.66.32,13.69-2.18s7-6.68,7.99-11.32c.98-4.59,0-9.56-2.63-13.45s-6.89-6.63-11.52-7.42c-4.27-.73-9.33.58-11.3,4.44"/>
    <path class="cls-3" d="m180.86,98.05c-1.07-1.05-2.33-1.89-3.71-2.47-.71-.3-1.49-.53-2.24-.39-1.33.24-2.21,1.53-2.71,2.79-1.15,2.91-1.04,6.46.9,8.92.6.76,1.4,1.42,2.35,1.61,1.04.2,2.12-.19,2.99-.81,1.61-1.14,2.63-3.06,2.68-5.03s-.89-3.94-2.44-5.15"/>
    <path class="cls-3" d="m81.92,100.6c25.33,2.23,50.83,2.42,76.19.56"/>
    <path class="cls-3" d="m53.57,85.35c-.6-1.78-3.23-1.33-4.93-.51-2.91,1.39-5.88,2.82-8.23,5.03-3.58,3.36-5.4,8.23-6.12,13.08-.26,1.77-.39,3.6.06,5.33.39,1.52,1.22,2.89,2.19,4.12,5.13,6.47,14.96,8.66,22.36,4.98,5.13-2.55,8.22-7.38,9.63-12.78.68-2.6.39-3.74,3.02-4.8,2.87-1.16,7.17-.63,10.11-.02"/>
    <path class="cls-3" d="m54.17,95.74c-2.98-.92-6.52,1-7.38,3.99s1.13,6.5,4.14,7.3c1.04.27,2.17.25,3.14-.22,1.07-.52,1.82-1.52,2.41-2.55.82-1.44,1.4-3.16.94-4.75s-2.31-2.84-3.82-2.15"/>
    <path class="cls-3" d="m40.24,107.67c.9,1.88,2.03,3.7,3.62,5.05s3.72,2.17,5.78,1.84"/>
    <path class="cls-3" d="m45.65,108.9c-.3-.07.23-.35.46-.15.72.6,1.44,1.2,2.16,1.81"/>
    <path class="cls-3" d="m11.2,79.09c-1.95.15-5.93.76-6.83-1.61-.38-1.01.48-3.24,1.18-3.92,1.42-1.38,2.38-.69,4.48-.82,1.35-.09,2.74-.2,4.02.24s2.41,1.62,2.33,2.97c-.07,1.11-.93,2.04-1.94,2.5s-2.14.56-3.24.64Z"/>
    <path class="cls-3" d="m22.69,16.71c.75-2.44,3.15-4.27,5.7-4.36"/>
    <path class="cls-3" d="m17.54,16.28c2.4-5.4,7.97-9.25,13.88-9.59"/>
    <path class="cls-3" d="m42.87,37c-.25-.14-.57.14-.59.42s.16.55.33.79c3.48,4.9,6.96,9.8,10.44,14.69"/>
    <path class="cls-3" d="m50.89,39.49c1.76,3.13,3.74,6.13,5.92,8.98"/>
    <path class="cls-3" d="m67.52,24.02c-6.63-1.24-12.11-1.14-15.89-.81-7.46.65-10.11,2.36-10.98,3.01-2.7,1.99-4.36,5.07-5.83,8.09-5.57,11.4-8.08,18.42-9.01,22.56-.88,3.92-1.3,5.91-.59,7.16,2.16,3.82,8.59,1.71,26.56,1.78,10.87.05,17.35.86,19.77-3.08.66-1.07.67-1.94.81-4.29.77-13.47,1.5-14.67,1.44-23.41-.04-6.15-1.08-9.66-3.37-10.67-.5-.22-.36,0-2.9-.33-2.35-.3-4.21-.7-7.63-1.46-1.94-.43-2.06-.48-2.55-.58-2.28-.45-5.75-.44-10.79,1.85"/>
    <path class="cls-3" d="m89.45,27.27c.26-.17-.16-.59-.43-.42s-.28.54-.27.86c.57,15.11-.06,30.26-1.89,45.27"/>
    <path class="cls-3" d="m15.95,102.74l10.69,1.67c1.72.27,3.56.52,5.12-.25"/>
    <path class="cls-3" d="m95.68,43.25c.25-.02.02-.47-.2-.37s-.26.4-.26.65c.01,1.54.02,3.08.03,4.62"/>
    <path class="cls-3" d="m.25,86.26c.56-2.44,1.48-6.27,2.86-10.88,1.3-4.35,7.73-25.18,24.16-47.27,4.5-6.05,8.8-11.27,15.79-13.05,3.12-.79,6.38-.81,9.6-.78,9.27.09,18.53.53,27.76,1.33"/>
    <path class="cls-3" d="m51.67,84.25c1.31.13,2.61.44,3.84.93,1.45.57,2.79,1.38,4.12,2.18,2.26,1.36,4.56,2.75,6.41,4.63s3.25,4.36,3.3,7"/>
    <path class="cls-3" d="m81.94,85.68h24.98c2.11.01,4.21.02,6.32.02,20.01.01,40.03.02,60.04.03"/>
    <path class="cls-3" d="m179.18,86.37c6.41-2.5,13.55-1.72,20.42-1.54,7.08.19,14.17-.3,21.15-1.45"/>
    <path class="cls-3" d="m229.24,5.91c5.03-.5,10.11-.44,15.12.17"/>
    <path class="cls-3" d="m230.44,29.91c5.78-.05,11.57.48,17.25,1.57"/>
    <path class="cls-3" d="m232.24,51.16c1.42-.61,3.02-.8,4.54-.56"/>
    <path class="cls-3" d="m244.27,50.81c.99-.76,2.36-.72,3.61-.65,3.67.21,7.33.42,11,.63"/>
    <path class="cls-3" d="m230.12,77.98c6.69.52,13.46-.11,19.94-1.85"/>
    <path class="cls-3" d="m226.49,99.34c4.83,1.27,9.94,1.48,14.85.61"/>
    <path class="cls-3" d="m101.56,100.74l4.57-2.97"/>
    <path class="cls-3" d="m.82,84.75c-.01,1.33.59,2.58,1.2,3.76,1.59,3.08,3.34,6.13,5.78,8.6s5.63,4.34,9.09,4.57"/>
    <path class="cls-3" d="m31.12,105.04c1.01.05,2.04-.07,3.01-.37"/>
    <path class="cls-3" d="m69.51,98.36c.1-.29.04-.63-.15-.87.33,1.89.27,3.84-.18,5.7"/>
    <path class="cls-3" d="m192.26,1.82c-2.9,3.07-5.58,6.35-8.02,9.8"/>
    <path class="cls-3" d="m195.04,2.17l-6.61,8.5"/>
    <path class="cls-3" d="m198.09,2.8c-2.09,2.7-4.09,5.47-6,8.29"/>
    <path class="cls-3" d="m202.57,2.75l-5.33,7.04"/>
    <path class="cls-3" d="m205.72,3.43c-1.47,3.08-3.56,5.87-6.12,8.14"/>
    <path class="cls-3" d="m209.9,4.62l-9.06,10.3"/>
    <path class="cls-3" d="m212.34,6.14c-2.48,3.78-5.48,7.21-8.89,10.17"/>
    <path class="cls-3" d="m216.26,7.95c-2.89,5.06-6.72,9.59-11.24,13.27"/>
    <path class="cls-3" d="m220.77,10.66c-3.6,4.8-7.66,9.27-12.09,13.33"/>
    <path class="cls-3" d="m221.71,17.05c-2.84,2.91-5.58,5.92-8.22,9.03"/>
    <path class="cls-3" d="m222.19,21.48c-1.95,2.83-4.15,5.49-6.56,7.93"/>
    <path class="cls-3" d="m221.37,28.2c-1.53,1.49-2.97,3.07-4.34,4.71.31.19.75.1.96-.19"/>
    <path class="cls-3" d="m169.65,3.71c-1.18.98-2.02,2.38-2.32,3.88"/>
    <path class="cls-3" d="m175.4,3.09c-1.06,1.61-2.02,3.28-2.88,5,.56.17,1.23-.19,1.4-.75"/>
    <path class="cls-3" d="m179.64,3.1c-1.07,1.19-1.99,2.51-2.74,3.92"/>
    <path class="cls-3" d="m184.82,2.52l-3.16,5.37"/>
    <path class="cls-3" d="m188.7,3.69l-.3.3"/>
    <path class="cls-3" d="m186.89,6.11l-.6,1.21"/>
    <path class="cls-3" d="m164.9,1.05c-2.34,2.7-4.82,5.26-7.44,7.69"/>
    <path class="cls-3" d="m167.34,1.93l.45-.93c-1.85,2.5-3.71,5-5.56,7.5"/>
    <path class="cls-3" d="m173.63.91c.22-.23.67-.15.79.14-1.45,2.17-3.03,4.26-4.74,6.24"/>
    <path class="cls-3" d="m179.21.71c-2.56,2.85-4.92,5.87-7.07,9.04"/>
    <path class="cls-3" d="m184.33.38c-3.04,4.33-6.47,8.39-10.23,12.12"/>
    <path class="cls-3" d="m189.02,1.43c-3.8,5.01-7.9,9.79-12.25,14.33"/>
    <path class="cls-3" d="m189.51,21.66c-1.72,2.03-3.61,3.91-5.64,5.63"/>
    <path class="cls-3" d="m195.09,11.96c-1.64,2.22-3.51,4.26-5.57,6.08"/>
    <path class="cls-3" d="m198.34,17.42c-2.22,3.28-4.7,6.39-7.41,9.28"/>
    <path class="cls-3" d="m201.35,27.07c-3.41,3.82-7,7.48-10.75,10.97"/>
    <path class="cls-3" d="m209.41,30.1l-3.4,4.05c-.2.24-.32.73,0,.77"/>
    <path class="cls-3" d="m214.05,32.72c-1.27,1.02-2.25,2.41-2.79,3.95"/>
    <path class="cls-3" d="m219.25,35.92c-2.17,3.25-4.66,6.29-7.42,9.06"/>
    <path class="cls-3" d="m222.93,39.99c-5.62,6.95-11.49,13.7-17.61,20.22"/>
    <path class="cls-3" d="m201.31,52.36c-3.51,3.43-7.22,6.65-11.11,9.64"/>
    <path class="cls-3" d="m188.7,47.2c-3.27,3.77-6.91,7.21-10.85,10.27"/>
    <path class="cls-3" d="m176.24,22.07l-2.8,2.03"/>
    <path class="cls-3" d="m165.75,10.38c-1.16,1.32-2.42,2.55-3.76,3.68"/>
    <path class="cls-3" d="m159.32,2.93l-2.79,2.04"/>
    <path class="cls-3" d="m156.91.93c-1.7,1.98-3.59,3.8-5.63,5.43"/>
    <path class="cls-3" d="m220.97,55.56c-1.85,2.41-4.04,4.57-6.48,6.38"/>
    <path class="cls-3" d="m219.62,61.45c-.89,1.76-2.26,3.28-3.91,4.35"/>
    <path class="cls-3" d="m221.1,48.13c-.09,0,.03-.17.09-.1s.01.18-.04.26c-1.63,2.53-3.67,4.79-6.01,6.67"/>
    <path class="cls-3" d="m220.58,31.43l-2.25,2.94"/>
    <path class="cls-3" d="m219.04,14.4c-1.15,2.16-2.72,4.09-4.6,5.64"/>
    <path class="cls-3" d="m217.24,9.97c-1.59,1.49-3.06,3.12-4.39,4.86"/>
    <path class="cls-3" d="m213.62,6.76c-1.39,2.1-3.08,4.01-5,5.65"/>
    <path class="cls-3" d="m171.31,90.7c-4.22,2.67-6.92,7.61-6.87,12.61"/>
    <path class="cls-3" d="m169.91,95.42c-.63,1.21-1.07,2.52-1.28,3.87"/>
    <path class="cls-3" d="m174.67,95.89l-1.66,4"/>
    <path class="cls-3" d="m174.56,99.47c.37-1.34.93-2.63,1.66-3.81-.84,1.86-.59,2.07-1.66,3.81Z"/>
    <path class="cls-3" d="m175.81,102.12c.02.27-.26.52-.52.46.65-1.66,1.41-3.28,2.25-4.85-.81,1.43-.91,2.95-1.73,4.38Z"/>
    <path class="cls-3" d="m177.19,103.29l1.94-3.96c-.39,1.39-1.24,2.69-1.94,3.96Z"/>
    <path class="cls-3" d="m180.51,101.12l-1.3,3.38"/>
    <path class="cls-3" d="m178.39,86.58c-.65.84-1.12,1.82-1.38,2.85"/>
    <path class="cls-3" d="m178.92,89.21c.13-.85.46-1.67.96-2.37-.44.88.26,1.92-.18,2.8-.07.14-.14.31-.06.45s-.66-.73-.72-.87Z"/>
    <path class="cls-3" d="m181.88,87.64c-.52.85-.87,1.79-1.04,2.77.28-.08.52-.3.62-.57"/>
    <path class="cls-3" d="m183.47,87.62c-.5,1.24-.95,2.5-1.35,3.78"/>
    <path class="cls-3" d="m184.94,88.66l-2.36,4.55"/>
    <path class="cls-3" d="m186.15,90.06c-.68,1.73-1.53,3.4-2.53,4.97"/>
    <path class="cls-3" d="m187.34,91.66c-.62,2.11-1.52,4.14-2.66,6.02"/>
    <path class="cls-3" d="m185.46,103.7c1.51-2.26,2.81-4.66,3.87-7.17.15-.37.28-.84,0-1.12"/>
    <path class="cls-3" d="m190.32,98.47l.64.49c-1.57,3.22-3.21,6.41-4.92,9.56"/>
    <path class="cls-3" d="m192.06,101.38c-1.06,1.97-.69,4.43-1.03,6.58s-1.15,3.66-2.36,5.4"/>
    <path class="cls-3" d="m189.51,93.02l-.45-.41c-1.23,2.38-2.46,4.75-3.68,7.13"/>
    <path class="cls-3" d="m192.36,99.91c-1.5,3.94-3.55,7.67-6.09,11.03"/>
    <path class="cls-3" d="m190.53,110.97c-1.3,1.95-3.89,2.66-5.49,4.37,2.67-3.05,5.24-6.19,7.68-9.42"/>
    <path class="cls-3" d="m49.71,97.07l-1.59,3.03c.87-1.53,2.76-1.96,3.41-3.59-.19,0-.37.17-.39.37.51-.24,2.22-.48,2.73-.72-1.14,2.63-2.44,5.2-3.9,7.67"/>
    <path class="cls-3" d="m55.2,97.7c-.02-.13.21-.15.27-.04s0,.25-.06.37c-.97,1.89-1.94,3.77-2.91,5.66"/>
    <path class="cls-3" d="m57.22,98.71c-.95,2.11-1.98,4.18-3.09,6.2"/>
    <path class="cls-3" d="m50.54,101.91c.73-2.04,1.65-4,2.75-5.87-1.03,1.45-2.14,4.2-2.75,5.87Z"/>
    <path class="cls-3" d="m57.13,101.29l-2.18,4.64"/>
    <path class="cls-3" d="m54.68,98.03c-.66.79-1.17,1.7-1.51,2.68"/>
    <path class="cls-3" d="m49.18,85.06l-4.28,5.38"/>
    <path class="cls-3" d="m52.08,85.18l-3.15,4.87"/>
    <path class="cls-3" d="m53.77,85.84c-1.2,1.28-2.19,2.76-2.92,4.36"/>
    <path class="cls-3" d="m55.56,86.22l-3.21,4.83"/>
    <path class="cls-3" d="m56.89,86.98l-2.57,4.05"/>
    <path class="cls-3" d="m58.9,86.97l-3.03,4.61"/>
    <path class="cls-3" d="m60.13,88.19l-2.42,3.82"/>
    <path class="cls-3" d="m61.73,88.99l-3.21,4.43"/>
    <path class="cls-3" d="m62.39,90.44c-.97,1.27-1.85,2.62-2.61,4.02"/>
    <path class="cls-3" d="m63.03,91.87c-1.01,1.45-1.9,3-2.65,4.6"/>
    <path class="cls-3" d="m64.22,93.27c-1.07,1.52-2.03,3.13-2.85,4.81"/>
    <path class="cls-3" d="m66.03,93.87l-4.81,7.65"/>
    <path class="cls-3" d="m67.5,95.73c-1.98,2.82-3.87,5.69-5.69,8.61"/>
    <path class="cls-3" d="m69.46,96.9c-2.71,3.91-5.32,7.9-7.81,11.96"/>
    <path class="cls-3" d="m69.28,100.32c-2,3.55-4.27,6.95-6.79,10.15"/>
    <path class="cls-3" d="m68.79,103.89c-1.45,2.34-2.97,4.63-4.56,6.88"/>
    <path class="cls-3" d="m64.37,90.41c-.72.66-1.27,1.51-1.58,2.44"/>
    <path class="cls-3" d="m64.8,92.85c-.57.52-.97,1.23-1.11,2"/>
    <path class="cls-3" d="m65.22,109.16c-1.4,1.74-2.63,3.62-3.66,5.6"/>
    <path class="cls-3" d="m49.89,84.59c-.71,1.53-1.49,3.02-2.34,4.47"/>
    <path class="cls-3" d="m46.5,86.01l-1.61,2.41"/>
    <path class="cls-3" d="m203.77,2.29l-.14.17c-1.42,1.73-2.83,3.45-4.25,5.18"/>
    <path class="cls-3" d="m206.75,3.71c-1.61,1.82-3.14,3.72-4.56,5.68"/>
    <path class="cls-3" d="m208.61,4.36c-1.98,2.4-3.87,4.87-5.66,7.42"/>
    <path class="cls-3" d="m204.79,2.75c-1.96,1.8-3.54,4-4.62,6.43"/>
    <path class="cls-3" d="m215.28,6.79c-.99,1.66-2.09,3.26-3.29,4.78"/>
    <path class="cls-3" d="m217.94,9.62c-.84,2.15-2.13,4.12-3.76,5.75"/>
    <path class="cls-3" d="m221.37,13.23c-.9,2.66-2.48,5.08-4.55,6.97"/>
    <path class="cls-3" d="m221.47,19.63c-1.9,2.5-3.92,4.92-6.04,7.23"/>
    <path class="cls-3" d="m221.67,25.06c-1.6,2-3.34,3.89-5.22,5.64"/>
    <path class="cls-3" d="m214.44,14.01l-9.38,10.53"/>
    <path class="cls-3" d="m213.08,8.82c-2.21,2.73-4.57,5.35-7.06,7.84"/>
    <path class="cls-3" d="m210.01,5.56l.36-.37c-1.57,2.09-3.14,4.17-4.72,6.26"/>
    <path class="cls-3" d="m195.77,7.4l5.26-6.77c-1.65,2.5-3.61,4.27-5.26,6.77Z"/>
    <path class="cls-3" d="m196.89,1.49c-1.94,1.72-3.55,3.81-4.73,6.11"/>
    <path class="cls-3" d="m192.6,1.35c0-.13.23-.12.27,0s-.04.25-.12.36c-2.63,3.49-5.27,6.98-7.9,10.47"/>
    <path class="cls-3" d="m170.19,1.14c-1.54,1.96-3.01,3.98-4.41,6.04"/>
    <path class="cls-3" d="m201.32,6.46c-2.71,4.49-5.86,8.71-9.4,12.58"/>
    <path class="cls-3" d="m202.19,10.6c-2.08,3.2-4.53,6.16-7.29,8.8"/>
    <path class="cls-3" d="m204.8,14.62c-2.17,3.22-4.52,6.31-7.04,9.25"/>
    <path class="cls-3" d="m210.02,14.41c-2.38,3.69-5.25,7.05-8.52,9.98"/>
    <path class="cls-3" d="m212.24,22.67l-3.58,4.26"/>
    <path class="cls-3" d="m69.92,15.26c-.41.83-.99,1.58-1.68,2.19"/>
    <path class="cls-3" d="m72.28,16.07c-.84.7-1.62,1.47-2.32,2.31"/>
    <path class="cls-3" d="m74.82,15.58l-3.58,3.46"/>
    <path class="cls-3" d="m76.52,15.67l-3.91,4.55"/>
    <path class="cls-3" d="m73.6,22.62l5.12-6.56c-1.59,2.29-3.53,4.27-5.12,6.56Z"/>
    <path class="cls-3" d="m80.59,17.36c.1.14.09-.25-.06-.17s-.14.3-.24.45c-1.54,2.28-3.09,4.55-4.63,6.83"/>
    <path class="cls-3" d="m81.09,19.84c-1.49,2.66-3.2,5.2-5.1,7.58"/>
    <path class="cls-3" d="m80.77,23.3c-1.29,2.37-2.68,4.69-4.17,6.95"/>
    <path class="cls-3" d="m80.73,26.5c-1.08,1.95-2.33,3.81-3.73,5.55"/>
    <path class="cls-3" d="m80.12,30.33c-1.26,1.8-2.43,3.66-3.51,5.57"/>
    <path class="cls-3" d="m79.68,33.92l-2.32,3.61c-.06.09-.12.21-.06.3s.25-.02.17-.09"/>
    <path class="cls-3" d="m79.64,36.91l-2.38,4.04"/>
    <path class="cls-3" d="m79.08,40.56c-.75,1.05-1.4,2.18-1.94,3.36"/>
    <path class="cls-3" d="m79.08,42.97c-1.43,2.09-1.15,4.58-2.21,6.84"/>
    <path class="cls-3" d="m79.29,48.41c-.74,1.2-1.37,2.47-1.89,3.79"/>
    <path class="cls-3" d="m79.69,50.82l-2.8,4.43"/>
    <path class="cls-3" d="m79.68,54.64c.35-.7-1.06,1.01-1.41,1.4-.62.7-1.8,2.18-1.81,2.42"/>
    <path class="cls-3" d="m79.87,57.44c-.8,1.32-1.67,2.6-2.6,3.83"/>
    <path class="cls-3" d="m80.06,61.06l-2.41,3.42"/>
    <path class="cls-3" d="m80.28,63.48c-.91.72-1.71,1.58-2.36,2.55"/>
    <path class="cls-3" d="m80.3,65.49c-.41,1.14-1.07,2.19-1.91,3.06"/>
    <path class="cls-3" d="m80.23,68.06c-.5,1-1.11,1.96-1.8,2.84"/>
    <path class="cls-3" d="m80.2,71.31l-1.88,2.74"/>
    <path class="cls-3" d="m80.38,72.83c-.39,1.07-.87,2.11-1.44,3.1"/>
    <path class="cls-3" d="m80.98,75.65l-1.73,2.75"/>
    <path class="cls-3" d="m81.08,77.74c-.59,1.18-1.2,2.35-1.85,3.5"/>
    <path class="cls-3" d="m81.41,81.38c-.8,1.06-1.48,2.21-2.01,3.42"/>
    <path class="cls-3" d="m81.59,83.72l-1.82,2.82"/>
    <path class="cls-3" d="m81.55,86.42c-.74.83-1.31,1.8-1.67,2.85"/>
    <path class="cls-3" d="m82.08,88.45l-1.59,2.48"/>
    <path class="cls-3" d="m81.83,91.19c-.86,1.04-1.61,2.18-2.22,3.38"/>
    <path class="cls-3" d="m81.16,94.6l-1.68,2.83c-.27.45-.02,1.05-.48,1.3"/>
    <path class="cls-3" d="m79.82,45.47l-1.51,2.17"/>
    <path class="cls-3" d="m1.32,79.14c.79.55,1.7.93,2.64,1.12"/>
    <path class="cls-1" d="m.26,81.3l2.46.92"/>
    <path class="cls-1" d="m.12,83.35c.71.18,1.4.43,2.06.74"/>
    <path class="cls-1" d="m.81,85.95l2.18.22"/>
    <path class="cls-3" d="m1.9,88.54c.9-.11,1.82-.13,2.73-.06"/>
    <path class="cls-3" d="m3.54,90.91c.88-.5,1.86-.83,2.86-.93"/>
    <path class="cls-3" d="m5.46,93.1c.64-.76,1.49-1.34,2.44-1.65"/>
    <path class="cls-3" d="m7.37,95.41c.3-.8.95-1.47,1.75-1.79"/>
    <path class="cls-3" d="m9.39,97.31c.33-1.16.94-2.25,1.76-3.14"/>
    <path class="cls-3" d="m11.05,98.14l.91-2.81c.22-.69.55-1.48,1.25-1.67"/>
    <path class="cls-3" d="m12.54,100.04c.28-1.84.82-3.64,1.59-5.33"/>
    <path class="cls-3" d="m14.19,100.58c.22-2,.64-3.97,1.26-5.88"/>
    <path class="cls-3" d="m15.79,100.99c.2-2,.66-3.97,1.36-5.86"/>
    <path class="cls-3" d="m18.22,101.26c.33-1.7.75-3.38,1.27-5.03"/>
    <path class="cls-3" d="m20.28,102.49c.25-1.96.75-3.89,1.49-5.72"/>
    <path class="cls-3" d="m22.79,102.49c.27-1.95.75-3.88,1.43-5.73"/>
    <path class="cls-3" d="m25.19,103.71c.25-2.78.98-5.51,2.15-8.05"/>
    <path class="cls-3" d="m27.91,103.44c.18-2.45.63-4.87,1.34-7.22"/>
    <path class="cls-3" d="m29.96,103.99c.26-3.08.97-6.13,2.11-9.01"/>
    <path class="cls-3" d="m31.99,103.71c.3-2.44.8-4.86,1.47-7.22"/>
    <path class="cls-3" d="m33.21,103.85c.15-1.75.46-3.49.94-5.18"/>
    <path class="cls-3" d="m23.76,103.45c.15-1.88.46-3.75.92-5.58"/>
    <path class="cls-3" d="m20.99,103.31c.22-1.72.63-3.41,1.24-5.03"/>
    <path class="cls-3" d="m17.82,102.92c-.48-.47-.62-1.18-.67-1.85-.13-1.7.15-3.42.83-4.98"/>
    <path class="cls-3" d="m26.22,103.31c-.09-1.05.04-2.12.37-3.12"/>
    <path class="cls-3" d="m70.4,100.85c.16-1.45.2-2.9.12-4.36"/>
    <path class="cls-3" d="m71.68,101.54c.18-1.95.25-3.9.21-5.86"/>
    <path class="cls-3" d="m73.73,100.45c.14-1.81-.59-3.23-.76-5.04.11,2,.01,4.01-.28,5.99"/>
    <path class="cls-3" d="m74.57,100.85c.28-1.84.36-3.72.21-5.58"/>
    <path class="cls-3" d="m75.69,101.53c.29-1.99.51-3.99.66-5.99"/>
    <path class="cls-3" d="m77.3,101.12l.82-7.08"/>
    <path class="cls-3" d="m78.97,100.58c.39-2.29.53-4.62.39-6.94"/>
    <path class="cls-3" d="m80.48,100.31c.77-2.13.9-4.47.38-6.67"/>
    <path class="cls-3" d="m70.09,100.85l.26-2.59"/>
    <path class="cls-3" d="m83.46,100.31l.38-7.08"/>
    <path class="cls-3" d="m85,100.3c-.27-2.46-.08-4.97.55-7.37"/>
    <path class="cls-3" d="m87.1,100.44c.21-1.67.32-3.35.32-5.03"/>
    <path class="cls-3" d="m89.99,99.9c.25-2.59.56-5.18.93-7.76"/>
    <path class="cls-3" d="m92.82,100.17l.37-5.3"/>
    <path class="cls-3" d="m95.72,100.72c.18-3.23.42-6.45.71-9.68"/>
    <path class="cls-3" d="m98.71,100.04l.32-6.81"/>
    <path class="cls-3" d="m101.65,101.39c.57-2.68.89-5.42.94-8.16"/>
    <path class="cls-3" d="m105.24,100.72l.31-7.62"/>
    <path class="cls-3" d="m108.24,100.17c.12-2.73.33-5.46.62-8.18"/>
    <path class="cls-3" d="m111.08,100.71c.54-2.69.82-5.42.84-8.16"/>
    <path class="cls-3" d="m114.37,99.22c-.05-2.83.24-5.67.84-8.43"/>
    <path class="cls-3" d="m117.81,98.4c.01-2.47.25-4.94.7-7.37"/>
    <path class="cls-3" d="m120.46,99.08c.46-2.29.77-4.6.92-6.93"/>
    <path class="cls-3" d="m117.89,101.73c-.13-.04-.01.24.05.13.14-1.96.11-3.94-.09-5.9"/>
    <path class="cls-3" d="m119.71,102.35l.47-5.86"/>
    <path class="cls-3" d="m114.92,101.53c-.06-.68-.02-1.37.13-2.04"/>
    <path class="cls-3" d="m110.8,102.49c.13-1.41.07-2.84-.19-4.23"/>
    <path class="cls-3" d="m107.55,102.22c0-1.58.28-3.15.83-4.63"/>
    <path class="cls-3" d="m124.03,101.94c.28-3.81.49-7.62.62-11.44"/>
    <path class="cls-3" d="m127.18,101.66c.29-2.53.44-5.07.47-7.61"/>
    <path class="cls-3" d="m129.49,101.54l1.09-7.37"/>
    <path class="cls-3" d="m132.17,101.26l.57-4.76"/>
    <path class="cls-3" d="m134.12,101.81l.81-4.25c.04-.19.26-.43.37-.27"/>
    <path class="cls-3" d="m136.44,102.22c.66-2.64,1.11-5.33,1.35-8.04"/>
    <path class="cls-3" d="m138.83,102.09c.37-2.79.82-5.57,1.33-8.33.04-.19.08-.39.21-.53s.39-.17.5,0"/>
    <path class="cls-3" d="m141.48,102.39c.3-3.35.77-6.68,1.41-9.98.04-.2.09-.42.25-.55s.46-.09.5.11"/>
    <path class="cls-3" d="m143.85,101.54l.83-4.09c.23-1.16.49-2.37,1.26-3.26.14.02.26.13.28.27"/>
    <path class="cls-3" d="m146.24,101.81c.35-3.29,1.2-6.52,2.51-9.56"/>
    <path class="cls-3" d="m148.91,99.92l.14.47c1.49-1.81,1.39-4.48,2.62-6.48"/>
    <path class="cls-3" d="m151.46,101c.64-2.62,1.61-5.16,2.88-7.53"/>
    <path class="cls-3" d="m153.89,100.64c1.37-2.52,1.37-5.68,3.07-7.98"/>
    <path class="cls-3" d="m156.01,100.9c1.15-2.91,2.12-5.89,2.91-8.92"/>
    <path class="cls-3" d="m157.83,100.05c1.09-2.1,1.98-4.3,2.65-6.56"/>
    <path class="cls-3" d="m175.09,120.11c-.06-.01-.04.12.03.1s.09-.09.1-.15c.09-.41.19-.83.28-1.24"/>
    <path class="cls-3" d="m176.45,121.28l1.63-6.4"/>
    <path class="cls-3" d="m178.1,120.33c.72-2.24,1.32-4.53,1.8-6.83"/>
    <path class="cls-3" d="m179.71,118.96c.86-1.96,1.5-4.02,1.92-6.12"/>
    <path class="cls-3" d="m181.16,119.13c1.17-2.73,2.18-5.52,3.03-8.37.21.04.14.43-.07.4"/>
    <path class="cls-3" d="m183.57,118.17c1.41-2.79,2.53-5.72,3.34-8.74"/>
    <path class="cls-3" d="m185.8,116.7c1.04-1.96,1.94-3.98,2.71-6.06"/>
    <path class="cls-3" d="m187.73,115.55l2.49-5.43"/>
    <path class="cls-3" d="m50.23,118.55l2.44-3.54"/>
    <path class="cls-3" d="m52.52,118.41c.42-1.36,1-2.68,1.72-3.91"/>
    <path class="cls-3" d="m53.9,118.13l2.72-4.96c.5-.92,1.02-1.88,1.02-2.92"/>
    <path class="cls-3" d="m56.37,116.65l4.16-9.01"/>
    <path class="cls-3" d="m58.17,116.11c.91-2.52,2-4.98,3.27-7.35"/>
    <path class="cls-3" d="m59.21,116.5l2.7-5.32"/>
    <path class="cls-3" d="m61.34,115.19l2.77-5.49"/>
    <path class="cls-3" d="m192.64,100.98c.64-1.25,1.23-2.52,1.77-3.81"/>
    <path class="cls-3" d="m194.21,100.9c1.15-1.44,2.06-3.07,2.7-4.8"/>
    <path class="cls-3" d="m196.84,99.44c1.92-2.54,3.44-5.39,4.49-8.4"/>
    <path class="cls-3" d="m199.48,98.42c1.71-2.77,3.24-5.64,4.6-8.6"/>
    <path class="cls-3" d="m201.08,98.8c1.72-2.52,3.28-5.16,4.66-7.88"/>
    <path class="cls-3" d="m202.8,98.88c2.19-2.12,3.96-4.66,5.19-7.44"/>
    <path class="cls-3" d="m206.45,96.54c1.29-1.45,2.51-2.95,3.65-4.52"/>
    <path class="cls-3" d="m208.38,96.82l5.1-7.4"/>
    <path class="cls-3" d="m210.53,96.4c1.74-1.72,3.21-3.72,4.31-5.9"/>
    <path class="cls-3" d="m212.69,95.97c1.15-1.14,2.13-2.45,2.92-3.86"/>
    <circle class="cls-2" cx="137.23" cy="47.64" r="15.88"/>
    <path class="cls-3" d="m123.11,40.22c-2.83,3.9-3.94,9.08-2.63,13.72.37,1.3.92,2.55,1.74,3.62,1.72,2.23,4.47,3.42,7.21,4.08,5.32,1.28,11.15.82,15.96-1.81s8.44-7.52,9.04-12.96-2.13-11.25-6.96-13.83c-1.95-1.05-4.15-1.56-6.33-1.89-5.66-.87-12.02-.4-16.22,3.5-2.73,2.54-4.17,6.25-4.5,9.97s.36,7.45,1.37,11.04c.43,1.52.93,3.07,1.92,4.3,1.55,1.95,4.06,2.86,6.51,3.3,5.32.97,11.04.07,15.59-2.84,7.56-4.83,10.63-14.69,6.32-22.75-3.24-6.05-10.25-5.98-16.26-4.98-5.02.84-9.74,3.37-12.77,7.53Z"/>
    <path class="cls-3" d="m137.18,54.54c0-3.81-.54-7.62-1.6-11.28-.06-.22-.16-.47-.37-.55-.19-.07-.4.02-.57.11-4.48,2.45-4.61,8.16-4.5,12.49"/>
    <path class="cls-3" d="m140.11,43.51c.2,3.6.47,7.2.8,10.79"/>
    <path class="cls-3" d="m144.94,43.98l-.52-.66c-.04,8.1-.04,16.21-.02,24.31"/>
    <path class="cls-3" d="m151.74,65.33c.21-7,.11-14.01-.31-21.01,0-.21.38-.25.42-.04-.26-.04-1.26.4-1.13.17.91-1.65,3.32-2.12,4.93-1.13s2.33,3.09,1.96,4.94-1.69,3.42-3.3,4.4c-.99.61-2.43.96-3.22.1"/>
    <path class="cls-3" d="m145.14,44.07c-.1-.41.25-.83.66-.93s.84.03,1.22.21c2.15,1.03,3.31,3.76,2.56,6.02s-3.32,3.75-5.66,3.28"/>
    <path class="cls-3" d="m159.43,53.47c1.74,3.92,5.56-4.21,2.57-7.1-4.68-4.54-3.59,4.82-2.57,7.1Z"/>
    <path class="cls-3" d="m165.28,54.21c-.94-2.76-.83-5.85.29-8.54.39-.94,1.33-1.98,2.24-1.52.35.18.56.53.73.88,1.79,3.51,1.79,7.62,1.76,11.56"/>
    <path class="cls-3" d="m140.29,41.71c-.07-.2.06-.44.26-.5"/>
    <path class="cls-3" d="m164.37,44.98c.45,1.42.53,2.96.24,4.42"/>
    <path class="cls-3" d="m130.09,42.98c.56,3.74.69,7.54.39,11.3"/>
    <path class="cls-3" d="m172.89,56.6h.26"/>
    <path class="cls-3" d="m96.66,101.54c.14-2.23.86-4.41,2.07-6.28"/>
    <path class="cls-3" d="m100.05,101.18c-.12-1.59.2-3.21.91-4.64"/>
    <path class="cls-3" d="m104.43,99.84c.26-.23.29-.67.07-.94"/>
    <path class="cls-3" d="m121.99,102.29c-.02-2.01.29-4.03.91-5.95"/>
    <path class="cls-3" d="m126.2,101.9c-.45-.05-.79-.49-.87-.94s.03-.91.14-1.35c.31-1.22.61-2.43.92-3.65"/>
    <path class="cls-3" d="m128.77,101.16l1.21-5.56"/>
    <path class="cls-3" d="m131.08,102.49c-.32.14-.44-.42-.34-.75.43-1.42.87-2.85,1.3-4.27"/>
    <path class="cls-3" d="m132.66,102.1c.3-2.47.92-4.9,1.85-7.21"/>
    <path class="cls-3" d="m135.56,102.46c.28-2.3.91-4.55,1.85-6.67"/>
    <path class="cls-3" d="m139.6,101.17c.06-1.59.39-3.16.96-4.65"/>
    <path class="cls-3" d="m142.27,101.57c-.39-2.17.1-4.47,1.33-6.3"/>
    <path class="cls-3" d="m145.35,101.91l2.46-5.19"/>
    <path class="cls-3" d="m147.89,101.92c.08-3.02.58-6.02,1.5-8.9"/>
    <path class="cls-3" d="m99.94,102.09c.54-2.03,1.25-4.02,2.11-5.93"/>
    <path class="cls-3" d="m97.37,102.29c-.29-.18-.24-.61-.15-.94.48-1.85.95-3.69,1.43-5.54"/>
    <path class="cls-3" d="m93.63,101.92c.15-2.4.61-4.78,1.35-7.06"/>
    <path class="cls-3" d="m90.67,101.35c-.19.18-.48.25-.72.17.41-1.95,1.02-3.85,1.81-5.68"/>
    <path class="cls-3" d="m86.38,101.18c-.41-.52-.12-1.28.17-1.87.71-1.42,1.42-2.83,2.13-4.25"/>
    <path class="cls-3" d="m112.5,103.05c-.17-1.73-.17-3.48,0-5.22"/>
    <path class="cls-3" d="m116.24,101.37c-.1-1.74-.1-3.48-.01-5.21"/>
    <path class="cls-3" d="m106.55,102.3c-.05-1.63.21-3.28.76-4.82"/>
    <path class="cls-3" d="m103.54,102.66c-.22-2.32.09-4.7.91-6.88"/>
  </g>
</svg>