<?xml version="1.0" encoding="UTF-8"?>
<svg id="Layer_2" data-name="Layer 2" xmlns="http://www.w3.org/2000/svg" viewBox="0 0 288.7 187.08">
  <defs>
    <style>
      .cls-1 {
        stroke-width: .25px;
      }

      .cls-1, .cls-2 {
        fill: none;
        stroke: #231f20;
        stroke-miterlimit: 10;
      }

      .cls-2 {
        stroke-width: .5px;
      }
    </style>
  </defs>
  <g id="Layer_1-2" data-name="Layer 1">
    <path class="cls-2" d="m59.15,67.73c.95,4.63,3.52,8.75,6.07,12.73,2.3,3.59,4.64,7.19,7.55,10.31s6.45,5.77,10.52,7.04c1.83.57,3.73.86,5.62,1.15,3.43.52,6.87,1.04,10.3,1.56,3.28.5,6.58.99,9.89,1.1,5.43.17,10.87-.74,16-2.49,5.5-1.87,9.78-5.03,14.74-7.82,1.97-1.11,4.48-1.28,6.67-1.77,3.14-.7,6.26-1.44,9.38-2.21,6.24-1.55,12.44-3.23,18.61-5.05,2.1-.62,4.38-1.39,5.54-3.26-2.53-.84-5.29-.6-7.91-.13-3.87.7-7.63,1.87-11.39,3.05-6.05,1.89-12.09,3.79-18.14,5.68-.85.27-1.89.81-1.76,1.69l.5-1.02"/>
    <path class="cls-2" d="m193.64,51.51c-2.54.92-4.74,2.57-6.86,4.23-3.17,2.48-6.28,5.06-9.3,7.72,1.43-1.11,2.35-1.27,3.93-2.14,3.85-2.12,7.7-4.25,11.54-6.37"/>
    <path class="cls-2" d="m159.92,83.05c5.08-5.83,10.04-11.81,15.27-17.49-11.79,5.97-22.91,13.73-33.16,22.04"/>
    <path class="cls-2" d="m168.15,80.55l6.51-11.6c.7-1.24,1.4-2.49,2.25-3.63"/>
    <path class="cls-2" d="m179.43,77.06c-.05-4.67-1.2-8.82-2.52-13.3-.09,4.93-.62,9.84-1.58,14.68"/>
    <path class="cls-2" d="m94.67,62.9c.08,8.39,3.05,16.72,8.29,23.27s12.71,11.28,20.88,13.2"/>
    <path class="cls-2" d="m73.9,69.21c4.53-1.02,9.04-2.07,13.56-3.15,2.91-.7,5.94-1.46,8.23-3.4-2.24-.47-4.56.04-6.81.52-7.86,1.66-15.77,2.72-23.75,3.51-1.04.1-3.47-.09-3.84,1.15-.29.98,1.04,2,1.78,2.31,3.01,1.26,7.83-.26,10.83-.94Z"/>
    <path class="cls-2" d="m67.23,50.47c.79,4.27,1.63,8.54,2.54,12.79"/>
    <path class="cls-2" d="m68.55,49.5c2.63,3.64,4.99,7.48,7.04,11.48"/>
    <path class="cls-2" d="m81.41,61c-4.64-3.79-8.91-8.03-12.76-12.62,1.88,1.55,4.58,3.14,6.7,4.34,4.88,2.76,10.42,4.63,14.38,8.59"/>
    <path class="cls-2" d="m59.47,66.89c-.21-.13-.13-.44-.03-.67,2.52-5.56,5.26-11,8.24-16.33"/>
    <path class="cls-2" d="m69.66,62.9l.22,3.1"/>
    <path class="cls-2" d="m75.51,60.67c.88,1.43,2.1,2.65,3.53,3.52"/>
    <path class="cls-2" d="m81.08,60.82c1.25,1.17,2.58,2.28,3.96,3.3"/>
    <path class="cls-2" d="m65.52,80.24c2.8,4.23,5.61,8.48,8.98,12.27,9.91,11.16,24.63,17.89,39.56,18.06,13.48.16,26.95-1.37,39.28-6.81,5.73-2.53,11.32-5.56,15.97-9.76,4.48-4.04,8-9.14,10.21-14.75"/>
    <path class="cls-2" d="m188.73,138.03c-6.74-25.54-5.94-53.01,2.28-78.11,1.04-3.19,2.21-6.34,3.69-9.35,2.02-4.1,4.61-7.88,7.26-11.6"/>
    <path class="cls-2" d="m203.64,136.98c-4.95-9.54-6.35-20.49-7.07-31.22-.27-4.02-.45-8.05-.37-12.07.4-20.08,7.55-39.97,20.03-55.71"/>
    <path class="cls-2" d="m213.95,29.48c-.81,1.49.47,3.22,1.65,4.43,2.39,2.44,4.78,4.89,7.17,7.33,1.31-2.28,4.65-2.13,6.87-3.53,1.05-.66,1.83-1.66,2.81-2.41s2.36-1.23,3.45-.65c-3.16,2.91-6.33,5.82-9.49,8.73,1.7,1.86,2.84,4.23,3.24,6.71,3.07-1.83,6.26-3.46,9.54-4.87.43.45-.15,1.14-.66,1.5-2.75,1.92-5.11,4.38-6.92,7.2,3.29-1.69,6.9-2.76,10.58-3.15-3.2,2.65-6.4,5.31-9.59,7.96-.24.88.65,1.74,1.56,1.84s1.79-.3,2.63-.66,1.79-.66,2.66-.36c.18.06.36.16.48.31.34.47-.13,1.09-.56,1.49-1.03.95-2.09,1.98-2.48,3.32-.63,2.19.69,4.42,1.95,6.32,1.13-.74,2.43-1.22,3.77-1.39-1.12,1.39-2.24,2.79-3.35,4.18-.18.23-.38.51-.29.79.05.15.17.26.29.37,2.34,2.06,4.69,4.12,7.03,6.18.5-1.75,1.45-3.34,2.32-4.94,2.47-4.52,4.4-9.35,5.71-14.34,1.04-3.97,1.7-8.1,1.18-12.17-1.03-8.03-6.74-15.02-13.93-18.74-8.31-4.3-18.63-4.48-27.09-.46-.29.14-.63.35-.63.67,0,.18.1.34.2.49,2.42,3.46,7.73,4.59,9.01,8.61"/>
    <path class="cls-2" d="m216.01,8.09c1.54-1.77,3.5-3.13,5.48-4.38,1.79-1.13,3.64-2.21,5.68-2.81,2.13-.63,4.39-.7,6.61-.63,4.45.14,8.97.86,12.9,2.96s7.19,5.75,8.03,10.12c-1.72-1.25-3.45-2.5-5.17-3.75.02,1.22.03,2.44.05,3.65,0,.24,0,.51-.18.67-.13.12-.31.15-.48.17-1.02.14-2.04.28-3.06.42-.32-1.4-1.35-2.62-2.67-3.18-.8.78-1.35,1.8-1.57,2.89-1.44-.31-2.79-.97-3.92-1.91-.44.68-.74,1.46-.87,2.26-.17-.59-1.04-.62-1.55-.28s-.88.89-1.43,1.14c-1.26.58-2.61-.61-3.36-1.78s-1.58-2.58-2.97-2.68c1.46.1-2.01,7.81-2.99,8.42-1.35.85-3.12,1.32-4.61,2.27-1.11.71-2.23,1.37-3.61,1.3-6.97-.35-2.85-11.95-.29-14.88Z"/>
    <path class="cls-2" d="m198.52,16.35c-4.24-1.64-9.15-.82-13.17,1.32s-7.27,5.47-10.19,8.97c-2.36,2.82-4.57,5.81-6.08,9.17-1.62,3.6-2.4,7.51-3.16,11.38.46-1,1.52-1.69,2.61-1.71,1.21-.02,2.49.67,3.56.11,1.11-.59,1.19-2.15.98-3.4s-.53-2.65.22-3.67c.68,1.66,1.37,3.32,2.05,4.97,1.32-.34,2.63-.67,3.95-1.01.68-.17,1.44-.41,1.74-1.04.24-.5.1-1.09-.1-1.6-.96-2.46-3.37-4.48-3.19-7.11,1.9,1.3,3.35,3.24,4.05,5.43.89-.65,2.1-.83,3.14-.49-.57-2.22-.7-4.56-.38-6.83l-.02,7.71c2.24-.32,4.42-1.06,6.39-2.17.27-2.35.75-4.68,1.43-6.95,2.04,1.23,1.89,4.18,1.49,6.53,1.06-.59,2.28-.89,3.49-.85-1.28-3.38-1.72-7.07-1.28-10.66-.11,2.64.12,5.3.68,7.89,1.36-.62,3.34.96,4.28-.2.26-.33.32-.77.36-1.19.22-2.14.44-4.28.65-6.42.98,1.78,1.55,3.79,1.65,5.83,1.52-.15,6.66.93,7.63-.1,1.09-1.15-.44-3.53-1.17-4.46-2.74-3.54-7.45-7.8-11.65-9.43Z"/>
    <path class="cls-2" d="m217.4,36.79c-1.02,1.5-1.87,3.11-2.55,4.8-.18.45-.35.94-.26,1.41.09.44.4.8.61,1.19,1.07,1.95-.14,4.3-.39,6.51-.04.38-.04.8.21,1.1.22.26.57.34.89.42,2.07.48,4.14.95,6.22,1.43-2.14.5-4.11,1.67-5.58,3.31.56.68,1.56.79,2.44.72s1.78-.27,2.63-.02,1.59,1.17,1.25,1.98c-.17.41-.57.68-.98.84-.93.37-1.97.26-2.97.22s-2.07,0-2.88.59-1.14,1.91-.41,2.59c.45.42,1.13.47,1.75.49.98.04,1.96.07,2.94.11,1.01.04,2.12.12,2.83.85s.45,2.29-.56,2.34c-1.16-.3-2.35-.6-3.54-.51s-2.42.62-3.03,1.66c.89.27,1.78.54,2.66.81.45.14.96.33,1.09.78.18.63-.57,1.16-1.22,1.18s-1.31-.24-1.95-.14c-1.58.23-2.1,2.23-2.11,3.83-.02,1.69.14,3.39.46,5.05,2.22-1.48,5.26-.64,7.75-1.57,1.61-.6,2.85-1.88,4.04-3.13,3.04-3.19,6.07-6.37,9.11-9.56"/>
    <path class="cls-2" d="m178.15,44.22c-.44,2.06-.78,4.15-1.04,6.24-.05.38-.07.83.22,1.08.31.26.77.16,1.16.03,1.4-.45,2.79-.89,4.19-1.34.55-.18,1.18-.43,1.32-.99.09-.36-.06-.74-.19-1.09-.61-1.76-.44-3.79.45-5.43,1.49.57,1.2,3.23,2.72,3.74.47.16.99.05,1.45-.13,2.57-.96,4.25-3.88,3.78-6.58,1.04.58,1.67,1.8,1.55,2.98.95.07,1.59-.99,1.68-1.94s-.12-1.94.21-2.83c.98.54,1.95,1.09,2.93,1.63-.27-1.01.48-2,1.3-2.64s1.79-1.19,2.25-2.13c.21-.43.29-.91.48-1.35.33-.75.98-1.35,1.75-1.62"/>
    <path class="cls-2" d="m211.7,19.52c-1.71-4.17-4.03-8.09-6.86-11.59-1.2-1.48-2.53-2.92-4.23-3.79-1.61-.82-3.45-1.06-5.25-1.25-2.72-.28-5.45-.46-8.18-.54-1.93-.06-3.88-.06-5.76.37-1.81.41-3.5,1.22-5.17,2.02-5.63,2.69-11.51,5.57-15.15,10.64,1.78.83,3.16,2.49,3.65,4.4.91-3.31,3.22-6.22,6.24-7.86-.53,2.02-1.06,4.03-1.6,6.05-.04.16-.09.34-.03.5.07.21.28.32.48.42,1.22.59,2.49,1.04,3.81,1.36.36.08.74.16,1.08.03.7-.27.83-1.19.92-1.94.35-3.02,1.94-5.88,4.32-7.78-.54,2.44-1.08,4.87-1.62,7.31-.1.43-.17.95.13,1.27.21.22.54.28.85.27,1.66-.05,3.48-1.55,4.76-.49"/>
    <path class="cls-2" d="m254.23,12.76l11.85,4.45c2.5.94,5.02,1.89,7.25,3.35,5.16,3.38,8.3,9.26,9.5,15.31s.63,12.31-.31,18.41c-1.83-.82-3.86-1.21-5.87-1.12.1-1.91.45-3.8,1.03-5.62-.85.84-1.75,1.71-2.9,2.01s-2.61-.19-2.93-1.34c-.12-.43-.07-.89-.01-1.33.23-1.97.47-3.94.7-5.91-1.57,1.44-3.15,2.88-4.72,4.32-.98-.53-1.87-1.23-2.62-2.05,1.87-2.32,3-5.22,3.2-8.19-1.5.77-2.48,2.27-3.79,3.34s-3.39,1.65-4.59.46c-1.25-1.24-.6-3.39.39-4.86s2.31-2.95,2.16-4.71c-1.65-.93-3.66.5-4.75,2.05s-2.02,3.46-3.83,4.04c-.17.05-.35.09-.52.04-.52-.17-.42-.94-.16-1.43.92-1.73,2.38-3.09,3.57-4.64s2.15-3.48,1.78-5.4c-2.76,2.95-5.53,5.89-8.29,8.84-.35.38-.79.78-1.3.71-.73-.11-1.01-1.12-1.72-1.34-.94-.3-2.22.87-2.79.07-.26-.37-.09-.87.09-1.29,1.09-2.5,2.19-5,3.28-7.51-2.84,2.67-5.83,5.43-9.57,6.54.65-2.66.67-5.46.04-8.13-2.06,2.34-4.04,4.77-5.92,7.26-1.41-1.54-2.93-3.55-2.24-5.52-1.3,2-3.26,3.57-5.5,4.39"/>
    <path class="cls-2" d="m76.68,129.71c.71-11.63.29-23.32-1.23-34.87"/>
    <path class="cls-2" d="m62.08,130.13c1.88-12.16,1.32-24.55.76-36.85-.37-8.16-.76-16.43-3.21-24.23"/>
    <path class="cls-2" d="m55.82,43.18c2.26,7.76,3.53,15.8,3.78,23.87"/>
    <path class="cls-2" d="m65.82,38.57c2.67,9.14,4.62,18.5,5.84,27.95"/>
    <path class="cls-2" d="m39.76,81.2c.07-2.33.38-4.65.93-6.91-1.03-.54-1.99-1.22-2.85-2,.95-.61,1.1-2.15.28-2.92.95.23,2.31.2,2.47-.76.13-.75-.67-1.3-1.35-1.64-1.43-.71-2.86-1.42-4.28-2.13,1.66.32,3.35.47,5.04.44.45,0,.96-.06,1.21-.43.17-.25.17-.58.16-.89-.05-1.86-.1-3.73-.15-5.59,0-.16-.01-.33-.11-.45-.11-.15-.32-.2-.5-.24-1.25-.25-2.49-.5-3.74-.75,1.62-.25,3.23-.56,4.83-.93-1.93-1.42-3.86-2.84-5.78-4.26,2.23.05,4.46.11,6.7.16.43.01.91,0,1.25-.26.52-.41.44-1.27.03-1.8s-1.03-.82-1.61-1.16c-1.61-.94-2.95-2.34-3.83-3.98,1.77.83,3.53,1.67,5.3,2.5.3.14.61.29.94.28,1.05,0,1.5-1.31,1.74-2.33.9-3.71,3.06-7.1,6.04-9.48,2.63-2.1,6.34-5.44,9.76-5.69,4.92-.36,10.15.55,14.82,2.06,1.79-2.28,4.16-4.11,6.82-5.27-1.31,1.91-2.03,4.22-2.06,6.54l3.37-2.34c.42.39.19,1.11-.2,1.52s-.92.72-1.16,1.24c-.58,1.22.77,2.44,1.94,3.13,2.14-1.24,4.08-2.81,5.74-4.65.41-.45.82-.93,1.38-1.16s1.33-.08,1.58.47c.19.42.03.9-.15,1.32-.6,1.36-1.47,2.6-2,3.99s-.69,3.05.12,4.3c.11.17.25.34.45.37.19.03.37-.08.53-.18,1.2-.76,2.4-1.51,3.6-2.27-.64,1.43-.91,3.02-.76,4.58,1.89-1.03,3.79-2.06,5.68-3.09.43-.23.93-.47,1.38-.27.82.37.42,1.69-.33,2.19s-1.75.7-2.24,1.46c-.73,1.13.3,2.73,1.61,3.07s2.67-.17,3.92-.66c-.71,1.36-.35,3.2.84,4.15s3.11.86,4.19-.23c.96-.97,1.15-2.44,1.29-3.8.37-3.55.74-7.2-.29-10.62-.74-2.46-2.17-4.65-3.63-6.76-1.59-2.29-3.26-4.57-5.41-6.34-4.25-3.5-9.96-4.7-15.46-4.98-5.21-.26-10.52.21-15.41,2.03s-9.35,5.05-12.08,9.49"/>
    <path class="cls-2" d="m37.85,80.59c-7.33-5.75-13.48-13.46-15.62-22.53s.38-19.52,7.62-25.38c1.95-1.58,4.17-2.79,6.4-3.94,3.71-1.93,7.59-3.76,11.75-4.14s8.72.95,11.18,4.33"/>
    <path class="cls-2" d="m59.59,25.37c-1.92-3.82-7.44-6.82-6.04-11.31,1.32-4.23,4.38-8.31,8.86-9.41,1.32-.32,2.68-.38,4.04-.43,2.41-.09,4.99-.14,7.02,1.16,1.56,1,2.57,2.65,3.52,4.24.26.44.51,1.05.15,1.42-.14.14-.34.2-.53.26-.87.26-1.73.52-2.6.78,0-1.86-1.22-3.66-2.95-4.34-.29,2.3-.58,4.59-.87,6.89-.03.25-.09.54-.32.64-.2.1-.44,0-.64-.11-1.81-.97-3.38-2.35-4.58-4.02.59,2.44,1.19,4.88,1.78,7.32-1.2-.68-2.3-1.55-3.25-2.57,1.16,1.74.88,4.3-.63,5.75-.91.87-2.3,1.63-2.17,2.88"/>
    <path class="cls-2" d="m19.16,32.77c-6.5,7.03-10,16.76-9.45,26.33.02.33.89.72,1.21.67s.59-.27.84-.48c1.35-1.15,2.78-2.19,4.28-3.12-.27-1.01-.3-2.08-.1-3.11.73.08.78,1.31,1.48,1.54.43.14.88-.19,1.13-.58s.38-.84.68-1.18c.57-.65,1.69-.84,1.91-1.68"/>
    <path class="cls-2" d="m.24,32.8c2.32-8.2,7.93-15.52,15.49-19.47,1.64-.85,3.35-1.55,5.07-2.21,1.32-.5,2.67-.99,4.07-1.2,1.55-.23,3.13-.11,4.7.02,4.89.38,9.87.79,14.41,2.64,3.62,1.48,6.86,3.87,9.34,6.88"/>
    <path class="cls-2" d="m1.41,35c2.5-1.27,5.37-1.82,8.16-1.56-.29-3.09.11-6.25,1.17-9.17.26,3,.53,6.01.79,9.01,1.35-.56,2.69-1.13,4.04-1.69-1.02-2.74-.92-5.88.27-8.55.57,2.99.66,6.06.26,9.08,1.76-.98,3.04-2.76,3.41-4.74-.03,1.6-.05,3.21-.08,4.81,0,.32,0,.69.25.91.2.17.48.18.74.18.92,0,1.84.01,2.76.02.48,0,.97,0,1.41-.19.47-.21.83-.61,1.1-1.05,1.81-2.91.49-7.33,3.03-9.64-.3,2.92-.17,5.88.39,8.76.74-.51,1.69-.7,2.57-.51.45-.17.79-.62.82-1.11"/>
    <path class="cls-2" d="m55.07,34.84c-.65.73-1.33,1.52-1.46,2.49-.18,1.3.76,2.58,1.97,3.08s2.62.3,3.83-.22c3.07-1.33,4.96-4.93,4.33-8.21"/>
    <path class="cls-2" d="m48.95,40.05c-.41-.08-.51.55-.41.96.58,2.4,2.12,3.2,4.45,1.91,1.12-.62,1.94-1.73,2.21-2.98"/>
    <path class="cls-2" d="m56.58,45.62c-.61,1.21-2.26,1.56-3.54,1.13s-2.28-1.43-3.22-2.39"/>
    <path class="cls-2" d="m65.1,32.38c-.36.77.07,1.75.81,2.15s1.69.29,2.42-.14c.26-.15.51-.34.81-.33.66.02.84.96.64,1.6s-.55,1.34-.21,1.92c.86-.73,1.96-1.18,3.1-1.26-.46,1.24-.92,2.48-1.38,3.72,1.51-.48,2.8-1.61,3.49-3.04.23.82.08,1.74-.4,2.45-.36.53-.9.95-1.1,1.56-.39,1.18.64,2.31,1.57,3.13.93-.92,1.85-1.83,2.78-2.75-1.09,1.16-2.25,2.56-2,4.12.18,1.1,1.03,1.95,1.88,2.66,1.06.88,2.25,1.68,3.61,1.92s2.91-.21,3.65-1.38c.32-.51.46-1.11.59-1.7.6-2.89.84-5.86.7-8.81"/>
    <path class="cls-2" d="m61.68,24.63c.27.06-.18.46-.31.22s.09-.53.3-.71c2.18-1.96,4.38-3.92,6.85-5.5,4.4-2.81,9.51-4.28,14.08-6.81,1.49-.82,2.92-1.76,4.51-2.36,1.33-.51,2.73-.77,4.13-1.04,2.57-.49,5.15-.97,7.72-1.46,2.46-.47,4.96-.93,7.45-.72,2.22.19,4.36.91,6.56,1.18,1.48.18,2.99.16,4.42.57,1.8.52,3.34,1.69,4.83,2.83,4.43,3.41,9.12,7.18,10.67,12.55,1.33,4.59.09,9.51.49,14.28-2.46-.66-5.01-.99-7.56-.98-.07-2.43.15-4.87.68-7.25l-4.5,4.75c-.23-2.16-.24-4.35-.03-6.51-.71,1.82-2.27,3.29-4.12,3.89-.38.12-.81.21-1.18.05-.51-.23-.71-.87-.71-1.43-.01-1.58.99-2.95,1.78-4.31s1.43-3.08.68-4.46c-1.08,1.75-2.15,3.51-3.23,5.26-.36.59-.75,1.2-1.36,1.51s-1.51.16-1.77-.48c-.11-.28-.08-.6-.05-.9.36-3.33.73-6.66,1.09-9.98-1.94,2.96-3.87,5.92-5.81,8.88"/>
    <path class="cls-2" d="m62.72,118.22c-.6-.35-1.35-.21-2.02-.04-8.07,1.95-15.7,5.69-22.18,10.88-3.54,2.84-6.93,6.45-7.5,10.96-.08.6-.09,1.24.18,1.78.81,1.58,3.29,1.15,4.68,2.26,1.32,1.06,1.2,3.05,1.3,4.75.27,4.91,3.63,9.51,8.23,11.25,3.7,1.4,7.79,1.03,11.74.86s8.18,0,11.44,2.23c.48.33.96.72,1.53.83.85.18,1.69-.27,2.49-.61,2.16-.91,4.63-1.09,6.9-.5,2.87.74,5.56,2.66,8.49,2.27"/>
    <path class="cls-2" d="m150.65,164.96c-1.99-.85-4.25-.22-6.38.14-5.07.85-10.19.06-15.24-.55-2.54-.31-5.09-.59-7.66-.61-2.32-.01-4.51.65-6.81.63"/>
    <path class="cls-2" d="m152.7,164.36c-.32.4-.52.93-.36,1.41.17.52.72.83,1.26.89.03,0,.07,0,.1,0,.51.03,1.02-.1,1.51-.24,1.64-.45,5.15-.64,2.82-2.48-1.47-1.16-4.15-1.09-5.33.4Z"/>
    <path class="cls-2" d="m163.75,161.21c-1.05.64-2.1,1.46-2.48,2.63-.17.53-.18,1.13.11,1.6.46.73,1.45.88,2.32.89,1.05.02,2.1-.02,3.15-.14,1.75-.2,3.56-.64,4.85-1.84.5-.47.91-1.07,1-1.75.18-1.39-1.21-3.39-2.58-3.69-1.81-.39-4.9,1.4-6.37,2.29Z"/>
    <path class="cls-2" d="m172.17,165.19c-.09.26-.54.12-.57-.15s.2-.5.44-.63c1.32-.72,2.87.27,4.17,1.03,2.38,1.39,5.16,2.09,7.91,1.99,2.88-.1,5.81-1.04,8.59-.29,1.24.34,2.4,1.01,3.68,1.18,3.81.51,7.68-3.45,11.11-1.73,1,.5,1.74,1.42,2.72,1.96,2.17,1.21,4.86.32,7.33.54,1.63.15,3.18.79,4.78,1.13s3.43.31,4.71-.72c1.49-1.2,1.95-3.52,3.69-4.31.93-.42,2.02-.29,3.03-.13,2.74.41,5.49.88,8.26.76s5.59-.87,7.72-2.64c1.14-.95,2.16-2.21,3.61-2.5.68-.13,1.39-.03,2.07-.14,2.21-.37,3.42-2.77,5.34-3.93.3-.18.83-.23.86.12"/>
    <path class="cls-2" d="m262.75,152.19c.09-.66-.55-1.19-1.17-1.4-1.06-.36-2.51.04-2.74,1.13-.19.93.57,1.75,1.27,2.38,1.57,1.42,3.19,2.89,4.03,4.84.3.69.52,1.47,1.11,1.94.54.43,1.28.5,1.96.43,1.2-.12,2.33-.62,3.35-1.27,4.49-2.84,4.21-7.85.47-11.19-1.2-1.08-2.42-2.17-3.86-2.9-.88-.44-1.83-.75-2.62-1.34-2.4-1.78-2.71-5.65-5.36-7.04-.29-.15-.62-.28-.8-.56-.21-.32-.16-.74-.17-1.12-.03-1.07-.61-2.11-1.51-2.69-.61-.39-1.32-.58-2.02-.79-2.74-.83-5.29-2.18-7.82-3.52-.69-.37-1.41-.76-1.86-1.4-.33-.47-.48-1.04-.73-1.56-.88-1.87-3.09-3.02-5.13-2.67-.82.14-1.61.5-2.44.53-1.24.05-2.38-.62-3.45-1.23-3.64-2.08-7.49-3.81-11.47-5.14-1.19-.4-2.52-.76-3.66-.25-.59.26-1.09.75-1.72.91-1.43.37-2.69-1.02-4.11-1.41-1.36-.37-2.79.19-4.2.26-1.01.05-2.01-.14-3-.33-1.59-.31-3.17-.62-4.76-.93-.97-.19-2.27-.21-2.62.72"/>
    <path class="cls-2" d="m184.63,115.21c-2.84,1.91-6.61.85-9.99.33-8.06-1.25-16.41.97-24.39-.72-1.37-.29-2.74-.7-4.13-.58-1.86.16-3.49,1.22-5.23,1.89-6.62,2.56-14.05-.62-21.12.05-3.69.35-7.35,1.75-11.02,1.21-3.23-.48-6.24-2.44-9.49-2.16-2.32.2-4.54,1.54-6.84,1.15-1.34-.22-2.52-1.01-3.85-1.27-3.54-.69-7.39,2.45-10.56.73"/>
    <path class="cls-2" d="m91.39,163.61c-.34.78-.5,1.7-.16,2.48.22.49.61.88,1.04,1.2,2.44,1.85,5.79,1.76,8.86,1.59,1.71-.09,3.41-.19,5.12-.28,1.31-.07,2.63-.15,3.87-.58,2.16-.76,3.89-2.66,4.45-4.88.1-.4.16-.83.02-1.21-.17-.46-.61-.76-1.02-1.03-3.6-2.38-6.64-5.6-11.08-3.99-3.76,1.36-9.32,2.63-11.09,6.69Z"/>
    <path class="cls-2" d="m145.42,147.69c-.27-.2-.53-.46-.76-.8-1.59-2.35.33-4.1,2.87-3.38.61.17,1.21.56,1.44,1.16.95,2.52-1.66,4.41-3.55,3.02Z"/>
    <path class="cls-2" d="m108,156.63c-.38,0-.37-.58-.2-.93.29-.59.62-1.17.99-1.71.48-.71,1.04-1.39,1.76-1.87,1.95-1.28,4.68-.69,6.51.76s2.97,3.58,4.05,5.65c.28.54.57,1.09.61,1.69.09,1.22-.8,2.26-1.65,3.15"/>
    <path class="cls-2" d="m131.63,142.25c-1.47,1.42-2.8,2.98-3.98,4.65-.97,1.38-1.84,3.25-.9,4.65.49.73,1.37,1.11,2.24,1.22s1.75-.03,2.62-.12c2.04-.22,4.1-.24,6.14-.05,2.44.23,5.03.33,5.95-2.41.54-1.61.38-3.86-.58-5.29-1.93-2.87-8.96-5.1-11.5-2.64Z"/>
    <path class="cls-2" d="m250.59,125.04c3.68.29,7.32,1.16,10.73,2.56-.87.77-1.64,1.65-2.26,2.63-.45.7-.82,1.62-.37,2.32.62.94,2.04.58,3.13.32,3.33-.79,7.07.68,8.97,3.52.17.26.34.55.3.86-.07.54-.68.8-1.04,1.21-.79.89-.19,2.4.82,3.03s2.26.69,3.43.9,2.44.71,2.92,1.8"/>
    <path class="cls-2" d="m285.61,148.94c.95,1,1.18,2.62.53,3.84-.5.95-1.49,1.8-1.3,2.85.18,1.02,1.34,1.48,2.14,2.13,1.08.87,1.64,2.33,1.42,3.7-.11.69-.44,1.39-1.05,1.74-.53.31-1.17.31-1.74.53-1.45.55-2.13,2.33-3.57,2.94"/>
    <path class="cls-2" d="m257.72,173.93c.69-1.3,2.27-1.78,3.66-2.24,2.14-.71,4.21-1.65,6.14-2.81"/>
    <path class="cls-2" d="m258.63,165.43c.84-1.56,2.74-2.25,4.5-2.31s3.51.36,5.28.41,3.69-.36,4.82-1.73"/>
    <path class="cls-2" d="m279.24,151.35c.42.52.85,1.29.43,1.81-.25.31-.71.37-1.04.59-.47.31-.65.94-.59,1.5s.33,1.08.58,1.58c.35.68.7,1.36,1.05,2.04"/>
    <path class="cls-2" d="m226.13,175.21c1.45.81,3.24.89,4.82.38s2.94-1.57,3.97-2.87c.45-.56.87-1.2,1.53-1.5,1.04-.47,2.22.05,3.34.24,1.35.22,2.77-.08,3.91-.83"/>
    <path class="cls-2" d="m282.05,134.74c.19-.04.4,0,.55.13-1.54,1.55-2.9,3.28-4.03,5.15-.12.2-.25.42-.27.65-.09.77.81,1.24,1.55,1.47,2.09.65,4.21,1.22,6.35,1.71"/>
    <path class="cls-2" d="m269.34,127.45c-.67.33-1.15,1.04-1.2,1.79s.33,1.52.95,1.94c.56.38,1.27.47,1.95.55,1.49.18,2.98.36,4.48.54"/>
    <path class="cls-2" d="m180.65,183.13c1.48-.55,2.59-1.97,2.77-3.54.06-.5.03-1.03.29-1.47.37-.62,1.17-.8,1.88-.87,3.44-.31,6.99.95,9.47,3.35"/>
    <path class="cls-2" d="m167.79,170.02c2.75-1.55,6.33-1.52,9.05.08,1.41.83,2.61,2.05,4.17,2.53,2.73.84,5.72-.8,8.49-.09"/>
    <path class="cls-2" d="m156.79,177.71c.23-1.54,1.87-2.38,3.3-2.97,1.77-.73,3.66-1.47,5.54-1.1,2.6.52,4.4,3.02,6.95,3.73,2.59.72,5.62-.5,7.91.91"/>
    <path class="cls-2" d="m137.11,175.63c.53-.75,1.48-1.11,2.4-1.19s1.84.06,2.76.08c1.93.05,4.14-.32,5.57.98"/>
    <path class="cls-2" d="m126.82,168.87c-.2.35.41.59.81.52,2.62-.42,5.14-1.78,7.78-1.47,1.83.22,3.46,1.21,5.2,1.81,2.96,1.02,6.32.83,9.15-.51"/>
    <path class="cls-2" d="m94.48,179.35c.56,1.96,3.09,2.39,5.13,2.46,6.14.2,12.46.38,18.24-1.72,2.21-.8,4.3-1.92,6.53-2.67s4.7-1.12,6.93-.36"/>
    <path class="cls-2" d="m127.91,183.13c1.37-.94,2.79-1.89,4.41-2.28.73-.18,1.49-.23,2.24-.26,1.83-.08,3.72,0,5.4.72,2.15.93,3.71,2.81,5.18,4.63"/>
    <path class="cls-2" d="m70.39,170.16c4.24-1.65,8.85-3.32,13.23-2.09,2.77.77,5.09,2.62,7.58,4.07,2.84,1.65,5.97,2.79,9.19,3.36"/>
    <path class="cls-2" d="m105.47,171.5c.07.11-.2.11-.18-.02s.17-.17.29-.19c2.13-.33,4.29-.55,6.32-1.26s3.97-1.95,5-3.84"/>
    <path class="cls-2" d="m110.2,174l7.98-4.24"/>
    <path class="cls-2" d="m59.92,167.58c-1.51-2.51-4.47-3.83-7.38-4.2s-5.85.04-8.77.2c-1.42.08-3.04.02-4-1.03"/>
    <path class="cls-2" d="m31.66,155.1c.14-1.38.05-2.78-.26-4.13-.12-.54-.29-1.08-.63-1.52-.6-.76-1.6-1.05-2.5-1.42-.99-.41-1.92-.97-2.73-1.67-.71-.6-1.36-1.34-1.6-2.24-.39-1.47.43-3.07,1.68-3.95s2.82-1.15,4.34-1.2"/>
    <path class="cls-2" d="m20.07,140.57c-.79.96-.7,2.36-.38,3.56.59,2.22,1.83,4.27,3.54,5.81.36.33.75.64,1.04,1.05.83,1.17.56,2.79,0,4.11"/>
    <path class="cls-2" d="m26.58,159.38c-.17.57.1,1.2.51,1.63s.97.69,1.5.96c1.63.81,3.43,2.03,3.46,3.85,0,.43-.09.86-.1,1.29-.08,2.09,1.8,3.85,3.84,4.36s4.17.08,6.22-.36"/>
    <path class="cls-2" d="m49.3,169.63c1.86-.16,3.75,0,5.56.49,1.48.4,2.93,1.02,4.11,2,.64.53,1.19,1.15,1.82,1.68,1.91,1.6,4.4,2.27,6.81,2.89"/>
    <path class="cls-2" d="m69.36,180.96c2.51-.77,5.26-.72,7.73.14,2.34.81,4.37,2.29,6.59,3.39,3.3,1.62,7,2.36,10.67,2.34"/>
    <path class="cls-2" d="m261.73,151.08c.93-.48,1.87-.96,2.89-1.18s2.14-.17,3.04.37c.59.36,1.05.91,1.64,1.27,1.24.76,2.84.56,4.21,1.03.38.13.81.51.59.85"/>
    <path class="cls-1" d="m203.02,136.26c.07.08.21-.07.15-.16s-.19-.11-.3-.12c-3.08-.12-6.16-.07-9.23.15"/>
    <path class="cls-1" d="m202.09,133.37c-3.08.14-6.15.62-9.13,1.42"/>
    <path class="cls-1" d="m200.39,130.65c-2.43.61-5,.66-7.45.15"/>
    <path class="cls-1" d="m199.34,127.73l-6.91.04"/>
    <path class="cls-1" d="m198.14,125.22l-6.28-.46c-.45-.03-1.05-.25-.96-.69"/>
    <path class="cls-1" d="m197.98,121.79c-2.31-.35-4.63-.65-6.95-.89"/>
    <path class="cls-1" d="m197.28,119.06l-7.03-.72c-.29-.03-.64-.1-.76-.37"/>
    <path class="cls-1" d="m196.05,116.32c-1.83-.23-3.65-.53-5.46-.91-.33-.07-.74-.21-.78-.55"/>
    <path class="cls-1" d="m196.6,113.84c.23-.15-.08-.48-.35-.56-1.99-.62-4.02-1.1-6.08-1.44"/>
    <path class="cls-1" d="m196.76,110.16l-7.62-1.62"/>
    <path class="cls-1" d="m195.84,106.83c-1.07-.72-2.32-1.18-3.6-1.34-.82-.1-1.76-.12-2.32-.73"/>
    <path class="cls-1" d="m196.43,102.89l-6.1-2.15c-.3-.11-.63-.25-.73-.55"/>
    <path class="cls-1" d="m195.87,98.83c-1.78-1.13-3.71-2.02-5.73-2.64"/>
    <path class="cls-1" d="m196.05,94.86c-2.51-1.02-5-2.08-7.47-3.18"/>
    <path class="cls-1" d="m195.58,91.33c.21-.01.1-.36-.07-.49-1.64-1.28-3.53-2.24-5.53-2.81"/>
    <path class="cls-1" d="m195.76,87.58c.02.14.25.16.3.03-.29-.73-1.05-1.14-1.75-1.49-1.62-.8-3.24-1.6-4.87-2.4"/>
    <path class="cls-1" d="m196.27,83.91c.24-.14,0-.49-.25-.63-1.88-1.1-3.79-2.16-5.72-3.19"/>
    <path class="cls-1" d="m195.84,80.27c-.84-1.51-2.29-2.67-3.94-3.17"/>
    <path class="cls-1" d="m197.18,77.32c-1.58-1.53-3.45-2.76-5.48-3.59"/>
    <path class="cls-1" d="m197.83,74.11c-.32-1.03-1.39-1.6-2.36-2.06-1.03-.49-2.06-.97-3.08-1.46"/>
    <path class="cls-1" d="m198.41,70.92c-1.27-1.5-2.95-2.64-4.8-3.27"/>
    <path class="cls-1" d="m199.65,67.48c-1.04-1.68-2.74-2.94-4.65-3.45"/>
    <path class="cls-1" d="m200.76,64.78c-1.11-1.73-2.7-3.16-4.55-4.08"/>
    <path class="cls-1" d="m201.1,61.67c-1.26-1.76-2.73-3.37-4.37-4.79"/>
    <path class="cls-1" d="m201.94,58.26c.18.13.26-.26.15-.45-.85-1.47-2.05-2.74-3.47-3.67"/>
    <path class="cls-1" d="m203.14,55.3c-.65-1.3-1.47-2.52-2.43-3.62"/>
    <path class="cls-1" d="m205.08,53.04c-.45-1.16-1.03-2.26-1.74-3.28"/>
    <path class="cls-1" d="m206.62,51.32l-1.6-3.61"/>
    <path class="cls-1" d="m77.43,128.55l-6.39-1.05"/>
    <path class="cls-1" d="m77.26,125.44c-2.1-.52-4.24-.92-6.38-1.2"/>
    <path class="cls-1" d="m76.58,123.15c-1.07-.57-2.23-.94-3.43-1.1-1.13-.15-2.3-.11-3.37-.51"/>
    <path class="cls-1" d="m75.54,120.9c.34.08.72,0,1-.22.13-.24-.2-.47-.46-.55-1.77-.54-3.57-.94-5.4-1.19"/>
    <path class="cls-1" d="m75.89,117.99c.25.06.43-.29.32-.52s-.36-.34-.6-.43c-1.41-.53-2.9-.82-4.4-.88"/>
    <path class="cls-1" d="m76.44,115.13c-1.97-.93-4.1-1.52-6.26-1.76"/>
    <path class="cls-1" d="m75.76,112.61c.07.1.24-.02.22-.14s-.13-.19-.24-.25c-2.02-1.14-4.29-1.82-6.6-1.98"/>
    <path class="cls-1" d="m75.75,109.42c-2.11-.84-4.28-1.57-6.47-2.17"/>
    <path class="cls-1" d="m75.42,106.67c-1.83-1.19-3.94-1.95-6.11-2.21"/>
    <path class="cls-1" d="m75.61,104.07c-2.07-1.45-4.49-2.4-6.99-2.73"/>
    <path class="cls-1" d="m75.1,101.16c-1.51-1.46-3.52-2.39-5.61-2.61"/>
    <path class="cls-1" d="m74.54,98.62c.12.1.31-.05.31-.2s-.11-.28-.21-.39c-.87-.91-1.92-1.64-3.08-2.13"/>
    <path class="cls-1" d="m74.49,96.12c.18.13.44-.09.44-.31s-.17-.41-.33-.56c-1.09-1.07-2.45-1.85-3.91-2.27"/>
    <path class="cls-1" d="m73.14,92.66c.25-.13.04-.52-.18-.7-1.48-1.2-3.11-2.2-4.85-2.97"/>
    <path class="cls-1" d="m71.25,89.35c-.07.11.19.15.21.02s-.11-.23-.23-.29c-1.16-.65-2.32-1.31-3.49-1.96"/>
    <path class="cls-1" d="m75.68,119.09c-1.36-.65-2.62-1.51-3.73-2.53"/>
    <path class="cls-1" d="m64.14,65.63c1.83-.27,3.68-.39,5.53-.37"/>
    <path class="cls-1" d="m64.49,62.48l4.49.19"/>
    <path class="cls-1" d="m63.43,59.81c1.55-.2,3.12-.28,4.68-.24"/>
    <path class="cls-1" d="m63.8,56.84c1.55.1,3.12.06,4.67-.1"/>
    <path class="cls-1" d="m63.08,53.62c1.54-.36,3.2-.24,4.67.35"/>
    <path class="cls-1" d="m62.25,50.59l4.31.3"/>
    <path class="cls-1" d="m62.07,48.05h4.32"/>
    <path class="cls-1" d="m61.9,44.79l4.32.2"/>
    <path class="cls-1" d="m61.87,41.95c1-.55,2.18-.77,3.31-.61"/>
    <path class="cls-1" d="m62.59,39.42c.69.35,1.47.53,2.25.53"/>
    <path class="cls-1" d="m63.28,37.01c.4-.01.79-.21,1.03-.53"/>
    <path class="cls-1" d="m86.92,102.26l1.08-1.87"/>
    <path class="cls-1" d="m88.6,103.44c.4-.79.89-1.53,1.45-2.21"/>
    <path class="cls-1" d="m91.18,104.48c.25-.65.56-1.28.94-1.87"/>
    <path class="cls-1" d="m93.34,105.56c.51-.49.92-1.09,1.2-1.74"/>
    <path class="cls-1" d="m95.14,106.84c.69-.76,1.29-1.61,1.78-2.51"/>
    <path class="cls-1" d="m97.7,107.9l2.57-4.4"/>
    <path class="cls-1" d="m100.09,107.99c.81-1.29,1.54-2.62,2.19-4"/>
    <path class="cls-1" d="m102.9,108.53l2.31-3.69"/>
    <path class="cls-1" d="m105.49,110.26l2.33-3.85"/>
    <path class="cls-1" d="m108.2,110.22c-.13.32-.02.71.25.92,1.06-1.46,2.11-2.93,3.17-4.4"/>
    <path class="cls-1" d="m112.17,111.09l3.17-4.74"/>
    <path class="cls-1" d="m115.78,111.1c.11.23.45,0,.57-.22.88-1.56,1.77-3.11,2.65-4.67"/>
    <path class="cls-1" d="m119.32,111.01c1.22-1.11,2.24-2.45,2.98-3.93"/>
    <path class="cls-1" d="m123.13,110.81c1.11-1.38,2-2.93,2.63-4.59"/>
    <path class="cls-1" d="m126.76,110.3c1.51-1.86,2.75-3.93,3.68-6.14"/>
    <path class="cls-1" d="m130.96,109.53c.82.1,1.43-.72,1.79-1.46.87-1.77,1.48-3.68,1.8-5.63"/>
    <path class="cls-1" d="m135.71,108.2c1.57-2.07,2.56-4.56,2.83-7.14"/>
    <path class="cls-1" d="m140.07,106.74c1.06-2.42,1.82-4.98,2.25-7.58"/>
    <path class="cls-1" d="m143.94,105.76c.67-.36.95-1.16,1.16-1.89.48-1.71.83-3.47,1.03-5.24"/>
    <path class="cls-1" d="m147.73,105.74c.11.2.39-.04.47-.26,1.18-3.41,1.76-7.03,1.68-10.64"/>
    <path class="cls-1" d="m151.65,102.86c1.31-2.55,1.78-5.52,1.34-8.35"/>
    <path class="cls-1" d="m154.79,101.97c-.05.14.15.26.29.21s.21-.21.26-.35c1.15-2.85,1.6-5.98,1.32-9.05"/>
    <path class="cls-1" d="m158.59,99.38c-.05.23.3.37.5.25s.27-.38.32-.61c.56-2.56.83-5.18.8-7.8"/>
    <path class="cls-1" d="m162.35,97.31c.93-2.5,1.45-5.15,1.55-7.82"/>
    <path class="cls-1" d="m166.11,95.75c.91-2.12,1.29-4.47,1.09-6.77"/>
    <path class="cls-1" d="m169.51,93.13c.85-1.96,1.3-4.1,1.31-6.23"/>
    <path class="cls-1" d="m172.24,89.86c-.1.26.11.58.38.59.7-2.23,1.19-4.52,1.47-6.84"/>
    <path class="cls-1" d="m77.21,74.6c1.04-.32,2.14-.41,3.22-.25"/>
    <path class="cls-1" d="m78.21,76.66c1.28-.13,2.58-.13,3.86,0"/>
    <path class="cls-1" d="m81.08,79.13c.81-.16,1.65-.19,2.47-.11"/>
    <path class="cls-1" d="m83.15,81.13c-.06,0-.08.09-.04.13s.1.04.16.04c.78,0,1.56,0,2.34,0"/>
    <path class="cls-1" d="m84.95,83.59l2.55-.08"/>
    <path class="cls-1" d="m87.48,85.39c.45.15.94.19,1.41.1"/>
    <path class="cls-1" d="m88.56,86.94c.41.06.83.07,1.24.04"/>
    <path class="cls-1" d="m90.54,87.9c.38.08.77.1,1.15.05"/>
    <path class="cls-1" d="m92.66,89.25c.45.15.94.19,1.41.1"/>
    <path class="cls-1" d="m94.96,90.95c.26.25.65.37,1,.3"/>
    <path class="cls-1" d="m87.81,70.46c.1.31.5.38.83.39.69.01,1.38-.02,2.06-.09"/>
    <path class="cls-1" d="m90.46,72.22c.68.06,1.37.07,2.06.03"/>
    <path class="cls-1" d="m90.02,73.03c.6.53,1.61-.09,2.33.28"/>
    <path class="cls-1" d="m91.69,74.65c-.04.09.09.14.18.15.54.03,1.08.05,1.62.08"/>
    <path class="cls-1" d="m92.34,75.93c.56.16,1.16.2,1.74.11"/>
    <path class="cls-1" d="m92.99,77.09c.5.18,1.04.28,1.58.27"/>
    <path class="cls-1" d="m93.9,78.7c.34.16.71.23,1.08.22"/>
    <path class="cls-1" d="m93.91,79.94c.54.13,1.1.22,1.65.29"/>
    <path class="cls-1" d="m95.96,81.9l1.81.4"/>
    <path class="cls-1" d="m97.11,83.55l1.56.49"/>
    <path class="cls-1" d="m98.09,85.28c.38.28.86.41,1.33.38"/>
    <path class="cls-1" d="m98.99,87.52c.7.28,1.42.51,2.16.68"/>
    <path class="cls-1" d="m78.91,127.69c.77-2.43,2.81-4.43,5.25-5.16"/>
    <path class="cls-1" d="m80.53,130.67c1.25-1.88,3.37-3.16,5.62-3.37"/>
    <path class="cls-1" d="m59.24,120.39c1.84,2.82,2.74,6.24,2.52,9.61"/>
    <path class="cls-1" d="m54.95,122.15c.39.04.67.39.89.71,1.62,2.36,2.65,5.12,2.96,7.96"/>
    <path class="cls-1" d="m179.1,127.58c3.45.87,6.42,3.44,7.79,6.72"/>
    <path class="cls-1" d="m201.35,134.66c.33-2.62.76-5.27,1.95-7.63s3.25-4.41,5.83-4.97"/>
    <path class="cls-1" d="m204.42,135.79c1.3-4.54,5.23-8.23,9.85-9.24"/>
    <path class="cls-1" d="m83.16,133.97c.18.32.66.2.99.05,3.98-1.81,7.95-3.63,11.93-5.44"/>
    <path class="cls-1" d="m86.46,137.24c7.39-3.77,14.95-7.19,22.65-10.25"/>
    <path class="cls-1" d="m97.59,136.28c8.2-4.13,16.7-7.65,25.42-10.53"/>
    <path class="cls-1" d="m107.12,137.76c9.25-4.1,18.56-8.07,27.92-11.9"/>
    <path class="cls-1" d="m112.25,140.87c2.5-.7,4.8-1.97,7.1-3.19,9.37-4.96,19.12-9.18,29.15-12.62"/>
    <path class="cls-1" d="m121.02,142.49c10.66-5.42,21.56-10.37,32.66-14.82"/>
    <path class="cls-1" d="m128.29,142.96c-.35-.09-.74.11-.89.43,11.34-6.24,23.36-11.27,35.77-14.97"/>
    <path class="cls-1" d="m144.66,141.14c8.88-4.48,18.04-8.41,27.41-11.76"/>
    <path class="cls-1" d="m154.94,141.77c8.3-4.42,16.79-8.49,25.43-12.2"/>
    <path class="cls-1" d="m165.42,142.03c-.09-.03-.14.14-.05.19s.19.01.28-.03c5.6-2.52,10.71-6.4,16.76-7.48"/>
    <path class="cls-1" d="m174.81,141.91c2.69-.96,5.32-2.08,7.88-3.35"/>
    <path class="cls-1" d="m180.22,143.57c2.25-.97,4.48-1.99,6.68-3.05"/>
    <path class="cls-1" d="m33.98,137.9c1.89-2.22,4.1-4.16,6.55-5.73"/>
    <path class="cls-1" d="m39.15,138.07l5.71-4.37c1.2-.92,2.45-1.87,3.93-2.23-.16.23-.31.46-.47.69"/>
    <path class="cls-1" d="m43.66,137.48c-.13.19-.06.48.14.59,2.18-1.37,4.35-2.75,6.53-4.12.82-.52,1.68-1.05,2.64-1.17"/>
    <path class="cls-1" d="m46.47,141.31c-.07.23.34.22.54.08,2.9-2.06,5.81-4.12,8.71-6.19"/>
    <path class="cls-1" d="m49.75,145.07l-.2.42c3.7-2.65,7.4-5.29,11.1-7.94"/>
    <path class="cls-1" d="m55.46,145.6c-.33.25-.61.58-.82.94.39.38,1.03.07,1.47-.25,3.35-2.43,6.7-4.86,10.05-7.29"/>
    <path class="cls-1" d="m63.91,142.93l-.29.32c.74.15,1.45-.3,2.07-.72,2.58-1.79,5.16-3.57,7.74-5.36.1.16-.03.42-.22.43"/>
    <path class="cls-1" d="m69.61,142.03c2.48-1.42,4.88-2.97,7.21-4.63"/>
    <path class="cls-1" d="m76.03,143.46c-.1.04-.05.21.06.23s.21-.04.29-.1c2.21-1.51,4.49-2.91,6.84-4.18"/>
    <path class="cls-1" d="m79.82,146.34c-.33,0-.34.57-.04.72s.65,0,.95-.14c1.62-.79,3.16-1.74,4.59-2.82"/>
    <path class="cls-1" d="m45.93,127.75c1.81-1.29,3.66-2.53,5.55-3.71"/>
    <path class="cls-1" d="m51.85,129.7c1.55-1.77,3.31-3.37,5.22-4.74"/>
    <path class="cls-1" d="m54.83,130.31c2.25-.57,4.39-1.6,6.24-3"/>
    <path class="cls-1" d="m199.77,126.97c1.54-2.39,3.53-4.48,5.85-6.12"/>
    <path class="cls-1" d="m202.51,127.9c2.89-1.92,5.74-3.89,8.56-5.91"/>
    <path class="cls-1" d="m208.12,126.03c-.51.33-.89.86-1.03,1.45.58.16,1.16-.19,1.66-.53,1.28-.87,2.56-1.74,3.84-2.6"/>
    <path class="cls-1" d="m210.61,129.19c3.04-1.27,5.26-4.22,8.47-4.98"/>
    <path class="cls-1" d="m214.09,129.84c3.08-2.41,6.4-4.51,9.9-6.25"/>
    <path class="cls-1" d="m218.92,129.22c-.13.19.27.26.47.14,2.62-1.63,5.23-3.25,7.85-4.88"/>
    <path class="cls-1" d="m224.52,128.52c-.12.17.23.26.42.17,1.91-.91,3.76-1.93,5.54-3.06"/>
    <path class="cls-1" d="m209.94,139.95l-1.06.65c3.23-2.73,6.7-5.17,10.36-7.28"/>
    <path class="cls-1" d="m214.61,141.77c-.09-.04-.13.15-.03.19s.19-.02.27-.08c3.03-2.23,6.07-4.46,9.1-6.69"/>
    <path class="cls-1" d="m220.38,140.84c-.06.16.11.32.28.33s.32-.09.45-.18c2.62-1.76,5.24-3.51,7.85-5.27"/>
    <path class="cls-1" d="m226.87,140.13c-.32.22-.58.53-.74.88.61.19,1.25-.11,1.8-.44,2.74-1.62,5.16-3.93,8.23-4.77"/>
    <path class="cls-1" d="m232.68,140.45l-.63.56c-.08.07-.16.15-.19.25-.09.36.49.45.83.33,3.81-1.29,6.66-4.75,10.57-5.68-.16.18-.31.37-.47.55"/>
    <path class="cls-1" d="m239.67,139.52c-.92.45-1.64,1.3-1.92,2.29,1.42-.01,2.69-.84,3.9-1.58,2.31-1.42,4.72-2.67,7.22-3.73"/>
    <path class="cls-1" d="m208.78,144.27c-4.22,2.41-8.28,5.13-12.12,8.12.99-.27,1.9-.79,2.65-1.5"/>
    <path class="cls-1" d="m215.14,144.35c-3.07,2.01-5.98,4.26-8.69,6.73-.2.18-.41.45-.27.68.21-.06.41-.12.62-.18"/>
    <path class="cls-1" d="m220.6,144.99c-2.73,1.65-5.22,3.69-7.39,6.03"/>
    <path class="cls-1" d="m223.53,147.4c-2.19,1.47-4.2,3.2-5.97,5.15"/>
    <path class="cls-1" d="m228.69,148.91c-2.01,1.24-3.85,2.75-5.47,4.47-.05.06-.11.12-.13.19-.05.2.2.36.39.32s.34-.2.47-.36"/>
    <path class="cls-1" d="m234.78,148.5c-1.99,1.22-3.81,2.71-5.42,4.4"/>
    <path class="cls-1" d="m239.98,149.41c-2.28,1.19-4.3,2.88-5.87,4.92"/>
    <path class="cls-1" d="m245.67,149.29c-1.18,1.41-2.49,2.71-3.91,3.89"/>
    <path class="cls-1" d="m247.43,152.05l-2.32,2.32"/>
    <path class="cls-1" d="m167.43,155.05c.15-.86,1.32-1.34,2.03-.84"/>
    <path class="cls-1" d="m176.82,155.71c-.07-.8.47-1.61,1.24-1.85s1.68.13,2.06.83"/>
    <path class="cls-1" d="m186.37,158.69c.4-.33,1.01-.38,1.46-.13s.73.79.67,1.3"/>
    <path class="cls-1" d="m198.47,161.82c.84-.44,2.03.25,2.05,1.19"/>
    <path class="cls-1" d="m209.66,163.71c.56-.99,2.07-1.26,2.94-.53"/>
    <path class="cls-1" d="m220.28,161.69c.09-.81.84-1.49,1.65-1.49s1.57.67,1.66,1.48"/>
    <path class="cls-1" d="m181.9,149.58c1.19.15,2.36.43,3.48.83"/>
    <path class="cls-1" d="m146.97,159.22c-.38-1.63.65-3.47,2.24-3.99"/>
    <path class="cls-1" d="m154.02,152.24c.78-.46,1.7-.68,2.6-.64.3.01.62.07.85.26s.33.57.13.8"/>
    <path class="cls-1" d="m103.24,150.9c.37.59.98,1.02,1.66,1.16"/>
    <path class="cls-1" d="m111.21,147.91l2.86,1.77"/>
    <path class="cls-1" d="m92.13,151.79c1.16,0,2.09,1.35,1.69,2.44"/>
    <path class="cls-1" d="m78.05,159.54c-.1-.72.4-1.47,1.1-1.65.53-.13,1.25.33,1,.81"/>
    <path class="cls-1" d="m64.25,155.55c-.47-.92-.48-2.07-.02-3,.34.34.68.67,1.02,1.01"/>
    <path class="cls-1" d="m95.45,144.45c.98-.41,2.18-.23,3.01.44"/>
    <path class="cls-1" d="m103.75,141.19c.86-.07,1.71.56,1.91,1.39"/>
    <path class="cls-1" d="m74.38,151.26c.39-.2.85-.36,1.27-.22s.69.72.4,1.05"/>
    <path class="cls-1" d="m50.41,153.47c.67-.55,1.53-.87,2.39-.88"/>
    <path class="cls-1" d="m63.23,147.9c.67-1.26,2.41-1.82,3.68-1.18"/>
    <path class="cls-1" d="m28.94,68.9l4.57,5.31c1.04,1.21,2.11,2.44,3.49,3.24"/>
    <path class="cls-1" d="m28.71,65.13l6.18,7.44"/>
    <path class="cls-1" d="m28.09,59.63c1.94,2.63,3.97,5.19,6.08,7.68"/>
    <path class="cls-1" d="m28.8,56.26c1.84,1.82,3.54,3.79,5.08,5.87"/>
    <path class="cls-1" d="m29.49,53.24c2.71,1.85,4.09,5.08,6.34,7.47"/>
    <path class="cls-1" d="m30.29,48.98l5.04,6.88"/>
    <path class="cls-1" d="m31.27,46.15l3.92,3.39"/>
    <path class="cls-1" d="m32.75,43.03c1.07,1.54,2.54,2.8,4.22,3.64"/>
    <path class="cls-1" d="m35.15,39.8c1.18,1.09,2.42,2.13,3.7,3.11"/>
    <path class="cls-1" d="m38.34,38.24c.9,1.45,2.05,2.73,3.4,3.77"/>
    <path class="cls-1" d="m39.87,36.06c-.09-.09.02-.26.15-.26s.24.1.33.19c1.19,1.22,2.38,2.43,3.57,3.65"/>
    <path class="cls-1" d="m43.19,33.58c.78,1.19,1.69,2.28,2.73,3.25"/>
    <path class="cls-1" d="m45.4,31.37c.95,1.09,1.95,2.14,2.99,3.14"/>
    <path class="cls-1" d="m47.88,29.06l2.65,3.45"/>
    <path class="cls-1" d="m49.97,27.28c.72,1.18,1.59,2.27,2.58,3.23"/>
    <path class="cls-1" d="m51.67,25.93l2.36,2.92"/>
    <path class="cls-1" d="m53.81,24.79c.44.8.99,1.53,1.64,2.17"/>
    <path class="cls-1" d="m2.82,32.42c.11-1.62.6-3.21,1.41-4.62"/>
    <path class="cls-1" d="m5.6,32.42c.3-2.39.97-4.74,1.96-6.93"/>
    <path class="cls-1" d="m12.65,32.43c-.07-2.32-.02-4.65.15-6.97"/>
    <path class="cls-1" d="m19.57,30.77c-.32-1.88-.19-3.83.38-5.65"/>
    <path class="cls-1" d="m23.12,30.93c-.16-1.84.05-3.72.6-5.49"/>
    <path class="cls-1" d="m25.07,30.76l.97-5.81"/>
    <path class="cls-1" d="m31.38,30.77c.01-2.06.18-4.11.49-6.14"/>
    <path class="cls-1" d="m34.86,29.44l.65-5.64"/>
    <path class="cls-1" d="m37.59,27.46l1.07-4.17"/>
    <path class="cls-1" d="m40.86,25.29c.1-1.16.43-2.3.97-3.33"/>
    <path class="cls-1" d="m44.82,24.29c.12-1.18.35-2.35.69-3.48"/>
    <path class="cls-1" d="m10.06,55.49c.03,1.16.35,2.31.91,3.32"/>
    <path class="cls-1" d="m10.66,53.33c.33,1.52.76,3.03,1.27,4.5"/>
    <path class="cls-1" d="m11.18,50.17c.41,1.87.93,3.7,1.57,5.5"/>
    <path class="cls-1" d="m11.47,46.7c.6,2.92,1.33,5.82,2.19,8.67"/>
    <path class="cls-1" d="m12.45,44.88c.58,3.29,1.43,6.52,2.54,9.67"/>
    <path class="cls-1" d="m13.52,41.87c.77,3.53,1.66,7.03,2.68,10.49"/>
    <path class="cls-1" d="m15.04,39.87l3.29,12.33"/>
    <path class="cls-1" d="m16.57,37.54l2.69,11.16c.16.66.34,1.36.82,1.85"/>
    <path class="cls-1" d="m18.75,37.08c.6,2.82,1.23,5.63,1.89,8.44.21.87.44,1.78,1.07,2.41"/>
    <path class="cls-1" d="m19.79,33.92l1.69,6.67c.14.55.31,1.15.76,1.5"/>
    <path class="cls-1" d="m21.14,33.25l1.75,6.66"/>
    <path class="cls-1" d="m22.92,32.92c.16,1.64.47,3.26.95,4.83"/>
    <path class="cls-1" d="m24.41,33.59c.08.74.27,1.46.55,2.14"/>
    <path class="cls-1" d="m25.58,31.6c.13,1.13.49,2.23,1.04,3.22"/>
    <path class="cls-1" d="m27.43,30.26l.79,2.17"/>
    <path class="cls-1" d="m56.73,19.01l2.19,3.96"/>
    <path class="cls-1" d="m58.62,17.32c.39,1.47.97,2.88,1.73,4.2"/>
    <path class="cls-1" d="m59.39,15.51c.48,1.73,1.15,3.41,1.99,4.99"/>
    <path class="cls-1" d="m60.76,13.51c.36,1.11.86,2.18,1.48,3.16"/>
    <path class="cls-1" d="m61.87,11.71c.84,1.64,1.53,3.35,2.08,5.11"/>
    <path class="cls-1" d="m63.25,9.86c.28.93.67,1.82,1.18,2.64"/>
    <path class="cls-1" d="m65.19,8.22l1.66,4.31"/>
    <path class="cls-1" d="m67.18,8.71c.45,1.56.98,3.11,1.56,4.62"/>
    <path class="cls-1" d="m68.52,8.21c.23,1.26.64,2.49,1.22,3.63"/>
    <path class="cls-1" d="m70.37,6.21c.26.96.71,1.88,1.32,2.67"/>
    <path class="cls-1" d="m72.5,6.39c.28,1.04.69,2.04,1.21,2.97"/>
    <path class="cls-1" d="m74.49,6.39c.42,1.11.89,2.21,1.42,3.28"/>
    <path class="cls-1" d="m62.6,30.44l2.6-4.68"/>
    <path class="cls-1" d="m65.32,30.57c.45-1.56,1.22-3.03,2.26-4.28"/>
    <path class="cls-1" d="m68.07,29.44c.53-1.45,1.3-2.82,2.27-4.02"/>
    <path class="cls-1" d="m70.78,29.72l2.13-4.49"/>
    <path class="cls-1" d="m73.37,29.84c-.07-.03-.06.13.02.12s.11-.1.14-.17c.45-1.56,1.19-3.04,2.17-4.34"/>
    <path class="cls-1" d="m75.81,31.58c.42-1.46,1.06-2.86,1.89-4.12"/>
    <path class="cls-1" d="m78.16,31.42c.41-1.36,1.04-2.65,1.87-3.8"/>
    <path class="cls-1" d="m82.35,31.44c1.04-1.77,2.32-3.4,3.8-4.82"/>
    <path class="cls-1" d="m83.46,33.06l3-3.8"/>
    <path class="cls-1" d="m85.82,35.91l-.34.28c1.4-2.47,3.13-4.75,5.12-6.78"/>
    <path class="cls-1" d="m87.36,36.18c.87-1.57,1.97-3.01,3.26-4.26"/>
    <path class="cls-1" d="m94.06,36.89c.44-1.49,1.27-2.87,2.37-3.97"/>
    <path class="cls-1" d="m94.09,40.04c1.18-1.87,2.52-3.65,3.98-5.32"/>
    <path class="cls-1" d="m95.61,40.72c.87-1.55,2-2.96,3.32-4.15"/>
    <path class="cls-1" d="m98.33,41.82c.96-1.5,2.06-2.92,3.27-4.23"/>
    <path class="cls-1" d="m99.4,42.87c.9-1.62,2.16-3.05,3.67-4.14"/>
    <path class="cls-1" d="m101.31,46.62c1.19-1.62,2.58-3.08,4.13-4.35"/>
    <path class="cls-1" d="m102.49,48.11c1.35-1.69,2.82-3.27,4.41-4.74"/>
    <path class="cls-1" d="m105.58,47.37c.55-.91,1.21-1.76,1.98-2.5"/>
    <path class="cls-1" d="m108.38,48.68c.73-.88,1.3-1.9,1.68-2.98"/>
    <path class="cls-1" d="m67.33,29.89c-.93,1.38-1.64,2.92-2.07,4.53"/>
    <path class="cls-1" d="m69.36,30.58l-1.84,3.47"/>
    <path class="cls-1" d="m70.53,31.91c-.69.91-1.24,1.93-1.62,3.01"/>
    <path class="cls-1" d="m72.67,31.57c-.87,1.18-1.58,2.48-2.1,3.85"/>
    <path class="cls-1" d="m73.72,32.77c-1.06,1.13-1.87,2.49-2.38,3.96"/>
    <path class="cls-1" d="m76.18,31.26l-3.68,6.79"/>
    <path class="cls-1" d="m77.19,32.59c-1.78,2.39-3.25,5.01-4.37,7.78"/>
    <path class="cls-1" d="m75.24,39.84c1.16-2.9,2.69-5.66,4.54-8.17-1.86,2.81-2.6,6.52-3.98,9.6-.23.51-.44,1.14-.1,1.59"/>
    <path class="cls-1" d="m81.66,35.42l-3.99,8.18c-.28.57-.56,1.19-.43,1.81"/>
    <path class="cls-1" d="m82.21,37.59c.19-.47.5-.89.88-1.22-1.79,3.16-3.4,6.42-4.81,9.76-.32.76-.64,1.55-.59,2.37.16,0,.33.02.49.03"/>
    <path class="cls-1" d="m84.34,38.06c.06-.19.29-.3.47-.24-1.46,3.19-2.92,6.38-4.38,9.57-.28.61-.56,1.33-.28,1.94"/>
    <path class="cls-1" d="m85.56,41.94c-1.69,2.45-3.1,5.09-4.18,7.86"/>
    <path class="cls-1" d="m71.51,17.8c-.22.41-.21.95.04,1.34"/>
    <path class="cls-1" d="m74.23,16.5c-.15.62-.04,1.29.29,1.83"/>
    <path class="cls-1" d="m76.34,14.84l.37,2.65"/>
    <path class="cls-1" d="m78.39,15.01c-.11.7.19,1.45.75,1.88"/>
    <path class="cls-1" d="m80.32,13.84l.29,2.33"/>
    <path class="cls-1" d="m82.54,12.5c.35,1.52.76,3.02,1.23,4.51"/>
    <path class="cls-1" d="m85.81,12.52l.82,3.65"/>
    <path class="cls-1" d="m88.9,12.03l.69,4.48"/>
    <path class="cls-1" d="m92.03,10.85l.58,5.15"/>
    <path class="cls-1" d="m95.22,12.35c.04,1.51.22,3.01.53,4.48"/>
    <path class="cls-1" d="m98.61,12.68c-.12,1.78.04,3.58.46,5.32"/>
    <path class="cls-1" d="m101.36,13c-.25,2.04-.27,4.11-.05,6.16"/>
    <path class="cls-1" d="m104.15,14.02c-.56,2.33-.85,4.72-.85,7.12"/>
    <path class="cls-1" d="m107.17,14.66l-1.16,6.87c-.12.71-.22,1.52.23,2.09"/>
    <path class="cls-1" d="m110.16,16.03l-2.28,7.6c-.13.45-.26.95-.02,1.35"/>
    <path class="cls-1" d="m111.96,17.18l-2.01,6.98c-.11.38-.2.84.09,1.11"/>
    <path class="cls-1" d="m114.76,18.15c-.04,1.55-.19,3.11-.44,4.64"/>
    <path class="cls-1" d="m116.83,20.13c-.76,1.25-1.2,2.7-1.26,4.16"/>
    <path class="cls-1" d="m120.13,20.8c-.2.99-.27,1.99-.22,3"/>
    <path class="cls-1" d="m122.5,22.14c-.46,1.01-.8,2.06-1.03,3.14"/>
    <path class="cls-1" d="m124.33,23.81c-.55.69-.77,1.63-.58,2.49"/>
    <path class="cls-1" d="m126.82,23.63l-1.82,4.81"/>
    <path class="cls-1" d="m127.96,25.79c-.61,2.12-1.06,4.28-1.35,6.47"/>
    <path class="cls-1" d="m130.14,26.62c-.97,2.66-1.54,5.46-1.69,8.29"/>
    <path class="cls-1" d="m131.63,27.95c-.45,2.91-.68,5.85-.7,8.79"/>
    <path class="cls-1" d="m216.41,39.73c1.01-.45,2.06-.8,3.14-1.03"/>
    <path class="cls-1" d="m214.92,42.22l-.36.25c2.04-.89,4.1-1.74,6.17-2.56"/>
    <path class="cls-1" d="m215.89,44.16l4.81-2.16"/>
    <path class="cls-1" d="m214.9,46c2.29-1.29,4.69-2.38,7.16-3.28"/>
    <path class="cls-1" d="m214.54,48.27c2.79-1.5,5.62-2.93,8.48-4.28"/>
    <path class="cls-1" d="m215.21,49.61c3-1.69,6.06-3.27,9.18-4.72"/>
    <path class="cls-1" d="m215.76,51.54c3.28-1.94,6.66-3.72,10.11-5.32"/>
    <path class="cls-1" d="m217.58,53.18c2.72-1.81,5.62-3.37,8.63-4.64"/>
    <path class="cls-1" d="m220.19,53.6c2.55-1.53,5.23-2.85,7.99-3.94"/>
    <path class="cls-1" d="m222.69,54.29c2.36-1.4,4.82-2.65,7.34-3.73"/>
    <path class="cls-1" d="m219.51,58.06c4.72-2.87,9.56-5.54,14.51-8"/>
    <path class="cls-1" d="m222.22,57.81l-.76.58c3.28-1.76,6.57-3.53,9.85-5.29"/>
    <path class="cls-1" d="m222.49,59.54c3-1.78,6.13-3.35,9.36-4.69"/>
    <path class="cls-1" d="m222.94,61c.89.06,1.7-.48,2.43-1,2.42-1.71,4.84-3.43,7.26-5.14"/>
    <path class="cls-1" d="m217.89,63.81c-.16,0,.07.21.22.14,4.34-2.03,8.68-4.06,13.02-6.08"/>
    <path class="cls-1" d="m221.72,63.95l-.86.43c1.03.04,2-.42,2.93-.87,2.57-1.25,5.14-2.49,7.7-3.74"/>
    <path class="cls-1" d="m223.71,65.61c2.92-1.53,5.9-2.93,8.94-4.2"/>
    <path class="cls-1" d="m223.9,67.63c2.97-1.81,6.13-3.3,9.41-4.44"/>
    <path class="cls-1" d="m218.57,73.91c-.43.1-.84.33-1.15.65,5.44-3.3,10.98-6.42,16.63-9.36"/>
    <path class="cls-1" d="m214.89,79.19c5.39-4.09,11.2-7.62,17.31-10.53"/>
    <path class="cls-1" d="m219.53,78.85c2.91-2.17,6.03-4.06,9.31-5.63"/>
    <path class="cls-1" d="m217.88,31.89l1.69-1.11"/>
    <path class="cls-1" d="m218.58,33.1c.92-.81,1.98-1.45,3.12-1.88"/>
    <path class="cls-1" d="m220.36,34.38c.83-.88,1.88-1.55,3.03-1.94"/>
    <path class="cls-1" d="m221.21,35.89c.86-.68,1.81-1.25,2.81-1.69"/>
    <path class="cls-1" d="m222.55,37.56l3-2.13"/>
    <path class="cls-1" d="m224.19,38.71c1.01-.77,2.14-1.38,3.33-1.82"/>
    <path class="cls-1" d="m230,43.52c.8-.6,1.71-1.05,2.68-1.3"/>
    <path class="cls-1" d="m229.88,45.94l3.12-1.41"/>
    <path class="cls-1" d="m231.18,47.55c1.09-.22,2.2-.35,3.31-.37"/>
    <path class="cls-1" d="m236.77,57.71c.75-.39,1.55-.68,2.38-.88"/>
    <path class="cls-1" d="m246.78,43.05c1.56-.11,3.14.06,4.65.5"/>
    <path class="cls-1" d="m247.27,46.7c1.4.01,2.79.18,4.15.5"/>
    <path class="cls-1" d="m246.77,50.05c1.63.45,3.3.71,4.99.79"/>
    <path class="cls-1" d="m247.1,53.69l4.98,1.32"/>
    <path class="cls-1" d="m246.42,58.25c1.61.44,3.22.83,4.85,1.19"/>
    <path class="cls-1" d="m246.44,62.65c1.38.42,2.72.95,4.02,1.56"/>
    <path class="cls-1" d="m246.62,66.28c-.22.03-.09.38.09.51.73.54,1.54.99,2.39,1.3"/>
    <path class="cls-1" d="m245.39,69.28c.3.81,1.04,1.44,1.89,1.61"/>
    <path class="cls-1" d="m243.91,72.77c.21.4.6.7,1.05.78"/>
    <path class="cls-1" d="m241.23,76.27c.45.74,1.22,1.27,2.06,1.43"/>
    <path class="cls-1" d="m174.93,40.89l-1.16-3.82c.83,1.63.89,2.01,1.16,3.82Z"/>
    <path class="cls-1" d="m176.48,36.05c.46,1.28,1.04,2.52,1.74,3.69"/>
    <path class="cls-1" d="m180.63,30.94c.12,1.56.37,3.12.75,4.64"/>
    <path class="cls-1" d="m181.74,31.1c.2.92.72,1.77,1.46,2.35"/>
    <path class="cls-1" d="m188.22,28.78l-.12,4.98"/>
    <path class="cls-1" d="m189.52,27.45c.07,1.31.35,2.6.84,3.82"/>
    <path class="cls-1" d="m197.94,24.29l.05,5.14"/>
    <path class="cls-1" d="m199.58,24.11c-.19.94-.17,1.91.06,2.84"/>
    <path class="cls-1" d="m204.3,23.8c-.07,1.4.1,2.81.49,4.15"/>
    <path class="cls-1" d="m206.95,24.79c.04.77-.19,1.55-.63,2.18"/>
    <path class="cls-1" d="m184.03,10.85l-1.15,5.64"/>
    <path class="cls-1" d="m185.23,11.19c-.1,1.33-.06,2.67.11,3.99"/>
    <path class="cls-1" d="m187.91,11.36c-.16,1.38-.21,2.76-.15,4.15"/>
    <path class="cls-1" d="m190.36,11.68v2.99"/>
    <path class="cls-1" d="m193.16,12.18c-.24.98-.24,2.02-.02,3"/>
    <path class="cls-1" d="m195.52,12.18c-.08.94-.05,1.89.07,2.83"/>
    <path class="cls-1" d="m198.11,13.01l.18,2.82"/>
    <path class="cls-1" d="m200.82,14.01c.17.76.22,1.55.16,2.32"/>
    <path class="cls-1" d="m203.33,15.18c-.24.8-.25,1.67-.02,2.48"/>
    <path class="cls-1" d="m205.78,14.84l.21,3.65"/>
    <path class="cls-1" d="m208.08,17l.2,3.15"/>
    <path class="cls-1" d="m210.47,18.16c-.17.7-.19,1.44-.06,2.15"/>
    <path class="cls-1" d="m214.57,16.66c.3,2.08.72,4.13,1.26,6.16"/>
    <path class="cls-1" d="m216.03,16.01c.31,1.82.83,3.6,1.54,5.3"/>
    <path class="cls-1" d="m218.54,15c.12,1.53.47,3.05,1.02,4.48"/>
    <path class="cls-1" d="m220.39,14.17c.09,1.43.42,2.84.96,4.16"/>
    <path class="cls-1" d="m222.87,12.68c-.02,1.46.21,2.93.68,4.31"/>
    <path class="cls-1" d="m224.65,12.03c.31,1.08.51,2.18.6,3.3"/>
    <path class="cls-1" d="m179.02,49.86l-.75-4.33"/>
    <path class="cls-1" d="m179.06,44.21l1.37,5.96"/>
    <path class="cls-1" d="m180.53,43.72l1.32,5.48"/>
    <path class="cls-1" d="m182.05,42.71c.15,1.35.42,2.69.81,3.99"/>
    <path class="cls-1" d="m183.11,39.05c.25,1.4.54,2.79.87,4.18"/>
    <path class="cls-1" d="m185.58,39.22l1.14,4.32"/>
    <path class="cls-1" d="m187.35,38.07l.83,5.64"/>
    <path class="cls-1" d="m188.75,37.23l1.06,5.5"/>
    <path class="cls-1" d="m190.51,35.58l.85,4.31"/>
    <path class="cls-1" d="m192.63,34.59l.5,4.15"/>
    <path class="cls-1" d="m194.44,33.93l.67,5.81"/>
    <path class="cls-1" d="m196.86,35.25c-.09,1,.17,2.03.71,2.87"/>
    <path class="cls-1" d="m198.65,34.08c0,1.18.16,2.36.5,3.49"/>
    <path class="cls-1" d="m200.65,32.09c-.03,1.28.07,2.56.29,3.82"/>
    <path class="cls-1" d="m202.8,32.26l.5.83"/>
    <path class="cls-1" d="m211.27,33.75h-.45c1.2-.13,2.4-.25,3.6-.37"/>
    <path class="cls-1" d="m208.78,37.41c2.05-.28,3.6-1.5,5.65-1.78-1.32.16-2.66.19-3.99.1"/>
    <path class="cls-1" d="m210.78,39.79c-2.4.38-4.79.84-7.16,1.37"/>
    <path class="cls-1" d="m201.48,43.25c3.29-.38,6.56-.94,9.79-1.69"/>
    <path class="cls-1" d="m200.96,44.34l-.46.22c.04.35.52.38.87.32,2.63-.46,5.27-.92,7.9-1.38"/>
    <path class="cls-1" d="m199.49,47.19c3.08-.18,6.14-.68,9.12-1.49"/>
    <path class="cls-1" d="m200,49.33c2.49-.26,4.97-.6,7.44-1.03"/>
    <path class="cls-1" d="m200.46,51.42c1.83.56,3.82.58,5.66.06"/>
    <path class="cls-1" d="m230.82,9.2c.21,1.37.62,2.71,1.19,3.98"/>
    <path class="cls-1" d="m233.12,9.54l.67,3.32"/>
    <path class="cls-1" d="m235.17,8.86c-.1,1.4.05,2.82.44,4.16"/>
    <path class="cls-1" d="m237.31,6.54c.04,1.63.32,3.26.83,4.82"/>
    <path class="cls-1" d="m239.83,9.02l.75,2.84"/>
    <path class="cls-1" d="m242.16,8.03c.04.83.29,1.66.73,2.37"/>
    <path class="cls-1" d="m244.21,8.5c.31.89.59,1.79.83,2.71"/>
    <path class="cls-1" d="m246.8,8.7c-.13,1.07,0,2.18.38,3.18"/>
    <path class="cls-1" d="m220.03,23.28c-.45.81-.68,1.74-.66,2.67"/>
    <path class="cls-1" d="m223.92,21.83c-.47,1.1-.78,2.27-.91,3.46"/>
    <path class="cls-1" d="m226.07,21.82c-.54,1.28-.96,2.6-1.25,3.96"/>
    <path class="cls-1" d="m228.2,21.64c-.44,1.24-.79,2.51-1.04,3.81"/>
    <path class="cls-1" d="m232.89,21.49c-.42,1.72-.9,3.43-1.44,5.11"/>
    <path class="cls-1" d="m234.65,21.96c-.99,1.93-1.7,4-2.1,6.12"/>
    <path class="cls-1" d="m236.84,20.98l-1.25,3.45"/>
    <path class="cls-1" d="m241.25,21.62l-2.7,5.98c-.07.15-.13.31-.1.47s.23.29.36.2"/>
    <path class="cls-1" d="m242.56,22.59c.11.54-.23,1.05-.54,1.51-.66.99-1.23,2.04-1.7,3.13-.17.4-.31.89-.04,1.23"/>
    <path class="cls-1" d="m244.34,22.99l-1.95,4.42"/>
    <path class="cls-1" d="m248.96,23.64l-3.07,6.26c-.13.26-.11.74.18.67"/>
    <path class="cls-1" d="m250.44,24.3l-1.99,4.94c-.24.6-.48,1.28-.2,1.86"/>
    <path class="cls-1" d="m253,24.84c-1.2,2.17-2.26,4.41-3.18,6.71"/>
    <path class="cls-1" d="m254.4,25.28c-.4.66-.67,1.4-.78,2.17"/>
    <path class="cls-1" d="m260.89,26.79c-1.95,1.99-3.81,4.07-5.57,6.22"/>
    <path class="cls-1" d="m261.03,28.42c-.77.73-1.34,1.66-1.63,2.68"/>
    <path class="cls-1" d="m265.05,29.79c-1.37,1.74-2.57,3.61-3.6,5.58"/>
    <path class="cls-1" d="m265.22,31.95c-.91,1.12-1.64,2.39-2.16,3.74"/>
    <path class="cls-1" d="m267.2,31.94c-.89.98-1.64,2.09-2.22,3.28"/>
    <path class="cls-1" d="m271.49,33.75c.27,1.11-.42,2.21-1.07,3.15-.99,1.43-1.97,2.85-2.96,4.28"/>
    <path class="cls-1" d="m272.88,35.78c-1.3,1.96-2.51,3.99-3.61,6.07"/>
    <path class="cls-1" d="m272.81,38.06l-1.18,1.65"/>
    <path class="cls-1" d="m275.87,39.11c-1.45,1.9-2.72,3.93-3.79,6.05"/>
    <path class="cls-1" d="m276.92,41.12l-4.14,6.58c-.5.79-1,1.59-1.38,2.44"/>
    <path class="cls-1" d="m277.75,43.1l-2.48,4.22c-.16.26-.27.69.01.81"/>
    <path class="cls-1" d="m280.03,44.09c-.93,1.44-1.7,2.97-2.32,4.57"/>
    <path class="cls-1" d="m281.3,46.37c-.47,1.8-1.01,3.57-1.63,5.32"/>
    <path class="cls-1" d="m76.66,72.82l-.42.3c1.28.11,2.59-.16,3.73-.76"/>
    <path class="cls-1" d="m78.3,75.5h1.73"/>
    <path class="cls-1" d="m80.38,77.82c.54.08,1.09.12,1.64.1"/>
    <path class="cls-1" d="m88.84,69.89l2.07-1.04"/>
    <path class="cls-1" d="m55.06,35.96c.49-1.12,1.12-2.18,1.87-3.14"/>
    <path class="cls-1" d="m57.93,32.34l.21-.43c-.94,1.01-1.67,2.23-2.12,3.54"/>
    <path class="cls-1" d="m59.45,30.76c-.98,1.44-1.88,2.94-2.69,4.48"/>
    <path class="cls-1" d="m60.51,30.77c-1.2,1.39-2.21,2.93-3.01,4.58"/>
    <path class="cls-1" d="m58.17,36.13c.06-.58.37-1.1.67-1.6.8-1.32,1.63-2.62,2.5-3.89-.49.77-.47,1.96-.97,2.73-.54.84-2.02,1.79-2.2,2.77Z"/>
    <path class="cls-1" d="m62.43,31.65l-2.54,4.25c-.05.08-.09.16-.09.25s.09.18.18.16"/>
    <path class="cls-1" d="m62.33,33.2c.03-.11.12-.21.23-.25-.59,1-1.19,2.01-1.78,3.01-.1.16-.18.42-.01.51"/>
    <path class="cls-1" d="m61.9,36.48c.47-.77,1.02-1.5,1.64-2.16"/>
    <path class="cls-1" d="m59.21,31.81l-1.03,1.73"/>
    <path class="cls-1" d="m60.89,30.97c-.61.85-1.13,1.77-1.53,2.73"/>
    <path class="cls-1" d="m61.84,30.97c-.6,1.09-1.09,2.24-1.46,3.42"/>
    <path class="cls-1" d="m62.95,30.79l-1.22,2.6c-.09.19-.17.45-.02.59"/>
    <path class="cls-1" d="m63.79,33.37c-.35.51-.83.74-1.04,1.32-.1-.09-.06-.25-.01-.37l1.08-2.83"/>
    <path class="cls-1" d="m50.41,38.64c-.28.84-.98,1.5-1.26,2.34.14-.58.41-1.13.8-1.59"/>
    <path class="cls-1" d="m51.12,37.41c-.07,0,0-.12.05-.08s.04.12.02.18c-.3.98-.6,1.95-.89,2.93"/>
    <path class="cls-1" d="m52.36,36.16c-.59,1.29-1.05,2.65-1.35,4.03"/>
    <path class="cls-1" d="m53.28,35.8l-1.61,4.21"/>
    <path class="cls-1" d="m53.89,35.45c-.46,1.09-.77,2.23-.28,3.36"/>
    <path class="cls-1" d="m50.57,45.37l.11-1.47c-.03.37.37.83.33,1.2.12-.03-.45.39-.44.26Z"/>
    <path class="cls-1" d="m52.68,43.31c-.25.66-.91,1.1-.97,1.81-.04-.52.01-1.05.15-1.56"/>
    <path class="cls-1" d="m53.35,42.87c-.3.71-.47,1.48-.52,2.25"/>
    <path class="cls-1" d="m54.17,41.93c-.26,1.11-.46,2.22-.61,3.35"/>
    <path class="cls-1" d="m55.16,40.97c-.44,1.36-.82,2.74-1.15,4.13.09.01.18-.06.19-.15"/>
    <path class="cls-1" d="m55.71,43.74l.33-1.9"/>
    <path class="cls-1" d="m64.49,30.61c-.16.32-.25.68-.27,1.03"/>
    <path class="cls-1" d="m65.11,30.62l-.29,1.37"/>
    <path class="cls-1" d="m66.07,30.45l-.54,2.33"/>
    <path class="cls-1" d="m67.01,30.36l-.63,3.19"/>
    <path class="cls-1" d="m67.78,30.87l-.55,2.84"/>
    <path class="cls-1" d="m69.08,30.44c-.41,1.25-.78,2.51-1.1,3.78"/>
    <path class="cls-1" d="m70.01,30.87c-.3,1.19-.55,2.4-.75,3.62"/>
    <path class="cls-1" d="m71.07,30.96c-.4,1.38-.71,2.79-.92,4.22"/>
    <path class="cls-1" d="m72.05,31.23l-.77,3.11c-.11.42-.21.87-.09,1.29"/>
    <path class="cls-1" d="m72.81,31.66l-1.02,4.02c-.03.13-.06.29.03.39"/>
    <path class="cls-1" d="m74.07,31.73c-.53,1.4-.95,2.84-1.23,4.31"/>
    <path class="cls-1" d="m74.92,32.42l-.78,3.8"/>
    <path class="cls-1" d="m76.01,32.35c-.39,1.38-.67,2.79-.86,4.21"/>
    <path class="cls-1" d="m77.12,32.61c-.38,1.25-.72,2.51-1.04,3.78"/>
    <path class="cls-1" d="m78.04,32.6c-.43,1.08-.73,2.21-.88,3.37"/>
    <path class="cls-1" d="m79.26,31.39c-.53,1.15-.92,2.37-1.16,3.62"/>
    <path class="cls-1" d="m80.46,29.92c-.51,1.47-.92,2.96-1.25,4.48"/>
    <path class="cls-1" d="m81.44,28.98c-.55,1.6-.99,3.24-1.31,4.9"/>
    <path class="cls-1" d="m82.35,28.54l-1.27,4.67"/>
    <path class="cls-1" d="m78.31,35.79c-.33,1.15-.54,2.34-.63,3.54"/>
    <path class="cls-1" d="m79.69,34.33l-1.17,5.69"/>
    <path class="cls-1" d="m80.8,33.81l-1.29,6.2"/>
    <path class="cls-1" d="m81.78,34.17l-1.24,4.41c-.04.14-.05.34.09.39"/>
    <path class="cls-1" d="m83.01,33.39l-1.34,4.81c.09,0,.17-.07.16-.16"/>
    <path class="cls-1" d="m83.69,33.04c-.31,1.89-.73,3.76-1.25,5.6"/>
    <path class="cls-1" d="m83.99,36.82c-.47,1.46-.8,2.97-.97,4.49"/>
    <path class="cls-1" d="m84.74,37.44l-.82,4.38"/>
    <path class="cls-1" d="m85.38,37.78c.04.96-.08,1.93-.35,2.85"/>
    <path class="cls-1" d="m75.34,41.04c-.32.43-.52.95-.54,1.49"/>
    <path class="cls-1" d="m78.64,38.55c-.45,1.25-.74,2.56-.87,3.89"/>
    <path class="cls-1" d="m81.47,37.79l-1.05,6.37"/>
    <path class="cls-1" d="m82.99,38.65l-1.02,4.61c-.13.59-.26,1.19-.2,1.78"/>
    <path class="cls-1" d="m84.3,38.91l-1,6.12"/>
    <path class="cls-1" d="m85.25,38.64l-.07,3.8"/>
    <path class="cls-1" d="m67.07,29.66c.39-.84.86-1.65,1.4-2.41"/>
    <path class="cls-1" d="m69.73,29.48c.31-.89.75-1.74,1.31-2.51"/>
    <path class="cls-1" d="m71.21,30.35c.41-.95.88-1.86,1.4-2.75"/>
    <path class="cls-1" d="m72.84,31.47c.33-.88.78-1.72,1.33-2.49"/>
    <path class="cls-1" d="m58.47,21.81c.04.58.25,1.15.59,1.63"/>
    <path class="cls-1" d="m58.95,20.77c.14.89.39,1.77.74,2.61"/>
    <path class="cls-1" d="m59.32,20.16c.27.75.6,1.49.99,2.18"/>
    <path class="cls-1" d="m59.92,19.47l1.03,2.5"/>
    <path class="cls-1" d="m60.59,18.62l.89,2.58"/>
    <path class="cls-1" d="m60.98,17.48c.35,1.2.74,2.38,1.15,3.56"/>
    <path class="cls-1" d="m61.33,16.27l1.15,3.47"/>
    <path class="cls-1" d="m62,14.64c.31,1.06.67,2.1,1.07,3.13"/>
    <path class="cls-1" d="m62.75,13.26c.53,1.07.92,2.21,1.16,3.37"/>
    <path class="cls-1" d="m63.63,13.09c.55,1.46.98,2.96,1.27,4.49"/>
    <path class="cls-1" d="m64.31,12.66c.57,1.38.97,2.84,1.17,4.32"/>
    <path class="cls-1" d="m65.24,10.85c.39.98.72,1.99.96,3.01"/>
    <path class="cls-1" d="m66.74,11.01l.79,2.67"/>
    <path class="cls-1" d="m68.12,10.67c.25,1.39.52,2.77.82,4.15"/>
    <path class="cls-1" d="m69.31,9.81l.43,3.37"/>
    <path class="cls-1" d="m73.39,8.16c.3.93.53,1.89.66,2.85"/>
    <path class="cls-1" d="m74.83,8.51l.11.86"/>
    <path class="cls-1" d="m62.88,17.83l.4,1.73"/>
    <path class="cls-1" d="m47.12,22.84l.11,1.64"/>
    <path class="cls-1" d="m48.53,23.02c-.05.52-.03,1.04.06,1.56"/>
    <path class="cls-1" d="m49.96,23.18c-.07.35-.04.72.11,1.04"/>
    <path class="cls-1" d="m51.1,22.93l.18,1.64"/>
    <path class="cls-1" d="m52.43,23.1c.07.61.17,1.22.29,1.82"/>
    <path class="cls-1" d="m53.73,23.27c.03.58.18,1.15.44,1.67"/>
    <path class="cls-1" d="m55.11,23.27l.29,2.25"/>
    <path class="cls-1" d="m56,23.45l.29,2.59"/>
    <path class="cls-1" d="m56.83,23.1l.72,3.55"/>
    <path class="cls-1" d="m58.09,23.53l.5,4.49"/>
    <path class="cls-1" d="m59.05,25.09c.08,1.16.21,2.31.4,3.46"/>
    <path class="cls-1" d="m60.08,24.9c.23,1.11.31,2.25.24,3.38"/>
    <path class="cls-1" d="m61.11,24.92l.33,2.33"/>
    <path class="cls-1" d="m62.23,23.62l.19,2.5"/>
    <path class="cls-1" d="m63.28,23.79c.03.44.1.88.23,1.3"/>
    <path class="cls-1" d="m64.13,23.28c.08.4.11.8.11,1.21"/>
    <path class="cls-1" d="m65.03,22.49l.16,1.12"/>
    <path class="cls-1" d="m66.15,21.8l.39,1.05"/>
    <path class="cls-1" d="m67.28,20.81c.21.12.36.33.4.56"/>
    <path class="cls-1" d="m61.78,28c-.24.42-.31.93-.21,1.4"/>
    <path class="cls-1" d="m62.34,27.16c-.06.36.03.74.23,1.05"/>
    <path class="cls-1" d="m63.64,26.03c.19.29.32.62.39.96"/>
    <path class="cls-1" d="m59.99,29.14c-.02.75,0,1.5.07,2.25"/>
    <path class="cls-1" d="m58.69,29.49c.04.66.4,1.15.44,1.81l.16-1.64"/>
    <path class="cls-1" d="m68.81,19.39c-.06.44,0,.89.16,1.3"/>
    <path class="cls-1" d="m69.94,19.13c0,.16-.02.34.06.48s.26.25.41.17"/>
    <path class="cls-1" d="m71.83,17.84c-.07.42.02.86.24,1.21"/>
    <path class="cls-1" d="m72.96,17.75c-.04.4.08.81.32,1.14"/>
    <path class="cls-1" d="m75.04,16.97c.04.42.15.83.32,1.21"/>
    <path class="cls-1" d="m76.71,17.05c-.07.46-.04.94.1,1.39"/>
    <path class="cls-1" d="m78.14,16.97c-.05.4-.03.81.06,1.21"/>
    <path class="cls-1" d="m79.69,16.89c-.05.37-.03.76.06,1.13"/>
    <path class="cls-1" d="m81.18,16.46c-.1.4-.07.84.09,1.23"/>
    <path class="cls-1" d="m82.63,16.63c-.07.32-.02.67.15.95"/>
    <path class="cls-1" d="m84.16,16.54l.1.95"/>
    <path class="cls-1" d="m85.87,16.1c-.11.31-.11.66.02.96"/>
    <path class="cls-1" d="m87.28,16.54c-.17.28-.1.68.15.88"/>
    <path class="cls-1" d="m88.75,16.45c-.15.27-.06.6.04.89.05.14.26.28.29.14"/>
    <path class="cls-1" d="m90.59,16.11c-.1.52-.07,1.06.08,1.57"/>
    <path class="cls-1" d="m92.21,16.28c-.08.46-.03.95.14,1.39"/>
    <path class="cls-1" d="m93.85,16.72c-.23.37-.13.91.23,1.16"/>
    <path class="cls-1" d="m95.38,16.88l.17,1.39c0,.07.02.15.07.21s.16.05.18-.02"/>
    <path class="cls-1" d="m97.24,16.98c-.12.5-.15,1.03-.09,1.54.02.18.15.42.32.36"/>
    <path class="cls-1" d="m98.96,17.32c-.07.71-.09,1.43-.05,2.15.09,0,.19,0,.28.01"/>
    <path class="cls-1" d="m100.5,18.01c-.29.69-.3,1.5,0,2.19"/>
    <path class="cls-1" d="m101.98,18.7c-.13.62-.15,1.26-.05,1.88.01.08.03.16.09.21s.17.05.2-.03"/>
    <path class="cls-1" d="m103.52,19.22l-.42,2.31c-.04.23-.06.52.15.64"/>
    <path class="cls-1" d="m104.54,19.99l-.17,2.04c-.02.21.06.51.26.47"/>
    <path class="cls-1" d="m105.82,21.04c-.17.97-.27,1.94-.31,2.92"/>
    <path class="cls-1" d="m106.99,21.99c-.22.84-.32,1.71-.29,2.58"/>
    <path class="cls-1" d="m84.78,35.28c.49-.96,1.13-1.83,1.9-2.59"/>
    <path class="cls-1" d="m86.13,36.3c.43-1,1.03-1.94,1.75-2.75"/>
    <path class="cls-1" d="m88.71,34.04c.62-.99,1.37-1.91,2.21-2.72"/>
    <path class="cls-1" d="m92.98,38.03c-.08.03-.19,0-.24-.08.36-.83.82-1.61,1.36-2.33"/>
    <path class="cls-1" d="m93.07,40.2l1.37-2.08"/>
    <path class="cls-1" d="m94.18,39.84l.87-1.12"/>
    <path class="cls-1" d="m101.19,45.12l1.38-1.47"/>
    <path class="cls-1" d="m102.27,46.82c.48-.69,1.01-1.35,1.59-1.96"/>
    <path class="cls-1" d="m107.14,48.92c.29-.66.64-1.3,1.03-1.9"/>
    <path class="cls-1" d="m108.2,50.41c.31-.36.59-.74.82-1.15"/>
    <path class="cls-1" d="m37.97,47.81c.81.65,1.6,1.33,2.36,2.04"/>
    <path class="cls-1" d="m40.67,45.36c-.13-.11-.19-.29-.15-.45.79.62,1.58,1.24,2.37,1.86"/>
    <path class="cls-1" d="m42.13,44.08c.73.86,1.57,1.62,2.49,2.27"/>
    <path class="cls-1" d="m43.34,43.3l2.06,1.73"/>
    <path class="cls-1" d="m44.29,41.49c.52.61,1.08,1.17,1.69,1.68"/>
    <path class="cls-1" d="m46.01,40.46c.31.58.85,1.03,1.47,1.24"/>
    <path class="cls-1" d="m46.89,37.59c.49.6.99,1.19,1.51,1.77"/>
    <path class="cls-1" d="m48.53,36.56l1.09,1.41"/>
    <path class="cls-1" d="m50.17,35.1c.15.48.45.91.84,1.23"/>
    <path class="cls-1" d="m51.81,33.11c.18.57.62,1.05,1.17,1.28"/>
    <path class="cls-1" d="m53.92,31.37c.23.53.59,1,1.05,1.35"/>
    <path class="cls-1" d="m56.12,30.44c.28.36.63.66,1.04.87"/>
    <path class="cls-1" d="m37.45,63.53c.59.56,1.27,1.02,2.01,1.36"/>
    <path class="cls-1" d="m38.75,60.58c.4.64.9,1.23,1.48,1.73"/>
    <path class="cls-1" d="m37.98,59.11c.51.56,1.09,1.06,1.71,1.49"/>
    <path class="cls-1" d="m38.59,58.32l1.62,1.49"/>
    <path class="cls-1" d="m39.74,58.1l.66.4"/>
    <path class="cls-1" d="m10.11,57.29c.15.44.39.85.69,1.21"/>
    <path class="cls-1" d="m10.28,55.3c.37.84.86,1.64,1.45,2.34"/>
    <path class="cls-1" d="m10.15,52.91l2.36,3.61"/>
    <path class="cls-1" d="m10.61,51.51c1.36,1.76,2.64,3.59,3.84,5.47"/>
    <path class="cls-1" d="m11.67,50.11c1.03,1.52,2.07,3.03,3.13,4.53"/>
    <path class="cls-1" d="m11.56,47.62l3.96,5.11"/>
    <path class="cls-1" d="m12.5,45.82c1.7,2.04,3.28,4.18,4.73,6.4"/>
    <path class="cls-1" d="m13.04,44.16c1.88,2.48,3.68,5.03,5.39,7.63"/>
    <path class="cls-1" d="m13.74,42.08c2.03,2.72,3.95,5.52,5.76,8.39"/>
    <path class="cls-1" d="m15.18,40.98c1.74,2.58,3.46,5.18,5.15,7.79"/>
    <path class="cls-1" d="m16.24,39.93c-.27-.28-.39-.7-.3-1.08,1.83,2.36,3.5,4.84,5,7.41"/>
    <path class="cls-1" d="m17.54,36.73c1.67,2.3,3.23,4.68,4.67,7.13"/>
    <path class="cls-1" d="m19.14,35.12c.71.71,1.35,1.48,1.91,2.31.73,1.1,1.33,2.29,2.15,3.32.1.12.22.25.38.23"/>
    <path class="cls-1" d="m20.8,34.04c.06-.12.23-.14.34-.08s.19.17.26.28c.85,1.31,1.69,2.62,2.54,3.93"/>
    <path class="cls-1" d="m23.04,33.58c.49.71.92,1.46,1.29,2.24.18.37.39.79.79.88"/>
    <path class="cls-1" d="m24.33,33.58c-.06-.05.02-.15.1-.13s.11.1.14.17c.36.89.84,1.73,1.41,2.49"/>
    <path class="cls-1" d="m25.72,33.46c-.16-.24-.12-.59.09-.8.42.79.84,1.58,1.24,2.38"/>
    <path class="cls-1" d="m27.02,31.82l.85,1.56"/>
    <path class="cls-1" d="m27.48,29.91l1.24,2.45"/>
    <path class="cls-1" d="m27.81,27.15c.52.86.89,1.81,1.09,2.79.1.49.18,1.01.49,1.4"/>
    <path class="cls-1" d="m28.02,25.76c.59,1.41,1.09,2.86,1.48,4.34"/>
    <path class="cls-1" d="m29.02,31.64c.25.65.8,1.17,1.46,1.39"/>
    <path class="cls-1" d="m62.67,39.67c.87-.9,1.75-1.8,2.62-2.7l-.2.11"/>
    <path class="cls-1" d="m65.69,38.12c-.9.67-1.73,1.43-2.49,2.26"/>
    <path class="cls-1" d="m65.78,39.59c-.91.41-1.71,1.06-2.29,1.87"/>
    <path class="cls-1" d="m65.6,40.69c-.44.16-.82.44-1.11.8"/>
    <path class="cls-1" d="m64.14,52.42c1.47.02,2.94-.04,4.41-.17"/>
    <path class="cls-1" d="m64.66,51.24c1.16.02,2.31-.06,3.46-.23"/>
    <path class="cls-1" d="m63.11,50.1c1.48,0,2.95-.12,4.41-.37"/>
    <path class="cls-1" d="m63.28,48.88c1.53.08,3.06,0,4.58-.21"/>
    <path class="cls-1" d="m63.11,47.34c1.41.03,2.83-.05,4.23-.22"/>
    <path class="cls-1" d="m63.36,46.31c1.27.13,2.55.07,3.81-.16"/>
    <path class="cls-1" d="m62.5,45.19c1.59-.11,3.17-.24,4.75-.4"/>
    <path class="cls-1" d="m62.5,44.09c1.3,0,2.59-.06,3.88-.19"/>
    <path class="cls-1" d="m61.81,43.22c1.59-.13,3.17-.29,4.75-.49"/>
    <path class="cls-1" d="m61.64,41.9c1.57-.03,3.13-.18,4.67-.46"/>
    <path class="cls-1" d="m61.64,40.77c1.36.05,2.73-.04,4.07-.26"/>
    <path class="cls-1" d="m61.64,39.85c1.24-.04,2.48-.15,3.72-.32"/>
    <path class="cls-1" d="m62.51,38.57l2.59-.44"/>
    <path class="cls-1" d="m58.62,41.34l4.14-.36"/>
    <path class="cls-1" d="m59.58,40.58l4.22-.83"/>
    <path class="cls-1" d="m56.18,42.71c.37.56.93.99,1.57,1.21"/>
    <path class="cls-1" d="m58.36,42.8l-2.33-1.22c1.12.17,2.5.2,3.62.37"/>
    <path class="cls-1" d="m57.83,40.86c1.14.26,2.3.4,3.47.42"/>
    <path class="cls-1" d="m66.3,65.77c1.58-.1,3.14-.37,4.66-.78"/>
    <path class="cls-1" d="m65.7,64.24c1.66.11,3.33-.03,4.94-.41"/>
    <path class="cls-1" d="m65.52,63.21c1.8.07,3.6-.09,5.36-.47"/>
    <path class="cls-1" d="m65.26,62.09c1.77.09,3.55-.07,5.27-.47"/>
    <path class="cls-1" d="m65.18,60.97c1.85.08,3.71-.04,5.53-.35"/>
    <path class="cls-1" d="m64.92,59.82c1.7.11,3.42,0,5.09-.31"/>
    <path class="cls-1" d="m64.4,58.41c1.76.06,3.52-.03,5.26-.27"/>
    <path class="cls-1" d="m64.57,57.25c1.76.1,3.53.01,5.27-.27"/>
    <path class="cls-1" d="m63.89,55.89c1.81.09,3.63.04,5.44-.15"/>
    <path class="cls-1" d="m64.23,54.79c1.61.12,3.23.09,4.83-.1"/>
    <path class="cls-1" d="m64.32,53.8c1.5.06,3.01-.04,4.5-.27"/>
    <path class="cls-1" d="m63.63,52.47l4.66-.15"/>
    <path class="cls-1" d="m63.71,50.99c1.27-.03,2.54-.14,3.8-.35"/>
    <path class="cls-1" d="m63.32,39.93c.38-1.39.58-3.19,1.26-4.45.53.37.7,1.53.87,2.12.29,1.02.53,2.05.71,3.1"/>
    <path class="cls-1" d="m71.91,126.34c-.07.03.02.14.11.15,1.53.25,3.08.45,4.62.6"/>
    <path class="cls-1" d="m71.27,124.93l5.63.68c.18.02.37.04.53-.05"/>
    <path class="cls-1" d="m70.92,123.1c1.86.31,3.72.55,5.59.72"/>
    <path class="cls-1" d="m70.99,121.04c1.85.48,3.75.79,5.66.91"/>
    <path class="cls-1" d="m70.99,119.48c1.78.32,3.57.57,5.37.75"/>
    <path class="cls-1" d="m70.78,117.51c1.91.46,3.85.8,5.8,1.02"/>
    <path class="cls-1" d="m70.7,115.82c1.86.6,3.79.97,5.74,1.1"/>
    <path class="cls-1" d="m70.76,114.17l5.06,1.03c.18.04.39.07.54-.04"/>
    <path class="cls-1" d="m70.35,112.39c-.08-.03.04-.12.12-.11,1.53.23,3.04.51,4.55.84.42.09.86.19,1.28.1"/>
    <path class="cls-1" d="m70.12,110.41c.68.24,1.37.44,2.07.6.65.15,1.32.25,1.98.36.73.12,1.48.24,2.2.06"/>
    <path class="cls-1" d="m70.49,108.47l5.19,1.21c.34.08.69.16,1.04.16"/>
    <path class="cls-1" d="m69.71,106.36c1.95.49,3.89,1.04,5.8,1.66.12.04.27.08.37,0s0-.3-.11-.23"/>
    <path class="cls-1" d="m69.79,104.47c1.8.69,3.63,1.29,5.48,1.81.11.03.22.06.33.03s.2-.14.17-.25"/>
    <path class="cls-1" d="m69.88,102.31l5.29,1.84c.3.1.64.2.91.03"/>
    <path class="cls-1" d="m69.53,99.99c1.87.92,3.82,1.67,5.83,2.22"/>
    <path class="cls-1" d="m69.28,97.78c1.73.88,3.53,1.63,5.36,2.25.17.06.37.11.52.01s.11-.4-.07-.38"/>
    <path class="cls-1" d="m69.38,95.9c1.08.68,2.23,1.22,3.44,1.62.6.2,1.23.37,1.85.27"/>
    <path class="cls-1" d="m68.75,93.56c1.09.63,2.2,1.22,3.33,1.77.66.32,1.36.64,2.09.6"/>
    <path class="cls-1" d="m68.69,91.99c1.68,1.07,3.5,1.91,5.4,2.48"/>
    <path class="cls-1" d="m68.16,90.13c1.35,1.13,2.99,1.92,4.73,2.25"/>
    <path class="cls-1" d="m67.46,88.21c1.28,1,2.77,1.73,4.34,2.13.09.02.22.02.24-.07"/>
    <path class="cls-1" d="m67.84,86.63c.66.84,1.58,1.47,2.6,1.79.13.04.35.01.33-.12"/>
    <path class="cls-1" d="m67.26,84.67c.81.73,1.63,1.44,2.46,2.14"/>
    <path class="cls-1" d="m70,129.28c1.67.19,3.35.2,5.02.03"/>
    <path class="cls-1" d="m69.37,127.53c2.13.51,4.31.82,6.5.94"/>
    <path class="cls-1" d="m68.23,125.56c2.31.6,4.69.91,7.07.91"/>
    <path class="cls-1" d="m68.87,123.5c2.46.39,4.94.62,7.42.71"/>
    <path class="cls-1" d="m69.79,120.6l7,.87"/>
    <path class="cls-1" d="m70.57,117.01l6.58,1.18"/>
    <path class="cls-1" d="m81.6,99.25c.16-.22.38-.39.63-.5"/>
    <path class="cls-1" d="m82.69,100.01c.19-.36.48-.67.82-.89"/>
    <path class="cls-1" d="m83.62,100.37c.41-.3.81-.61,1.21-.93"/>
    <path class="cls-1" d="m84.51,101.53c.46-.39.88-.82,1.25-1.29"/>
    <path class="cls-1" d="m85.43,102.3c.4-.58.87-1.11,1.39-1.58"/>
    <path class="cls-1" d="m86.99,103.22l1.33-1.49"/>
    <path class="cls-1" d="m89.45,104.49c-.06,0-.12.06-.12.12.38-.49.72-1.01,1.03-1.54"/>
    <path class="cls-1" d="m91.69,105.68l1.09-1.75"/>
    <path class="cls-1" d="m93.79,106.65c.38-.71.83-1.38,1.34-2.01"/>
    <path class="cls-1" d="m96.22,107.98c.74-1.39,1.44-2.79,2.12-4.21"/>
    <path class="cls-1" d="m99.05,107.45l-.06.19c.45-.66,1-1.25,1.62-1.74"/>
    <path class="cls-1" d="m101.53,108.63s-.02.05-.04.02,0-.06.03-.08c.71-.82,1.35-1.7,1.92-2.62"/>
    <path class="cls-1" d="m107.63,110.22l-.23-.05c1.08-1.53,1.94-3.21,2.57-4.97"/>
    <path class="cls-1" d="m104.01,109.94s-.1-.03-.09-.08c.95-1.34,1.9-2.67,2.85-4.01"/>
    <path class="cls-1" d="m80.75,98.1l.32-.58"/>
    <path class="cls-1" d="m81.58,99.12c.3-.41.65-.78,1.05-1.1"/>
    <path class="cls-1" d="m82.98,100.57c.33-.59.77-1.12,1.28-1.56"/>
    <path class="cls-1" d="m84.21,101.32c.56-.45.72-1.31,1.36-1.64"/>
    <path class="cls-1" d="m85.7,102l1.28-1.95"/>
    <path class="cls-1" d="m86.78,102.89c.54-.99,1.14-1.94,1.82-2.84"/>
    <path class="cls-1" d="m88.21,103.49c-.06.03-.03.15.04.15.7-1.09,1.44-2.17,2.19-3.23"/>
    <path class="cls-1" d="m89.86,104.21c.65-.93,1.28-1.87,1.89-2.82"/>
    <path class="cls-1" d="m90.97,105.45c.79-1.1,1.53-2.24,2.2-3.41"/>
    <path class="cls-1" d="m92.03,106.84c.94-1.64,1.98-3.22,3.1-4.74"/>
    <path class="cls-1" d="m93.87,107.05c.86-1.72,2.15-3.17,3.42-4.61"/>
    <path class="cls-1" d="m96.44,107.69c.56-1.13,1.21-2.21,1.92-3.25"/>
    <path class="cls-1" d="m98.71,107.65c.63-1.1,1.33-2.17,2.1-3.18"/>
    <path class="cls-1" d="m100.3,108.26c.49-1.11,1.08-2.17,1.77-3.16"/>
    <path class="cls-1" d="m101.46,109.16c.72-1.13,1.37-2.31,1.93-3.53"/>
    <path class="cls-1" d="m103.43,110.15l2.15-3.56"/>
    <path class="cls-1" d="m105.62,110.21c.84-1.52,1.7-3.04,2.59-4.53"/>
    <path class="cls-1" d="m109.3,110.85c.75-1.16,1.43-2.37,2.02-3.61"/>
    <path class="cls-1" d="m111.32,110.73c.83-1.34,1.59-2.72,2.27-4.14"/>
    <path class="cls-1" d="m114.49,110.79c.58-1.56,1.28-3.07,2.09-4.52"/>
    <path class="cls-1" d="m115.73,110.79c.98-1.51,1.88-3.07,2.7-4.67"/>
    <path class="cls-1" d="m118.26,110.79c.72-1.59,1.52-3.15,2.39-4.66"/>
    <path class="cls-1" d="m119.82,109.87c.47-1.37,1.17-2.66,2.06-3.8"/>
    <path class="cls-1" d="m121.75,110.73c.82-1.33,1.55-2.72,2.19-4.15"/>
    <path class="cls-1" d="m125.02,110.49c.89-1.45,1.62-3.01,2.15-4.62"/>
    <path class="cls-1" d="m126.62,110.19c.49-1.38,1.19-2.69,2.07-3.86"/>
    <path class="cls-1" d="m129.76,110.65l3.07-7.37"/>
    <path class="cls-1" d="m132.76,109.76c1.11-2.46,2.06-4.99,2.84-7.58"/>
    <path class="cls-1" d="m135.01,108.91c1.07-2.26,2.02-4.57,2.83-6.93"/>
    <path class="cls-1" d="m137.51,108.51l2.11-4.84"/>
    <path class="cls-1" d="m139.21,108.48c1.13-1.89,2.11-3.87,2.91-5.93"/>
    <path class="cls-1" d="m141.14,108.22c.98-1.77,1.81-3.62,2.48-5.53"/>
    <path class="cls-1" d="m143.14,107.63c1.19-2.41,2.21-4.91,3.04-7.47"/>
    <path class="cls-1" d="m145.69,106.64c.87-1.69,1.5-3.5,1.88-5.37"/>
    <path class="cls-1" d="m147.34,105.82c1.06-1.76,1.59-3.79,2.1-5.78"/>
    <path class="cls-1" d="m149.46,104.45c.33-1.94.85-3.86,1.56-5.7"/>
    <path class="cls-1" d="m153.21,104.19c.07-2.3.3-4.6.69-6.87"/>
    <path class="cls-1" d="m154.5,103.47c.59-2.26.94-4.59,1.04-6.93"/>
    <path class="cls-1" d="m156.99,102.31c.39-2.23.7-4.48.93-6.74"/>
    <path class="cls-1" d="m158.64,100.69c.75-2.39,1.15-4.88,1.21-7.38"/>
    <path class="cls-1" d="m161.06,99.59c.42-2.45.74-4.91.97-7.39"/>
    <path class="cls-1" d="m163.09,98.84c.84-2.06.65-4.37.97-6.57"/>
    <path class="cls-1" d="m164.9,97.78l.83-7"/>
    <path class="cls-1" d="m166.95,96.87c.29-1.84.48-3.7.57-5.57"/>
    <path class="cls-1" d="m168.81,94.22c.22-2.03.41-4.06.56-6.09"/>
    <path class="cls-1" d="m170.76,92.54l.32-3.43c.13-1.35.26-2.72.7-4"/>
    <path class="cls-1" d="m173.12,90.27c.32-1.69.55-3.4.67-5.12"/>
    <path class="cls-1" d="m175.23,86.9l.9-4.08"/>
    <path class="cls-1" d="m142.53,89.94c0-.52.19-1.03.52-1.42"/>
    <path class="cls-1" d="m143.64,89.88l.43-1.37"/>
    <path class="cls-1" d="m144.41,89.68l.44-1.36"/>
    <path class="cls-1" d="m145.6,89.63l.43-1.17"/>
    <path class="cls-1" d="m146.32,89.64c.27-.44.45-.94.54-1.45"/>
    <path class="cls-1" d="m147.27,89.43c.34-.59.6-1.22.77-1.88"/>
    <path class="cls-1" d="m148.32,89.11c.38-.63.71-1.29,1.01-1.96"/>
    <path class="cls-1" d="m149.56,88.87c.46-.55.74-1.26.79-1.97"/>
    <path class="cls-1" d="m150.64,88.14c-.03.06.1.05.14,0,.38-.54.64-1.16.75-1.81"/>
    <path class="cls-1" d="m151.79,88.16s-.01.06.02.06.05-.03.07-.06c.3-.58.53-1.2.69-1.84"/>
    <path class="cls-1" d="m152.95,87.63c-.06.02-.02.12.04.12s.11-.05.14-.1c.39-.54.65-1.18.74-1.85"/>
    <path class="cls-1" d="m154.11,87.44c-.05,0-.04.09.01.1s.09-.05.11-.09c.32-.57.6-1.16.83-1.78"/>
    <path class="cls-1" d="m155.3,87.1c.42-.48.74-1.03.96-1.63"/>
    <path class="cls-1" d="m156.31,87.18s-.06.05-.02.06.07-.02.1-.05c.58-.63,1.01-1.41,1.23-2.24"/>
    <path class="cls-1" d="m157.55,86.78s0,.11.05.11.09-.06.12-.11c.54-.88.94-1.85,1.18-2.86"/>
    <path class="cls-1" d="m158.95,86.41s-.05.04-.02.06.07-.02.09-.05c.44-.52.78-1.13,1-1.79"/>
    <path class="cls-1" d="m160.29,86.07l1.02-2.14"/>
    <path class="cls-1" d="m161.41,86.08c.51-.66.9-1.42,1.14-2.23"/>
    <path class="cls-1" d="m162.56,85.43c.61-.49,1.04-1.2,1.21-1.96"/>
    <path class="cls-1" d="m163.51,85.15c.19-.21.37-.44.52-.68.39-.6.64-1.28.84-1.97"/>
    <path class="cls-1" d="m164.69,84.51c.66-.76,1.16-1.65,1.48-2.6"/>
    <path class="cls-1" d="m165.78,84.63c.49-.8.9-1.65,1.24-2.52"/>
    <path class="cls-1" d="m166.85,84.16c.63-.58,1.1-1.31,1.37-2.12"/>
    <path class="cls-1" d="m167.83,83.97c.44-.73.84-1.48,1.2-2.25"/>
    <path class="cls-1" d="m169,83.28c-.06.04,0,.14.06.15s.13-.04.19-.08c.54-.45,1-1.01,1.33-1.63"/>
    <path class="cls-1" d="m170.18,83.53s-.12.19-.06.08c.63-.97,1.18-1.97,1.74-2.99"/>
    <path class="cls-1" d="m171.6,82.64s0,.08.03.08.07-.04.1-.07c.44-.6.83-1.23,1.17-1.9"/>
    <path class="cls-1" d="m172.31,82.82c.48-.85.97-1.69,1.5-2.52"/>
    <path class="cls-1" d="m173.29,82.69c.67-.9,1.23-1.88,1.68-2.91"/>
    <path class="cls-1" d="m174.25,82.38s0,.08.04.08.07-.03.1-.06c.48-.51.9-1.09,1.22-1.72"/>
    <path class="cls-1" d="m175.68,81.46c.52-.83,1.08-1.63,1.67-2.41"/>
    <path class="cls-1" d="m176.47,81.6c.71-.76,1.32-1.62,1.79-2.54"/>
    <path class="cls-1" d="m177.78,80.77c.44-.51.87-1.03,1.27-1.57"/>
    <path class="cls-1" d="m177.64,50.29l.35,1.15"/>
    <path class="cls-1" d="m177.87,48.7c.13.88.34,1.75.62,2.6"/>
    <path class="cls-1" d="m178.02,47.62c.25,1.1.54,2.18.89,3.25"/>
    <path class="cls-1" d="m178.13,46.09l1.36,4.34"/>
    <path class="cls-1" d="m178.7,45.61c.5,1.62,1.05,3.23,1.64,4.83"/>
    <path class="cls-1" d="m179.29,44.24c.54,1.89,1.21,3.75,2,5.55"/>
    <path class="cls-1" d="m180.02,43.09c.7,1.84,1.31,3.72,1.84,5.62"/>
    <path class="cls-1" d="m180.87,42.3c.46,1.62.88,3.25,1.25,4.89"/>
    <path class="cls-1" d="m181.42,41.21l.98,4.11"/>
    <path class="cls-1" d="m181.75,39.56l1.14,4.39"/>
    <path class="cls-1" d="m182.24,39.06l1.22,4.32"/>
    <path class="cls-1" d="m182.97,38.41l1.41,4.69"/>
    <path class="cls-1" d="m184.18,38.03c.62,1.91,1.19,3.84,1.69,5.79"/>
    <path class="cls-1" d="m185.74,38.76c.55,2.24,1.14,4.48,1.75,6.7"/>
    <path class="cls-1" d="m186.54,38.9c.63,2.31,1.27,4.63,1.92,6.93"/>
    <path class="cls-1" d="m187.52,38.47c.12.04.17.19.2.31.55,2.11,1.09,4.22,1.64,6.33"/>
    <path class="cls-1" d="m188.84,37.98c.5,2.37,1.08,4.72,1.74,7.05"/>
    <path class="cls-1" d="m189.94,37.24c.55,2.08,1.03,4.17,1.43,6.28"/>
    <path class="cls-1" d="m191.11,36.6s.05-.1.1-.07.06.09.07.15c.26,1.45.53,2.89.79,4.34"/>
    <path class="cls-1" d="m191.85,34.16l.82,4.83"/>
    <path class="cls-1" d="m192.39,30.57c.38,3.25.84,6.49,1.39,9.71"/>
    <path class="cls-1" d="m193.08,31.22c.42,3.34.91,6.68,1.49,10"/>
    <path class="cls-1" d="m194.75,37.11l.51,4.04"/>
    <path class="cls-1" d="m195.31,36.06l.35,2.51c.02.11.11.27.21.2"/>
    <path class="cls-1" d="m195.95,36.82c-.07-.38.03-.8.27-1.1.13.74.26,1.47.4,2.2"/>
    <path class="cls-1" d="m197.02,35.24c-.05-.14.02-.3.16-.36.19,1.23.4,2.46.62,3.69"/>
    <path class="cls-1" d="m197.81,32c.14,2.02.46,4.02.97,5.98"/>
    <path class="cls-1" d="m198.95,32.8c.07,1.51.28,3,.62,4.47.02.1.08.22.18.2"/>
    <path class="cls-1" d="m200.13,32c-.07,1.43.1,2.88.48,4.26"/>
    <path class="cls-1" d="m201.27,31.21c-.07,1.23.02,2.48.28,3.68"/>
    <path class="cls-1" d="m202.21,30.21c-.08,1.1-.06,2.22.08,3.32"/>
    <path class="cls-1" d="m202.87,27.26c-.2,1.89-.16,3.81.13,5.69"/>
    <path class="cls-1" d="m203.56,27.97c0,1.21.14,2.42.4,3.6"/>
    <path class="cls-1" d="m200.9,41c2.74-4.8,6.87-8.8,11.76-11.39"/>
    <path class="cls-1" d="m204.08,33.45c.27-.61.5-1.24.69-1.88-.15.9-.41,1.02-.69,1.88Z"/>
    <path class="cls-1" d="m206.18,31.29c-.43,1.31-.94,2.6-1.53,3.85"/>
    <path class="cls-1" d="m206.96,31.51l-1.98,4.17c-.05.1-.08.24.02.29"/>
    <path class="cls-1" d="m208.24,31.32c-.94,1.48-1.85,2.99-2.7,4.52-.11.2-.22.41-.19.63"/>
    <path class="cls-1" d="m209.1,31.36l-2.59,4.06c-.24.38-.5.81-.42,1.26"/>
    <path class="cls-1" d="m210.61,30.92l-3.11,4.81c-.2.31-.41.67-.29,1.02"/>
    <path class="cls-1" d="m211.55,30.92l.23-.18c-1.04,1.52-2.07,3.03-3.11,4.55-.18.27-.37.6-.24.89"/>
    <path class="cls-1" d="m212.91,29.91l-3.26,5.24c-.24.38-.48.79-.48,1.23"/>
    <path class="cls-1" d="m213.17,30.81l-3.03,4.89c-.22.35-.44.72-.47,1.13"/>
    <path class="cls-1" d="m213.56,31.71c-.86,2.23-2.68,4-3.47,6.26"/>
    <path class="cls-1" d="m214.19,32.61l-3.81,5.78c-.2.31-.39.75-.12,1"/>
    <path class="cls-1" d="m214.59,33.67l-3.17,4.9c-.09.14-.12.42.05.41"/>
    <path class="cls-1" d="m215.32,34.17l-3.01,4.2c-.19.27-.39.58-.32.9.09-.05.19-.09.28-.14"/>
    <path class="cls-1" d="m215.87,34.45c-.68,1.68-2.06,2.96-3.09,4.46-.07.1-.14.21-.15.33s.08.26.2.26"/>
    <path class="cls-1" d="m217.05,35.92c-1.01,1.23-2.13,2.47-3.21,3.63-.12.13-.28.21-.45.22.13-.56.55-1,.93-1.44.78-.9,1.44-1.89,1.96-2.96"/>
    <path class="cls-1" d="m202.4,47.14c1.65.59,3.24,1.33,4.75,2.22"/>
    <path class="cls-1" d="m202.82,45.79c1.69.91,3.33,1.91,4.91,3"/>
    <path class="cls-1" d="m204.13,45.68c1.16.77,2.36,1.47,3.6,2.09"/>
    <path class="cls-1" d="m204.12,44.4c1.48,1.1,3.02,2.1,4.62,3"/>
    <path class="cls-1" d="m204.26,43.56l4.78,2.98"/>
    <path class="cls-1" d="m204.85,43.03l5.18,3.09"/>
    <path class="cls-1" d="m205.37,41.99l5.24,3.12"/>
    <path class="cls-1" d="m206.28,41.16c1.71,1.18,3.47,2.3,5.27,3.35"/>
    <path class="cls-1" d="m207.45,40.84c-.18-.07-.33-.23-.37-.43.73.24,1.38.68,2.02,1.11.81.55,1.62,1.11,2.43,1.66"/>
    <path class="cls-1" d="m207.88,39.41c1.52,1.14,3.07,2.23,4.66,3.27"/>
    <path class="cls-1" d="m208.54,38.46c1.17.57,2.29,1.23,3.36,1.99"/>
    <path class="cls-1" d="m196.72,63.52c1.41.61,2.84,1.15,4.3,1.62"/>
    <path class="cls-1" d="m196.74,62.26l4.65,1.87"/>
    <path class="cls-1" d="m197.46,61.45l3.8,1.68c.18.08.41.16.57.04"/>
    <path class="cls-1" d="m197.53,60.61l4.44,1.71"/>
    <path class="cls-1" d="m197.81,59.27c1.42.78,2.91,1.44,4.45,1.96"/>
    <path class="cls-1" d="m198.09,58.27l4.53,1.87"/>
    <path class="cls-1" d="m198.37,57.13c1.6.74,3.23,1.42,4.89,2.03"/>
    <path class="cls-1" d="m198.94,56.28c1.46.79,2.98,1.46,4.55,1.99"/>
    <path class="cls-1" d="m198.4,54.35c1.74,1.05,3.59,1.92,5.51,2.59"/>
    <path class="cls-1" d="m199.45,53.61c1.65.97,3.36,1.83,5.12,2.58"/>
    <path class="cls-1" d="m199.32,52c1.77.9,3.55,1.78,5.33,2.65"/>
    <path class="cls-1" d="m200.16,50.95c1.58,1.1,3.28,2.03,5.05,2.79"/>
    <path class="cls-1" d="m200.51,49.82c1.75,1.24,3.62,2.31,5.58,3.19"/>
    <path class="cls-1" d="m200.67,48.29l5.85,3.35"/>
    <path class="cls-1" d="m201.74,47.57c1.61,1.15,3.3,2.17,5.06,3.06"/>
    <path class="cls-1" d="m208.81,38.69c-.08,0-.17-.05-.2-.13,1.59,1.08,3.1,2.28,4.51,3.59"/>
    <path class="cls-1" d="m209.38,37.27c1.6,1.19,3.14,2.46,4.62,3.8"/>
    <path class="cls-1" d="m191.26,86.98l4.97,1"/>
    <path class="cls-1" d="m191.17,85.44c1.58.62,3.23,1.05,4.9,1.29"/>
    <path class="cls-1" d="m190.81,84.21c1.86.71,3.8,1.21,5.77,1.49"/>
    <path class="cls-1" d="m190.54,83.23c1.9.69,3.89,1.16,5.9,1.4"/>
    <path class="cls-1" d="m190.6,81.82c1.84.67,3.72,1.24,5.62,1.69"/>
    <path class="cls-1" d="m190.96,80.81c1.7.65,3.46,1.16,5.26,1.51"/>
    <path class="cls-1" d="m191.54,79.8c1.75.66,3.53,1.23,5.33,1.72"/>
    <path class="cls-1" d="m191.47,78.42c1.78.76,3.6,1.42,5.46,1.98"/>
    <path class="cls-1" d="m191.62,76.96l5.25,2.17"/>
    <path class="cls-1" d="m191.4,75.32c1.91.99,3.85,1.91,5.82,2.76"/>
    <path class="cls-1" d="m191.04,73.6c1.86,1.18,3.81,2.21,5.83,3.09"/>
    <path class="cls-1" d="m192.18,72.82c1.79,1.09,3.63,2.09,5.52,2.99"/>
    <path class="cls-1" d="m192.47,71.45c1.75,1.19,3.61,2.22,5.55,3.08"/>
    <path class="cls-1" d="m192.97,69.87c1.71,1.1,3.46,2.14,5.24,3.11"/>
    <path class="cls-1" d="m193.48,68.5c1.71,1.19,3.48,2.29,5.3,3.28"/>
    <path class="cls-1" d="m193.62,66.42c1.31.95,2.67,1.84,4.06,2.66.47.28.95.55,1.49.65"/>
    <path class="cls-1" d="m194.26,65.35c1.16.84,2.34,1.65,3.54,2.42.6.39,1.24.77,1.94.88"/>
    <path class="cls-1" d="m195.2,64.4c1.37,1.08,2.88,1.98,4.48,2.67.09.04.24,0,.2-.08"/>
    <path class="cls-1" d="m195.05,62.97c1.59,1.18,3.28,2.4,5.25,2.58-.49-.66-1.13-1.21-1.85-1.59"/>
    <path class="cls-1" d="m196.69,62.7c1.32,1.26,2.76,2.4,4.29,3.41"/>
    <path class="cls-1" d="m195.21,134.68c2.26-.09,4.53-.28,6.77-.59"/>
    <path class="cls-1" d="m195.71,133.52c1.47-.1,2.95-.2,4.41-.41.52-.07,1.05-.16,1.52-.41"/>
    <path class="cls-1" d="m194.28,132.45c1.27-.07,2.53-.13,3.8-.23.92-.07,1.85-.16,2.69-.53"/>
    <path class="cls-1" d="m193.49,130.89c2.34.05,4.68-.1,6.99-.46"/>
    <path class="cls-1" d="m193.48,129.98c1.53.13,3.07.15,4.6.06.58-.03,1.2-.1,1.65-.47"/>
    <path class="cls-1" d="m193.27,128.82c2.2.25,4.42.27,6.63.08"/>
    <path class="cls-1" d="m192.34,127.41c2.39.31,4.81.3,7.2-.01"/>
    <path class="cls-1" d="m191.61,126.09c1.99.34,4,.49,6.02.46.45,0,.93-.04,1.28-.32"/>
    <path class="cls-1" d="m192.33,124.83c1.86.31,3.76.46,5.65.44.34,0,.7-.02.99-.19"/>
    <path class="cls-1" d="m191.67,123.63c1.99.38,4.01.58,6.03.61.27,0,.61-.05.69-.31"/>
    <path class="cls-1" d="m191.19,121.99c2.06.41,4.16.65,6.27.71.22,0,.48,0,.63-.16"/>
    <path class="cls-1" d="m191.04,120.51c2.03.46,4.11.72,6.19.78.11,0,.22,0,.32-.05s.16-.18.11-.27"/>
    <path class="cls-1" d="m190.11,118.85c2.1.37,4.21.63,6.33.79.22.02.5,0,.59-.2"/>
    <path class="cls-1" d="m190.46,117.22c1.81.41,3.62.78,5.44,1.12.32.06.66.12.98.05"/>
    <path class="cls-1" d="m190.39,115.59l1.75.36c1.28.26,2.56.52,3.85.69.22.03.45.05.67.04"/>
    <path class="cls-1" d="m189.8,113.52c2.05.68,4.14,1.24,6.25,1.66.25.05.55.07.7-.13"/>
    <path class="cls-1" d="m190.19,111.92c2.15.75,4.32,1.4,6.52,1.95"/>
    <path class="cls-1" d="m189.23,110.1c2.19,1.07,4.56,1.78,6.99,2.09"/>
    <path class="cls-1" d="m190.02,108.76l4.32,1.62c.59.22,1.19.44,1.81.45"/>
    <path class="cls-1" d="m189.46,106.9c2.05,1.07,4.22,1.91,6.46,2.51"/>
    <path class="cls-1" d="m189.17,105.12c2.02,1.27,4.23,2.23,6.54,2.84"/>
    <path class="cls-1" d="m189.39,103.96c1.89.99,3.86,1.82,5.89,2.48"/>
    <path class="cls-1" d="m189.58,102.4c1.69,1.33,3.67,2.28,5.76,2.78"/>
    <path class="cls-1" d="m189.32,100.85c1.95,1.12,4.02,2.03,6.16,2.73.11.04.26.05.31-.06"/>
    <path class="cls-1" d="m188.58,98.95c2.18,1.38,4.54,2.49,6.99,3.32"/>
    <path class="cls-1" d="m189.3,97.29c1.63,1.02,3.28,2,4.96,2.94.48.27.98.54,1.53.65"/>
    <path class="cls-1" d="m189.23,96.13c1.99,1.44,4.14,2.66,6.4,3.62"/>
    <path class="cls-1" d="m189.53,94.61c1.84,1.34,3.78,2.54,5.8,3.58"/>
    <path class="cls-1" d="m188.79,92.4c1.55,1.01,3.13,1.97,4.74,2.87.66.37,1.35.74,2.11.77"/>
    <path class="cls-1" d="m189.36,90.61c1.23,1.11,2.54,2.11,3.93,3.01.62.4,1.27.78,1.99.88"/>
    <path class="cls-1" d="m190.11,89.48c1.18,1.05,2.47,1.97,3.84,2.75.54.3,1.17.59,1.75.38"/>
    <path class="cls-1" d="m190.43,87.44c1.1,1.1,2.33,2.08,3.66,2.91.52.33,1.1.64,1.71.56"/>
    <path class="cls-1" d="m190.39,86.08c.9.71,1.71,1.54,2.6,2.26s1.89,1.36,3.01,1.62"/>
    <path class="cls-1" d="m191.09,85.06c1.65,1.36,3.43,2.56,5.31,3.58"/>
    <path class="cls-1" d="m217.73,38.33l-2.18,2.21"/>
    <path class="cls-1" d="m218.81,39.33c-1.03.61-2.04,1.26-3.02,1.95"/>
    <path class="cls-1" d="m219.31,40.11l-2.85,1.99c-.22.15-.44.31-.56.54"/>
    <path class="cls-1" d="m219.38,41.92c-1.36.69-2.67,1.47-3.91,2.36.02.1.18.13.23.04"/>
    <path class="cls-1" d="m220.83,42.44c-1.63.87-3.19,1.86-4.68,2.95"/>
    <path class="cls-1" d="m221.04,43.57c-2.07,1.02-3.99,2.33-5.71,3.86"/>
    <path class="cls-1" d="m215.68,48.24c2.19-1.32,4.46-2.5,6.8-3.52"/>
    <path class="cls-1" d="m215.39,50.32c0-.06-.1.02-.06.06s.11.01.16-.01c2.61-1.47,5.22-2.93,7.82-4.4"/>
    <path class="cls-1" d="m227.45,47.18c-3.37,1.76-6.7,3.78-10.18,5.31.46-1.54,3.51-.99,4.7-1.03l6.19-.2"/>
    <path class="cls-1" d="m220.06,52.04c2.1-1.04,4.22-2.02,6.37-2.95"/>
    <path class="cls-1" d="m220.69,52.96c2.65-1.25,5.34-2.43,8.05-3.55"/>
    <path class="cls-1" d="m223.43,53.45l4.74-2.1"/>
    <path class="cls-1" d="m216.68,52.2c2.47-1.03,4.88-2.19,7.22-3.48"/>
    <path class="cls-1" d="m221.26,43.95c-.1.07-.23.09-.35.05,3.18-2.49,6.6-4.69,10.19-6.56"/>
    <path class="cls-1" d="m223.12,44.97l6.69-5.28"/>
    <path class="cls-1" d="m233.38,50.13c-4.67,2.33-9.26,4.82-13.76,7.48"/>
    <path class="cls-1" d="m228.75,53.45c-3.5.74-6.89,1.98-10.04,3.68"/>
    <path class="cls-1" d="m231.49,54.4c-2.9.7-5.72,1.74-8.38,3.09-.16.08-.34.24-.26.39"/>
    <path class="cls-1" d="m231.4,55.85c-2.69.78-5.33,1.74-7.9,2.86"/>
    <path class="cls-1" d="m217.23,57.47c3.02-1.59,6.09-3.08,9.22-4.45"/>
    <path class="cls-1" d="m215.79,62.47c1.81-.27,3.38-1.45,5.18-1.77"/>
    <path class="cls-1" d="m216.1,63.82s-.08,0-.05.04.08.02.12,0c2.62-1.03,5.24-2.05,7.87-3.08"/>
    <path class="cls-1" d="m219.54,63.75c-.29.03-.56.2-.72.44,2.61-.91,5.22-1.81,7.83-2.72"/>
    <path class="cls-1" d="m220.99,64.92c2.65-1.11,5.36-2.09,8.11-2.94"/>
    <path class="cls-1" d="m223.57,65.18c.13.18.4.13.6.07,1.82-.55,3.61-1.2,5.36-1.94"/>
    <path class="cls-1" d="m225.15,66.47l4.89-1.82"/>
    <path class="cls-1" d="m217.59,68.62c1.54.15,3.11.02,4.6-.39"/>
    <path class="cls-1" d="m219.84,70.11c3.02-.91,6-1.97,8.92-3.19"/>
    <path class="cls-1" d="m220.55,71.09c-.44.15-.81.5-.99.93,4.01-1.75,8-3.54,11.98-5.36"/>
    <path class="cls-1" d="m214.43,74.48c3.92-1.65,7.96-3,12.08-4.04"/>
    <path class="cls-1" d="m215.32,76.61l11.37-4.75"/>
    <path class="cls-1" d="m214.81,77.62l11.18-4.51"/>
    <path class="cls-1" d="m216.73,78.57c-.1.03-.19.12-.21.23.67-.11,1.3-.39,1.91-.66,2.26-1.01,4.52-2.03,6.78-3.04"/>
    <path class="cls-1" d="m218.22,79.65c.05.15.26.12.41.06,2.37-.92,4.68-2.02,6.89-3.29"/>
    <path class="cls-1" d="m236.72,61.34c-2.33,1.65-4.6,3.39-6.8,5.21"/>
    <path class="cls-1" d="m238.18,61.36c-2.65,2.35-5.27,4.74-7.84,7.18-.28.27-.58.57-.6.96"/>
    <path class="cls-1" d="m236.43,65.03l-4.97,4.21c-1.78,1.51-3.57,3.03-5.05,4.83"/>
    <path class="cls-1" d="m239.51,51.36c-.77.38-1.44.93-2.11,1.47-1.41,1.14-2.82,2.29-4.23,3.43-2.24,1.82-4.49,3.64-6.44,5.77"/>
    <path class="cls-1" d="m239.17,52.59c-.9.08-1.71.58-2.47,1.08-3.98,2.61-7.78,5.48-11.37,8.6"/>
    <path class="cls-1" d="m237.83,46.04c-1,.9-2.11,1.59-3.13,2.48-1.2,1.04-2.4,2.08-3.61,3.11-2.42,2.06-4.86,4.1-7.31,6.12"/>
    <path class="cls-1" d="m232.34,38.32c-4.36,2.26-8.27,5.34-11.8,8.72"/>
    <path class="cls-1" d="m220.44,21.09c-.04-1.84-.04-3.68.02-5.51"/>
    <path class="cls-1" d="m222,20.89c.13-1.84.07-3.69-.16-5.51"/>
    <path class="cls-1" d="m223.24,19.91c.28-1.76.26-3.57-.06-5.32"/>
    <path class="cls-1" d="m224.38,18.65c-.07.02,0,.14.07.11s.09-.11.09-.18c.17-1.42.19-2.86.04-4.29"/>
    <path class="cls-1" d="m225.56,16.56c.29-1.56.33-3.16.12-4.73"/>
    <path class="cls-1" d="m219.08,21.78c-.16-1.18-.3-2.37-.4-3.55"/>
    <path class="cls-1" d="m218.13,22.78c-.51-1.09-.95-2.22-1.34-3.36"/>
    <path class="cls-1" d="m215.17,21.99c-.52-1.59-.32-3.4.54-4.84"/>
    <path class="cls-1" d="m230.24,14.69l.32-3.44"/>
    <path class="cls-1" d="m232.06,14.78c.15-1.38.34-2.76.58-4.12"/>
    <path class="cls-1" d="m233.04,14.69l.77-3.25"/>
    <path class="cls-1" d="m213.6,28.55l1.19-4.13c-.32,1.67-.87,2.46-1.19,4.13Z"/>
    <path class="cls-1" d="m215.64,24.33c-.07,1.64-.22,3.29-.45,4.92"/>
    <path class="cls-1" d="m216.97,23.64c-.45,1.86-.85,3.73-1.2,5.61"/>
    <path class="cls-1" d="m217.59,23.74c-.27,1.84-.58,3.68-.92,5.5"/>
    <path class="cls-1" d="m218.38,23.15l-.71,5.41"/>
    <path class="cls-1" d="m219.56,22.59c-.05.02-.02-.09.03-.07s.04.09.03.15c-.38,1.84-.76,3.67-1.14,5.51"/>
    <path class="cls-1" d="m220.93,22.27c-.31,1.88-.68,3.75-1.1,5.6"/>
    <path class="cls-1" d="m222.03,21.09l-1.12,6.78"/>
    <path class="cls-1" d="m223.46,20.59c-.49,1.91-1.02,3.81-1.6,5.7"/>
    <path class="cls-1" d="m224.42,20.28c-.38,1.17-.69,2.36-.93,3.56"/>
    <path class="cls-1" d="m225.52,18.52l-.87,3.94"/>
    <path class="cls-1" d="m226.89,16.66c-.19,1.53-.51,3.04-.95,4.52"/>
    <path class="cls-1" d="m228.19,13.9l-1.4,6.79"/>
    <path class="cls-1" d="m229.38,14.39l-1.24,4.21c-.1.34-.2.7-.07,1.03"/>
    <path class="cls-1" d="m230.5,14.79l-.99,3.33c.1.02.2-.02.27-.09"/>
    <path class="cls-1" d="m231.2,15.36c0-.08.13-.09.18-.02s.03.15,0,.23c-.22.85-.44,1.69-.66,2.54.13.02.28-.06.33-.18"/>
    <path class="cls-1" d="m232.69,15.39c-.13.7-.33,1.38-.59,2.04"/>
    <path class="cls-1" d="m233.92,15.37l.36.61"/>
    <path class="cls-1" d="m211.52,18.9c.78.32,1.02,1.28,1.13,2.11.38,2.79.33,5.22.04,8.02.74-2.69.84-5.55.29-8.28-.08-.4-.19-.83-.47-1.13-.06-.06-.14-.13-.23-.12-.27.01-.17.47-.33.69"/>
    <path class="cls-1" d="m212.56,31.12c-.48-.08-.55-.74-.44-1.2.29-1.18,1.02-2.21,1.83-3.11,2.29-2.54,5.3-4.29,8.26-5.99"/>
    <path class="cls-1" d="m213.55,28.97c-.28.1-.51.31-.64.58,4.52-.06,9.03-.97,13.23-2.66"/>
    <path class="cls-1" d="m213.8,22.86c-.17,1.27-.06,2.58.31,3.81.14-1.32.18-2.65.12-3.98.1.91.18,1.82.25,2.73.19-.79.27-1.61.24-2.43.12.63.24,1.26.36,1.89.2-.56.31-1.14.35-1.73.09.3.19.59.28.89"/>
    <path class="cls-1" d="m200.86,16.36c.35.77.55,1.62.58,2.47"/>
    <path class="cls-1" d="m201.93,16.26c.02.89.12,1.78.29,2.66"/>
    <path class="cls-1" d="m202.59,15.88l.61,3.34"/>
    <path class="cls-1" d="m203.33,15.67c.47,1.36.73,2.8.76,4.24"/>
    <path class="cls-1" d="m204.34,14.28c.64,2.14.99,4.37,1.03,6.6"/>
    <path class="cls-1" d="m205.46,13.51c.67,2.85,1.14,5.74,1.4,8.65"/>
    <path class="cls-1" d="m206.45,14c.75,2.82,1.33,5.68,1.75,8.56"/>
    <path class="cls-1" d="m208.09,16.37c.73,2.93,1.21,5.93,1.45,8.94"/>
    <path class="cls-1" d="m209.85,19.41c.11-.11.27.07.31.22.66,2.3,1.06,4.68,1.17,7.07"/>
    <path class="cls-1" d="m211.35,22.05l.33-.77c.3-.04.44.36.47.67.09.89.17,1.79.26,2.68.09-.46.09-.94.02-1.4.08,1.35.16,2.7.23,4.05"/>
    <path class="cls-1" d="m179.4,18.72c-.02.14-.1.27-.21.36.12-1.2.39-2.38.82-3.5"/>
    <path class="cls-1" d="m180.84,18.91l.72-3.64"/>
    <path class="cls-1" d="m182.24,17.84l.51-3.34"/>
    <path class="cls-1" d="m185.01,13.41c-.11.9-.17,2-.55,2.81-.72-.27-.48-1.12-.43-1.73"/>
    <path class="cls-1" d="m181.53,33.39c.3,1.25.64,2.5,1.01,3.73"/>
    <path class="cls-1" d="m185.82,30.04l.47,5.12"/>
    <path class="cls-1" d="m187.88,28.57l.47,6.09"/>
    <path class="cls-1" d="m189.85,27.68c0,1.48.12,2.97.34,4.43"/>
    <path class="cls-1" d="m192.86,26.3l.31,3.44"/>
    <path class="cls-1" d="m248.06,45.4c1.46-.47,3.05-.53,4.55-.17"/>
    <path class="cls-1" d="m250.25,47.86c.98.23,1.96.42,2.96.57"/>
    <path class="cls-1" d="m250.62,49.96c1.01.59,2.13.99,3.28,1.2"/>
    <path class="cls-1" d="m251.2,52.64c.82.43,1.7.77,2.6.99"/>
    <path class="cls-1" d="m250.45,57.4c.97.16,1.9.5,2.76.98"/>
    <path class="cls-1" d="m249.24,62.38l2.81,1.25"/>
    <path class="cls-1" d="m248.52,66.52c.68.56,1.48.96,2.33,1.17"/>
    <path class="cls-1" d="m246.29,73.58c.69.3,1.31.76,1.8,1.33"/>
    <path class="cls-1" d="m203.23,151.91c-.18-.05-.25-.3-.17-.47s.25-.28.42-.38c2.49-1.51,4.98-3.01,7.47-4.52"/>
    <path class="cls-1" d="m208.56,152.29c2.13-2.16,4.46-4.13,6.95-5.87"/>
    <path class="cls-1" d="m213.74,152.85l6.96-4.61"/>
    <path class="cls-1" d="m219.46,155.01c2.41-2.16,4.71-4.44,6.89-6.83"/>
    <path class="cls-1" d="m225.62,155.3c1.59-2.19,3.62-4.06,5.92-5.49"/>
    <path class="cls-1" d="m230.36,155.75c2.11-2.31,4.57-4.31,7.27-5.91"/>
    <path class="cls-1" d="m236.69,156.02c2.04-2.24,4.32-4.27,6.79-6.04"/>
    <path class="cls-1" d="m201.98,151.6c2.24-1.98,4.47-3.97,6.71-5.95"/>
    <path class="cls-1" d="m213.19,141.07c2.41-2.19,4.97-4.22,7.65-6.07"/>
    <path class="cls-1" d="m219.87,141.54c1.37-1.86,3.3-3.31,5.47-4.11"/>
    <path class="cls-1" d="m225.24,142.07c2.05-1.83,4.23-3.52,6.51-5.05"/>
    <path class="cls-1" d="m230.1,142.84c2.19-1.95,4.61-3.65,7.2-5.05"/>
    <path class="cls-1" d="m192.81,143.48c2.9-2.37,5.97-4.54,9.16-6.5"/>
    <path class="cls-1" d="m196.01,145.12c4.87-3.75,9.75-7.51,14.62-11.26"/>
    <path class="cls-1" d="m200.73,143.42c-.97.43-1.56,1.59-1.33,2.62,4.56-3.73,9.11-7.45,13.67-11.18"/>
    <path class="cls-1" d="m199.31,148.94c-.31.2-.52.57-.51.94,4.83-3.91,9.67-7.83,14.5-11.74"/>
    <path class="cls-1" d="m87.92,135.71c-.17.06-.32-.17-.27-.34s.21-.27.36-.37c3.17-1.92,6.35-3.84,9.52-5.75"/>
    <path class="cls-1" d="m93.53,136.66c.07-.12-.19-.22-.25-.09s.08.28.22.29.27-.07.39-.15c5.6-3.72,11.47-7.05,17.54-9.94"/>
    <path class="cls-1" d="m103.76,138.32c6.52-4.49,13.47-8.34,20.73-11.48"/>
    <path class="cls-1" d="m111.86,140.07c7.46-4.46,15.34-8.23,23.5-11.24"/>
    <path class="cls-1" d="m122.02,141.58c-.24-.7.5-1.31,1.15-1.68,7.19-4.03,14.59-7.68,22.16-10.93"/>
    <path class="cls-1" d="m127.84,141.56c6.97-3.8,14.05-7.42,21.21-10.85"/>
    <path class="cls-1" d="m136.36,143.13c7.41-4.88,15.48-8.76,23.92-11.5"/>
    <path class="cls-1" d="m150.57,142.99c7.17-4.46,14.38-8.84,21.65-13.14"/>
    <path class="cls-1" d="m161.01,142.34c5.75-2.7,11.49-5.4,17.24-8.11"/>
    <path class="cls-1" d="m109.39,140.08c5.68-3.71,11.76-6.8,18.11-9.19"/>
    <path class="cls-1" d="m37.04,138.62c1.28-1.23,2.62-2.39,4.02-3.48"/>
    <path class="cls-1" d="m41.18,139.58c2.92-2.01,5.79-4.08,8.62-6.21"/>
    <path class="cls-1" d="m44.52,140.44c3.66-1.51,7.26-3.75,10.68-5.75"/>
    <path class="cls-1" d="m47.53,144.65c2.44-1.78,4.87-3.56,7.31-5.33"/>
    <path class="cls-1" d="m58.57,143.22c-1.95,1.19-3.76,2.63-5.35,4.27,3.07-1.89,6.09-4.85,8.56-7.48"/>
    <path class="cls-1" d="m54.24,137.81c2.97-2.42,6.09-4.65,9.33-6.68"/>
    <path class="cls-1" d="m58.01,139.8c3.48-3.27,7.17-6.31,11.05-9.09"/>
    <path class="cls-1" d="m61.71,139.58c4.32-3.77,8.94-7.19,13.8-10.22"/>
    <path class="cls-1" d="m66.56,138.73c4.18-3.29,8.37-6.58,12.55-9.87"/>
    <path class="cls-1" d="m70.54,137.57c3.93-2.69,7.79-5.49,11.56-8.4"/>
    <path class="cls-1" d="m72.18,139.06c3.76-2.41,7.47-4.9,11.11-7.47"/>
    <path class="cls-1" d="m76.94,138.08c2.07-1.77,4.26-3.39,6.56-4.84"/>
    <path class="cls-1" d="m80.59,138.2c.01.1-.18.09-.2-.01s.07-.19.15-.25c2.22-1.83,4.73-3.3,7.41-4.34"/>
    <path class="cls-1" d="m114.47,154.25l-1.23,2.86"/>
    <path class="cls-1" d="m115.78,153.74l-1.31,3.72"/>
    <path class="cls-1" d="m117.21,153.38c-.64,1.55-1.15,3.15-1.53,4.78"/>
    <path class="cls-1" d="m118.38,156.01c-.82,1.35-1.47,2.79-1.95,4.29"/>
    <path class="cls-1" d="m119.36,157.49c-.84,1.5-1.51,3.09-1.99,4.74"/>
    <path class="cls-1" d="m120.57,159.08l-1.61,3.38"/>
    <path class="cls-1" d="m104.3,158.33c-.83,1.58-1.58,3.19-2.25,4.84"/>
    <path class="cls-1" d="m105.98,158.9c-.89,1.64-1.65,3.35-2.26,5.12"/>
    <path class="cls-1" d="m107.38,158.89c-1.36,2.1-2.44,4.38-3.21,6.77"/>
    <path class="cls-1" d="m109.35,158.9c-1.35,2.36-2.47,4.85-3.35,7.43"/>
    <path class="cls-1" d="m110.36,160.47l-3.06,6.58"/>
    <path class="cls-1" d="m111.85,160.86c-1.05,1.77-1.88,3.68-2.45,5.66"/>
    <path class="cls-1" d="m113.44,161.57c-1.19,1.45-2.08,3.15-2.57,4.96"/>
    <path class="cls-1" d="m135.06,142.4c-1.03,1.11-1.83,2.43-2.32,3.86"/>
    <path class="cls-1" d="m136.98,142.7c-.99,1.26-1.85,2.62-2.56,4.06"/>
    <path class="cls-1" d="m138.74,142.68c-1.34,1.7-2.4,3.62-3.15,5.65"/>
    <path class="cls-1" d="m140.46,143.17c-1.52,2.1-2.77,4.38-3.73,6.79"/>
    <path class="cls-1" d="m141.22,144.81c-1.28,1.75-2.38,3.62-3.3,5.58-.16.34-.32.75-.14,1.09"/>
    <path class="cls-1" d="m142.5,145.37c-1.22,2.15-2.4,4.32-3.55,6.5"/>
    <path class="cls-1" d="m141.94,149.27c-.41.69-.62,1.51-.6,2.31"/>
    <path class="cls-1" d="m146.54,144.96c-.71.57-1.16,1.44-1.23,2.35"/>
    <path class="cls-1" d="m146.9,147.13c.07-.6.32-1.17.72-1.62-.66.82-.54.58-.72,1.62Z"/>
    <path class="cls-1" d="m167.76,159.78c-.82.92-1.43,2.03-1.78,3.21"/>
    <path class="cls-1" d="m169.05,159.8c-.74,1.23-1.38,2.52-1.9,3.86"/>
    <path class="cls-1" d="m168.77,164.04c.32-1.67,1-3.26,1.99-4.65-.43,1.95-1.2,2.81-1.99,4.65Z"/>
    <path class="cls-1" d="m155.12,164.77c-.27.42-.4.93-.36,1.42"/>
    <path class="cls-1" d="m155.89,166c.14-.89.49-1.74,1.02-2.47-.28.94-.74,1.53-1.02,2.47Z"/>
    <path class="cls-1" d="m263.65,151.41l-.41,2.66"/>
    <path class="cls-1" d="m265.58,151.06c-.47,1.01-.79,2.09-.93,3.2"/>
    <path class="cls-1" d="m267.12,151.21l-1.01,3.23"/>
    <path class="cls-1" d="m269.15,151.42c-.61,1.88-1.35,3.71-2.23,5.48"/>
    <path class="cls-1" d="m267.53,158.53l3.09-6.21c-1.14,2.4-1.95,3.8-3.09,6.21Z"/>
    <path class="cls-1" d="m273.75,152.83c-1.46,2.74-2.86,5.52-4.17,8.34"/>
    <path class="cls-1" d="m236.12,147.48c-.3,2.7-.76,5.38-1.39,8.02"/>
    <path class="cls-1" d="m241.25,146.45c-1.07,2.79-2.19,5.56-3.37,8.31"/>
    <path class="cls-1" d="m244.36,146.95l-2.84,9.27"/>
    <path class="cls-1" d="m248.08,147.66l-2.87,7.83"/>
    <path class="cls-1" d="m250.58,148.19c-1,2.42-1.78,4.93-2.32,7.48"/>
    <path class="cls-1" d="m253.7,147.86l-1.55,5.49"/>
    <path class="cls-1" d="m256.11,148.56c-.23,1.74-.59,3.47-1.05,5.17"/>
  </g>
</svg>