<?xml version="1.0" encoding="UTF-8"?>
<svg id="Layer_2" data-name="Layer 2" xmlns="http://www.w3.org/2000/svg" viewBox="0 0 161.3 165.48">
  <defs>
    <style>
      .cls-1 {
        stroke-width: .25px;
      }

      .cls-1, .cls-2 {
        fill: none;
        stroke: #231f20;
        stroke-miterlimit: 10;
      }

      .cls-2 {
        stroke-width: .5px;
      }
    </style>
  </defs>
  <g id="Layer_1-2" data-name="Layer 1">
    <g id="Layer_1-2" data-name="Layer 1-2">
      <path class="cls-2" d="m.52,67.05c.21,20.33,5.87,40.58,16.23,58.08,5.57,9.41,12.59,18.14,21.59,24.33,9,6.19,20.14,9.7,30.97,8.24,4.84-.65,9.52-2.26,14.39-2.69,4.77-.42,9.57.3,14.35,0,5.67-.35,11.16-2.12,16.41-4.3,20-8.28,38.19-23.92,43.75-44.84,2.32-8.71,2.35-17.85,2.1-26.85-.19-6.88-.55-13.86-2.69-20.4-3.22-9.84-10.18-17.92-16.98-25.73-3.42-3.92-6.83-7.84-10.25-11.76-3.07-3.52-6.16-7.06-9.73-10.08-6.21-5.24-13.85-8.78-21.86-10.13-17.09-2.88-34.14,4.05-50.08,10.83-6.98,2.97-13.99,5.95-20.38,10.02-7.66,4.87-14.46,11.58-20.62,18.1C1.25,46.72.42,58.12.52,67.05Z"/>
      <path class="cls-2" d="m36.7,55.97c.65.35,1.41.69,2.11.47.65-.21,1.06-.83,1.38-1.43.92-1.69,1.57-3.62,1.33-5.53-.2-1.58-1-3.01-1.79-4.4-.91-1.61-1.82-3.22-2.73-4.82-.58-1.02-1.17-2.06-2.06-2.83-1.49-1.29-3.57-1.61-5.53-1.87-15.79-2.12,2.06,17.57,7.28,20.41h0Z"/>
      <path class="cls-2" d="m17.13,69.51c2.85,3.06,7.07,4.92,11.23,4.53.61-.06,1.23-.17,1.78-.43,1.27-.62,2.02-2.01,2.3-3.39.28-1.37.19-2.8-.26-4.12-.59-1.73-1.74-3.19-2.88-4.62-2.03-2.55-4.07-5.1-6.1-7.66-.53-.67-1.08-1.35-1.8-1.8-3.05-1.89-8.29,2.58-8.94,5.31-.91,3.82,2.21,9.53,4.68,12.18h-.01Z"/>
      <path class="cls-2" d="m12.52,98.7c2.09,4.94,6.83,8.42,11.95,10.03,1.82.57,3.94.9,5.54-.14,1.23-.8,1.88-2.23,2.45-3.58.8-1.87,1.6-3.74,2.4-5.6.84-1.97,1.7-4.11,1.21-6.2-.43-1.81-1.85-3.26-3.47-4.16s-3.46-1.34-5.27-1.76c-3.44-.81-9.69-3.38-13.04-1.14-3.64,2.43-3.23,9.1-1.76,12.57v-.02Z"/>
      <path class="cls-2" d="m35.87,128.69c3.18-2.64,13.28-13.05,2.96-11.89-2.56.29-5.23,1.56-6.45,3.91-1.05,2.03-.12,10.99,3.49,7.98Z"/>
      <path class="cls-2" d="m53.64,146.92c1.51.6,3.19.52,4.81.42,1.68-.1,3.36-.19,5.04-.29,1.18-.07,2.47-.17,3.35-.97,6.56-5.93-3.11-16.99-10.26-15.44-6.58,1.43-10.36,13.32-2.93,16.27h0Z"/>
      <path class="cls-2" d="m77.19,129.95c-1.51,1.22-2.18,3.28-2.09,5.22s.84,3.8,1.77,5.51c.36.67,1.01,1.42,1.72,1.17.57-.2.73-.91.79-1.51.27-2.89.03-5.82-.72-8.62"/>
      <path class="cls-2" d="m94.21,141.85c1.18,2.42,3.19,4.88,5.88,4.89,2.07,0,3.83-1.44,5.39-2.82,1.3-1.15,2.6-2.3,3.9-3.44.56-.5,1.15-1.03,1.39-1.75.47-1.43-.62-2.86-1.64-3.96-3.18-3.43-8.71-9.11-13.97-6.52s-2.87,9.63-.94,13.6h0Z"/>
      <path class="cls-2" d="m117.27,128.33c1.11,1.41,2.79,2.49,4.59,2.43,2.19-.07,4.02-1.74,6.18-2.08-1.83-3.28-6.03-7.58-10.06-7.86-5.32-.37-3.02,4.57-.71,7.51h0Z"/>
      <path class="cls-2" d="m138.03,117.66c1.15-.1,2.31-.7,2.79-1.74.46-.99.24-2.15,0-3.22-.36-1.66-.76-3.4-1.86-4.69-2.78-3.26-12.88-6.54-13.97-.36s8.17,10.46,13.03,10.02h.01Z"/>
      <path class="cls-2" d="m145.56,93.85c1.49-1.04,2.09-2.94,2.33-4.74.44-3.3-.06-6.72-1.42-9.76-.2-.45-.45-.92-.88-1.18-.42-.25-.95-.24-1.44-.22-5.51.22-19.63-1.28-17.96,7.83,1.13,6.14,14.36,11.55,19.36,8.05v.02Z"/>
      <path class="cls-2" d="m127.07,68.03c2.88-.71,5.48-2.29,7.86-4.08,2.29-1.72,4.56-3.89,4.97-6.72.34-2.31-.67-4.66-2.17-6.45s-3.48-3.11-5.43-4.41c-.93-.62-1.97-1.27-3.08-1.14-.77.09-1.43.54-2.07.98-3.32,2.32-6.62,4.82-9.02,8.09s-3.82,7.46-2.98,11.43c.26,1.21.8,2.47,1.9,3.04,1.35.7,8.44-.35,10.03-.74h-.01Z"/>
      <path class="cls-2" d="m117.92,28.46c-2.15,2.06-2.77,5.54-1.46,8.21,1.56-1.01,3.11-2.01,4.67-3.02.46-.3.94-.61,1.27-1.05.53-.7.62-1.64.6-2.52-.01-.73-.11-1.51-.59-2.06-.67-.75-1.89-.77-2.79-.32s-1.56,1.26-2.18,2.04"/>
      <path class="cls-2" d="m95.84,28.36c-.82,4.11-.52,8.57,1.56,12.21.28.49.64,1,1.19,1.11.43.09.86-.08,1.25-.27,3.81-1.81,6.64-5.3,8.36-9.16,1.99-4.47,6.14-15.65-2.17-15.28-5.65.25-9.22,6.5-10.19,11.38h0Z"/>
      <path class="cls-2" d="m75.85,30.52c1.41,3.4,3.49,6.47,5.55,9.52.34.51.74,1.05,1.33,1.21,1.23.33,2.13-1.15,2.51-2.37,2.07-6.52,3.04-13.39,2.87-20.23-.14-5.69-6.81-8.82-11.14-4.62-4.09,3.97-3.04,11.89-1.13,16.49h0Z"/>
      <path class="cls-2" d="m61.97,21.86l-1.62-1.08c-.1,2.56.65,5.14,2.11,7.24.54.77,1.43,1.56,2.3,1.22.77-.29,1-1.24,1.12-2.06.2-1.31.38-2.73-.29-3.87-.97-1.66-3.21-1.96-5.13-2.06"/>
      <path class="cls-2" d="m56.15,46.98c.39.39.89.8,1.42.66.65-.18.8-1.01.81-1.68.08-4.1-.39-8.39-2.62-11.83-2.23-3.43-9.68-7.39-8.65-.52.68,4.58,5.93,10.22,9.05,13.37h0Z"/>
      <path class="cls-2" d="m80.57,79.4c-1.05-1.31-3.41-.37-3.94,1.22s.12,3.32.81,4.85c.35.77,1.05,1.69,1.84,1.37.5-.21.67-.81.78-1.33.41-1.9.83-3.79,1.24-5.69.47.02.93.24,1.25.6.57-.51.7-1.47.21-2.05s-1.58-.53-1.93.14"/>
    </g>
    <path class="cls-2" d="m1.4,52.55C-.2,75.72-1.61,99.99,7.97,121.15c3.01,6.65,7.04,12.8,11.47,18.6,4.98,6.53,10.55,12.73,17.27,17.45s14.7,7.93,22.92,8.03c5.89.07,11.67-1.44,17.51-2.22,7.24-.97,14.58-.81,21.84-1.67,18.06-2.13,35.45-10.85,47.15-24.77s17.32-33.03,13.98-50.9"/>
    <path class="cls-2" d="m77.14,65.5c-1.01-4.79-3.12-9.27-5.21-13.7"/>
    <path class="cls-2" d="m70.35,44.4c-.94-1.68-1.6-3.51-1.95-5.41"/>
    <path class="cls-2" d="m89.17,65.99c-.85-3.51.6-7.17.32-10.77"/>
    <path class="cls-2" d="m101.43,63.81c2.81-4.29,5.61-8.58,8.42-12.86"/>
    <path class="cls-2" d="m102.24,95.23c2.62,1.39,5.18,2.88,7.68,4.47"/>
    <path class="cls-2" d="m95.26,106.89c2.02,2.63,4.11,5.21,6.28,7.72"/>
    <path class="cls-2" d="m73.22,100.56c-3.71,6.16-6.82,12.69-9.25,19.46"/>
    <path class="cls-2" d="m62.29,124.81c-.45.97-.68,2.05-.67,3.12"/>
    <path class="cls-2" d="m64.04,91.48c-2.41.95-4.59,2.45-6.35,4.36"/>
    <path class="cls-2" d="m34.32,114.03c-2.3.78-4.29,2.46-5.44,4.6"/>
    <path class="cls-2" d="m58.25,95.55c-2.26,2.36-4.7,4.54-7.29,6.53"/>
    <path class="cls-2" d="m67.5,79.98c-7.03.07-14.06-.2-21.06-.79"/>
    <path class="cls-2" d="m68.71,68.99c-6.06-.5-12-2.43-17.2-5.59"/>
    <path class="cls-2" d="m93.03,138.44c-.21-1.38.38-2.8,1.31-3.84s2.18-1.75,3.47-2.3c.87-.37,1.8-.69,2.73-.6.45.04.89.18,1.33.31,1.14.35,2.29.7,3.43,1.05.85.26,1.73.54,2.36,1.16.47.46.99,1.16,1.61.94"/>
    <path class="cls-2" d="m115.81,125.87c.12-1.1,1.13-1.94,2.2-2.22s2.2-.12,3.3.04c1.54.22,3.17.49,4.37,1.49"/>
    <path class="cls-2" d="m125.46,111.06c-.09-.28.09-.56.26-.79.79-1.07,1.72-2.1,2.96-2.57,1.1-.42,2.32-.35,3.5-.27.82.05,1.66.11,2.43.42.48.19.92.48,1.4.68.57.24,1.19.34,1.78.52,1.05.33,2.02.95,2.76,1.76"/>
    <path class="cls-2" d="m126.76,86.92c2.62-3.67,7.26-5.27,11.69-6.12,1.62-.31,3.29-.55,4.92-.25s3.21,1.23,3.92,2.72"/>
    <path class="cls-2" d="m115.68,63c.37-1.5,1.44-2.71,2.48-3.85,1.85-2.03,3.72-4.08,5.97-5.65s4.93-2.67,7.68-2.55c3.02.13,5.81,1.72,8.05,3.76"/>
    <path class="cls-2" d="m116.41,34.36c.25-.79.5-1.6,1.01-2.26.66-.86,1.7-1.37,2.76-1.59s2.16-.21,3.25-.19"/>
    <path class="cls-2" d="m95.37,32.99c1.05-2.76,2.54-5.4,4.68-7.44s4.98-3.42,7.94-3.46c1.26-.01,2.56.23,3.61.93"/>
    <path class="cls-2" d="m74.1,22.69c1.22-1.91,2.85-3.65,4.95-4.49,1.28-.51,2.68-.66,4.06-.67.62,0,1.25.02,1.85.2,1.31.39,2.27,1.47,3.17,2.49"/>
    <path class="cls-2" d="m61.49,24.64c.24-.84.94-1.53,1.79-1.75s1.8.04,2.41.66"/>
    <path class="cls-2" d="m48.41,36.89c.71-2,2.72-3.29,4.76-3.87.49-.14,1.01-.25,1.51-.14s.98.46,1.08.96"/>
    <path class="cls-2" d="m24.46,41.87c1.31-1.94,3.97-2.84,6.19-2.12.59.19,1.14.48,1.68.77,2.45,1.32,4.86,2.76,6.85,4.71"/>
    <path class="cls-2" d="m12.13,59.64c2.45-1.84,5.74-2.52,8.72-1.79,1,.24,1.95.64,2.87,1.09,2.09,1.02,4.03,2.35,5.74,3.94.46.42,1.44,1.67,1.94,2.03"/>
    <path class="cls-2" d="m12.09,92.72c1.39-2.06,3.85-3.21,6.32-3.55s4.97.05,7.41.51c1.88.35,3.77.75,5.5,1.57s3.3,2.11,4.11,3.84"/>
    <path class="cls-2" d="m31.89,120.95c.69.12,1.29-.41,1.85-.83,2.43-1.82,5.99-1.97,8.56-.35"/>
    <path class="cls-2" d="m51.76,135.97c2.26-1.1,4.89-1.44,7.36-.97,2.13.41,4.1,1.4,5.92,2.57,1.47.95,2.87,2.04,3.89,3.45"/>
    <path class="cls-2" d="m77.52,130.33c.54.39.96.94,1.19,1.57"/>
    <path class="cls-2" d="m75.96,133.23c1.18.15,2.29.74,3.08,1.63"/>
    <path class="cls-1" d="m51.95,136.07c-.52-.18-1.14-.07-1.57.28"/>
    <path class="cls-1" d="m115.97,31.76l.52,1.9"/>
    <path class="cls-1" d="m116.31,57.83l.35,2.59"/>
    <path class="cls-1" d="m128.93,79.58l.53,3.8"/>
    <path class="cls-1" d="m130.67,82.69l-.61-3.3c.06,1.12.33,2.21.61,3.3Z"/>
    <path class="cls-1" d="m132.07,78.2c.03,1.22.2,2.45.5,3.63"/>
    <path class="cls-1" d="m133.14,78.37l.43,3.12"/>
    <path class="cls-1" d="m134.43,77.86l.4,3.27"/>
    <path class="cls-1" d="m135.65,77.86l.19,2.76"/>
    <path class="cls-1" d="m143.9,80.69c-.44-.54-.59-1.3-.38-1.96-.05.85.03,1.19.38,1.96Z"/>
    <path class="cls-1" d="m145.54,79.06c-.07,1.1.05,2.22.35,3.28"/>
    <path class="cls-1" d="m139.51,78.19l.5,2.25"/>
    <path class="cls-1" d="m125.51,107.38c-.04.75.09,1.51.37,2.21.16-.24.21-.55.14-.83-.17-.68-.08-1.9-.2-2.59.07.7-.28.51-.31,1.2Z"/>
    <path class="cls-1" d="m128.76,107.21l-.28-2.25c-.03,1.05.05,1.23.28,2.25Z"/>
    <path class="cls-1" d="m130.2,107.03c-.16-.85-.23-1.72-.21-2.58-.08.92.07,1.67.21,2.58Z"/>
    <path class="cls-1" d="m135.04,107.2c-.16-.67-.23-1.37-.21-2.06-.08.81.08,1.26.21,2.06Z"/>
    <path class="cls-1" d="m136.38,108.25c-.18-.55-.23-1.15-.15-1.73-.09.69,0,1.05.15,1.73Z"/>
    <path class="cls-1" d="m137.6,107.55c-.06.58,0,1.17.16,1.73.05.17-.15-1.91-.16-1.73Z"/>
    <path class="cls-1" d="m132.21,104.73c.02.24.06.48.11.71"/>
    <path class="cls-1" d="m136.78,106.55l.19,1.19"/>
    <path class="cls-1" d="m135.55,108.4c-.06-.23-.1-.45-.14-.68"/>
    <path class="cls-1" d="m126.29,105.87c.15.7.27,1.4.37,2.1"/>
    <path class="cls-1" d="m115.22,121.96c.07.59.17,1.17.29,1.75"/>
    <path class="cls-1" d="m115.83,121.44c.08.77.18,1.54.31,2.3"/>
    <path class="cls-1" d="m116.77,121.08l.1,1.75"/>
    <path class="cls-1" d="m117.38,122.47c.05.37.09.73.12,1.1"/>
    <path class="cls-1" d="m117.93,121.38l.13,1.52"/>
    <path class="cls-1" d="m118.59,121.15c.09.37.15.75.19,1.13"/>
    <path class="cls-1" d="m119.24,122.6l.11.81"/>
    <path class="cls-1" d="m119.59,121.57l.16,1.17"/>
    <path class="cls-1" d="m120.26,121.93s.08.04.09.09c.05.33.08.67.08,1.01"/>
    <path class="cls-1" d="m120.85,121.76c.13.47.21.95.23,1.43"/>
    <path class="cls-1" d="m121.57,122.04c.16.35.22.73.19,1.11"/>
    <path class="cls-1" d="m131.25,79.19v-.09c.14,1.11.29,2.21.44,3.32"/>
    <path class="cls-1" d="m136.46,49.55c-.02-.09.13-.13.19-.07s.06.17.05.26c-.05.66-.1,1.32-.15,1.98"/>
    <path class="cls-1" d="m138.23,50.7c.07.6.07,1.21.01,1.81"/>
    <path class="cls-1" d="m92.28,131.5c.02-.15.18-.26.32-.24.05,1.29.1,2.58.15,3.88"/>
    <path class="cls-1" d="m93.69,129.44l.5,4.79"/>
    <path class="cls-1" d="m94.99,128.66c.12,1.69.27,3.38.47,5.06"/>
    <path class="cls-1" d="m96.13,128.13l.58,4.56"/>
    <path class="cls-1" d="m97.33,127.98c.24.09.31.4.34.65.14,1.09.28,2.19.41,3.28"/>
    <path class="cls-1" d="m98.8,127.88c.15,1.35.33,2.69.52,4.03"/>
    <path class="cls-1" d="m100.1,128.19l.25,1.92c.09.7.18,1.4.4,2.07"/>
    <path class="cls-1" d="m101.52,128.9c.27.98.45,1.98.54,3"/>
    <path class="cls-1" d="m103.07,129.04l.46,2.99"/>
    <path class="cls-1" d="m104.67,130.48c.23.66.33,1.36.29,2.06"/>
    <path class="cls-1" d="m76.14,131.88c.11.38.14.79.07,1.18"/>
    <path class="cls-1" d="m76.82,130.74l.25,2.33"/>
    <path class="cls-1" d="m77.71,130.59c.15.91.41,1.78.82,2.6"/>
    <path class="cls-1" d="m51.59,134.23l.15,1.42"/>
    <path class="cls-1" d="m52.52,133.32l.21,2.08"/>
    <path class="cls-1" d="m53.5,132.41l.2,2.59"/>
    <path class="cls-1" d="m54.61,131.76c.1,1.05.25,2.09.45,3.12"/>
    <path class="cls-1" d="m55.91,131.12l.57,3.38"/>
    <path class="cls-1" d="m57.13,130.59l.78,4.17"/>
    <path class="cls-1" d="m58.68,130.72c.23,1.34.42,2.68.55,4.03"/>
    <path class="cls-1" d="m60.01,130.72l.35,5.19"/>
    <path class="cls-1" d="m61.55,131.75c.24,1.46.42,2.94.53,4.42"/>
    <path class="cls-1" d="m63.12,132.93l.35,3.89"/>
    <path class="cls-1" d="m64.5,133.05c.24,1.37.36,2.76.35,4.16"/>
    <path class="cls-1" d="m66.13,134.61c.06,1.21.16,2.43.3,3.64"/>
    <path class="cls-1" d="m67.39,136.04c.18,1.15.17,2.34,0,3.49"/>
    <path class="cls-1" d="m32.97,119.98v.26"/>
    <path class="cls-1" d="m33.87,119.73c-.22-.19-.32-.5-.24-.78-.14.46-.08.43.24.78Z"/>
    <path class="cls-1" d="m35.43,117.91c-.05.43-.01.88.12,1.3"/>
    <path class="cls-1" d="m36.43,117.01l.22,1.69"/>
    <path class="cls-1" d="m37.79,116.87l.32,2.08"/>
    <path class="cls-1" d="m38.94,117l.21,1.95"/>
    <path class="cls-1" d="m39.99,116.87l.35,2.34"/>
    <path class="cls-1" d="m41.16,116.87l.58,2.48"/>
    <path class="cls-1" d="m42.28,116.87l.35,3.11"/>
    <path class="cls-1" d="m11.99,90.46v1.17"/>
    <path class="cls-1" d="m12.37,88.52l.61,2.99"/>
    <path class="cls-1" d="m13.27,87.48l.52,3.24"/>
    <path class="cls-1" d="m14.56,86.44c-.02,1.31.11,2.61.37,3.89"/>
    <path class="cls-1" d="m15.6,85.8l.52,4.14"/>
    <path class="cls-1" d="m16.96,85.4c.13,1.43.31,2.86.53,4.29"/>
    <path class="cls-1" d="m18.34,85.15c.09,1.26.24,2.52.44,3.77"/>
    <path class="cls-1" d="m19.54,85.66l.53,4.16"/>
    <path class="cls-1" d="m20.92,85.67c.1,1.26.25,2.52.45,3.77"/>
    <path class="cls-1" d="m22.2,85.93l.41,3.11"/>
    <path class="cls-1" d="m23.34,86.17l.52,3.51"/>
    <path class="cls-1" d="m24.69,86.57l.44,3.25"/>
    <path class="cls-1" d="m25.82,86.71l.46,3.25"/>
    <path class="cls-1" d="m27.12,86.93c.25,1.02.34,2.08.27,3.13"/>
    <path class="cls-1" d="m28.36,87.34l.35,2.6"/>
    <path class="cls-1" d="m29.69,87.46c.17,1.08.3,2.17.36,3.26"/>
    <path class="cls-1" d="m31,88.1c.23,1.07.36,2.16.39,3.26"/>
    <path class="cls-1" d="m32.28,88.75c.27.99.47,2,.62,3.01"/>
    <path class="cls-1" d="m33.75,89.42l.52,3.88"/>
    <path class="cls-1" d="m34.96,90.84c.19,1.29.31,2.59.35,3.89"/>
    <path class="cls-1" d="m13.79,56.14c.09.82-.44,2.15-.35,2.97-.17-.5-.28-1.02-.31-1.54"/>
    <path class="cls-1" d="m14.62,54.72c.05,1.26.16,2.51.32,3.75"/>
    <path class="cls-1" d="m15.72,53.81l.36,3.89"/>
    <path class="cls-1" d="m16.91,52.77c.07,1.73.18,3.46.34,5.18"/>
    <path class="cls-1" d="m18.23,51.87c.01,1.9.12,3.81.32,5.7"/>
    <path class="cls-1" d="m19.25,52.13l.32,5.44"/>
    <path class="cls-1" d="m20.33,52.25l.38,5.97"/>
    <path class="cls-1" d="m21.6,51.99l.36,6.09"/>
    <path class="cls-1" d="m22.61,52.39c.04,2.12.14,4.24.32,6.35"/>
    <path class="cls-1" d="m23.78,54.72c-.02,1.52.09,3.04.32,4.54"/>
    <path class="cls-1" d="m24.95,56.27c.1,1.17.25,2.34.46,3.51"/>
    <path class="cls-1" d="m25.99,57.56l.33,2.86"/>
    <path class="cls-1" d="m27.23,58.61c.2.85.3,1.71.31,2.58"/>
    <path class="cls-1" d="m23.43,37.99l1.27,3.37"/>
    <path class="cls-1" d="m25.57,40.99l-1.4-4.15c.44,1.65.96,2.5,1.4,4.15Z"/>
    <path class="cls-1" d="m26.02,35.93c.34,1.49.73,2.97,1.18,4.43"/>
    <path class="cls-1" d="m26.87,35.68l1.41,4.54"/>
    <path class="cls-1" d="m24.7,35.68l1.52,5.45"/>
    <path class="cls-1" d="m28.39,36.08l1.47,4"/>
    <path class="cls-1" d="m30.04,35.79c.53,1.45.98,2.93,1.37,4.42"/>
    <path class="cls-1" d="m31.5,36.29c.74,1.78,1.34,3.62,1.81,5.49"/>
    <path class="cls-1" d="m32.82,36.54c.69,1.74,1.25,3.54,1.66,5.36"/>
    <path class="cls-1" d="m34.09,36.69l1.79,5.87"/>
    <path class="cls-1" d="m36.27,39.41c.54,1.34.94,2.75,1.17,4.18"/>
    <path class="cls-1" d="m47.37,32.18l.75,4.54"/>
    <path class="cls-1" d="m49.13,35.81c-.01-1.74-.21-3.49-.58-5.19.07,1.39.34,3.82.58,5.19Z"/>
    <path class="cls-1" d="m50.13,30.1c.18,1.6.3,3.2.38,4.8"/>
    <path class="cls-1" d="m51.15,30.62l.42,3.64"/>
    <path class="cls-1" d="m52.44,31.39c.24.75.31,1.56.19,2.34"/>
    <path class="cls-1" d="m49.44,30.11l.32,5.05"/>
    <path class="cls-1" d="m47.72,31.8c.04,1.36.25,2.72.63,4.02"/>
    <path class="cls-1" d="m60.67,21.69c.02.8.2,1.6.52,2.33-.12-.69.43-1.52.31-2.21.12.43.98,1,1.1,1.44"/>
    <path class="cls-1" d="m74.45,18.59c.02.79.13,1.57.33,2.33"/>
    <path class="cls-1" d="m75.55,20.01l-.46-3.25c.18,1.21.28,2.03.46,3.25Z"/>
    <path class="cls-1" d="m77.02,14.44l.56,3.9"/>
    <path class="cls-1" d="m78.01,14.32l.43,3.88"/>
    <path class="cls-1" d="m75.78,16.26l.38,3.24"/>
    <path class="cls-1" d="m78.88,13.01l.35,4.8"/>
    <path class="cls-1" d="m79.92,12.75l.47,5.07"/>
    <path class="cls-1" d="m81.02,11.98c.11,2.12.28,4.24.5,6.35"/>
    <path class="cls-1" d="m81.97,12.5c.06,1.91.18,3.81.37,5.71"/>
    <path class="cls-1" d="m82.88,12.62c.17,1.72.28,3.45.31,5.19"/>
    <path class="cls-1" d="m83.79,12.62l.43,5.06"/>
    <path class="cls-1" d="m84.9,13.41l.37,4.79"/>
    <path class="cls-1" d="m86.08,14.44l.3,4.41"/>
    <path class="cls-1" d="m96.36,27.26v3.11"/>
    <path class="cls-1" d="m97.48,23.64c.03,1.52-.5,3.42-.35,4.93l-.34-3.24"/>
    <path class="cls-1" d="m98.45,22.47l.16,4.01"/>
    <path class="cls-1" d="m99.6,21.17c-.14,1.42-.11,2.86.09,4.27"/>
    <path class="cls-1" d="m100.65,19.24l.28,4.92"/>
    <path class="cls-1" d="m101.87,18.59c-.05,1.6-.04,3.2.04,4.79"/>
    <path class="cls-1" d="m102.97,17.81l.02,5.44"/>
    <path class="cls-1" d="m104.13,17.29l.1,5.05"/>
    <path class="cls-1" d="m105.37,17.03c-.08,1.73-.05,3.46.08,5.18"/>
    <path class="cls-1" d="m106.35,17.29l.07,4.79"/>
    <path class="cls-1" d="m107.6,17.04c-.14,1.59-.18,3.19-.12,4.79"/>
    <path class="cls-1" d="m108.73,17.29c-.05,1.6-.04,3.2.04,4.79"/>
    <path class="cls-1" d="m110.05,18.72l-.13,3.5"/>
    <path class="cls-1" d="m116.23,31.41c-.03.57.04,1.15.22,1.69"/>
    <path class="cls-1" d="m117.25,29.86c.15.72.2,1.46.14,2.2"/>
    <path class="cls-1" d="m118.32,28.82c-.11.91-.04,1.84.19,2.73"/>
    <path class="cls-1" d="m119.28,28.04l.11,2.85"/>
    <path class="cls-1" d="m120.42,27.39l.13,2.85"/>
    <path class="cls-1" d="m122.32,30.11v-1.55"/>
    <path class="cls-1" d="m116.83,57.4l.18-.59c.09.77.2,1.55.33,2.31"/>
    <path class="cls-1" d="m117.89,54.72l.42,3.8"/>
    <path class="cls-1" d="m118.72,53.5l.61,3.9"/>
    <path class="cls-1" d="m119.8,52.72c.12,1.31.3,2.61.54,3.91"/>
    <path class="cls-1" d="m120.65,51.6l.52,4.15"/>
    <path class="cls-1" d="m121.63,50.31l.57,4.41"/>
    <path class="cls-1" d="m122.77,49.97c.05,1.45.16,2.89.33,4.33"/>
    <path class="cls-1" d="m123.84,49.36c.09,1.21.17,2.42.24,3.63"/>
    <path class="cls-1" d="m124.93,47.81l.29,4.23"/>
    <path class="cls-1" d="m126.18,47.21l.03,4.07c0,.21.01.45.15.6"/>
    <path class="cls-1" d="m127.51,46.34c-.05,1.64-.03,3.28.04,4.92"/>
    <path class="cls-1" d="m128.82,45.57c-.07,1.75-.08,3.51-.05,5.27"/>
    <path class="cls-1" d="m129.94,45.22c.09,1.18.1,2.36.03,3.53-.03.61-.09,1.24.06,1.84"/>
    <path class="cls-1" d="m131.4,45.65v5.18"/>
    <path class="cls-1" d="m132.67,46.52l-.08,3.51c0,.31,0,.63.14.91"/>
    <path class="cls-1" d="m133.69,47.46l.08,3.28"/>
    <path class="cls-1" d="m134.72,48.15c.05.98.06,1.96.02,2.94"/>
    <path class="cls-1" d="m136.28,49.01c-.23.84-.34,1.72-.31,2.6"/>
    <path class="cls-1" d="m126.27,83.47l.48,2.85"/>
    <path class="cls-1" d="m126.88,82.17c.03,1.08.21,2.16.54,3.19"/>
    <path class="cls-1" d="m127.47,81.46c.38,1.01.62,2.06.71,3.13"/>
    <path class="cls-1" d="m128.21,80.44c.2,1.09.35,2.18.42,3.28"/>
    <path class="cls-1" d="m136.56,78.8c0,.76.11,1.52.33,2.25"/>
    <path class="cls-1" d="m137.38,78.62l.4,2.42"/>
    <path class="cls-1" d="m138.55,78.63l.27,1.98"/>
    <path class="cls-1" d="m141.05,78.54c-.03.64.02,1.28.14,1.91"/>
    <path class="cls-1" d="m141.89,78.46l.16,1.81"/>
    <path class="cls-1" d="m142.78,78.03v.17"/>
    <path class="cls-1" d="m144.63,77.94c-.08.98-.07,1.96.01,2.94"/>
    <path class="cls-1" d="m146.15,79.32c.15.85.21,1.72.17,2.59"/>
    <path class="cls-1" d="m1.34,83.03l.35,13.78c.01.44.1.99.53,1.11"/>
    <path class="cls-1" d="m3.11,91.32c-.1,4.72.07,9.45.48,14.16"/>
    <path class="cls-1" d="m5.33,98.58c-.09,5.21.11,10.43.62,15.62.01.14.05.31.19.35s.17-.27.04-.21"/>
    <path class="cls-1" d="m7.99,105.65c-.15,4.38-.01,8.77.4,13.13"/>
    <path class="cls-1" d="m10.47,112.04c-.17,4.67.03,9.36.59,14"/>
    <path class="cls-1" d="m13.35,118.43c0,3.93.23,7.85.71,11.75"/>
    <path class="cls-1" d="m15.75,124.3c-.03,3.57.07,7.14.29,10.71"/>
    <path class="cls-1" d="m19.13,128.96c-.27,3.39-.26,6.8.02,10.19"/>
    <path class="cls-1" d="m21.28,132.59c0,2.94.09,5.88.28,8.81"/>
    <path class="cls-1" d="m24.57,136.04c-.03,3.23.12,6.46.43,9.67"/>
    <path class="cls-1" d="m27.31,140.36c-.02,2.77.19,5.55.61,8.29"/>
    <path class="cls-1" d="m29.96,142.6c-.03,3.23.1,6.46.39,9.67"/>
    <path class="cls-1" d="m32.22,145.53c.27,3.28.48,6.57.62,9.86"/>
    <path class="cls-1" d="m35.21,148.13c.3,2.7.47,5.4.52,8.11"/>
    <path class="cls-1" d="m37.71,149.85c.2,2.65.4,5.3.6,7.95"/>
    <path class="cls-1" d="m40.82,151.56c.57,2.84.79,5.75.64,8.64"/>
    <path class="cls-1" d="m43.61,153.28c.5,2.39.71,4.83.62,7.27"/>
    <path class="cls-1" d="m46.51,154.32c.68,2.71.98,5.51.89,8.3"/>
    <path class="cls-1" d="m49.98,156.03c.74,1.74.99,3.69.72,5.56"/>
    <path class="cls-1" d="m52.29,156.42l.73,6.73"/>
    <path class="cls-1" d="m55.9,156.41c.07,2.14.27,4.27.59,6.38"/>
    <path class="cls-1" d="m58.35,157.45l.6,6.4"/>
    <path class="cls-1" d="m61.65,159.01c-.15,1.85,0,3.73.46,5.53"/>
    <path class="cls-1" d="m63.83,159.01l.55,5.69"/>
    <path class="cls-1" d="m66.99,158.83c.15,1.74.35,3.47.6,5.19"/>
    <path class="cls-1" d="m69.11,159.17l.57,4.16"/>
    <path class="cls-1" d="m71.4,158.3c.27,1.5.5,3.01.68,4.52"/>
    <path class="cls-1" d="m73.75,157.96c.14,1.39.33,2.78.57,4.16"/>
    <path class="cls-1" d="m76.1,158.66l.52,3.45"/>
    <path class="cls-1" d="m78.6,157.96l.46,2.94"/>
    <path class="cls-1" d="m80.78,157.28l.45,3.63"/>
    <path class="cls-1" d="m83.08,155.54l.62,4.33"/>
    <path class="cls-1" d="m85.22,155.36c.31,1.9.52,3.81.63,5.72"/>
    <path class="cls-1" d="m87.54,155.75c.32.02.44.42.48.74.2,1.59.4,3.18.6,4.77"/>
    <path class="cls-1" d="m90.02,156.4c.29,1.27.52,2.54.71,3.83"/>
    <path class="cls-1" d="m91.99,157.11l.4,2.41"/>
    <path class="cls-1" d="m95.03,155.54c-.23,1.92-.03,3.88.58,5.72"/>
    <path class="cls-1" d="m97.54,155.9l.63,4.84"/>
    <path class="cls-1" d="m100.33,155.21c-.15,1.79-.07,3.6.24,5.36"/>
    <path class="cls-1" d="m102.37,155.55l.45,4.15"/>
    <path class="cls-1" d="m105.14,154.51c-.07,1.62.04,3.24.32,4.84"/>
    <path class="cls-1" d="m107.57,154.17c.04,1.46.23,2.92.58,4.34"/>
    <path class="cls-1" d="m109.84,154.34l.32,3.46"/>
    <path class="cls-1" d="m111.54,153.3l.53,3.62"/>
    <path class="cls-1" d="m113.72,152.8l.69,4.14"/>
    <path class="cls-1" d="m117.57,151.06c-.4.2-.35.77-.24,1.19.28,1.09.55,2.19.83,3.28"/>
    <path class="cls-1" d="m115.91,152.09c.05,1.12.24,2.23.56,3.3"/>
    <path class="cls-1" d="m119.02,150.01c-.18,1.52.05,3.08.65,4.49"/>
    <path class="cls-1" d="m121.2,149.33c.13,1.52.4,3.03.82,4.5"/>
    <path class="cls-1" d="m122.95,148.08c-.08-.09.09-.23.19-.16s.13.2.13.33c.1,1.29.19,2.57.29,3.86"/>
    <path class="cls-1" d="m125.49,146.06l.39,4.14"/>
    <path class="cls-1" d="m127.61,144.32l.53,4.31"/>
    <path class="cls-1" d="m130.18,143.98c-.08,1.27.03,2.56.34,3.8"/>
    <path class="cls-1" d="m132.43,141.91c-.1,1.74.05,3.5.45,5.19"/>
    <path class="cls-1" d="m134.84,139.66l.68,5.01"/>
    <path class="cls-1" d="m136.73,139.49c.03,1.22.2,2.45.5,3.63"/>
    <path class="cls-1" d="m138.81,136.39c.04,1.52.22,3.04.55,4.52"/>
    <path class="cls-1" d="m140.65,135.36l.69,5.01"/>
    <path class="cls-1" d="m142.61,133.79c.13,1.45.34,2.9.62,4.33"/>
    <path class="cls-1" d="m144.86,131.9c-.03,1.35.15,2.71.55,4.01"/>
    <path class="cls-1" d="m146.96,129.14c-.13,1.26.12,2.56.71,3.68"/>
    <path class="cls-1" d="m148.77,127.4c-.16.88-.03,1.81.36,2.62"/>
    <path class="cls-1" d="m150.21,125.85c-.06.58,0,1.17.16,1.73"/>
    <path class="cls-1" d="m152.08,122.4c-.24,1.16-.15,2.38.25,3.5"/>
    <path class="cls-1" d="m153.63,119.29l.31,3.8"/>
    <path class="cls-1" d="m155.07,116.71c-.17.87-.09,1.79.21,2.62"/>
    <path class="cls-1" d="m156.41,113.42c-.03.92.05,1.85.25,2.75.1-.11.19-.22.29-.32"/>
    <path class="cls-1" d="m157.96,109.62c-.01.93.11,1.87.36,2.77.28-.25.41-.67.32-1.04"/>
    <path class="cls-1" d="m159.46,106.33c-.18.69-.19,1.42-.02,2.11"/>
    <path class="cls-1" d="m160.57,101.85c-.09.89.08,1.81.49,2.6"/>
  </g>
</svg>