<?xml version="1.0" encoding="UTF-8"?>
<svg id="Layer_2" data-name="Layer 2" xmlns="http://www.w3.org/2000/svg" viewBox="0 0 209.08 175.24">
  <defs>
    <style>
      .cls-1 {
        stroke-width: .25px;
      }

      .cls-1, .cls-2 {
        fill: none;
        stroke: #000;
        stroke-miterlimit: 10;
      }

      .cls-2 {
        stroke-width: .5px;
      }
    </style>
  </defs>
  <g id="Layer_1-2" data-name="Layer 1">
    <path class="cls-2" d="m125.98,54.63c.94-.22,1.41-1.24,1.75-2.14,2.16-5.83,3.76-11.87,4.78-18,.24-1.47.45-3.01-.03-4.42"/>
    <path class="cls-2" d="m140.84,31.08c-.66,1.38-.67,2.96-.64,4.49.05,2.68.17,5.36.3,8.04.07,1.47.2,3.09,1.27,4.11.84-.46,1.46-1.22,2.07-1.96,2.68-3.27,5.37-6.54,8.05-9.82"/>
    <path class="cls-2" d="m159.09,38.53c-2.29,2.96-4.57,5.91-6.86,8.87-.56.73-1.16,1.61-.9,2.49,4.59-.26,9.16-.76,13.69-1.49"/>
    <path class="cls-2" d="m108.72,116.91c9.61-7.92,15.07-20.62,14.21-33.04-.08-1.2-.22-2.41,0-3.6.32-1.72,1.37-3.21,2.2-4.75,3.68-6.83,3.11-15.74-1.41-22.05-.56-.78-1.2-1.57-1.34-2.52-.15-.97.24-1.92.53-2.86,2.6-8.22-1.83-17.24-8.16-23.09-2.52-2.33-5.45-4.37-8.81-5.06-5.98-1.23-12.07,2.08-16.28,6.5-5.05,5.29-8.24,12.32-8.9,19.6-2.61-1.32-5.8,0-8.06,1.85-4.72,3.87-7.21,9.77-9.53,15.42"/>
    <path class="cls-2" d="m125.74,19.51c-1.64,1.3-1.38,4.3.46,5.29.3.16.65.29.87.55.58.68.04,1.82.51,2.58.51.83,1.77.64,2.65,1.04,1.35.61,2.11,2.71,3.55,2.36.52-.13.93-.58,1.46-.66,1.05-.16,1.91,1.19,2.95.97.33-.07.62-.3.96-.31.94-.05,1.38,1.46,2.32,1.42.7-.03,1.07-.93,1.75-1.09.56-.13,1.09.26,1.64.39,1.06.26,2.16-.46,2.69-1.41s.63-2.07.72-3.16c-.19,1.9.65,3.73,1.47,5.45.45.95.91,1.91,1.36,2.86.2.42.42.86.82,1.09.65.37,1.51.04,2.2.35.93.41,1.3,1.87,2.32,1.83.31-.01.6-.18.91-.22,1.33-.16,1.72,1.8,2.74,2.67,1.09.93,2.78.45,4.01-.29.63-.38,1.8-.56,1.79.18-1.64.17-3.05,1.65-3.15,3.3-.07,1.27.54,2.48,1.31,3.5.65.87,1.42,1.65,2.28,2.31,1.98-.31,3.95-.63,5.93-.94.99-.16,2.04-.31,2.97.06,1.8.72,2.33,2.97,2.61,4.89.36,2.45.72,4.9,1.08,7.35,3.09-1.15,6.17-2.31,9.26-3.46.62-.23,1.3-.51,1.61-1.1.24-.44.22-.97.33-1.46.32-1.38,1.63-2.27,2.53-3.37s1.27-3.04.02-3.72c2.08-3.19,1.45-7.86-1.4-10.39-.98-.87-2.18-1.51-2.91-2.59-.45-.67-.7-1.45-1.11-2.15-.4-.68-.96-1.27-1.33-1.98-.92-1.79-.41-3.97.35-5.83s1.77-3.7,1.82-5.71c.06-2.17-1.01-4.22-1.12-6.39-.07-1.37.22-2.86-.51-4.02-.51-.8-1.4-1.25-2.15-1.83-1.38-1.07-2.29-2.62-3.56-3.82-3.05-2.9-7.69-3.37-11.86-2.9-.6.07-1.22.15-1.81.03-.92-.18-1.72-.83-2.65-.93-3.23-.36-4.68,5.53-7.88,4.9-1.61-.31-3.15-2.28-4.46-1.31-.35.26-.57.69-.96.86-.68.29-1.37-.33-1.95-.79-2.33-1.84-5.65-1.49-8.59-1.04-1.13.17-2.25.34-3.38.51-1.23.19-2.48.38-3.65.81-1.15.43-2.19,1.08-3.23,1.72-1.19.74-2.43,1.54-3.11,2.76-.74,1.35-.7,3.03-1.51,4.34-.69,1.13-2.03,2.15-1.7,3.43.26,1,1.5,1.55,1.67,2.57.14.81-.45,1.59-.4,2.41.04.59.41,1.11.77,1.58,1.52,2.02,3.05,4.04,4.57,6.05"/>
    <path class="cls-2" d="m148.74,67.44c4.88-4.84,11.24-8.17,18-9.42"/>
    <path class="cls-2" d="m123.39,88.77c1.62-3.05,4.36-5.32,7.03-7.51,3.16-2.58,6.48-5.25,10.47-6.09"/>
    <path class="cls-2" d="m138.42,61.36c.07,5.03,1.76,10.03,4.77,14.07s7.3,7.1,12.1,8.61c.12.04.49.42.39.34s-.25-.04-.37,0c-5.06,1.87-9.94,5.14-12.1,10.09-.93,2.12-1.31,4.43-1.68,6.71,1.25-2.77,4.58-3.96,7.62-4.12s6.11.41,9.1-.13c3.6-.66,6.85-3.01,8.6-6.23-.7,2.25-.08,5.43,1.24,7.39,3.01,4.47,9.97,5.18,12.47,9.96.81,1.54,1.03,3.33.93,5.06,4.47-6.52,4.46-15.79-.02-22.29,4.69,2.37,10.67,2.76,15.67,1.16s9.31-5.24,11.75-9.89c-1.25,2.18-3.96,3.21-6.46,3.05s-4.84-1.31-6.96-2.65-4.12-2.89-6.38-3.98c-3.79-1.84-8.24-2.28-12.32-1.24"/>
    <path class="cls-2" d="m173.19,84.81c3.43-7.4,5.42-15.47,5.84-23.62"/>
    <path class="cls-2" d="m138.04,62.34c3.62,0,6.24,3.44,9.63,4.72,2.15.81,4.52.71,6.81.55s4.64-.36,6.85.26c6.4,1.8,4.85,7.86,3.99,12.87"/>
    <path class="cls-2" d="m197.64,92.26c6.63,8.35,7.82,19.93,6.12,30.46-.46,2.84-1.11,5.66-2.09,8.37-3.27,9.05-10.35,16.65-19.14,20.57"/>
    <path class="cls-2" d="m113.66,112.77l-.18.53c-2.49,7.44.8,15.61,4.28,22.65"/>
    <path class="cls-2" d="m110.16,133.95c-1.15-5.62-.34-11.42-.12-17.15.3-7.91-.61-16.03-4.07-23.14s-9.76-13.11-17.47-14.89"/>
    <path class="cls-2" d="m63.05,75.81c1.65,5.42,1.97,11.24.96,16.81-.2,1.11-.97,2.75-.65,3.81.29.97,1.82,2.24,2.47,3.04,1.78,2.18,3.6,4.34,5.43,6.48,2.24,2.61,4.51,5.19,6.81,7.75,1.37,1.52,4.26,6.27,6.63,5.87,4.72-.79,1.39-13.89.07-16.5"/>
    <path class="cls-2" d="m40.52,87.99c.77,1.63,2.39,2.67,3.93,3.62,2.46,1.52,4.95,3.05,7.68,4.03s5.75,1.37,8.53.56"/>
    <path class="cls-2" d="m60.98,118.58c5.26,3.44,11.82,4.74,18.02,3.8,1.48-.23,3-.97,4.45-1.12,1.73-.18,2.18.64,3.6,1.98,2.88,2.71,5.77,5.43,8.65,8.14"/>
    <path class="cls-2" d="m52.84,131.8c-2.86-4.14-4.98-8.79-6.24-13.67-4.84-2.15-9.03-5.72-11.93-10.14-1.22-1.86-2.23-3.9-2.58-6.1-.52-3.17.34-6.38,1.19-9.47-6.99-4.57-10.11-13.4-10.38-21.75-.08-2.37.04-4.79.94-6.99.83-2.05,2.3-3.78,3.95-5.25,5.13-4.57,12.33-6.72,19.12-5.73s13.08,5.11,16.69,10.96c.99-1.92,3.8-1.58,5.85-.92,4.29,1.38,8.59,2.93,12.31,5.49s6.83,6.23,7.88,10.61"/>
    <path class="cls-2" d="m93.56,80.72c.21-1.79.46-3.58.75-5.37.25-1.53,1.12-3.71.84-5.24-.43-2.44-3.71-4.18-4.78-6.55-.41-.91-.71-1.86-.98-2.81-1.15-4.09-1.73-8.34-1.72-12.59"/>
    <path class="cls-2" d="m105.88,38.3c-3.02,10.68-5.71,20.78-9.17,31.33-.22.07.1.36.33.34,6.57-.65,12.8-4.2,16.72-9.51"/>
    <path class="cls-2" d="m126.78,69.37l4.21-5.48c.56-.73,1.12-1.46,1.62-2.24.74-1.18,1.31-2.45,1.88-3.72.65-1.45,1.3-2.9,1.95-4.35"/>
    <path class="cls-2" d="m47.87,155.63l-3.52-.55c-2.24-.35-4.49-.7-6.76-.82-4.12-.21-8.24.34-12.36.57-7.87.44-16.08-.27-23.34,2.81-.53-3.99-1.06-7.98-1.59-11.97,15.7,3.94,32.12,4.99,48.2,3.06"/>
    <path class="cls-2" d="m43.21,146.93c-7.21-.45-14.17-3.04-20.37-6.75-6.19-3.71-11.66-8.52-16.74-13.65-.29-.29-.59-.61-.67-1.01-.11-.48.12-.97.34-1.41.62-1.23,1.23-2.46,1.85-3.7,9.66,12.4,24.09,20.17,38.75,25.82"/>
    <path class="cls-2" d="m43.03,67.07c6.28,11.06,13.36,21.67,21.17,31.71"/>
    <path class="cls-2" d="m25.39,170.9c6.83-2.77,13.7-5.55,20.91-7.04-1.53-1.66-2.35-3.96-2.22-6.22-12.39,4.44-25.5,6.87-38.65,7.16,1.04-.02,3.87,4.01,4.54,4.8,1.13,1.36,2.19,3.52,3.67,4.53,2.86,1.94,8.93-2.1,11.75-3.24Z"/>
    <path class="cls-2" d="m44.54,143.29c.12.36-.53.38-.85.17-6.37-4.08-12.7-8.21-19.01-12.38-.58-.38-1.17-.78-1.55-1.36-.97-1.49-.15-3.45.68-5.03,7.03,7.15,14.87,13.5,23.32,18.9"/>
    <path class="cls-2" d="m12.08,155c.27,1.79,1.18,3.47,2.54,4.67.52.46.97-.5,1.66-.54,10.17-.64,20.36-2.71,30.46-1.38"/>
    <path class="cls-2" d="m46.73,140.39c1.77-4.77,6.23-8.18,11.07-9.74s10.06-1.49,15.13-1.02c8.71.81,17.27,2.78,25.84,4.56,20.37,4.22,40.95,7.4,61.64,9.52,4.8.49,9.63.93,14.29,2.16,2.01.53,4.04,1.25,5.56,2.66s2.4,3.69,1.67,5.63c-.95,2.49-3.93,3.41-6.53,3.98-20.64,4.56-41.59,7.71-62.66,9.45-5.35.44-10.73.79-16.02,1.74-8.92,1.59-17.56,4.88-26.61,5.38s-19.14-2.56-23.54-10.49c-.92-1.66-1.47-2.75-1.16-4.63.18-1.08.58-2.1.92-3.14,1.72-5.26,2-10.78.41-16.07Z"/>
    <path class="cls-2" d="m87.41,147.1v-.06c-.33-4.74-.65-9.48-.97-14.21"/>
    <path class="cls-2" d="m101.43,159.94c-.54-3.25-.69-6.57-.44-9.86"/>
    <path class="cls-2" d="m118.04,166.12c-.55-3.14-.72-6.35-.51-9.53"/>
    <path class="cls-2" d="m137.73,141.25c-.09-.08.08-.22.18-.15s.11.2.11.31c.03,2.24.06,4.48.1,6.73"/>
    <path class="cls-2" d="m159.03,161.86v.48c-.38-2.79-.62-5.59-.73-8.4"/>
    <path class="cls-2" d="m65.46,175.08c-.49-3.79-.62-7.63-.37-11.45"/>
    <path class="cls-2" d="m166.72,50.8c.03,8.93-.25,17.86-.81,26.77"/>
    <path class="cls-2" d="m98.53,83.45c3.85-2.24,7.43-4.96,10.62-8.07"/>
    <path class="cls-2" d="m111.11,135.66c-.44-.93-.6-1.99-.47-3.01"/>
    <path class="cls-1" d="m118.68,137.74c-.06.16-.22.28-.4.29-.2-.8-.4-1.6-.61-2.4"/>
    <path class="cls-1" d="m114.15,112.39c.08-.04-.04-.17-.11-.11s-.04.17,0,.24c.39.69.89,1.31,1.48,1.85"/>
    <path class="cls-1" d="m113.08,114.15c-.24.05-.13.42.03.6.94,1.08,1.89,2.17,2.83,3.25"/>
    <path class="cls-1" d="m112.33,116.3c.58,1.56,1.75,2.9,3.23,3.67"/>
    <path class="cls-1" d="m112.09,119.87c1.12,1.84,2.78,3.34,4.72,4.27"/>
    <path class="cls-1" d="m113.4,125.12c1.46,1.32,3.15,2.38,4.97,3.12"/>
    <path class="cls-1" d="m115.53,130.03c1.52,1.32,3.35,2.28,5.31,2.78"/>
    <path class="cls-1" d="m117.38,134.17c1.53,1.46,3.63,2.3,5.75,2.31"/>
    <path class="cls-1" d="m114.5,111.18l1.72,1.29"/>
    <path class="cls-1" d="m115.91,109.58c.27.41.74.68,1.22.72"/>
    <path class="cls-1" d="m117.14,107.12c.33.47.84.8,1.4.9"/>
    <path class="cls-1" d="m118.39,105.17c.22.23.57.33.88.24"/>
    <path class="cls-1" d="m119.62,103.24c.21.44.81.63,1.24.41"/>
    <path class="cls-1" d="m120.59,100.24c.09.69.79,1.24,1.48,1.16"/>
    <path class="cls-1" d="m121.51,98.17l.89.87"/>
    <path class="cls-1" d="m121.91,94.95c.44.25.81.64,1.03,1.09"/>
    <path class="cls-1" d="m122.35,92.11c.26.5.73.88,1.26,1.05"/>
    <path class="cls-1" d="m122.99,89.48l.98,1.12"/>
    <path class="cls-1" d="m124.03,87.74l1.21,1.25"/>
    <path class="cls-1" d="m125.48,85.96c.4.6.99,1.08,1.66,1.36"/>
    <path class="cls-1" d="m115.05,110.62c1.1,1.17,2.4,2.15,3.82,2.9"/>
    <path class="cls-1" d="m113.76,113.68c1.39,1.08,3.05,1.81,4.78,2.11"/>
    <path class="cls-1" d="m112.88,115.63c1.58.95,3.25,1.74,4.97,2.38"/>
    <path class="cls-1" d="m112.54,120.01c2.06,1.1,4.18,2.1,6.33,3.01"/>
    <path class="cls-1" d="m114.46,124.27c1.7.96,3.48,1.76,5.32,2.39"/>
    <path class="cls-1" d="m115.87,130.25c2.01,1.27,4.24,2.2,6.56,2.73"/>
    <path class="cls-1" d="m118.56,136.47c1.82.59,3.71.97,5.61,1.15"/>
    <path class="cls-1" d="m114.94,127.58c.08-.06-.11-.13-.13-.04s.07.17.16.21c2.07,1.15,4.28,2.04,6.57,2.63"/>
    <path class="cls-1" d="m117.65,133.21c1.94.95,3.95,1.76,6.01,2.42"/>
    <path class="cls-1" d="m130,135.26c2.22.92,4.62,1.42,7.03,1.44"/>
    <path class="cls-1" d="m126.29,128.61l4.22,1.43"/>
    <path class="cls-1" d="m112.36,117.57c4.2,1.86,8.5,3.48,12.88,4.85"/>
    <path class="cls-1" d="m114.79,112.3c2.32,2.02,5.05,3.57,7.98,4.5"/>
    <path class="cls-1" d="m117.68,107.1l5.26,2.5"/>
    <path class="cls-1" d="m120.14,102.69l3.67,1.3"/>
    <path class="cls-1" d="m122.42,98.65l2.29.31"/>
    <path class="cls-1" d="m123.67,93.64c1.03.2,2.02.55,2.94,1.04"/>
    <path class="cls-1" d="m125.21,87.29c1.1.57,2.3.95,3.53,1.12"/>
    <path class="cls-1" d="m128.07,81.93l1.58,1.06"/>
    <path class="cls-1" d="m131.01,79.7c.58.51,1.38.76,2.15.69"/>
    <path class="cls-1" d="m116.06,122.85c1.91.84,3.86,1.58,5.84,2.22"/>
    <path class="cls-1" d="m119.77,129.32c2.37,1.22,4.94,2.05,7.58,2.46"/>
    <path class="cls-1" d="m121.35,135.52c3.26.93,6.55,1.73,9.88,2.39"/>
    <path class="cls-1" d="m138.08,139.19c2.2.47,4.45.75,6.7.84"/>
    <path class="cls-1" d="m185.78,149.74l-3-.68"/>
    <path class="cls-1" d="m188.61,147.94c-3.39-.77-6.74-1.69-10.05-2.77"/>
    <path class="cls-1" d="m191.95,145.12c-3.69-.63-7.3-1.67-10.76-3.11"/>
    <path class="cls-1" d="m196.33,141.87c-3.13-.43-6.23-.99-9.31-1.68"/>
    <path class="cls-1" d="m199.04,136.66c-4.09,1.6-8.73,1.75-12.92.42"/>
    <path class="cls-1" d="m201.6,132.37l-4.02.89c-3.66.81-7.53,1.61-11.1.44"/>
    <path class="cls-1" d="m203.2,128.16c-3.44.34-6.88.67-10.34.86-1.99.11-4.08.15-5.85-.77"/>
    <path class="cls-1" d="m204.62,124.22c-4.72.61-9.5.79-14.26.53"/>
    <path class="cls-1" d="m205.5,119.46c-5.47.8-11.04.99-16.55.56"/>
    <path class="cls-1" d="m205.49,114.3c-6.25.68-12.58.74-18.84.2"/>
    <path class="cls-1" d="m204.46,108.46c-2.68.38-5.4.52-8.11.41"/>
    <path class="cls-1" d="m202.5,103.22c-2.42.59-4.9.94-7.39,1.05"/>
    <path class="cls-1" d="m200.92,99.74c-2.2-.4-4.45-.52-6.68-.33"/>
    <path class="cls-1" d="m199.17,95.64c-1.68-.34-3.4-.53-5.12-.58"/>
    <path class="cls-1" d="m197.75,92.66c-1.69.19-3.41.2-5.1.03"/>
    <path class="cls-1" d="m201.09,97.48l-4.22-.41"/>
    <path class="cls-1" d="m201.98,100.42l-2.11-.53"/>
    <path class="cls-1" d="m202.15,102.2c-1.62-.25-3.22-.65-4.77-1.19"/>
    <path class="cls-1" d="m183.46,92.02c.9.94,1.91,1.76,3.02,2.44"/>
    <path class="cls-1" d="m186.32,92.51l2.82,2.46"/>
    <path class="cls-1" d="m189.63,93.07c.77.7,1.61,1.35,2.49,1.91"/>
    <path class="cls-1" d="m192.12,92.51c.98.63,1.87,1.41,2.63,2.3"/>
    <path class="cls-1" d="m194.58,92.16l3.27,2.39"/>
    <path class="cls-1" d="m197.55,92.38l1.41,1.05"/>
    <path class="cls-1" d="m185.11,98.47c.41.41.96.67,1.53.73"/>
    <path class="cls-1" d="m184.71,96.59l1.77,1.39"/>
    <path class="cls-1" d="m184.02,93.75l1.92,1.25"/>
    <path class="cls-1" d="m183.99,108.01c.13.48.6.84,1.09.87"/>
    <path class="cls-1" d="m184.54,106.25c.24.37.64.63,1.07.7"/>
    <path class="cls-1" d="m184.7,104l1.78.84"/>
    <path class="cls-1" d="m185.08,101.84c.46.34,1.02.53,1.58.54"/>
    <path class="cls-1" d="m184.73,99.56h1.23"/>
    <path class="cls-1" d="m196.18,102.41c1.27-.25,2.57-.38,3.86-.4"/>
    <path class="cls-1" d="m201.27,104.84l.18.18"/>
    <path class="cls-1" d="m198.8,113.36c1.54.16,3.1,0,4.58-.44"/>
    <path class="cls-1" d="m200.04,111.36c1.13-.04,2.26-.21,3.35-.51"/>
    <path class="cls-1" d="m197.41,107.36l4.93-.39"/>
    <path class="cls-1" d="m200.22,105.22l2.81-.41"/>
    <path class="cls-1" d="m203.74,116.76c-1.17-.17-2.35-.21-3.53-.11"/>
    <path class="cls-1" d="m203.57,121.1c-1.05.14-2.12.17-3.18.09"/>
    <path class="cls-1" d="m203.56,123.51c-1.69-.2-3.4-.27-5.1-.19"/>
    <path class="cls-1" d="m201.81,126.38c-2.4.25-4.81.39-7.22.44"/>
    <path class="cls-1" d="m201.1,130.61l-5.82.44"/>
    <path class="cls-1" d="m197.93,136.44l-14.61.02"/>
    <path class="cls-1" d="m196.52,140.56c-3.72-.32-7.43-.85-11.09-1.57"/>
    <path class="cls-1" d="m193.16,144.14c-3.57-.87-7.1-1.95-10.54-3.23"/>
    <path class="cls-1" d="m189.3,147.26c-3.67-.96-7.26-2.19-10.75-3.67"/>
    <path class="cls-1" d="m185.79,150.4l-6.52-2.28"/>
    <path class="cls-1" d="m174.34,142.7l-6.16-.55"/>
    <path class="cls-1" d="m179.8,138.82c-3.47-.84-7-1.44-10.56-1.8"/>
    <path class="cls-1" d="m180.86,132.96l-5.46-1.06"/>
    <path class="cls-1" d="m183,125.33c-1.84.79-3.83,1.25-5.84,1.33"/>
    <path class="cls-1" d="m183.19,117.95c-1.39.78-3.03,1.11-4.62.93"/>
    <path class="cls-1" d="m193.02,111.11c-.96-.32-2-.42-3.01-.27"/>
    <path class="cls-1" d="m192.29,105.44c-1.12-.09-2.23-.23-3.33-.45"/>
    <path class="cls-1" d="m172.23,114.18c-3.78-.14-7.55-.56-11.26-1.26"/>
    <path class="cls-1" d="m169.41,120c-1.43-.07-2.85-.32-4.22-.73"/>
    <path class="cls-1" d="m152,119.24c-4.67-1.44-9.38-2.74-14.12-3.92"/>
    <path class="cls-1" d="m147.59,124.73c-1.9-.48-3.73-1.2-5.45-2.12"/>
    <path class="cls-1" d="m173.12,84.76l-1.4-3.17"/>
    <path class="cls-1" d="m173.96,81.79l-1.92-4.23"/>
    <path class="cls-1" d="m174.68,79.14l-1.39-3.7"/>
    <path class="cls-1" d="m175.63,77.71l-1.97-4.74"/>
    <path class="cls-1" d="m176.38,74.93c-.42-2.1-1.17-4.13-2.22-5.99"/>
    <path class="cls-1" d="m176.82,71.39c-.33-1.58-.87-3.13-1.59-4.58"/>
    <path class="cls-1" d="m177.36,68.22c-.24-1.8-.84-3.55-1.77-5.11"/>
    <path class="cls-1" d="m177.55,64.52c-.53-2.16-1.38-4.24-2.52-6.14"/>
    <path class="cls-1" d="m178.19,61.73l-2.63-5.99"/>
    <path class="cls-1" d="m177.99,58.04l-1.87-4.78"/>
    <path class="cls-1" d="m167.14,51.32c1.51,1.66,4.28,3.52,6.34,4.42.92-1.14,1.46-2.59,1.51-4.06"/>
    <path class="cls-1" d="m170.5,75.97c.8-4.19,1.33-8.43,1.6-12.69"/>
    <path class="cls-1" d="m172.74,60.3l.22-2.11"/>
    <path class="cls-1" d="m172.91,54.88l-1.91-1.44"/>
    <path class="cls-1" d="m173.48,53.6l-1.78-1.57"/>
    <path class="cls-1" d="m174.15,52.06l-1.58-1.06"/>
    <path class="cls-1" d="m176.48,88.74c1.71.47,3.23,1.59,4.17,3.09"/>
    <path class="cls-1" d="m178,91.53c1.84.92,3.41,2.37,4.47,4.13"/>
    <path class="cls-1" d="m178.71,94.86c1.9,1.22,3.51,2.9,4.66,4.84"/>
    <path class="cls-1" d="m179.06,97.5c1.62.96,2.98,2.35,3.91,3.99"/>
    <path class="cls-1" d="m180.87,103.06c1.15.69,2.11,1.69,2.77,2.86"/>
    <path class="cls-1" d="m181.39,106.77c.53.82.96,1.7,1.26,2.63"/>
    <path class="cls-1" d="m187.87,93.07c-.93-.65-1.71-1.51-2.28-2.49"/>
    <path class="cls-1" d="m190.17,93.23c-.83-.86-1.49-1.89-1.92-3.01"/>
    <path class="cls-1" d="m191.77,92.34c-.58-.92-1-1.93-1.23-2.99"/>
    <path class="cls-1" d="m195.99,92.34c-.75-.97-1.25-2.13-1.43-3.34"/>
    <path class="cls-1" d="m198.65,91.45c-.55-.99-.98-2.05-1.28-3.15"/>
    <path class="cls-1" d="m200.75,90.4l-1.25-2.81"/>
    <path class="cls-1" d="m202.67,89l-.69-1.59"/>
    <path class="cls-1" d="m191.71,80.57l1.42,3.52"/>
    <path class="cls-1" d="m194.88,82.51l1.14,2.42c.33.7,1.37.52,1.9,1.08"/>
    <path class="cls-1" d="m175.23,82.48c-.29-.35-.48-.78-.55-1.23.41.52.13.7.55,1.23Z"/>
    <path class="cls-1" d="m175.3,80.27l.36.94"/>
    <path class="cls-1" d="m175.5,79.25c.05.37.21.73.44,1.02"/>
    <path class="cls-1" d="m175.89,78.16l.68,1.47"/>
    <path class="cls-1" d="m176.6,77.51c.16.66.39,1.3.69,1.9"/>
    <path class="cls-1" d="m177.2,77.22c.22.75.5,1.48.82,2.2"/>
    <path class="cls-1" d="m178.08,77.21c.25.6.51,1.19.78,1.78"/>
    <path class="cls-1" d="m179.01,77.51c.11.41.27.81.46,1.18"/>
    <path class="cls-1" d="m179.58,77.37c.17.21.3.46.36.72"/>
    <path class="cls-1" d="m180.3,77.08c.1.24.28.45.5.59"/>
    <path class="cls-1" d="m181.31,76.94l.52.79"/>
    <path class="cls-1" d="m182.32,77.23l.43.58"/>
    <path class="cls-1" d="m183.27,77.15l.45.49"/>
    <path class="cls-1" d="m184.28,77.37l.37.36"/>
    <path class="cls-1" d="m192.91,81l.97,2.24"/>
    <path class="cls-1" d="m193.93,81.64l.7,1.46"/>
    <path class="cls-1" d="m196.56,83.38l.93,1.82"/>
    <path class="cls-1" d="m198.36,84.61l.7,1.32"/>
    <path class="cls-1" d="m199.73,85.2l.22.51"/>
    <path class="cls-1" d="m190.95,79.83c.06.42.16.83.31,1.23"/>
    <path class="cls-1" d="m189.71,79.33c.06.44.17.88.32,1.3"/>
    <path class="cls-1" d="m188.49,78.53l.36,1.09"/>
    <path class="cls-1" d="m181.9,83.7c1.74.25,3.44.81,5,1.64"/>
    <path class="cls-1" d="m156.68,90.09c1.3-1.15,3.15-1.59,4.32-2.87"/>
    <path class="cls-1" d="m148.33,71.48c1.72,1.41,3.81,2.35,6.01,2.71"/>
    <path class="cls-1" d="m165.36,79.76c-.29-.78-.74-1.5-1.31-2.1"/>
    <path class="cls-1" d="m165.58,77.66c-.53-.52-1-1.1-1.38-1.74"/>
    <path class="cls-1" d="m165.73,76.57c-.33-.73-.77-1.42-1.3-2.03"/>
    <path class="cls-1" d="m165.78,75.06l-1.22-1.82"/>
    <path class="cls-1" d="m165.94,73.96c-.29-.77-.68-1.51-1.15-2.18"/>
    <path class="cls-1" d="m143.17,76.42c0,.57.11,1.13.31,1.66"/>
    <path class="cls-1" d="m144,77.15c.07.62.23,1.24.48,1.82"/>
    <path class="cls-1" d="m145.5,78.67c.11.71.26,1.41.44,2.1"/>
    <path class="cls-1" d="m146.68,79.75c.2.69.43,1.37.69,2.04"/>
    <path class="cls-1" d="m148.21,80.62c.12.9.38,1.79.76,2.62"/>
    <path class="cls-1" d="m149.58,81.71c.15.82.38,1.63.67,2.41"/>
    <path class="cls-1" d="m150.68,82.65c.08.7.3,1.38.65,1.98"/>
    <path class="cls-1" d="m151.7,83.03l.73,1.81"/>
    <path class="cls-1" d="m154.14,84.69c-.09-.32-.24-.61-.45-.87"/>
    <path class="cls-1" d="m142.87,75.77l-.25,1.02"/>
    <path class="cls-1" d="m142.52,74.97l-1.22,1.03"/>
    <path class="cls-1" d="m152.47,97.53c.05.49.23.96.5,1.36"/>
    <path class="cls-1" d="m153.85,97.52l.69,1.18"/>
    <path class="cls-1" d="m155.24,97.36l1.02,1.49"/>
    <path class="cls-1" d="m156.89,97.45c.24.53.52,1.05.83,1.55"/>
    <path class="cls-1" d="m158.28,97.57c.31.3.57.66.76,1.05"/>
    <path class="cls-1" d="m159.43,97.01l.83,1.62"/>
    <path class="cls-1" d="m160.58,96.78c.16.02.26.17.33.3.21.37.43.74.64,1.12"/>
    <path class="cls-1" d="m161.82,96.07c.24.56.57,1.09.96,1.56"/>
    <path class="cls-1" d="m163.04,95.64c.32.51.61,1.05.85,1.6"/>
    <path class="cls-1" d="m163.97,94.77c.2.64.5,1.26.86,1.82"/>
    <path class="cls-1" d="m164.91,94.34c.17.54.41,1.06.71,1.54"/>
    <path class="cls-1" d="m165.58,93.39l.53.56"/>
    <path class="cls-1" d="m144.45,98.4c.04.48.3.94.69,1.23"/>
    <path class="cls-1" d="m145.41,98.33l.51.58"/>
    <path class="cls-1" d="m146.67,97.73l.72.73"/>
    <path class="cls-1" d="m148.25,97.52c.12.23.3.43.51.57"/>
    <path class="cls-1" d="m149.55,97.17c.28.44.59.85.92,1.25"/>
    <path class="cls-1" d="m151.14,97.31l.8,1.16"/>
    <path class="cls-1" d="m167.04,96.35c-.11.8-.03,1.63.24,2.39"/>
    <path class="cls-1" d="m168.43,98.68c.06.56.21,1.11.46,1.61"/>
    <path class="cls-1" d="m170.02,99.91c.1.65.28,1.29.54,1.9"/>
    <path class="cls-1" d="m171.38,101c.1.55.27,1.09.5,1.6"/>
    <path class="cls-1" d="m173.18,101.73c.21.82.5,1.63.85,2.4"/>
    <path class="cls-1" d="m175.11,103.39l.58,1.98"/>
    <path class="cls-1" d="m176.5,104.18c.31.65.58,1.31.81,1.98"/>
    <path class="cls-1" d="m178.14,105.2c.33.6.59,1.24.76,1.9"/>
    <path class="cls-1" d="m170.98,89.48c.69,3.04,2,5.94,3.83,8.46"/>
    <path class="cls-1" d="m174.29,92.95c.33.84.74,1.64,1.23,2.4"/>
    <path class="cls-1" d="m177.06,100.19c.53.65,1.13,1.24,1.79,1.76"/>
    <path class="cls-1" d="m149.91,92.29c.6-.45,1.27-.81,1.97-1.06"/>
    <path class="cls-1" d="m157.63,92.61c1.39-1.4,3.46-2.11,5.42-1.85"/>
    <path class="cls-1" d="m157.61,75.14c.99.21,1.87.78,2.6,1.47s1.32,1.52,1.91,2.34"/>
    <path class="cls-1" d="m144.62,69.03c-.86-.6-1.59-1.4-2.1-2.32"/>
    <path class="cls-1" d="m147.45,71.21c-.32-.17-.61-.4-.87-.66"/>
    <path class="cls-1" d="m190.01,86.08c1.12.53,2.33.87,3.56,1"/>
    <path class="cls-1" d="m135.17,33.19c-.25,2.86-.83,5.69-1.7,8.42"/>
    <path class="cls-1" d="m132.6,46.37l-1.1,3.62"/>
    <path class="cls-1" d="m142.54,46.96c.05.69.16,1.38.33,2.05"/>
    <path class="cls-1" d="m143.37,46.71c.05.81.18,1.61.4,2.38"/>
    <path class="cls-1" d="m144.11,45.81l.33,1.89"/>
    <path class="cls-1" d="m144.79,44.57l.73,1.64"/>
    <path class="cls-1" d="m145.7,43.67c.18.7.41,1.4.68,2.07"/>
    <path class="cls-1" d="m146.38,42.91c.34.66.59,1.36.74,2.08"/>
    <path class="cls-1" d="m147.09,42.11l.79,1.82"/>
    <path class="cls-1" d="m147.81,41.38c.36.63.66,1.29.89,1.97"/>
    <path class="cls-1" d="m148.58,40.05l.98,2.49"/>
    <path class="cls-1" d="m149.39,39.39c.43.64.76,1.35,1,2.08"/>
    <path class="cls-1" d="m150.31,38.65l1.16,2.58"/>
    <path class="cls-1" d="m151.02,37.76l1.35,2.89"/>
    <path class="cls-1" d="m151.79,37.34l1.45,2.93"/>
    <path class="cls-1" d="m152.77,37.26l1.38,2.92"/>
    <path class="cls-1" d="m153.74,37.42c.49.63.9,1.33,1.2,2.07"/>
    <path class="cls-1" d="m152.37,50.08l.92,1.96"/>
    <path class="cls-1" d="m153.4,49.65c.59.96,1.12,1.95,1.58,2.98"/>
    <path class="cls-1" d="m154.77,49.58c.6,1.01,1.09,2.09,1.46,3.2"/>
    <path class="cls-1" d="m156.39,49.96c.57,1.19,1.2,2.36,1.86,3.5"/>
    <path class="cls-1" d="m157.7,50.18c.42.49.71,1.07,1,1.65.35.7.69,1.41,1.04,2.11"/>
    <path class="cls-1" d="m159.09,50.2c.84,1.32,1.58,2.71,2.2,4.15"/>
    <path class="cls-1" d="m160.33,50.12c.81,1.54,1.64,3.07,2.51,4.57"/>
    <path class="cls-1" d="m161.32,50c-.03-.06.05-.13.12-.11s.11.08.15.14c.9,1.47,1.72,2.99,2.45,4.56"/>
    <path class="cls-1" d="m162.57,49.9c.38.16.59.56.77.93.48.98.95,1.96,1.43,2.94"/>
    <path class="cls-1" d="m163.64,49.65c.25-.02.42.23.53.45.57,1.09,1.14,2.18,1.7,3.27"/>
    <path class="cls-1" d="m164.56,49.06c.65.58,1.15,1.34,1.43,2.17"/>
    <path class="cls-1" d="m131.41,40.79c.41.25.84.45,1.3.6"/>
    <path class="cls-1" d="m131.91,39.95c.29.16.62.25.96.27,0-.08,0-.16,0-.23"/>
    <path class="cls-1" d="m131.98,38.52l1.06.43"/>
    <path class="cls-1" d="m132.32,37.27c.44.31.93.53,1.45.66"/>
    <path class="cls-1" d="m132.62,35.91l1.64.98"/>
    <path class="cls-1" d="m133.36,34.92l1.81.97"/>
    <path class="cls-1" d="m133.46,33.83c-.09-.05-.11-.19-.05-.27.89.58,1.78,1.17,2.67,1.75"/>
    <path class="cls-1" d="m133.78,32.53c1.32,1.02,2.71,1.94,4.16,2.75"/>
    <path class="cls-1" d="m134.54,32.08c1.49.99,2.96,2.01,4.4,3.07"/>
    <path class="cls-1" d="m136.09,32.1c1.19.66,2.34,1.41,3.42,2.24"/>
    <path class="cls-1" d="m137.65,32.15c.69.21,1.33.56,1.87,1.04"/>
    <path class="cls-1" d="m154.52,38.6l1.27,2.19"/>
    <path class="cls-1" d="m156.23,39.5l.68,1.3"/>
    <path class="cls-1" d="m133.37,31.94s-.07-.05-.08,0,.02.08.06.11c.14.13.28.27.43.4"/>
    <path class="cls-1" d="m134.49,31.41l.78.7"/>
    <path class="cls-1" d="m135.17,31.22l.84.97"/>
    <path class="cls-1" d="m146.93,60.59c1.47-1.52,2.87-3.09,4.22-4.72"/>
    <path class="cls-1" d="m148.16,60.59l3.78-3.77"/>
    <path class="cls-1" d="m151.2,59.29c.79-.68,1.55-1.41,2.26-2.17"/>
    <path class="cls-1" d="m133.57,63.29c1.05-1.77,2.02-3.58,2.92-5.43"/>
    <path class="cls-1" d="m131.53,66.77c.49-.77,1.09-1.48,1.78-2.09"/>
    <path class="cls-1" d="m144.07,53.98l5.24-7.57"/>
    <path class="cls-1" d="m136.66,39.4c.45,2.66-.24,5.36-.22,8.06"/>
    <path class="cls-1" d="m137.88,46.05v4.02"/>
    <path class="cls-1" d="m142.86,56.29c-.28.46-.55.93-.79,1.41"/>
    <path class="cls-1" d="m150.76,45.07l.33-.41"/>
    <path class="cls-1" d="m155.74,59.63c1.51-.86,3.16-1.48,4.86-1.83"/>
    <path class="cls-1" d="m162.4,57.21c.44.03.89-.02,1.31-.16"/>
    <path class="cls-1" d="m149.39,66.71c.16-1.24.51-2.46,1.04-3.6"/>
    <path class="cls-1" d="m150.7,65.66l.67-2.64"/>
    <path class="cls-1" d="m152.14,64.34c.11-.65.3-1.29.57-1.89"/>
    <path class="cls-1" d="m153.63,63.36l.49-2.13"/>
    <path class="cls-1" d="m155.23,62.13c0-.64.19-1.27.53-1.8"/>
    <path class="cls-1" d="m156.75,61.39c.09-.54.25-1.07.48-1.56"/>
    <path class="cls-1" d="m127.33,83.9c-1.43.15-2.9-.87-3.26-2.26"/>
    <path class="cls-1" d="m128.49,82.62c-1.51-.5-2.81-1.6-3.54-3.01"/>
    <path class="cls-1" d="m130.23,81.18l-2.43-1.22c-.72-.36-1.55-.88-1.55-1.69"/>
    <path class="cls-1" d="m131.78,80.23l-2.78-1.93c-.59-.41-1.24-.91-1.3-1.63"/>
    <path class="cls-1" d="m132.52,78.93c-1.5-.82-2.84-1.93-3.92-3.26"/>
    <path class="cls-1" d="m134.28,77.88c-1.21-.81-2.34-1.74-3.37-2.76"/>
    <path class="cls-1" d="m135.61,77.27l-4.27-4.03"/>
    <path class="cls-1" d="m136.67,75.91l-3.99-3.3c-.23-.19-.48-.44-.4-.73"/>
    <path class="cls-1" d="m138.23,75.38c-1.45-1.26-2.79-2.64-4-4.14-.16-.2-.31-.55-.08-.68"/>
    <path class="cls-1" d="m140.13,75.08c-1.38-1.42-2.62-2.96-3.72-4.61"/>
    <path class="cls-1" d="m137.94,69.84c1.02,1.14,2.39,2.52,2.97,3.91-1.36-.06-2.24-2.37-2.88-3.39"/>
    <path class="cls-1" d="m148.36,66.89c-.68-.42-1.27-1-1.71-1.67"/>
    <path class="cls-1" d="m148.94,66.74c-.64-.63-1.15-1.4-1.48-2.24"/>
    <path class="cls-1" d="m149.52,66.65c-.42-.68-.72-1.44-.88-2.22"/>
    <path class="cls-1" d="m141.58,73.43l-1.8-3.08"/>
    <path class="cls-1" d="m140.48,74.75c-1.26-1.1-2.33-2.42-3.13-3.89"/>
    <path class="cls-1" d="m139.44,75.5l-2.75-3.09"/>
    <path class="cls-1" d="m137.72,76.13c-.32-.04-.54-.34-.73-.61-.31-.46-.63-.93-.94-1.39"/>
    <path class="cls-1" d="m136.29,76.66c-.16.07-.35.01-.51-.06-1.07-.48-1.81-1.46-2.5-2.4"/>
    <path class="cls-1" d="m134.85,77.78c-.84-.45-1.61-1.01-2.3-1.67"/>
    <path class="cls-1" d="m133.41,78.91c-.76-.45-1.46-1.02-2.04-1.7"/>
    <path class="cls-1" d="m132.35,79.95c-.06.03-.14-.02-.19-.06-.82-.62-1.64-1.25-2.47-1.87"/>
    <path class="cls-1" d="m130.57,80.77c-.36,0-.66-.27-.92-.51-.6-.57-1.18-1.17-1.73-1.79"/>
    <path class="cls-1" d="m128.92,82.29l-3.56-2.71"/>
    <path class="cls-1" d="m127.47,83.41c-1.05-.43-2-1.11-2.74-1.96"/>
    <path class="cls-1" d="m126.08,84.87c-.78-.53-1.52-1.11-2.21-1.75"/>
    <path class="cls-1" d="m125.08,85.22c-.56-.08-1.07-.44-1.35-.93"/>
    <path class="cls-1" d="m124.64,86c-.49-.05-.95-.38-1.17-.82"/>
    <path class="cls-1" d="m124.2,87.04c-.49-.08-.92-.49-1.02-.98"/>
    <path class="cls-1" d="m129.38,81.81c-.6-.19-1.15-.55-1.57-1.02"/>
    <path class="cls-1" d="m130.19,81.32c-.65-.57-1.24-1.21-1.74-1.91"/>
    <path class="cls-1" d="m133.48,78.54l-2.17-2.14"/>
    <path class="cls-1" d="m134.58,77.59l-1.88-1.85"/>
    <path class="cls-1" d="m137.49,75.92l-2.02-2.15"/>
    <path class="cls-1" d="m125.63,55.53c.18.59.39,1.17.62,1.74"/>
    <path class="cls-1" d="m125.82,55.07l.63,1.33"/>
    <path class="cls-1" d="m126.35,54.63c.2.5.43,1,.68,1.48"/>
    <path class="cls-1" d="m126.96,54.13l.46,1.38"/>
    <path class="cls-1" d="m126.43,56.37c.41.52.79,1.07,1.13,1.64"/>
    <path class="cls-1" d="m127.23,59.01l-.98-1.66c.37.87.54,1.89.91,2.76"/>
    <path class="cls-1" d="m126.82,55.66c.13.58.33,1.15.6,1.68"/>
    <path class="cls-1" d="m127.27,55.22c.08.49.31.96.65,1.33"/>
    <path class="cls-1" d="m127.34,53.77c.08.22.21.42.38.58"/>
    <path class="cls-1" d="m127.85,52.75l.23.29"/>
    <path class="cls-1" d="m150.33,24.11c-.04.11-.19-.03-.21-.14-.09-.51-.17-1.07.11-1.5s1.1-.46,1.22.04"/>
    <path class="cls-1" d="m151.65,19.9c.19-1.23-.14-2.53-.89-3.52.52-.03.79-.65.8-1.18.01-1.03-.56-2.04-1.44-2.56"/>
    <path class="cls-1" d="m148.9,8.6c.37-.4,1.03-.51,1.51-.25s.74.87.6,1.4"/>
    <path class="cls-1" d="m137.97,13.02c-.17-.67-.13-1.43.24-2.02s1.08-.98,1.77-.86c1.12.2,1.62,1.5,1.91,2.6"/>
    <path class="cls-1" d="m142.99,17.29c.8.26,1.51.79,1.98,1.49"/>
    <path class="cls-1" d="m144.53,13.59c1.25.69,2.01,2.08,2.2,3.5s-.1,2.86-.52,4.22"/>
    <path class="cls-1" d="m140.06,24.11c-.26.47-.45,1-.42,1.54s.33,1.08.81,1.32,1.16.07,1.41-.41"/>
    <path class="cls-1" d="m133.86,24.39c-.14.56.06,1.2.51,1.58s1.11.47,1.64.23"/>
    <path class="cls-1" d="m131.94,24.9c-1.37-.42-2.89-1.01-3.43-2.33-.49-1.19,0-2.53.48-3.72"/>
    <path class="cls-1" d="m131.83,20.01c-.74-.61-1.05-1.64-.92-2.58s.66-1.8,1.34-2.47c.32-.32.72-.73.55-1.16-.19-.46-.91-.49-1.13-.94-.21-.43.2-.9.59-1.17.74-.49,1.61-.8,2.49-.88"/>
    <path class="cls-1" d="m136.23,18.67c-.47.57-.53,1.45-.14,2.08s1.21.96,1.93.79"/>
    <path class="cls-1" d="m138.1,16.07c.53-.76,1.74-.81,2.48-.25s1.05,1.55,1.03,2.47"/>
    <path class="cls-1" d="m141.94,12.21c1.26.09,2.39,1.17,2.52,2.43"/>
    <path class="cls-1" d="m136.12,10.68c1.04.13,2.04.57,2.83,1.25"/>
    <path class="cls-1" d="m142.62,26.67c1.1.75,2.79.44,3.55-.65"/>
    <path class="cls-1" d="m138.85,7.06c.38-.8,1.24-1.34,2.13-1.33s1.74.56,2.11,1.36"/>
    <path class="cls-1" d="m136.35,5.93c1.05-1.17,2.43-2.04,3.94-2.48.64-.19,1.37-.28,1.93.08"/>
    <path class="cls-1" d="m147.09,3.87c.85-.3,1.84.19,2.31.96s.5,1.74.32,2.63"/>
    <path class="cls-1" d="m132.61,7.54c-1.23.12-2.47.61-3.24,1.58s-.95,2.44-.21,3.43"/>
    <path class="cls-1" d="m149.66,28.19c1.47.02,2.87-1.14,3.12-2.6"/>
    <path class="cls-1" d="m154.25,21.39c1.25-.71,1.98-2.23,1.74-3.65"/>
    <path class="cls-1" d="m154.28,11.48c-.73-.47-1.24-1.28-1.34-2.14s.2-1.77.8-2.4"/>
    <path class="cls-1" d="m158.85,5.14c-1.73.7-2.65,2.92-1.92,4.64"/>
    <path class="cls-1" d="m157.03,10.81c-.84,2.18.09,4.91,2.1,6.11"/>
    <path class="cls-1" d="m160.87,16.66c-.25.64.01,1.38.48,1.88s1.11.79,1.74,1.05c1.53.62,3.38,1.03,4.72.08"/>
    <path class="cls-1" d="m170.11,17.31c1.08.49,1.34,1.89,1.33,3.08s-.07,2.52.75,3.38c.91.96,2.46.83,3.73.48"/>
    <path class="cls-1" d="m177.6,23.03c-.04.72.32,1.44.87,1.9s1.28.69,2.01.72c.51.02,1.05-.07,1.45-.38.38-.29.6-.74.86-1.15.48-.74,1.14-1.36,1.91-1.78"/>
    <path class="cls-1" d="m185.4,20.46c.72-1.21.82-2.77.25-4.06"/>
    <path class="cls-1" d="m177.89,13.71c-.45-.77-.6-1.7-.43-2.57.14-.72.6-1.47,1.32-1.61.78-.15,1.5.45,1.96,1.09.83,1.15,1.26,2.59,1.2,4.01"/>
    <path class="cls-1" d="m169.84,10.01c-.57-.22-1.17-.35-1.77-.4-.34-.02-.71-.02-1,.16-.47.28-.62.89-.63,1.43,0,.71.18,1.45.65,1.97s1.27.79,1.93.52"/>
    <path class="cls-1" d="m163.33,7.06c-.65-.12-1.21.48-1.49,1.08-.19.39-.31.85-.14,1.25s.75.63,1.05.32"/>
    <path class="cls-1" d="m169.15,5.7c.54-.76,1.37-1.32,2.28-1.54.47-.11.99-.14,1.44.07.71.33,1.06,1.13,1.26,1.89.29,1.1.38,2.24.29,3.37"/>
    <path class="cls-1" d="m173.11,11.47c-1.18.54-1.78,1.99-1.56,3.26s1.14,2.36,2.25,3.03c.84.51,1.86.82,2.8.55"/>
    <path class="cls-1" d="m178.12,17.76c-.55,1.42.08,3.2,1.4,3.96.47.27,1.05.42,1.55.23.94-.35,1.14-1.58,1.18-2.59"/>
    <path class="cls-1" d="m178.06,10.71c0-.78.06-1.6.49-2.25s1.32-1.06,2.01-.71c.35.18.6.53.78.88.46.88.64,1.9.51,2.89"/>
    <path class="cls-1" d="m181.46,14.43c-1.16.03-2.04,1.43-1.58,2.49s2.09,1.36,2.9.53"/>
    <path class="cls-1" d="m163.99,12.88c-.21-.39-.84-.33-1.13,0s-.33.81-.36,1.26c-.06.94-.03,2.06.76,2.56.56.36,1.34.23,1.86-.19s.8-1.07.91-1.73c.06-.36-.13-.9-.47-.77-.1.04-.17.13-.22.22-.72,1.18.06,2.82,1.28,3.47.78.41,1.87.47,2.46-.2"/>
    <path class="cls-1" d="m166.16,8.78c-.98-.06-1.81-1.01-1.74-1.99s1.03-1.8,2-1.72c1.06.09,1.84,1.04,2.31,1.99"/>
    <path class="cls-1" d="m150.2,28.04c-.56-.16-1.16.25-1.4.78s-.19,1.15-.11,1.73c.06.39.36.9.7.71.29-.16.17-.59.06-.91-.28-.83-.11-1.79.44-2.47s1.45-1.06,2.31-.97c-.24.3-.48.6-.83.75s-.82.08-1-.25c-.08-.15-.09-.32-.08-.49.06-.7.57-1.28,1.07-1.77,1.29-1.27,2.77-2.37,4.36-3.24-.52.11-1.23.1-1.36-.41-.08-.33.16-.65.42-.86.75-.62,1.77-.9,2.73-.74"/>
    <path class="cls-1" d="m165.71,40.54c.49.4,1.24.19,1.77-.17.93-.63,1.59-1.66,1.77-2.77.03-.2.06-.43.22-.56.15-.13.37-.12.58-.14.97-.08,1.78-.88,2.06-1.81s.1-1.95-.3-2.83c1.3-.37,2.4-1.36,2.9-2.62.28-.72.35-1.59-.1-2.22s-1.54-.77-1.97-.13"/>
    <path class="cls-1" d="m152.56,30.91c-.24.36-.39.8-.32,1.23s.39.83.82.91.91-.26.92-.69c.33,1.19,1.64,2.02,2.86,1.8"/>
    <path class="cls-1" d="m161.45,34.83c.22.78.46,1.61,1.06,2.16s1.67.68,2.17.04c.2-.26.4-.65.72-.57.11.03.2.11.29.18.4.28.97.2,1.38-.07s.69-.69.95-1.1c.4-.63.79-1.28,1.17-1.93.36-.62.7-1.44.26-2.01"/>
    <path class="cls-1" d="m169.96,30.33c.67-.42.52-1.43.17-2.13-.38-.77-.91-1.47-1.54-2.05"/>
    <path class="cls-1" d="m158.59,25.22c-.26-.76.19-1.66.91-2.01s1.64-.18,2.27.31,1,1.28,1.11,2.08"/>
    <path class="cls-1" d="m162.06,28.71c.12-.42.62-.58,1.05-.65.73-.11,1.57-.11,2.09.4.39.38.51.96.46,1.5s-.27,1.04-.49,1.54"/>
    <path class="cls-1" d="m156.97,27.52c-.71.23-1.21.93-1.36,1.66s-.03,1.5.17,2.22c.25.93.64,1.85,1.31,2.55s1.65,1.14,2.6.98"/>
    <path class="cls-1" d="m157.84,37.19c-.32,1.18.66,2.41,1.83,2.75s2.43,0,3.55-.49"/>
    <path class="cls-1" d="m165.84,45.81c-.7-1.33-.18-3.06.89-4.12s2.58-1.56,4.05-1.84"/>
    <path class="cls-1" d="m174.39,36.17c-.7-1.17-.81-2.67-.28-3.93s1.69-2.22,3.02-2.53c.44-.1.93-.12,1.3.14s.46.89.09,1.14c-.11-.42-.09-.88.06-1.29.45-1.23,2-1.81,3.26-1.43s2.17,1.49,2.62,2.72"/>
    <path class="cls-1" d="m166.7,43.4c-1.22.54-1.9,1.98-1.73,3.3s1.08,2.47,2.24,3.13,2.53.86,3.85.8"/>
    <path class="cls-1" d="m180.11,54.69c1.42.86,3.44.54,4.52-.72.32.42.72.81,1.23.95,1.14.29,2.14-.82,2.61-1.89s.82-2.34,1.83-2.92c.33-.19.72-.29,1.04-.5.49-.31.81-.84,1.01-1.39.67-1.84.14-3.9-.6-5.71"/>
    <path class="cls-1" d="m185.14,49.89c1.45-.51,2.61-1.76,3.01-3.24s.03-3.15-.96-4.32"/>
    <path class="cls-1" d="m180.99,58.79c.71.7,1.86.82,2.8.48s1.7-1.06,2.3-1.86"/>
    <path class="cls-1" d="m180.47,47.06c.4.26.95.21,1.36-.03s.72-.63.95-1.04c.54-.93.81-2.01.77-3.09-.02-.53-.1-1.1.18-1.56.2-.33.54-.53.81-.79.62-.59.86-1.5.79-2.35s-.39-1.66-.77-2.43c-.25-.5-.55-1.01-1.06-1.24-.87-.39-1.84.22-2.59.81"/>
    <path class="cls-1" d="m172.22,42.6c-.84-.42-1.92.29-2.13,1.2s.24,1.87.88,2.56c1.1,1.19,2.8,1.79,4.4,1.56"/>
    <path class="cls-1" d="m176.85,43.66c-.74.1-1.53-.24-1.97-.84s-.53-1.45-.22-2.13c.26-.57.75-.99,1.28-1.34,1.51-.99,3.5-1.43,5.14-.66"/>
    <path class="cls-1" d="m180.71,48.22c-.24.79.31,1.71,1.11,1.89.86.19,1.73-.43,2.12-1.22s.42-1.7.44-2.57"/>
    <path class="cls-1" d="m186.48,22.21c-1.03,1.3-2.21,2.13-3.35,3.24-1.54,1.5.35,1.91,1.8,2.56"/>
    <path class="cls-1" d="m168.51,26.42c.46.59.76,1.3.84,2.04"/>
    <path class="cls-1" d="m165.95,36.79c.24-.26.37-.62.37-.97"/>
    <path class="cls-1" d="m166.85,36.63l.4-1.35"/>
    <path class="cls-1" d="m167.71,35.95l.5-2.02"/>
    <path class="cls-1" d="m166.66,40.48v1.55"/>
    <path class="cls-1" d="m167.55,40.14c-.07.34-.03.7.1,1.02"/>
    <path class="cls-1" d="m168.55,39.19v1.42c0,.09.1.21.14.12"/>
    <path class="cls-1" d="m169.3,38.18c-.03.61-.02,1.22.02,1.82"/>
    <path class="cls-1" d="m169.97,37.44l.08,1.63c0,.09.03.2.12.21"/>
    <path class="cls-1" d="m170.52,37.1c.01.52.05,1.04.12,1.56"/>
    <path class="cls-1" d="m171.07,36.56l.15,1.49"/>
    <path class="cls-1" d="m171.86,35.62c0,.53.07,1.06.22,1.57"/>
    <path class="cls-1" d="m172.4,34.47c0,.46.07.93.22,1.37"/>
    <path class="cls-1" d="m172.67,32.99l.28,1.62c.06-.05.07-.13.04-.2"/>
    <path class="cls-1" d="m173.3,32.18c.03.52.11,1.03.23,1.54.07-.03.1-.11.08-.18"/>
    <path class="cls-1" d="m174.02,31.44l.14,1.48c.1,0,.18-.1.17-.2"/>
    <path class="cls-1" d="m174.89,30.56v.2"/>
    <path class="cls-1" d="m179.41,61.19c-.05-1.27.18-2.54.67-3.71"/>
    <path class="cls-1" d="m180.63,60.45c.07-.97.27-1.92.58-2.84"/>
    <path class="cls-1" d="m181.88,60.25l.66-2.99"/>
    <path class="cls-1" d="m182.99,59.57v.13c.21-1.04.45-1.87.65-2.91"/>
    <path class="cls-1" d="m183.85,59.25c.1.07.08.23.09.36s.13.28.23.2c.04-.03.05-.08.06-.13.18-.98.36-1.97.54-2.95"/>
    <path class="cls-1" d="m185.16,58.43c-.09.28-.01.6.19.81.13-1.12.26-2.25.38-3.38"/>
    <path class="cls-1" d="m186.1,57.88c-.06.22.02.47.19.62.13-.05.16-.21.18-.35.12-.97.24-1.94.36-2.91"/>
    <path class="cls-1" d="m187.17,58.02c-.03.15-.01.32.04.46.3-.05.39-.42.41-.72.08-1.11.16-2.21.23-3.32"/>
    <path class="cls-1" d="m188.11,56.87c0,.15.04.3.13.42.28-.09.37-.43.41-.72.24-1.61.17-3.27.59-4.84"/>
    <path class="cls-1" d="m191.24,49.98c-.09.6-.11,2.63.42,2.95.33-1.17,1.21-2.09,1.23-3.34"/>
    <path class="cls-1" d="m179.64,60.92c-.1-2.35.27-4.73,1.08-6.94"/>
    <path class="cls-1" d="m181.76,60.11c.07-1.44.33-2.87.77-4.25"/>
    <path class="cls-1" d="m183.59,60.38c.21-2.11.57-4.21,1.09-6.27"/>
    <path class="cls-1" d="m176.58,29.75c-.03-.92.02-1.85.15-2.76"/>
    <path class="cls-1" d="m177.01,29.48c-.09-.95.02-1.92.31-2.84"/>
    <path class="cls-1" d="m178.53,28.61c-.07-1.07.06-2.14.38-3.16"/>
    <path class="cls-1" d="m179.53,28.67c.07-1.38.19-2.75.37-4.11"/>
    <path class="cls-1" d="m180.59,27.93c.02-1.45.2-2.9.54-4.31"/>
    <path class="cls-1" d="m181.44,28.13v.05c.18-1.68.35-3.36.52-5.04"/>
    <path class="cls-1" d="m182.35,28.81c.26-1.82.47-3.64.62-5.47"/>
    <path class="cls-1" d="m183.18,29.28c.28-1.77.5-3.55.67-5.33"/>
    <path class="cls-1" d="m183.91,30.08l.98-7.63"/>
    <path class="cls-1" d="m184.89,28.88c-.12.23-.09.53.08.73.29-1.87.57-3.73.86-5.6"/>
    <path class="cls-1" d="m186.08,25.23c.33-1.42.58-2.86.76-4.32"/>
    <path class="cls-1" d="m176.27,29.69c-.21-1.09-.35-2.2-.41-3.32"/>
    <path class="cls-1" d="m175.51,29.5c-.28-.92-.44-1.89-.46-2.85"/>
    <path class="cls-1" d="m158.49,20.3c.05-.89.21-1.78.47-2.63"/>
    <path class="cls-1" d="m160,20.3c-.01-1.13.12-2.27.39-3.37"/>
    <path class="cls-1" d="m161.27,20.44c.02-1.3.21-2.59.55-3.84"/>
    <path class="cls-1" d="m162.46,20.77l.41-3.84"/>
    <path class="cls-1" d="m163.72,21.18c.09-1.5.3-2.99.63-4.45"/>
    <path class="cls-1" d="m164.75,21.43c-.05-.01-.03.09.02.08s.07-.08.07-.13c.12-1.13.29-2.26.51-3.38"/>
    <path class="cls-1" d="m165.8,22.13c.17-1.88.4-3.75.68-5.61"/>
    <path class="cls-1" d="m166.89,21.12c-.06.26-.07.63.18.71.25-1.83.56-3.65.93-5.46"/>
    <path class="cls-1" d="m168.24,22.2c.05.09.18-.03.2-.14.41-1.83.7-3.68.86-5.55"/>
    <path class="cls-1" d="m169.23,23.09c.16.06.28-.16.31-.32.44-1.91.8-3.84,1.1-5.78"/>
    <path class="cls-1" d="m172.75,18.54c-.05-.06-.09-.12-.14-.18-.15,1.2-.3,2.4-.45,3.6-.18,1.43-.22,2.8.43,4.13.13-.18.16-.41.2-.64.3-2.05.6-4.11.89-6.16"/>
    <path class="cls-1" d="m173.68,27.12c-.02.11-.01.24.04.34.35-.35.42-.88.48-1.37.16-1.41.31-2.82.47-4.24.04-.33.07-.65.18-.96"/>
    <path class="cls-1" d="m174.63,27.15c.19-.1.26-.33.32-.53.37-1.39.48-2.86,1.1-4.15"/>
    <path class="cls-1" d="m175.9,26.71c-.01.05,0,.11.05.15.35-.12.47-.53.55-.89.16-.74.32-1.49.47-2.23"/>
    <path class="cls-1" d="m156.69,20.56c.5-.4,1.02-.78,1.55-1.14.35-.23.74-.47,1.16-.46.26,0,.52.11.76.2,1.44.58,2.88,1.16,4.31,1.74.37.15.74.3,1.05.54.28.22.52.51.84.65.53.24,1.14.05,1.72.06.79.02,1.52.41,2.15.89,1.21.92,2.17,2.16,2.75,3.57"/>
    <path class="cls-1" d="m154.55,22.04c.35-.29.54-.73.69-1.16,1.2-3.57.26-7.48-.89-11.07"/>
    <path class="cls-1" d="m157.42,16.66c-.12.53-.47,1.01-.94,1.29"/>
    <path class="cls-1" d="m156.01,16.18c-.04.05,0,.14.06.16s.13,0,.2-.01c.64-.21,1.14-.77,1.29-1.42"/>
    <path class="cls-1" d="m155.86,15.11c.67-.26,1.23-.81,1.51-1.47"/>
    <path class="cls-1" d="m155.65,13.68c.53-.52.99-1.1,1.37-1.74"/>
    <path class="cls-1" d="m155.47,11.89c.64-.31,1.14-.9,1.34-1.57"/>
    <path class="cls-1" d="m154.78,9.63c.63-.38,1.21-.85,1.7-1.4"/>
    <path class="cls-1" d="m136.21,31.13c-.96-.84-1.34-2.27-.92-3.47"/>
    <path class="cls-1" d="m137.17,30.98c-.21-.11-.3-.35-.36-.58-.26-.96-.32-1.97-.16-2.95"/>
    <path class="cls-1" d="m138.27,31.4c-.55-1.06-.68-2.32-.36-3.47"/>
    <path class="cls-1" d="m139.2,31.06l-.09-1.13c-.06-.69-.11-1.39.05-2.06"/>
    <path class="cls-1" d="m140.49,31.91c-.27-1.42-.27-2.89,0-4.32"/>
    <path class="cls-1" d="m141.53,32.05c-.25-1.76-.29-3.56-.1-5.33"/>
    <path class="cls-1" d="m142.45,31.85c-.05.01,0,.1.05.08s.05-.09.05-.15c-.14-1.8-.15-3.61-.03-5.41"/>
    <path class="cls-1" d="m143.83,31.13s.01-.04.01-.06c.09-1.85-.08-3.71-.25-5.56"/>
    <path class="cls-1" d="m145.01,31.45c0,.05.08.07.12.04s.05-.1.05-.15c.1-1.81,0-3.62-.29-5.41-.1-.61-.23-1.24-.12-1.85"/>
    <path class="cls-1" d="m145.93,30.43l.09.39c.15.03.3-.08.37-.22s.08-.3.08-.45c.02-1.26-.08-2.52-.3-3.76-.15-.83-.36-1.67-.31-2.51"/>
    <path class="cls-1" d="m146.86,30.25l.36.4c.22-.02.29-.3.31-.52.16-2.22-.48-4.43-.43-6.66"/>
    <path class="cls-1" d="m149.05,20.98c-.19.58-.1,1.22-.03,1.83.12.98.19,1.97.21,2.96,0,.42.28,1.81-.4,1.29-.54-.41-.42-1.77-.51-2.37-.13-.92-.29-1.83-.4-2.75"/>
    <path class="cls-1" d="m149.87,25.97c0,.1.08.2.18.21.15-1.93.06-3.89-.26-5.8"/>
    <path class="cls-1" d="m151.06,24.84s-.04.06,0,.06.06-.05.07-.09c.37-1.72-.27-3.49-.33-5.25"/>
    <path class="cls-1" d="m151.96,23.83c0,.05.07.08.12.05s.06-.09.07-.14c.31-1.65-.02-3.34-.35-4.98"/>
    <path class="cls-1" d="m153.04,22.69s-.01.09.04.08.07-.06.08-.1c.45-1.46-.22-3-.27-4.52"/>
    <path class="cls-1" d="m154.08,21.98c.49-1.54-.27-3.19-.16-4.8"/>
    <path class="cls-1" d="m155.58,16.12c.04.33.32,2.08.05,2.29-.39.3-.64-.47-.72-.74"/>
    <path class="cls-1" d="m162.29,41.84c-.21-1.13-.29-2.3-.23-3.45"/>
    <path class="cls-1" d="m164.09,41.08c-.08-1.42-.22-2.84-.41-4.24"/>
    <path class="cls-1" d="m165.68,40.4c-.25-1.45-.38-2.91-.37-4.38"/>
    <path class="cls-1" d="m166.86,40.14l-.34-3.64"/>
    <path class="cls-1" d="m167.75,39.8c-.22-1.36-.36-2.74-.41-4.11"/>
    <path class="cls-1" d="m146.15,3.76c.86,1.11,1.34,2.52,1.33,3.93"/>
    <path class="cls-1" d="m148.77,3.97c.31,1.75.53,3.52.68,5.3"/>
    <path class="cls-1" d="m150.35,4.69c.14,1.63.31,3.25.51,4.88"/>
    <path class="cls-1" d="m151.97,4.82l.7,5.89"/>
    <path class="cls-1" d="m153.59,5.25c.09,1.73.23,3.45.4,5.17"/>
    <path class="cls-1" d="m154.8,4.83c.21,1.66.33,3.34.37,5.01"/>
    <path class="cls-1" d="m156.26,4.96c.31,1.12.44,2.28.4,3.44"/>
    <path class="cls-1" d="m166.42,2.53c.13.7.36,1.38.69,2.01"/>
    <path class="cls-1" d="m167.84,1.96l.6,3"/>
    <path class="cls-1" d="m169.43,1.81l.95,3.16"/>
    <path class="cls-1" d="m171.45,1.52c.39.87.66,1.8.77,2.74"/>
    <path class="cls-1" d="m182.47,8.39c.45,1.01.78,2.08.95,3.17"/>
    <path class="cls-1" d="m184.43,10.56c.46.99.76,2.06.86,3.15"/>
    <path class="cls-1" d="m180.14,29.6v2.29"/>
    <path class="cls-1" d="m181.9,28.59l.32,4.59"/>
    <path class="cls-1" d="m184.45,28.74c-.06,1.29-.04,2.58.05,3.87"/>
    <path class="cls-1" d="m185.39,30.03c.32,1.74.49,3.52.49,5.29"/>
    <path class="cls-1" d="m140.95,33.14c-.75,1.39.44,3.38,2.02,3.38-.68.77-.69,2.05-.02,2.84s1.93.98,2.8.43c.58-.36,1.21-1.03,1.81-.7-.48.45-.23,1.41.41,1.56s1.3-.57,1.09-1.19"/>
    <path class="cls-1" d="m145,34.97c.92-.39,2.1.53,1.95,1.52"/>
    <path class="cls-1" d="m144.3,32.24c-.14.84.23,1.75.92,2.25s2.67.68,3.42.28c-.55-1.08-1.31-2.06-2.22-2.86"/>
    <path class="cls-1" d="m141.24,33.35l.63,2.92"/>
    <path class="cls-1" d="m155.43,43.17c.02-.06-.09-.09-.13-.04s-.03.12-.02.18c.15.6.69,1.07,1.3,1.15-.38-.03-.72.33-.77.71s.11.76.31,1.09c.29.47.68.88,1.14,1.2.07.05.14.09.17.17.03.06.03.13.03.2.03.39.34.7.62.98.29.28.63.57,1.03.57.53,0,.94-.66.7-1.13"/>
    <path class="cls-1" d="m159.52,45.72c-.48-.36-.67-1.07-.41-1.62"/>
    <path class="cls-1" d="m158.01,42.27c.39.23.87.23,1.32.33s.92.38.96.83"/>
    <path class="cls-1" d="m161.29,45.1l.81,1.05"/>
    <path class="cls-1" d="m151.89,48.09c.52-.68,1.38-.98,2.18-1.3s1.63-.8,1.9-1.61"/>
    <path class="cls-1" d="m154.19,49.59c.61-1.03,1.45-1.92,2.43-2.61"/>
    <path class="cls-1" d="m152.18,48.98c-.01.05-.11.02-.1-.04s.06-.09.11-.11c1.38-.75,2.65-1.69,3.78-2.78"/>
    <path class="cls-1" d="m141.22,45.01c.04.16-.09.34-.26.35.22-1.95.76-3.87,1.59-5.65"/>
    <path class="cls-1" d="m144.25,45.28l-.38-5.74c-.13.45-.58.72-.63,1.19-.22,2.02-.43,4.03-.65,6.05"/>
    <path class="cls-1" d="m145.18,40.41c-.11.82-.11,1.66-.01,2.48"/>
    <path class="cls-1" d="m144.22,35.99c-.27.43-.26,1.02.02,1.44s.81.66,1.31.59"/>
    <path class="cls-1" d="m148.43,36.89c.02-.38.45-.64.82-.57s.65.41.74.78.03.75-.07,1.12"/>
    <path class="cls-1" d="m148.87,32.16c.75.83,1.21,1.92,1.27,3.04"/>
    <path class="cls-1" d="m148.08,29.29c.29,1.62.55,3.06.84,4.67-.41-1-.74-2.04-.97-3.09,0,1.24-.43,2.3-.43,3.54"/>
    <path class="cls-1" d="m146.28,31.38l-.14.6c-.26,1.08-.52,2.16-.78,3.24"/>
    <path class="cls-1" d="m144.49,32.46l-.89,2.21"/>
    <path class="cls-1" d="m143.26,32.64c-.39.45-.72.96-.96,1.51"/>
    <path class="cls-1" d="m146.21,31.72c-.65,1.06-.94,2.33-.83,3.57"/>
    <path class="cls-1" d="m147.77,31.14c-.27,1.4-.32,2.84-.15,4.25"/>
    <path class="cls-1" d="m149.46,32.83l-.16,2.28c-.03.46-.06.93.1,1.36"/>
    <path class="cls-1" d="m150.78,34.86c-.27.64-.38,1.34-.31,2.03"/>
    <path class="cls-1" d="m158.61,40.75l-1.61,1.74"/>
    <path class="cls-1" d="m160.51,41.89l-2.14.73"/>
    <path class="cls-1" d="m161.37,42.36c-.6.55-1.33.96-2.11,1.17"/>
    <path class="cls-1" d="m162.66,42.11c-.95.59-1.74,1.46-2.24,2.46"/>
    <path class="cls-1" d="m163.84,42.32c-1.55.5-2.62,1.91-3.47,3.3"/>
    <path class="cls-1" d="m163.26,44.7c-1.01.74-1.93,1.6-2.74,2.56"/>
    <path class="cls-1" d="m163.24,46.35l-1.75,1.4c-.09.07-.14.26-.03.25"/>
    <path class="cls-1" d="m163.42,47.77c-.44.52-1.1.85-1.78.88"/>
    <path class="cls-1" d="m159.17,42.11c-.55.13-1.06.42-1.46.83"/>
    <path class="cls-1" d="m162.43,42.44c-1,.72-1.95,1.52-2.84,2.37"/>
    <path class="cls-1" d="m162.51,43.5c-.77.7-1.45,1.52-1.99,2.42"/>
    <path class="cls-1" d="m154.1,49.86c-.08.45,0,.91.19,1.32"/>
    <path class="cls-1" d="m155.12,50.22l.48,1.2"/>
    <path class="cls-1" d="m155.95,49.87l.45,1.56"/>
    <path class="cls-1" d="m157.14,49.75l.7,1.45"/>
    <path class="cls-1" d="m158.69,49.51c.12.51.33.99.61,1.43"/>
    <path class="cls-1" d="m159.9,49.62c.33.21.55.58.58.97"/>
    <path class="cls-1" d="m161.11,49.13c.37.42.64.92.8,1.46"/>
    <path class="cls-1" d="m162.54,49.14c.35.26.61.66.7,1.09"/>
    <path class="cls-1" d="m163.75,49.13c.32.3.56.68.69,1.1"/>
    <path class="cls-1" d="m164.79,48.81c.46.33.87.72,1.22,1.17"/>
    <path class="cls-1" d="m48.84,166.59c.24-.05.28-.36.28-.61-.09-3.17.21-6.36.89-9.45"/>
    <path class="cls-1" d="m51.6,169.61c-.37-4.23-.38-8.49-.03-12.71"/>
    <path class="cls-1" d="m54,171.4c-.48-3.78-.47-7.63,0-11.41"/>
    <path class="cls-1" d="m56.24,172.34c-.4-2.43-.52-4.91-.37-7.36"/>
    <path class="cls-1" d="m58.21,173.42c-.52-2.78-.65-5.63-.36-8.45"/>
    <path class="cls-1" d="m60.84,174.13c-.54-2.82-.75-5.7-.63-8.56"/>
    <path class="cls-1" d="m62.61,174.73c-.73-3.55-1.04-7.19-.92-10.82"/>
    <path class="cls-1" d="m64.19,174.6c-.32-2.44-.32-4.92,0-7.37"/>
    <path class="cls-1" d="m68.01,174.86c-.5-2.54-.58-5.17-.23-7.74"/>
    <path class="cls-1" d="m70.19,175.24v-.91c-.04-2.73-.07-5.47.35-8.16"/>
    <path class="cls-1" d="m72.67,174.61c-.28-2.81-.27-5.64.05-8.45"/>
    <path class="cls-1" d="m74.64,174.6c-.27-3.16-.33-6.34-.16-9.51"/>
    <path class="cls-1" d="m76.57,174.12c-.32-3.68-.3-7.38.06-11.05"/>
    <path class="cls-1" d="m78.56,173.41l.08.44c.06-3.55.12-7.1.18-10.66"/>
    <path class="cls-1" d="m80.57,173.29s-.06.1,0,.09.08-.1.08-.16c.07-3.66.15-7.31.22-10.97"/>
    <path class="cls-1" d="m83.04,172.58l.07-10.58"/>
    <path class="cls-1" d="m84.51,171.99c-.03.13.03.28.15.35.22-.48.25-1.03.26-1.56.13-3.64.25-7.28.38-10.92"/>
    <path class="cls-1" d="m86.64,171.27c-.04.14.04.31.18.37.43-3.79.63-7.61.58-11.42"/>
    <path class="cls-1" d="m88.62,171.99c.37-3.6.66-7.21.87-10.82"/>
    <path class="cls-1" d="m90.42,171.17c.39-2.97.73-5.95,1.02-8.93"/>
    <path class="cls-1" d="m92.02,170.91c.35.02.52-.42.57-.77.42-2.86.72-5.74.92-8.62"/>
    <path class="cls-1" d="m94.32,170.1c.34-1.93.6-3.88.77-5.83"/>
    <path class="cls-1" d="m95.7,170.92c.42-1.92.69-3.87.81-5.83"/>
    <path class="cls-1" d="m97.17,170.34c.39-2.03.96-4.03,1.69-5.96"/>
    <path class="cls-1" d="m99.59,167.71c0,.11.17.16.27.1s.15-.18.19-.28c.41-1.12.83-2.25,1.24-3.37"/>
    <path class="cls-1" d="m101.3,169.02c.24-1.58.61-3.14,1.11-4.65"/>
    <path class="cls-1" d="m103.01,168.18l1.1-4.86"/>
    <path class="cls-1" d="m104.94,168.66l.98-7.48"/>
    <path class="cls-1" d="m106.66,167.84c.65-3.06,1.08-6.16,1.28-9.28"/>
    <path class="cls-1" d="m108.6,168.92c.72-3.05,1.12-6.16,1.2-9.29"/>
    <path class="cls-1" d="m110.6,168.67l1.26-7.97"/>
    <path class="cls-1" d="m112.01,169.03c.41-2.06.78-4.12,1.11-6.19"/>
    <path class="cls-1" d="m113.62,167.71c-.01.13-.19.17-.03.23.5-1.27.68-2.7.98-4.03"/>
    <path class="cls-1" d="m114.85,167.84l1.36-4.06"/>
    <path class="cls-1" d="m120.21,167.47c-.06-1.85.21-3.71.78-5.47"/>
    <path class="cls-1" d="m121.87,166.54c.76-2.44,1.45-4.91,2.06-7.39"/>
    <path class="cls-1" d="m123.73,165.46c-.13.12-.16.34-.07.5.42-.53.61-1.21.79-1.87.49-1.81.99-3.62,1.48-5.43"/>
    <path class="cls-1" d="m125.9,166.29c.77-2.76,1.46-5.54,2.06-8.34"/>
    <path class="cls-1" d="m128.06,166.66c.89-2.88,1.71-5.77,2.47-8.68"/>
    <path class="cls-1" d="m130.67,166.38c1.06-3.28,1.99-6.61,2.79-9.96"/>
    <path class="cls-1" d="m133,165.7c1.34-3.12,2.44-6.35,3.3-9.64"/>
    <path class="cls-1" d="m135.63,164.51c1.27-2.83,2.37-5.73,3.3-8.69"/>
    <path class="cls-1" d="m137.63,165.82c-.13.1-.15.31-.04.44.54-.59.81-1.37,1.07-2.13,1-2.97,1.99-5.93,2.99-8.9"/>
    <path class="cls-1" d="m140.35,163.91c-.13.11-.17.31-.09.46.76-.29,1.15-1.11,1.44-1.87.79-2.02,1.46-4.09,2-6.19"/>
    <path class="cls-1" d="m142.45,165.6c1.59-3.47,2.93-7.06,3.99-10.72"/>
    <path class="cls-1" d="m144.68,164.07c-.04.13.14.24.27.2s.21-.17.28-.29c1.19-2.07,2.08-4.31,2.62-6.64"/>
    <path class="cls-1" d="m146.99,164.25c1.11-1.78,2-3.69,2.66-5.69"/>
    <path class="cls-1" d="m149.03,163.91c.8-1.22,1.45-2.54,1.9-3.92"/>
    <path class="cls-1" d="m151.51,160.81l.24-.71"/>
    <path class="cls-1" d="m117.31,168.54c.51-2.24,1.22-4.43,2.12-6.54"/>
    <path class="cls-1" d="m150.95,163.31c.23-1.75.78-3.46,1.61-5.01"/>
    <path class="cls-1" d="m153.4,162.36c.15-1.35.5-2.69,1.04-3.94"/>
    <path class="cls-1" d="m155.15,161.56c.45-1.06.86-2.15,1.21-3.25"/>
    <path class="cls-1" d="m157.49,162.13l1.12-4.41"/>
    <path class="cls-1" d="m160.03,161.55c.47-1.72.79-3.48.97-5.25"/>
    <path class="cls-1" d="m161.58,160.24c.51-2.09.95-4.2,1.32-6.32"/>
    <path class="cls-1" d="m162.97,160.11l1.95-7.74"/>
    <path class="cls-1" d="m164.94,160.37c.72-2.3,1.39-4.61,2-6.93"/>
    <path class="cls-1" d="m166.75,159.78c0,.1.15.15.24.1s.14-.15.18-.24c.92-2.16,1.36-4.48,1.8-6.78"/>
    <path class="cls-1" d="m168.82,159.06c.82-2.02,1.5-4.1,2.05-6.21"/>
    <path class="cls-1" d="m171.09,158.71c.8-2.01,1.42-4.09,1.84-6.21"/>
    <path class="cls-1" d="m172.17,158.35c0,.13.19.19.3.13s.17-.2.21-.33c.64-1.78,1.19-3.59,1.64-5.42"/>
    <path class="cls-1" d="m174.32,157.54c.91-1.83,1.58-3.77,2-5.76"/>
    <path class="cls-1" d="m175.65,157.63c.39.06.66-.37.81-.74.62-1.51,1.14-3.06,1.57-4.64"/>
    <path class="cls-1" d="m177.16,157.14l.1.26c.85-.25,1.23-1.21,1.49-2.05.23-.75.47-1.5.7-2.25"/>
    <path class="cls-1" d="m179.15,156.82c.69-.88,1.16-1.92,1.37-3.02"/>
    <path class="cls-1" d="m180.35,156.4c.54-1.79.97-3.6,1.29-5.44"/>
    <path class="cls-1" d="m52.66,152.14c.56-2.07,1.01-4.17,1.34-6.29"/>
    <path class="cls-1" d="m54.33,142.28c-.02-2.14-.14-4.29-.36-6.42"/>
    <path class="cls-1" d="m59.69,159.5c.09.11.23-.07.25-.2.33-2.09.52-4.2.57-6.32"/>
    <path class="cls-1" d="m62.04,144.06c.22-2.41.13-4.85-.25-7.25"/>
    <path class="cls-1" d="m69.82,160.93c1.13-6.08,2.27-12.31,1.31-18.42"/>
    <path class="cls-1" d="m78.67,153.92l.36-6.77"/>
    <path class="cls-1" d="m84.48,155.7c.75-5.68.59-11.48-.49-17.1"/>
    <path class="cls-1" d="m94.14,155.7l.5-12.47"/>
    <path class="cls-1" d="m77.16,173.1c.37-.28.47-.78.55-1.24.67-4.28.69-8.67.06-12.96"/>
    <path class="cls-1" d="m82.01,172.13c0,.22.23.4.44.35.13-6-.18-12.01-.93-17.96"/>
    <path class="cls-1" d="m85.93,171.06c.05.17.27.28.44.22.92-5.74.82-11.64-.27-17.35"/>
    <path class="cls-1" d="m90.45,170.21c-.14.1-.16.33-.05.46.33-5.3.17-10.64-.48-15.91"/>
    <path class="cls-1" d="m93.74,170.79c.65-4,.67-8.11.06-12.12"/>
    <path class="cls-1" d="m97.22,167.71c.45-3.18.53-6.42.23-9.62"/>
    <path class="cls-1" d="m74.5,174c.49-5.17.03-10.42-1.35-15.43"/>
    <path class="cls-1" d="m72.52,173.93c-.23-.02-.28-.34-.26-.58.27-3.74.2-7.51-.21-11.23"/>
    <path class="cls-1" d="m69.8,174.05c-.94-3.47-.26-7.16-.68-10.73"/>
    <path class="cls-1" d="m68,173.99c-.55-.64-.67-1.53-.73-2.37-.26-3.4.01-6.84-.47-10.21"/>
    <path class="cls-1" d="m64.33,173.54c-.31-3.95-.42-7.92-.33-11.89"/>
    <path class="cls-1" d="m60.55,172.82c-.22-3.52-.27-7.05-.14-10.58"/>
    <path class="cls-1" d="m56.47,171.99c-.26-3.45-.08-6.93.53-10.34"/>
    <path class="cls-1" d="m53.44,169.38c-.22-3.14,0-6.31.66-9.39"/>
    <path class="cls-1" d="m50.94,166.17c-.15-2.26-.1-4.53.17-6.78"/>
    <path class="cls-1" d="m48.11,163.56c-.4-1.89-.26-3.89.4-5.7"/>
    <path class="cls-1" d="m46.83,161.06c-.17-.19-.12-.49-.06-.74.67-2.87,1.71-5.66,3.08-8.28"/>
    <path class="cls-1" d="m103.03,168.29c-.11.13-.25-.13-.23-.3.51-3.58,1.01-7.15,1.52-10.73"/>
    <path class="cls-1" d="m107.85,167.1c.57-3.94,1-7.9,1.29-11.87"/>
    <path class="cls-1" d="m109.18,149.05l.62-4.99"/>
    <path class="cls-1" d="m113.87,166.41c-.07.2-.02.43.12.59.37-3.23.58-6.49.6-9.74"/>
    <path class="cls-1" d="m116.12,152.38c0-1.99.16-3.98.46-5.94"/>
    <path class="cls-1" d="m123.44,167.35c.51-4.69.53-9.44.04-14.14"/>
    <path class="cls-1" d="m127.75,165.92c.36-2.12.56-4.27.59-6.42"/>
    <path class="cls-1" d="m132.15,166.4l.17-8.2"/>
    <path class="cls-1" d="m135.33,165.57c.33-3.12.5-6.25.52-9.38"/>
    <path class="cls-1" d="m138.53,164.73l.52-7.96"/>
    <path class="cls-1" d="m141.73,163.54l1.07-8.66"/>
    <path class="cls-1" d="m146.43,163.31c-.01-2.43.23-4.86.72-7.24"/>
    <path class="cls-1" d="m149.94,162.36l.39-7.48"/>
    <path class="cls-1" d="m152.19,162.83c.48-3.62.74-7.27.78-10.93"/>
    <path class="cls-1" d="m154.96,161.77l.62-7.6"/>
    <path class="cls-1" d="m161.85,161.05c.24-1.76.56-3.5.95-5.23"/>
    <path class="cls-1" d="m165.09,160.08c.59-2.4,1.3-4.77,2.15-7.1"/>
    <path class="cls-1" d="m130.38,144.89c-.06,1.62-.02,3.25.11,4.87"/>
    <path class="cls-1" d="m146.77,145.49v5.58"/>
    <path class="cls-1" d="m158.54,144.66l.23,3.09"/>
    <path class="cls-1" d="m166.23,149.29l.15,2.73"/>
    <path class="cls-1" d="m171.36,149.53c0,.45.08.89.22,1.31"/>
    <path class="cls-1" d="m112.92,139.54c.46,1.22.74,2.51.82,3.81"/>
    <path class="cls-1" d="m98.67,136.21c.83,1.61,1.23,3.43,1.15,5.24"/>
    <path class="cls-1" d="m124.26,142.87c-.16,2.06-.11,4.14.17,6.18"/>
    <path class="cls-1" d="m74.07,135.98l.59,2.97"/>
    <path class="cls-1" d="m47.66,165.67c-.12-.88-.15-1.77-.1-2.66"/>
    <path class="cls-1" d="m50.09,168.84l.17-3.77"/>
    <path class="cls-1" d="m52.91,170.32c-.38-1.44-.55-2.94-.49-4.44"/>
    <path class="cls-1" d="m55.22,171.35c-.28-.17-.3-.57-.29-.9.02-.69.04-1.37.06-2.06"/>
    <path class="cls-1" d="m58.91,173.42c-.37-1.12-.54-2.3-.51-3.47"/>
    <path class="cls-1" d="m59.78,173.5c-.32-1.08-.44-2.21-.35-3.33"/>
    <path class="cls-1" d="m62.89,174.08c-.32-1.85-.41-3.74-.27-5.61"/>
    <path class="cls-1" d="m59.14,169.65c-.04-1.38.01-2.76.15-4.13"/>
    <path class="cls-1" d="m66.81,174.6c-.41-1.99-.63-4.02-.65-6.05"/>
    <path class="cls-1" d="m68.73,174.23c-.07.07-.1.18-.07.27.11-1.52.21-3.04.32-4.56"/>
    <path class="cls-1" d="m71.91,174.24c-.31-1.43-.33-2.93-.06-4.37"/>
    <path class="cls-1" d="m74.22,174.61c-.34-1.5-.44-3.05-.29-4.59"/>
    <path class="cls-1" d="m76,173.72c-.48-1.68-.53-3.47-.16-5.18"/>
    <path class="cls-1" d="m79.5,173.42c-.04-1.23-.03-2.46.03-3.69"/>
    <path class="cls-1" d="m81.65,173.05l-.09-3.39"/>
    <path class="cls-1" d="m84.28,172.61c-.31-1.46-.24-3,.19-4.43"/>
    <path class="cls-1" d="m85.98,170.84c-.17-1.08-.11-2.2.17-3.25"/>
    <path class="cls-1" d="m87.58,171.65c-.08-1.4.12-2.81.59-4.13"/>
    <path class="cls-1" d="m89.8,170.76c-.2-1.2-.18-2.43.06-3.62"/>
    <path class="cls-1" d="m92.06,169.94c-.1.04-.15-.11-.14-.22.07-1.29.24-2.57.52-3.84"/>
    <path class="cls-1" d="m93.98,169.65c-.12-.04-.15-.2-.14-.33.01-1.11.13-2.21.36-3.29"/>
    <path class="cls-1" d="m97.91,169.5l.33-4.21"/>
    <path class="cls-1" d="m99.99,169.12c-.12.05-.18-.15-.16-.27.27-2.11.53-4.23.8-6.34"/>
    <path class="cls-1" d="m103.8,168.17c.1-1.61.43-3.2.98-4.71"/>
    <path class="cls-1" d="m106.02,167.36c.03-1.4.25-2.79.66-4.13"/>
    <path class="cls-1" d="m110.85,168.25c.03-1.96.43-3.92,1.15-5.75"/>
    <path class="cls-1" d="m115.12,167.66c-.1-1.86.12-3.74.65-5.53"/>
    <path class="cls-1" d="m118.73,167.22c-.03-1.51.12-3.02.43-4.5"/>
    <path class="cls-1" d="m121.43,166.35c.05,0,.01.1-.04.08s-.05-.09-.05-.14c.05-1.36.1-2.73.15-4.09"/>
    <path class="cls-1" d="m129.1,165.89c.02-2.6.24-5.19.65-7.75"/>
    <path class="cls-1" d="m130.72,165c.1-1.46.3-2.92.62-4.35"/>
    <path class="cls-1" d="m134.34,165.75c-.32-.94-.28-1.96-.2-2.96.13-1.66.35-3.32.66-4.95"/>
    <path class="cls-1" d="m137.47,163.82c-.05-2.02.02-4.04.21-6.05"/>
    <path class="cls-1" d="m140.31,163.02c-.17-.49-.15-1.01-.12-1.53.08-1.32.23-2.64.43-3.94"/>
    <path class="cls-1" d="m144.7,156.59l.14-.81"/>
    <path class="cls-1" d="m144.28,163.73c-.36-.18-.41-.67-.4-1.07.03-2.49.05-4.99.08-7.48"/>
    <path class="cls-1" d="m145.65,163.6c.08-1.86.36-3.72.82-5.53"/>
    <path class="cls-1" d="m148.94,162.66c-.32-.48-.35-1.1-.36-1.68,0-1.97.15-3.94.48-5.88"/>
    <path class="cls-1" d="m152.79,162.94c-.28-2.41-.22-4.85.19-7.24"/>
    <path class="cls-1" d="m156.83,161.62l.15-1.93c.11-1.4.22-2.81.07-4.21"/>
    <path class="cls-1" d="m160.51,161.16c-.17-3.12-.26-6.25-.25-9.37"/>
    <path class="cls-1" d="m165.18,159.54c-.23-1.93-.3-3.89-.2-5.83"/>
    <path class="cls-1" d="m167.63,159.54l.23-4.43"/>
    <path class="cls-1" d="m169.19,158.95l.44-3.47"/>
    <path class="cls-1" d="m170.68,158.66c.28-1.09.47-2.2.57-3.33"/>
    <path class="cls-1" d="m172.59,157.85c.02.09.15,0,.17-.08.34-1.08.54-2.2.6-3.33"/>
    <path class="cls-1" d="m174.52,157.49c-.02.07.08.12.14.09s.1-.1.12-.17c.34-.92.49-1.91.46-2.89"/>
    <path class="cls-1" d="m176.41,157.28c.43-.87.61-1.86.52-2.83"/>
    <path class="cls-1" d="m178.65,156.97c.01.08.13.1.19.04s.08-.13.09-.21c.21-1.22.3-2.45.26-3.69"/>
    <path class="cls-1" d="m180.24,155.65c.05.11.22.1.31.02s.12-.2.14-.32c.18-.98.18-1.99,0-2.97"/>
    <path class="cls-1" d="m166.06,159.39s-.04.08-.07.06-.05-.07-.05-.12c-.06-.9.15-1.81.6-2.6"/>
    <path class="cls-1" d="m168.42,159.1c-.11-.92,0-1.87.32-2.74"/>
    <path class="cls-1" d="m170.73,158.87c-.09.05-.16-.1-.16-.2.02-.97.1-1.93.24-2.89"/>
    <path class="cls-1" d="m14.31,174.45c.04-.18-.09-.36-.2-.51-1.26-1.61-2.53-3.22-3.79-4.82"/>
    <path class="cls-1" d="m15.98,174.11c-1.48-1.36-2.86-2.82-4.12-4.38"/>
    <path class="cls-1" d="m17.69,174.46c-1.04-1.33-2.01-2.72-2.9-4.16"/>
    <path class="cls-1" d="m19.26,173.67c-1.03-1.07-1.9-2.29-2.57-3.61"/>
    <path class="cls-1" d="m20.75,173.75l-2.41-4.06"/>
    <path class="cls-1" d="m21.44,172c-.7-1-1.34-2.03-1.94-3.08"/>
    <path class="cls-1" d="m22.38,171.58l-1.56-2.69"/>
    <path class="cls-1" d="m24.17,171.46l-2.05-3.48"/>
    <path class="cls-1" d="m25.22,170.81l-1.6-3.57"/>
    <path class="cls-1" d="m26.64,170.16c-.61-.91-1.11-1.89-1.51-2.91"/>
    <path class="cls-1" d="m27.65,169.27l-1.43-3.08"/>
    <path class="cls-1" d="m29.31,169.28c-.51-1.08-.93-2.2-1.27-3.35"/>
    <path class="cls-1" d="m30.5,168.5l-1.09-2.81"/>
    <path class="cls-1" d="m32.04,167.72c-.46-.82-.85-1.68-1.19-2.56"/>
    <path class="cls-1" d="m32.91,166.83c-.39-.72-.66-1.5-.79-2.31"/>
    <path class="cls-1" d="m34.57,166.71l-.92-2.57"/>
    <path class="cls-1" d="m35.88,165.92c-.06-.03-.03.11.03.08s.04-.12.02-.18c-.25-.68-.51-1.36-.76-2.04"/>
    <path class="cls-1" d="m37.53,166.2c-.39-.78-.68-1.61-.86-2.46"/>
    <path class="cls-1" d="m38.62,165.7c-.05.05.06.12.11.07s.02-.14,0-.2c-.33-.85-.66-1.71-.99-2.56"/>
    <path class="cls-1" d="m40.15,165.09c-.07.03.04.15.1.1s.04-.15.02-.23c-.24-.74-.47-1.48-.71-2.22"/>
    <path class="cls-1" d="m41.82,165.02l-.91-2.7"/>
    <path class="cls-1" d="m43.2,164.65c.03-.77-.21-1.55-.67-2.17"/>
    <path class="cls-1" d="m44.36,163.75c-.37-1.46-.88-2.89-1.53-4.25"/>
    <path class="cls-1" d="m12.98,167.74l4.63-.67"/>
    <path class="cls-1" d="m27.77,165.18c1.68-.56,3.4-.99,5.14-1.28"/>
    <path class="cls-1" d="m4.46,150.87c11.04-.77,22.08,3.04,33.08,1.82"/>
    <path class="cls-1" d="m46.17,154.74l-1.4-1.94"/>
    <path class="cls-1" d="m46.9,153.73l-.89-2.19"/>
    <path class="cls-1" d="m47.66,152.29c-.07-.75-.28-1.49-.62-2.17-.57-1.14-.39-2.39-.8-3.6"/>
    <path class="cls-1" d="m42.46,154.6c.39.82.84,1.61,1.34,2.36"/>
    <path class="cls-1" d="m42.44,157.18l-1.03-2.06"/>
    <path class="cls-1" d="m41.36,156.97c-.6-.64-1.06-1.41-1.33-2.24"/>
    <path class="cls-1" d="m39.81,157.1c-.59-.77-1.08-1.61-1.47-2.49"/>
    <path class="cls-1" d="m38.12,156.59c-.42-.63-.78-1.29-1.07-1.98"/>
    <path class="cls-1" d="m37.09,157.12c-.6-.69-1.05-1.51-1.31-2.38"/>
    <path class="cls-1" d="m33.18,154.61c.33.85.79,1.64,1.37,2.35"/>
    <path class="cls-1" d="m33.26,156.83l-1.22-1.97"/>
    <path class="cls-1" d="m32.34,157.14c-.69-.54-1.21-1.3-1.44-2.15"/>
    <path class="cls-1" d="m30.97,157.46c-.55-.5-.98-1.13-1.27-1.82"/>
    <path class="cls-1" d="m29.76,157.75c-.68-.84-1.17-1.84-1.42-2.89"/>
    <path class="cls-1" d="m28.6,157.74l-1.66-2.78"/>
    <path class="cls-1" d="m25.86,155.5l1.13,1.82c-.49-.58-.87-1.11-1.13-1.82Z"/>
    <path class="cls-1" d="m24.94,157.7c-.41-.22-.75-.59-.92-1.02"/>
    <path class="cls-1" d="m23.75,157.98l-1.12-1.57"/>
    <path class="cls-1" d="m22.58,158.4c-.56-.39-.99-.97-1.22-1.61"/>
    <path class="cls-1" d="m21.32,158.5c-.48-.39-.86-.89-1.12-1.45"/>
    <path class="cls-1" d="m19.14,157.46l1.01,1.17c-.49-.38-.78-.6-1.01-1.17Z"/>
    <path class="cls-1" d="m18.07,158.92c-.42-.36-.76-.83-.97-1.35"/>
    <path class="cls-1" d="m17.08,159.64c-.45-.67-.86-1.37-1.24-2.08"/>
    <path class="cls-1" d="m16.19,159.76l-.97-1.46"/>
    <path class="cls-1" d="m14.13,158.35l.23,1.42"/>
    <path class="cls-1" d="m25.94,158.24c-.29-.41-.53-.85-.73-1.31"/>
    <path class="cls-1" d="m4.19,156.58c-.48-.51-.66-1.29-.45-1.95"/>
    <path class="cls-1" d="m5.74,155.54c-.43-.68-.76-1.43-.97-2.21"/>
    <path class="cls-1" d="m7.07,155.9c-.51-.96-.87-2-1.06-3.08"/>
    <path class="cls-1" d="m8.6,155.26c-.45-.92-.72-1.93-.78-2.96"/>
    <path class="cls-1" d="m10.2,154.92c-.42-.71-.66-1.53-.69-2.36"/>
    <path class="cls-1" d="m11.97,154.74c-.26-.78-.4-1.61-.42-2.44"/>
    <path class="cls-1" d="m14.03,154.99c-.31-.78-.5-1.6-.56-2.43"/>
    <path class="cls-1" d="m16.09,155l-.44-2.56"/>
    <path class="cls-1" d="m18.05,154.91c-.35-.69-.54-1.45-.56-2.22"/>
    <path class="cls-1" d="m19.99,154.78c-.47-.88-.76-1.86-.85-2.86"/>
    <path class="cls-1" d="m21.36,154.74l-.43-2.44"/>
    <path class="cls-1" d="m23,154.36l-.52-2.06"/>
    <path class="cls-1" d="m24.69,154.74l-.4-2.31"/>
    <path class="cls-1" d="m26.33,154.11l-.54-2.57"/>
    <path class="cls-1" d="m28.4,154.49c-.25-.7-.38-1.44-.38-2.19"/>
    <path class="cls-1" d="m30.22,154.23l-.38-2.19"/>
    <path class="cls-1" d="m31.9,154.23l-.16-1.8"/>
    <path class="cls-1" d="m33.69,154.49l-.26-2.44"/>
    <path class="cls-1" d="m36.1,154.49l-.36-2.32"/>
    <path class="cls-1" d="m38.07,154.74l-.44-3.34"/>
    <path class="cls-1" d="m40.28,154.61l-1.06-3.46"/>
    <path class="cls-1" d="m42.02,155.23c-.39-1.28-.63-2.61-.72-3.95"/>
    <path class="cls-1" d="m44.36,155.77c-.45-1.39-.81-2.8-1.06-4.24"/>
    <path class="cls-1" d="m45.72,155.5l-1.12-3.83"/>
    <path class="cls-1" d="m40.98,151.67c.84.21,5.29,1.06,4.22,2.05-.92.85-4.58-.37-5.73-.54"/>
    <path class="cls-1" d="m47.83,152.67c-1.77-.59-3.5-1.3-5.16-2.15"/>
    <path class="cls-1" d="m46.94,150.35c-1.16-.53-2.37-.95-3.61-1.26"/>
    <path class="cls-1" d="m40.48,160.9c1.28.22,2.58.26,3.87.12"/>
    <path class="cls-1" d="m44.22,159.86c-1.18.22-2.4.28-3.6.18"/>
    <path class="cls-1" d="m44.1,158.24c-.42.1-.87.09-1.29-.03"/>
    <path class="cls-1" d="m6.56,124.36c-.2.73-.1,1.54.29,2.19"/>
    <path class="cls-1" d="m9.64,130.05c-.35-.92-.62-1.86-.8-2.82"/>
    <path class="cls-1" d="m10.25,129.16c.28,1.03.77,2,1.43,2.83"/>
    <path class="cls-1" d="m11.93,130.19c.19,1.15.63,2.26,1.27,3.24"/>
    <path class="cls-1" d="m13.24,131.34c.28,1.1.76,2.15,1.41,3.09"/>
    <path class="cls-1" d="m14.76,132.37c.35.97.79,1.92,1.31,2.82"/>
    <path class="cls-1" d="m16.3,133.54l1.67,3.6"/>
    <path class="cls-1" d="m18.25,135.58c.58,1.27,1.35,2.46,2.28,3.5"/>
    <path class="cls-1" d="m19.94,136.35c.51,1.08,1.1,2.11,1.77,3.11"/>
    <path class="cls-1" d="m21.56,137.4c.51,1.21,1.21,2.35,2.07,3.35"/>
    <path class="cls-1" d="m22.89,137.76l2.37,3.9"/>
    <path class="cls-1" d="m24.96,138.66c.46,1.43,1.3,2.74,2.41,3.75"/>
    <path class="cls-1" d="m26.61,139.18c.76,1.41,1.7,2.72,2.79,3.89"/>
    <path class="cls-1" d="m28.78,140.48c.66,1.26,1.49,2.43,2.45,3.47"/>
    <path class="cls-1" d="m30.58,141.38c.88,1.41,1.87,2.74,2.95,4"/>
    <path class="cls-1" d="m33.2,142.9c.59,1.36,1.6,2.54,2.86,3.33"/>
    <path class="cls-1" d="m35.15,143.14c.77,1.54,2,2.85,3.48,3.73"/>
    <path class="cls-1" d="m37.54,143.95c.94,1.43,2.17,2.66,3.59,3.62"/>
    <path class="cls-1" d="m40.11,144.85c.7,1.15,1.68,2.14,2.83,2.84"/>
    <path class="cls-1" d="m41.92,145.48l2.92,2.87"/>
    <path class="cls-1" d="m43.34,145.22l1.54,1.42"/>
    <path class="cls-1" d="m23.58,128.11c.22.82.64,1.59,1.2,2.23"/>
    <path class="cls-1" d="m24.69,128.38c.37.98.87,1.9,1.5,2.73"/>
    <path class="cls-1" d="m26.23,129.41c.76,1.07,1.43,2.19,2.01,3.37"/>
    <path class="cls-1" d="m28.29,130.95c.6,1.25,1.29,2.45,2.04,3.61"/>
    <path class="cls-1" d="m30.44,132.9c.74,1.25,1.54,2.46,2.41,3.63"/>
    <path class="cls-1" d="m32.56,134.28c.85,1.63,1.97,3.13,3.29,4.41"/>
    <path class="cls-1" d="m35.36,136.35c.87,1.3,1.81,2.55,2.81,3.74"/>
    <path class="cls-1" d="m37.93,137.64c1.29,1.81,2.7,3.54,4.22,5.17"/>
    <path class="cls-1" d="m41.51,140.35c1.15,1.69,2.48,3.25,3.97,4.65"/>
    <path class="cls-1" d="m44.58,142.42c.66,1.11,1.49,2.11,2.44,2.98"/>
    <path class="cls-1" d="m45.66,142.38l2.77,3.01"/>
    <path class="cls-1" d="m44.1,146.88c-.38.13-.52.61-.42.99s.4.68.68.96"/>
    <path class="cls-1" d="m45.4,146.89c-.08-.05,0-.2.11-.19s.16.1.22.18c.35.52.75,1,1.2,1.43.13.13.31.26.48.21.17-.05.25-.25.29-.43.19-.83.09-1.72-.28-2.48"/>
    <path class="cls-1" d="m159.91,44.81c2.36,2.21,4.53,4.63,6.46,7.22"/>
    <path class="cls-1" d="m50.05,120.76c.29,3.89,1.46,7.71,3.41,11.09.07.12.15.24.28.28s.29-.1.23-.22c-.88-1.73-1.11-3.84-1.04-5.78"/>
    <path class="cls-1" d="m56.16,131.35c-.66-1.39-1.04-2.91-1.1-4.45"/>
    <path class="cls-1" d="m57.35,129.83c-.67-1.44-.9-3.07-.67-4.64"/>
    <path class="cls-1" d="m58.9,129.36c-.6-1.61-.86-3.36-.75-5.08"/>
    <path class="cls-1" d="m61.07,129.35c-.56-1.52-.73-3.17-.51-4.77"/>
    <path class="cls-1" d="m63.03,128.88l-.31-4.29"/>
    <path class="cls-1" d="m65.92,129.94c-.55-1.78-.67-3.69-.34-5.53"/>
    <path class="cls-1" d="m68.49,129.35c-.33-1.77-.5-3.57-.53-5.37"/>
    <path class="cls-1" d="m71.6,129.51l-.04-4.76"/>
    <path class="cls-1" d="m74.27,129.2c-.38-1.51-.5-3.08-.34-4.62"/>
    <path class="cls-1" d="m77.12,130.26c-.63-2.29-.93-4.68-.89-7.06"/>
    <path class="cls-1" d="m80.15,130.42c-.68-2.77-1.11-5.6-1.29-8.45"/>
    <path class="cls-1" d="m82.95,131.34c-.76-3.06-1.07-6.22-.93-9.37"/>
    <path class="cls-1" d="m85.67,131.04c-.46-2.54-.78-5.11-.96-7.68"/>
    <path class="cls-1" d="m88.45,132.29c-.11.24.05.56.31.6.26-.82,0-1.71-.22-2.55-.65-2.43-.99-4.93-1.02-7.45"/>
    <path class="cls-1" d="m92.05,132.41c-.52-2.58-.82-5.2-.89-7.82"/>
    <path class="cls-1" d="m95.64,133.66c-.42-2.14-.84-4.28-1.2-6.44-.18-1.07-.33-2.18-.04-3.23.12.08.24.16.36.24"/>
    <path class="cls-1" d="m99.39,134.57l-2.29-9.5"/>
    <path class="cls-1" d="m101.48,133.67c-.93-2.56-1.54-5.23-1.83-7.93-.03-.29.03-.69.32-.7"/>
    <path class="cls-1" d="m104.67,134.55c-.85-2.65-1.55-5.36-2.07-8.09"/>
    <path class="cls-1" d="m107.54,136.57c-1-2.84-1.89-5.72-2.67-8.63-.03-.11-.06-.23,0-.32s.25-.07.24.04"/>
    <path class="cls-1" d="m106.16,121.23c1.27,4.83,2.68,9.63,4.23,14.38"/>
    <path class="cls-1" d="m69.03,118.92c-3.21-3.74-7-6.98-11.18-9.57"/>
    <path class="cls-1" d="m39.09,97.51c4.3.34,8.64.2,12.91-.43"/>
    <path class="cls-1" d="m36.48,79.68c3.23,1.9,6.26,4.13,9.04,6.64"/>
    <path class="cls-1" d="m57.58,83.98c-3.08-5.15-5.54-10.67-7.33-16.41"/>
    <path class="cls-1" d="m48.74,62.04c-.99-1.9-2.21-3.67-3.64-5.26"/>
    <path class="cls-1" d="m83.37,110.14l-5.99-16.91"/>
    <path class="cls-1" d="m87.97,97.23c-1.83-5.29-4.24-10.39-7.17-15.16"/>
    <path class="cls-1" d="m78.53,80.33c-.9-2.75-1.5-5.6-1.77-8.48"/>
    <path class="cls-1" d="m63.59,64.31l.59,2.31"/>
    <path class="cls-1" d="m66.89,65.72l-.77-2.15"/>
    <path class="cls-1" d="m67.55,62.47c1.44,3.19,2.26,6.66,2.42,10.16"/>
    <path class="cls-1" d="m70.79,64.78c.34,1.52.58,3.07.73,4.62"/>
    <path class="cls-1" d="m72.15,65.4c.38.83.63,1.72.72,2.62"/>
    <path class="cls-1" d="m73.67,65.71l.74,2.01"/>
    <path class="cls-1" d="m75.38,66.47l.77,2"/>
    <path class="cls-1" d="m77.21,68.17c.59,1.23,1.06,2.52,1.4,3.84"/>
    <path class="cls-1" d="m80.28,69.4c.57.82.93,1.78,1.05,2.77"/>
    <path class="cls-1" d="m83.36,72.16l.48,2.15"/>
    <path class="cls-1" d="m27.41,84.31c.76,1.21,1.98,2.13,3.36,2.52"/>
    <path class="cls-1" d="m25.38,80.95l1.53,1.33c.12.1.25.21.4.21s.31-.18.22-.31"/>
    <path class="cls-1" d="m24.03,77.38c.43.63,1.06,1.12,1.78,1.37"/>
    <path class="cls-1" d="m23.56,74.93l1.42,1.21c.13.02.2-.19.09-.26"/>
    <path class="cls-1" d="m23.26,72.47c.75.94,1.62,1.78,2.59,2.49"/>
    <path class="cls-1" d="m22.67,69.35c1.88,1.43,3.57,3.11,5.02,4.98"/>
    <path class="cls-1" d="m23.37,65.89l3.09,3.52"/>
    <path class="cls-1" d="m24.52,64.62c.19.59.71,1.06,1.32,1.2"/>
    <path class="cls-1" d="m24.94,62.49l2.48,2.13"/>
    <path class="cls-1" d="m32.62,99.84c.01.78.27,1.55.73,2.19"/>
    <path class="cls-1" d="m33.25,96.3c0,.86.18,1.71.53,2.5"/>
    <path class="cls-1" d="m34.36,97.3c-.47-.76-.74-1.64-.76-2.53.6.88.16,1.65.76,2.53Z"/>
    <path class="cls-1" d="m96.14,102.91l.87,2.3c.04.11.1.23.22.25s.2-.18.09-.21"/>
    <path class="cls-1" d="m96.62,101.5l1.32,2c.15.23.55.45.64.18"/>
    <path class="cls-1" d="m97.63,98.31l1.73,2.9"/>
    <path class="cls-1" d="m97.77,94.63c.52,1.08,1.14,2.11,1.85,3.08"/>
    <path class="cls-1" d="m98.61,92.75c.54,1.1,1.16,2.16,1.84,3.17"/>
    <path class="cls-1" d="m98.76,88.75c.58,1.08,1.2,2.13,1.86,3.16"/>
    <path class="cls-1" d="m99.2,86.15l1.74,3.44"/>
    <path class="cls-1" d="m99.64,85.09l1.72,3.06"/>
    <path class="cls-1" d="m100.9,107.83c.53.92,1.2,1.76,1.97,2.48"/>
    <path class="cls-1" d="m103.04,106.76l.81.94c.16.19.36.4.61.39s.42-.4.19-.51"/>
    <path class="cls-1" d="m104.57,103.84c.35.86.93,1.62,1.67,2.19"/>
    <path class="cls-1" d="m105.95,101.24c.63.3,1.18.78,1.56,1.36"/>
    <path class="cls-1" d="m37,108.88c.61,1.32,1.36,2.57,2.23,3.73"/>
    <path class="cls-1" d="m40.16,107.98l2.39,3.28"/>
    <path class="cls-1" d="m42.91,107.84c.27.7.64,1.36,1.08,1.96.1.14.22.29.39.32s.38-.11.33-.28"/>
    <path class="cls-1" d="m44.93,106.44c.52.74,1.14,1.42,1.83,2.01"/>
    <path class="cls-1" d="m61.19,94.94c-6.05-8.27-11.82-16.75-17.3-25.42"/>
    <path class="cls-1" d="m53.47,81.8c10.68,17.82,23.23,34.09,38.8,47.88"/>
    <path class="cls-1" d="m85.25,118.86c4.5,4.63,8.9,9.36,13.18,14.18"/>
    <path class="cls-1" d="m43.23,66.02c-.59-2.56-1.96-4.93-3.88-6.71"/>
    <path class="cls-1" d="m48.95,78.59c-4.62-3.52-8.83-7.59-12.5-12.1"/>
    <path class="cls-1" d="m49.06,54.96c.98,1.5,1.81,3.09,2.49,4.75"/>
    <path class="cls-1" d="m51.11,55.53c1.01,1.18,1.78,2.56,2.26,4.03"/>
    <path class="cls-1" d="m55.85,58.79c-.2-.65-.63-1.23-1.18-1.61"/>
    <path class="cls-1" d="m30.33,57.41c.37.72.83,1.4,1.37,2.01"/>
    <path class="cls-1" d="m31.88,57.25c.01.47.28.93.69,1.17"/>
    <path class="cls-1" d="m32.45,56.04l1.37,2.16"/>
    <path class="cls-1" d="m34.19,55.71c.25.7.72,1.32,1.32,1.75"/>
    <path class="cls-1" d="m35.54,54.5l1.08,1.23"/>
    <path class="cls-1" d="m47.5,116.29c.09,2.04.48,4.06,1.14,5.98"/>
    <path class="cls-1" d="m49.92,116.31l2.17,9.37"/>
    <path class="cls-1" d="m52.28,116.91l1.98,9.23"/>
    <path class="cls-1" d="m55.07,118.59l2.01,8.91"/>
    <path class="cls-1" d="m58.06,120.73l1.88,6.64"/>
    <path class="cls-1" d="m97.69,115.51c.2,1.02.54,2.02,1.02,2.94"/>
    <path class="cls-1" d="m101.18,115.53l.16.31"/>
    <path class="cls-1" d="m101.33,56.28c3.46-5.81,8.71-10.65,10.81-17.08"/>
    <path class="cls-1" d="m102.75,48.02c-2.63-5.68-2.92-12.4-.79-18.28"/>
    <path class="cls-1" d="m94.89,76.19c1.04.02,2.02-.46,2.93-.96,2.84-1.55,5.48-3.46,7.85-5.66"/>
    <path class="cls-1" d="m104.77,67.59c1.17-2.32,2.74-4.41,4.12-6.6s2.61-4.56,2.98-7.13"/>
    <path class="cls-1" d="m90.82,61.85c1.01-5.91,1.83-11.85,2.45-17.81"/>
    <path class="cls-1" d="m87.97,63.25c-3.33-2.85-5.61-6.9-6.33-11.22"/>
    <path class="cls-1" d="m101.01,89.38c.1-1.27.42-2.53.95-3.69"/>
    <path class="cls-1" d="m110.49,114.6c.28-4.3.27-8.62-.04-12.92"/>
    <path class="cls-1" d="m113.22,111.52c-.51-6.7-1.65-13.35-3.41-19.83"/>
    <path class="cls-1" d="m115.74,108.92c-.86-6.42-2.06-12.79-3.59-19.08"/>
    <path class="cls-1" d="m117.77,104.3c-1-6.19-2.22-12.35-3.66-18.45"/>
    <path class="cls-1" d="m119.56,100.93c-.75-5.4-1.86-10.74-3.3-16"/>
    <path class="cls-1" d="m121.65,96.3l-2.78-15.83"/>
    <path class="cls-1" d="m106.13,89.84c1.32,2.45,2.4,5.03,3.21,7.7"/>
    <path class="cls-1" d="m112.06,113.63s.06.1,0,.09-.09-.09-.1-.16c-.4-3.35-.79-6.7-1.19-10.04"/>
    <path class="cls-1" d="m114.68,109.84c-.94-5.96-2.45-11.83-4.51-17.5"/>
    <path class="cls-1" d="m116.56,106.44c-.16-4.67-1.1-9.31-2.78-13.67"/>
    <path class="cls-1" d="m119.26,102.17l-4.1-14.16"/>
    <path class="cls-1" d="m121.05,98.14c-.77-3.8-1.81-7.56-3.09-11.22"/>
    <path class="cls-1" d="m122.19,93.55l-3.28-11.41"/>
    <path class="cls-1" d="m112.16,114.13l-.5-7.38"/>
    <path class="cls-1" d="m114.37,110.91l-.77-6.15"/>
    <path class="cls-1" d="m115.66,109.67c-.32-2.14-.48-4.29-.49-6.45"/>
    <path class="cls-1" d="m116.88,106.45l-.35-5.22"/>
    <path class="cls-1" d="m118.28,104.29c-.34-2.39-.47-4.81-.41-7.22"/>
    <path class="cls-1" d="m119.28,100.61l-.37-5.69"/>
    <path class="cls-1" d="m120.41,97.53c.02-2.1-.04-4.2-.17-6.3"/>
    <path class="cls-1" d="m121.53,92.61c.17-4.52.15-8.76-.86-13.21"/>
    <path class="cls-1" d="m122.27,81.39c.02-1.88.67-3.97.33-5.83-.23-1.27-.91-2.4-1.15-3.7"/>
    <path class="cls-1" d="m123.56,75.1c-.15-1.18-.23-2.36-.24-3.54"/>
    <path class="cls-1" d="m124.58,73.85c-.26-1.47-.43-2.96-.48-4.46"/>
    <path class="cls-1" d="m125.12,70.32l-.24-4.46"/>
    <path class="cls-1" d="m126.39,66.94l-1.17-7.54"/>
    <path class="cls-1" d="m82.41,45.27c-.31-.99-.46-2.04-.44-3.08"/>
    <path class="cls-1" d="m82.88,38.65c.15,1.27.21,2.56.18,3.84"/>
    <path class="cls-1" d="m84.33,35.58l.18,4.62"/>
    <path class="cls-1" d="m85.97,33.27v3.38"/>
    <path class="cls-1" d="m87.82,30.35v2.61"/>
    <path class="cls-1" d="m89.25,27.44l-.31,2.15"/>
    <path class="cls-1" d="m65,60.77c-.14.56-.11,1.16.1,1.69"/>
    <path class="cls-1" d="m65.98,59.25c.02.89.17,1.77.44,2.62"/>
    <path class="cls-1" d="m67.06,56.64c.08,1.19.22,2.37.43,3.54"/>
    <path class="cls-1" d="m68.08,54.48l.74,6.63"/>
    <path class="cls-1" d="m69.83,51.1l.83,9.08"/>
    <path class="cls-1" d="m71.87,49.26c-.05,2.36.02,4.72.21,7.08"/>
    <path class="cls-1" d="m73.37,47.72l.26,4.31"/>
    <path class="cls-1" d="m75.23,47.57c-.08.71-.04,1.43.12,2.12.14-.09.21-.27.16-.43"/>
    <path class="cls-1" d="m76.5,46.02l.47,2.31c.18-1.18.53-2.33,1.03-3.41.23.33.52.62.85.87"/>
    <path class="cls-1" d="m113.79,26.81c.02,1.04.17,2.08.44,3.08"/>
    <path class="cls-1" d="m117.08,33.12c0-1.95-.35-3.9-1.03-5.73"/>
    <path class="cls-1" d="m118.07,29.74c.77,3.02,1.26,6.11,1.44,9.21"/>
    <path class="cls-1" d="m114.17,47.57l.34,2.71c.01.12.05.26.17.28s.13-.23.03-.18"/>
    <path class="cls-1" d="m115.3,45.57c.14.97.33,1.94.59,2.89.17-.05.27-.26.2-.42"/>
    <path class="cls-1" d="m116.86,43.73c.3,1.45.65,2.89,1.06,4.31"/>
    <path class="cls-1" d="m118.52,42.65l.39,2.91c.16-.1.26-.27.26-.46"/>
    <path class="cls-1" d="m119.45,39.89l.43,2.27c.21-.68.29-1.41.21-2.12"/>
    <path class="cls-1" d="m97.36,29.11l.82,2.67c.08.25.44.5.5.26"/>
    <path class="cls-1" d="m98.31,27.27c.2.9.49,1.78.86,2.63"/>
    <path class="cls-1" d="m99.49,24.82c.12,1.08.36,2.15.72,3.18.16-.06.26-.24.22-.41"/>
    <path class="cls-1" d="m100.3,23.58l.77,2.61"/>
    <path class="cls-1" d="m101.35,22.05c.11.76.26,1.51.43,2.26.17-.12.25-.36.17-.56"/>
    <path class="cls-1" d="m102.43,20.51l1.53.93"/>
    <path class="cls-1" d="m115.34,56.64c-.05.93.04,1.87.27,2.78"/>
    <path class="cls-1" d="m116.58,55.87c-.05,1.01.14,2.02.54,2.95"/>
    <path class="cls-1" d="m118.58,54.03c-.08.92-.05,1.86.07,2.77"/>
    <path class="cls-1" d="m119.95,55.25v-2.15c-.09.41-.15,1.76,0,2.15Z"/>
    <path class="cls-1" d="m121.92,49.72c.07.97.1,1.95.09,2.92"/>
    <path class="cls-1" d="m77.33,57.11l1.09,3.22"/>
    <path class="cls-1" d="m87.21,44.34c.02.8.22,1.6.59,2.31"/>
    <path class="cls-1" d="m90.43,38.5c-.09.45.31.93.77.91"/>
    <path class="cls-1" d="m110.77,134.46c.95.36,1.8,1,2.4,1.82"/>
    <path class="cls-1" d="m110.72,133.35l3.61,3.31"/>
    <path class="cls-1" d="m115.31,135.97c-.02.21-.34.13-.5,0l-4.69-4.02c-.14-.12.27-1.06.17-1.21,2.09,1.84,2.92,3.39,5.01,5.23Z"/>
    <path class="cls-1" d="m109.83,129.02c2.01,1.99,4.09,3.92,6.23,5.77"/>
    <path class="cls-1" d="m109.84,127.77l4.37,3.94"/>
    <path class="cls-1" d="m109.84,125.94c1.11,1.3,2.36,2.49,3.71,3.54"/>
    <path class="cls-1" d="m110.42,124.9l-.26-.3c1.03,1.15,2.06,2.31,3.09,3.46"/>
    <path class="cls-1" d="m110.17,123.15c.92,1.07,1.89,2.1,2.91,3.08"/>
    <path class="cls-1" d="m110.3,121.31l1.82,2.22c.09.11.36.08.26-.02"/>
    <path class="cls-1" d="m110.19,119.14c.71.87,1.47,1.7,2.28,2.47"/>
    <path class="cls-1" d="m110.53,117.87c0,.14-.23-.06-.11-.13s.26.05.35.16c.51.64,1.03,1.28,1.54,1.92"/>
    <path class="cls-1" d="m111.09,116.56c.36.64.84,1.2,1.41,1.65"/>
    <path class="cls-1" d="m111.62,115.08c-.16-.18.04-.48.27-.52s.46.11.66.24"/>
    <path class="cls-1" d="m110.44,132.1c1.59,1.84,3.33,3.54,5.2,5.1"/>
    <path class="cls-1" d="m110.4,130.45c2.18,2.02,4.32,4.08,6.44,6.17"/>
    <path class="cls-1" d="m115.3,132.62l-4.99-5.61"/>
    <path class="cls-1" d="m110.23,125.08c1.37,1.65,2.83,3.23,4.38,4.73.17.16.43.33.61.18"/>
    <path class="cls-1" d="m110.42,123.2l3.32,4.35"/>
    <path class="cls-1" d="m110.14,121.33c.91,1.22,1.9,2.38,2.96,3.48"/>
    <path class="cls-1" d="m110.15,118.86c.86.84,1.62,1.79,2.25,2.82"/>
    <path class="cls-1" d="m109.84,116.26l2.24,2.97c.15,0,.16-.27.02-.28"/>
    <path class="cls-1" d="m110.72,115.06l1.78,2.51"/>
    <path class="cls-1" d="m111.22,114.02c.77.23,1.43.79,1.78,1.51"/>
    <path class="cls-1" d="m118.72,137.96c-4.45-5.65-6.71-12.97-6.23-20.14.08-1.26.4-2.82.86-4"/>
    <path class="cls-1" d="m111.27,136.29c-1.03-4.11-1.15-8.45-.36-12.62"/>
  </g>
</svg>